<svg width="22" height="22" viewBox="0 0 22 22" fill="none" xmlns="http://www.w3.org/2000/svg">
<rect x="2" y="12" width="2" height="2" fill="black"/>
<rect x="12" y="2" width="2" height="2" fill="black"/>
<rect x="4" y="10" width="2" height="2" fill="black"/>
<rect x="14" y="12" width="2" height="2" fill="black"/>
<rect x="6" y="8" width="2" height="2" fill="black"/>
<rect x="16" y="10" width="2" height="2" fill="black"/>
<rect x="10" y="16" width="2" height="2" fill="black"/>
<path d="M10 6H12V4H14V6H16V8H18V10H16V12H14V14H12L8 10V8H10V6Z" fill="black"/>
<rect x="8" y="6" width="2" height="2" fill="black"/>
<rect x="12" y="14" width="2" height="2" fill="black"/>
<rect x="10" y="4" width="2" height="2" fill="black"/>
<rect x="4" y="14" width="2" height="2" fill="black"/>
<rect x="14" y="4" width="2" height="2" fill="black"/>
<rect x="6" y="16" width="2" height="2" fill="black"/>
<rect x="16" y="6" width="2" height="2" fill="black"/>
<rect x="8" y="18" width="2" height="2" fill="black"/>
<rect x="18" y="8" width="2" height="2" fill="black"/>
</svg>
