<svg class="wb_symbol_copy_2" xmlns="http://www.w3.org/2000/svg" width="74" height="26" viewBox="0 0 74 26">
  <path class="svg-secondary" d="M0 0v26h28V4h-2V2h-2V0z"/>
  <g>
    <path class="svg-primary" fill="#FFF" d="M9 2h10v4H9z"/>
    <path class="svg-primary" fill="#FFF" d="M25 6V4h-2V2h-2v6H7V2H2v22h24V6z"/>
  </g>
  <path class="svg-secondary" d="M46 0v26h28V4h-2V2h-2V0z"/>
  <g>
    <path class="svg-primary" fill="#FFF" d="M55 2h10v4H55z"/>
    <path class="svg-primary" fill="#FFF" d="M71 6V4h-2V2h-2v6H53V2h-5v22h24V6z"/>
  </g>
  <path class="svg-tertiary" fill="#FFAA55" d="M30 10v6h5v4h2v-2h2v-2h2v-2h2v-2h-2v-2h-2V8h-2V6h-2v4z"/>
  <path class="svg-tertiary" fill="#FFAA55" d="M55 12v2h2v-2h5v2h-2v2h-2v2h-3v2h9v-2h-3v-2h2v-2h1v-2h-1v-2h-7v2z"/>
  <path class="svg-tertiary" fill="#FFAA55" d="M11 12v2h2v4h-2v2h6v-2h-2v-8h-3v2z"/>
</svg>
