<svg class="wb_symbol_disk_markdown" xmlns="http://www.w3.org/2000/svg"
	 width="36" height="30" viewBox="0 0 36 30">
  <path class="svg-secondary" d="M35,4V2h-1V0H0v30h36V4H35z M4,28H2v-2h2V28z M19,8h-4V2h4V8z"/>
  <polyline class="svg-primary" fill="#FFFFFF" points="30,16 29,16 29,14 6,14 6,30 30,30"/>
  <path class="svg-close svg-tertiary" fill="#FFAA55" d="M9,0v10h17V0H9z M23,8h-4V2h4V8z"/>
  <path class="svg-open svg-tertiary" fill="#FFAA55" d="M5,0v10h17V0H5z M19,8h-4V2h4V8z"/>
  <path class="svg-quaternary" fill="#0055AA" d="M25,14v10h-2v-2h-1v-2h1v-6H25z M22,18v2h-1v-2H22z M20,14v6h1v4h-2v-2h-1v-8H20z"/>
  <path class="svg-tertiary" fill="#FFAA55" d="M15,14v2h1v6h-1v2h-2v-2h1v-6h-2v-2H15z M11,14v2h1v4h1v2h-1v4h1v2h-3V16H9v-2H11z"/>
</svg>
