<svg class="wb_symbol_nuxt" xmlns="http://www.w3.org/2000/svg" width="84px" height="66px" viewBox="0 0 84 66">
  <g>
    <path d="M66 58v-4h-2v-4h-2v-4h-2v-4h-2v-4h-2v-4h-2v-4h-2v-4h-2v-4h-2v-4h-2v-4h-2v-4h-2V6h-2V2h-2V0h-8v2h-2v4h-2v4h-2v4h-2v4h-2v4h-2v4h-2v4h-2v4h-2v4h-2v4H8v4H6v4H4v4H2v4H0v6h2v2h64v-2h2v-6h-2zm-8 0H10v-4h2v-4h2v-4h2v-4h2v-4h2v-4h2v-4h2v-4h2v-4h2v-4h2v-4h2v-4h4v4h2v4h2v4h2v4h2v4h2v4h2v4h2v4h2v4h2v4h2v4h2v4z"/>
    <path class="svg-tertiary" fill="#00c58e" d="M64 58v-4h-2v-4h-2v-4h-2v-4h-2v-4h-2v-4h-2v-4h-2v-4h-2v-4h-2v-4h-2v-4h-2v-4h-2V6h-2V2h-8v4h-2v4h-2v4h-2v4h-2v4h-2v4h-2v4h-2v4h-2v4h-2v4h-2v4H8v4H6v4H4v4H2v6h64v-6h-2zm-2 2H6v-2h2v-4h2v-4h2v-4h2v-4h2v-4h2v-4h2v-4h2v-4h2v-4h2v-4h2v-4h2v-4h2V6h4v4h2v4h2v4h2v4h2v4h2v4h2v4h2v4h2v4h2v4h2v4h2v4h2v4h2v2z"/>
  </g>
  <g>
    <path d="M82 58v-4h-2v-4h-2v-4h-2v-4h-2v-4h-2v-4h-2v-4h-2v-4h-2v-4h-2v-4h-2v-4h-2v-2h-8v2h-2v4h-2v6h-2v2h-2v4h-2v4h-2v4h-2v4h-2v4h-2v4h-2v4h-2v4h-2v6h2v2h52v-2h2v-6h-2zm-8 0H38v-4h2v-4h2v-4h2v-4h2v-4h2v-4h2v-4h2v-4h2v-4h4v4h2v4h2v4h2v4h2v4h2v4h2v4h2v4h2v4z"/>
    <path class="svg-quaternary" fill="#108775" d="M80 58v-4h-2v-4h-2v-4h-2v-4h-2v-4h-2v-4h-2v-4h-2v-4h-2v-4h-2v-4h-2v-4h-8v4h-2v4h-2v4h-2v4h-2v4h-2v4h-2v4h-2v4h-2v4h-2v4h-2v4h-2v6h52v-6h-2zm-2 2H34v-2h2v-4h2v-4h2v-4h2v-4h2v-4h2v-4h2v-4h2v-4h2v-4h2v-4h4v4h2v4h2v4h2v4h2v4h2v4h2v4h2v4h2v4h2v4h2v2z"/>
  </g>
  <g>
    <path d="M66 58v-4h-2v-4h-2v-4h-2v-4h-2v-4h-2v-4h-2v-4h-2v-4h-2v-2h-4v2h-2v4h-2v4h-2v4h-2v4h-2v4h-2v4h-2v4h-2v4h-2v6h2v2h36v-2h2v-6h-2zm-8 0H38v-4h2v-4h2v-4h2v-4h2v-4h4v4h2v4h2v4h2v4h2v4z"/>
    <path class="svg-primary" fill="#2f495e" d="M64 58v-4h-2v-4h-2v-4h-2v-4h-2v-4h-2v-4h-2v-4h-2v-4h-4v4h-2v4h-2v4h-2v4h-2v4h-2v4h-2v4h-2v4h-2v6h36v-6h-2zm-2 2H34v-2h2v-4h2v-4h2v-4h2v-4h2v-4h2v-4h4v4h2v4h2v4h2v4h2v4h2v4h2v2z"/>
  </g>
</svg>
