<svg width="66" height="58" viewBox="0 0 66 58" fill="none" xmlns="http://www.w3.org/2000/svg">
<path d="M60 24L60 22H58V24H56V26H54V28H52V30H50V32H48V34H46L46 36H44V38H42V40H40V42H38V44H36V46H34V48H32V50H30V52H32V54H34V56H36V58H38V56H40V54H42V52H44L44 50H46V48H48V46H50V44H52V42H54V40H56V38H58V36H60V34H62V32H64L64 30H66V28H64V26H62V24H60Z" fill="black"/>
<path d="M34 52H32V50H34V48H36V46H38V44H40V42H42V40H44V38H46V36H48V34H50V32H52V30H54V28H56V26H58V24H60V26L62 26V28H64V30H62V32H60V34H58V36H56V38H54V40H52V42H50V44H48V46H46V48H44V50H42V52H40V54H38V56H36V54H34V52Z" fill="#AD102F"/>
<path d="M64 30L66 30V28H64V26H62V24H60V22H58V20H56V18H54V16L52 16V14H50V12H48V10H46V8H44V6H42V4H40V2H38V0H36V2H34V4H32V6H30V8H32V10H34V12H36V14L38 14V16H40V18H42V20H44V22H46V24H48V26H50V28H52V30H54V32H56V34L58 34V36H60V34H62V32H64V30Z" fill="black"/>
<path d="M36 4V2H38V4H40V6H42V8H44V10H46V12H48V14H50V16H52V18H54V20H56V22H58V24H60V26H62V28H64V30H62V32H60V34H58V32H56V30H54V28H52V26H50V24H48V22H46V20H44V18H42V16H40V14H38V12H36V10H34V8H32V6H34V4H36Z" fill="#DC143C"/>
<path d="M46 30L48 30V28H46V26H44V24H42V22H40V20H38V18H36V16L34 16V14H32V12H30V10H28V8H26V6H24V4H22V2H20V0H18V2H16V4H14V6H12V8H14V10H16V12H18V14L20 14V16H22V18H24V20H26V22H28V24H30V26H32V28H34V30H36V32H38V34L40 34V36H42V34H44V32H46V30Z" fill="black"/>
<path d="M18 4V2H20V4H22V6H24V8H26V10H28V12H30V14H32V16H34V18H36V20H38V22H40V24H42V26H44V28H46V30H44V32H42V34H40V32H38V30H36V28H34V26H32V24H30V22H28V20H26V18H24V16H22V14H20V12H18V10H16V8H14V6H16V4H18Z" fill="#AD102F"/>
<path d="M42 24L42 22H40V24H38V26H36V28H34V30H32V32H30V34H28L28 36H26V38H24V40H22V42H20V44H18V46H16V48H14V50H12V52H14V54H16V56H18V58H20V56H22V54H24V52H26L26 50H28V48H30V46H32V44H34V42H36V40H38V38H40V36H42V34H44V32H46L46 30H48V28H46V26H44V24H42Z" fill="black"/>
<path d="M16 52H14V50H16V48H18V46H20V44H22V42H24V40H26V38H28V36H30V34H32V32H34V30H36V28H38V26H40V24H42V26L44 26V28H46V30H44V32H42V34H40V36H38V38H36V40H34V42H32V44H30V46H28V48H26V50H24V52H22V54H20V56H18V54H16V52Z" fill="#DC143C"/>
<path fill-rule="evenodd" clip-rule="evenodd" d="M14 26H12V28H10V30H12V32H14V30H16V28H14V26ZM10 16H16V18H18V20H20V22H22V24H24V26H26V32H24V34H22V36H20V38H18V40H16V42H10V40H8V38H6V36H4V34H2V32H0V26H2V24H4V22H6V20H8V18H10V16Z" fill="black"/>
<path fill-rule="evenodd" clip-rule="evenodd" d="M2 26V32H4V34H6V36H8V38H10V40H16V38H18V36H20V34H22V32H24V26H22V24H20V22H18V20H16V18H10V20H8V22H6V24H4V26H2ZM16 26H14V24H12V26H10V28H8V30H10V32H12V34H14V32H16V30H18V28H16V26Z" fill="white"/>
</svg>
