<svg class="wb_symbol_synthesizer" xmlns="http://www.w3.org/2000/svg" width="82" height="54" viewBox="0 0 82 54">
<path d="M2,4H0v40h2v2h78v-2l2,0V4l-2,0V2H2V4z M80,44H2V4h78V44z"/>
<polygon points="80,44 80,4 2,4 2,44 0,44 0,52 2,52 2,54 80,54 80,52 82,52 82,44 "/>
<rect x="12" y="46" class="svg-primary" fill="#fff" width="8" height="4"/>
<rect x="22" y="46" class="svg-primary" fill="#fff" width="8" height="4"/>
<rect x="32" y="46" class="svg-primary" fill="#fff" width="8" height="4"/>
<rect x="2" y="46" class="svg-primary" fill="#fff" width="8" height="4"/>
<rect x="42" y="46" class="svg-primary" fill="#fff" width="8" height="4"/>
<rect x="52" y="46" class="svg-primary" fill="#fff" width="8" height="4"/>
<rect x="62" y="46" class="svg-primary" fill="#fff" width="8" height="4"/>
<rect x="72" y="46" class="svg-primary" fill="#fff" width="8" height="4"/>
<g id="whiteKeys">
	<g>
		<rect x="2" y="4" class="svg-primary" fill="#fff" width="8" height="40"/>
	</g>
	<g>
		<rect x="12" y="4" class="svg-primary" fill="#fff" width="8" height="40"/>
	</g>
	<g>
		<rect x="52" y="4" class="svg-primary" fill="#fff" width="8" height="40"/>
	</g>
	<g>
		<rect x="62" y="4" class="svg-primary" fill="#fff" width="8" height="40"/>
	</g>
	<g>
		<rect x="72" y="4" class="svg-primary" fill="#fff" width="8" height="40"/>
	</g>
	<g>
		<rect x="22" y="4" class="svg-primary" fill="#fff" width="8" height="40"/>
	</g>
	<g>
		<rect x="42" y="4" class="svg-primary" fill="#fff" width="8" height="40"/>
	</g>
	<g>
		<rect x="32" y="4" class="svg-primary" fill="#fff" width="8" height="40"/>
	</g>
</g>
<g id="blackKeys">
	<g>
		<rect class="svg-secondary" x="8" width="6" height="29"/>
	</g>
	<g>
		<rect class="svg-secondary" x="18" width="6" height="29"/>
	</g>
	<g>
		<rect class="svg-secondary" x="38" width="6" height="29"/>
	</g>
	<g>
		<rect class="svg-secondary" x="48" width="6" height="29"/>
	</g>
	<g>
		<rect class="svg-secondary" x="58" width="6" height="29"/>
	</g>
</g>
</svg>
