<svg class="wb_symbol_calculator" version="1.1" xmlns="http://www.w3.org/2000/svg" xmlns:xlink="http://www.w3.org/1999/xlink" width="28" height="30" x="0px" y="0px" viewBox="0 0 28 30">
  <polygon class="svg__primary" points="1,0 27,0 27,2 28,2 28,28 27,28 27,30 1,30 1,28 0,28 0,2 1,2 "/>
  <rect x="2" y="2"  width="24" height="26" class="svg__secondary" fill="#FFFFFF"/>
  <rect x="20" y="16" width="3" height="4" class="svg__primary"/>
  <rect x="5" y="10" width="3" height="4" class="svg__primary"/>
  <rect x="5" y="16" width="3" height="4" class="svg__primary"/>
  <rect x="5" y="22" width="3" height="4" class="svg__primary"/>
  <rect x="10" y="10" width="3" height="4" class="svg__primary"/>
  <rect x="10" y="16" width="3" height="4" class="svg__primary"/>
  <rect x="10" y="22" width="3" height="4" class="svg__primary"/>
  <rect x="15" y="10" width="3" height="4" class="svg__primary"/>
  <rect x="15" y="16" width="3" height="4" class="svg__primary"/>
  <rect x="15" y="22" width="3" height="4" class="svg__primary"/>
  <rect x="20" y="10" width="3" height="4" class="svg__primary"/>
  <rect x="20" y="22" width="3" height="4" class="svg__primary"/>
  <rect x="5" y="4" width="18" height="4" class="svg__primary"/>
</svg>
