<svg class="wb_symbol_calculator" xmlns="http://www.w3.org/2000/svg" width="28" height="30" viewBox="0 0 28 30">
  <polygon class="svg-secondary" points="1,0 27,0 27,2 28,2 28,28 27,28 27,30 1,30 1,28 0,28 0,2 1,2 "/>
  <rect x="2" y="2"  width="24" height="26" class="svg-primary" fill="#FFFFFF"/>
  <rect x="20" y="16" width="3" height="4" class="svg-secondary"/>
  <rect x="5" y="10" width="3" height="4" class="svg-secondary"/>
  <rect x="5" y="16" width="3" height="4" class="svg-secondary"/>
  <rect x="5" y="22" width="3" height="4" class="svg-secondary"/>
  <rect x="10" y="10" width="3" height="4" class="svg-secondary"/>
  <rect x="10" y="16" width="3" height="4" class="svg-secondary"/>
  <rect x="10" y="22" width="3" height="4" class="svg-secondary"/>
  <rect x="15" y="10" width="3" height="4" class="svg-secondary"/>
  <rect x="15" y="16" width="3" height="4" class="svg-secondary"/>
  <rect x="15" y="22" width="3" height="4" class="svg-secondary"/>
  <rect x="20" y="10" width="3" height="4" class="svg-secondary"/>
  <rect x="20" y="22" width="3" height="4" class="svg-secondary"/>
  <rect x="5" y="4" width="18" height="4" class="svg-secondary"/>
</svg>
