<svg class="wb_symbol_clock" xmlns="http://www.w3.org/2000/svg"
	 width="43" height="38" viewBox="0 0 43 38" width="43" height="38">
<polygon class="svg__secondary" points="15,0 28,0 28,2 33,2 33,4 36,4 36,6 38,6 38,8 40,8 40,10 41,10 41,12 42,12 42,16 43,16 43,22 42,22 42,26 41,26
	41,28 40,28 40,30 38,30 38,32 36,32 36,34 33,34 33,36 28,36 28,38 15,38 15,36 10,36 10,34 7,34 7,32 5,32 5,30 3,30 3,28 2,28
	2,26 1,26 1,22 0,22 0,16 1,16 1,12 2,12 2,10 3,10 3,8 5,8 5,6 7,6 7,4 10,4 10,2 15,2 "/>
<polygon class="svg__primary" fill="#FFFFFF" points="16,2 27,2 27,4 32,4 32,6 35,6 35,8 37,8 37,10 39,10 39,12 40,12 40,16 41,16 41,22 40,22 40,26
	39,26 39,28 37,28 37,30 35,30 35,32 32,32 32,34 27,34 27,36 16,36 16,34 11,34 11,32 8,32 8,30 6,30 6,28 4,28 4,26 3,26 3,22
	2,22 2,16 3,16 3,12 4,12 4,10 6,10 6,8 8,8 8,6 11,6 11,4 16,4 "/>
<rect class="svg__secondary" x="20" y="2" width="3" height="2"/>
<rect class="svg__secondary" x="10" y="6" width="3" height="2"/>
<rect class="svg__secondary" x="4" y="24" width="3" height="2"/>
<rect class="svg__secondary" x="2" y="18" width="3" height="2"/>
<rect class="svg__secondary" x="4" y="12" width="3" height="2"/>
<rect class="svg__secondary" x="30" y="6" width="3" height="2"/>
<rect class="svg__secondary" x="30" y="30" width="3" height="2"/>
<rect class="svg__secondary" x="10" y="30" width="3" height="2"/>
<rect class="svg__secondary" x="20" y="34" width="3" height="2"/>
<rect class="svg__secondary" x="38" y="18" width="3" height="2"/>
<rect class="svg__secondary" x="36" y="24" width="3" height="2"/>
<rect class="svg__secondary" x="36" y="12" width="3" height="2"/>
<polygon class="svg__secondary" points="16,10 19,10 19,12 20,12 20,14 21,14 21,18 22,18 22,20 21,20 21,22 19,22 19,24 17,24 17,26 15,26 15,28 12,28
	12,26 14,26 14,24 16,24 16,22 18,22 18,20 20,20 20,18 19,18 19,16 18,16 18,14 17,14 17,12 16,12 "/>
<polygon class="svg__tertiary" fill="#FFAA52" points="27,6 29,6 29,8 28,8 28,10 27,10 27,12 26,12 26,14 25,14 25,16 24,16 24,18 23,18 23,20 22,20 22,16 23,16 23,14
	24,14 24,12 25,12 25,10 26,10 26,8 27,8 "/>
</svg>
