<svg class="wb_symbol_copy_1" xmlns="http://www.w3.org/2000/svg" width="79" height="32" viewBox="0 0 79 32">
  <path class="svg-secondary" d="M0 0h33v32H0z"/>
  <path class="svg-primary" fill="#FFF" d="M2 2h29v28H2z"/>
  <path class="svg-secondary" d="M8 10v4h8v-2h1v2h-1v2h-2v2h-1v2h-1v2h1v2h-1v2h1v2h7v-2h1v-2h-1v-2h1v-2h1v-2h1v-2h2v-2h1v-4h-1V8h-1V6h-2V4H12v2h-2v2H9v2z"/>
  <g>
    <path class="svg-tertiary" fill="#FFAA55" d="M23 10V8h-2V6h-8v2h-2v2h-1v2h5v-2h4v4h-1v2h-2v2h-1v2h-1v2h5v-2h1v-2h1v-2h2v-2h1v-4z"/>
    <path class="svg-tertiary" fill="#FFAA55" d="M14 24h5v2h-5z"/>
  </g>
  <g>
    <path class="svg-secondary" d="M4 6h4v2H4z"/>
    <path class="svg-secondary" d="M4 12h2v2H4z"/>
    <path class="svg-secondary" d="M4 18h4v2H4z"/>
    <path class="svg-secondary" d="M9 18.12V20h2v-2H9z"/>
    <path class="svg-secondary" d="M4 24h1v2H4z"/>
    <path class="svg-secondary" d="M6 24h4v2H6z"/>
    <path class="svg-secondary" d="M23 24h2v2h-2z"/>
    <path class="svg-secondary" d="M26 24h3v2h-3z"/>
    <path class="svg-secondary" d="M24 18h2v2h-2z"/>
    <path class="svg-secondary" d="M27 18h2v2h-2z"/>
    <path class="svg-secondary" d="M27 12h2v2h-2z"/>
    <path class="svg-secondary" d="M26 6h3v2h-3z"/>
  </g>
  <path class="svg-tertiary" fill="#FFAA55" d="M35 10v6h5v4h2v-2h2v-2h2v-2h2v-2h-2v-2h-2V8h-2V6h-2v4z"/>
  <path class="svg-secondary" d="M47 32v-4h-1v-6h1v-4h1v-2h1v-2h1v-2h1V0h24v2h2v2h2v22H69v2h-1v2h-1v2z"/>
  <g>
    <path class="svg-primary" fill="#FFF" d="M77 24V6h-1V4h-2V2h-2v6H58V2h-5v16h1v-2h1v-2h1v-2h4v2h1v4h-1v2h-1v2h-1v2z"/>
    <path class="svg-primary" fill="#FFF" d="M60 2h10v4H60z"/>
    <path class="svg-primary" fill="#FFF" d="M56 14h2v2h-2z"/>
    <path class="svg-primary" fill="#FFF" d="M59 20v-2h1v-4h-1v2h-1v2h-4v2h-1v2h-2v2h-1v-2h1v-8h-1v2h-1v2h-1v4h-1v6h1v4h8v-2h1v-8h1v-2z"/>
    <path class="svg-primary" fill="#FFF" d="M66 32v-2h1v-2h1v-2H58v4h-1v2z"/>
  </g>
</svg>
