<svg class="wb_symbol_disk_copy" version="1.1" id="Ebene_1" xmlns="http://www.w3.org/2000/svg" x="0" y="0" width="74px" height="26px" viewBox="0 0 74 26" xml:space="preserve">
  <path class="svg__secondary" d="M0 0v26h28V4h-2V2h-2V0z"/>
  <g>
    <path class="svg__primary" fill="#FFFFFF" d="M9 2h10v4H9z"/>
    <path class="svg__primary" fill="#FFFFFF" d="M25 6V4h-2V2h-2v6H7V2H2v22h24V6z"/>
  </g>
  <path class="svg__secondary" d="M46 0v26h28V4h-2V2h-2V0z"/>
  <g>
    <path class="svg__primary" fill="#FFFFFF" d="M55 2h10v4H55z"/>
    <path class="svg__primary" fill="#FFFFFF" d="M71 6V4h-2V2h-2v6H53V2h-5v22h24V6z"/>
  </g>
  <path class="svg__tertiary" fill="#FFAA52" d="M30 10v6h5v4h2v-2h2v-2h2v-2h2v-2h-2v-2h-2V8h-2V6h-2v4z"/>
  <path class="svg__tertiary" fill="#FFAA52" d="M55 12v2h2v-2h5v2h-2v2h-2v2h-3v2h9v-2h-3v-2h2v-2h1v-2h-1v-2h-7v2z"/>
  <path class="svg__tertiary" fill="#FFAA52" d="M11 12v2h2v4h-2v2h6v-2h-2v-8h-3v2z"/>
</svg>
