<svg version="1.1" class="wb_symbol_display_keyboard" xmlns="http://www.w3.org/2000/svg" width="48" height="42" viewBox="0 0 48 42">
  <path class="svg__secondary" d="M4 28h40v2h1v2h1v2h1v2h1v6H0v-6h1v-2h1v-2h1v-2h1z"/>
  <path class="svg__primary" fill="#FFFFFF" d="M5 30h38v2h1v2h1v2h1v4H2v-4h1v-2h1v-2h1z"/>
  <g>
    <path class="svg__secondary" d="M8 34v-2H6v2H5v2H4v2h2v-2h1v-2z"/>
    <path class="svg__secondary" d="M11 34v-2H9v2H8v2H7v2h2v-2h1v-2z"/>
    <path class="svg__secondary" d="M14 34v-2h-2v2h-1v2h-1v2h2v-2h1v-2z"/>
    <path class="svg__secondary" d="M17 32h-2v2h-1v2h-1v2h2v-2h1v-2h1z"/>
    <path class="svg__secondary" d="M43 36v-2h-1v-2h-2v2h1v2h1v2h2v-2z"/>
    <path class="svg__secondary" d="M40 34h-1v-2h-2v2h1v2h1v2h2v-2h-1z"/>
    <path class="svg__secondary" d="M37 34h-1v-2h-2v2h1v2h1v2h2v-2h-1z"/>
    <path class="svg__secondary" d="M33 34h-1v-2h-2v2h1v2h1v2h2v-2h-1z"/>
    <path class="svg__secondary" d="M30 34h-1v-2h-2v2h1v2h1v2h2v-2h-1z"/>
    <path class="svg__secondary" d="M26 32h-2v4h1v2h2v-2h-1z"/>
    <path class="svg__secondary" d="M21 32h2v6h-2z"/>
    <path class="svg__secondary" d="M18 36h-1v2h2v-2h1v-4h-2z"/>
  </g>
  <g>
    <path class="svg__primary" fill="#FFFFFF" d="M2 0h44v26H2z"/>
    <path class="svg__secondary" d="M4 2h40v22H4z"/>
    <path class="svg__quaternary" fill="#0055AA" d="M6 4h36v18H6z"/>
    <g>
      <path class="svg__tertiary" fill="#FFAA55" d="M39 4v4h-3v2h-1v2h2v-2h4v2h-4v2h-1v2h1v2h3v2h1v2h1V4z"/>
      <path class="svg__tertiary" fill="#FFAA55" d="M35 6h1v2h-1z"/>
      <path class="svg__tertiary" fill="#FFAA55" d="M37 4h1v2h-1z"/>
      <path class="svg__tertiary" fill="#FFAA55" d="M23 12v-2h2v2h1V8h1V6h1V4h-2v2h-5V4h-5v2h1v2h2v2h1v2h2v2h2v-2z"/>
      <path class="svg__tertiary" fill="#FFAA55" d="M29 14h-5v4h1v2h-1v2h3v-2h3v-2h1v-2h-2z"/>
      <path class="svg__tertiary" fill="#FFAA55" d="M30 4h2v2h-2z"/>
      <path class="svg__tertiary" fill="#FFAA55" d="M12 6h-1V4H6v10h1v-2h3v-2h1V8h2V6h1V4h-2z"/>
      <path class="svg__tertiary" fill="#FFAA55" d="M13 18h-1v2h-1v-2H9v2H8v2h6v-2h-1z"/>
      <path class="svg__tertiary" fill="#FFAA55" d="M16 20h1v2h-1z"/>
      <path class="svg__tertiary" fill="#FFAA55" d="M12 14h1v2h-1z"/>
      <path class="svg__tertiary" fill="#FFAA55" d="M10 12h1v2h-1z"/>
    </g>
  </g>
</svg>
