<svg version="1.1" class="wb_symbol_document_reader" xmlns="http://www.w3.org/2000/svg" width="100px" height="54px" viewBox="0 0 100 54">
  <g>
    <path class="svg__secondary" d="M0 4v48h2v2h46v-4h1V0H3v2H1v2H0zm46 46h1v2h-1v-2zm-2 0h1v2h-1v-2zm-2 0h1v2h-1v-2zm-2 0h1v2h-1v-2zm-2 0h1v2h-1v-2zm-2 0h1v2h-1v-2zm-2 0h1v2h-1v-2zm-2 0h1v2h-1v-2zm-2 0h1v2h-1v-2zm-2 0h1v2h-1v-2zm-2 0h1v2h-1v-2zm-2 0h1v2h-1v-2zm-2 0h1v2h-1v-2zm-2 0h1v2h-1v-2zm-2 0h1v2h-1v-2zm-2 0h1v2h-1v-2zm-2 0h1v2h-1v-2zm-2 0h1v2h-1v-2zm-2 0h1v2h-1v-2zm-2 0h1v2H8v-2zm-2 0h1v2H6v-2zm-2 0h1v2H4v-2zM5 2v46V2zM2 4h1v46H2V4z"/>
    <g>
      <path class="svg__primary" fill="#fff" d="M5 2h42v46H5z"/>
      <path class="svg__primary" fill="#fff" d="M4 50h1v2H4z"/>
      <path class="svg__primary" fill="#fff" d="M6 50h1v2H6z"/>
      <path class="svg__primary" fill="#fff" d="M8 50h1v2H8z"/>
      <path class="svg__primary" fill="#fff" d="M10 50h1v2h-1z"/>
      <path class="svg__primary" fill="#fff" d="M12 50h1v2h-1z"/>
      <path class="svg__primary" fill="#fff" d="M14 50h1v2h-1z"/>
      <path class="svg__primary" fill="#fff" d="M16 50h1v2h-1z"/>
      <path class="svg__primary" fill="#fff" d="M18 50h1v2h-1z"/>
      <path class="svg__primary" fill="#fff" d="M20 50h1v2h-1z"/>
      <path class="svg__primary" fill="#fff" d="M22 50h1v2h-1z"/>
      <path class="svg__primary" fill="#fff" d="M24 50h1v2h-1z"/>
      <path class="svg__primary" fill="#fff" d="M26 50h1v2h-1z"/>
      <path class="svg__primary" fill="#fff" d="M28 50h1v2h-1z"/>
      <path class="svg__primary" fill="#fff" d="M30 50h1v2h-1z"/>
      <path class="svg__primary" fill="#fff" d="M32 50h1v2h-1z"/>
      <path class="svg__primary" fill="#fff" d="M34 50h1v2h-1z"/>
      <path class="svg__primary" fill="#fff" d="M40 50h1v2h-1z"/>
      <path class="svg__primary" fill="#fff" d="M42 50h1v2h-1z"/>
      <path class="svg__primary" fill="#fff" d="M44 50h1v2h-1z"/>
      <path class="svg__primary" fill="#fff" d="M46 50h1v2h-1z"/>
      <path class="svg__primary" fill="#fff" d="M36 50h1v2h-1z"/>
      <path class="svg__primary" fill="#fff" d="M38 50h1v2h-1z"/>
      <path class="svg__primary" fill="#fff" d="M2 4h1v46H2z"/>
    </g>
    <path class="svg__secondary" d="M99 4V2h-2V0H51v50h1v4h46v-2h2V4h-1zM54 52h-1v-2h1v2zm2 0h-1v-2h1v2zm2 0h-1v-2h1v2zm2 0h-1v-2h1v2zm2 0h-1v-2h1v2zm2 0h-1v-2h1v2zm2 0h-1v-2h1v2zm2 0h-1v-2h1v2zm2 0h-1v-2h1v2zm2 0h-1v-2h1v2zm2 0h-1v-2h1v2zm2 0h-1v-2h1v2zm2 0h-1v-2h1v2zm2 0h-1v-2h1v2zm2 0h-1v-2h1v2zm2 0h-1v-2h1v2zm2 0h-1v-2h1v2zm2 0h-1v-2h1v2zm2 0h-1v-2h1v2zm2 0h-1v-2h1v2zm2 0h-1v-2h1v2zm2 0h-1v-2h1v2zm-1-4V2v46zm3 2h-1V4h1v46z"/>
    <g>
      <path class="svg__primary" fill="#fff" d="M53 2h42v46H53z"/>
      <path class="svg__primary" fill="#fff" d="M53 50h1v2h-1z"/>
      <path class="svg__primary" fill="#fff" d="M55 50h1v2h-1z"/>
      <path class="svg__primary" fill="#fff" d="M57 50h1v2h-1z"/>
      <path class="svg__primary" fill="#fff" d="M59 50h1v2h-1z"/>
      <path class="svg__primary" fill="#fff" d="M61 50h1v2h-1z"/>
      <path class="svg__primary" fill="#fff" d="M63 50h1v2h-1z"/>
      <path class="svg__primary" fill="#fff" d="M65 50h1v2h-1z"/>
      <path class="svg__primary" fill="#fff" d="M67 50h1v2h-1z"/>
      <path class="svg__primary" fill="#fff" d="M69 50h1v2h-1z"/>
      <path class="svg__primary" fill="#fff" d="M71 50h1v2h-1z"/>
      <path class="svg__primary" fill="#fff" d="M73 50h1v2h-1z"/>
      <path class="svg__primary" fill="#fff" d="M75 50h1v2h-1z"/>
      <path class="svg__primary" fill="#fff" d="M77 50h1v2h-1z"/>
      <path class="svg__primary" fill="#fff" d="M79 50h1v2h-1z"/>
      <path class="svg__primary" fill="#fff" d="M81 50h1v2h-1z"/>
      <path class="svg__primary" fill="#fff" d="M83 50h1v2h-1z"/>
      <path class="svg__primary" fill="#fff" d="M89 50h1v2h-1z"/>
      <path class="svg__primary" fill="#fff" d="M91 50h1v2h-1z"/>
      <path class="svg__primary" fill="#fff" d="M93 50h1v2h-1z"/>
      <path class="svg__primary" fill="#fff" d="M95 50h1v2h-1z"/>
      <path class="svg__primary" fill="#fff" d="M85 50h1v2h-1z"/>
      <path class="svg__primary" fill="#fff" d="M87 50h1v2h-1z"/>
      <path class="svg__primary" fill="#fff" d="M97 4h1v46h-1z"/>
    </g>
  </g>
  <g>
    <g>
      <g>
        <path class="svg__secondary" d="M44 2h2v2h-2V2z"/>
        <path class="svg__secondary" d="M54 2h2v2h-2V2z"/>
      </g>
      <g>
        <path class="svg__tertiary" fill="#FFAA55" d="M48 0h4v2h-4V0z" />
        <path class="svg__tertiary" fill="#FFAA55" d="M46 2h3v2h-3V2z" />
        <path class="svg__tertiary" fill="#FFAA55" d="M51 2h3v2h-3V2z" />
        <path class="svg__secondary" d="M49 4h2v2h-2V4z"/>
      </g>
    </g>
    <g>
      <g>
        <path class="svg__secondary" d="M44 8h2v2h-2V8z"/>
        <path class="svg__secondary" d="M54 8h2v2h-2V8z"/>
      </g>
      <g>
        <path class="svg__tertiary" fill="#FFAA55" d="M48 6h4v2h-4V6z" />
        <path class="svg__tertiary" fill="#FFAA55" d="M46 8h3v2h-3V8z" />
        <path class="svg__tertiary" fill="#FFAA55" d="M51 8h3v2h-3V8z" />
        <path class="svg__secondary" d="M49 10h2v2h-2v-2z"/>
      </g>
    </g>
    <g>
      <g>
        <path class="svg__secondary" d="M44 14h2v2h-2v-2z"/>
        <path class="svg__secondary" d="M54 14h2v2h-2v-2z"/>
      </g>
      <g>
        <path class="svg__tertiary" fill="#FFAA55" d="M48 12h4v2h-4v-2z" />
        <path class="svg__tertiary" fill="#FFAA55" d="M46 14h3v2h-3v-2z" />
        <path class="svg__tertiary" fill="#FFAA55" d="M51 14h3v2h-3v-2z" />
        <path class="svg__secondary" d="M49 16h2v2h-2v-2z"/>
      </g>
    </g>
    <g>
      <g>
        <path class="svg__secondary" d="M44 20h2v2h-2v-2z"/>
        <path class="svg__secondary" d="M54 20h2v2h-2v-2z"/>
      </g>
      <g>
        <path class="svg__tertiary" fill="#FFAA55" d="M48 18h4v2h-4v-2z" />
        <path class="svg__tertiary" fill="#FFAA55" d="M46 20h3v2h-3v-2z" />
        <path class="svg__tertiary" fill="#FFAA55" d="M51 20h3v2h-3v-2z" />
        <path class="svg__secondary" d="M49 22h2v2h-2v-2z"/>
      </g>
    </g>
    <g>
      <g>
        <path class="svg__secondary" d="M44 26h2v2h-2v-2z"/>
        <path class="svg__secondary" d="M54 26h2v2h-2v-2z"/>
      </g>
      <g>
        <path class="svg__tertiary" fill="#FFAA55" d="M48 24h4v2h-4v-2z" />
        <path class="svg__tertiary" fill="#FFAA55" d="M46 26h3v2h-3v-2z" />
        <path class="svg__tertiary" fill="#FFAA55" d="M51 26h3v2h-3v-2z" />
        <path class="svg__secondary" d="M49 28h2v2h-2v-2z"/>
      </g>
    </g>
    <g>
      <g>
        <path class="svg__secondary" d="M44 32h2v2h-2v-2z"/>
        <path class="svg__secondary" d="M54 32h2v2h-2v-2z"/>
      </g>
      <g>
        <path class="svg__tertiary" fill="#FFAA55" d="M48 30h4v2h-4v-2z" />
        <path class="svg__tertiary" fill="#FFAA55" d="M46 32h3v2h-3v-2z" />
        <path class="svg__tertiary" fill="#FFAA55" d="M51 32h3v2h-3v-2z" />
        <path class="svg__secondary" d="M49 34h2v2h-2v-2z"/>
      </g>
    </g>
    <g>
      <g>
        <path class="svg__secondary" d="M44 38h2v2h-2v-2z"/>
        <path class="svg__secondary" d="M54 38h2v2h-2v-2z"/>
      </g>
      <g>
        <path class="svg__tertiary" fill="#FFAA55" d="M48 36h4v2h-4v-2z" />
        <path class="svg__tertiary" fill="#FFAA55" d="M46 38h3v2h-3v-2z" />
        <path class="svg__tertiary" fill="#FFAA55" d="M51 38h3v2h-3v-2z" />
        <path class="svg__secondary" d="M49 40h2v2h-2v-2z"/>
      </g>
    </g>
    <g>
      <g>
        <path class="svg__secondary" d="M44 44h2v2h-2v-2z"/>
        <path class="svg__secondary" d="M54 44h2v2h-2v-2z"/>
      </g>
      <g>
        <path class="svg__tertiary" fill="#FFAA55" d="M48 42h4v2h-4v-2z" />
        <path class="svg__tertiary" fill="#FFAA55" d="M46 44h3v2h-3v-2z" />
        <path class="svg__tertiary" fill="#FFAA55" d="M51 44h3v2h-3v-2z" />
        <path class="svg__secondary" d="M49 46h2v2h-2v-2z"/>
      </g>
    </g>
  </g>
  <g>
    <g>
      <g>
        <path class="svg__secondary" d="M7 4h12v4H7V4z"/>
        <path class="svg__secondary" d="M21 4h11v4H21V4z"/>
        <path class="svg__secondary" d="M35 15h4v2h-4v-2z"/>
        <path class="svg__secondary" d="M26 15h3v2h-3v-2z"/>
        <path class="svg__secondary" d="M31 15h3v2h-3v-2z"/>
        <path class="svg__secondary" d="M7 10h6v2H7v-2z"/>
        <path class="svg__secondary" d="M7 15h3v2H7v-2z"/>
        <path class="svg__secondary" d="M16 10h11v2H16v-2z"/>
        <path class="svg__secondary" d="M12 15h11v2H12v-2z"/>
        <path class="svg__secondary" d="M25 27h17v10H25V27z"/>
        <path class="svg__quaternary" fill="#0055AA" d="M27 29h13v6H27v-6z" />
        <path class="svg__secondary" d="M7 35h2v2H7v-2z"/>
        <path class="svg__secondary" d="M7 27h5v2H7v-2z"/>
        <path class="svg__secondary" d="M12 31h5v2h-5v-2z"/>
        <path class="svg__secondary" d="M18 31h5v2h-5v-2z"/>
        <path class="svg__secondary" d="M17 29h-3v-2h3"/>
        <path class="svg__secondary" d="M23 29h-3v-2h3"/>
        <path class="svg__secondary" d="M7 31h3v2H7v-2z"/>
        <path class="svg__secondary" d="M10 35h3v2h-3v-2z"/>
        <path class="svg__secondary" d="M14 35h3v2h-3v-2z"/>
        <path class="svg__secondary" d="M20 35h3v2h-3v-2z"/>
        <path class="svg__secondary" d="M35 39h7v2h-7v-2z"/>
        <path class="svg__secondary" d="M26 43h4v2h-4v-2z"/>
        <path class="svg__secondary" d="M23 39h2v2h-2v-2z"/>
        <path class="svg__secondary" d="M7 39h2v2H7v-2z"/>
        <path class="svg__secondary" d="M7 43h5v2H7v-2z"/>
        <path class="svg__secondary" d="M26 39h3v2h-3v-2z"/>
        <path class="svg__secondary" d="M29 39h3v2h-3v-2z"/>
        <path class="svg__secondary" d="M31 43h5v2h-5v-2z"/>
        <path class="svg__secondary" d="M11 39h10v2H11v-2z"/>
        <path class="svg__secondary" d="M14 43h10v2H14v-2z"/>
        <g>
          <path class="svg__tertiary" fill="#FFAA55" d="M38 34v-1h-6v-3h-2v3h-2v1h-1v1h13v-1h-2z" />
          <path class="svg__tertiary" fill="#FFAA55" d="M37 30h1v1h-1v-1z" />
          <path class="svg__tertiary" fill="#FFAA55" d="M33 29h2v2h-2v-2z" />
          <path class="svg__tertiary" fill="#FFAA55" d="M38 32h1v1h-1v-1z" />
          <path class="svg__tertiary" fill="#FFAA55" d="M27 29h1v1h-1v-1z" />
        </g>
      </g>
      <path class="svg__secondary" d="M31 23h6v2h-6v-2z"/>
      <path class="svg__secondary" d="M38 23h4v2h-4v-2z"/>
      <path class="svg__secondary" d="M26 21v-2h7v2"/>
      <path class="svg__secondary" d="M23 23h2v2h-2v-2z"/>
      <path class="svg__secondary" d="M7 23h2v2H7v-2z"/>
      <path class="svg__secondary" d="M7 21v-2h5v2"/>
      <path class="svg__secondary" d="M26 23h3v2h-3v-2z"/>
      <path class="svg__secondary" d="M37 21v-2h5v2"/>
      <path class="svg__secondary" d="M11 23h10v2H11v-2z"/>
      <path class="svg__secondary" d="M14 21v-2h10v2"/>
    </g>
    <g>
      <path class="svg__secondary" d="M88 15h4v2h-4v-2z"/>
      <path class="svg__secondary" d="M77 15h9v2h-9v-2z"/>
      <path class="svg__secondary" d="M58 11h3v2h-3v-2z"/>
      <path class="svg__secondary" d="M63 11h6v2h-6v-2z"/>
      <path class="svg__secondary" d="M71 11h11v2H71v-2z"/>
      <path class="svg__secondary" d="M58 15h17v10H58V15z"/>
      <path class="svg__quaternary" fill="#0055AA" d="M60 17h13v6H60v-6z" />
      <path class="svg__secondary" d="M58 35h6v2h-6v-2z"/>
      <path class="svg__secondary" d="M58 27h5v2h-5v-2z"/>
      <path class="svg__secondary" d="M63 31h5v2h-5v-2z"/>
      <path class="svg__secondary" d="M69 31h5v2h-5v-2z"/>
      <path class="svg__secondary" d="M68 29h-3v-2h3"/>
      <path class="svg__secondary" d="M74 29h-3v-2h3"/>
      <path class="svg__secondary" d="M58 31h3v2h-3v-2z"/>
      <path class="svg__secondary" d="M65 35h3v2h-3v-2z"/>
      <path class="svg__secondary" d="M69 35h3v2h-3v-2z"/>
      <path class="svg__secondary" d="M58 39h2v2h-2v-2z"/>
      <path class="svg__secondary" d="M58 43h5v2h-5v-2z"/>
      <path class="svg__secondary" d="M68 39h10v2H68v-2z"/>
      <path class="svg__secondary" d="M62 39h5v2h-5v-2z"/>
      <path class="svg__secondary" d="M65 43h10v2H65v-2z"/>
      <g>
        <path class="svg__tertiary" fill="#FFAA55" d="M69 22v-1h-2v-1h-3v1h-1v1h-1v-1h-1v1h-1v1h13v-1h-4z" />
        <path class="svg__tertiary" fill="#FFAA55" d="M71 17h1v2h-2v-1h1v-1z" />
        <path class="svg__tertiary" fill="#FFAA55" d="M68 17v1h-4v-1h4z" />
        <path class="svg__tertiary" fill="#FFAA55" d="M71 20h1v1h-1v-1z" />
        <path class="svg__tertiary" fill="#FFAA55" d="M65 18h1v1h-1v-1z" />
        <path class="svg__tertiary" fill="#FFAA55" d="M62 17h1v1h-1v-1z" />
        <path class="svg__tertiary" fill="#FFAA55" d="M60 17h1v2h-1v-2z" />
      </g>
      <path class="svg__secondary" d="M76 27h17v10H76V27z"/>
      <path class="svg__quaternary" fill="#0055AA" d="M78 29h13v6H78v-6z" />
      <g>
        <path class="svg__tertiary" fill="#FFAA55" d="M89 34v-1h-6v-3h-2v3h-2v1h-1v1h13v-1h-2z" />
        <path class="svg__tertiary" fill="#FFAA55" d="M88 30h1v1h-1v-1z" />
        <path class="svg__tertiary" fill="#FFAA55" d="M84 29h2v2h-2v-2z" />
        <path class="svg__tertiary" fill="#FFAA55" d="M89 32h1v1h-1v-1z" />
        <path class="svg__tertiary" fill="#FFAA55" d="M78 29h1v1h-1v-1z" />
      </g>
      <path class="svg__secondary" d="M83 23h10v2H83v-2z"/>
      <path class="svg__secondary" d="M77 21v-2h7v2"/>
      <path class="svg__secondary" d="M77 23h5v2h-5v-2z"/>
      <path class="svg__secondary" d="M86 21v-2h7v2"/>
      <path class="svg__secondary" d="M58 7h8v2h-8V7z"/>
      <path class="svg__secondary" d="M89 43h4v2h-4v-2z"/>
      <path class="svg__secondary" d="M84 43h3v2h-3v-2z"/>
      <path class="svg__secondary" d="M87 4h2v2h-2V4z"/>
      <path class="svg__secondary" d="M90 4h3v2h-3V4z"/>
      <path class="svg__secondary" d="M82 7h3v2h-3V7z"/>
      <path class="svg__secondary" d="M80 39h3v2h-3v-2z"/>
      <path class="svg__secondary" d="M84 39h3v2h-3v-2z"/>
      <path class="svg__secondary" d="M77 7h3v2h-3V7z"/>
      <path class="svg__secondary" d="M68 7h7v2h-7V7z"/>
    </g>
  </g>
</svg>
