<svg version="1.1" class="wb_symbol_document_editor" xmlns="http://www.w3.org/2000/svg" width="98px" height="46px" viewBox="0 0 98 46" xml:space="preserve">
  <g>
    <g>
      <path class="svg__secondary" d="M0 0h29v2h3v2h2v2h2v2h2v2h2v36H0V0z"/>
      <path class="svg__primary" fill="#fff" d="M28 2v10h10v32H2V2h26z" />
      <path class="svg__primary" fill="#fff" d="M30 4v6h6V8h-2V6h-2V4h-2z" />
    </g>
    <g>
      <path class="svg__secondary" d="M10 6h8v2h-8V6z"/>
      <path class="svg__secondary" d="M6 10h8v2H6v-2z"/>
      <path class="svg__secondary" d="M16 10h5v2h-5v-2z"/>
      <path class="svg__secondary" d="M22 10h4v2h-4v-2z"/>
      <path class="svg__secondary" d="M29 14h4v2h-4v-2z"/>
      <path class="svg__secondary" d="M30 18h4v2h-4v-2z"/>
      <path class="svg__secondary" d="M32 26h4v2h-4v-2z"/>
      <path class="svg__secondary" d="M25 30h4v2h-4v-2z"/>
      <path class="svg__secondary" d="M25 18h3v2h-3v-2z"/>
      <path class="svg__secondary" d="M33 22h2v2h-2v-2z"/>
      <path class="svg__secondary" d="M22 26h2v2h-2v-2z"/>
      <path class="svg__secondary" d="M6 26h2v2H6v-2z"/>
      <path class="svg__secondary" d="M6 38h2v2H6v-2z"/>
      <path class="svg__secondary" d="M6 22h2v2H6v-2z"/>
      <path class="svg__secondary" d="M6 14h6v2H6v-2z"/>
      <path class="svg__secondary" d="M6 30h5v2H6v-2z"/>
      <path class="svg__secondary" d="M11 34h5v2h-5v-2z"/>
      <path class="svg__secondary" d="M25 26h3v2h-3v-2z"/>
      <path class="svg__secondary" d="M28 34h3v2h-3v-2z"/>
      <path class="svg__secondary" d="M32 34h3v2h-3v-2z"/>
      <path class="svg__secondary" d="M31 30h5v2h-5v-2z"/>
      <path class="svg__secondary" d="M18 34h3v2h-3v-2z"/>
      <path class="svg__secondary" d="M22 34h3v2h-3v-2z"/>
      <path class="svg__secondary" d="M6 34h3v2H6v-2z"/>
      <path class="svg__secondary" d="M9 38h3v2H9v-2z"/>
      <path class="svg__secondary" d="M14 38h3v2h-3v-2z"/>
      <path class="svg__secondary" d="M32 38h3v2h-3v-2z"/>
      <path class="svg__secondary" d="M6 6h3v2H6V6z"/>
      <path class="svg__secondary" d="M6 18h3v2H6v-2z"/>
      <path class="svg__secondary" d="M20 6h6v2h-6V6z"/>
      <path class="svg__secondary" d="M15 14h11v2H15v-2z"/>
      <path class="svg__secondary" d="M11 18h11v2H11v-2z"/>
      <path class="svg__secondary" d="M10 26h10v2H10v-2z"/>
      <path class="svg__secondary" d="M9 22h7v2H9v-2z"/>
      <path class="svg__secondary" d="M18 22h4v2h-4v-2z"/>
      <path class="svg__secondary" d="M24 22h7v2h-7v-2z"/>
      <path class="svg__secondary" d="M13 30h10v2H13v-2z"/>
      <path class="svg__secondary" d="M19 38h11v2H19v-2z"/>
    </g>
  </g>
  <g>
    <g>
      <path class="svg__secondary" d="M58 0h29v2h3v2h2v2h2v2h2v2h2v36H58V0z"/>
      <path class="svg__primary" fill="#fff" d="M86 2v10h10v32H60V2h26z" />
      <path class="svg__primary" fill="#fff" d="M88 4v6h6V8h-2V6h-2V4h-2z" />
    </g>
    <g>
      <path class="svg__secondary" d="M64 6h12v4H64z"/>
      <path class="svg__secondary" d="M78 6h6v4h-6z"/>
      <path class="svg__secondary" d="M88 17h4v2h-4v-2z"/>
      <path class="svg__secondary" d="M83 17h3v2h-3v-2z"/>
      <path class="svg__secondary" d="M64 12h6v2h-6v-2z"/>
      <path class="svg__secondary" d="M64 17h3v2h-3v-2z"/>
      <path class="svg__secondary" d="M73 12h11v2H73v-2z"/>
      <path class="svg__secondary" d="M69 17h11v2H69v-2z"/>
      <path class="svg__secondary" d="M76 21h17v10H76z"/>
      <path class="svg__quaternary" fill="#0055AA" d="M78 23h13v6H78z"/>
      <path class="svg__secondary" d="M64 29h2v2h-2v-2z"/>
      <path class="svg__secondary" d="M64 21h5v2h-5v-2z"/>
      <path class="svg__secondary" d="M69 25h5v2h-5v-2z"/>
      <path class="svg__secondary" d="M74 23h-3v-2h3"/>
      <path class="svg__secondary" d="M64 25h3v2h-3v-2z"/>
      <path class="svg__secondary" d="M67 29h3v2h-3v-2z"/>
      <path class="svg__secondary" d="M71 29h3v2h-3v-2z"/>
      <path class="svg__secondary" d="M90 34h4v2h-4v-2z"/>
      <path class="svg__secondary" d="M83 38h4v2h-4v-2z"/>
      <path class="svg__secondary" d="M80 34h2v2h-2v-2z"/>
      <path class="svg__secondary" d="M64 34h2v2h-2v-2z"/>
      <path class="svg__secondary" d="M64 38h5v2h-5v-2z"/>
      <path class="svg__secondary" d="M83 34h3v2h-3v-2z"/>
      <path class="svg__secondary" d="M89 38h5v2h-5v-2z"/>
      <path class="svg__secondary" d="M68 34h10v2H68v-2z"/>
      <path class="svg__secondary" d="M71 38h10v2H71v-2z"/>
      <g>
        <path class="svg__tertiary" fill="#FFAA52" d="M89 28v-1h-6v-3h-2v3h-2v1h-1v1h13v-1z"/>
        <path class="svg__tertiary" fill="#FFAA52" d="M88 24h1v1h-1z"/>
        <path class="svg__tertiary" fill="#FFAA52" d="M84 23h2v2h-2z"/>
        <path class="svg__tertiary" fill="#FFAA52" d="M89 26h1v1h-1z"/>
        <path class="svg__tertiary" fill="#FFAA52" d="M78 23h1v1h-1z"/>
      </g>
    </g>
  </g>
  <g>
    <g>
      <path class="svg__secondary" d="M44 24v-2h4v-2h-6v6h6v-2z"/>
      <path class="svg__secondary" d="M48 26v4h2v-2h2v-2h-2z"/>
      <path class="svg__secondary" d="M52 20v-2h-2v-2h-2v4h2z"/>
      <path class="svg__secondary" d="M52 20h2v2h-2z"/>
      <path class="svg__secondary" d="M54 22h2v2h-2z"/>
      <path class="svg__secondary" d="M52 24h2v2h-2z"/>
    </g>
    <path class="svg__tertiary" fill="#FFAA52" d="M52 22v-2h-4v2h-4v2h4v2h4v-2h2v-2z"/>
  </g>
</svg>
