<svg class="wb_symbol_fullscreen" version="1.1" xmlns="http://www.w3.org/2000/svg" xmlns:xlink="http://www.w3.org/1999/xlink" x="0px" y="0px" width="44" height="40"
	 viewBox="0 0 44 40">
<g>
  <rect class="svg__quaternary" fill="#0055AA" x="4" y="4" width="36" height="32"/>
	<g>
		<path class="svg__secondary" d="M0,0v40h44V0H0z M42,38H2V2h40V38z"/>
		<path class="svg__primary" d="M2,2v36h40V2H2z M40,36H4V4h36V36z"/>
	</g>
	<g>
		<g>
			<polygon class="svg__tertiary" fill="#FFAA52" points="30,8 30,10 32,10 32,12 34,12 34,14 36,14 36,8"/>
			<rect class="svg__tertiary" fill="#FFAA52" x="30" y="12" width="2" height="2"/>
			<rect class="svg__tertiary" fill="#FFAA52" x="28" y="14" width="2" height="2"/>
		</g>
		<g>
			<polygon class="svg__tertiary" fill="#FFAA52" points="30,32 30,30 32,30 32,28 34,28 34,26 36,26 36,32"/>
			<rect class="svg__tertiary" fill="#FFAA52" x="30" y="26" width="2" height="2"/>
			<rect class="svg__tertiary" fill="#FFAA52" x="28" y="24" width="2" height="2"/>
		</g>
		<g>
			<polygon class="svg__tertiary" fill="#FFAA52" points="14,8 14,10 12,10 12,12 10,12 10,14 8,14 8,8"/>
			<rect class="svg__tertiary" fill="#FFAA52" x="12" y="12" width="2" height="2"/>
			<rect class="svg__tertiary" fill="#FFAA52" x="14" y="14" width="2" height="2"/>
		</g>
		<g>
			<polygon class="svg__tertiary" fill="#FFAA52" points="14,32 14,30 12,30 12,28 10,28 10,26 8,26 8,32"/>
			<rect class="svg__tertiary" fill="#FFAA52" x="12" y="26" width="2" height="2"/>
			<rect class="svg__tertiary" fill="#FFAA52" x="14" y="24" width="2" height="2"/>
		</g>
	</g>
</g>
</svg>
