<svg class="wb_symbol_work" version="1.1" xmlns="http://www.w3.org/2000/svg" xmlns:xlink="http://www.w3.org/1999/xlink" x="0px" y="0px" width="71px" height="28px" viewBox="0 0 71 28">
<rect class="svg__primary" x="1" y="2" fill="#FFFFFF" width="69" height="24"/>
<polyline class="svg__secondary" points="0,2 1,2 1,26 0,26 "/>
<polyline class="svg__secondary" points="1,26 70,26 70,28 1,28 "/>
<polyline class="svg__secondary" points="1,0 70,0 70,2 1,2 "/>
<polyline class="svg__secondary" points="70,2 71,2 71,26 70,26 "/>
<polygon class="svg__tertiary" fill="#FFAA52" points="4,4 6,4 6,6 5,6 5,22 64,22 64,6 63,6 63,4 65,4 65,24 4,24 "/>
<polygon class="svg__tertiary" fill="#FFAA52" points="7,4 9,4 9,6 8,6 8,18 58,18 58,6 57,6 57,4 59,4 59,20 7,20 "/>
<rect class="svg__secondary" x="12" y="8" width="5" height="2"/>
<rect class="svg__secondary" x="40" y="10" width="1" height="2"/>
<rect class="svg__secondary" x="46" y="10" width="1" height="2"/>
<rect class="svg__secondary" x="44" y="10" width="1" height="2"/>
<rect class="svg__secondary" x="43" y="12" width="1" height="2"/>
<rect class="svg__secondary" x="42" y="10" width="1" height="2"/>
<rect class="svg__secondary" x="41" y="12" width="1" height="2"/>
<rect class="svg__secondary" x="42" y="14" width="1" height="2"/>
<rect class="svg__secondary" x="45" y="12" width="1" height="2"/>
<rect class="svg__secondary" x="44" y="14" width="1" height="2"/>
<rect class="svg__secondary" x="46" y="14" width="1" height="2"/>
<rect class="svg__secondary" x="47" y="12" width="1" height="2"/>
<rect class="svg__secondary" x="47" y="8" width="1" height="2"/>
<rect class="svg__secondary" x="48" y="10" width="1" height="2"/>
<rect class="svg__secondary" x="49" y="8" width="1" height="2"/>
<rect class="svg__secondary" x="48" y="6" width="1" height="2"/>
<rect class="svg__secondary" x="50" y="6" width="1" height="2"/>
<rect class="svg__secondary" x="51" y="8" width="1" height="2"/>
<rect class="svg__secondary" x="52" y="6" width="1" height="2"/>
<rect class="svg__secondary" x="50" y="10" width="1" height="2"/>
<rect class="svg__secondary" x="49" y="12" width="1" height="2"/>
<rect class="svg__secondary" x="48" y="14" width="1" height="2"/>
</svg>
