<svg class="wb_symbol_keyboard_question" xmlns="http://www.w3.org/2000/svg" width="48" height="40" viewBox="0 0 48 40">
  <path class="svg__secondary" d="M4 14h40v2h1v2h1v2h1v2h1v6H0v-6h1v-2h1v-2h1v-2h1z"/>
  <g>
    <path class="svg__primary" fill="#fff" d="M10 20h1v2h-1z"/>
    <path class="svg__primary" fill="#fff" d="M37 20h1v2h-1z"/>
    <path class="svg__primary" fill="#fff" d="M13 20h1v2h-1z"/>
    <path class="svg__primary" fill="#fff" d="M7 20h1v2H7z"/>
    <path class="svg__primary" fill="#fff" d="M40 20h1v2h-1z"/>
    <path class="svg__primary" d="M45 22v-2h-1v-2h-1v-2H5v2H4v2H3v2H2v4h44v-4h-1zm-29 0h-1v2h-2v-2h-1v2h-2v-2H9v2H7v-2H6v2H4v-2h1v-2h1v-2h2v2h1v-2h2v2h1v-2h2v2h1v-2h2v2h-1v2zm4 0h-1v2h-2v-2h1v-4h2v4zm3-2h-2v-2h2v2zm11 4h-2v-2h-1v2h-2v-2h2v-2h2v2h1v2zm10 0h-2v-2h-1v2h-2v-2h-1v2h-2v-2h-1v-2h-1v-2h2v2h1v-2h2v2h1v-2h2v2h1v2h1v2z" fill="#fff"/>
  </g>
  <g>
    <g>
      <path class="svg__secondary" d="M26 24h-1v4h-4v-4h1v-2h1v-2h1v-2h-2v2h-1v2h-1v2h-1v6h8v-6h1v-2h-2z"/>
      <path class="svg__secondary" d="M28 20h2v2h-2z"/>
      <path class="svg__secondary" d="M24 16h2v2h-2z"/>
      <path class="svg__secondary" d="M35 8V6h-1V4h-1V2h-2V0H18v2h-3v2h-2v2h-1v2h-1v4h8v-2h2V8h6v2h1v2h-1v2h-1v2h2v-2h2V8h-2V6h-8v2h-2v2h-5V8h1V6h2V4h3V2h11v2h2v2h1v2h1v6h-1v2h-1v2h2v-2h1v-2h1V8z"/>
      <path class="svg__secondary" d="M30 18h2v2h-2z"/>
    </g>
    <path class="svg__tertiary" fill="#ffaa55" d="M13 8v2h5V8h2V6h8v2h2v6h-2v2h-2v2h-2v2h-1v2h-1v2h-1v4h4v-4h1v-2h2v-2h2v-2h2v-2h1v-2h1V8h-1V6h-1V4h-2V2H19v2h-3v2h-2v2z"/>
    <path class="svg__secondary" d="M26 34v-2h-6v2h-1v4h1v2h6v-2h1v-4h-1zm-1 4h-4v-4h4v4z"/>
    <path class="svg__tertiary" fill="#ffaa55" d="M21 34h4v4h-4z"/>
  </g>
</svg>
