<svg version="1.1" class="wb_symbol_large_note_rich" xmlns="http://www.w3.org/2000/svg" width="40" height="46" viewBox="0 0 40 46">
  <g>
    <path class="svg-secondary" d="M0 0h29v2h3v2h2v2h2v2h2v2h2v36H0V0z"/>
    <path class="svg-primary" fill="#fff" d="M28 2v10h10v32H2V2h26z"/>
    <path class="svg-primary" fill="#fff" d="M30 4v6h6V8h-2V6h-2V4h-2z"/>
  </g>
  <g>
    <path class="svg-secondary" d="M6 6h12v4H6V6z"/>
    <path class="svg-secondary" d="M20 6h6v4h-6V6z"/>
    <path class="svg-secondary" d="M30 17h4v2h-4v-2z"/>
    <path class="svg-secondary" d="M25 17h3v2h-3v-2z"/>
    <path class="svg-secondary" d="M6 12h6v2H6v-2z"/>
    <path class="svg-secondary" d="M6 17h3v2H6v-2z"/>
    <path class="svg-secondary" d="M15 12h11v2H15v-2z"/>
    <path class="svg-secondary" d="M11 17h11v2H11v-2z"/>
    <path class="svg-secondary" d="M18 21h17v10H18V21z"/>
    <path class="svg-quaternary" fill="#0055AA"  d="M20 23h13v6H20v-6z" />
    <path class="svg-secondary" d="M6 29h2v2H6v-2z"/>
    <path class="svg-secondary" d="M6 21h5v2H6v-2z"/>
    <path class="svg-secondary" d="M11 25h5v2h-5v-2z"/>
    <path class="svg-secondary" d="M16 23h-3v-2h3"/>
    <path class="svg-secondary" d="M6 25h3v2H6v-2z"/>
    <path class="svg-secondary" d="M9 29h3v2H9v-2z"/>
    <path class="svg-secondary" d="M13 29h3v2h-3v-2z"/>
    <path class="svg-secondary" d="M32 34h4v2h-4v-2z"/>
    <path class="svg-secondary" d="M25 38h4v2h-4v-2z"/>
    <path class="svg-secondary" d="M22 34h2v2h-2v-2z"/>
    <path class="svg-secondary" d="M6 34h2v2H6v-2z"/>
    <path class="svg-secondary" d="M6 38h5v2H6v-2z"/>
    <path class="svg-secondary" d="M25 34h3v2h-3v-2z"/>
    <path class="svg-secondary" d="M31 38h5v2h-5v-2z"/>
    <path class="svg-secondary" d="M10 34h10v2H10v-2z"/>
    <path class="svg-secondary" d="M13 38h10v2H13v-2z"/>
    <g>
      <path class="svg-tertiary" fill="#ffaa55" d="M31 28v-1h-6v-3h-2v3h-2v1h-1v1h13v-1h-2z"/>
      <path class="svg-tertiary" fill="#ffaa55" d="M30 24h1v1h-1v-1z"/>
      <path class="svg-tertiary" fill="#ffaa55" d="M26 23h2v2h-2v-2z"/>
      <path class="svg-tertiary" fill="#ffaa55" d="M31 26h1v1h-1v-1z"/>
      <path class="svg-tertiary" fill="#ffaa55" d="M20 23h1v1h-1v-1z"/>
    </g>
  </g>
</svg>
