<svg class="wb_symbol_large_notepad_help" id="Ebene_1" xmlns="http://www.w3.org/2000/svg" width="54" height="56" viewBox="0 0 54 56" xml:space="preserve">
  <path class="svg__secondary" d="M53 6V4h-2V2h-2V0H1v52h2v2h2v-2h1v2H5v2h47v-2h2V6h-1zM8 54H7v-2h1v2zm2 0H9v-2h1v2zm2 0h-1v-2h1v2zm2 0h-1v-2h1v2zm2 0h-1v-2h1v2zm2 0h-1v-2h1v2zm2 0h-1v-2h1v2zm2 0h-1v-2h1v2zm2 0h-1v-2h1v2zm2 0h-1v-2h1v2zm2 0h-1v-2h1v2zm2 0h-1v-2h1v2zm2 0h-1v-2h1v2zm2 0h-1v-2h1v2zm2 0h-1v-2h1v2zm2 0h-1v-2h1v2zm2 0h-1v-2h1v2zm2 0h-1v-2h1v2zm2 0h-1v-2h1v2zm2 0h-1v-2h1v2zm2 0h-1v-2h1v2zm2 0h-1v-2h1v2zm0-4h-1V4h1v46zm2 2h-1V6h1v46z"/>
  <g>
    <path class="svg__primary" d="M5 52h1v2H5v-2z" fill="#FFFFFF"/>
    <path class="svg__primary" d="M7 52h1v2H7v-2z" fill="#FFFFFF"/>
    <path class="svg__primary" d="M9 52h1v2H9v-2z" fill="#FFFFFF"/>
    <path class="svg__primary" d="M11 52h1v2h-1v-2z" fill="#FFFFFF"/>
    <path class="svg__primary" d="M13 52h1v2h-1v-2z" fill="#FFFFFF"/>
    <path class="svg__primary" d="M15 52h1v2h-1v-2z" fill="#FFFFFF"/>
    <path class="svg__primary" d="M17 52h1v2h-1v-2z" fill="#FFFFFF"/>
    <path class="svg__primary" d="M19 52h1v2h-1v-2z" fill="#FFFFFF"/>
    <path class="svg__primary" d="M21 52h1v2h-1v-2z" fill="#FFFFFF"/>
    <path class="svg__primary" d="M23 52h1v2h-1v-2z" fill="#FFFFFF"/>
    <path class="svg__primary" d="M25 52h1v2h-1v-2z" fill="#FFFFFF"/>
    <path class="svg__primary" d="M27 52h1v2h-1v-2z" fill="#FFFFFF"/>
    <path class="svg__primary" d="M29 52h1v2h-1v-2z" fill="#FFFFFF"/>
    <path class="svg__primary" d="M31 52h1v2h-1v-2z" fill="#FFFFFF"/>
    <path class="svg__primary" d="M33 52h1v2h-1v-2z" fill="#FFFFFF"/>
    <path class="svg__primary" d="M35 52h1v2h-1v-2z" fill="#FFFFFF"/>
    <path class="svg__primary" d="M37 52h1v2h-1v-2z" fill="#FFFFFF"/>
    <path class="svg__primary" d="M41 52h1v2h-1v-2z" fill="#FFFFFF"/>
    <path class="svg__primary" d="M43 52h1v2h-1v-2z" fill="#FFFFFF"/>
    <path class="svg__primary" d="M45 52h1v2h-1v-2z" fill="#FFFFFF"/>
    <path class="svg__primary" d="M47 52h1v2h-1v-2z" fill="#FFFFFF"/>
    <path class="svg__primary" d="M49 52h1v2h-1v-2z" fill="#FFFFFF"/>
    <path class="svg__primary" d="M4 48H3v2h44V2H3v2h3v2H3v4h3v2H3v4h3v2H3v4h3v2H2.94L3 28h3v2H3v4h3v2H3v4h3v2H3v4h3v2H4z" fill="#FFFFFF"/>
    <path class="svg__primary" d="M49 4h1v46h-1V4z" fill="#FFFFFF"/>
    <path class="svg__primary" d="M51 6h1v46h-1V6z" fill="#FFFFFF"/>
    <path class="svg__primary" d="M39 52h1v2h-1v-2z" fill="#FFFFFF"/>
  </g>
  <g>
    <path class="svg__tertiary" fill="#FFAA52" d="M1 4h3v2H1z"/>
    <path class="svg__tertiary" fill="#FFAA52" d="M0 6h1v2H0z"/>
  </g>
  <g>
    <path class="svg__tertiary" fill="#FFAA52" d="M1 10h3v2H1z"/>
    <path class="svg__tertiary" fill="#FFAA52" d="M0 12h1v2H0z"/>
  </g>
  <g>
    <path class="svg__tertiary" fill="#FFAA52" d="M1 16h3v2H1z"/>
    <path class="svg__tertiary" fill="#FFAA52" d="M0 18h1v2H0z"/>
  </g>
  <g>
    <path class="svg__tertiary" fill="#FFAA52" d="M1 22h3v2H1z"/>
    <path class="svg__tertiary" fill="#FFAA52" d="M0 24h1v2H0z"/>
  </g>
  <g>
    <path class="svg__tertiary" fill="#FFAA52" d="M1 28h3v2H1z"/>
    <path class="svg__tertiary" fill="#FFAA52" d="M0 30h1v2H0z"/>
  </g>
  <g>
    <path class="svg__tertiary" fill="#FFAA52" d="M1 34h3v2H1z"/>
    <path class="svg__tertiary" fill="#FFAA52" d="M0 36h1v2H0z"/>
  </g>
  <g>
    <path class="svg__tertiary" fill="#FFAA52" d="M1 40h3v2H1z"/>
    <path class="svg__tertiary" fill="#FFAA52" d="M0 42h1v2H0z"/>
  </g>
  <g>
    <path class="svg__tertiary" fill="#FFAA52" d="M1 46h3v2H1z"/>
    <path class="svg__tertiary" fill="#FFAA52" d="M0 48h1v2H0z"/>
  </g>
<g>
	<g>
		<path class="svg__secondary" d="M29,39h-6v2h-1v2h1v2h6v-2h1v-2h-1V39z"/>
		<path class="svg__secondary" d="M38,15v-2h-1v-2h-1V9h-2V7H21v2h-3v2h-2v2h-1v2h-1v4h8v-2h2v-2h6v2h1v2h-1v2h-2v2h-2v2h-2v2h-1v2h-1v8h8v-4h1v-2h1v-2h1
			v-2h2v-2h2v-2h1v-2h1v-6H38z"/>
	</g>
	<g>
		<path class="svg__tertiary" fill="#FFAA52" d="M36,15v-2h-1v-2h-2V9H22v2h-3v2h-2v2h-1v2h5v-2h2v-2h8v2h2v6h-2v2h-2v2h-2v2h-1v2h-1v2h-1v4h4v-4h1
			v-2h1v-2h2v-2h2v-2h2v-2h1v-6H36z"/>
		<path class="svg__tertiary" fill="#FFAA52" d="M24,41h4v2h-4V41z"/>
	</g>
</g>
</svg>
