<svg class="wb_symbol_more" version="1.1" xmlns="http://www.w3.org/2000/svg" xmlns:xlink="http://www.w3.org/1999/xlink" x="0px" y="0px"
	  width="44px" height="32px" viewBox="0 0 44 32">
    <path class="svg__secondary" d="M38 10h-1v4h-1v4h-1v2h-1v2h-1v4h1v-2h3v2h1v2h-1v4H2v-2H1v-2H0v-4h1v-2h1v-2h1v-2h1v-4h1v-4h1V4h1V2h1V0h35v2h1v4h-1v2h-3V6h-2z" />
    <path class="svg__primary" fill="#FFF" d="M38 2H8v2H7v6H6v4H5v4H4v2H3v2H2v2H1v4h1v2h30v-2h-1v-2h1v-4h1v-2h1v-2h1v-4h1v-4h1V4h1z" />
    <path class="svg__tertiary" fill="#FFAA52" d="M40 4V2h2v2h1v2h-1V4h-2v2h-1V4zM2 22h1v2H2zM3 20h1v2H3zM30 26h1v2h-1zM32 20h1v2h-1zM33 18h1v2h-1zM37 2h1v2h-1zM30 28h2v2h-2zM1 24h1v4H1zM14 28h1v2h-1zM16 28h1v2h-1zM12 28h1v2h-1zM10 28h1v2h-1zM8 28h1v2H8zM6 28h1v2H6zM4 28h1v2H4zM22 28h1v2h-1zM20 28h1v2h-1zM18 28h1v2h-1zM28 28h1v2h-1zM26 28h1v2h-1zM24 28h1v2h-1zM2 28h1v2H2z" />
    <path d="M11 20v2h1v2h1v2h1v2h2v-2h2v-2h2v-2h2v-2h-3v-2h1v-2h1v-2h1v-2h4v-2h-1V8h-1V6h-1V4h-2v2h-2v2h-2v2h-2v2h3v2h-1v2h-1v2h-1v2z" />
    <path class="svg__tertiary" fill="#FFAA52" d="M34 28v2h2v-2h1v-2h-1v2h-2v-2h-1v2z" />
</svg>
