<svg class="wb_symbol_note" xmlns="http://www.w3.org/2000/svg"
	 width="40" height="40" viewBox="0 0 40 40">
<g fill="#FFFFFF" class="svg__primary">
	<polygon points="26,12 26,2 2,2 2,38 38,38 38,12 	"/>
	<polygon points="36,8 34,8 34,6 32,6 32,4 30,4 30,2 28,2 28,10 36,10 	"/>
</g>
<g fill="#000000" class="svg__secondary">
	<rect x="5" y="8" width="9" height="2"/>
	<rect x="10" y="18" width="3" height="2"/>
	<rect x="15" y="18" width="9" height="2"/>
	<rect x="26" y="18" width="7" height="2"/>
	<rect x="18" y="22" width="15" height="2"/>
	<rect x="9" y="22" width="7" height="2"/>
	<rect x="5" y="22" width="2" height="2"/>
	<rect x="5" y="26" width="20" height="2"/>
	<rect x="27" y="26" width="6" height="2"/>
	<path d="M24,34h9c0,0,0-1,0-2h-9V34z"/>
	<rect x="5" y="12" width="9" height="2"/>
	<rect x="32" y="4" width="2" height="2"/>
	<rect x="30" y="2" width="2" height="2"/>
	<rect x="34" y="6" width="2" height="2"/>
	<path d="M38,10V8h-2v2h-8V2h2V0H0v40h40V10.083L38,10z M38,38H2V2h24v10h12V38z"/>
</g>
</svg>
