<svg class="wb_symbol_notepad" xmlns="http://www.w3.org/2000/svg"  width="33" height="32" viewBox="0 0 33 32">
<path class="svg__secondary" d="M32,8V6h-2V4h-2V2H0v26h2v2h2v-2h1v2H4v2h27v-2h2V8H32z M7,30H6v-2h1V30z M9,30H8v-2h1V30z M11,30h-1v-2h1V30z M13,30h-1v-2
	h1V30z M15,30h-1v-2h1V30z M17,30h-1v-2h1V30z M19,30h-1v-2h1V30z M21,30h-1v-2h1V30z M23,30h-1v-2h1V30z M25,30h-1v-2h1V30z M27,30
	h-1v-2h1V30z M29,30h-1v-2h1V30z M29,26h-1V6h1V26z M31,28h-1V8h1V28z"/>
<polygon class="svg__primary" fill="#FFFFFF" points="25,4 25,6 21,6 21,4 16,4 16,6 12,6 12,4 7,4 7,6 3,6 3,4 2,4 2,26 26,26 26,4 "/>
<polygon class="svg__tertiary" fill="#FFAA55" points="8,2 8,0 4,0 4,2 3,2 3,4 4,4 4,6 6,6 6,4 5,4 5,2 "/>
<polygon class="svg__tertiary" fill="#FFAA55" points="17,2 17,0 13,0 13,2 12,2 12,4 13,4 13,6 15,6 15,4 14,4 14,2 "/>
<polygon class="svg__tertiary" fill="#FFAA55" points="26,2 26,0 22,0 22,2 21,2 21,4 22,4 22,6 24,6 24,4 23,4 23,2 "/>
<g>
	<rect class="svg__secondary" x="13" y="10" width="1" height="2"/>
	<path class="svg__secondary" d="M22,22v-2h-1V8h-2v2h-1V8h-4v2h3v2h-2v2h-2v2h-2v2H9v2H7v2H5v-2h1v-2H4v2H3v2h1v2h4v-2h2v-2h2v-2h7v4h1v2h4v-2H22z M19,16
		h-3v-2h2v-2h1V16z"/>
</g>
<path class="svg__primary" fill="#FFFFFF" d="M24,22"/>
<rect x="4" y="28" class="svg__primary" fill="#FFFFFF" width="1" height="2"/>
<rect x="6" y="28" class="svg__primary" fill="#FFFFFF" width="1" height="2"/>
<rect x="8" y="28" class="svg__primary" fill="#FFFFFF" width="1" height="2"/>
<rect x="10" y="28" class="svg__primary" fill="#FFFFFF" width="1" height="2"/>
<rect x="12" y="28" class="svg__primary" fill="#FFFFFF" width="1" height="2"/>
<rect x="14" y="28" class="svg__primary" fill="#FFFFFF" width="1" height="2"/>
<rect x="16" y="28" class="svg__primary" fill="#FFFFFF" width="1" height="2"/>
<rect x="18" y="28" class="svg__primary" fill="#FFFFFF" width="1" height="2"/>
<rect x="20" y="28" class="svg__primary" fill="#FFFFFF" width="1" height="2"/>
<rect x="22" y="28" class="svg__primary" fill="#FFFFFF" width="1" height="2"/>
<rect x="24" y="28" class="svg__primary" fill="#FFFFFF" width="1" height="2"/>
<rect x="26" y="28" class="svg__primary" fill="#FFFFFF" width="1" height="2"/>
<rect x="28" y="28" class="svg__primary" fill="#FFFFFF" width="1" height="2"/>
<rect x="28" y="6" class="svg__primary" fill="#FFFFFF" width="1" height="20"/>
<rect x="30" y="8" class="svg__primary" fill="#FFFFFF" width="1" height="20"/>
</svg>
