<svg class="wb_symbol_palette" xmlns="http://www.w3.org/2000/svg" width="38" height="26" viewBox="0 0 38 26" xml:space="preserve">
  <path class="svg__primary" fill="#FFFFFF" d="M0 0h38v26H0z"/>
  <path class="svg__secondary" d="M2 2h7v4H2z"/>
  <g>
    <path class="svg__quaternary" fill="#0055AA" d="M29 8h1v2h-1z"/>
    <path class="svg__quaternary" fill="#0055AA" d="M30 10h1v2h-1z"/>
    <path class="svg__quaternary" fill="#0055AA" d="M31 8h1v2h-1z"/>
    <path class="svg__quaternary" fill="#0055AA" d="M32 10h1v2h-1z"/>
    <path class="svg__quaternary" fill="#0055AA" d="M33 8h1v2h-1z"/>
    <path class="svg__quaternary" fill="#0055AA" d="M34 10h1v2h-1z"/>
    <path class="svg__quaternary" fill="#0055AA" d="M35 8h1v2h-1z"/>
  </g>
  <g>
    <path class="svg__quaternary" fill="#0055AA" d="M11 20h1v2h-1z"/>
    <path class="svg__quaternary" fill="#0055AA" d="M12 22h1v2h-1z"/>
    <path class="svg__quaternary" fill="#0055AA" d="M13 20h1v2h-1z"/>
    <path class="svg__quaternary" fill="#0055AA" d="M14 22h1v2h-1z"/>
    <path class="svg__quaternary" fill="#0055AA" d="M15 20h1v2h-1z"/>
    <path class="svg__quaternary" fill="#0055AA" d="M16 22h1v2h-1z"/>
    <path class="svg__quaternary" fill="#0055AA" d="M17 20h1v2h-1z"/>
  </g>
  <path class="svg__quaternary" fill="#0055AA" d="M20 14h7v4h-7z"/>
  <g>
    <path class="svg__secondary" d="M2 20h1v4H2z"/>
    <path class="svg__secondary" d="M4 20h1v4H4z"/>
    <path class="svg__secondary" d="M6 20h1v4H6z"/>
    <path class="svg__secondary" d="M8 20h1v4H8z"/>
  </g>
  <g>
    <g>
      <path class="svg__quaternary" fill="#0055AA" d="M11 10h1v2h-1z"/>
      <path class="svg__quaternary" fill="#0055AA" d="M12 8h1v2h-1z"/>
      <path class="svg__quaternary" fill="#0055AA" d="M13 10h1v2h-1z"/>
      <path class="svg__quaternary" fill="#0055AA" d="M14 8h1v2h-1z"/>
      <path class="svg__quaternary" fill="#0055AA" d="M15 10h1v2h-1z"/>
      <path class="svg__quaternary" fill="#0055AA" d="M16 8h1v2h-1z"/>
      <path class="svg__quaternary" fill="#0055AA" d="M17 10h1v2h-1z"/>
    </g>
    <g>
      <path class="svg__secondary" d="M11 8h1v2h-1z"/>
      <path class="svg__secondary" d="M12 10h1v2h-1z"/>
      <path class="svg__secondary" d="M13 8h1v2h-1z"/>
      <path class="svg__secondary" d="M14 10h1v2h-1z"/>
      <path class="svg__secondary" d="M15 8h1v2h-1z"/>
      <path class="svg__secondary" d="M16 10h1v2h-1z"/>
      <path class="svg__secondary" d="M17 8h1v2h-1z"/>
    </g>
  </g>
  <g>
    <path class="svg__secondary" d="M29 2h1v2h-1z"/>
    <path class="svg__secondary" d="M30 4h1v2h-1z"/>
    <path class="svg__secondary" d="M31 2h1v2h-1z"/>
    <path class="svg__secondary" d="M32 4h1v2h-1z"/>
    <path class="svg__secondary" d="M33 2h1v2h-1z"/>
    <path class="svg__secondary" d="M34 4h1v2h-1z"/>
    <path class="svg__secondary" d="M35 2h1v2h-1z"/>
  </g>
  <g>
    <g>
      <path class="svg__quaternary" fill="#0055AA" d="M3 10h1v2H3z"/>
      <path class="svg__quaternary" fill="#0055AA" d="M5 8h1v2H5z"/>
      <path class="svg__quaternary" fill="#0055AA" d="M7 10h1v2H7z"/>
    </g>
    <g>
      <path class="svg__secondary" d="M3 8h1v2H3z"/>
      <path class="svg__secondary" d="M5 10h1v2H5z"/>
      <path class="svg__secondary" d="M7 8h1v2H7z"/>
    </g>
    <g>
      <path class="svg__tertiary" fill="#FFAA52" d="M2 8h1v4H2z"/>
      <path class="svg__tertiary" fill="#FFAA52" d="M4 8h1v4H4z"/>
      <path class="svg__tertiary" fill="#FFAA52" d="M6 8h1v4H6z"/>
      <path class="svg__tertiary" fill="#FFAA52" d="M8 8h1v4H8z"/>
    </g>
  </g>
  <g>
    <g>
      <path class="svg__secondary" d="M7 14h1v2H7z"/>
      <path class="svg__secondary" d="M8 16h1v2H8z"/>
      <path class="svg__secondary" d="M5 14h1v2H5z"/>
      <path class="svg__secondary" d="M6 16h1v2H6z"/>
      <path class="svg__secondary" d="M3 14h1v2H3z"/>
      <path class="svg__secondary" d="M4 16h1v2H4z"/>
      <path class="svg__secondary" d="M2 16h1v2H2z"/>
    </g>
    <g>
      <path class="svg__tertiary" fill="#FFAA52" d="M2 14h1v2H2z"/>
      <path class="svg__tertiary" fill="#FFAA52" d="M3 16h1v2H3z"/>
      <path class="svg__tertiary" fill="#FFAA52" d="M4 14h1v2H4z"/>
      <path class="svg__tertiary" fill="#FFAA52" d="M5 16h1v2H5z"/>
      <path class="svg__tertiary" fill="#FFAA52" d="M6 14h1v2H6z"/>
      <path class="svg__tertiary" fill="#FFAA52" d="M7 16h1v2H7z"/>
      <path class="svg__tertiary" fill="#FFAA52" d="M8 14h1v2H8z"/>
    </g>
  </g>
  <g>
    <path class="svg__tertiary" fill="#FFAA52" d="M11 2h1v4h-1z"/>
    <path class="svg__tertiary" fill="#FFAA52" d="M13 2h1v4h-1z"/>
    <path class="svg__tertiary" fill="#FFAA52" d="M15 2h1v4h-1z"/>
    <path class="svg__tertiary" fill="#FFAA52" d="M17 2h1v4h-1z"/>
  </g>
  <path class="svg__tertiary" fill="#FFAA52" d="M29 20h7v4h-7z"/>
  <g>
    <g>
      <path class="svg__secondary" d="M25 20h1v2h-1z"/>
      <path class="svg__secondary" d="M26 22h1v2h-1z"/>
      <path class="svg__secondary" d="M23 20h1v2h-1z"/>
      <path class="svg__secondary" d="M24 22h1v2h-1z"/>
      <path class="svg__secondary" d="M21 20h1v2h-1z"/>
      <path class="svg__secondary" d="M20 22h1v2h-1z"/>
      <path class="svg__secondary" d="M22 22h1v2h-1z"/>
    </g>
    <g>
      <path class="svg__tertiary" fill="#FFAA52" d="M20 20h1v2h-1z"/>
      <path class="svg__tertiary" fill="#FFAA52" d="M22 20h1v2h-1z"/>
      <path class="svg__tertiary" fill="#FFAA52" d="M21 22h1v2h-1z"/>
      <path class="svg__tertiary" fill="#FFAA52" d="M23 22h1v2h-1z"/>
      <path class="svg__tertiary" fill="#FFAA52" d="M24 20h1v2h-1z"/>
      <path class="svg__tertiary" fill="#FFAA52" d="M26 20h1v2h-1z"/>
      <path class="svg__tertiary" fill="#FFAA52" d="M25 22h1v2h-1z"/>
    </g>
  </g>
  <g>
    <g>
      <path class="svg__quaternary" fill="#0055AA" d="M11 16h1v2h-1z"/>
      <path class="svg__quaternary" fill="#0055AA" d="M12 14h1v2h-1z"/>
      <path class="svg__quaternary" fill="#0055AA" d="M13 16h1v2h-1z"/>
      <path class="svg__quaternary" fill="#0055AA" d="M14 14h1v2h-1z"/>
      <path class="svg__quaternary" fill="#0055AA" d="M15 16h1v2h-1z"/>
      <path class="svg__quaternary" fill="#0055AA" d="M16 14h1v2h-1z"/>
      <path class="svg__quaternary" fill="#0055AA" d="M17 16h1v2h-1z"/>
    </g>
    <g>
      <path class="svg__tertiary" fill="#FFAA52" d="M11 14h1v2h-1z"/>
      <path class="svg__tertiary" fill="#FFAA52" d="M12 16h1v2h-1z"/>
      <path class="svg__tertiary" fill="#FFAA52" d="M13 14h1v2h-1z"/>
      <path class="svg__tertiary" fill="#FFAA52" d="M14 16h1v2h-1z"/>
      <path class="svg__tertiary" fill="#FFAA52" d="M15 14h1v2h-1z"/>
      <path class="svg__tertiary" fill="#FFAA52" d="M16 16h1v2h-1z"/>
      <path class="svg__tertiary" fill="#FFAA52" d="M17 14h1v2h-1z"/>
    </g>
  </g>
  <g>
    <g>
      <path class="svg__quaternary" fill="#0055AA" d="M20 8h1v2h-1z"/>
      <path class="svg__quaternary" fill="#0055AA" d="M21 10h1v2h-1z"/>
      <path class="svg__quaternary" fill="#0055AA" d="M22 8h1v2h-1z"/>
      <path class="svg__quaternary" fill="#0055AA" d="M23 10h1v2h-1z"/>
      <path class="svg__quaternary" fill="#0055AA" d="M24 8h1v2h-1z"/>
      <path class="svg__quaternary" fill="#0055AA" d="M25 10h1v2h-1z"/>
      <path class="svg__quaternary" fill="#0055AA" d="M26 8h1v2h-1z"/>
    </g>
    <g>
      <path class="svg__tertiary" fill="#FFAA52" d="M20 10h1v2h-1z"/>
      <path class="svg__tertiary" fill="#FFAA52" d="M21 8h1v2h-1z"/>
      <path class="svg__tertiary" fill="#FFAA52" d="M22 10h1v2h-1z"/>
      <path class="svg__tertiary" fill="#FFAA52" d="M23 8h1v2h-1z"/>
      <path class="svg__tertiary" fill="#FFAA52" d="M24 10h1v2h-1z"/>
      <path class="svg__tertiary" fill="#FFAA52" d="M25 8h1v2h-1z"/>
      <path class="svg__tertiary" fill="#FFAA52" d="M26 10h1v2h-1z"/>
    </g>
  </g>
  <g>
    <g>
      <path class="svg__quaternary" fill="#0055AA" d="M29 14h1v4h-1z"/>
      <path class="svg__quaternary" fill="#0055AA" d="M31 14h1v4h-1z"/>
      <path class="svg__quaternary" fill="#0055AA" d="M33 14h1v4h-1z"/>
      <path class="svg__quaternary" fill="#0055AA" d="M35 14h1v4h-1z"/>
    </g>
    <g>
      <path class="svg__tertiary" fill="#FFAA52" d="M30 14h1v4h-1z"/>
      <path class="svg__tertiary" fill="#FFAA52" d="M32 14h1v4h-1z"/>
      <path class="svg__tertiary" fill="#FFAA52" d="M34 14h1v4h-1z"/>
    </g>
  </g>
  <g>
    <g>
      <path class="svg__secondary" d="M25 2h1v2h-1z"/>
      <path class="svg__secondary" d="M26 4h1v2h-1z"/>
      <path class="svg__secondary" d="M23 2h1v2h-1z"/>
      <path class="svg__secondary" d="M24 4h1v2h-1z"/>
      <path class="svg__secondary" d="M21 2h1v2h-1z"/>
      <path class="svg__secondary" d="M20 4h1v2h-1z"/>
      <path class="svg__secondary" d="M22 4h1v2h-1z"/>
    </g>
    <g>
      <path class="svg__tertiary" fill="#FFAA52" d="M20 2h1v2h-1z"/>
      <path class="svg__tertiary" fill="#FFAA52" d="M21 4h1v2h-1z"/>
      <path class="svg__tertiary" fill="#FFAA52" d="M22 2h1v2h-1z"/>
      <path class="svg__tertiary" fill="#FFAA52" d="M23 4h1v2h-1z"/>
      <path class="svg__tertiary" fill="#FFAA52" d="M24 2h1v2h-1z"/>
      <path class="svg__tertiary" fill="#FFAA52" d="M25 4h1v2h-1z"/>
      <path class="svg__tertiary" fill="#FFAA52" d="M26 2h1v2h-1z"/>
    </g>
  </g>
</svg>
