<svg class="wb_symbol_preference" xmlns="http://www.w3.org/2000/svg" width="63" height="38" viewBox="0 0 63 38">
  <path class="svg__secondary" d="M1 14v2H0v10h1v2h1v2h4v-2h51v2h4v-2h1v-2h1V16h-1v-2z"/>
  <g>
    <path class="svg__primary" fill="#FFF" d="M2 26h1v2h2v-2h13V16H2z"/>
    <path class="svg__primary" fill="#FFF" d="M19 16h21v10H19z"/>
    <path class="svg__primary" fill="#FFF" d="M41 16v10h17v2h2v-2h1V16H41zm17 4H44v-2h14v2z"/>
  </g>
  <g>
    <path class="svg__tertiary" fill="#FFAA55" d="M4 22h2v2H4z"/>
    <path class="svg__tertiary" fill="#FFAA55" d="M57 22h2v2h-2z"/>
  </g>
  <g>
    <path class="svg__secondary" d="M34 32h-6v2h-1v2h1v2h6v-2h1v-2h-1z"/>
    <path class="svg__secondary" d="M43 8V6h-1V4h-1V2h-2V0H26v2h-3v2h-2v2h-1v2h-1v4h8v-2h2V8h6v2h1v2h-1v2h-2v2h-2v2h-2v2h-1v2h-1v8h8v-4h1v-2h1v-2h1v-2h2v-2h3v-4h1V8z"/>
  </g>
  <g>
    <path class="svg__tertiary" fill="#FFAA55" d="M41 8V6h-1V4h-2V2H27v2h-3v2h-2v2h-1v2h5V8h2V6h8v2h2v6h-2v2h-2v2h-2v2h-1v2h-1v2h-1v4h4v-4h1v-2h1v-2h2v-2h2v-2h2v-2h1V8z"/>
    <path class="svg__tertiary" fill="#FFAA55" d="M29 34h4v2h-4z"/>
  </g>
</svg>
