<svg class="wb_symbol_print_2" xmlns="http://www.w3.org/2000/svg"
	 width="50" height="36" viewBox="0 0 50 36">
    <path class="svg-tertiary" fill="#ffaa55" d="M5 22v2H4v2H3v2h41v-2h-1v-2h-1v-2zM2 30h43v4H2z" />
    <path class="svg-secondary" d="M48 28v2h-1v-2h-1v-2h-1v-2h-1v-2h-1v-2H4v2H3v2H2v2H1v2H0v8h47v-4h1v2h2v-6h-2zM3 26h1v-2h1v-2h37v2h1v2h1v2H3v-2zm42 8H2v-4h33v2h2v-2h1v2h2v-2h1v2h2v-2h2v4z" />
    <path class="svg-secondary" d="M7 24v2h33v-2h-2V0H9v24z" />
    <path class="svg-primary" fill="#fff" d="M11 2h25v22H11z" />
    <path class="svg-secondary" d="M13 4h5v2h-5zM17 12h4v2h-4zM13 8h4v2h-4zM18 8h2v2h-2zM31 12h2v2h-2zM22 20h2v2h-2zM21 8h3v2h-3zM27 16h3v2h-3zM25 20h3v2h-3zM29 20h5v2h-5zM31 16h3v2h-3zM13 16h5v2h-5zM23 12h6v2h-6zM19 16h7v2h-7zM13 20h8v2h-8zM19 4h6v2h-6z" />
</svg>
