<svg class="wb_symbol_print_1" version="1.1" xmlns="http://www.w3.org/2000/svg" xmlns:xlink="http://www.w3.org/1999/xlink"  x="0px" y="0px"
	 width="50px" height="36px" viewBox="0 0 50 36">
    <path class="svg__secondary" d="M48 28v2h-1v-2h-1v-2h-1v-2h-1v-2h-1v-2H4v2H3v2H2v2H1v2H0v8h47v-4h1v2h2v-6h-2zM3 28v-2h1v-2h1v-2h37v2h1v2h1v2H3z" />
    <path class="svg__tertiary" fill="#ffaa55" d="M5 22v2H4v2H3v2h41v-2h-1v-2h-1v-2zM2 30h43v4H2z" />
    <path class="svg__secondary" d="M35 30h2v2h-2zM41 30h2v2h-2zM38 30h2v2h-2zM7 24v2h33v-2h-2V0H9v24z" />
    <path class="svg__primary" fill="#fff" d="M11 2h25v22H11z" />
    <path class="svg__secondary" d="M13 4h21v18H13z" />
    <path class="svg__quaternary" fill="#0055aa" d="M15 6h17v14H15z" />
    <path class="svg__quaternary" fill="#0055aa" d="M22 12h3v2h-3z" />
    <path class="svg__primary" fill="#fff" d="M22 10h3v2h-3zM19 12h3v2h-3zM25 12h3v2h-3zM22 14h3v2h-3z" />
    <path class="svg__tertiary" fill="#ffaa55" d="M25 10h3v2h-3zM28 12h3v2h-3zM25 14h3v2h-3zM22 16h3v2h-3zM19 14h3v2h-3zM19 10h3v2h-3zM16 12h3v2h-3zM22 8h3v2h-3z" />
</svg>
