<svg class="wb_symbol_telephone" xmlns="http://www.w3.org/2000/svg" width="67" height="34" viewBox="0 0 67 34">
  <path d="M66 10V8h-1V6h-2V4h-4V2h-4V0H12v2H8v2H4v2H2v2H1v2H0v4h1v2h1v2h1v2h8v-2h3v2h-1v12h2v2h4v-2h29v2h4v-2h2V20h-1v-2h4v2h7v-2h1v-2h1v-2h1v-4h-1zm-48 2h-2v-2h2v2zm2-2h-1V8h1v2zm28 0h-1V8h1v2zm3 2h-2v-2h2v2z" class="svg__secondary"/>
  <g>
    <path class="svg__primary" fill="#FFF" d="M16 14h-1v-2H9v2H3v2h1v2h6v-2h6z"/>
    <path class="svg__primary" fill="#FFF" d="M58 12h-6v2h-1v2h7v2h5v-2h1v-2h-6z"/>
    <path class="svg__primary" fill="#FFF" d="M15 24h37v6H15z"/>
    <path class="svg__primary" fill="#FFF" d="M64 10V8h-1V6h-5V4h-5V2H14v2H9v2H4v2H3v2H2v2h6v-2h7V8h2V6h7V4h5v2h8V4h5v2h8v2h2v2h7v2h6v-2z"/>
    <path class="svg__primary" fill="#FFF" d="M22 8v2h-1v2h-1v2h-1v2h-1v2h-1v2h-1v2h35v-2h-1v-2h-1v-2h-1v-2h-1v-2h-1v-2h-1V8z"/>
  </g>
  <g>
    <path class="svg__tertiary" fill="#FFAA55" d="M27 10h3v2h-3z"/>
    <path class="svg__tertiary" fill="#FFAA55" d="M32 10h3v2h-3z"/>
    <path class="svg__tertiary" fill="#FFAA55" d="M32 14h3v2h-3z"/>
    <path class="svg__tertiary" fill="#FFAA55" d="M37 10h3v2h-3z"/>
    <path class="svg__tertiary" fill="#FFAA55" d="M38 14h3v2h-3z"/>
    <path class="svg__tertiary" fill="#FFAA55" d="M26 14h3v2h-3z"/>
    <path class="svg__tertiary" fill="#FFAA55" d="M25 18h3v2h-3z"/>
    <path class="svg__tertiary" fill="#FFAA55" d="M32 18h3v2h-3z"/>
    <path class="svg__tertiary" fill="#FFAA55" d="M39 18h3v2h-3z"/>
  </g>
  <g>
    <path class="svg__secondary" d="M28 10h1v2h-1z"/>
    <path class="svg__secondary" d="M33 10h1v2h-1z"/>
    <path class="svg__secondary" d="M33 14h1v2h-1z"/>
    <path class="svg__secondary" d="M38 10h1v2h-1z"/>
    <path class="svg__secondary" d="M39 14h1v2h-1z"/>
    <path class="svg__secondary" d="M27 14h1v2h-1z"/>
    <path class="svg__secondary" d="M26 18h1v2h-1z"/>
    <path class="svg__secondary" d="M33 18h1v2h-1z"/>
    <path class="svg__secondary" d="M40 18h1v2h-1z"/>
  </g>
</svg>
