<svg class="wb_symbol_trashcan" xmlns="http://www.w3.org/2000/svg"
	 width="59" height="60" viewBox="0 0 59 60">
<g class="svg__close">
  <polygon fill="#FFAA55" class="svg__tertiary" points="16,14 54,14 54,16 55,16 55,18 15,18 15,16 16,16"/>
  <g fill="#000000" class="svg__secondary">
  	<path d="M57,19.979v-3.938L56,16v-2h-2v-2l-9,0v-2h-1V8H28v2h-1v2H16v2h-2v2h-1v4L57,19.979z M30,10h12v2H30V10z M55,18H15v-2h1v-2
  		h38v2h1V18z"/>
  	<rect x="17" y="14" width="1" height="2"/>
  	<rect x="16" y="16" width="1" height="2"/>
  	<rect x="19" y="14" width="1" height="2"/>
  	<rect x="18" y="16" width="1" height="2"/>
  	<rect x="21" y="14" width="1" height="2"/>
  	<rect x="20" y="16" width="1" height="2"/>
  	<rect x="23" y="14" width="1" height="2"/>
  	<rect x="22" y="16" width="1" height="2"/>
  	<rect x="25" y="14" width="1" height="2"/>
  	<rect x="24" y="16" width="1" height="2"/>
  	<rect x="27" y="14" width="1" height="2"/>
  	<rect x="26" y="16" width="1" height="2"/>
  	<rect x="28" y="16" width="1" height="2"/>
  	<rect x="32" y="16" width="1" height="2"/>
  	<rect x="34" y="16" width="1" height="2"/>
  	<rect x="36" y="16" width="1" height="2"/>
  	<rect x="30" y="16" width="1" height="2"/>
  </g>
</g>
<g class="svg__open">
	<polygon fill="#FFAA55" class="svg__tertiary" points="26,18 26,16 18,16 18,14 14,14 14,12 13,12 13,10 12,10 12,8 13,8 13,6 14,6
		14,4 19,4 19,2 26,2 26,0 44,0 44,2 51,2 51,4 56,4 56,6 57,6 57,8 58,8 58,10 57,10 57,12 56,12 56,14 52,14 52,16 45,16 45,18
		"/>
	<g fill="#000000" class="svg__secondary">
		<rect x="21" y="8" width="1" height="2"/>
		<rect x="20" y="10" width="1" height="2"/>
		<rect x="23" y="8" width="1" height="2"/>
		<rect x="22" y="10" width="1" height="2"/>
		<polyline points="26,8 25,8 25,10 26,10 		"/>
		<rect x="24" y="10" width="1" height="2"/>
		<rect x="27" y="12" width="1" height="2"/>
		<rect x="26.75" y="8" width="1" height="2"/>
		<rect x="25.875" y="10" width="1" height="2"/>
		<rect x="27.75" y="10" width="1" height="2"/>
		<rect x="29" y="12" width="1" height="2"/>
		<rect x="39" y="12" width="1" height="2"/>
		<rect x="41" y="12" width="1" height="2"/>
		<rect x="33" y="12" width="1" height="2"/>
		<rect x="35" y="12" width="1" height="2"/>
		<rect x="37" y="12" width="1" height="2"/>
		<rect x="31" y="12" width="1" height="2"/>
		<rect x="40" y="6" width="1" height="2"/>
		<rect x="41" y="8" width="1" height="2"/>
		<rect x="42" y="6" width="1" height="2"/>
		<rect x="43" y="8" width="1" height="2"/>
		<rect x="30" y="6" width="1" height="2"/>
		<rect x="32" y="6" width="1" height="2"/>
		<rect x="28" y="6" width="1" height="2"/>
		<rect x="29" y="8" width="1" height="2"/>
		<rect x="38" y="10" width="1" height="2"/>
		<rect x="40" y="10" width="1" height="2"/>
		<rect x="38" y="6" width="1" height="2"/>
		<rect x="45" y="8" width="1" height="2"/>
		<rect x="44" y="10" width="1" height="2"/>
		<rect x="46" y="10" width="1" height="2"/>
		<rect x="47" y="8" width="1" height="2"/>
		<rect x="48" y="10" width="1" height="2"/>
		<rect x="42" y="10" width="1" height="2"/>
		<rect x="43" y="12" width="1" height="2"/>
		<rect x="30" y="10" width="1" height="2"/>
		<rect x="32" y="10" width="1" height="2"/>
		<rect x="34" y="8" width="1" height="2"/>
		<rect x="36" y="8" width="1" height="2"/>
		<rect x="26" width="18" height="2"/>
		<rect x="19" y="2" width="7" height="2"/>
		<rect x="44" y="2" width="7" height="2"/>
		<polygon points="14,6 13,6 13,8 12,8 12,10 13,10 13,12 15,12 15,10 14,10 14,8 15,8 15,6 19,6 19,4 14,4 		"/>
		<polygon points="57,8 57,6 56,6 56,4 51,4 51,6 55,6 55,8 56,8 56,10 55,10 55,12 57,12 57,10 58,10 58,8 		"/>
		<rect x="19" y="6" width="8" height="2"/>
		<rect x="27" y="4" width="17" height="2"/>
		<g>
			<polygon points="54,12 54,10 52,10 52,12 50,12 50,14 44,14 44,16 27,16 27,14 20,14 20,12 18,12 18,10 20,10 20,8 18,8 16,8
				16,12 14,12 14,14 18,14 18,16 26,16 26,18 45,18 45,16 52,16 52,14 56,14 56,12 			"/>
			<polygon points="49,10 54,10 54,8 50,8 50,6 44,6 44,8 49,8 			"/>
		</g>
	</g>
</g>


<path d="M13,18v2h1v4h1v8h1v8h1v8h-4v2H4v2H0v2h2v2h5v2h10l0.062,2H37v-2h12v-2h2v-2h1v-6h1v-8h1v-8h1v-8h1v-4h1v-2H13z"/>
<polygon fill="#FFAA55" class="svg__tertiary" points="16,20 54,20 54,24 53,24 53,32 52,32 52,40 51,40 51,48 50,48 50,54 48,54 48,56 23,56 23,54
  20,54 20,48 19,48 19,38 18,38 18,32 17,32 17,22 16,22 	"/>
  <g fill="#000000" class="svg__secondary">
    <path d="M28,44V34h-1v-8h-2v-2h-6v10h1v6h1v6h1v6h1v2h5v-2h1v-8H28z M27,50h-1v2h-1v-2h-1v-4h-1v-6h-1v-8h-1v-6h3v2h1v6h1v10h1V50z
      "/>
    <polygon points="39,26 39,24 32,24 32,26 38,26 38,38 37,38 37,48 36,48 36,52 35,52 35,50 34,50 34,48 33,48 33,38 32,38 32,26
      30,26 30,38 31,38 31,48 32,48 32,50 33,50 33,54 37,54 37,52 38,52 38,48 39,48 39,38 40,38 40,26 	"/>
    <polygon points="50,26 50,24 45,24 45,26 49,26 49,34 48,34 48,40 47,40 47,46 46,46 46,50 45,50 45,52 43,52 43,44 44,44 44,34
      45,34 45,26 43,26 43,34 42,34 42,44 41,44 41,52 42,52 42,54 46,54 46,52 47,52 47,50 48,50 48,46 49,46 49,40 50,40 50,34 51,34
      51,26 	"/>
    <rect x="34" y="26" width="1" height="2"/>
    <rect x="36" y="26" width="1" height="2"/>
    <rect x="46" y="26" width="1" height="2"/>
    <rect x="45" y="28" width="1" height="2"/>
    <rect x="46" y="30" width="1" height="2"/>
    <rect x="45" y="32" width="1" height="2"/>
    <rect x="45" y="36" width="1" height="2"/>
    <rect x="44" y="34" width="1" height="2"/>
    <rect x="44" y="38" width="1" height="2"/>
    <rect x="44" y="42" width="1" height="2"/>
    <rect x="44" y="46" width="1" height="2"/>
    <rect x="43" y="44" width="1" height="2"/>
    <rect x="43" y="48" width="1" height="2"/>
    <rect x="44" y="50" width="1" height="2"/>
    <rect x="34" y="42" width="1" height="2"/>
    <rect x="34" y="46" width="1" height="2"/>
    <rect x="33" y="40" width="1" height="2"/>
    <rect x="34" y="38" width="1" height="2"/>
    <rect x="33" y="36" width="1" height="2"/>
    <rect x="34" y="34" width="1" height="2"/>
    <rect x="33" y="32" width="1" height="2"/>
    <rect x="32" y="34" width="1" height="2"/>
    <rect x="34" y="30" width="1" height="2"/>
    <rect x="33" y="28" width="1" height="2"/>
    <rect x="32" y="30" width="1" height="2"/>
    <rect x="33" y="44" width="1" height="2"/>
    <rect x="48" y="26" width="1" height="2"/>
    <rect x="32" y="26" width="1" height="2"/>
    <rect x="25" y="20" width="1" height="2"/>
    <rect x="27" y="20" width="1" height="2"/>
    <rect x="29" y="20" width="1" height="2"/>
    <rect x="23" y="20" width="1" height="2"/>
    <rect x="22" y="22" width="1" height="2"/>
    <rect x="21" y="20" width="1" height="2"/>
    <rect x="20" y="22" width="1" height="2"/>
    <rect x="19" y="20" width="1" height="2"/>
    <rect x="17" y="20" width="1" height="2"/>
    <rect x="18" y="22" width="1" height="2"/>
    <rect x="22" y="26" width="1" height="2"/>
    <rect x="22" y="30" width="1" height="2"/>
    <rect x="18" y="26" width="1" height="2"/>
    <rect x="17" y="28" width="1" height="2"/>
    <rect x="18" y="30" width="1" height="2"/>
    <rect x="18" y="34" width="1" height="2"/>
    <rect x="17" y="24" width="1" height="2"/>
    <rect x="19" y="36" width="1" height="2"/>
    <rect x="22" y="34" width="1" height="2"/>
    <rect x="23" y="36" width="1" height="2"/>
    <rect x="22" y="38" width="1" height="2"/>
    <rect x="23" y="40" width="1" height="2"/>
    <rect x="19" y="40" width="1" height="2"/>
    <rect x="20" y="42" width="1" height="2"/>
    <rect x="19" y="44" width="1" height="2"/>
    <rect x="20" y="46" width="1" height="2"/>
    <rect x="24" y="46" width="1" height="2"/>
    <rect x="21" y="48" width="1" height="2"/>
    <rect x="25" y="48" width="1" height="2"/>
    <rect x="24" y="42" width="1" height="2"/>
    <rect x="23" y="44" width="1" height="2"/>
    <rect x="30" y="54" width="1" height="2"/>
    <rect x="32" y="54" width="1" height="2"/>
    <rect x="29" y="52" width="1" height="2"/>
    <rect x="31" y="52" width="1" height="2"/>
    <rect x="28" y="54" width="1" height="2"/>
    <rect x="26" y="54" width="1" height="2"/>
    <rect x="24" y="54" width="1" height="2"/>
    <rect x="21" y="52" width="1" height="2"/>
    <rect x="20" y="50" width="1" height="2"/>
    <rect x="32" y="50" width="1" height="2"/>
  </g>
</svg>
