<svg class="wb_symbol_web_basic" version="1.1" xmlns="http://www.w3.org/2000/svg" xmlns:xlink="http://www.w3.org/1999/xlink"  x="0px" y="0px"
   	 width="54px" height="44px" viewBox="0 0 54 44">
<g>
	<polygon class="svg__secondary" fill="#FFFFFF" points="8,2 49,2 49,4 47,4 47,6 45,6 45,8 4,8 4,6 6,6 6,4 8,4 	"/>
	<polygon class="svg__secondary" fill="#FFFFFF" points="52,36 52,4 50,4 50,6 48,6 48,8 46,8 46,40 48,40 48,38 50,38 50,36 	"/>
	<rect class="svg__secondary" fill="#FFFFFF" x="2" y="10" width="42" height="32"/>
</g>
<g>
	<path class="svg__primary" fill="#000000" d="M52,0h-3H8v2h41v2h-2v2h-2v2H4V6H2v2H0v36h46v-2h2v-2h-2V8h2V6h2V4h2v32h2V0H52z M44,42H2V10h42V42z"/>
	<rect class="svg__primary" x="50" y="36" width="2" height="2"/>
	<rect class="svg__primary" x="48" y="38" width="2" height="2"/>
	<rect class="svg__primary" x="4" y="4" width="2" height="2"/>
	<rect class="svg__primary" x="6" y="2" width="2" height="2"/>
	<polygon class="svg__primary" points="22,20 24,20 24,18 22,18 22,14 30,14 32,14 32,10 30,10 30,12 12,12 12,10 10,10 10,14 12,14 20,14 20,18 18,18
		18,20 20,20 20,24 22,24 	"/>
	<rect class="svg__primary" x="24" y="16" width="1" height="2"/>
	<rect class="svg__primary" x="17" y="16" width="1" height="2"/>
	<rect class="svg__primary" x="22" y="24" width="2" height="2"/>
	<rect class="svg__primary" x="18" y="24" width="2" height="2"/>
	<rect class="svg__primary" x="16" y="26" width="2" height="2"/>
	<rect class="svg__primary" x="14" y="28" width="2" height="2"/>
	<rect class="svg__primary" x="24" y="26" width="2" height="2"/>
	<rect class="svg__primary" x="22" y="32" width="2" height="2"/>
	<rect class="svg__primary" x="18" y="32" width="2" height="2"/>
	<rect class="svg__primary" x="16" y="30" width="2" height="2"/>
	<rect class="svg__primary" x="24" y="30" width="2" height="2"/>
	<polygon class="svg__primary" points="20,38 18,38 18,40 20,40 20,42 22,42 22,40 24,40 24,38 22,38 22,34 20,34 	"/>
	<rect class="svg__primary" x="24" y="36" width="1" height="2"/>
	<rect class="svg__primary" x="17" y="36" width="1" height="2"/>
	<polygon class="svg__primary" points="35,10 35,28 26,28 26,30 37,30 37,28 37,10 	"/>
</g>
</svg>
