<svg class="wb_symbol_web_painting" version="1.1" xmlns="http://www.w3.org/2000/svg" xmlns:xlink="http://www.w3.org/1999/xlink"  x="0px" y="0px"
	 width="80px" height="56px" viewBox="0 0 80 56">
    <path class="svg__secondary" d="M24 12h20v2H24zM22 14h2v2h-2zM40 38h-2v2h-2v2h10v-2h-6zM50 36h2v2h-2zM46 38h4v2h-4zM18 24h2v2h-2zM42 28h2v2h-2zM48 30h2v-4h-6v2h4zM50 30v2h2v4h2v-6h-2zM54 28h2v2h-2zM50 24h2v2h-2zM60 22h2v2h-2zM62 20h2v2h-2zM64 18h2v2h-2zM66 16h2v2h-2zM68 14h2v2h-2zM70 12h2v2h-2zM72 10h2v2h-2zM74 8h2v2h-2zM76 6h2v2h-2zM74 0v2h4v4h2V0zM60 14h2v2h-2zM62 12h2v2h-2zM64 10h2v2h-2zM66 8h2v2h-2zM68 6h2v2h-2zM70 4h2v2h-2zM72 2h2v2h-2zM64 22h2v2h-2zM64 42h2v2h-2zM62 44h2v2h-2zM58 46h4v2h-4zM54 48h4v2h-4zM50 50h4v2h-4zM12 50h4v2h-4zM8 48h4v2H8zM6 46h2v2H6zM4 44h2v2H4zM2 42h2v2H2zM2 30h2v2H2zM0 32h2v10H0zM44 52h6v2h-6zM16 52h6v2h-6zM22 54h22v2H22zM66 40h2v2h-2zM66 24h2v4h-2zM68 28h2v12h-2zM58 28v-2h2v-2h-4v4zM54 22h-2v2h4v-4h-2zM16 26h2v2h-2zM24 26h10v2H24zM24 34h10v2H24zM22 28h2v6h-2zM34 28h2v6h-2zM40 30h2v8h-2zM44 14h8v2h-8zM56 18v2h2v-2h2v-2h-8v2zM4 28h12v2H4zM20 16h2v8h-2z" />
    <path class="svg__quaternary" fill="#0055AA" d="M56 24h-4v2h-2v4h4v-2h2z" />
    <path class="svg__primary" fill="#FFFFFF" d="M78 2h-4v2h-2v2h-2v2h-2v2h-2v2h-2v2h-2v2h-2v2h-2v2h-2v4h4v-2h2v-2h2v-2h2v-2h2v-2h2v-2h2v-2h2V8h2V6h2z" />
    <path class="svg__primary" d="M66 28v-4h-2v-2h-2v2h-2v2h-2v2h-2v2l-1.75.06L54 36h-2v2h-2v2h-4v2H36v-2h2v-2h2v-8h2v-2h2v-2h6v-2h2v-2h2v-2h2v-2h-4v-2h-8v-2H24v2h-2v8h-2v2h-2v2h-2v2H4v2H2v10h2v2h2v2h2v2h4v2h4v2h6v2h22v-2h6v-2h4v-2h4v-2h4v-2h2v-2h2v-2h2V28h-2zm-32 8H24v-2h-2v-6h2v-2h10v2h2v6h-2v2z" />
    <path class="svg__quaternary" fill="#0055AA" d="M44 46v-4h-8v-2h-2v-2h-4v4h2v4h2v2h2v2h8v-2h2v-2z" />
    <path class="svg__tertiary" fill="#FFAA52" d="M30 48v-6h-2v-2h-2v-2h-4v2h-2v2h-2v2h-2v2h2v2h4v2h10v-2z" />
    <path class="svg__secondary" d="M18 30v2h-6v2H4v2h2v2h2v2h2v2h2v2h4v-2h2v-2h2V30z" />
    <path class="svg__tertiary" fill="#FFAA52" d="M50 32v-2h-2v-2h-4v2h-2v8h-2v2h6v-2h4v-2h2v-4z" />
</svg>
