<svg class="wb_symbol_disk_boing" width="52" height="64" viewBox="0 0 52 64"
  xmlns="http://www.w3.org/2000/svg">
<path d="M32 48H40V52H38V56H36V60H34V56H26V60H28V64H12V60H14V56H16V52H18V56H26V52H28V48H30V44H32V48Z" class="svg-secondary"  fill="#FFAA55"/>
<path d="M48 56H52V64H42V60H44V56H46V52H48V56Z" class="svg-secondary"  fill="#FFAA55"/>
<path d="M10 52H8V56H6V52H4V48H10V52Z" class="svg-secondary"  fill="#FFAA55"/>
<path d="M50 20H52V32H50V28H42V32H40V36H36V40H34V44H32V40H24V44H22V48H20V52H18V48H10V40H12V36H16V40H24V36H26V32H28V28H30V24H32V28H42V24H44V20H48V16H50V20Z" class="svg-secondary"  fill="#FFAA55"/>
<path d="M50 36H52V48H50V52H48V48H42V40H44V36H48V32H50V36Z" class="svg-secondary"  fill="#FFAA55"/>
<path d="M8 36H4V40H2V44H0V32H8V36Z" class="svg-secondary"  fill="#FFAA55"/>
<path d="M16 20H24V24H22V28H20V32H18V36H16V32H8V28H10V24H12V20H14V16H16V20Z" class="svg-secondary"  fill="#FFAA55"/>
<path d="M34 12H42V8H52V16H50V12H42V16H36V20H24V16H30V12H32V8H34V12Z" class="svg-secondary"  fill="#FFAA55"/>
<path d="M26 8H20V16H16V12H12V8H16V4H26V8Z" class="svg-secondary"  fill="#FFAA55"/>
<path d="M38 8H34V4H28V0H40V4H38V8Z" class="svg-secondary"  fill="#FFAA55"/>
<path d="M52 4H50V0H52V4Z" class="svg-secondary"  fill="#FFAA55"/>
<path d="M50 32H48V36H44V40H42V48H48V52H46V56H44V60H42V64H28V60H26V56H34V60H36V56H38V52H40V48H32V44H34V40H36V36H40V32H42V28H50V32Z" class="svg-primary"  fill="#FFFFFF"/>
<path d="M14 60H8V52H10V48H18V52H16V56H14V60Z" class="svg-primary"  fill="#FFFFFF"/>
<path d="M32 44H30V48H28V52H26V56H18V52H20V48H22V44H24V40H32V44Z" class="svg-primary"  fill="#FFFFFF"/>
<path d="M52 56H48V52H50V48H52V56Z" class="svg-primary"  fill="#FFFFFF"/>
<path d="M16 36H12V40H10V48H2V40H4V36H8V32H16V36Z" class="svg-primary"  fill="#FFFFFF"/>
<path d="M50 16H48V20H44V24H42V28H32V24H30V28H28V32H26V36H24V40H16V36H18V32H20V28H22V24H24V20H36V16H42V12H50V16Z" class="svg-primary"  fill="#FFFFFF"/>
<path d="M52 36H50V32H52V36Z" class="svg-primary"  fill="#FFFFFF"/>
<path d="M16 16H14V20H12V24H10V28H8V32H0V28H2V24H4V16H8V12H16V16Z" class="svg-primary"  fill="#FFFFFF"/>
<path d="M28 4H34V8H32V12H30V16H24V20H16V16H20V8H26V4H24V0H28V4Z" class="svg-primary"  fill="#FFFFFF"/>
<path d="M52 20H50V16H52V20Z" class="svg-primary"  fill="#FFFFFF"/>
<path d="M50 4H52V8H42V12H34V8H38V4H40V0H50V4Z" class="svg-primary"  fill="#FFFFFF"/>
</svg>
