<svg class="wb_symbol_guest_book" xmlns="http://www.w3.org/2000/svg" width="54" height="56"
  viewBox="0 0 54 56">
  <path class="svg-secondary"  fill="#000"
    d="M53 6V4h-2V2h-2V0H1v52h2v2h2v-2h1v2H5v2h47v-2h2V6h-1ZM8 54H7v-2h1v2Zm2 0H9v-2h1v2Zm2 0h-1v-2h1v2Zm2 0h-1v-2h1v2Zm2 0h-1v-2h1v2Zm2 0h-1v-2h1v2Zm2 0h-1v-2h1v2Zm2 0h-1v-2h1v2Zm2 0h-1v-2h1v2Zm2 0h-1v-2h1v2Zm2 0h-1v-2h1v2Zm2 0h-1v-2h1v2Zm2 0h-1v-2h1v2Zm2 0h-1v-2h1v2Zm2 0h-1v-2h1v2Zm2 0h-1v-2h1v2Zm2 0h-1v-2h1v2Zm2 0h-1v-2h1v2Zm2 0h-1v-2h1v2Zm2 0h-1v-2h1v2Zm2 0h-1v-2h1v2Zm2 0h-1v-2h1v2Zm0-4h-1V4h1v46Zm2 2h-1V6h1v46Z" />
  <path class="svg-primary" fill="#fff"
    d="M5 52h1v2H5v-2ZM7 52h1v2H7v-2ZM9 52h1v2H9v-2ZM11 52h1v2h-1v-2ZM13 52h1v2h-1v-2ZM15 52h1v2h-1v-2ZM17 52h1v2h-1v-2ZM19 52h1v2h-1v-2ZM21 52h1v2h-1v-2ZM23 52h1v2h-1v-2ZM25 52h1v2h-1v-2ZM27 52h1v2h-1v-2ZM29 52h1v2h-1v-2ZM31 52h1v2h-1v-2ZM33 52h1v2h-1v-2ZM35 52h1v2h-1v-2ZM37 52h1v2h-1v-2ZM41 52h1v2h-1v-2ZM43 52h1v2h-1v-2ZM45 52h1v2h-1v-2ZM47 52h1v2h-1v-2ZM49 52h1v2h-1v-2ZM4 48H3v2h44V2H3v2h3v2H3v4h3v2H3v4h3v2H3v4h3v2H2.94L3 28h3v2H3v4h3v2H3v4h3v2H3v4h3v2H4ZM49 4h1v46h-1V4ZM51 6h1v46h-1V6ZM39 52h1v2h-1v-2Z" />
  <path class="svg-secondary"  fill="#000"
    d="M14 4v2h1v2h-2V6h-2v2h-1v6h1v2h2v-4h-1v-2h3v8h-5v-2H9v-2H8V8h1V6h1V4h4ZM18 8v8h2v2h-3v-2h-1V8h2Zm2 0h2v8h1v2h-2v-2h-1V8ZM29 8v2h1v3.99h-4V16h3v2h-4v-2h-1v-6h1V8h4Zm-3 4h2v-2h-2v2ZM37 8v2h-4v2h3v2h1v1.99h-1V18h-5v-2.01h4V14h-3v-2h-1v-2h1V8h5ZM41 4v4h2v2h-2v6h1v2h-2v-2h-1v-6h-1V8h1V6h1V4h1Zm1 10h1v2h-1v-2ZM14 22v2h1v4h-1v2h1v4h-1v2H8v-2h1V24H8v-2h6Zm-3 6h2v-4h-2v4Zm0 6h2v-4h-2v4ZM21 26v2h1v6h-1v2h-4v-2h-1v-6h1v-2h4Zm-3 8h2v-6h-2v6ZM28 26v2h1v6h-1v2h-4v-2h-1v-6h1v-2h4Zm-3 8h2v-6h-2v6ZM33 22v8h1v-2h1v-2h2v2h-1v2h-1v2h1v2h1v2h-2v-2h-1v-2h-1v4h-3v-2h1V24h-1v-2h3ZM31.004 43v3h1v1h-1v1h-1v-5h1Zm1 0h1v3h-1v-3ZM36.003 43v4h1v1h-3v-1h1v-2h-1v-1h1v-1h1ZM39.002 47h1v1h-1v-1ZM45.001 43v5h-3v-5h3Zm-2 4h1v-3h-1v3Z" />
  <path class="svg-tertiary" fill="#FA5"
    d="M1 4h3v2H1V4ZM0 6h1v2H0V6ZM1 10h3v2H1v-2ZM0 12h1v2H0v-2ZM1 16h3v2H1v-2ZM0 18h1v2H0v-2ZM1 22h3v2H1v-2ZM0 24h1v2H0v-2ZM1 28h3v2H1v-2ZM0 30h1v2H0v-2ZM1 34h3v2H1v-2ZM0 36h1v2H0v-2ZM1 40h3v2H1v-2ZM0 42h1v2H0v-2ZM1 46h3v2H1v-2ZM0 48h1v2H0v-2Z" />
  <path class="svg-quaternary" fill="#05A" d="M8 46h20v2H8z" />
  <path class="svg-tertiary" fill="#FA5" d="M8 43h20v2H8z" />
</svg>
