{
  "header": {
    "keySignatures": [
      {
        "key": "Db",
        "scale": "major",
        "ticks": 0
      }
    ],
    "meta": [],
    "name": "",
    "ppq": 192,
    "tempos": [
      {
        "bpm": 95.00014250021376,
        "ticks": 0
      }
    ],
    "timeSignatures": [
      {
        "ticks": 0,
        "timeSignature": [
          4,
          4
        ],
        "measures": 0
      },
      {
        "ticks": 8448,
        "timeSignature": [
          2,
          4
        ],
        "measures": 11
      },
      {
        "ticks": 8832,
        "timeSignature": [
          4,
          4
        ],
        "measures": 12
      }
    ]
  },
  "tracks": [
    {
      "channel": 0,
      "controlChanges": {
        "7": [
          {
            "number": 7,
            "ticks": 0,
            "time": 0,
            "value": 1
          }
        ]
      },
      "pitchBends": [],
      "instrument": {
        "family": "piano",
        "number": 4,
        "name": "electric piano 1"
      },
      "name": "GM-1                ",
      "notes": [
        {
          "duration": 0.1578945,
          "durationTicks": 48,
          "midi": 55,
          "name": "G3",
          "ticks": 48,
          "time": 0.1578945,
          "velocity": 0.8661417322834646
        },
        {
          "duration": 0.1578945,
          "durationTicks": 48,
          "midi": 43,
          "name": "G2",
          "ticks": 48,
          "time": 0.1578945,
          "velocity": 0.8661417322834646
        },
        {
          "duration": 0.1578945,
          "durationTicks": 48,
          "midi": 55,
          "name": "G3",
          "ticks": 96,
          "time": 0.315789,
          "velocity": 0.8661417322834646
        },
        {
          "duration": 0.1578945,
          "durationTicks": 48,
          "midi": 43,
          "name": "G2",
          "ticks": 96,
          "time": 0.315789,
          "velocity": 0.8661417322834646
        },
        {
          "duration": 0.1578945,
          "durationTicks": 48,
          "midi": 55,
          "name": "G3",
          "ticks": 144,
          "time": 0.4736835,
          "velocity": 0.8661417322834646
        },
        {
          "duration": 0.1578945,
          "durationTicks": 48,
          "midi": 43,
          "name": "G2",
          "ticks": 144,
          "time": 0.4736835,
          "velocity": 0.8661417322834646
        },
        {
          "duration": 1.4210505,
          "durationTicks": 432,
          "midi": 51,
          "name": "D#3",
          "ticks": 192,
          "time": 0.631578,
          "velocity": 0.8661417322834646
        },
        {
          "duration": 1.4210505,
          "durationTicks": 432,
          "midi": 39,
          "name": "D#2",
          "ticks": 192,
          "time": 0.631578,
          "velocity": 0.8661417322834646
        },
        {
          "duration": 0.15789450000000027,
          "durationTicks": 48,
          "midi": 53,
          "name": "F3",
          "ticks": 816,
          "time": 2.6842064999999997,
          "velocity": 0.8661417322834646
        },
        {
          "duration": 0.15789450000000027,
          "durationTicks": 48,
          "midi": 41,
          "name": "F2",
          "ticks": 816,
          "time": 2.6842064999999997,
          "velocity": 0.8661417322834646
        },
        {
          "duration": 0.15789449999999983,
          "durationTicks": 48,
          "midi": 53,
          "name": "F3",
          "ticks": 864,
          "time": 2.842101,
          "velocity": 0.8661417322834646
        },
        {
          "duration": 0.15789449999999983,
          "durationTicks": 48,
          "midi": 41,
          "name": "F2",
          "ticks": 864,
          "time": 2.842101,
          "velocity": 0.8661417322834646
        },
        {
          "duration": 0.15789450000000027,
          "durationTicks": 48,
          "midi": 53,
          "name": "F3",
          "ticks": 912,
          "time": 2.9999955,
          "velocity": 0.8661417322834646
        },
        {
          "duration": 0.15789450000000027,
          "durationTicks": 48,
          "midi": 41,
          "name": "F2",
          "ticks": 912,
          "time": 2.9999955,
          "velocity": 0.8661417322834646
        },
        {
          "duration": 1.4210504999999998,
          "durationTicks": 432,
          "midi": 50,
          "name": "D3",
          "ticks": 960,
          "time": 3.15789,
          "velocity": 0.8661417322834646
        },
        {
          "duration": 1.4210504999999998,
          "durationTicks": 432,
          "midi": 38,
          "name": "D2",
          "ticks": 960,
          "time": 3.15789,
          "velocity": 0.8661417322834646
        },
        {
          "duration": 0.09868406249999939,
          "durationTicks": 30,
          "midi": 67,
          "name": "G4",
          "ticks": 1440,
          "time": 4.736835,
          "velocity": 0.8661417322834646
        },
        {
          "duration": 0.13486821875000032,
          "durationTicks": 41,
          "midi": 67,
          "name": "G4",
          "ticks": 1488,
          "time": 4.8947294999999995,
          "velocity": 0.8661417322834646
        },
        {
          "duration": 0.07894724999999969,
          "durationTicks": 24,
          "midi": 67,
          "name": "G4",
          "ticks": 1536,
          "time": 5.052624,
          "velocity": 0.7874015748031497
        },
        {
          "duration": 1.9769707187499996,
          "durationTicks": 601,
          "midi": 48,
          "name": "C3",
          "ticks": 1584,
          "time": 5.2105185,
          "velocity": 0.6141732283464567
        },
        {
          "duration": 1.7269710937499996,
          "durationTicks": 525,
          "midi": 63,
          "name": "D#4",
          "ticks": 1584,
          "time": 5.2105185,
          "velocity": 0.7795275590551181
        },
        {
          "duration": 1.9769707187499996,
          "durationTicks": 601,
          "midi": 55,
          "name": "G3",
          "ticks": 1584,
          "time": 5.2105185,
          "velocity": 0.7795275590551181
        },
        {
          "duration": 0.08881565624999954,
          "durationTicks": 27,
          "midi": 67,
          "name": "G4",
          "ticks": 2208,
          "time": 7.263147,
          "velocity": 0.889763779527559
        },
        {
          "duration": 0.10526299999999988,
          "durationTicks": 32,
          "midi": 67,
          "name": "G4",
          "ticks": 2256,
          "time": 7.421041499999999,
          "velocity": 0.889763779527559
        },
        {
          "duration": 0.13486821874999944,
          "durationTicks": 41,
          "midi": 67,
          "name": "G4",
          "ticks": 2304,
          "time": 7.578936,
          "velocity": 0.7874015748031497
        },
        {
          "duration": 2.0361811562500005,
          "durationTicks": 619,
          "midi": 47,
          "name": "B2",
          "ticks": 2352,
          "time": 7.7368305,
          "velocity": 0.48031496062992124
        },
        {
          "duration": 1.9703917812499991,
          "durationTicks": 599,
          "midi": 62,
          "name": "D4",
          "ticks": 2352,
          "time": 7.7368305,
          "velocity": 0.7795275590551181
        },
        {
          "duration": 2.006575937499999,
          "durationTicks": 610,
          "midi": 55,
          "name": "G3",
          "ticks": 2352,
          "time": 7.7368305,
          "velocity": 0.7795275590551181
        },
        {
          "duration": 0.11513140625000062,
          "durationTicks": 35,
          "midi": 79,
          "name": "G5",
          "ticks": 2976,
          "time": 9.789458999999999,
          "velocity": 0.8661417322834646
        },
        {
          "duration": 0.11513140624999885,
          "durationTicks": 35,
          "midi": 79,
          "name": "G5",
          "ticks": 3024,
          "time": 9.9473535,
          "velocity": 0.8661417322834646
        },
        {
          "duration": 0.11513140625000062,
          "durationTicks": 35,
          "midi": 77,
          "name": "F5",
          "ticks": 3072,
          "time": 10.105248,
          "velocity": 0.7874015748031497
        },
        {
          "duration": 0.9473669999999998,
          "durationTicks": 288,
          "midi": 67,
          "name": "G4",
          "ticks": 3120,
          "time": 10.263142499999999,
          "velocity": 0.7795275590551181
        },
        {
          "duration": 0.6315780000000011,
          "durationTicks": 192,
          "midi": 75,
          "name": "D#5",
          "ticks": 3120,
          "time": 10.263142499999999,
          "velocity": 0.7795275590551181
        },
        {
          "duration": 0.6315780000000011,
          "durationTicks": 192,
          "midi": 60,
          "name": "C4",
          "ticks": 3120,
          "time": 10.263142499999999,
          "velocity": 0.48031496062992124
        },
        {
          "duration": 0.6315779999999993,
          "durationTicks": 192,
          "midi": 59,
          "name": "B3",
          "ticks": 3312,
          "time": 10.8947205,
          "velocity": 0.48031496062992124
        },
        {
          "duration": 0.15789449999999938,
          "durationTicks": 48,
          "midi": 74,
          "name": "D5",
          "ticks": 3312,
          "time": 10.8947205,
          "velocity": 0.7795275590551181
        },
        {
          "duration": 0.11513140625000062,
          "durationTicks": 35,
          "midi": 79,
          "name": "G5",
          "ticks": 3360,
          "time": 11.052615,
          "velocity": 0.8661417322834646
        },
        {
          "duration": 0.11513140625000062,
          "durationTicks": 35,
          "midi": 79,
          "name": "G5",
          "ticks": 3408,
          "time": 11.210509499999999,
          "velocity": 0.8661417322834646
        },
        {
          "duration": 0.11513140625000062,
          "durationTicks": 35,
          "midi": 77,
          "name": "F5",
          "ticks": 3456,
          "time": 11.368404,
          "velocity": 0.7874015748031497
        },
        {
          "duration": 0.9473669999999998,
          "durationTicks": 288,
          "midi": 67,
          "name": "G4",
          "ticks": 3504,
          "time": 11.5262985,
          "velocity": 0.7795275590551181
        },
        {
          "duration": 0.6315779999999993,
          "durationTicks": 192,
          "midi": 75,
          "name": "D#5",
          "ticks": 3504,
          "time": 11.5262985,
          "velocity": 0.7795275590551181
        },
        {
          "duration": 0.6315779999999993,
          "durationTicks": 192,
          "midi": 60,
          "name": "C4",
          "ticks": 3504,
          "time": 11.5262985,
          "velocity": 0.48031496062992124
        },
        {
          "duration": 0.6315780000000011,
          "durationTicks": 192,
          "midi": 59,
          "name": "B3",
          "ticks": 3696,
          "time": 12.157876499999999,
          "velocity": 0.48031496062992124
        },
        {
          "duration": 0.15789450000000116,
          "durationTicks": 48,
          "midi": 74,
          "name": "D5",
          "ticks": 3696,
          "time": 12.157876499999999,
          "velocity": 0.7795275590551181
        },
        {
          "duration": 0.11513140625000062,
          "durationTicks": 35,
          "midi": 79,
          "name": "G5",
          "ticks": 3744,
          "time": 12.315771,
          "velocity": 0.8661417322834646
        },
        {
          "duration": 0.11513140625000062,
          "durationTicks": 35,
          "midi": 79,
          "name": "G5",
          "ticks": 3792,
          "time": 12.4736655,
          "velocity": 0.8661417322834646
        },
        {
          "duration": 0.11513140625000062,
          "durationTicks": 35,
          "midi": 77,
          "name": "F5",
          "ticks": 3840,
          "time": 12.63156,
          "velocity": 0.7874015748031497
        },
        {
          "duration": 0.15789449999999938,
          "durationTicks": 48,
          "midi": 67,
          "name": "G4",
          "ticks": 3888,
          "time": 12.7894545,
          "velocity": 0.7795275590551181
        },
        {
          "duration": 0.15789449999999938,
          "durationTicks": 48,
          "midi": 75,
          "name": "D#5",
          "ticks": 3888,
          "time": 12.7894545,
          "velocity": 0.7795275590551181
        },
        {
          "duration": 0.15789449999999938,
          "durationTicks": 48,
          "midi": 60,
          "name": "C4",
          "ticks": 3888,
          "time": 12.7894545,
          "velocity": 0.48031496062992124
        },
        {
          "duration": 0.15789450000000116,
          "durationTicks": 48,
          "midi": 56,
          "name": "G#3",
          "ticks": 4080,
          "time": 13.421032499999999,
          "velocity": 0.48031496062992124
        },
        {
          "duration": 0.15789450000000116,
          "durationTicks": 48,
          "midi": 72,
          "name": "C5",
          "ticks": 4080,
          "time": 13.421032499999999,
          "velocity": 0.7795275590551181
        },
        {
          "duration": 0.15789450000000116,
          "durationTicks": 48,
          "midi": 66,
          "name": "F#4",
          "ticks": 4080,
          "time": 13.421032499999999,
          "velocity": 0.7795275590551181
        },
        {
          "duration": 0.7894724999999987,
          "durationTicks": 240,
          "midi": 67,
          "name": "G4",
          "ticks": 4272,
          "time": 14.0526105,
          "velocity": 0.7795275590551181
        },
        {
          "duration": 0.7894724999999987,
          "durationTicks": 240,
          "midi": 55,
          "name": "G3",
          "ticks": 4272,
          "time": 14.0526105,
          "velocity": 0.48031496062992124
        },
        {
          "duration": 0.7894724999999987,
          "durationTicks": 240,
          "midi": 79,
          "name": "G5",
          "ticks": 4272,
          "time": 14.0526105,
          "velocity": 0.7795275590551181
        },
        {
          "duration": 0.09868406250000028,
          "durationTicks": 30,
          "midi": 68,
          "name": "G#4",
          "ticks": 4512,
          "time": 14.842082999999999,
          "velocity": 0.8661417322834646
        },
        {
          "duration": 0.0986840624999985,
          "durationTicks": 30,
          "midi": 68,
          "name": "G#4",
          "ticks": 4560,
          "time": 14.9999775,
          "velocity": 0.8661417322834646
        },
        {
          "duration": 0.09868406250000028,
          "durationTicks": 30,
          "midi": 68,
          "name": "G#4",
          "ticks": 4608,
          "time": 15.157872,
          "velocity": 0.7874015748031497
        },
        {
          "duration": 1.7269710937500022,
          "durationTicks": 525,
          "midi": 65,
          "name": "F4",
          "ticks": 4656,
          "time": 15.315766499999999,
          "velocity": 0.7795275590551181
        },
        {
          "duration": 1.9769707187499996,
          "durationTicks": 601,
          "midi": 56,
          "name": "G#3",
          "ticks": 4656,
          "time": 15.315766499999999,
          "velocity": 0.7795275590551181
        },
        {
          "duration": 1.2631560000000022,
          "durationTicks": 384,
          "midi": 63,
          "name": "D#4",
          "ticks": 4656,
          "time": 15.315766499999999,
          "velocity": 0.6141732283464567
        },
        {
          "duration": 0.6315779999999975,
          "durationTicks": 192,
          "midi": 62,
          "name": "D4",
          "ticks": 5040,
          "time": 16.5789225,
          "velocity": 0.5511811023622047
        },
        {
          "duration": 0.6315780000000011,
          "durationTicks": 192,
          "midi": 60,
          "name": "C4",
          "ticks": 5232,
          "time": 17.2105005,
          "velocity": 0.5511811023622047
        },
        {
          "duration": 0.08881565624999865,
          "durationTicks": 27,
          "midi": 68,
          "name": "G#4",
          "ticks": 5280,
          "time": 17.368395,
          "velocity": 0.889763779527559
        },
        {
          "duration": 0.10526300000000077,
          "durationTicks": 32,
          "midi": 68,
          "name": "G#4",
          "ticks": 5328,
          "time": 17.5262895,
          "velocity": 0.889763779527559
        },
        {
          "duration": 0.13486821875000032,
          "durationTicks": 41,
          "midi": 68,
          "name": "G#4",
          "ticks": 5376,
          "time": 17.684184,
          "velocity": 0.7874015748031497
        },
        {
          "duration": 1.7269710937499987,
          "durationTicks": 525,
          "midi": 65,
          "name": "F4",
          "ticks": 5424,
          "time": 17.8420785,
          "velocity": 0.7795275590551181
        },
        {
          "duration": 1.2631559999999986,
          "durationTicks": 384,
          "midi": 59,
          "name": "B3",
          "ticks": 5424,
          "time": 17.8420785,
          "velocity": 0.47244094488188976
        },
        {
          "duration": 1.2631559999999986,
          "durationTicks": 384,
          "midi": 56,
          "name": "G#3",
          "ticks": 5424,
          "time": 17.8420785,
          "velocity": 0.47244094488188976
        },
        {
          "duration": 0.6315780000000011,
          "durationTicks": 192,
          "midi": 56,
          "name": "G#3",
          "ticks": 5808,
          "time": 19.105234499999998,
          "velocity": 0.47244094488188976
        },
        {
          "duration": 0.6315780000000011,
          "durationTicks": 192,
          "midi": 62,
          "name": "D4",
          "ticks": 5808,
          "time": 19.105234499999998,
          "velocity": 0.47244094488188976
        },
        {
          "duration": 0.15789450000000116,
          "durationTicks": 48,
          "midi": 55,
          "name": "G3",
          "ticks": 6000,
          "time": 19.7368125,
          "velocity": 0.47244094488188976
        },
        {
          "duration": 0.15789450000000116,
          "durationTicks": 48,
          "midi": 63,
          "name": "D#4",
          "ticks": 6000,
          "time": 19.7368125,
          "velocity": 0.47244094488188976
        },
        {
          "duration": 0.08881565624999865,
          "durationTicks": 27,
          "midi": 68,
          "name": "G#4",
          "ticks": 6048,
          "time": 19.894707,
          "velocity": 0.889763779527559
        },
        {
          "duration": 0.10526300000000077,
          "durationTicks": 32,
          "midi": 68,
          "name": "G#4",
          "ticks": 6096,
          "time": 20.052601499999998,
          "velocity": 0.889763779527559
        },
        {
          "duration": 0.13486821874999677,
          "durationTicks": 41,
          "midi": 68,
          "name": "G#4",
          "ticks": 6144,
          "time": 20.210496,
          "velocity": 0.7874015748031497
        },
        {
          "duration": 1.7269710937499987,
          "durationTicks": 525,
          "midi": 65,
          "name": "F4",
          "ticks": 6192,
          "time": 20.3683905,
          "velocity": 0.7795275590551181
        },
        {
          "duration": 1.2631559999999986,
          "durationTicks": 384,
          "midi": 59,
          "name": "B3",
          "ticks": 6192,
          "time": 20.3683905,
          "velocity": 0.47244094488188976
        },
        {
          "duration": 1.2631559999999986,
          "durationTicks": 384,
          "midi": 56,
          "name": "G#3",
          "ticks": 6192,
          "time": 20.3683905,
          "velocity": 0.47244094488188976
        },
        {
          "duration": 0.6315780000000011,
          "durationTicks": 192,
          "midi": 56,
          "name": "G#3",
          "ticks": 6576,
          "time": 21.6315465,
          "velocity": 0.47244094488188976
        },
        {
          "duration": 0.6315780000000011,
          "durationTicks": 192,
          "midi": 62,
          "name": "D4",
          "ticks": 6576,
          "time": 21.6315465,
          "velocity": 0.47244094488188976
        },
        {
          "duration": 0.1578944999999976,
          "durationTicks": 48,
          "midi": 55,
          "name": "G3",
          "ticks": 6768,
          "time": 22.2631245,
          "velocity": 0.47244094488188976
        },
        {
          "duration": 0.1578944999999976,
          "durationTicks": 48,
          "midi": 63,
          "name": "D#4",
          "ticks": 6768,
          "time": 22.2631245,
          "velocity": 0.47244094488188976
        },
        {
          "duration": 0.0888156562500022,
          "durationTicks": 27,
          "midi": 67,
          "name": "G4",
          "ticks": 6816,
          "time": 22.421018999999998,
          "velocity": 0.5511811023622047
        },
        {
          "duration": 0.10526299999999722,
          "durationTicks": 32,
          "midi": 67,
          "name": "G4",
          "ticks": 6864,
          "time": 22.5789135,
          "velocity": 0.5511811023622047
        },
        {
          "duration": 0.13486821874999677,
          "durationTicks": 41,
          "midi": 72,
          "name": "C5",
          "ticks": 6912,
          "time": 22.736808,
          "velocity": 0.5511811023622047
        },
        {
          "duration": 0.6315780000000011,
          "durationTicks": 192,
          "midi": 65,
          "name": "F4",
          "ticks": 6960,
          "time": 22.894702499999998,
          "velocity": 0.47244094488188976
        },
        {
          "duration": 0.6315780000000011,
          "durationTicks": 192,
          "midi": 72,
          "name": "C5",
          "ticks": 6960,
          "time": 22.894702499999998,
          "velocity": 0.5511811023622047
        },
        {
          "duration": 0.6315780000000011,
          "durationTicks": 192,
          "midi": 68,
          "name": "G#4",
          "ticks": 6960,
          "time": 22.894702499999998,
          "velocity": 0.47244094488188976
        },
        {
          "duration": 0.15789450000000116,
          "durationTicks": 48,
          "midi": 71,
          "name": "B4",
          "ticks": 7152,
          "time": 23.5262805,
          "velocity": 0.5511811023622047
        },
        {
          "duration": 0.6315780000000011,
          "durationTicks": 192,
          "midi": 67,
          "name": "G4",
          "ticks": 7152,
          "time": 23.5262805,
          "velocity": 0.47244094488188976
        },
        {
          "duration": 0.08881565624999865,
          "durationTicks": 27,
          "midi": 71,
          "name": "B4",
          "ticks": 7200,
          "time": 23.684175,
          "velocity": 0.5511811023622047
        },
        {
          "duration": 0.10526300000000077,
          "durationTicks": 32,
          "midi": 71,
          "name": "B4",
          "ticks": 7248,
          "time": 23.842069499999997,
          "velocity": 0.5511811023622047
        },
        {
          "duration": 0.13486821875000032,
          "durationTicks": 41,
          "midi": 74,
          "name": "D5",
          "ticks": 7296,
          "time": 23.999964,
          "velocity": 0.5511811023622047
        },
        {
          "duration": 0.6315779999999975,
          "durationTicks": 192,
          "midi": 74,
          "name": "D5",
          "ticks": 7344,
          "time": 24.1578585,
          "velocity": 0.5511811023622047
        },
        {
          "duration": 0.6315779999999975,
          "durationTicks": 192,
          "midi": 65,
          "name": "F4",
          "ticks": 7344,
          "time": 24.1578585,
          "velocity": 0.5511811023622047
        },
        {
          "duration": 0.6315779999999975,
          "durationTicks": 192,
          "midi": 71,
          "name": "B4",
          "ticks": 7344,
          "time": 24.1578585,
          "velocity": 0.5511811023622047
        },
        {
          "duration": 0.6315780000000011,
          "durationTicks": 192,
          "midi": 63,
          "name": "D#4",
          "ticks": 7536,
          "time": 24.789436499999997,
          "velocity": 0.47244094488188976
        },
        {
          "duration": 0.15789450000000116,
          "durationTicks": 48,
          "midi": 72,
          "name": "C5",
          "ticks": 7536,
          "time": 24.789436499999997,
          "velocity": 0.5511811023622047
        },
        {
          "duration": 0.15789450000000116,
          "durationTicks": 48,
          "midi": 67,
          "name": "G4",
          "ticks": 7536,
          "time": 24.789436499999997,
          "velocity": 0.5511811023622047
        },
        {
          "duration": 0.0888156562500022,
          "durationTicks": 27,
          "midi": 72,
          "name": "C5",
          "ticks": 7584,
          "time": 24.947331,
          "velocity": 0.5511811023622047
        },
        {
          "duration": 0.10526299999999722,
          "durationTicks": 32,
          "midi": 72,
          "name": "C5",
          "ticks": 7632,
          "time": 25.1052255,
          "velocity": 0.5511811023622047
        },
        {
          "duration": 0.13486821874999677,
          "durationTicks": 41,
          "midi": 75,
          "name": "D#5",
          "ticks": 7680,
          "time": 25.26312,
          "velocity": 0.5511811023622047
        },
        {
          "duration": 0.15789450000000116,
          "durationTicks": 48,
          "midi": 75,
          "name": "D#5",
          "ticks": 7728,
          "time": 25.4210145,
          "velocity": 0.5511811023622047
        },
        {
          "duration": 0.6315780000000011,
          "durationTicks": 192,
          "midi": 68,
          "name": "G#4",
          "ticks": 7728,
          "time": 25.4210145,
          "velocity": 0.5511811023622047
        },
        {
          "duration": 0.3157890000000023,
          "durationTicks": 96,
          "midi": 72,
          "name": "C5",
          "ticks": 7728,
          "time": 25.4210145,
          "velocity": 0.5511811023622047
        },
        {
          "duration": 0.08881565624999865,
          "durationTicks": 27,
          "midi": 74,
          "name": "D5",
          "ticks": 7776,
          "time": 25.578909,
          "velocity": 0.5511811023622047
        },
        {
          "duration": 0.10526299999999722,
          "durationTicks": 32,
          "midi": 74,
          "name": "D5",
          "ticks": 7824,
          "time": 25.7368035,
          "velocity": 0.5511811023622047
        },
        {
          "duration": 0.13486821875000032,
          "durationTicks": 41,
          "midi": 77,
          "name": "F5",
          "ticks": 7872,
          "time": 25.894697999999998,
          "velocity": 0.5511811023622047
        },
        {
          "duration": 0.6315780000000011,
          "durationTicks": 192,
          "midi": 70,
          "name": "A#4",
          "ticks": 7920,
          "time": 26.0525925,
          "velocity": 0.5511811023622047
        },
        {
          "duration": 0.15789450000000116,
          "durationTicks": 48,
          "midi": 77,
          "name": "F5",
          "ticks": 7920,
          "time": 26.0525925,
          "velocity": 0.5511811023622047
        },
        {
          "duration": 0.31578899999999877,
          "durationTicks": 96,
          "midi": 72,
          "name": "C5",
          "ticks": 7920,
          "time": 26.0525925,
          "velocity": 0.5511811023622047
        },
        {
          "duration": 0.08881565624999865,
          "durationTicks": 27,
          "midi": 76,
          "name": "E5",
          "ticks": 7968,
          "time": 26.210487,
          "velocity": 0.5511811023622047
        },
        {
          "duration": 0.10526300000000077,
          "durationTicks": 32,
          "midi": 76,
          "name": "E5",
          "ticks": 8016,
          "time": 26.368381499999998,
          "velocity": 0.5511811023622047
        },
        {
          "duration": 0.13486821874999677,
          "durationTicks": 41,
          "midi": 79,
          "name": "G5",
          "ticks": 8064,
          "time": 26.526276,
          "velocity": 0.5511811023622047
        },
        {
          "duration": 0.1578944999999976,
          "durationTicks": 48,
          "midi": 79,
          "name": "G5",
          "ticks": 8112,
          "time": 26.6841705,
          "velocity": 0.5511811023622047
        },
        {
          "duration": 0.6315779999999975,
          "durationTicks": 192,
          "midi": 68,
          "name": "G#4",
          "ticks": 8112,
          "time": 26.6841705,
          "velocity": 0.5511811023622047
        },
        {
          "duration": 0.6315779999999975,
          "durationTicks": 192,
          "midi": 72,
          "name": "C5",
          "ticks": 8112,
          "time": 26.6841705,
          "velocity": 0.5511811023622047
        },
        {
          "duration": 0.0888156562500022,
          "durationTicks": 27,
          "midi": 77,
          "name": "F5",
          "ticks": 8160,
          "time": 26.842064999999998,
          "velocity": 0.5511811023622047
        },
        {
          "duration": 0.10526299999999722,
          "durationTicks": 32,
          "midi": 77,
          "name": "F5",
          "ticks": 8208,
          "time": 26.9999595,
          "velocity": 0.5511811023622047
        },
        {
          "duration": 0.13486821874999677,
          "durationTicks": 41,
          "midi": 80,
          "name": "G#5",
          "ticks": 8256,
          "time": 27.157854,
          "velocity": 0.5511811023622047
        },
        {
          "duration": 0.15789450000000116,
          "durationTicks": 48,
          "midi": 80,
          "name": "G#5",
          "ticks": 8304,
          "time": 27.315748499999998,
          "velocity": 0.5511811023622047
        },
        {
          "duration": 0.6315780000000011,
          "durationTicks": 192,
          "midi": 70,
          "name": "A#4",
          "ticks": 8304,
          "time": 27.315748499999998,
          "velocity": 0.5511811023622047
        },
        {
          "duration": 0.6315780000000011,
          "durationTicks": 192,
          "midi": 76,
          "name": "E5",
          "ticks": 8304,
          "time": 27.315748499999998,
          "velocity": 0.5511811023622047
        },
        {
          "duration": 0.08881565624999865,
          "durationTicks": 27,
          "midi": 79,
          "name": "G5",
          "ticks": 8352,
          "time": 27.473643,
          "velocity": 0.5511811023622047
        },
        {
          "duration": 0.08881565624999865,
          "durationTicks": 27,
          "midi": 79,
          "name": "G5",
          "ticks": 8400,
          "time": 27.6315375,
          "velocity": 0.5511811023622047
        },
        {
          "duration": 0.0888156562500022,
          "durationTicks": 27,
          "midi": 82,
          "name": "A#5",
          "ticks": 8448,
          "time": 27.789431999999998,
          "velocity": 0.5511811023622047
        },
        {
          "duration": 0.15789450000000116,
          "durationTicks": 48,
          "midi": 82,
          "name": "A#5",
          "ticks": 8496,
          "time": 27.9473265,
          "velocity": 0.5511811023622047
        },
        {
          "duration": 0.6315780000000011,
          "durationTicks": 192,
          "midi": 72,
          "name": "C5",
          "ticks": 8496,
          "time": 27.9473265,
          "velocity": 0.5511811023622047
        },
        {
          "duration": 0.6315780000000011,
          "durationTicks": 192,
          "midi": 65,
          "name": "F4",
          "ticks": 8496,
          "time": 27.9473265,
          "velocity": 0.5511811023622047
        },
        {
          "duration": 0.08881565624999865,
          "durationTicks": 27,
          "midi": 80,
          "name": "G#5",
          "ticks": 8544,
          "time": 28.105221,
          "velocity": 0.5511811023622047
        },
        {
          "duration": 0.10526300000000077,
          "durationTicks": 32,
          "midi": 80,
          "name": "G#5",
          "ticks": 8592,
          "time": 28.263115499999998,
          "velocity": 0.5511811023622047
        },
        {
          "duration": 0.13486821874999677,
          "durationTicks": 41,
          "midi": 84,
          "name": "C6",
          "ticks": 8640,
          "time": 28.42101,
          "velocity": 0.5511811023622047
        },
        {
          "duration": 0.1578944999999976,
          "durationTicks": 48,
          "midi": 84,
          "name": "C6",
          "ticks": 8688,
          "time": 28.5789045,
          "velocity": 0.5511811023622047
        },
        {
          "duration": 0.6315779999999975,
          "durationTicks": 192,
          "midi": 74,
          "name": "D5",
          "ticks": 8688,
          "time": 28.5789045,
          "velocity": 0.5511811023622047
        },
        {
          "duration": 0.6315779999999975,
          "durationTicks": 192,
          "midi": 68,
          "name": "G#4",
          "ticks": 8688,
          "time": 28.5789045,
          "velocity": 0.5511811023622047
        },
        {
          "duration": 0.0888156562500022,
          "durationTicks": 27,
          "midi": 83,
          "name": "B5",
          "ticks": 8736,
          "time": 28.736798999999998,
          "velocity": 0.5511811023622047
        },
        {
          "duration": 0.08881565624999865,
          "durationTicks": 27,
          "midi": 83,
          "name": "B5",
          "ticks": 8784,
          "time": 28.8946935,
          "velocity": 0.5511811023622047
        },
        {
          "duration": 0.08881565624999865,
          "durationTicks": 27,
          "midi": 86,
          "name": "D6",
          "ticks": 8832,
          "time": 29.052588,
          "velocity": 0.5511811023622047
        },
        {
          "duration": 0.3157890000000023,
          "durationTicks": 96,
          "midi": 72,
          "name": "C5",
          "ticks": 8880,
          "time": 29.210482499999998,
          "velocity": 0.5511811023622047
        },
        {
          "duration": 1.2631560000000022,
          "durationTicks": 384,
          "midi": 63,
          "name": "D#4",
          "ticks": 8880,
          "time": 29.210482499999998,
          "velocity": 0.5511811023622047
        },
        {
          "duration": 0.7894725000000022,
          "durationTicks": 240,
          "midi": 67,
          "name": "G4",
          "ticks": 8880,
          "time": 29.210482499999998,
          "velocity": 0.5511811023622047
        },
        {
          "duration": 0.08881565624999865,
          "durationTicks": 27,
          "midi": 87,
          "name": "D#6",
          "ticks": 8928,
          "time": 29.368377,
          "velocity": 0.7086614173228346
        },
        {
          "duration": 0.10526299999999722,
          "durationTicks": 32,
          "midi": 87,
          "name": "D#6",
          "ticks": 8976,
          "time": 29.5262715,
          "velocity": 0.7086614173228346
        },
        {
          "duration": 0.13486821875000032,
          "durationTicks": 41,
          "midi": 87,
          "name": "D#6",
          "ticks": 9024,
          "time": 29.684165999999998,
          "velocity": 0.7086614173228346
        },
        {
          "duration": 0.15789450000000116,
          "durationTicks": 48,
          "midi": 84,
          "name": "C6",
          "ticks": 9072,
          "time": 29.8420605,
          "velocity": 0.7086614173228346
        },
        {
          "duration": 0.08881565624999865,
          "durationTicks": 27,
          "midi": 79,
          "name": "G5",
          "ticks": 9120,
          "time": 29.999955,
          "velocity": 0.7086614173228346
        },
        {
          "duration": 0.10526300000000077,
          "durationTicks": 32,
          "midi": 79,
          "name": "G5",
          "ticks": 9168,
          "time": 30.157849499999998,
          "velocity": 0.7086614173228346
        },
        {
          "duration": 0.08881565624999865,
          "durationTicks": 27,
          "midi": 79,
          "name": "G5",
          "ticks": 9216,
          "time": 30.315744,
          "velocity": 0.7086614173228346
        },
        {
          "duration": 0.1578944999999976,
          "durationTicks": 48,
          "midi": 60,
          "name": "C4",
          "ticks": 9264,
          "time": 30.4736385,
          "velocity": 0.5511811023622047
        },
        {
          "duration": 0.6315779999999975,
          "durationTicks": 192,
          "midi": 55,
          "name": "G3",
          "ticks": 9264,
          "time": 30.4736385,
          "velocity": 0.5511811023622047
        },
        {
          "duration": 0.9473669999999998,
          "durationTicks": 288,
          "midi": 51,
          "name": "D#3",
          "ticks": 9264,
          "time": 30.4736385,
          "velocity": 0.5511811023622047
        },
        {
          "duration": 0.1578944999999976,
          "durationTicks": 48,
          "midi": 75,
          "name": "D#5",
          "ticks": 9264,
          "time": 30.4736385,
          "velocity": 0.5511811023622047
        },
        {
          "duration": 0.0888156562500022,
          "durationTicks": 27,
          "midi": 72,
          "name": "C5",
          "ticks": 9312,
          "time": 30.631532999999997,
          "velocity": 0.5511811023622047
        },
        {
          "duration": 0.10526299999999722,
          "durationTicks": 32,
          "midi": 67,
          "name": "G4",
          "ticks": 9360,
          "time": 30.7894275,
          "velocity": 0.5511811023622047
        },
        {
          "duration": 0.13486821874999677,
          "durationTicks": 41,
          "midi": 67,
          "name": "G4",
          "ticks": 9408,
          "time": 30.947322,
          "velocity": 0.5511811023622047
        },
        {
          "duration": 0.15789450000000116,
          "durationTicks": 48,
          "midi": 63,
          "name": "D#4",
          "ticks": 9456,
          "time": 31.105216499999997,
          "velocity": 0.5511811023622047
        },
        {
          "duration": 0.6315780000000011,
          "durationTicks": 192,
          "midi": 55,
          "name": "G3",
          "ticks": 9456,
          "time": 31.105216499999997,
          "velocity": 0.5511811023622047
        },
        {
          "duration": 0.08881565624999865,
          "durationTicks": 27,
          "midi": 60,
          "name": "C4",
          "ticks": 9504,
          "time": 31.263111,
          "velocity": 0.5511811023622047
        },
        {
          "duration": 0.08881565624999865,
          "durationTicks": 27,
          "midi": 60,
          "name": "C4",
          "ticks": 9552,
          "time": 31.4210055,
          "velocity": 0.5511811023622047
        },
        {
          "duration": 0.0888156562500022,
          "durationTicks": 27,
          "midi": 60,
          "name": "C4",
          "ticks": 9600,
          "time": 31.578899999999997,
          "velocity": 0.5511811023622047
        },
        {
          "duration": 0.7894724999999987,
          "durationTicks": 240,
          "midi": 67,
          "name": "G4",
          "ticks": 9648,
          "time": 31.7367945,
          "velocity": 0.5511811023622047
        },
        {
          "duration": 1.2631559999999986,
          "durationTicks": 384,
          "midi": 59,
          "name": "B3",
          "ticks": 9648,
          "time": 31.7367945,
          "velocity": 0.5511811023622047
        },
        {
          "duration": 0.31578899999999877,
          "durationTicks": 96,
          "midi": 74,
          "name": "D5",
          "ticks": 9648,
          "time": 31.7367945,
          "velocity": 0.5511811023622047
        },
        {
          "duration": 0.08881565624999865,
          "durationTicks": 27,
          "midi": 89,
          "name": "F6",
          "ticks": 9696,
          "time": 31.894689,
          "velocity": 0.7086614173228346
        },
        {
          "duration": 0.10526300000000077,
          "durationTicks": 32,
          "midi": 86,
          "name": "D6",
          "ticks": 9744,
          "time": 32.0525835,
          "velocity": 0.7086614173228346
        },
        {
          "duration": 0.13486821874999322,
          "durationTicks": 41,
          "midi": 86,
          "name": "D6",
          "ticks": 9792,
          "time": 32.210478,
          "velocity": 0.7086614173228346
        },
        {
          "duration": 0.1578944999999976,
          "durationTicks": 48,
          "midi": 83,
          "name": "B5",
          "ticks": 9840,
          "time": 32.3683725,
          "velocity": 0.7086614173228346
        },
        {
          "duration": 0.08881565624999865,
          "durationTicks": 27,
          "midi": 79,
          "name": "G5",
          "ticks": 9888,
          "time": 32.526267,
          "velocity": 0.7086614173228346
        },
        {
          "duration": 0.10526299999999367,
          "durationTicks": 32,
          "midi": 77,
          "name": "F5",
          "ticks": 9936,
          "time": 32.6841615,
          "velocity": 0.7086614173228346
        },
        {
          "duration": 0.08881565624999865,
          "durationTicks": 27,
          "midi": 77,
          "name": "F5",
          "ticks": 9984,
          "time": 32.842056,
          "velocity": 0.7086614173228346
        },
        {
          "duration": 0.9473669999999998,
          "durationTicks": 288,
          "midi": 55,
          "name": "G3",
          "ticks": 10032,
          "time": 32.9999505,
          "velocity": 0.5511811023622047
        },
        {
          "duration": 0.1578945000000047,
          "durationTicks": 48,
          "midi": 59,
          "name": "B3",
          "ticks": 10032,
          "time": 32.9999505,
          "velocity": 0.5511811023622047
        },
        {
          "duration": 0.1578945000000047,
          "durationTicks": 48,
          "midi": 74,
          "name": "D5",
          "ticks": 10032,
          "time": 32.9999505,
          "velocity": 0.5511811023622047
        },
        {
          "duration": 0.08881565624999865,
          "durationTicks": 27,
          "midi": 71,
          "name": "B4",
          "ticks": 10080,
          "time": 33.157845,
          "velocity": 0.5511811023622047
        },
        {
          "duration": 0.10526300000000077,
          "durationTicks": 32,
          "midi": 67,
          "name": "G4",
          "ticks": 10128,
          "time": 33.3157395,
          "velocity": 0.5511811023622047
        },
        {
          "duration": 0.13486821875000032,
          "durationTicks": 41,
          "midi": 65,
          "name": "F4",
          "ticks": 10176,
          "time": 33.473634,
          "velocity": 0.5511811023622047
        },
        {
          "duration": 0.1578944999999976,
          "durationTicks": 48,
          "midi": 62,
          "name": "D4",
          "ticks": 10224,
          "time": 33.6315285,
          "velocity": 0.5511811023622047
        },
        {
          "duration": 0.08881565624999865,
          "durationTicks": 27,
          "midi": 59,
          "name": "B3",
          "ticks": 10272,
          "time": 33.789423,
          "velocity": 0.5511811023622047
        },
        {
          "duration": 0.08881565624999865,
          "durationTicks": 27,
          "midi": 55,
          "name": "G3",
          "ticks": 10320,
          "time": 33.9473175,
          "velocity": 0.5511811023622047
        },
        {
          "duration": 0.08881565624999865,
          "durationTicks": 27,
          "midi": 55,
          "name": "G3",
          "ticks": 10368,
          "time": 34.105212,
          "velocity": 0.5511811023622047
        },
        {
          "duration": 0.7894725000000022,
          "durationTicks": 240,
          "midi": 66,
          "name": "F#4",
          "ticks": 10416,
          "time": 34.2631065,
          "velocity": 0.5511811023622047
        },
        {
          "duration": 0.3157890000000023,
          "durationTicks": 96,
          "midi": 75,
          "name": "D#5",
          "ticks": 10416,
          "time": 34.2631065,
          "velocity": 0.5511811023622047
        },
        {
          "duration": 1.2631560000000022,
          "durationTicks": 384,
          "midi": 60,
          "name": "C4",
          "ticks": 10416,
          "time": 34.2631065,
          "velocity": 0.5511811023622047
        },
        {
          "duration": 0.08881565624999865,
          "durationTicks": 27,
          "midi": 87,
          "name": "D#6",
          "ticks": 10464,
          "time": 34.421001,
          "velocity": 0.7086614173228346
        },
        {
          "duration": 0.10526299999999367,
          "durationTicks": 32,
          "midi": 87,
          "name": "D#6",
          "ticks": 10512,
          "time": 34.5788955,
          "velocity": 0.7086614173228346
        },
        {
          "duration": 0.13486821875000032,
          "durationTicks": 41,
          "midi": 87,
          "name": "D#6",
          "ticks": 10560,
          "time": 34.73679,
          "velocity": 0.7086614173228346
        },
        {
          "duration": 0.1578945000000047,
          "durationTicks": 48,
          "midi": 84,
          "name": "C6",
          "ticks": 10608,
          "time": 34.8946845,
          "velocity": 0.7086614173228346
        },
        {
          "duration": 0.08881565624999865,
          "durationTicks": 27,
          "midi": 81,
          "name": "A5",
          "ticks": 10656,
          "time": 35.052579,
          "velocity": 0.7086614173228346
        },
        {
          "duration": 0.10526300000000077,
          "durationTicks": 32,
          "midi": 81,
          "name": "A5",
          "ticks": 10704,
          "time": 35.2104735,
          "velocity": 0.7086614173228346
        },
        {
          "duration": 0.08881565624999865,
          "durationTicks": 27,
          "midi": 81,
          "name": "A5",
          "ticks": 10752,
          "time": 35.368368,
          "velocity": 0.7086614173228346
        },
        {
          "duration": 0.1578944999999976,
          "durationTicks": 48,
          "midi": 78,
          "name": "F#5",
          "ticks": 10800,
          "time": 35.5262625,
          "velocity": 0.5511811023622047
        },
        {
          "duration": 0.9473669999999998,
          "durationTicks": 288,
          "midi": 63,
          "name": "D#4",
          "ticks": 10800,
          "time": 35.5262625,
          "velocity": 0.5511811023622047
        },
        {
          "duration": 0.7894724999999951,
          "durationTicks": 240,
          "midi": 57,
          "name": "A3",
          "ticks": 10800,
          "time": 35.5262625,
          "velocity": 0.5511811023622047
        },
        {
          "duration": 0.08881565624999865,
          "durationTicks": 27,
          "midi": 75,
          "name": "D#5",
          "ticks": 10848,
          "time": 35.684157,
          "velocity": 0.5511811023622047
        },
        {
          "duration": 0.10526300000000077,
          "durationTicks": 32,
          "midi": 75,
          "name": "D#5",
          "ticks": 10896,
          "time": 35.8420515,
          "velocity": 0.5511811023622047
        },
        {
          "duration": 0.13486821874999322,
          "durationTicks": 41,
          "midi": 75,
          "name": "D#5",
          "ticks": 10944,
          "time": 35.999946,
          "velocity": 0.5511811023622047
        },
        {
          "duration": 0.1578944999999976,
          "durationTicks": 48,
          "midi": 72,
          "name": "C5",
          "ticks": 10992,
          "time": 36.1578405,
          "velocity": 0.5511811023622047
        },
        {
          "duration": 0.08881565624999865,
          "durationTicks": 27,
          "midi": 66,
          "name": "F#4",
          "ticks": 11040,
          "time": 36.315735,
          "velocity": 0.5511811023622047
        },
        {
          "duration": 0.08881565624999865,
          "durationTicks": 27,
          "midi": 66,
          "name": "F#4",
          "ticks": 11088,
          "time": 36.4736295,
          "velocity": 0.5511811023622047
        },
        {
          "duration": 0.08881565624999865,
          "durationTicks": 27,
          "midi": 66,
          "name": "F#4",
          "ticks": 11136,
          "time": 36.631524,
          "velocity": 0.5511811023622047
        },
        {
          "duration": 1.2631560000000022,
          "durationTicks": 384,
          "midi": 69,
          "name": "A4",
          "ticks": 11184,
          "time": 36.7894185,
          "velocity": 0.5511811023622047
        },
        {
          "duration": 0.1578945000000047,
          "durationTicks": 48,
          "midi": 63,
          "name": "D#4",
          "ticks": 11184,
          "time": 36.7894185,
          "velocity": 0.5511811023622047
        },
        {
          "duration": 0.1578945000000047,
          "durationTicks": 48,
          "midi": 54,
          "name": "F#3",
          "ticks": 11184,
          "time": 36.7894185,
          "velocity": 0.5511811023622047
        },
        {
          "duration": 0.1578944999999976,
          "durationTicks": 48,
          "midi": 62,
          "name": "D4",
          "ticks": 11568,
          "time": 38.0525745,
          "velocity": 0.5511811023622047
        },
        {
          "duration": 0.1578944999999976,
          "durationTicks": 48,
          "midi": 53,
          "name": "F3",
          "ticks": 11568,
          "time": 38.0525745,
          "velocity": 0.5511811023622047
        },
        {
          "duration": 1.2631560000000022,
          "durationTicks": 384,
          "midi": 70,
          "name": "A#4",
          "ticks": 11568,
          "time": 38.0525745,
          "velocity": 0.5511811023622047
        },
        {
          "duration": 0.1578944999999976,
          "durationTicks": 48,
          "midi": 46,
          "name": "A#2",
          "ticks": 11808,
          "time": 38.842047,
          "velocity": 0.8661417322834646
        },
        {
          "duration": 0.1578944999999976,
          "durationTicks": 48,
          "midi": 58,
          "name": "A#3",
          "ticks": 11808,
          "time": 38.842047,
          "velocity": 0.8661417322834646
        },
        {
          "duration": 0.1578944999999976,
          "durationTicks": 48,
          "midi": 58,
          "name": "A#3",
          "ticks": 11856,
          "time": 38.9999415,
          "velocity": 0.8661417322834646
        },
        {
          "duration": 0.1578944999999976,
          "durationTicks": 48,
          "midi": 46,
          "name": "A#2",
          "ticks": 11856,
          "time": 38.9999415,
          "velocity": 0.8661417322834646
        },
        {
          "duration": 0.1578945000000047,
          "durationTicks": 48,
          "midi": 58,
          "name": "A#3",
          "ticks": 11904,
          "time": 39.157835999999996,
          "velocity": 0.8661417322834646
        },
        {
          "duration": 0.1578945000000047,
          "durationTicks": 48,
          "midi": 46,
          "name": "A#2",
          "ticks": 11904,
          "time": 39.157835999999996,
          "velocity": 0.8661417322834646
        },
        {
          "duration": 0.6315779999999975,
          "durationTicks": 192,
          "midi": 51,
          "name": "D#3",
          "ticks": 11952,
          "time": 39.3157305,
          "velocity": 0.8661417322834646
        },
        {
          "duration": 0.6315779999999975,
          "durationTicks": 192,
          "midi": 39,
          "name": "D#2",
          "ticks": 11952,
          "time": 39.3157305,
          "velocity": 0.8661417322834646
        },
        {
          "duration": 0.6315779999999975,
          "durationTicks": 192,
          "midi": 53,
          "name": "F3",
          "ticks": 12144,
          "time": 39.9473085,
          "velocity": 0.8661417322834646
        },
        {
          "duration": 0.6315779999999975,
          "durationTicks": 192,
          "midi": 41,
          "name": "F2",
          "ticks": 12144,
          "time": 39.9473085,
          "velocity": 0.8661417322834646
        },
        {
          "duration": 1.2631560000000022,
          "durationTicks": 384,
          "midi": 46,
          "name": "A#2",
          "ticks": 12336,
          "time": 40.578886499999996,
          "velocity": 0.8661417322834646
        },
        {
          "duration": 1.2631560000000022,
          "durationTicks": 384,
          "midi": 34,
          "name": "A#1",
          "ticks": 12336,
          "time": 40.578886499999996,
          "velocity": 0.8661417322834646
        }
      ],
      "endOfTrackTicks": 12720
    },
    {
      "channel": 1,
      "controlChanges": {},
      "pitchBends": [],
      "instrument": {
        "family": "organ",
        "number": 18,
        "name": "rock organ"
      },
      "name": "Snare               ",
      "notes": [
        {
          "duration": 0.062499906250001125,
          "durationTicks": 19,
          "midi": 80,
          "name": "G#5",
          "ticks": 1632,
          "time": 5.368412999999999,
          "velocity": 0.889763779527559
        },
        {
          "duration": 0.07894724999999969,
          "durationTicks": 24,
          "midi": 80,
          "name": "G#5",
          "ticks": 1680,
          "time": 5.5263075,
          "velocity": 0.889763779527559
        },
        {
          "duration": 0.18092078125000022,
          "durationTicks": 55,
          "midi": 80,
          "name": "G#5",
          "ticks": 1728,
          "time": 5.684202,
          "velocity": 0.889763779527559
        },
        {
          "duration": 0.6315780000000002,
          "durationTicks": 192,
          "midi": 79,
          "name": "G5",
          "ticks": 1776,
          "time": 5.842096499999999,
          "velocity": 0.889763779527559
        },
        {
          "duration": 0.06907884375000073,
          "durationTicks": 21,
          "midi": 80,
          "name": "G#5",
          "ticks": 2400,
          "time": 7.894724999999999,
          "velocity": 1
        },
        {
          "duration": 0.08881565624999865,
          "durationTicks": 27,
          "midi": 80,
          "name": "G#5",
          "ticks": 2448,
          "time": 8.0526195,
          "velocity": 0.889763779527559
        },
        {
          "duration": 0.12828928124999983,
          "durationTicks": 39,
          "midi": 80,
          "name": "G#5",
          "ticks": 2496,
          "time": 8.210514,
          "velocity": 0.889763779527559
        },
        {
          "duration": 0.6315780000000011,
          "durationTicks": 192,
          "midi": 79,
          "name": "G5",
          "ticks": 2544,
          "time": 8.3684085,
          "velocity": 0.7795275590551181
        },
        {
          "duration": 0.15789449999999938,
          "durationTicks": 48,
          "midi": 72,
          "name": "C5",
          "ticks": 3172,
          "time": 10.434194875,
          "velocity": 0.7086614173228346
        },
        {
          "duration": 0.15789449999999938,
          "durationTicks": 48,
          "midi": 75,
          "name": "D#5",
          "ticks": 3216,
          "time": 10.5789315,
          "velocity": 0.7086614173228346
        },
        {
          "duration": 0.15789450000000116,
          "durationTicks": 48,
          "midi": 77,
          "name": "F5",
          "ticks": 3264,
          "time": 10.736825999999999,
          "velocity": 0.7086614173228346
        },
        {
          "duration": 0.6315779999999993,
          "durationTicks": 192,
          "midi": 79,
          "name": "G5",
          "ticks": 3312,
          "time": 10.8947205,
          "velocity": 0.7086614173228346
        },
        {
          "duration": 0.15789450000000116,
          "durationTicks": 48,
          "midi": 60,
          "name": "C4",
          "ticks": 3556,
          "time": 11.697350874999998,
          "velocity": 0.7086614173228346
        },
        {
          "duration": 0.15789449999999938,
          "durationTicks": 48,
          "midi": 63,
          "name": "D#4",
          "ticks": 3600,
          "time": 11.8420875,
          "velocity": 0.7086614173228346
        },
        {
          "duration": 0.15789449999999938,
          "durationTicks": 48,
          "midi": 65,
          "name": "F4",
          "ticks": 3648,
          "time": 11.999982,
          "velocity": 0.7086614173228346
        },
        {
          "duration": 0.6315780000000011,
          "durationTicks": 192,
          "midi": 67,
          "name": "G4",
          "ticks": 3696,
          "time": 12.157876499999999,
          "velocity": 0.7086614173228346
        },
        {
          "duration": 0.08881565625000043,
          "durationTicks": 27,
          "midi": 79,
          "name": "G5",
          "ticks": 3744,
          "time": 12.315771,
          "velocity": 1
        },
        {
          "duration": 0.08881565625000043,
          "durationTicks": 27,
          "midi": 79,
          "name": "G5",
          "ticks": 3792,
          "time": 12.4736655,
          "velocity": 1
        },
        {
          "duration": 0.08881565624999865,
          "durationTicks": 27,
          "midi": 77,
          "name": "F5",
          "ticks": 3840,
          "time": 12.63156,
          "velocity": 1
        },
        {
          "duration": 0.09868406250000028,
          "durationTicks": 30,
          "midi": 72,
          "name": "C5",
          "ticks": 3888,
          "time": 12.7894545,
          "velocity": 0.8661417322834646
        },
        {
          "duration": 0.09868406250000028,
          "durationTicks": 30,
          "midi": 67,
          "name": "G4",
          "ticks": 3888,
          "time": 12.7894545,
          "velocity": 0.8661417322834646
        },
        {
          "duration": 0.09868406250000028,
          "durationTicks": 30,
          "midi": 75,
          "name": "D#5",
          "ticks": 3888,
          "time": 12.7894545,
          "velocity": 0.8661417322834646
        },
        {
          "duration": 0.09868406250000028,
          "durationTicks": 30,
          "midi": 72,
          "name": "C5",
          "ticks": 4080,
          "time": 13.421032499999999,
          "velocity": 0.8661417322834646
        },
        {
          "duration": 0.09868406250000028,
          "durationTicks": 30,
          "midi": 66,
          "name": "F#4",
          "ticks": 4080,
          "time": 13.421032499999999,
          "velocity": 0.8661417322834646
        },
        {
          "duration": 0.09868406250000028,
          "durationTicks": 30,
          "midi": 63,
          "name": "D#4",
          "ticks": 4080,
          "time": 13.421032499999999,
          "velocity": 0.8661417322834646
        },
        {
          "duration": 0.09868406250000028,
          "durationTicks": 30,
          "midi": 68,
          "name": "G#4",
          "ticks": 4080,
          "time": 13.421032499999999,
          "velocity": 0.8661417322834646
        },
        {
          "duration": 0.9473669999999998,
          "durationTicks": 288,
          "midi": 55,
          "name": "G3",
          "ticks": 4272,
          "time": 14.0526105,
          "velocity": 0.8661417322834646
        },
        {
          "duration": 0.062499906249996684,
          "durationTicks": 19,
          "midi": 74,
          "name": "D5",
          "ticks": 5472,
          "time": 17.999973,
          "velocity": 0.889763779527559
        },
        {
          "duration": 0.07894725000000236,
          "durationTicks": 24,
          "midi": 74,
          "name": "D5",
          "ticks": 5520,
          "time": 18.1578675,
          "velocity": 0.889763779527559
        },
        {
          "duration": 0.18092078124999844,
          "durationTicks": 55,
          "midi": 74,
          "name": "D5",
          "ticks": 5568,
          "time": 18.315762,
          "velocity": 0.889763779527559
        },
        {
          "duration": 0.6315779999999975,
          "durationTicks": 192,
          "midi": 71,
          "name": "B4",
          "ticks": 5616,
          "time": 18.4736565,
          "velocity": 0.889763779527559
        },
        {
          "duration": 0.06249990625000379,
          "durationTicks": 19,
          "midi": 74,
          "name": "D5",
          "ticks": 6240,
          "time": 20.526284999999998,
          "velocity": 0.889763779527559
        },
        {
          "duration": 0.0789472499999988,
          "durationTicks": 24,
          "midi": 74,
          "name": "D5",
          "ticks": 6288,
          "time": 20.6841795,
          "velocity": 0.889763779527559
        },
        {
          "duration": 0.180920781250002,
          "durationTicks": 55,
          "midi": 74,
          "name": "D5",
          "ticks": 6336,
          "time": 20.842074,
          "velocity": 0.889763779527559
        },
        {
          "duration": 0.6315780000000011,
          "durationTicks": 192,
          "midi": 71,
          "name": "B4",
          "ticks": 6384,
          "time": 20.999968499999998,
          "velocity": 0.889763779527559
        },
        {
          "duration": 0.06249990625000379,
          "durationTicks": 19,
          "midi": 72,
          "name": "C5",
          "ticks": 6960,
          "time": 22.894702499999998,
          "velocity": 0.7086614173228346
        },
        {
          "duration": 0.6315780000000011,
          "durationTicks": 192,
          "midi": 96,
          "name": "C7",
          "ticks": 6960,
          "time": 22.894702499999998,
          "velocity": 0.47244094488188976
        },
        {
          "duration": 0.06249990625000024,
          "durationTicks": 19,
          "midi": 72,
          "name": "C5",
          "ticks": 7056,
          "time": 23.2104915,
          "velocity": 0.7086614173228346
        },
        {
          "duration": 0.06249990625000024,
          "durationTicks": 19,
          "midi": 71,
          "name": "B4",
          "ticks": 7152,
          "time": 23.5262805,
          "velocity": 0.7086614173228346
        },
        {
          "duration": 0.6315780000000011,
          "durationTicks": 192,
          "midi": 95,
          "name": "B6",
          "ticks": 7152,
          "time": 23.5262805,
          "velocity": 0.47244094488188976
        },
        {
          "duration": 0.06249990625000379,
          "durationTicks": 19,
          "midi": 71,
          "name": "B4",
          "ticks": 7248,
          "time": 23.842069499999997,
          "velocity": 0.7086614173228346
        },
        {
          "duration": 0.06249990625000024,
          "durationTicks": 19,
          "midi": 74,
          "name": "D5",
          "ticks": 7344,
          "time": 24.1578585,
          "velocity": 0.7086614173228346
        },
        {
          "duration": 0.6315779999999975,
          "durationTicks": 192,
          "midi": 98,
          "name": "D7",
          "ticks": 7344,
          "time": 24.1578585,
          "velocity": 0.47244094488188976
        },
        {
          "duration": 0.06249990625000024,
          "durationTicks": 19,
          "midi": 74,
          "name": "D5",
          "ticks": 7440,
          "time": 24.4736475,
          "velocity": 0.7086614173228346
        },
        {
          "duration": 0.06249990625000379,
          "durationTicks": 19,
          "midi": 72,
          "name": "C5",
          "ticks": 7536,
          "time": 24.789436499999997,
          "velocity": 0.7086614173228346
        },
        {
          "duration": 0.6315780000000011,
          "durationTicks": 192,
          "midi": 96,
          "name": "C7",
          "ticks": 7536,
          "time": 24.789436499999997,
          "velocity": 0.47244094488188976
        },
        {
          "duration": 0.06249990625000024,
          "durationTicks": 19,
          "midi": 72,
          "name": "C5",
          "ticks": 7632,
          "time": 25.1052255,
          "velocity": 0.7086614173228346
        },
        {
          "duration": 0.06249990625000379,
          "durationTicks": 19,
          "midi": 77,
          "name": "F5",
          "ticks": 7728,
          "time": 25.4210145,
          "velocity": 0.7086614173228346
        },
        {
          "duration": 0.3157890000000023,
          "durationTicks": 96,
          "midi": 99,
          "name": "D#7",
          "ticks": 7728,
          "time": 25.4210145,
          "velocity": 0.47244094488188976
        },
        {
          "duration": 0.06249990625000024,
          "durationTicks": 19,
          "midi": 77,
          "name": "F5",
          "ticks": 7824,
          "time": 25.7368035,
          "velocity": 0.7086614173228346
        },
        {
          "duration": 0.31578899999999877,
          "durationTicks": 96,
          "midi": 98,
          "name": "D7",
          "ticks": 7824,
          "time": 25.7368035,
          "velocity": 0.47244094488188976
        },
        {
          "duration": 0.06249990625000024,
          "durationTicks": 19,
          "midi": 76,
          "name": "E5",
          "ticks": 7920,
          "time": 26.0525925,
          "velocity": 0.7086614173228346
        },
        {
          "duration": 0.31578899999999877,
          "durationTicks": 96,
          "midi": 101,
          "name": "F7",
          "ticks": 7920,
          "time": 26.0525925,
          "velocity": 0.47244094488188976
        },
        {
          "duration": 0.06249990625000379,
          "durationTicks": 19,
          "midi": 76,
          "name": "E5",
          "ticks": 8016,
          "time": 26.368381499999998,
          "velocity": 0.7086614173228346
        },
        {
          "duration": 0.3157890000000023,
          "durationTicks": 96,
          "midi": 100,
          "name": "E7",
          "ticks": 8016,
          "time": 26.368381499999998,
          "velocity": 0.47244094488188976
        },
        {
          "duration": 0.06249990625000024,
          "durationTicks": 19,
          "midi": 77,
          "name": "F5",
          "ticks": 8112,
          "time": 26.6841705,
          "velocity": 0.7086614173228346
        },
        {
          "duration": 0.31578899999999877,
          "durationTicks": 96,
          "midi": 103,
          "name": "G7",
          "ticks": 8112,
          "time": 26.6841705,
          "velocity": 0.47244094488188976
        },
        {
          "duration": 0.06249990625000024,
          "durationTicks": 19,
          "midi": 77,
          "name": "F5",
          "ticks": 8208,
          "time": 26.9999595,
          "velocity": 0.7086614173228346
        },
        {
          "duration": 0.31578899999999877,
          "durationTicks": 96,
          "midi": 101,
          "name": "F7",
          "ticks": 8208,
          "time": 26.9999595,
          "velocity": 0.47244094488188976
        },
        {
          "duration": 0.3157890000000023,
          "durationTicks": 96,
          "midi": 104,
          "name": "G#7",
          "ticks": 8304,
          "time": 27.315748499999998,
          "velocity": 0.47244094488188976
        },
        {
          "duration": 0.06249990625000379,
          "durationTicks": 19,
          "midi": 79,
          "name": "G5",
          "ticks": 8304,
          "time": 27.315748499999998,
          "velocity": 0.7086614173228346
        },
        {
          "duration": 0.06249990625000024,
          "durationTicks": 19,
          "midi": 79,
          "name": "G5",
          "ticks": 8400,
          "time": 27.6315375,
          "velocity": 0.7086614173228346
        },
        {
          "duration": 0.31578899999999877,
          "durationTicks": 96,
          "midi": 103,
          "name": "G7",
          "ticks": 8400,
          "time": 27.6315375,
          "velocity": 0.47244094488188976
        },
        {
          "duration": 0.31578899999999877,
          "durationTicks": 96,
          "midi": 106,
          "name": "A#7",
          "ticks": 8496,
          "time": 27.9473265,
          "velocity": 0.47244094488188976
        },
        {
          "duration": 0.06249990625000024,
          "durationTicks": 19,
          "midi": 80,
          "name": "G#5",
          "ticks": 8496,
          "time": 27.9473265,
          "velocity": 0.7086614173228346
        },
        {
          "duration": 0.06249990625000379,
          "durationTicks": 19,
          "midi": 80,
          "name": "G#5",
          "ticks": 8592,
          "time": 28.263115499999998,
          "velocity": 0.7086614173228346
        },
        {
          "duration": 0.3157890000000023,
          "durationTicks": 96,
          "midi": 104,
          "name": "G#7",
          "ticks": 8592,
          "time": 28.263115499999998,
          "velocity": 0.47244094488188976
        },
        {
          "duration": 0.31578899999999877,
          "durationTicks": 96,
          "midi": 108,
          "name": "C8",
          "ticks": 8688,
          "time": 28.5789045,
          "velocity": 0.47244094488188976
        },
        {
          "duration": 0.06249990625000024,
          "durationTicks": 19,
          "midi": 83,
          "name": "B5",
          "ticks": 8688,
          "time": 28.5789045,
          "velocity": 0.7086614173228346
        },
        {
          "duration": 0.31578899999999877,
          "durationTicks": 96,
          "midi": 107,
          "name": "B7",
          "ticks": 8784,
          "time": 28.8946935,
          "velocity": 0.47244094488188976
        },
        {
          "duration": 0.06249990625000024,
          "durationTicks": 19,
          "midi": 83,
          "name": "B5",
          "ticks": 8784,
          "time": 28.8946935,
          "velocity": 0.7086614173228346
        }
      ],
      "endOfTrackTicks": 11616
    },
    {
      "channel": 1,
      "controlChanges": {},
      "pitchBends": [],
      "instrument": {
        "family": "synth pad",
        "number": 90,
        "name": "pad 3 (polysynth)"
      },
      "name": "",
      "notes": [
        {
          "duration": 0.15789450000000116,
          "durationTicks": 48,
          "midi": 72,
          "name": "C5",
          "ticks": 8880,
          "time": 29.210482499999998,
          "velocity": 0.8661417322834646
        },
        {
          "duration": 0.08881565624999865,
          "durationTicks": 27,
          "midi": 87,
          "name": "D#6",
          "ticks": 8928,
          "time": 29.368377,
          "velocity": 0.8661417322834646
        },
        {
          "duration": 0.10526299999999722,
          "durationTicks": 32,
          "midi": 87,
          "name": "D#6",
          "ticks": 8976,
          "time": 29.5262715,
          "velocity": 0.8661417322834646
        },
        {
          "duration": 0.13486821875000032,
          "durationTicks": 41,
          "midi": 87,
          "name": "D#6",
          "ticks": 9024,
          "time": 29.684165999999998,
          "velocity": 0.8661417322834646
        },
        {
          "duration": 0.15789450000000116,
          "durationTicks": 48,
          "midi": 84,
          "name": "C6",
          "ticks": 9072,
          "time": 29.8420605,
          "velocity": 0.8661417322834646
        },
        {
          "duration": 0.08881565624999865,
          "durationTicks": 27,
          "midi": 79,
          "name": "G5",
          "ticks": 9120,
          "time": 29.999955,
          "velocity": 0.8661417322834646
        },
        {
          "duration": 0.10526300000000077,
          "durationTicks": 32,
          "midi": 79,
          "name": "G5",
          "ticks": 9168,
          "time": 30.157849499999998,
          "velocity": 0.8661417322834646
        },
        {
          "duration": 0.08881565624999865,
          "durationTicks": 27,
          "midi": 79,
          "name": "G5",
          "ticks": 9216,
          "time": 30.315744,
          "velocity": 0.8661417322834646
        },
        {
          "duration": 0.1578944999999976,
          "durationTicks": 48,
          "midi": 75,
          "name": "D#5",
          "ticks": 9264,
          "time": 30.4736385,
          "velocity": 0.8661417322834646
        },
        {
          "duration": 0.0888156562500022,
          "durationTicks": 27,
          "midi": 72,
          "name": "C5",
          "ticks": 9312,
          "time": 30.631532999999997,
          "velocity": 0.8661417322834646
        },
        {
          "duration": 0.10526299999999722,
          "durationTicks": 32,
          "midi": 67,
          "name": "G4",
          "ticks": 9360,
          "time": 30.7894275,
          "velocity": 0.8661417322834646
        },
        {
          "duration": 0.13486821874999677,
          "durationTicks": 41,
          "midi": 67,
          "name": "G4",
          "ticks": 9408,
          "time": 30.947322,
          "velocity": 0.8661417322834646
        },
        {
          "duration": 0.15789450000000116,
          "durationTicks": 48,
          "midi": 63,
          "name": "D#4",
          "ticks": 9456,
          "time": 31.105216499999997,
          "velocity": 0.8661417322834646
        },
        {
          "duration": 0.08881565624999865,
          "durationTicks": 27,
          "midi": 60,
          "name": "C4",
          "ticks": 9504,
          "time": 31.263111,
          "velocity": 0.8661417322834646
        },
        {
          "duration": 0.08881565624999865,
          "durationTicks": 27,
          "midi": 60,
          "name": "C4",
          "ticks": 9552,
          "time": 31.4210055,
          "velocity": 0.8661417322834646
        },
        {
          "duration": 0.0888156562500022,
          "durationTicks": 27,
          "midi": 60,
          "name": "C4",
          "ticks": 9600,
          "time": 31.578899999999997,
          "velocity": 0.8661417322834646
        },
        {
          "duration": 0.15789450000000116,
          "durationTicks": 48,
          "midi": 74,
          "name": "D5",
          "ticks": 9648,
          "time": 31.7367945,
          "velocity": 0.8661417322834646
        },
        {
          "duration": 0.08881565624999865,
          "durationTicks": 27,
          "midi": 89,
          "name": "F6",
          "ticks": 9696,
          "time": 31.894689,
          "velocity": 0.8661417322834646
        },
        {
          "duration": 0.10526300000000077,
          "durationTicks": 32,
          "midi": 86,
          "name": "D6",
          "ticks": 9744,
          "time": 32.0525835,
          "velocity": 0.8661417322834646
        },
        {
          "duration": 0.13486821874999322,
          "durationTicks": 41,
          "midi": 86,
          "name": "D6",
          "ticks": 9792,
          "time": 32.210478,
          "velocity": 0.8661417322834646
        },
        {
          "duration": 0.1578944999999976,
          "durationTicks": 48,
          "midi": 83,
          "name": "B5",
          "ticks": 9840,
          "time": 32.3683725,
          "velocity": 0.8661417322834646
        },
        {
          "duration": 0.08881565624999865,
          "durationTicks": 27,
          "midi": 79,
          "name": "G5",
          "ticks": 9888,
          "time": 32.526267,
          "velocity": 0.8661417322834646
        },
        {
          "duration": 0.10526299999999367,
          "durationTicks": 32,
          "midi": 77,
          "name": "F5",
          "ticks": 9936,
          "time": 32.6841615,
          "velocity": 0.8661417322834646
        },
        {
          "duration": 0.08881565624999865,
          "durationTicks": 27,
          "midi": 77,
          "name": "F5",
          "ticks": 9984,
          "time": 32.842056,
          "velocity": 0.8661417322834646
        },
        {
          "duration": 0.1578945000000047,
          "durationTicks": 48,
          "midi": 74,
          "name": "D5",
          "ticks": 10032,
          "time": 32.9999505,
          "velocity": 0.8661417322834646
        },
        {
          "duration": 0.08881565624999865,
          "durationTicks": 27,
          "midi": 71,
          "name": "B4",
          "ticks": 10080,
          "time": 33.157845,
          "velocity": 0.8661417322834646
        },
        {
          "duration": 0.10526300000000077,
          "durationTicks": 32,
          "midi": 67,
          "name": "G4",
          "ticks": 10128,
          "time": 33.3157395,
          "velocity": 0.8661417322834646
        },
        {
          "duration": 0.13486821875000032,
          "durationTicks": 41,
          "midi": 65,
          "name": "F4",
          "ticks": 10176,
          "time": 33.473634,
          "velocity": 0.8661417322834646
        },
        {
          "duration": 0.1578944999999976,
          "durationTicks": 48,
          "midi": 62,
          "name": "D4",
          "ticks": 10224,
          "time": 33.6315285,
          "velocity": 0.8661417322834646
        },
        {
          "duration": 0.08881565624999865,
          "durationTicks": 27,
          "midi": 59,
          "name": "B3",
          "ticks": 10272,
          "time": 33.789423,
          "velocity": 0.8661417322834646
        },
        {
          "duration": 0.08881565624999865,
          "durationTicks": 27,
          "midi": 55,
          "name": "G3",
          "ticks": 10320,
          "time": 33.9473175,
          "velocity": 0.8661417322834646
        },
        {
          "duration": 0.08881565624999865,
          "durationTicks": 27,
          "midi": 55,
          "name": "G3",
          "ticks": 10368,
          "time": 34.105212,
          "velocity": 0.8661417322834646
        },
        {
          "duration": 0.1578944999999976,
          "durationTicks": 48,
          "midi": 75,
          "name": "D#5",
          "ticks": 10416,
          "time": 34.2631065,
          "velocity": 0.8661417322834646
        },
        {
          "duration": 0.08881565624999865,
          "durationTicks": 27,
          "midi": 87,
          "name": "D#6",
          "ticks": 10464,
          "time": 34.421001,
          "velocity": 0.8661417322834646
        },
        {
          "duration": 0.10526299999999367,
          "durationTicks": 32,
          "midi": 87,
          "name": "D#6",
          "ticks": 10512,
          "time": 34.5788955,
          "velocity": 0.8661417322834646
        },
        {
          "duration": 0.13486821875000032,
          "durationTicks": 41,
          "midi": 87,
          "name": "D#6",
          "ticks": 10560,
          "time": 34.73679,
          "velocity": 0.8661417322834646
        },
        {
          "duration": 0.1578945000000047,
          "durationTicks": 48,
          "midi": 84,
          "name": "C6",
          "ticks": 10608,
          "time": 34.8946845,
          "velocity": 0.8661417322834646
        },
        {
          "duration": 0.08881565624999865,
          "durationTicks": 27,
          "midi": 81,
          "name": "A5",
          "ticks": 10656,
          "time": 35.052579,
          "velocity": 0.8661417322834646
        },
        {
          "duration": 0.10526300000000077,
          "durationTicks": 32,
          "midi": 81,
          "name": "A5",
          "ticks": 10704,
          "time": 35.2104735,
          "velocity": 0.8661417322834646
        },
        {
          "duration": 0.08881565624999865,
          "durationTicks": 27,
          "midi": 81,
          "name": "A5",
          "ticks": 10752,
          "time": 35.368368,
          "velocity": 0.8661417322834646
        },
        {
          "duration": 0.1578944999999976,
          "durationTicks": 48,
          "midi": 78,
          "name": "F#5",
          "ticks": 10800,
          "time": 35.5262625,
          "velocity": 0.8661417322834646
        },
        {
          "duration": 0.08881565624999865,
          "durationTicks": 27,
          "midi": 75,
          "name": "D#5",
          "ticks": 10848,
          "time": 35.684157,
          "velocity": 0.8661417322834646
        },
        {
          "duration": 0.10526300000000077,
          "durationTicks": 32,
          "midi": 72,
          "name": "C5",
          "ticks": 10896,
          "time": 35.8420515,
          "velocity": 0.8661417322834646
        },
        {
          "duration": 0.13486821874999322,
          "durationTicks": 41,
          "midi": 69,
          "name": "A4",
          "ticks": 10944,
          "time": 35.999946,
          "velocity": 0.8661417322834646
        },
        {
          "duration": 0.1578944999999976,
          "durationTicks": 48,
          "midi": 66,
          "name": "F#4",
          "ticks": 10992,
          "time": 36.1578405,
          "velocity": 0.8661417322834646
        },
        {
          "duration": 0.08881565624999865,
          "durationTicks": 27,
          "midi": 63,
          "name": "D#4",
          "ticks": 11040,
          "time": 36.315735,
          "velocity": 0.8661417322834646
        },
        {
          "duration": 0.08881565624999865,
          "durationTicks": 27,
          "midi": 60,
          "name": "C4",
          "ticks": 11088,
          "time": 36.4736295,
          "velocity": 0.8661417322834646
        },
        {
          "duration": 0.08881565624999865,
          "durationTicks": 27,
          "midi": 57,
          "name": "A3",
          "ticks": 11136,
          "time": 36.631524,
          "velocity": 0.8661417322834646
        },
        {
          "duration": 0.08881565624999865,
          "durationTicks": 27,
          "midi": 54,
          "name": "F#3",
          "ticks": 11184,
          "time": 36.7894185,
          "velocity": 0.8661417322834646
        },
        {
          "duration": 0.1578945000000047,
          "durationTicks": 48,
          "midi": 93,
          "name": "A6",
          "ticks": 11184,
          "time": 36.7894185,
          "velocity": 0.5511811023622047
        },
        {
          "duration": 0.08881565624999865,
          "durationTicks": 27,
          "midi": 53,
          "name": "F3",
          "ticks": 11568,
          "time": 38.0525745,
          "velocity": 0.8661417322834646
        },
        {
          "duration": 0.1578944999999976,
          "durationTicks": 48,
          "midi": 94,
          "name": "A#6",
          "ticks": 11568,
          "time": 38.0525745,
          "velocity": 0.5511811023622047
        }
      ]
    },
    {
      "channel": 2,
      "controlChanges": {
        "1": [
          {
            "number": 1,
            "ticks": 48,
            "time": 0.1578945,
            "value": 0
          },
          {
            "number": 1,
            "ticks": 288,
            "time": 0.947367,
            "value": 0.5118110236220472
          },
          {
            "number": 1,
            "ticks": 624,
            "time": 2.0526285,
            "value": 0
          },
          {
            "number": 1,
            "ticks": 1056,
            "time": 3.4736789999999997,
            "value": 0.5118110236220472
          },
          {
            "number": 1,
            "ticks": 1392,
            "time": 4.5789405,
            "value": 0
          },
          {
            "number": 1,
            "ticks": 1632,
            "time": 5.368412999999999,
            "value": 0
          },
          {
            "number": 1,
            "ticks": 10800,
            "time": 35.5262625,
            "value": 0
          },
          {
            "number": 1,
            "ticks": 11760,
            "time": 38.684152499999996,
            "value": 0
          }
        ],
        "6": [
          {
            "number": 6,
            "ticks": 4236,
            "time": 13.934189625,
            "value": 0.09448818897637795
          }
        ],
        "7": [
          {
            "number": 7,
            "ticks": 0,
            "time": 0,
            "value": 1
          },
          {
            "number": 7,
            "ticks": 11952,
            "time": 39.3157305,
            "value": 1
          }
        ],
        "100": [
          {
            "number": 100,
            "ticks": 4224,
            "time": 13.894715999999999,
            "value": 0
          }
        ],
        "101": [
          {
            "number": 101,
            "ticks": 4212,
            "time": 13.855242375,
            "value": 0
          }
        ]
      },
      "pitchBends": [
        {
          "ticks": 4384,
          "time": 14.421031,
          "value": -0.166748046875
        },
        {
          "ticks": 4400,
          "time": 14.4736625,
          "value": -0.4166259765625
        },
        {
          "ticks": 4416,
          "time": 14.526294,
          "value": -0.6666259765625
        },
        {
          "ticks": 4432,
          "time": 14.578925499999999,
          "value": -0.9998779296875
        },
        {
          "ticks": 4608,
          "time": 15.157872,
          "value": 0
        }
      ],
      "instrument": {
        "family": "guitar",
        "number": 30,
        "name": "distortion guitar"
      },
      "name": "GM-2                ",
      "notes": [
        {
          "duration": 0.07894725,
          "durationTicks": 24,
          "midi": 43,
          "name": "G2",
          "ticks": 48,
          "time": 0.1578945,
          "velocity": 1
        },
        {
          "duration": 0.07894725000000002,
          "durationTicks": 24,
          "midi": 43,
          "name": "G2",
          "ticks": 96,
          "time": 0.315789,
          "velocity": 1
        },
        {
          "duration": 0.07894724999999997,
          "durationTicks": 24,
          "midi": 43,
          "name": "G2",
          "ticks": 144,
          "time": 0.4736835,
          "velocity": 1
        },
        {
          "duration": 1.7368395,
          "durationTicks": 528,
          "midi": 39,
          "name": "D#2",
          "ticks": 192,
          "time": 0.631578,
          "velocity": 0.7874015748031497
        },
        {
          "duration": 0.07894725000000014,
          "durationTicks": 24,
          "midi": 41,
          "name": "F2",
          "ticks": 816,
          "time": 2.6842064999999997,
          "velocity": 1
        },
        {
          "duration": 0.07894724999999969,
          "durationTicks": 24,
          "midi": 41,
          "name": "F2",
          "ticks": 864,
          "time": 2.842101,
          "velocity": 1
        },
        {
          "duration": 0.07894725000000014,
          "durationTicks": 24,
          "midi": 41,
          "name": "F2",
          "ticks": 912,
          "time": 2.9999955,
          "velocity": 1
        },
        {
          "duration": 1.7368394999999994,
          "durationTicks": 528,
          "midi": 38,
          "name": "D2",
          "ticks": 960,
          "time": 3.15789,
          "velocity": 0.7874015748031497
        },
        {
          "duration": 0.15789449999999938,
          "durationTicks": 48,
          "midi": 48,
          "name": "C3",
          "ticks": 3888,
          "time": 12.7894545,
          "velocity": 1
        },
        {
          "duration": 0.15789450000000116,
          "durationTicks": 48,
          "midi": 44,
          "name": "G#2",
          "ticks": 4080,
          "time": 13.421032499999999,
          "velocity": 1
        },
        {
          "duration": 0.5789465000000007,
          "durationTicks": 176,
          "midi": 43,
          "name": "G2",
          "ticks": 4272,
          "time": 14.0526105,
          "velocity": 1
        },
        {
          "duration": 0.05263149999999861,
          "durationTicks": 16,
          "midi": 38,
          "name": "D2",
          "ticks": 4448,
          "time": 14.631557,
          "velocity": 1
        },
        {
          "duration": 0.05263149999999861,
          "durationTicks": 16,
          "midi": 35,
          "name": "B1",
          "ticks": 4464,
          "time": 14.6841885,
          "velocity": 1
        },
        {
          "duration": 2.526312000000001,
          "durationTicks": 768,
          "midi": 36,
          "name": "C2",
          "ticks": 8880,
          "time": 29.210482499999998,
          "velocity": 0.7086614173228346
        },
        {
          "duration": 0.15789450000000116,
          "durationTicks": 48,
          "midi": 72,
          "name": "C5",
          "ticks": 8880,
          "time": 29.210482499999998,
          "velocity": 0.8661417322834646
        },
        {
          "duration": 2.526312000000001,
          "durationTicks": 768,
          "midi": 31,
          "name": "G1",
          "ticks": 9648,
          "time": 31.7367945,
          "velocity": 0.7086614173228346
        },
        {
          "duration": 2.5263119999999972,
          "durationTicks": 768,
          "midi": 30,
          "name": "F#1",
          "ticks": 10416,
          "time": 34.2631065,
          "velocity": 0.7086614173228346
        },
        {
          "duration": 0.21052600000000155,
          "durationTicks": 64,
          "midi": 45,
          "name": "A2",
          "ticks": 11184,
          "time": 36.7894185,
          "velocity": 0.7874015748031497
        },
        {
          "duration": 0.21052600000000155,
          "durationTicks": 64,
          "midi": 36,
          "name": "C2",
          "ticks": 11184,
          "time": 36.7894185,
          "velocity": 0.7874015748031497
        },
        {
          "duration": 0.21052600000000155,
          "durationTicks": 64,
          "midi": 46,
          "name": "A#2",
          "ticks": 11568,
          "time": 38.0525745,
          "velocity": 0.7874015748031497
        },
        {
          "duration": 0.21052600000000155,
          "durationTicks": 64,
          "midi": 38,
          "name": "D2",
          "ticks": 11568,
          "time": 38.0525745,
          "velocity": 0.7874015748031497
        },
        {
          "duration": 0.0789472499999988,
          "durationTicks": 24,
          "midi": 46,
          "name": "A#2",
          "ticks": 11808,
          "time": 38.842047,
          "velocity": 1
        },
        {
          "duration": 0.0789472499999988,
          "durationTicks": 24,
          "midi": 46,
          "name": "A#2",
          "ticks": 11856,
          "time": 38.9999415,
          "velocity": 1
        },
        {
          "duration": 0.0789472499999988,
          "durationTicks": 24,
          "midi": 46,
          "name": "A#2",
          "ticks": 11904,
          "time": 39.157835999999996,
          "velocity": 1
        },
        {
          "duration": 0.6315779999999975,
          "durationTicks": 192,
          "midi": 39,
          "name": "D#2",
          "ticks": 11952,
          "time": 39.3157305,
          "velocity": 0.7874015748031497
        },
        {
          "duration": 0.6315779999999975,
          "durationTicks": 192,
          "midi": 41,
          "name": "F2",
          "ticks": 12144,
          "time": 39.9473085,
          "velocity": 0.7874015748031497
        },
        {
          "duration": 1.2631560000000022,
          "durationTicks": 384,
          "midi": 34,
          "name": "A#1",
          "ticks": 12336,
          "time": 40.578886499999996,
          "velocity": 0.7874015748031497
        }
      ],
      "endOfTrackTicks": 12720
    },
    {
      "channel": 2,
      "controlChanges": {
        "1": [
          {
            "number": 1,
            "ticks": 2064,
            "time": 6.7894635,
            "value": 0.5118110236220472
          },
          {
            "number": 1,
            "ticks": 2496,
            "time": 8.210514,
            "value": 0
          },
          {
            "number": 1,
            "ticks": 2832,
            "time": 9.315775499999999,
            "value": 0.5118110236220472
          },
          {
            "number": 1,
            "ticks": 3840,
            "time": 12.63156,
            "value": 0
          },
          {
            "number": 1,
            "ticks": 5568,
            "time": 18.315762,
            "value": 0
          },
          {
            "number": 1,
            "ticks": 5904,
            "time": 19.4210235,
            "value": 0.5118110236220472
          },
          {
            "number": 1,
            "ticks": 6336,
            "time": 20.842074,
            "value": 0
          },
          {
            "number": 1,
            "ticks": 6672,
            "time": 21.947335499999998,
            "value": 0.5118110236220472
          }
        ]
      },
      "pitchBends": [],
      "instrument": {
        "family": "guitar",
        "number": 26,
        "name": "electric guitar (jazz)"
      },
      "name": "",
      "notes": [
        {
          "duration": 0.06907884374999984,
          "durationTicks": 21,
          "midi": 75,
          "name": "D#5",
          "ticks": 1824,
          "time": 5.999991,
          "velocity": 0.8661417322834646
        },
        {
          "duration": 0.09210512499999979,
          "durationTicks": 28,
          "midi": 75,
          "name": "D#5",
          "ticks": 1872,
          "time": 6.1578855,
          "velocity": 0.905511811023622
        },
        {
          "duration": 0.16118396874999963,
          "durationTicks": 49,
          "midi": 75,
          "name": "D#5",
          "ticks": 1920,
          "time": 6.31578,
          "velocity": 0.9448818897637795
        },
        {
          "duration": 0.8486829375000005,
          "durationTicks": 258,
          "midi": 72,
          "name": "C5",
          "ticks": 1968,
          "time": 6.4736744999999996,
          "velocity": 1
        },
        {
          "duration": 0.08223671874999994,
          "durationTicks": 25,
          "midi": 77,
          "name": "F5",
          "ticks": 2592,
          "time": 8.526303,
          "velocity": 0.8661417322834646
        },
        {
          "duration": 0.11184193749999949,
          "durationTicks": 34,
          "midi": 77,
          "name": "F5",
          "ticks": 2640,
          "time": 8.6841975,
          "velocity": 0.905511811023622
        },
        {
          "duration": 0.13486821875000032,
          "durationTicks": 41,
          "midi": 77,
          "name": "F5",
          "ticks": 2688,
          "time": 8.842092,
          "velocity": 0.9448818897637795
        },
        {
          "duration": 0.8486829374999996,
          "durationTicks": 258,
          "midi": 74,
          "name": "D5",
          "ticks": 2736,
          "time": 8.9999865,
          "velocity": 1
        },
        {
          "duration": 0.08223671874999994,
          "durationTicks": 25,
          "midi": 56,
          "name": "G#3",
          "ticks": 5664,
          "time": 18.631550999999998,
          "velocity": 0.8661417322834646
        },
        {
          "duration": 0.11184193749999949,
          "durationTicks": 34,
          "midi": 56,
          "name": "G#3",
          "ticks": 5712,
          "time": 18.7894455,
          "velocity": 0.905511811023622
        },
        {
          "duration": 0.13486821875000032,
          "durationTicks": 41,
          "midi": 56,
          "name": "G#3",
          "ticks": 5760,
          "time": 18.94734,
          "velocity": 0.9448818897637795
        },
        {
          "duration": 0.8486829375000013,
          "durationTicks": 258,
          "midi": 55,
          "name": "G3",
          "ticks": 5808,
          "time": 19.105234499999998,
          "velocity": 1
        },
        {
          "duration": 0.08223671874999994,
          "durationTicks": 25,
          "midi": 56,
          "name": "G#3",
          "ticks": 6432,
          "time": 21.157863,
          "velocity": 0.8661417322834646
        },
        {
          "duration": 0.11184193749999949,
          "durationTicks": 34,
          "midi": 56,
          "name": "G#3",
          "ticks": 6480,
          "time": 21.3157575,
          "velocity": 0.905511811023622
        },
        {
          "duration": 0.13486821875000032,
          "durationTicks": 41,
          "midi": 56,
          "name": "G#3",
          "ticks": 6528,
          "time": 21.473651999999998,
          "velocity": 0.9448818897637795
        }
      ]
    },
    {
      "channel": 2,
      "controlChanges": {
        "1": [
          {
            "number": 1,
            "ticks": 6864,
            "time": 22.5789135,
            "value": 0
          },
          {
            "number": 1,
            "ticks": 7008,
            "time": 23.052597,
            "value": 0.7086614173228346
          },
          {
            "number": 1,
            "ticks": 7152,
            "time": 23.5262805,
            "value": 0
          },
          {
            "number": 1,
            "ticks": 7392,
            "time": 24.315752999999997,
            "value": 0.7086614173228346
          },
          {
            "number": 1,
            "ticks": 7536,
            "time": 24.789436499999997,
            "value": 0
          },
          {
            "number": 1,
            "ticks": 7728,
            "time": 25.4210145,
            "value": 0.7086614173228346
          },
          {
            "number": 1,
            "ticks": 7776,
            "time": 25.578909,
            "value": 0
          }
        ]
      },
      "pitchBends": [],
      "instrument": {
        "family": "brass",
        "number": 62,
        "name": "synthbrass 1"
      },
      "name": "",
      "notes": [
        {
          "duration": 0,
          "durationTicks": 0,
          "midi": 55,
          "name": "G3",
          "ticks": 6816,
          "time": 22.421018999999998,
          "velocity": 0.8661417322834646
        },
        {
          "duration": 0.11184193750000304,
          "durationTicks": 34,
          "midi": 55,
          "name": "G3",
          "ticks": 6864,
          "time": 22.5789135,
          "velocity": 0.8661417322834646
        },
        {
          "duration": 0.11184193749999949,
          "durationTicks": 34,
          "midi": 60,
          "name": "C4",
          "ticks": 6912,
          "time": 22.736808,
          "velocity": 0.8661417322834646
        },
        {
          "duration": 0.6315780000000011,
          "durationTicks": 192,
          "midi": 60,
          "name": "C4",
          "ticks": 6960,
          "time": 22.894702499999998,
          "velocity": 0.8661417322834646
        },
        {
          "duration": 0.15789450000000116,
          "durationTicks": 48,
          "midi": 59,
          "name": "B3",
          "ticks": 7152,
          "time": 23.5262805,
          "velocity": 0.8661417322834646
        },
        {
          "duration": 0.11184193749999949,
          "durationTicks": 34,
          "midi": 59,
          "name": "B3",
          "ticks": 7200,
          "time": 23.684175,
          "velocity": 0.8661417322834646
        },
        {
          "duration": 0.11184193750000304,
          "durationTicks": 34,
          "midi": 59,
          "name": "B3",
          "ticks": 7248,
          "time": 23.842069499999997,
          "velocity": 0.8661417322834646
        },
        {
          "duration": 0.11184193750000304,
          "durationTicks": 34,
          "midi": 62,
          "name": "D4",
          "ticks": 7296,
          "time": 23.999964,
          "velocity": 0.8661417322834646
        },
        {
          "duration": 0.6315779999999975,
          "durationTicks": 192,
          "midi": 62,
          "name": "D4",
          "ticks": 7344,
          "time": 24.1578585,
          "velocity": 0.8661417322834646
        },
        {
          "duration": 0.15789450000000116,
          "durationTicks": 48,
          "midi": 60,
          "name": "C4",
          "ticks": 7536,
          "time": 24.789436499999997,
          "velocity": 0.8661417322834646
        },
        {
          "duration": 0.11184193750000304,
          "durationTicks": 34,
          "midi": 60,
          "name": "C4",
          "ticks": 7584,
          "time": 24.947331,
          "velocity": 0.8661417322834646
        },
        {
          "duration": 0.11184193749999949,
          "durationTicks": 34,
          "midi": 60,
          "name": "C4",
          "ticks": 7632,
          "time": 25.1052255,
          "velocity": 0.8661417322834646
        },
        {
          "duration": 0.11184193749999949,
          "durationTicks": 34,
          "midi": 63,
          "name": "D#4",
          "ticks": 7680,
          "time": 25.26312,
          "velocity": 0.8661417322834646
        },
        {
          "duration": 0.15789450000000116,
          "durationTicks": 48,
          "midi": 63,
          "name": "D#4",
          "ticks": 7728,
          "time": 25.4210145,
          "velocity": 0.8661417322834646
        },
        {
          "duration": 0.052631500000000386,
          "durationTicks": 16,
          "midi": 62,
          "name": "D4",
          "ticks": 7776,
          "time": 25.578909,
          "velocity": 0.8661417322834646
        },
        {
          "duration": 0.1578944999999976,
          "durationTicks": 48,
          "midi": 62,
          "name": "D4",
          "ticks": 7824,
          "time": 25.7368035,
          "velocity": 0.8661417322834646
        },
        {
          "duration": 0.11184193750000304,
          "durationTicks": 34,
          "midi": 65,
          "name": "F4",
          "ticks": 7872,
          "time": 25.894697999999998,
          "velocity": 0.8661417322834646
        },
        {
          "duration": 0.15789450000000116,
          "durationTicks": 48,
          "midi": 65,
          "name": "F4",
          "ticks": 7920,
          "time": 26.0525925,
          "velocity": 0.8661417322834646
        },
        {
          "duration": 0.052631500000000386,
          "durationTicks": 16,
          "midi": 64,
          "name": "E4",
          "ticks": 7968,
          "time": 26.210487,
          "velocity": 0.8661417322834646
        },
        {
          "duration": 0.15789450000000116,
          "durationTicks": 48,
          "midi": 64,
          "name": "E4",
          "ticks": 8016,
          "time": 26.368381499999998,
          "velocity": 0.8661417322834646
        },
        {
          "duration": 0.11184193749999949,
          "durationTicks": 34,
          "midi": 67,
          "name": "G4",
          "ticks": 8064,
          "time": 26.526276,
          "velocity": 0.8661417322834646
        },
        {
          "duration": 0.1578944999999976,
          "durationTicks": 48,
          "midi": 67,
          "name": "G4",
          "ticks": 8112,
          "time": 26.6841705,
          "velocity": 0.8661417322834646
        },
        {
          "duration": 0.05263150000000394,
          "durationTicks": 16,
          "midi": 65,
          "name": "F4",
          "ticks": 8160,
          "time": 26.842064999999998,
          "velocity": 0.8661417322834646
        },
        {
          "duration": 0.15789450000000116,
          "durationTicks": 48,
          "midi": 65,
          "name": "F4",
          "ticks": 8208,
          "time": 26.9999595,
          "velocity": 0.8661417322834646
        },
        {
          "duration": 0.11184193749999949,
          "durationTicks": 34,
          "midi": 68,
          "name": "G#4",
          "ticks": 8256,
          "time": 27.157854,
          "velocity": 0.8661417322834646
        },
        {
          "duration": 0.15789450000000116,
          "durationTicks": 48,
          "midi": 68,
          "name": "G#4",
          "ticks": 8304,
          "time": 27.315748499999998,
          "velocity": 0.8661417322834646
        },
        {
          "duration": 0.052631500000000386,
          "durationTicks": 16,
          "midi": 67,
          "name": "G4",
          "ticks": 8352,
          "time": 27.473643,
          "velocity": 0.8661417322834646
        },
        {
          "duration": 0.1578944999999976,
          "durationTicks": 48,
          "midi": 67,
          "name": "G4",
          "ticks": 8400,
          "time": 27.6315375,
          "velocity": 0.8661417322834646
        },
        {
          "duration": 0.11184193750000304,
          "durationTicks": 34,
          "midi": 70,
          "name": "A#4",
          "ticks": 8448,
          "time": 27.789431999999998,
          "velocity": 0.8661417322834646
        },
        {
          "duration": 0.15789450000000116,
          "durationTicks": 48,
          "midi": 70,
          "name": "A#4",
          "ticks": 8496,
          "time": 27.9473265,
          "velocity": 0.8661417322834646
        },
        {
          "duration": 0.052631500000000386,
          "durationTicks": 16,
          "midi": 68,
          "name": "G#4",
          "ticks": 8544,
          "time": 28.105221,
          "velocity": 0.8661417322834646
        },
        {
          "duration": 0.15789450000000116,
          "durationTicks": 48,
          "midi": 68,
          "name": "G#4",
          "ticks": 8592,
          "time": 28.263115499999998,
          "velocity": 0.8661417322834646
        },
        {
          "duration": 0.11184193750000304,
          "durationTicks": 34,
          "midi": 72,
          "name": "C5",
          "ticks": 8640,
          "time": 28.42101,
          "velocity": 0.8661417322834646
        },
        {
          "duration": 0.1578944999999976,
          "durationTicks": 48,
          "midi": 72,
          "name": "C5",
          "ticks": 8688,
          "time": 28.5789045,
          "velocity": 0.8661417322834646
        },
        {
          "duration": 0.05263150000000394,
          "durationTicks": 16,
          "midi": 71,
          "name": "B4",
          "ticks": 8736,
          "time": 28.736798999999998,
          "velocity": 0.8661417322834646
        },
        {
          "duration": 0.15789450000000116,
          "durationTicks": 48,
          "midi": 71,
          "name": "B4",
          "ticks": 8784,
          "time": 28.8946935,
          "velocity": 0.8661417322834646
        },
        {
          "duration": 0.11184193749999949,
          "durationTicks": 34,
          "midi": 74,
          "name": "D5",
          "ticks": 8832,
          "time": 29.052588,
          "velocity": 0.8661417322834646
        }
      ]
    },
    {
      "channel": 3,
      "controlChanges": {
        "7": [
          {
            "number": 7,
            "ticks": 50,
            "time": 0.1644734375,
            "value": 1
          },
          {
            "number": 7,
            "ticks": 6962,
            "time": 22.901281437499996,
            "value": 1
          }
        ]
      },
      "pitchBends": [],
      "instrument": {
        "family": "bass",
        "number": 38,
        "name": "synth bass 1"
      },
      "name": "Bass                ",
      "notes": [
        {
          "duration": 0.15131556249999997,
          "durationTicks": 46,
          "midi": 43,
          "name": "G2",
          "ticks": 50,
          "time": 0.1644734375,
          "velocity": 0.8267716535433071
        },
        {
          "duration": 0.105263,
          "durationTicks": 32,
          "midi": 43,
          "name": "G2",
          "ticks": 96,
          "time": 0.315789,
          "velocity": 0.8661417322834646
        },
        {
          "duration": 0.10526299999999994,
          "durationTicks": 32,
          "midi": 43,
          "name": "G2",
          "ticks": 144,
          "time": 0.4736835,
          "velocity": 0.8661417322834646
        },
        {
          "duration": 0.6546042812500001,
          "durationTicks": 199,
          "midi": 39,
          "name": "D#2",
          "ticks": 192,
          "time": 0.631578,
          "velocity": 0.8267716535433071
        },
        {
          "duration": 0.09539459374999981,
          "durationTicks": 29,
          "midi": 39,
          "name": "D#2",
          "ticks": 391,
          "time": 1.2861822812500001,
          "velocity": 0.7952755905511811
        },
        {
          "duration": 0.17434184374999995,
          "durationTicks": 53,
          "midi": 39,
          "name": "D#2",
          "ticks": 433,
          "time": 1.42433996875,
          "velocity": 0.8110236220472441
        },
        {
          "duration": 0.09539459375000003,
          "durationTicks": 29,
          "midi": 39,
          "name": "D#2",
          "ticks": 584,
          "time": 1.92104975,
          "velocity": 0.7952755905511811
        },
        {
          "duration": 0.06249990624999979,
          "durationTicks": 19,
          "midi": 39,
          "name": "D#2",
          "ticks": 776,
          "time": 2.55262775,
          "velocity": 0.8110236220472441
        },
        {
          "duration": 0.15131556250000067,
          "durationTicks": 46,
          "midi": 41,
          "name": "F2",
          "ticks": 817,
          "time": 2.6874959687499995,
          "velocity": 0.8346456692913385
        },
        {
          "duration": 0.15131556249999978,
          "durationTicks": 46,
          "midi": 41,
          "name": "F2",
          "ticks": 864,
          "time": 2.842101,
          "velocity": 0.8346456692913385
        },
        {
          "duration": 0.15131556249999978,
          "durationTicks": 46,
          "midi": 41,
          "name": "F2",
          "ticks": 912,
          "time": 2.9999955,
          "velocity": 0.8346456692913385
        },
        {
          "duration": 0.6315779999999998,
          "durationTicks": 192,
          "midi": 38,
          "name": "D2",
          "ticks": 960,
          "time": 3.15789,
          "velocity": 0.8346456692913385
        },
        {
          "duration": 0.09868406249999984,
          "durationTicks": 30,
          "midi": 36,
          "name": "C2",
          "ticks": 1159,
          "time": 3.81249428125,
          "velocity": 0.8503937007874016
        },
        {
          "duration": 0.15460503125000047,
          "durationTicks": 47,
          "midi": 38,
          "name": "D2",
          "ticks": 1201,
          "time": 3.9506519687499995,
          "velocity": 0.7480314960629921
        },
        {
          "duration": 0.09868406249999939,
          "durationTicks": 30,
          "midi": 38,
          "name": "D2",
          "ticks": 1255,
          "time": 4.12828328125,
          "velocity": 0.8503937007874016
        },
        {
          "duration": 0.09868406250000028,
          "durationTicks": 30,
          "midi": 38,
          "name": "D2",
          "ticks": 1351,
          "time": 4.4440722812499995,
          "velocity": 0.8503937007874016
        },
        {
          "duration": 0.12499981250000047,
          "durationTicks": 38,
          "midi": 41,
          "name": "F2",
          "ticks": 1393,
          "time": 4.582229968749999,
          "velocity": 0.7874015748031497
        },
        {
          "duration": 0.13486821875000032,
          "durationTicks": 41,
          "midi": 43,
          "name": "G2",
          "ticks": 1447,
          "time": 4.759861281249999,
          "velocity": 0.7952755905511811
        },
        {
          "duration": 0.08552618750000018,
          "durationTicks": 26,
          "midi": 43,
          "name": "G2",
          "ticks": 1543,
          "time": 5.07565028125,
          "velocity": 0.7874015748031497
        },
        {
          "duration": 0.4802624375000004,
          "durationTicks": 146,
          "midi": 36,
          "name": "C2",
          "ticks": 1586,
          "time": 5.2170974375,
          "velocity": 0.8267716535433071
        },
        {
          "duration": 0.09868406250000028,
          "durationTicks": 30,
          "midi": 34,
          "name": "A#1",
          "ticks": 1927,
          "time": 6.33880628125,
          "velocity": 0.7952755905511811
        },
        {
          "duration": 0.17434184374999973,
          "durationTicks": 53,
          "midi": 36,
          "name": "C2",
          "ticks": 1969,
          "time": 6.47696396875,
          "velocity": 0.8110236220472441
        },
        {
          "duration": 0.09539459374999915,
          "durationTicks": 29,
          "midi": 36,
          "name": "C2",
          "ticks": 2119,
          "time": 6.97038428125,
          "velocity": 0.7952755905511811
        },
        {
          "duration": 0.06578937500000048,
          "durationTicks": 20,
          "midi": 34,
          "name": "A#1",
          "ticks": 2311,
          "time": 7.60196228125,
          "velocity": 0.8110236220472441
        },
        {
          "duration": 0.1513155624999989,
          "durationTicks": 46,
          "midi": 35,
          "name": "B1",
          "ticks": 2353,
          "time": 7.74011996875,
          "velocity": 0.8346456692913385
        },
        {
          "duration": 0.09868406250000028,
          "durationTicks": 30,
          "midi": 34,
          "name": "A#1",
          "ticks": 2695,
          "time": 8.86511828125,
          "velocity": 0.8503937007874016
        },
        {
          "duration": 0.15460503125000002,
          "durationTicks": 47,
          "midi": 35,
          "name": "B1",
          "ticks": 2737,
          "time": 9.00327596875,
          "velocity": 0.7480314960629921
        },
        {
          "duration": 0.09868406250000028,
          "durationTicks": 30,
          "midi": 35,
          "name": "B1",
          "ticks": 2791,
          "time": 9.18090728125,
          "velocity": 0.8503937007874016
        },
        {
          "duration": 0.09868406250000028,
          "durationTicks": 30,
          "midi": 35,
          "name": "B1",
          "ticks": 2887,
          "time": 9.49669628125,
          "velocity": 0.8503937007874016
        },
        {
          "duration": 0.12828928124999983,
          "durationTicks": 39,
          "midi": 43,
          "name": "G2",
          "ticks": 2929,
          "time": 9.63485396875,
          "velocity": 0.7874015748031497
        },
        {
          "duration": 0.13486821875000032,
          "durationTicks": 41,
          "midi": 38,
          "name": "D2",
          "ticks": 2983,
          "time": 9.81248528125,
          "velocity": 0.7952755905511811
        },
        {
          "duration": 0.08552618750000107,
          "durationTicks": 26,
          "midi": 35,
          "name": "B1",
          "ticks": 3079,
          "time": 10.128274281249999,
          "velocity": 0.7874015748031497
        },
        {
          "duration": 0.48026243749999864,
          "durationTicks": 146,
          "midi": 36,
          "name": "C2",
          "ticks": 3122,
          "time": 10.2697214375,
          "velocity": 0.8267716535433071
        },
        {
          "duration": 0.4802624375000004,
          "durationTicks": 146,
          "midi": 35,
          "name": "B1",
          "ticks": 3312,
          "time": 10.8947205,
          "velocity": 0.8267716535433071
        },
        {
          "duration": 0.09539459375000092,
          "durationTicks": 29,
          "midi": 31,
          "name": "G1",
          "ticks": 3463,
          "time": 11.391430281249999,
          "velocity": 0.7952755905511811
        },
        {
          "duration": 0.1743418437500015,
          "durationTicks": 53,
          "midi": 36,
          "name": "C2",
          "ticks": 3505,
          "time": 11.529587968749999,
          "velocity": 0.8110236220472441
        },
        {
          "duration": 0.09210512499999979,
          "durationTicks": 28,
          "midi": 36,
          "name": "C2",
          "ticks": 3656,
          "time": 12.02629775,
          "velocity": 0.7952755905511811
        },
        {
          "duration": 0.4802624375000022,
          "durationTicks": 146,
          "midi": 35,
          "name": "B1",
          "ticks": 3696,
          "time": 12.157876499999999,
          "velocity": 0.8267716535433071
        },
        {
          "duration": 0.06249990624999846,
          "durationTicks": 19,
          "midi": 31,
          "name": "G1",
          "ticks": 3848,
          "time": 12.65787575,
          "velocity": 0.8110236220472441
        },
        {
          "duration": 0.15131556250000067,
          "durationTicks": 46,
          "midi": 36,
          "name": "C2",
          "ticks": 3889,
          "time": 12.792743968749999,
          "velocity": 0.8346456692913385
        },
        {
          "duration": 0.4802624375000004,
          "durationTicks": 146,
          "midi": 32,
          "name": "G#1",
          "ticks": 4080,
          "time": 13.421032499999999,
          "velocity": 0.8267716535433071
        },
        {
          "duration": 0.09868406250000028,
          "durationTicks": 30,
          "midi": 30,
          "name": "F#1",
          "ticks": 4231,
          "time": 13.917742281249998,
          "velocity": 0.8503937007874016
        },
        {
          "duration": 0.31578899999999877,
          "durationTicks": 96,
          "midi": 31,
          "name": "G1",
          "ticks": 4272,
          "time": 14.0526105,
          "velocity": 0.7480314960629921
        },
        {
          "duration": 0.09868406250000028,
          "durationTicks": 30,
          "midi": 31,
          "name": "G1",
          "ticks": 4423,
          "time": 14.549320281249999,
          "velocity": 0.8503937007874016
        },
        {
          "duration": 0.12499981250000047,
          "durationTicks": 38,
          "midi": 43,
          "name": "G2",
          "ticks": 4465,
          "time": 14.687477968749999,
          "velocity": 0.7874015748031497
        },
        {
          "duration": 0.1348682187500021,
          "durationTicks": 41,
          "midi": 38,
          "name": "D2",
          "ticks": 4519,
          "time": 14.865109281249998,
          "velocity": 0.7952755905511811
        },
        {
          "duration": 0.08552618750000107,
          "durationTicks": 26,
          "midi": 32,
          "name": "G#1",
          "ticks": 4615,
          "time": 15.180898281249998,
          "velocity": 0.7874015748031497
        },
        {
          "duration": 0.48026243749999864,
          "durationTicks": 146,
          "midi": 29,
          "name": "F1",
          "ticks": 4658,
          "time": 15.3223454375,
          "velocity": 0.8267716535433071
        },
        {
          "duration": 0.09539459374999737,
          "durationTicks": 29,
          "midi": 27,
          "name": "D#1",
          "ticks": 5000,
          "time": 16.44734375,
          "velocity": 0.7952755905511811
        },
        {
          "duration": 0.17434184374999973,
          "durationTicks": 53,
          "midi": 29,
          "name": "F1",
          "ticks": 5041,
          "time": 16.58221196875,
          "velocity": 0.8110236220472441
        },
        {
          "duration": 0.09539459375000092,
          "durationTicks": 29,
          "midi": 29,
          "name": "F1",
          "ticks": 5191,
          "time": 17.075632281249998,
          "velocity": 0.7952755905511811
        },
        {
          "duration": 0.06578937500000137,
          "durationTicks": 20,
          "midi": 27,
          "name": "D#1",
          "ticks": 5383,
          "time": 17.70721028125,
          "velocity": 0.8110236220472441
        },
        {
          "duration": 0.15131556250000244,
          "durationTicks": 46,
          "midi": 31,
          "name": "G1",
          "ticks": 5425,
          "time": 17.845367968749997,
          "velocity": 0.8346456692913385
        },
        {
          "duration": 0.09868406250000206,
          "durationTicks": 30,
          "midi": 29,
          "name": "F1",
          "ticks": 5767,
          "time": 18.970366281249998,
          "velocity": 0.8503937007874016
        },
        {
          "duration": 0.15460503125000002,
          "durationTicks": 47,
          "midi": 31,
          "name": "G1",
          "ticks": 5809,
          "time": 19.10852396875,
          "velocity": 0.7480314960629921
        },
        {
          "duration": 0.0986840624999985,
          "durationTicks": 30,
          "midi": 26,
          "name": "D1",
          "ticks": 5863,
          "time": 19.28615528125,
          "velocity": 0.8503937007874016
        },
        {
          "duration": 0.0986840624999985,
          "durationTicks": 30,
          "midi": 31,
          "name": "G1",
          "ticks": 5959,
          "time": 19.60194428125,
          "velocity": 0.8503937007874016
        },
        {
          "duration": 0.1282892812500016,
          "durationTicks": 39,
          "midi": 36,
          "name": "C2",
          "ticks": 6001,
          "time": 19.740101968749997,
          "velocity": 0.7874015748031497
        },
        {
          "duration": 0.13486821875000032,
          "durationTicks": 41,
          "midi": 24,
          "name": "C1",
          "ticks": 6055,
          "time": 19.917733281249998,
          "velocity": 0.7952755905511811
        },
        {
          "duration": 0.08552618749999752,
          "durationTicks": 26,
          "midi": 29,
          "name": "F1",
          "ticks": 6151,
          "time": 20.23352228125,
          "velocity": 0.7874015748031497
        },
        {
          "duration": 0.15131556249999534,
          "durationTicks": 46,
          "midi": 31,
          "name": "G1",
          "ticks": 6193,
          "time": 20.37167996875,
          "velocity": 0.8346456692913385
        },
        {
          "duration": 0.0986840624999985,
          "durationTicks": 30,
          "midi": 29,
          "name": "F1",
          "ticks": 6535,
          "time": 21.496678281250002,
          "velocity": 0.8503937007874016
        },
        {
          "duration": 0.15460503125000002,
          "durationTicks": 47,
          "midi": 31,
          "name": "G1",
          "ticks": 6577,
          "time": 21.63483596875,
          "velocity": 0.7480314960629921
        },
        {
          "duration": 0.0986840624999985,
          "durationTicks": 30,
          "midi": 26,
          "name": "D1",
          "ticks": 6631,
          "time": 21.81246728125,
          "velocity": 0.8503937007874016
        },
        {
          "duration": 0.09868406250000206,
          "durationTicks": 30,
          "midi": 31,
          "name": "G1",
          "ticks": 6727,
          "time": 22.12825628125,
          "velocity": 0.8503937007874016
        },
        {
          "duration": 0.12828928124999806,
          "durationTicks": 39,
          "midi": 36,
          "name": "C2",
          "ticks": 6769,
          "time": 22.26641396875,
          "velocity": 0.7874015748031497
        },
        {
          "duration": 0.13486821874999677,
          "durationTicks": 41,
          "midi": 24,
          "name": "C1",
          "ticks": 6823,
          "time": 22.444045281250002,
          "velocity": 0.7952755905511811
        },
        {
          "duration": 0.08552618749999752,
          "durationTicks": 26,
          "midi": 29,
          "name": "F1",
          "ticks": 6919,
          "time": 22.75983428125,
          "velocity": 0.7874015748031497
        },
        {
          "duration": 0.48026243750000575,
          "durationTicks": 146,
          "midi": 36,
          "name": "C2",
          "ticks": 6962,
          "time": 22.901281437499996,
          "velocity": 0.8267716535433071
        },
        {
          "duration": 0.09539459375000092,
          "durationTicks": 29,
          "midi": 31,
          "name": "G1",
          "ticks": 7303,
          "time": 24.02299028125,
          "velocity": 0.7952755905511811
        },
        {
          "duration": 0.17434184374999973,
          "durationTicks": 53,
          "midi": 36,
          "name": "C2",
          "ticks": 7345,
          "time": 24.16114796875,
          "velocity": 0.8110236220472441
        },
        {
          "duration": 0.09539459375000092,
          "durationTicks": 29,
          "midi": 36,
          "name": "C2",
          "ticks": 7496,
          "time": 24.657857749999998,
          "velocity": 0.7952755905511811
        },
        {
          "duration": 0.06249990625000024,
          "durationTicks": 19,
          "midi": 34,
          "name": "A#1",
          "ticks": 7688,
          "time": 25.28943575,
          "velocity": 0.8110236220472441
        },
        {
          "duration": 0.1513155624999989,
          "durationTicks": 46,
          "midi": 36,
          "name": "C2",
          "ticks": 7729,
          "time": 25.42430396875,
          "velocity": 0.8346456692913385
        },
        {
          "duration": 0.0986840624999985,
          "durationTicks": 30,
          "midi": 34,
          "name": "A#1",
          "ticks": 8071,
          "time": 26.54930228125,
          "velocity": 0.8503937007874016
        },
        {
          "duration": 0.15460503124999647,
          "durationTicks": 47,
          "midi": 36,
          "name": "C2",
          "ticks": 8113,
          "time": 26.68745996875,
          "velocity": 0.7480314960629921
        },
        {
          "duration": 0.09868406250000206,
          "durationTicks": 30,
          "midi": 34,
          "name": "A#1",
          "ticks": 8167,
          "time": 26.86509128125,
          "velocity": 0.8503937007874016
        },
        {
          "duration": 0.0986840624999985,
          "durationTicks": 30,
          "midi": 34,
          "name": "A#1",
          "ticks": 8263,
          "time": 27.18088028125,
          "velocity": 0.8503937007874016
        },
        {
          "duration": 0.12499981250000047,
          "durationTicks": 38,
          "midi": 40,
          "name": "E2",
          "ticks": 8305,
          "time": 27.31903796875,
          "velocity": 0.7874015748031497
        },
        {
          "duration": 0.13486821875000032,
          "durationTicks": 41,
          "midi": 40,
          "name": "E2",
          "ticks": 8359,
          "time": 27.49666928125,
          "velocity": 0.7952755905511811
        },
        {
          "duration": 0.08552618750000107,
          "durationTicks": 26,
          "midi": 34,
          "name": "A#1",
          "ticks": 8455,
          "time": 27.81245828125,
          "velocity": 0.7874015748031497
        },
        {
          "duration": 0.31578899999999877,
          "durationTicks": 96,
          "midi": 41,
          "name": "F2",
          "ticks": 8496,
          "time": 27.9473265,
          "velocity": 0.8346456692913385
        },
        {
          "duration": 0.3157890000000023,
          "durationTicks": 96,
          "midi": 36,
          "name": "C2",
          "ticks": 8592,
          "time": 28.263115499999998,
          "velocity": 0.8346456692913385
        },
        {
          "duration": 0.31578899999999877,
          "durationTicks": 96,
          "midi": 35,
          "name": "B1",
          "ticks": 8688,
          "time": 28.5789045,
          "velocity": 0.8346456692913385
        },
        {
          "duration": 0.31578899999999877,
          "durationTicks": 96,
          "midi": 31,
          "name": "G1",
          "ticks": 8784,
          "time": 28.8946935,
          "velocity": 0.8346456692913385
        },
        {
          "duration": 0.4802624375000022,
          "durationTicks": 146,
          "midi": 36,
          "name": "C2",
          "ticks": 8882,
          "time": 29.217061437499996,
          "velocity": 0.8267716535433071
        },
        {
          "duration": 0.09868406250000206,
          "durationTicks": 30,
          "midi": 34,
          "name": "A#1",
          "ticks": 9223,
          "time": 30.33877028125,
          "velocity": 0.7952755905511811
        },
        {
          "duration": 0.17434184374999617,
          "durationTicks": 53,
          "midi": 36,
          "name": "C2",
          "ticks": 9265,
          "time": 30.47692796875,
          "velocity": 0.8110236220472441
        },
        {
          "duration": 0.09539459374999737,
          "durationTicks": 29,
          "midi": 36,
          "name": "C2",
          "ticks": 9415,
          "time": 30.97034828125,
          "velocity": 0.7952755905511811
        },
        {
          "duration": 0.06578937499999782,
          "durationTicks": 20,
          "midi": 29,
          "name": "F1",
          "ticks": 9607,
          "time": 31.60192628125,
          "velocity": 0.8110236220472441
        },
        {
          "duration": 0.1513155624999989,
          "durationTicks": 46,
          "midi": 31,
          "name": "G1",
          "ticks": 9649,
          "time": 31.74008396875,
          "velocity": 0.8346456692913385
        },
        {
          "duration": 0.09868406250000561,
          "durationTicks": 30,
          "midi": 29,
          "name": "F1",
          "ticks": 9991,
          "time": 32.86508228125,
          "velocity": 0.8503937007874016
        },
        {
          "duration": 0.15460503125000002,
          "durationTicks": 47,
          "midi": 31,
          "name": "G1",
          "ticks": 10033,
          "time": 33.00323996875,
          "velocity": 0.7480314960629921
        },
        {
          "duration": 0.0986840624999985,
          "durationTicks": 30,
          "midi": 31,
          "name": "G1",
          "ticks": 10087,
          "time": 33.18087128125,
          "velocity": 0.8503937007874016
        },
        {
          "duration": 0.0986840624999985,
          "durationTicks": 30,
          "midi": 29,
          "name": "F1",
          "ticks": 10183,
          "time": 33.49666028125,
          "velocity": 0.8503937007874016
        },
        {
          "duration": 0.12828928124999806,
          "durationTicks": 39,
          "midi": 31,
          "name": "G1",
          "ticks": 10225,
          "time": 33.63481796875,
          "velocity": 0.7874015748031497
        },
        {
          "duration": 0.13486821875000032,
          "durationTicks": 41,
          "midi": 31,
          "name": "G1",
          "ticks": 10279,
          "time": 33.81244928125,
          "velocity": 0.7952755905511811
        },
        {
          "duration": 0.08552618750000107,
          "durationTicks": 26,
          "midi": 31,
          "name": "G1",
          "ticks": 10375,
          "time": 34.12823828125,
          "velocity": 0.7874015748031497
        },
        {
          "duration": 0.4802624375000022,
          "durationTicks": 146,
          "midi": 30,
          "name": "F#1",
          "ticks": 10418,
          "time": 34.269685437499994,
          "velocity": 0.8267716535433071
        },
        {
          "duration": 0.09539459375000092,
          "durationTicks": 29,
          "midi": 28,
          "name": "E1",
          "ticks": 10759,
          "time": 35.39139428125,
          "velocity": 0.7952755905511811
        },
        {
          "duration": 0.17434184374999973,
          "durationTicks": 53,
          "midi": 30,
          "name": "F#1",
          "ticks": 10801,
          "time": 35.52955196875,
          "velocity": 0.8110236220472441
        },
        {
          "duration": 0.09210512500000334,
          "durationTicks": 28,
          "midi": 30,
          "name": "F#1",
          "ticks": 10952,
          "time": 36.026261749999996,
          "velocity": 0.7952755905511811
        },
        {
          "duration": 0.06249990625000379,
          "durationTicks": 19,
          "midi": 30,
          "name": "F#1",
          "ticks": 11040,
          "time": 36.315735,
          "velocity": 0.8110236220472441
        },
        {
          "duration": 0.062499906249996684,
          "durationTicks": 19,
          "midi": 33,
          "name": "A1",
          "ticks": 11088,
          "time": 36.4736295,
          "velocity": 0.8110236220472441
        },
        {
          "duration": 0.06249990625000379,
          "durationTicks": 19,
          "midi": 36,
          "name": "C2",
          "ticks": 11136,
          "time": 36.631524,
          "velocity": 0.8110236220472441
        },
        {
          "duration": 0.17434184374999973,
          "durationTicks": 53,
          "midi": 39,
          "name": "D#2",
          "ticks": 11184,
          "time": 36.7894185,
          "velocity": 0.8110236220472441
        },
        {
          "duration": 0.17434184374999973,
          "durationTicks": 53,
          "midi": 38,
          "name": "D2",
          "ticks": 11568,
          "time": 38.0525745,
          "velocity": 0.8110236220472441
        },
        {
          "duration": 0.15131556250000244,
          "durationTicks": 46,
          "midi": 46,
          "name": "A#2",
          "ticks": 11808,
          "time": 38.842047,
          "velocity": 0.8267716535433071
        },
        {
          "duration": 0.10526300000000077,
          "durationTicks": 32,
          "midi": 46,
          "name": "A#2",
          "ticks": 11856,
          "time": 38.9999415,
          "velocity": 0.8661417322834646
        },
        {
          "duration": 0.10526300000000077,
          "durationTicks": 32,
          "midi": 46,
          "name": "A#2",
          "ticks": 11904,
          "time": 39.157835999999996,
          "velocity": 0.8661417322834646
        },
        {
          "duration": 0.6546042812500019,
          "durationTicks": 199,
          "midi": 39,
          "name": "D#2",
          "ticks": 11952,
          "time": 39.3157305,
          "velocity": 0.8267716535433071
        },
        {
          "duration": 0.6546042812499948,
          "durationTicks": 199,
          "midi": 41,
          "name": "F2",
          "ticks": 12144,
          "time": 39.9473085,
          "velocity": 0.8267716535433071
        },
        {
          "duration": 1.2631560000000022,
          "durationTicks": 384,
          "midi": 34,
          "name": "A#1",
          "ticks": 12336,
          "time": 40.578886499999996,
          "velocity": 0.8267716535433071
        }
      ],
      "endOfTrackTicks": 12720
    },
    {
      "channel": 4,
      "controlChanges": {
        "7": [
          {
            "number": 7,
            "ticks": 53,
            "time": 0.17434184375,
            "value": 1
          }
        ]
      },
      "pitchBends": [],
      "instrument": {
        "family": "piano",
        "number": 7,
        "name": "clavi"
      },
      "name": "Clavinett           ",
      "notes": [
        {
          "duration": 0.05921043749999999,
          "durationTicks": 18,
          "midi": 55,
          "name": "G3",
          "ticks": 53,
          "time": 0.17434184375,
          "velocity": 0.5196850393700787
        },
        {
          "duration": 0.03947362500000001,
          "durationTicks": 12,
          "midi": 43,
          "name": "G2",
          "ticks": 105,
          "time": 0.34539421875,
          "velocity": 0.7559055118110236
        },
        {
          "duration": 0.009868406250000072,
          "durationTicks": 3,
          "midi": 55,
          "name": "G3",
          "ticks": 150,
          "time": 0.49342031249999996,
          "velocity": 0.49606299212598426
        },
        {
          "duration": 0.07236831250000009,
          "durationTicks": 22,
          "midi": 51,
          "name": "D#3",
          "ticks": 202,
          "time": 0.6644726874999999,
          "velocity": 0.7559055118110236
        },
        {
          "duration": 0.0427630937500002,
          "durationTicks": 13,
          "midi": 39,
          "name": "D#2",
          "ticks": 295,
          "time": 0.9703932812499999,
          "velocity": 0.5905511811023622
        },
        {
          "duration": 0.05263149999999994,
          "durationTicks": 16,
          "midi": 51,
          "name": "D#3",
          "ticks": 336,
          "time": 1.1052615,
          "velocity": 0.6377952755905512
        },
        {
          "duration": 0.03947362500000007,
          "durationTicks": 12,
          "midi": 39,
          "name": "D#2",
          "ticks": 394,
          "time": 1.2960506875,
          "velocity": 0.3937007874015748
        },
        {
          "duration": 0.06907884374999984,
          "durationTicks": 21,
          "midi": 51,
          "name": "D#3",
          "ticks": 436,
          "time": 1.434208375,
          "velocity": 0.7165354330708661
        },
        {
          "duration": 0.036184156250000044,
          "durationTicks": 11,
          "midi": 39,
          "name": "D#2",
          "ticks": 530,
          "time": 1.7434184375,
          "velocity": 0.47244094488188976
        },
        {
          "duration": 0.08881565624999999,
          "durationTicks": 27,
          "midi": 46,
          "name": "A#2",
          "ticks": 584,
          "time": 1.92104975,
          "velocity": 0.7874015748031497
        },
        {
          "duration": 0.039473624999999846,
          "durationTicks": 12,
          "midi": 53,
          "name": "F3",
          "ticks": 821,
          "time": 2.70065384375,
          "velocity": 0.5590551181102362
        },
        {
          "duration": 0.05592096875000019,
          "durationTicks": 17,
          "midi": 41,
          "name": "F2",
          "ticks": 873,
          "time": 2.87170621875,
          "velocity": 0.7322834645669292
        },
        {
          "duration": 0.00986840624999985,
          "durationTicks": 3,
          "midi": 53,
          "name": "F3",
          "ticks": 918,
          "time": 3.0197323125,
          "velocity": 0.49606299212598426
        },
        {
          "duration": 0.05921043749999999,
          "durationTicks": 18,
          "midi": 50,
          "name": "D3",
          "ticks": 969,
          "time": 3.18749521875,
          "velocity": 0.7559055118110236
        },
        {
          "duration": 0.042763093750000536,
          "durationTicks": 13,
          "midi": 38,
          "name": "D2",
          "ticks": 1063,
          "time": 3.4967052812499997,
          "velocity": 0.5905511811023622
        },
        {
          "duration": 0.0361841562499996,
          "durationTicks": 11,
          "midi": 50,
          "name": "D3",
          "ticks": 1106,
          "time": 3.6381524375,
          "velocity": 0.7165354330708661
        },
        {
          "duration": 0.04276309374999965,
          "durationTicks": 13,
          "midi": 38,
          "name": "D2",
          "ticks": 1160,
          "time": 3.81578375,
          "velocity": 0.5433070866141733
        },
        {
          "duration": 0.07894724999999969,
          "durationTicks": 24,
          "midi": 50,
          "name": "D3",
          "ticks": 1202,
          "time": 3.9539414375,
          "velocity": 0.7401574803149606
        },
        {
          "duration": 0.036184156250000044,
          "durationTicks": 11,
          "midi": 38,
          "name": "D2",
          "ticks": 1300,
          "time": 4.276309374999999,
          "velocity": 0.4251968503937008
        },
        {
          "duration": 0.08223671874999905,
          "durationTicks": 25,
          "midi": 43,
          "name": "G2",
          "ticks": 1350,
          "time": 4.4407828125,
          "velocity": 0.7559055118110236
        },
        {
          "duration": 0.02302628124999906,
          "durationTicks": 7,
          "midi": 38,
          "name": "D2",
          "ticks": 1394,
          "time": 4.5855194375,
          "velocity": 0.3779527559055118
        },
        {
          "duration": 0.04276309374999965,
          "durationTicks": 13,
          "midi": 50,
          "name": "D3",
          "ticks": 1448,
          "time": 4.76315075,
          "velocity": 0.6850393700787402
        },
        {
          "duration": 0.05921043749999999,
          "durationTicks": 18,
          "midi": 36,
          "name": "C2",
          "ticks": 1588,
          "time": 5.223676375,
          "velocity": 0.5196850393700787
        },
        {
          "duration": 0.03947362500000029,
          "durationTicks": 12,
          "midi": 48,
          "name": "C3",
          "ticks": 1641,
          "time": 5.39801821875,
          "velocity": 0.7559055118110236
        },
        {
          "duration": 0.009868406250000739,
          "durationTicks": 3,
          "midi": 36,
          "name": "C2",
          "ticks": 1686,
          "time": 5.546044312499999,
          "velocity": 0.49606299212598426
        },
        {
          "duration": 0.07894725000000058,
          "durationTicks": 24,
          "midi": 48,
          "name": "C3",
          "ticks": 1737,
          "time": 5.7138072187499995,
          "velocity": 0.7559055118110236
        },
        {
          "duration": 0.0394736249999994,
          "durationTicks": 12,
          "midi": 36,
          "name": "C2",
          "ticks": 1831,
          "time": 6.0230172812500005,
          "velocity": 0.5905511811023622
        },
        {
          "duration": 0.052631500000000386,
          "durationTicks": 16,
          "midi": 46,
          "name": "A#2",
          "ticks": 1872,
          "time": 6.1578855,
          "velocity": 0.6377952755905512
        },
        {
          "duration": 0.03947362500000029,
          "durationTicks": 12,
          "midi": 36,
          "name": "C2",
          "ticks": 1930,
          "time": 6.3486746875,
          "velocity": 0.3937007874015748
        },
        {
          "duration": 0.06907884375000073,
          "durationTicks": 21,
          "midi": 48,
          "name": "C3",
          "ticks": 1972,
          "time": 6.486832375,
          "velocity": 0.7165354330708661
        },
        {
          "duration": 0.036184156250000044,
          "durationTicks": 11,
          "midi": 36,
          "name": "C2",
          "ticks": 2066,
          "time": 6.7960424375,
          "velocity": 0.47244094488188976
        },
        {
          "duration": 0.0855261874999993,
          "durationTicks": 26,
          "midi": 46,
          "name": "A#2",
          "ticks": 2121,
          "time": 6.97696321875,
          "velocity": 0.7874015748031497
        },
        {
          "duration": 0.03947362500000029,
          "durationTicks": 12,
          "midi": 35,
          "name": "B1",
          "ticks": 2357,
          "time": 7.753277843749999,
          "velocity": 0.5590551181102362
        },
        {
          "duration": 0.055920968749999744,
          "durationTicks": 17,
          "midi": 47,
          "name": "B2",
          "ticks": 2409,
          "time": 7.92433021875,
          "velocity": 0.7322834645669292
        },
        {
          "duration": 0.006578937499998716,
          "durationTicks": 2,
          "midi": 35,
          "name": "B1",
          "ticks": 2454,
          "time": 8.0723563125,
          "velocity": 0.49606299212598426
        },
        {
          "duration": 0.06249990625000024,
          "durationTicks": 19,
          "midi": 47,
          "name": "B2",
          "ticks": 2505,
          "time": 8.24011921875,
          "velocity": 0.7559055118110236
        },
        {
          "duration": 0.03947362500000118,
          "durationTicks": 12,
          "midi": 35,
          "name": "B1",
          "ticks": 2599,
          "time": 8.54932928125,
          "velocity": 0.5905511811023622
        },
        {
          "duration": 0.03947362500000118,
          "durationTicks": 12,
          "midi": 45,
          "name": "A2",
          "ticks": 2641,
          "time": 8.68748696875,
          "velocity": 0.7165354330708661
        },
        {
          "duration": 0.042763093750000536,
          "durationTicks": 13,
          "midi": 33,
          "name": "A1",
          "ticks": 2696,
          "time": 8.86840775,
          "velocity": 0.5433070866141733
        },
        {
          "duration": 0.07894725000000058,
          "durationTicks": 24,
          "midi": 47,
          "name": "B2",
          "ticks": 2738,
          "time": 9.006565437499999,
          "velocity": 0.7401574803149606
        },
        {
          "duration": 0.03947362500000118,
          "durationTicks": 12,
          "midi": 35,
          "name": "B1",
          "ticks": 2835,
          "time": 9.325643906249999,
          "velocity": 0.4251968503937008
        },
        {
          "duration": 0.08223671874999994,
          "durationTicks": 25,
          "midi": 43,
          "name": "G2",
          "ticks": 2886,
          "time": 9.4934068125,
          "velocity": 0.7559055118110236
        },
        {
          "duration": 0.023026281250000835,
          "durationTicks": 7,
          "midi": 38,
          "name": "D2",
          "ticks": 2930,
          "time": 9.638143437499998,
          "velocity": 0.3779527559055118
        },
        {
          "duration": 0.042763093750000536,
          "durationTicks": 13,
          "midi": 50,
          "name": "D3",
          "ticks": 2984,
          "time": 9.81577475,
          "velocity": 0.6850393700787402
        },
        {
          "duration": 0.05592096874999797,
          "durationTicks": 17,
          "midi": 36,
          "name": "C2",
          "ticks": 3125,
          "time": 10.279589843750001,
          "velocity": 0.5196850393700787
        },
        {
          "duration": 0.036184156250000044,
          "durationTicks": 11,
          "midi": 48,
          "name": "C3",
          "ticks": 3178,
          "time": 10.453931687499999,
          "velocity": 0.7559055118110236
        },
        {
          "duration": 0.00986840624999985,
          "durationTicks": 3,
          "midi": 36,
          "name": "C2",
          "ticks": 3222,
          "time": 10.5986683125,
          "velocity": 0.49606299212598426
        },
        {
          "duration": 0.07236831250000009,
          "durationTicks": 22,
          "midi": 48,
          "name": "C3",
          "ticks": 3274,
          "time": 10.7697206875,
          "velocity": 0.7559055118110236
        },
        {
          "duration": 0.04276309375000231,
          "durationTicks": 13,
          "midi": 35,
          "name": "B1",
          "ticks": 3367,
          "time": 11.075641281249998,
          "velocity": 0.5905511811023622
        },
        {
          "duration": 0.05592096875000152,
          "durationTicks": 17,
          "midi": 43,
          "name": "G2",
          "ticks": 3408,
          "time": 11.210509499999999,
          "velocity": 0.6377952755905512
        },
        {
          "duration": 0.0394736249999994,
          "durationTicks": 12,
          "midi": 40,
          "name": "E2",
          "ticks": 3466,
          "time": 11.401298687499999,
          "velocity": 0.3937007874015748
        },
        {
          "duration": 0.07565778125000122,
          "durationTicks": 23,
          "midi": 48,
          "name": "C3",
          "ticks": 3507,
          "time": 11.53616690625,
          "velocity": 0.7165354330708661
        },
        {
          "duration": 0.03618415624999827,
          "durationTicks": 11,
          "midi": 36,
          "name": "C2",
          "ticks": 3602,
          "time": 11.8486664375,
          "velocity": 0.47244094488188976
        },
        {
          "duration": 0.08223671874999994,
          "durationTicks": 25,
          "midi": 43,
          "name": "G2",
          "ticks": 3657,
          "time": 12.029587218749999,
          "velocity": 0.7874015748031497
        },
        {
          "duration": 0.03618415624999827,
          "durationTicks": 11,
          "midi": 36,
          "name": "C2",
          "ticks": 3893,
          "time": 12.80590184375,
          "velocity": 0.5590551181102362
        },
        {
          "duration": 0.05592096875000152,
          "durationTicks": 17,
          "midi": 48,
          "name": "C3",
          "ticks": 3945,
          "time": 12.976954218749999,
          "velocity": 0.7322834645669292
        },
        {
          "duration": 0.00986840624999985,
          "durationTicks": 3,
          "midi": 36,
          "name": "C2",
          "ticks": 3990,
          "time": 13.1249803125,
          "velocity": 0.49606299212598426
        },
        {
          "duration": 0.06249990625000024,
          "durationTicks": 19,
          "midi": 48,
          "name": "C3",
          "ticks": 4040,
          "time": 13.28945375,
          "velocity": 0.7559055118110236
        },
        {
          "duration": 0.06249990625000024,
          "durationTicks": 19,
          "midi": 44,
          "name": "G#2",
          "ticks": 4080,
          "time": 13.421032499999999,
          "velocity": 0.7559055118110236
        },
        {
          "duration": 0.042763093750000536,
          "durationTicks": 13,
          "midi": 39,
          "name": "D#2",
          "ticks": 4135,
          "time": 13.60195328125,
          "velocity": 0.5905511811023622
        },
        {
          "duration": 0.042763093750000536,
          "durationTicks": 13,
          "midi": 48,
          "name": "C3",
          "ticks": 4177,
          "time": 13.740110968749999,
          "velocity": 0.7165354330708661
        },
        {
          "duration": 0.04276309374999876,
          "durationTicks": 13,
          "midi": 36,
          "name": "C2",
          "ticks": 4232,
          "time": 13.921031750000001,
          "velocity": 0.5433070866141733
        },
        {
          "duration": 0.0789472499999988,
          "durationTicks": 24,
          "midi": 43,
          "name": "G2",
          "ticks": 4274,
          "time": 14.0591894375,
          "velocity": 0.7401574803149606
        },
        {
          "duration": 0.04605256249999812,
          "durationTicks": 14,
          "midi": 50,
          "name": "D3",
          "ticks": 4520,
          "time": 14.86839875,
          "velocity": 0.6850393700787402
        },
        {
          "duration": 0.05921043750000088,
          "durationTicks": 18,
          "midi": 41,
          "name": "F2",
          "ticks": 4660,
          "time": 15.328924374999998,
          "velocity": 0.5196850393700787
        },
        {
          "duration": 0.036184156250000044,
          "durationTicks": 11,
          "midi": 53,
          "name": "F3",
          "ticks": 4714,
          "time": 15.506555687499999,
          "velocity": 0.7559055118110236
        },
        {
          "duration": 0.006578937500000492,
          "durationTicks": 2,
          "midi": 41,
          "name": "F2",
          "ticks": 4758,
          "time": 15.651292312499999,
          "velocity": 0.49606299212598426
        },
        {
          "duration": 0.0789472499999988,
          "durationTicks": 24,
          "midi": 53,
          "name": "F3",
          "ticks": 4809,
          "time": 15.81905521875,
          "velocity": 0.7559055118110236
        },
        {
          "duration": 0.0394736249999994,
          "durationTicks": 12,
          "midi": 41,
          "name": "F2",
          "ticks": 4903,
          "time": 16.12826528125,
          "velocity": 0.5905511811023622
        },
        {
          "duration": 0.052631500000000386,
          "durationTicks": 16,
          "midi": 51,
          "name": "D#3",
          "ticks": 4944,
          "time": 16.2631335,
          "velocity": 0.6377952755905512
        },
        {
          "duration": 0.042763093750000536,
          "durationTicks": 13,
          "midi": 41,
          "name": "F2",
          "ticks": 5001,
          "time": 16.45063321875,
          "velocity": 0.3937007874015748
        },
        {
          "duration": 0.06907884374999895,
          "durationTicks": 21,
          "midi": 53,
          "name": "F3",
          "ticks": 5044,
          "time": 16.592080375,
          "velocity": 0.7165354330708661
        },
        {
          "duration": 0.039473625000002954,
          "durationTicks": 12,
          "midi": 41,
          "name": "F2",
          "ticks": 5137,
          "time": 16.898000968749997,
          "velocity": 0.47244094488188976
        },
        {
          "duration": 0.08552618750000107,
          "durationTicks": 26,
          "midi": 51,
          "name": "D#3",
          "ticks": 5193,
          "time": 17.08221121875,
          "velocity": 0.7874015748031497
        },
        {
          "duration": 0.03618415624999827,
          "durationTicks": 11,
          "midi": 43,
          "name": "G2",
          "ticks": 5429,
          "time": 17.85852584375,
          "velocity": 0.5590551181102362
        },
        {
          "duration": 0.05592096875000152,
          "durationTicks": 17,
          "midi": 55,
          "name": "G3",
          "ticks": 5481,
          "time": 18.02957821875,
          "velocity": 0.7322834645669292
        },
        {
          "duration": 0.00986840624999985,
          "durationTicks": 3,
          "midi": 43,
          "name": "G2",
          "ticks": 5526,
          "time": 18.177604312499998,
          "velocity": 0.49606299212598426
        },
        {
          "duration": 0.06249990625000024,
          "durationTicks": 19,
          "midi": 55,
          "name": "G3",
          "ticks": 5577,
          "time": 18.34536721875,
          "velocity": 0.7559055118110236
        },
        {
          "duration": 0.0394736249999994,
          "durationTicks": 12,
          "midi": 43,
          "name": "G2",
          "ticks": 5671,
          "time": 18.65457728125,
          "velocity": 0.5905511811023622
        },
        {
          "duration": 0.039473625000002954,
          "durationTicks": 12,
          "midi": 53,
          "name": "F3",
          "ticks": 5713,
          "time": 18.792734968749997,
          "velocity": 0.7165354330708661
        },
        {
          "duration": 0.042763093750000536,
          "durationTicks": 13,
          "midi": 43,
          "name": "G2",
          "ticks": 5768,
          "time": 18.97365575,
          "velocity": 0.5433070866141733
        },
        {
          "duration": 0.0789472499999988,
          "durationTicks": 24,
          "midi": 55,
          "name": "G3",
          "ticks": 5810,
          "time": 19.1118134375,
          "velocity": 0.7401574803149606
        },
        {
          "duration": 0.0789472499999988,
          "durationTicks": 24,
          "midi": 43,
          "name": "G2",
          "ticks": 5856,
          "time": 19.263129,
          "velocity": 0.8661417322834646
        },
        {
          "duration": 0.0789472499999988,
          "durationTicks": 24,
          "midi": 43,
          "name": "G2",
          "ticks": 5907,
          "time": 19.43089190625,
          "velocity": 0.8661417322834646
        },
        {
          "duration": 0.07894725000000236,
          "durationTicks": 24,
          "midi": 43,
          "name": "G2",
          "ticks": 5952,
          "time": 19.578917999999998,
          "velocity": 0.8661417322834646
        },
        {
          "duration": 0.0789472499999988,
          "durationTicks": 24,
          "midi": 48,
          "name": "C3",
          "ticks": 6002,
          "time": 19.7433914375,
          "velocity": 0.8661417322834646
        },
        {
          "duration": 0.042763093750000536,
          "durationTicks": 13,
          "midi": 56,
          "name": "G#3",
          "ticks": 6056,
          "time": 19.92102275,
          "velocity": 0.6850393700787402
        },
        {
          "duration": 0.03618415625000182,
          "durationTicks": 11,
          "midi": 53,
          "name": "F3",
          "ticks": 6197,
          "time": 20.38483784375,
          "velocity": 0.5590551181102362
        },
        {
          "duration": 0.05592096875000152,
          "durationTicks": 17,
          "midi": 55,
          "name": "G3",
          "ticks": 6249,
          "time": 20.555890218749997,
          "velocity": 0.7322834645669292
        },
        {
          "duration": 0.00986840624999985,
          "durationTicks": 3,
          "midi": 43,
          "name": "G2",
          "ticks": 6294,
          "time": 20.7039163125,
          "velocity": 0.49606299212598426
        },
        {
          "duration": 0.06249990625000024,
          "durationTicks": 19,
          "midi": 55,
          "name": "G3",
          "ticks": 6345,
          "time": 20.87167921875,
          "velocity": 0.7559055118110236
        },
        {
          "duration": 0.0394736249999994,
          "durationTicks": 12,
          "midi": 43,
          "name": "G2",
          "ticks": 6439,
          "time": 21.18088928125,
          "velocity": 0.5905511811023622
        },
        {
          "duration": 0.0394736249999994,
          "durationTicks": 12,
          "midi": 53,
          "name": "F3",
          "ticks": 6481,
          "time": 21.31904696875,
          "velocity": 0.7165354330708661
        },
        {
          "duration": 0.04276309375000409,
          "durationTicks": 13,
          "midi": 43,
          "name": "G2",
          "ticks": 6536,
          "time": 21.499967749999996,
          "velocity": 0.5433070866141733
        },
        {
          "duration": 0.0789472499999988,
          "durationTicks": 24,
          "midi": 55,
          "name": "G3",
          "ticks": 6578,
          "time": 21.638125437499998,
          "velocity": 0.7401574803149606
        },
        {
          "duration": 0.0789472499999988,
          "durationTicks": 24,
          "midi": 43,
          "name": "G2",
          "ticks": 6624,
          "time": 21.789441,
          "velocity": 0.8661417322834646
        },
        {
          "duration": 0.07894725000000236,
          "durationTicks": 24,
          "midi": 43,
          "name": "G2",
          "ticks": 6675,
          "time": 21.957203906249998,
          "velocity": 0.8661417322834646
        },
        {
          "duration": 0.0789472499999988,
          "durationTicks": 24,
          "midi": 43,
          "name": "G2",
          "ticks": 6720,
          "time": 22.10523,
          "velocity": 0.8661417322834646
        },
        {
          "duration": 0.0789472499999988,
          "durationTicks": 24,
          "midi": 48,
          "name": "C3",
          "ticks": 6770,
          "time": 22.2697034375,
          "velocity": 0.8661417322834646
        },
        {
          "duration": 0.04276309375000409,
          "durationTicks": 13,
          "midi": 56,
          "name": "G#3",
          "ticks": 6824,
          "time": 22.447334749999996,
          "velocity": 0.6850393700787402
        },
        {
          "duration": 0.059210437500002655,
          "durationTicks": 18,
          "midi": 38,
          "name": "D2",
          "ticks": 6965,
          "time": 22.911149843749996,
          "velocity": 0.5196850393700787
        },
        {
          "duration": 0.0394736249999994,
          "durationTicks": 12,
          "midi": 47,
          "name": "B2",
          "ticks": 7017,
          "time": 23.08220221875,
          "velocity": 0.7559055118110236
        },
        {
          "duration": 0.00986840624999985,
          "durationTicks": 3,
          "midi": 38,
          "name": "D2",
          "ticks": 7062,
          "time": 23.2302283125,
          "velocity": 0.49606299212598426
        },
        {
          "duration": 0.07236831249999653,
          "durationTicks": 22,
          "midi": 47,
          "name": "B2",
          "ticks": 7114,
          "time": 23.4012806875,
          "velocity": 0.7559055118110236
        },
        {
          "duration": 0.04276309374999698,
          "durationTicks": 13,
          "midi": 41,
          "name": "F2",
          "ticks": 7207,
          "time": 23.70720128125,
          "velocity": 0.5905511811023622
        },
        {
          "duration": 0.05263150000000394,
          "durationTicks": 16,
          "midi": 47,
          "name": "B2",
          "ticks": 7248,
          "time": 23.842069499999997,
          "velocity": 0.6377952755905512
        },
        {
          "duration": 0.039473625000002954,
          "durationTicks": 12,
          "midi": 41,
          "name": "F2",
          "ticks": 7306,
          "time": 24.0328586875,
          "velocity": 0.3937007874015748
        },
        {
          "duration": 0.06907884374999895,
          "durationTicks": 21,
          "midi": 48,
          "name": "C3",
          "ticks": 7348,
          "time": 24.171016375,
          "velocity": 0.7165354330708661
        },
        {
          "duration": 0.03618415625000182,
          "durationTicks": 11,
          "midi": 36,
          "name": "C2",
          "ticks": 7442,
          "time": 24.480226437499997,
          "velocity": 0.47244094488188976
        },
        {
          "duration": 0.08881565624999865,
          "durationTicks": 27,
          "midi": 43,
          "name": "G2",
          "ticks": 7496,
          "time": 24.657857749999998,
          "velocity": 0.7874015748031497
        },
        {
          "duration": 0.0394736249999994,
          "durationTicks": 12,
          "midi": 36,
          "name": "C2",
          "ticks": 7733,
          "time": 25.437461843749997,
          "velocity": 0.5590551181102362
        },
        {
          "duration": 0.05592096874999797,
          "durationTicks": 17,
          "midi": 48,
          "name": "C3",
          "ticks": 7785,
          "time": 25.60851421875,
          "velocity": 0.7322834645669292
        },
        {
          "duration": 0.00986840624999985,
          "durationTicks": 3,
          "midi": 36,
          "name": "C2",
          "ticks": 7830,
          "time": 25.7565403125,
          "velocity": 0.49606299212598426
        },
        {
          "duration": 0.059210437500002655,
          "durationTicks": 18,
          "midi": 48,
          "name": "C3",
          "ticks": 7881,
          "time": 25.924303218749998,
          "velocity": 0.7559055118110236
        },
        {
          "duration": 0.04276309374999698,
          "durationTicks": 13,
          "midi": 36,
          "name": "C2",
          "ticks": 7975,
          "time": 26.23351328125,
          "velocity": 0.5905511811023622
        },
        {
          "duration": 0.03618415625000182,
          "durationTicks": 11,
          "midi": 46,
          "name": "A#2",
          "ticks": 8018,
          "time": 26.374960437499997,
          "velocity": 0.7165354330708661
        },
        {
          "duration": 0.042763093750000536,
          "durationTicks": 13,
          "midi": 36,
          "name": "C2",
          "ticks": 8072,
          "time": 26.552591749999998,
          "velocity": 0.5433070866141733
        },
        {
          "duration": 0.07894725000000236,
          "durationTicks": 24,
          "midi": 48,
          "name": "C3",
          "ticks": 8114,
          "time": 26.690749437499996,
          "velocity": 0.7401574803149606
        },
        {
          "duration": 0.03618415624999827,
          "durationTicks": 11,
          "midi": 36,
          "name": "C2",
          "ticks": 8212,
          "time": 27.013117375,
          "velocity": 0.4251968503937008
        },
        {
          "duration": 0.08223671874999994,
          "durationTicks": 25,
          "midi": 48,
          "name": "C3",
          "ticks": 8262,
          "time": 27.1775908125,
          "velocity": 0.7559055118110236
        },
        {
          "duration": 0.023026281250000835,
          "durationTicks": 7,
          "midi": 36,
          "name": "C2",
          "ticks": 8306,
          "time": 27.322327437499997,
          "velocity": 0.3779527559055118
        },
        {
          "duration": 0.042763093750000536,
          "durationTicks": 13,
          "midi": 52,
          "name": "E3",
          "ticks": 8360,
          "time": 27.499958749999998,
          "velocity": 0.6850393700787402
        },
        {
          "duration": 0.0394736249999994,
          "durationTicks": 12,
          "midi": 36,
          "name": "C2",
          "ticks": 8501,
          "time": 27.963773843749998,
          "velocity": 0.5590551181102362
        },
        {
          "duration": 0.05592096874999797,
          "durationTicks": 17,
          "midi": 48,
          "name": "C3",
          "ticks": 8553,
          "time": 28.13482621875,
          "velocity": 0.7322834645669292
        },
        {
          "duration": 0.00986840624999985,
          "durationTicks": 3,
          "midi": 36,
          "name": "C2",
          "ticks": 8598,
          "time": 28.282852312499998,
          "velocity": 0.49606299212598426
        },
        {
          "duration": 0.0592104374999991,
          "durationTicks": 18,
          "midi": 47,
          "name": "B2",
          "ticks": 8649,
          "time": 28.45061521875,
          "velocity": 0.7559055118110236
        },
        {
          "duration": 0.04276309374999698,
          "durationTicks": 13,
          "midi": 36,
          "name": "C2",
          "ticks": 8743,
          "time": 28.75982528125,
          "velocity": 0.5905511811023622
        },
        {
          "duration": 0.03618415625000182,
          "durationTicks": 11,
          "midi": 46,
          "name": "A#2",
          "ticks": 8786,
          "time": 28.901272437499998,
          "velocity": 0.7165354330708661
        },
        {
          "duration": 0.042763093750000536,
          "durationTicks": 13,
          "midi": 36,
          "name": "C2",
          "ticks": 8840,
          "time": 29.07890375,
          "velocity": 0.5433070866141733
        },
        {
          "duration": 0.059210437500002655,
          "durationTicks": 18,
          "midi": 36,
          "name": "C2",
          "ticks": 8884,
          "time": 29.223640375,
          "velocity": 0.5196850393700787
        },
        {
          "duration": 0.0394736249999994,
          "durationTicks": 12,
          "midi": 48,
          "name": "C3",
          "ticks": 8937,
          "time": 29.39798221875,
          "velocity": 0.7559055118110236
        },
        {
          "duration": 0.00986840624999985,
          "durationTicks": 3,
          "midi": 36,
          "name": "C2",
          "ticks": 8982,
          "time": 29.5460083125,
          "velocity": 0.49606299212598426
        },
        {
          "duration": 0.07894725000000236,
          "durationTicks": 24,
          "midi": 48,
          "name": "C3",
          "ticks": 9033,
          "time": 29.713771218749997,
          "velocity": 0.7559055118110236
        },
        {
          "duration": 0.0394736249999994,
          "durationTicks": 12,
          "midi": 36,
          "name": "C2",
          "ticks": 9127,
          "time": 30.02298128125,
          "velocity": 0.5905511811023622
        },
        {
          "duration": 0.05263150000000394,
          "durationTicks": 16,
          "midi": 46,
          "name": "A#2",
          "ticks": 9168,
          "time": 30.157849499999998,
          "velocity": 0.6377952755905512
        },
        {
          "duration": 0.0394736249999994,
          "durationTicks": 12,
          "midi": 36,
          "name": "C2",
          "ticks": 9226,
          "time": 30.3486386875,
          "velocity": 0.3937007874015748
        },
        {
          "duration": 0.06907884374999895,
          "durationTicks": 21,
          "midi": 48,
          "name": "C3",
          "ticks": 9268,
          "time": 30.486796375,
          "velocity": 0.7165354330708661
        },
        {
          "duration": 0.03618415625000182,
          "durationTicks": 11,
          "midi": 36,
          "name": "C2",
          "ticks": 9362,
          "time": 30.796006437499997,
          "velocity": 0.47244094488188976
        },
        {
          "duration": 0.08552618749999752,
          "durationTicks": 26,
          "midi": 46,
          "name": "A#2",
          "ticks": 9417,
          "time": 30.97692721875,
          "velocity": 0.7874015748031497
        },
        {
          "duration": 0.0394736249999994,
          "durationTicks": 12,
          "midi": 38,
          "name": "D2",
          "ticks": 9653,
          "time": 31.753241843749997,
          "velocity": 0.5590551181102362
        },
        {
          "duration": 0.05592096874999797,
          "durationTicks": 17,
          "midi": 50,
          "name": "D3",
          "ticks": 9705,
          "time": 31.92429421875,
          "velocity": 0.7322834645669292
        },
        {
          "duration": 0.006578937500002269,
          "durationTicks": 2,
          "midi": 38,
          "name": "D2",
          "ticks": 9750,
          "time": 32.0723203125,
          "velocity": 0.49606299212598426
        },
        {
          "duration": 0.062499906249996684,
          "durationTicks": 19,
          "midi": 50,
          "name": "D3",
          "ticks": 9801,
          "time": 32.24008321875,
          "velocity": 0.7559055118110236
        },
        {
          "duration": 0.0394736249999994,
          "durationTicks": 12,
          "midi": 38,
          "name": "D2",
          "ticks": 9895,
          "time": 32.54929328125,
          "velocity": 0.5905511811023622
        },
        {
          "duration": 0.0394736249999994,
          "durationTicks": 12,
          "midi": 47,
          "name": "B2",
          "ticks": 9937,
          "time": 32.68745096875,
          "velocity": 0.7165354330708661
        },
        {
          "duration": 0.04276309375000409,
          "durationTicks": 13,
          "midi": 38,
          "name": "D2",
          "ticks": 9992,
          "time": 32.868371749999994,
          "velocity": 0.5433070866141733
        },
        {
          "duration": 0.0789472499999988,
          "durationTicks": 24,
          "midi": 50,
          "name": "D3",
          "ticks": 10034,
          "time": 33.0065294375,
          "velocity": 0.7401574803149606
        },
        {
          "duration": 0.0394736249999994,
          "durationTicks": 12,
          "midi": 38,
          "name": "D2",
          "ticks": 10131,
          "time": 33.32560790625,
          "velocity": 0.4251968503937008
        },
        {
          "duration": 0.08223671875000349,
          "durationTicks": 25,
          "midi": 47,
          "name": "B2",
          "ticks": 10182,
          "time": 33.4933708125,
          "velocity": 0.7559055118110236
        },
        {
          "duration": 0.023026281250004388,
          "durationTicks": 7,
          "midi": 38,
          "name": "D2",
          "ticks": 10226,
          "time": 33.6381074375,
          "velocity": 0.3779527559055118
        },
        {
          "duration": 0.04276309375000409,
          "durationTicks": 13,
          "midi": 53,
          "name": "F3",
          "ticks": 10280,
          "time": 33.815738749999994,
          "velocity": 0.6850393700787402
        },
        {
          "duration": 0.055920968750008626,
          "durationTicks": 17,
          "midi": 39,
          "name": "D#2",
          "ticks": 10421,
          "time": 34.279553843749994,
          "velocity": 0.5196850393700787
        },
        {
          "duration": 0.036184156249994714,
          "durationTicks": 11,
          "midi": 51,
          "name": "D#3",
          "ticks": 10474,
          "time": 34.4538956875,
          "velocity": 0.7559055118110236
        },
        {
          "duration": 0.00986840624999985,
          "durationTicks": 3,
          "midi": 39,
          "name": "D#2",
          "ticks": 10518,
          "time": 34.5986323125,
          "velocity": 0.49606299212598426
        },
        {
          "duration": 0.07236831249999653,
          "durationTicks": 22,
          "midi": 51,
          "name": "D#3",
          "ticks": 10570,
          "time": 34.7696846875,
          "velocity": 0.7559055118110236
        },
        {
          "duration": 0.04276309374999698,
          "durationTicks": 13,
          "midi": 39,
          "name": "D#2",
          "ticks": 10663,
          "time": 35.07560528125,
          "velocity": 0.5905511811023622
        },
        {
          "duration": 0.055920968749994415,
          "durationTicks": 17,
          "midi": 45,
          "name": "A2",
          "ticks": 10704,
          "time": 35.2104735,
          "velocity": 0.6377952755905512
        },
        {
          "duration": 0.0394736249999994,
          "durationTicks": 12,
          "midi": 39,
          "name": "D#2",
          "ticks": 10762,
          "time": 35.4012626875,
          "velocity": 0.3937007874015748
        },
        {
          "duration": 0.07565778124999412,
          "durationTicks": 23,
          "midi": 51,
          "name": "D#3",
          "ticks": 10803,
          "time": 35.53613090625,
          "velocity": 0.7165354330708661
        },
        {
          "duration": 0.03618415625000182,
          "durationTicks": 11,
          "midi": 39,
          "name": "D#2",
          "ticks": 10898,
          "time": 35.8486304375,
          "velocity": 0.47244094488188976
        },
        {
          "duration": 0.08223671874999638,
          "durationTicks": 25,
          "midi": 48,
          "name": "C3",
          "ticks": 10953,
          "time": 36.02955121875,
          "velocity": 0.7874015748031497
        },
        {
          "duration": 0.07236831250000364,
          "durationTicks": 22,
          "midi": 57,
          "name": "A3",
          "ticks": 11184,
          "time": 36.7894185,
          "velocity": 0.7559055118110236
        },
        {
          "duration": 0.07236831250000364,
          "durationTicks": 22,
          "midi": 58,
          "name": "A#3",
          "ticks": 11568,
          "time": 38.0525745,
          "velocity": 0.7559055118110236
        },
        {
          "duration": 0.0592104374999991,
          "durationTicks": 18,
          "midi": 58,
          "name": "A#3",
          "ticks": 11808,
          "time": 38.842047,
          "velocity": 0.5196850393700787
        },
        {
          "duration": 0.0394736249999994,
          "durationTicks": 12,
          "midi": 58,
          "name": "A#3",
          "ticks": 11856,
          "time": 38.9999415,
          "velocity": 0.7559055118110236
        },
        {
          "duration": 0.00986840624999985,
          "durationTicks": 3,
          "midi": 58,
          "name": "A#3",
          "ticks": 11904,
          "time": 39.157835999999996,
          "velocity": 0.49606299212598426
        },
        {
          "duration": 0.6315779999999975,
          "durationTicks": 192,
          "midi": 51,
          "name": "D#3",
          "ticks": 11952,
          "time": 39.3157305,
          "velocity": 0.7559055118110236
        },
        {
          "duration": 0.6315779999999975,
          "durationTicks": 192,
          "midi": 53,
          "name": "F3",
          "ticks": 12144,
          "time": 39.9473085,
          "velocity": 0.5905511811023622
        },
        {
          "duration": 1.2631560000000022,
          "durationTicks": 384,
          "midi": 46,
          "name": "A#2",
          "ticks": 12336,
          "time": 40.578886499999996,
          "velocity": 0.7165354330708661
        }
      ],
      "endOfTrackTicks": 12720
    },
    {
      "channel": 5,
      "controlChanges": {
        "7": [
          {
            "number": 7,
            "ticks": 0,
            "time": 0,
            "value": 1
          }
        ]
      },
      "pitchBends": [],
      "instrument": {
        "family": "ensemble",
        "number": 55,
        "name": "orchestra hit"
      },
      "name": "Orch hit            ",
      "notes": [
        {
          "duration": 0.4671045625,
          "durationTicks": 142,
          "midi": 55,
          "name": "G3",
          "ticks": 50,
          "time": 0.1644734375,
          "velocity": 0.7716535433070866
        },
        {
          "duration": 0.56907809375,
          "durationTicks": 173,
          "midi": 51,
          "name": "D#3",
          "ticks": 192,
          "time": 0.631578,
          "velocity": 0.7716535433070866
        },
        {
          "duration": 0.4671045624999999,
          "durationTicks": 142,
          "midi": 53,
          "name": "F3",
          "ticks": 816,
          "time": 2.6842064999999997,
          "velocity": 0.7716535433070866
        },
        {
          "duration": 0.46710456249999943,
          "durationTicks": 142,
          "midi": 50,
          "name": "D3",
          "ticks": 960,
          "time": 3.15789,
          "velocity": 0.7716535433070866
        },
        {
          "duration": 0.07565778124999945,
          "durationTicks": 23,
          "midi": 48,
          "name": "C3",
          "ticks": 1490,
          "time": 4.9013084375,
          "velocity": 0.7637795275590551
        },
        {
          "duration": 0.5657886249999997,
          "durationTicks": 172,
          "midi": 48,
          "name": "C3",
          "ticks": 1586,
          "time": 5.2170974375,
          "velocity": 0.7716535433070866
        },
        {
          "duration": 0.07565778125000122,
          "durationTicks": 23,
          "midi": 48,
          "name": "C3",
          "ticks": 3026,
          "time": 9.953932437499999,
          "velocity": 0.7637795275590551
        },
        {
          "duration": 0.15789450000000116,
          "durationTicks": 48,
          "midi": 63,
          "name": "D#4",
          "ticks": 3122,
          "time": 10.2697214375,
          "velocity": 0.7716535433070866
        },
        {
          "duration": 0.15789449999999938,
          "durationTicks": 48,
          "midi": 62,
          "name": "D4",
          "ticks": 3312,
          "time": 10.8947205,
          "velocity": 0.7716535433070866
        },
        {
          "duration": 0.15789449999999938,
          "durationTicks": 48,
          "midi": 63,
          "name": "D#4",
          "ticks": 3504,
          "time": 11.5262985,
          "velocity": 0.7716535433070866
        },
        {
          "duration": 0.15789450000000116,
          "durationTicks": 48,
          "midi": 62,
          "name": "D4",
          "ticks": 3696,
          "time": 12.157876499999999,
          "velocity": 0.7716535433070866
        },
        {
          "duration": 0.15789449999999938,
          "durationTicks": 48,
          "midi": 63,
          "name": "D#4",
          "ticks": 3888,
          "time": 12.7894545,
          "velocity": 0.7716535433070866
        },
        {
          "duration": 0.15789450000000116,
          "durationTicks": 48,
          "midi": 60,
          "name": "C4",
          "ticks": 4080,
          "time": 13.421032499999999,
          "velocity": 0.7716535433070866
        },
        {
          "duration": 0.15789449999999938,
          "durationTicks": 48,
          "midi": 67,
          "name": "G4",
          "ticks": 4272,
          "time": 14.0526105,
          "velocity": 0.7716535433070866
        },
        {
          "duration": 0.07565778124999767,
          "durationTicks": 23,
          "midi": 56,
          "name": "G#3",
          "ticks": 4562,
          "time": 15.0065564375,
          "velocity": 0.7637795275590551
        },
        {
          "duration": 0.5657886249999997,
          "durationTicks": 172,
          "midi": 53,
          "name": "F3",
          "ticks": 4658,
          "time": 15.3223454375,
          "velocity": 0.7716535433070866
        },
        {
          "duration": 0.15789450000000116,
          "durationTicks": 48,
          "midi": 43,
          "name": "G2",
          "ticks": 5424,
          "time": 17.8420785,
          "velocity": 0.7716535433070866
        },
        {
          "duration": 0.052631500000000386,
          "durationTicks": 16,
          "midi": 45,
          "name": "A2",
          "ticks": 5856,
          "time": 19.263129,
          "velocity": 1
        },
        {
          "duration": 0.052631499999996834,
          "durationTicks": 16,
          "midi": 47,
          "name": "B2",
          "ticks": 5904,
          "time": 19.4210235,
          "velocity": 1
        },
        {
          "duration": 0.052631500000000386,
          "durationTicks": 16,
          "midi": 43,
          "name": "G2",
          "ticks": 5952,
          "time": 19.578917999999998,
          "velocity": 1
        },
        {
          "duration": 0.15789450000000116,
          "durationTicks": 48,
          "midi": 48,
          "name": "C3",
          "ticks": 6000,
          "time": 19.7368125,
          "velocity": 1
        },
        {
          "duration": 0.1578944999999976,
          "durationTicks": 48,
          "midi": 55,
          "name": "G3",
          "ticks": 6192,
          "time": 20.3683905,
          "velocity": 0.7716535433070866
        },
        {
          "duration": 0.052631500000000386,
          "durationTicks": 16,
          "midi": 50,
          "name": "D3",
          "ticks": 6624,
          "time": 21.789441,
          "velocity": 1
        },
        {
          "duration": 0.05263150000000394,
          "durationTicks": 16,
          "midi": 47,
          "name": "B2",
          "ticks": 6672,
          "time": 21.947335499999998,
          "velocity": 1
        },
        {
          "duration": 0.052631500000000386,
          "durationTicks": 16,
          "midi": 43,
          "name": "G2",
          "ticks": 6720,
          "time": 22.10523,
          "velocity": 1
        },
        {
          "duration": 0.1578944999999976,
          "durationTicks": 48,
          "midi": 48,
          "name": "C3",
          "ticks": 6768,
          "time": 22.2631245,
          "velocity": 1
        },
        {
          "duration": 0.15789450000000116,
          "durationTicks": 48,
          "midi": 48,
          "name": "C3",
          "ticks": 7536,
          "time": 24.789436499999997,
          "velocity": 0.7716535433070866
        },
        {
          "duration": 0.07565778124999767,
          "durationTicks": 23,
          "midi": 53,
          "name": "F3",
          "ticks": 7728,
          "time": 25.4210145,
          "velocity": 0.6299212598425197
        },
        {
          "duration": 0.07565778124999767,
          "durationTicks": 23,
          "midi": 55,
          "name": "G3",
          "ticks": 7920,
          "time": 26.0525925,
          "velocity": 0.6299212598425197
        },
        {
          "duration": 0.07565778124999767,
          "durationTicks": 23,
          "midi": 56,
          "name": "G#3",
          "ticks": 8112,
          "time": 26.6841705,
          "velocity": 0.6299212598425197
        },
        {
          "duration": 0.07565778124999767,
          "durationTicks": 23,
          "midi": 58,
          "name": "A#3",
          "ticks": 8304,
          "time": 27.315748499999998,
          "velocity": 0.6299212598425197
        },
        {
          "duration": 0.07565778124999767,
          "durationTicks": 23,
          "midi": 60,
          "name": "C4",
          "ticks": 8496,
          "time": 27.9473265,
          "velocity": 0.6299212598425197
        },
        {
          "duration": 0.07565778124999767,
          "durationTicks": 23,
          "midi": 62,
          "name": "D4",
          "ticks": 8688,
          "time": 28.5789045,
          "velocity": 0.6299212598425197
        },
        {
          "duration": 0.07565778125000122,
          "durationTicks": 23,
          "midi": 60,
          "name": "C4",
          "ticks": 8880,
          "time": 29.210482499999998,
          "velocity": 0.6299212598425197
        },
        {
          "duration": 0.5657886250000033,
          "durationTicks": 172,
          "midi": 48,
          "name": "C3",
          "ticks": 8882,
          "time": 29.217061437499996,
          "velocity": 0.7716535433070866
        },
        {
          "duration": 0.07565778124999767,
          "durationTicks": 23,
          "midi": 67,
          "name": "G4",
          "ticks": 9648,
          "time": 31.7367945,
          "velocity": 0.6299212598425197
        },
        {
          "duration": 0.5657886250000033,
          "durationTicks": 172,
          "midi": 55,
          "name": "G3",
          "ticks": 9650,
          "time": 31.743373437499997,
          "velocity": 0.7716535433070866
        },
        {
          "duration": 0.07565778125000122,
          "durationTicks": 23,
          "midi": 63,
          "name": "D#4",
          "ticks": 10416,
          "time": 34.2631065,
          "velocity": 0.6299212598425197
        },
        {
          "duration": 0.569078093750008,
          "durationTicks": 173,
          "midi": 54,
          "name": "F#3",
          "ticks": 10418,
          "time": 34.269685437499994,
          "velocity": 0.7716535433070866
        },
        {
          "duration": 0.07565778125000122,
          "durationTicks": 23,
          "midi": 57,
          "name": "A3",
          "ticks": 11184,
          "time": 36.7894185,
          "velocity": 0.7874015748031497
        },
        {
          "duration": 0.07565778125000122,
          "durationTicks": 23,
          "midi": 58,
          "name": "A#3",
          "ticks": 11568,
          "time": 38.0525745,
          "velocity": 0.7874015748031497
        },
        {
          "duration": 0.5690780937499937,
          "durationTicks": 173,
          "midi": 51,
          "name": "D#3",
          "ticks": 11952,
          "time": 39.3157305,
          "velocity": 0.6299212598425197
        },
        {
          "duration": 0.5690780937500008,
          "durationTicks": 173,
          "midi": 53,
          "name": "F3",
          "ticks": 12144,
          "time": 39.9473085,
          "velocity": 0.6299212598425197
        },
        {
          "duration": 0.569078093750008,
          "durationTicks": 173,
          "midi": 46,
          "name": "A#2",
          "ticks": 12336,
          "time": 40.578886499999996,
          "velocity": 0.6299212598425197
        }
      ],
      "endOfTrackTicks": 12509
    },
    {
      "channel": 6,
      "controlChanges": {
        "7": [
          {
            "number": 7,
            "ticks": 0,
            "time": 0,
            "value": 1
          }
        ]
      },
      "pitchBends": [],
      "instrument": {
        "family": "ensemble",
        "number": 48,
        "name": "string ensemble 1"
      },
      "name": "Strings             ",
      "notes": [
        {
          "duration": 0.09210512499999998,
          "durationTicks": 28,
          "midi": 60,
          "name": "C4",
          "ticks": 50,
          "time": 0.1644734375,
          "velocity": 0.5826771653543307
        },
        {
          "duration": 0.10526299999999997,
          "durationTicks": 32,
          "midi": 67,
          "name": "G4",
          "ticks": 50,
          "time": 0.1644734375,
          "velocity": 0.7086614173228346
        },
        {
          "duration": 0.06578937500000001,
          "durationTicks": 20,
          "midi": 55,
          "name": "G3",
          "ticks": 51,
          "time": 0.16776290624999998,
          "velocity": 0.7086614173228346
        },
        {
          "duration": 0.105263,
          "durationTicks": 32,
          "midi": 67,
          "name": "G4",
          "ticks": 96,
          "time": 0.315789,
          "velocity": 0.7086614173228346
        },
        {
          "duration": 0.10526299999999994,
          "durationTicks": 32,
          "midi": 60,
          "name": "C4",
          "ticks": 100,
          "time": 0.328946875,
          "velocity": 0.6456692913385826
        },
        {
          "duration": 0.10526299999999994,
          "durationTicks": 32,
          "midi": 67,
          "name": "G4",
          "ticks": 144,
          "time": 0.4736835,
          "velocity": 0.7086614173228346
        },
        {
          "duration": 1.7368395,
          "durationTicks": 528,
          "midi": 63,
          "name": "D#4",
          "ticks": 192,
          "time": 0.631578,
          "velocity": 0.7086614173228346
        },
        {
          "duration": 0.06578937500000004,
          "durationTicks": 20,
          "midi": 51,
          "name": "D#3",
          "ticks": 192,
          "time": 0.631578,
          "velocity": 0.7086614173228346
        },
        {
          "duration": 0.05921043749999999,
          "durationTicks": 18,
          "midi": 51,
          "name": "D#3",
          "ticks": 432,
          "time": 1.4210505,
          "velocity": 0.5984251968503937
        },
        {
          "duration": 0.06578937500000004,
          "durationTicks": 20,
          "midi": 51,
          "name": "D#3",
          "ticks": 626,
          "time": 2.0592074375,
          "velocity": 0.6062992125984252
        },
        {
          "duration": 0.09210512499999979,
          "durationTicks": 28,
          "midi": 60,
          "name": "C4",
          "ticks": 818,
          "time": 2.6907854375,
          "velocity": 0.5826771653543307
        },
        {
          "duration": 0.10526299999999944,
          "durationTicks": 32,
          "midi": 65,
          "name": "F4",
          "ticks": 818,
          "time": 2.6907854375,
          "velocity": 0.7086614173228346
        },
        {
          "duration": 0.06578937500000004,
          "durationTicks": 20,
          "midi": 53,
          "name": "F3",
          "ticks": 819,
          "time": 2.69407490625,
          "velocity": 0.7086614173228346
        },
        {
          "duration": 0.10526299999999988,
          "durationTicks": 32,
          "midi": 65,
          "name": "F4",
          "ticks": 864,
          "time": 2.842101,
          "velocity": 0.7086614173228346
        },
        {
          "duration": 0.10526300000000033,
          "durationTicks": 32,
          "midi": 60,
          "name": "C4",
          "ticks": 868,
          "time": 2.8552588749999996,
          "velocity": 0.6456692913385826
        },
        {
          "duration": 0.10526300000000033,
          "durationTicks": 32,
          "midi": 65,
          "name": "F4",
          "ticks": 912,
          "time": 2.9999955,
          "velocity": 0.7086614173228346
        },
        {
          "duration": 0.06578937500000004,
          "durationTicks": 20,
          "midi": 50,
          "name": "D3",
          "ticks": 960,
          "time": 3.15789,
          "velocity": 0.7086614173228346
        },
        {
          "duration": 1.7368394999999994,
          "durationTicks": 528,
          "midi": 62,
          "name": "D4",
          "ticks": 960,
          "time": 3.15789,
          "velocity": 0.7086614173228346
        },
        {
          "duration": 0.09210512499999979,
          "durationTicks": 28,
          "midi": 50,
          "name": "D3",
          "ticks": 1200,
          "time": 3.9473624999999997,
          "velocity": 0.6220472440944882
        },
        {
          "duration": 0.31578900000000054,
          "durationTicks": 96,
          "midi": 67,
          "name": "G4",
          "ticks": 1390,
          "time": 4.572361562499999,
          "velocity": 0.6850393700787402
        },
        {
          "duration": 0.3059205937500007,
          "durationTicks": 93,
          "midi": 43,
          "name": "G2",
          "ticks": 1391,
          "time": 4.57565103125,
          "velocity": 0.6771653543307087
        },
        {
          "duration": 0.0657893749999996,
          "durationTicks": 20,
          "midi": 67,
          "name": "G4",
          "ticks": 1486,
          "time": 4.8881505625,
          "velocity": 0.6692913385826772
        },
        {
          "duration": 0.052631500000000386,
          "durationTicks": 16,
          "midi": 55,
          "name": "G3",
          "ticks": 1486,
          "time": 4.8881505625,
          "velocity": 0.5905511811023622
        },
        {
          "duration": 1.2631559999999995,
          "durationTicks": 384,
          "midi": 58,
          "name": "A#3",
          "ticks": 1584,
          "time": 5.2105185,
          "velocity": 0.47244094488188976
        },
        {
          "duration": 0.16447343750000076,
          "durationTicks": 50,
          "midi": 67,
          "name": "G4",
          "ticks": 1586,
          "time": 5.2170974375,
          "velocity": 0.6771653543307087
        },
        {
          "duration": 0.08881565624999954,
          "durationTicks": 27,
          "midi": 60,
          "name": "C4",
          "ticks": 1587,
          "time": 5.22038690625,
          "velocity": 0.5826771653543307
        },
        {
          "duration": 0.05921043749999999,
          "durationTicks": 18,
          "midi": 48,
          "name": "C3",
          "ticks": 1588,
          "time": 5.223676375,
          "velocity": 0.5433070866141733
        },
        {
          "duration": 0.10197353124999875,
          "durationTicks": 31,
          "midi": 60,
          "name": "C4",
          "ticks": 1636,
          "time": 5.381570875,
          "velocity": 0.6456692913385826
        },
        {
          "duration": 0.06907884374999984,
          "durationTicks": 21,
          "midi": 60,
          "name": "C4",
          "ticks": 1777,
          "time": 5.8453859687500005,
          "velocity": 0.5905511811023622
        },
        {
          "duration": 0.062499906250001125,
          "durationTicks": 19,
          "midi": 48,
          "name": "C3",
          "ticks": 1778,
          "time": 5.848675437499999,
          "velocity": 0.6062992125984252
        },
        {
          "duration": 0.05921043749999999,
          "durationTicks": 18,
          "midi": 60,
          "name": "C4",
          "ticks": 1967,
          "time": 6.470385031249999,
          "velocity": 0.5826771653543307
        },
        {
          "duration": 0.06249990625000024,
          "durationTicks": 19,
          "midi": 48,
          "name": "C3",
          "ticks": 1967,
          "time": 6.470385031249999,
          "velocity": 0.5984251968503937
        },
        {
          "duration": 1.2631560000000004,
          "durationTicks": 384,
          "midi": 57,
          "name": "A3",
          "ticks": 1968,
          "time": 6.4736744999999996,
          "velocity": 0.47244094488188976
        },
        {
          "duration": 0.09210512500000068,
          "durationTicks": 28,
          "midi": 60,
          "name": "C4",
          "ticks": 2162,
          "time": 7.111831437499999,
          "velocity": 0.5905511811023622
        },
        {
          "duration": 0.06578937500000048,
          "durationTicks": 20,
          "midi": 48,
          "name": "C3",
          "ticks": 2162,
          "time": 7.111831437499999,
          "velocity": 0.6062992125984252
        },
        {
          "duration": 0.09539459374999915,
          "durationTicks": 29,
          "midi": 59,
          "name": "B3",
          "ticks": 2352,
          "time": 7.7368305,
          "velocity": 0.6299212598425197
        },
        {
          "duration": 1.2631560000000004,
          "durationTicks": 384,
          "midi": 56,
          "name": "G#3",
          "ticks": 2352,
          "time": 7.7368305,
          "velocity": 0.47244094488188976
        },
        {
          "duration": 0.08552618750000018,
          "durationTicks": 26,
          "midi": 47,
          "name": "B2",
          "ticks": 2354,
          "time": 7.7434094374999995,
          "velocity": 0.5905511811023622
        },
        {
          "duration": 0.07565778124999945,
          "durationTicks": 23,
          "midi": 47,
          "name": "B2",
          "ticks": 2543,
          "time": 8.36511903125,
          "velocity": 0.6062992125984252
        },
        {
          "duration": 0.10526300000000077,
          "durationTicks": 32,
          "midi": 59,
          "name": "B3",
          "ticks": 2544,
          "time": 8.3684085,
          "velocity": 0.6377952755905512
        },
        {
          "duration": 0.09868406250000028,
          "durationTicks": 30,
          "midi": 47,
          "name": "B2",
          "ticks": 2734,
          "time": 8.9934075625,
          "velocity": 0.6220472440944882
        },
        {
          "duration": 0.09868406250000028,
          "durationTicks": 30,
          "midi": 59,
          "name": "B3",
          "ticks": 2735,
          "time": 8.99669703125,
          "velocity": 0.6299212598425197
        },
        {
          "duration": 0.6315779999999993,
          "durationTicks": 192,
          "midi": 53,
          "name": "F3",
          "ticks": 2736,
          "time": 8.9999865,
          "velocity": 0.47244094488188976
        },
        {
          "duration": 0.09868406250000028,
          "durationTicks": 30,
          "midi": 62,
          "name": "D4",
          "ticks": 2832,
          "time": 9.315775499999999,
          "velocity": 0.6299212598425197
        },
        {
          "duration": 0.09868406250000028,
          "durationTicks": 30,
          "midi": 50,
          "name": "D3",
          "ticks": 2832,
          "time": 9.315775499999999,
          "velocity": 0.6299212598425197
        },
        {
          "duration": 0.0986840624999985,
          "durationTicks": 30,
          "midi": 67,
          "name": "G4",
          "ticks": 2880,
          "time": 9.47367,
          "velocity": 0.6299212598425197
        },
        {
          "duration": 0.0986840624999985,
          "durationTicks": 30,
          "midi": 55,
          "name": "G3",
          "ticks": 2880,
          "time": 9.47367,
          "velocity": 0.6299212598425197
        },
        {
          "duration": 0.09868406250000028,
          "durationTicks": 30,
          "midi": 59,
          "name": "B3",
          "ticks": 2928,
          "time": 9.6315645,
          "velocity": 0.6299212598425197
        },
        {
          "duration": 0.09868406250000028,
          "durationTicks": 30,
          "midi": 71,
          "name": "B4",
          "ticks": 2928,
          "time": 9.6315645,
          "velocity": 0.6299212598425197
        },
        {
          "duration": 0.6315779999999993,
          "durationTicks": 192,
          "midi": 55,
          "name": "G3",
          "ticks": 2928,
          "time": 9.6315645,
          "velocity": 0.47244094488188976
        },
        {
          "duration": 0.09868406250000028,
          "durationTicks": 30,
          "midi": 74,
          "name": "D5",
          "ticks": 2976,
          "time": 9.789458999999999,
          "velocity": 0.6299212598425197
        },
        {
          "duration": 0.09868406250000028,
          "durationTicks": 30,
          "midi": 62,
          "name": "D4",
          "ticks": 2976,
          "time": 9.789458999999999,
          "velocity": 0.6299212598425197
        },
        {
          "duration": 0.0986840624999985,
          "durationTicks": 30,
          "midi": 67,
          "name": "G4",
          "ticks": 3024,
          "time": 9.9473535,
          "velocity": 0.6299212598425197
        },
        {
          "duration": 0.0986840624999985,
          "durationTicks": 30,
          "midi": 79,
          "name": "G5",
          "ticks": 3024,
          "time": 9.9473535,
          "velocity": 0.6299212598425197
        },
        {
          "duration": 0.09868406250000028,
          "durationTicks": 30,
          "midi": 77,
          "name": "F5",
          "ticks": 3072,
          "time": 10.105248,
          "velocity": 0.6299212598425197
        },
        {
          "duration": 0.09868406250000028,
          "durationTicks": 30,
          "midi": 65,
          "name": "F4",
          "ticks": 3072,
          "time": 10.105248,
          "velocity": 0.6299212598425197
        },
        {
          "duration": 0.16447343750000165,
          "durationTicks": 50,
          "midi": 75,
          "name": "D#5",
          "ticks": 3123,
          "time": 10.273010906249999,
          "velocity": 0.7086614173228346
        },
        {
          "duration": 0.06249990625000201,
          "durationTicks": 19,
          "midi": 60,
          "name": "C4",
          "ticks": 3124,
          "time": 10.276300374999998,
          "velocity": 0.7086614173228346
        },
        {
          "duration": 0.08552618750000107,
          "durationTicks": 26,
          "midi": 67,
          "name": "G4",
          "ticks": 3124,
          "time": 10.276300374999998,
          "velocity": 0.7086614173228346
        },
        {
          "duration": 0.10526300000000077,
          "durationTicks": 32,
          "midi": 60,
          "name": "C4",
          "ticks": 3172,
          "time": 10.434194875,
          "velocity": 0.7086614173228346
        },
        {
          "duration": 0.10526300000000077,
          "durationTicks": 32,
          "midi": 63,
          "name": "D#4",
          "ticks": 3216,
          "time": 10.5789315,
          "velocity": 0.7086614173228346
        },
        {
          "duration": 0.10526300000000077,
          "durationTicks": 32,
          "midi": 65,
          "name": "F4",
          "ticks": 3264,
          "time": 10.736825999999999,
          "velocity": 0.7086614173228346
        },
        {
          "duration": 0.10526300000000077,
          "durationTicks": 32,
          "midi": 67,
          "name": "G4",
          "ticks": 3312,
          "time": 10.8947205,
          "velocity": 0.7086614173228346
        },
        {
          "duration": 0.06578937499999782,
          "durationTicks": 20,
          "midi": 50,
          "name": "D3",
          "ticks": 3314,
          "time": 10.9012994375,
          "velocity": 0.7086614173228346
        },
        {
          "duration": 0.06249990624999846,
          "durationTicks": 19,
          "midi": 59,
          "name": "B3",
          "ticks": 3314,
          "time": 10.9012994375,
          "velocity": 0.7086614173228346
        },
        {
          "duration": 0.10526300000000077,
          "durationTicks": 32,
          "midi": 74,
          "name": "D5",
          "ticks": 3360,
          "time": 11.052615,
          "velocity": 0.7086614173228346
        },
        {
          "duration": 0.10526300000000077,
          "durationTicks": 32,
          "midi": 62,
          "name": "D4",
          "ticks": 3360,
          "time": 11.052615,
          "velocity": 0.7086614173228346
        },
        {
          "duration": 0.10526300000000077,
          "durationTicks": 32,
          "midi": 67,
          "name": "G4",
          "ticks": 3408,
          "time": 11.210509499999999,
          "velocity": 0.7086614173228346
        },
        {
          "duration": 0.10526300000000077,
          "durationTicks": 32,
          "midi": 79,
          "name": "G5",
          "ticks": 3408,
          "time": 11.210509499999999,
          "velocity": 0.7086614173228346
        },
        {
          "duration": 0.10526300000000077,
          "durationTicks": 32,
          "midi": 77,
          "name": "F5",
          "ticks": 3456,
          "time": 11.368404,
          "velocity": 0.7086614173228346
        },
        {
          "duration": 0.10526300000000077,
          "durationTicks": 32,
          "midi": 65,
          "name": "F4",
          "ticks": 3456,
          "time": 11.368404,
          "velocity": 0.7086614173228346
        },
        {
          "duration": 0.16447343750000165,
          "durationTicks": 50,
          "midi": 75,
          "name": "D#5",
          "ticks": 3507,
          "time": 11.53616690625,
          "velocity": 0.7086614173228346
        },
        {
          "duration": 0.06249990625000201,
          "durationTicks": 19,
          "midi": 60,
          "name": "C4",
          "ticks": 3508,
          "time": 11.539456374999999,
          "velocity": 0.7086614173228346
        },
        {
          "duration": 0.08552618750000107,
          "durationTicks": 26,
          "midi": 67,
          "name": "G4",
          "ticks": 3508,
          "time": 11.539456374999999,
          "velocity": 0.7086614173228346
        },
        {
          "duration": 0.10526300000000077,
          "durationTicks": 32,
          "midi": 60,
          "name": "C4",
          "ticks": 3556,
          "time": 11.697350874999998,
          "velocity": 0.7086614173228346
        },
        {
          "duration": 0.10526300000000077,
          "durationTicks": 32,
          "midi": 63,
          "name": "D#4",
          "ticks": 3600,
          "time": 11.8420875,
          "velocity": 0.7086614173228346
        },
        {
          "duration": 0.10526300000000077,
          "durationTicks": 32,
          "midi": 65,
          "name": "F4",
          "ticks": 3648,
          "time": 11.999982,
          "velocity": 0.7086614173228346
        },
        {
          "duration": 0.10526300000000077,
          "durationTicks": 32,
          "midi": 67,
          "name": "G4",
          "ticks": 3696,
          "time": 12.157876499999999,
          "velocity": 0.7086614173228346
        },
        {
          "duration": 0.06578937499999782,
          "durationTicks": 20,
          "midi": 50,
          "name": "D3",
          "ticks": 3698,
          "time": 12.164455437500001,
          "velocity": 0.7086614173228346
        },
        {
          "duration": 0.06249990624999846,
          "durationTicks": 19,
          "midi": 59,
          "name": "B3",
          "ticks": 3698,
          "time": 12.164455437500001,
          "velocity": 0.7086614173228346
        },
        {
          "duration": 0.10526300000000077,
          "durationTicks": 32,
          "midi": 74,
          "name": "D5",
          "ticks": 3744,
          "time": 12.315771,
          "velocity": 0.7086614173228346
        },
        {
          "duration": 0.10526300000000077,
          "durationTicks": 32,
          "midi": 62,
          "name": "D4",
          "ticks": 3744,
          "time": 12.315771,
          "velocity": 0.7086614173228346
        },
        {
          "duration": 0.10526300000000077,
          "durationTicks": 32,
          "midi": 67,
          "name": "G4",
          "ticks": 3792,
          "time": 12.4736655,
          "velocity": 0.7086614173228346
        },
        {
          "duration": 0.10526300000000077,
          "durationTicks": 32,
          "midi": 79,
          "name": "G5",
          "ticks": 3792,
          "time": 12.4736655,
          "velocity": 0.7086614173228346
        },
        {
          "duration": 0.105262999999999,
          "durationTicks": 32,
          "midi": 77,
          "name": "F5",
          "ticks": 3840,
          "time": 12.63156,
          "velocity": 0.7086614173228346
        },
        {
          "duration": 0.105262999999999,
          "durationTicks": 32,
          "midi": 65,
          "name": "F4",
          "ticks": 3840,
          "time": 12.63156,
          "velocity": 0.7086614173228346
        },
        {
          "duration": 0.16447343749999987,
          "durationTicks": 50,
          "midi": 75,
          "name": "D#5",
          "ticks": 3891,
          "time": 12.79932290625,
          "velocity": 0.8661417322834646
        },
        {
          "duration": 0.06249990625000201,
          "durationTicks": 19,
          "midi": 60,
          "name": "C4",
          "ticks": 3892,
          "time": 12.802612374999999,
          "velocity": 0.8661417322834646
        },
        {
          "duration": 0.08552618750000107,
          "durationTicks": 26,
          "midi": 67,
          "name": "G4",
          "ticks": 3892,
          "time": 12.802612374999999,
          "velocity": 0.8661417322834646
        },
        {
          "duration": 0.10526300000000077,
          "durationTicks": 32,
          "midi": 66,
          "name": "F#4",
          "ticks": 4080,
          "time": 13.421032499999999,
          "velocity": 0.8661417322834646
        },
        {
          "duration": 0.16447343750000165,
          "durationTicks": 50,
          "midi": 72,
          "name": "C5",
          "ticks": 4080,
          "time": 13.421032499999999,
          "velocity": 0.8661417322834646
        },
        {
          "duration": 0.06249990625000024,
          "durationTicks": 19,
          "midi": 60,
          "name": "C4",
          "ticks": 4082,
          "time": 13.4276114375,
          "velocity": 0.8661417322834646
        },
        {
          "duration": 0.0657893749999996,
          "durationTicks": 20,
          "midi": 56,
          "name": "G#3",
          "ticks": 4082,
          "time": 13.4276114375,
          "velocity": 0.8661417322834646
        },
        {
          "duration": 0.9473669999999998,
          "durationTicks": 288,
          "midi": 79,
          "name": "G5",
          "ticks": 4275,
          "time": 14.06247890625,
          "velocity": 0.8661417322834646
        },
        {
          "duration": 0.0855261874999993,
          "durationTicks": 26,
          "midi": 67,
          "name": "G4",
          "ticks": 4276,
          "time": 14.065768375,
          "velocity": 0.8661417322834646
        },
        {
          "duration": 0.06249990625000024,
          "durationTicks": 19,
          "midi": 62,
          "name": "D4",
          "ticks": 4276,
          "time": 14.065768375,
          "velocity": 0.8661417322834646
        },
        {
          "duration": 0.06249990625000024,
          "durationTicks": 19,
          "midi": 55,
          "name": "G3",
          "ticks": 4466,
          "time": 14.6907674375,
          "velocity": 0.8661417322834646
        },
        {
          "duration": 0.10526300000000077,
          "durationTicks": 32,
          "midi": 67,
          "name": "G4",
          "ticks": 4560,
          "time": 14.9999775,
          "velocity": 0.8661417322834646
        },
        {
          "duration": 0.09539459375000092,
          "durationTicks": 29,
          "midi": 65,
          "name": "F4",
          "ticks": 4656,
          "time": 15.315766499999999,
          "velocity": 0.6299212598425197
        },
        {
          "duration": 0.08881565625000043,
          "durationTicks": 27,
          "midi": 53,
          "name": "F3",
          "ticks": 4656,
          "time": 15.315766499999999,
          "velocity": 0.7086614173228346
        },
        {
          "duration": 1.2631560000000022,
          "durationTicks": 384,
          "midi": 63,
          "name": "D#4",
          "ticks": 4656,
          "time": 15.315766499999999,
          "velocity": 0.3937007874015748
        },
        {
          "duration": 0.08881565625000043,
          "durationTicks": 27,
          "midi": 48,
          "name": "C3",
          "ticks": 4752,
          "time": 15.6315555,
          "velocity": 0.7086614173228346
        },
        {
          "duration": 0.08881565625000043,
          "durationTicks": 27,
          "midi": 52,
          "name": "E3",
          "ticks": 4800,
          "time": 15.789449999999999,
          "velocity": 0.7086614173228346
        },
        {
          "duration": 0.08881565624999865,
          "durationTicks": 27,
          "midi": 53,
          "name": "F3",
          "ticks": 4848,
          "time": 15.9473445,
          "velocity": 0.7086614173228346
        },
        {
          "duration": 0.08881565624999865,
          "durationTicks": 27,
          "midi": 52,
          "name": "E3",
          "ticks": 4896,
          "time": 16.105239,
          "velocity": 0.7086614173228346
        },
        {
          "duration": 0.08881565624999865,
          "durationTicks": 27,
          "midi": 53,
          "name": "F3",
          "ticks": 4942,
          "time": 16.2565545625,
          "velocity": 0.7086614173228346
        },
        {
          "duration": 0.08881565624999865,
          "durationTicks": 27,
          "midi": 55,
          "name": "G3",
          "ticks": 4992,
          "time": 16.421028,
          "velocity": 0.7086614173228346
        },
        {
          "duration": 0.6315779999999975,
          "durationTicks": 192,
          "midi": 62,
          "name": "D4",
          "ticks": 5040,
          "time": 16.5789225,
          "velocity": 0.3937007874015748
        },
        {
          "duration": 0.167762906250001,
          "durationTicks": 51,
          "midi": 56,
          "name": "G#3",
          "ticks": 5042,
          "time": 16.5855014375,
          "velocity": 0.6771653543307087
        },
        {
          "duration": 0.08881565624999865,
          "durationTicks": 27,
          "midi": 60,
          "name": "C4",
          "ticks": 5043,
          "time": 16.58879090625,
          "velocity": 0.5826771653543307
        },
        {
          "duration": 0.0888156562500022,
          "durationTicks": 27,
          "midi": 55,
          "name": "G3",
          "ticks": 5088,
          "time": 16.736817,
          "velocity": 0.7086614173228346
        },
        {
          "duration": 0.10197353124999964,
          "durationTicks": 31,
          "midi": 60,
          "name": "C4",
          "ticks": 5092,
          "time": 16.749974875,
          "velocity": 0.6456692913385826
        },
        {
          "duration": 0.08881565624999865,
          "durationTicks": 27,
          "midi": 56,
          "name": "G#3",
          "ticks": 5136,
          "time": 16.8947115,
          "velocity": 0.7086614173228346
        },
        {
          "duration": 0.08881565624999865,
          "durationTicks": 27,
          "midi": 60,
          "name": "C4",
          "ticks": 5184,
          "time": 17.052606,
          "velocity": 0.7086614173228346
        },
        {
          "duration": 0.6315780000000011,
          "durationTicks": 192,
          "midi": 60,
          "name": "C4",
          "ticks": 5232,
          "time": 17.2105005,
          "velocity": 0.3937007874015748
        },
        {
          "duration": 0.06907884374999895,
          "durationTicks": 21,
          "midi": 65,
          "name": "F4",
          "ticks": 5233,
          "time": 17.21378996875,
          "velocity": 0.5905511811023622
        },
        {
          "duration": 0.06249990625000024,
          "durationTicks": 19,
          "midi": 50,
          "name": "D3",
          "ticks": 5423,
          "time": 17.83878903125,
          "velocity": 0.5984251968503937
        },
        {
          "duration": 0.6315780000000011,
          "durationTicks": 192,
          "midi": 59,
          "name": "B3",
          "ticks": 5424,
          "time": 17.8420785,
          "velocity": 0.4330708661417323
        },
        {
          "duration": 0.09210512499999979,
          "durationTicks": 28,
          "midi": 59,
          "name": "B3",
          "ticks": 5618,
          "time": 18.4802354375,
          "velocity": 0.5905511811023622
        },
        {
          "duration": 0.06578937499999782,
          "durationTicks": 20,
          "midi": 50,
          "name": "D3",
          "ticks": 5618,
          "time": 18.4802354375,
          "velocity": 0.6062992125984252
        },
        {
          "duration": 0.09868406250000206,
          "durationTicks": 30,
          "midi": 59,
          "name": "B3",
          "ticks": 5808,
          "time": 19.105234499999998,
          "velocity": 0.6299212598425197
        },
        {
          "duration": 0.08552618749999752,
          "durationTicks": 26,
          "midi": 53,
          "name": "F3",
          "ticks": 5810,
          "time": 19.1118134375,
          "velocity": 0.5905511811023622
        },
        {
          "duration": 0.0789472499999988,
          "durationTicks": 24,
          "midi": 43,
          "name": "G2",
          "ticks": 5856,
          "time": 19.263129,
          "velocity": 1
        },
        {
          "duration": 0.0789472499999988,
          "durationTicks": 24,
          "midi": 43,
          "name": "G2",
          "ticks": 5904,
          "time": 19.4210235,
          "velocity": 1
        },
        {
          "duration": 0.07894725000000236,
          "durationTicks": 24,
          "midi": 43,
          "name": "G2",
          "ticks": 5952,
          "time": 19.578917999999998,
          "velocity": 1
        },
        {
          "duration": 0.07565778124999767,
          "durationTicks": 23,
          "midi": 51,
          "name": "D#3",
          "ticks": 5999,
          "time": 19.73352303125,
          "velocity": 0.6062992125984252
        },
        {
          "duration": 0.10526300000000077,
          "durationTicks": 32,
          "midi": 60,
          "name": "C4",
          "ticks": 6000,
          "time": 19.7368125,
          "velocity": 0.6377952755905512
        },
        {
          "duration": 0.0789472499999988,
          "durationTicks": 24,
          "midi": 48,
          "name": "C3",
          "ticks": 6000,
          "time": 19.7368125,
          "velocity": 1
        },
        {
          "duration": 0.0592104374999991,
          "durationTicks": 18,
          "midi": 50,
          "name": "D3",
          "ticks": 6192,
          "time": 20.3683905,
          "velocity": 0.5984251968503937
        },
        {
          "duration": 0.31578899999999877,
          "durationTicks": 96,
          "midi": 59,
          "name": "B3",
          "ticks": 6192,
          "time": 20.3683905,
          "velocity": 0.5826771653543307
        },
        {
          "duration": 0.09210512500000334,
          "durationTicks": 28,
          "midi": 59,
          "name": "B3",
          "ticks": 6386,
          "time": 21.006547437499997,
          "velocity": 0.5905511811023622
        },
        {
          "duration": 0.06578937500000492,
          "durationTicks": 20,
          "midi": 50,
          "name": "D3",
          "ticks": 6386,
          "time": 21.006547437499997,
          "velocity": 0.6062992125984252
        },
        {
          "duration": 0.0986840624999985,
          "durationTicks": 30,
          "midi": 59,
          "name": "B3",
          "ticks": 6576,
          "time": 21.6315465,
          "velocity": 0.6299212598425197
        },
        {
          "duration": 0.08552618750000462,
          "durationTicks": 26,
          "midi": 53,
          "name": "F3",
          "ticks": 6578,
          "time": 21.638125437499998,
          "velocity": 0.5905511811023622
        },
        {
          "duration": 0.0789472499999988,
          "durationTicks": 24,
          "midi": 43,
          "name": "G2",
          "ticks": 6624,
          "time": 21.789441,
          "velocity": 1
        },
        {
          "duration": 0.07894725000000236,
          "durationTicks": 24,
          "midi": 43,
          "name": "G2",
          "ticks": 6672,
          "time": 21.947335499999998,
          "velocity": 1
        },
        {
          "duration": 0.0789472499999988,
          "durationTicks": 24,
          "midi": 43,
          "name": "G2",
          "ticks": 6720,
          "time": 22.10523,
          "velocity": 1
        },
        {
          "duration": 0.07565778125000122,
          "durationTicks": 23,
          "midi": 51,
          "name": "D#3",
          "ticks": 6767,
          "time": 22.25983503125,
          "velocity": 0.6062992125984252
        },
        {
          "duration": 0.10526299999999722,
          "durationTicks": 32,
          "midi": 60,
          "name": "C4",
          "ticks": 6768,
          "time": 22.2631245,
          "velocity": 0.6377952755905512
        },
        {
          "duration": 0.0789472499999988,
          "durationTicks": 24,
          "midi": 48,
          "name": "C3",
          "ticks": 6768,
          "time": 22.2631245,
          "velocity": 1
        },
        {
          "duration": 0.10526300000000077,
          "durationTicks": 32,
          "midi": 67,
          "name": "G4",
          "ticks": 6816,
          "time": 22.421018999999998,
          "velocity": 0.6377952755905512
        },
        {
          "duration": 0.10526299999999722,
          "durationTicks": 32,
          "midi": 67,
          "name": "G4",
          "ticks": 6864,
          "time": 22.5789135,
          "velocity": 0.6377952755905512
        },
        {
          "duration": 0.10526299999999722,
          "durationTicks": 32,
          "midi": 72,
          "name": "C5",
          "ticks": 6912,
          "time": 22.736808,
          "velocity": 0.6377952755905512
        },
        {
          "duration": 0.059210437500002655,
          "durationTicks": 18,
          "midi": 48,
          "name": "C3",
          "ticks": 6960,
          "time": 22.894702499999998,
          "velocity": 0.5984251968503937
        },
        {
          "duration": 0.10526300000000077,
          "durationTicks": 32,
          "midi": 59,
          "name": "B3",
          "ticks": 6960,
          "time": 22.894702499999998,
          "velocity": 0.6377952755905512
        },
        {
          "duration": 0.10526300000000077,
          "durationTicks": 32,
          "midi": 65,
          "name": "F4",
          "ticks": 6960,
          "time": 22.894702499999998,
          "velocity": 0.6377952755905512
        },
        {
          "duration": 0.10526299999999722,
          "durationTicks": 32,
          "midi": 64,
          "name": "E4",
          "ticks": 7008,
          "time": 23.052597,
          "velocity": 0.6377952755905512
        },
        {
          "duration": 0.10526299999999722,
          "durationTicks": 32,
          "midi": 65,
          "name": "F4",
          "ticks": 7056,
          "time": 23.2104915,
          "velocity": 0.6377952755905512
        },
        {
          "duration": 0.10526300000000077,
          "durationTicks": 32,
          "midi": 62,
          "name": "D4",
          "ticks": 7104,
          "time": 23.368385999999997,
          "velocity": 0.6377952755905512
        },
        {
          "duration": 0.09539459375000092,
          "durationTicks": 29,
          "midi": 59,
          "name": "B3",
          "ticks": 7153,
          "time": 23.52956996875,
          "velocity": 0.5905511811023622
        },
        {
          "duration": 0.06578937500000492,
          "durationTicks": 20,
          "midi": 48,
          "name": "C3",
          "ticks": 7154,
          "time": 23.532859437499997,
          "velocity": 0.6062992125984252
        },
        {
          "duration": 0.10526299999999722,
          "durationTicks": 32,
          "midi": 55,
          "name": "G3",
          "ticks": 7200,
          "time": 23.684175,
          "velocity": 0.6377952755905512
        },
        {
          "duration": 0.10526300000000077,
          "durationTicks": 32,
          "midi": 59,
          "name": "B3",
          "ticks": 7248,
          "time": 23.842069499999997,
          "velocity": 0.6377952755905512
        },
        {
          "duration": 0.10526299999999722,
          "durationTicks": 32,
          "midi": 62,
          "name": "D4",
          "ticks": 7296,
          "time": 23.999964,
          "velocity": 0.6377952755905512
        },
        {
          "duration": 0.09539459374999737,
          "durationTicks": 29,
          "midi": 60,
          "name": "C4",
          "ticks": 7344,
          "time": 24.1578585,
          "velocity": 0.6299212598425197
        },
        {
          "duration": 0.10526299999999722,
          "durationTicks": 32,
          "midi": 67,
          "name": "G4",
          "ticks": 7344,
          "time": 24.1578585,
          "velocity": 0.6377952755905512
        },
        {
          "duration": 0.08552618750000107,
          "durationTicks": 26,
          "midi": 48,
          "name": "C3",
          "ticks": 7346,
          "time": 24.1644374375,
          "velocity": 0.5905511811023622
        },
        {
          "duration": 0.10526300000000077,
          "durationTicks": 32,
          "midi": 66,
          "name": "F#4",
          "ticks": 7392,
          "time": 24.315752999999997,
          "velocity": 0.6377952755905512
        },
        {
          "duration": 0.10526300000000077,
          "durationTicks": 32,
          "midi": 67,
          "name": "G4",
          "ticks": 7440,
          "time": 24.4736475,
          "velocity": 0.6377952755905512
        },
        {
          "duration": 0.10526299999999722,
          "durationTicks": 32,
          "midi": 63,
          "name": "D#4",
          "ticks": 7488,
          "time": 24.631542,
          "velocity": 0.6377952755905512
        },
        {
          "duration": 0.07894725000000236,
          "durationTicks": 24,
          "midi": 48,
          "name": "C3",
          "ticks": 7535,
          "time": 24.786147031249996,
          "velocity": 0.6062992125984252
        },
        {
          "duration": 0.10855246875000191,
          "durationTicks": 33,
          "midi": 60,
          "name": "C4",
          "ticks": 7535,
          "time": 24.786147031249996,
          "velocity": 0.6377952755905512
        },
        {
          "duration": 0.10526300000000077,
          "durationTicks": 32,
          "midi": 55,
          "name": "G3",
          "ticks": 7584,
          "time": 24.947331,
          "velocity": 0.6377952755905512
        },
        {
          "duration": 0.10526299999999722,
          "durationTicks": 32,
          "midi": 63,
          "name": "D#4",
          "ticks": 7632,
          "time": 25.1052255,
          "velocity": 0.6377952755905512
        },
        {
          "duration": 0.10526299999999722,
          "durationTicks": 32,
          "midi": 67,
          "name": "G4",
          "ticks": 7680,
          "time": 25.26312,
          "velocity": 0.6377952755905512
        },
        {
          "duration": 0.0592104374999991,
          "durationTicks": 18,
          "midi": 48,
          "name": "C3",
          "ticks": 7728,
          "time": 25.4210145,
          "velocity": 0.5984251968503937
        },
        {
          "duration": 0.10526300000000077,
          "durationTicks": 32,
          "midi": 60,
          "name": "C4",
          "ticks": 7728,
          "time": 25.4210145,
          "velocity": 0.6377952755905512
        },
        {
          "duration": 0.10526300000000077,
          "durationTicks": 32,
          "midi": 68,
          "name": "G#4",
          "ticks": 7728,
          "time": 25.4210145,
          "velocity": 0.6377952755905512
        },
        {
          "duration": 0.10526299999999722,
          "durationTicks": 32,
          "midi": 60,
          "name": "C4",
          "ticks": 7776,
          "time": 25.578909,
          "velocity": 0.6377952755905512
        },
        {
          "duration": 0.10526299999999722,
          "durationTicks": 32,
          "midi": 65,
          "name": "F4",
          "ticks": 7824,
          "time": 25.7368035,
          "velocity": 0.6377952755905512
        },
        {
          "duration": 0.10526300000000077,
          "durationTicks": 32,
          "midi": 68,
          "name": "G#4",
          "ticks": 7872,
          "time": 25.894697999999998,
          "velocity": 0.6377952755905512
        },
        {
          "duration": 0.09539459374999737,
          "durationTicks": 29,
          "midi": 70,
          "name": "A#4",
          "ticks": 7921,
          "time": 26.05588196875,
          "velocity": 0.5905511811023622
        },
        {
          "duration": 0.06578937500000137,
          "durationTicks": 20,
          "midi": 48,
          "name": "C3",
          "ticks": 7922,
          "time": 26.059171437499998,
          "velocity": 0.6062992125984252
        },
        {
          "duration": 0.10526299999999722,
          "durationTicks": 32,
          "midi": 60,
          "name": "C4",
          "ticks": 7968,
          "time": 26.210487,
          "velocity": 0.6377952755905512
        },
        {
          "duration": 0.10526300000000077,
          "durationTicks": 32,
          "midi": 64,
          "name": "E4",
          "ticks": 8016,
          "time": 26.368381499999998,
          "velocity": 0.6377952755905512
        },
        {
          "duration": 0.10526299999999722,
          "durationTicks": 32,
          "midi": 70,
          "name": "A#4",
          "ticks": 8064,
          "time": 26.526276,
          "velocity": 0.6377952755905512
        },
        {
          "duration": 0.10526299999999722,
          "durationTicks": 32,
          "midi": 72,
          "name": "C5",
          "ticks": 8112,
          "time": 26.6841705,
          "velocity": 0.6377952755905512
        },
        {
          "duration": 0.09539459374999737,
          "durationTicks": 29,
          "midi": 65,
          "name": "F4",
          "ticks": 8112,
          "time": 26.6841705,
          "velocity": 0.6299212598425197
        },
        {
          "duration": 0.08552618750000462,
          "durationTicks": 26,
          "midi": 48,
          "name": "C3",
          "ticks": 8114,
          "time": 26.690749437499996,
          "velocity": 0.5905511811023622
        },
        {
          "duration": 0.10526300000000077,
          "durationTicks": 32,
          "midi": 60,
          "name": "C4",
          "ticks": 8160,
          "time": 26.842064999999998,
          "velocity": 0.6377952755905512
        },
        {
          "duration": 0.10526299999999722,
          "durationTicks": 32,
          "midi": 65,
          "name": "F4",
          "ticks": 8208,
          "time": 26.9999595,
          "velocity": 0.6377952755905512
        },
        {
          "duration": 0.10526299999999722,
          "durationTicks": 32,
          "midi": 72,
          "name": "C5",
          "ticks": 8256,
          "time": 27.157854,
          "velocity": 0.6377952755905512
        },
        {
          "duration": 0.0789472499999988,
          "durationTicks": 24,
          "midi": 48,
          "name": "C3",
          "ticks": 8303,
          "time": 27.312459031249997,
          "velocity": 0.6062992125984252
        },
        {
          "duration": 0.10855246875000191,
          "durationTicks": 33,
          "midi": 60,
          "name": "C4",
          "ticks": 8303,
          "time": 27.312459031249997,
          "velocity": 0.6377952755905512
        },
        {
          "duration": 0.10526300000000077,
          "durationTicks": 32,
          "midi": 74,
          "name": "D5",
          "ticks": 8304,
          "time": 27.315748499999998,
          "velocity": 0.6377952755905512
        },
        {
          "duration": 0.10526299999999722,
          "durationTicks": 32,
          "midi": 67,
          "name": "G4",
          "ticks": 8352,
          "time": 27.473643,
          "velocity": 0.6377952755905512
        },
        {
          "duration": 0.10526299999999722,
          "durationTicks": 32,
          "midi": 70,
          "name": "A#4",
          "ticks": 8400,
          "time": 27.6315375,
          "velocity": 0.6377952755905512
        },
        {
          "duration": 0.10526300000000077,
          "durationTicks": 32,
          "midi": 76,
          "name": "E5",
          "ticks": 8448,
          "time": 27.789431999999998,
          "velocity": 0.6377952755905512
        },
        {
          "duration": 0.10526299999999722,
          "durationTicks": 32,
          "midi": 77,
          "name": "F5",
          "ticks": 8496,
          "time": 27.9473265,
          "velocity": 0.6377952755905512
        },
        {
          "duration": 0.09539459374999737,
          "durationTicks": 29,
          "midi": 68,
          "name": "G#4",
          "ticks": 8496,
          "time": 27.9473265,
          "velocity": 0.6299212598425197
        },
        {
          "duration": 0.08552618750000107,
          "durationTicks": 26,
          "midi": 48,
          "name": "C3",
          "ticks": 8498,
          "time": 27.953905437499998,
          "velocity": 0.5905511811023622
        },
        {
          "duration": 0.10526299999999722,
          "durationTicks": 32,
          "midi": 68,
          "name": "G#4",
          "ticks": 8544,
          "time": 28.105221,
          "velocity": 0.6377952755905512
        },
        {
          "duration": 0.10526300000000077,
          "durationTicks": 32,
          "midi": 72,
          "name": "C5",
          "ticks": 8592,
          "time": 28.263115499999998,
          "velocity": 0.6377952755905512
        },
        {
          "duration": 0.10526299999999722,
          "durationTicks": 32,
          "midi": 77,
          "name": "F5",
          "ticks": 8640,
          "time": 28.42101,
          "velocity": 0.6377952755905512
        },
        {
          "duration": 0.0789472499999988,
          "durationTicks": 24,
          "midi": 48,
          "name": "C3",
          "ticks": 8687,
          "time": 28.57561503125,
          "velocity": 0.6062992125984252
        },
        {
          "duration": 0.10855246874999835,
          "durationTicks": 33,
          "midi": 60,
          "name": "C4",
          "ticks": 8687,
          "time": 28.57561503125,
          "velocity": 0.6377952755905512
        },
        {
          "duration": 0.10526299999999722,
          "durationTicks": 32,
          "midi": 79,
          "name": "G5",
          "ticks": 8688,
          "time": 28.5789045,
          "velocity": 0.6377952755905512
        },
        {
          "duration": 0.10526300000000077,
          "durationTicks": 32,
          "midi": 68,
          "name": "G#4",
          "ticks": 8736,
          "time": 28.736798999999998,
          "velocity": 0.6377952755905512
        },
        {
          "duration": 0.10526299999999722,
          "durationTicks": 32,
          "midi": 74,
          "name": "D5",
          "ticks": 8784,
          "time": 28.8946935,
          "velocity": 0.6377952755905512
        },
        {
          "duration": 0.10526299999999722,
          "durationTicks": 32,
          "midi": 79,
          "name": "G5",
          "ticks": 8832,
          "time": 29.052588,
          "velocity": 0.6377952755905512
        },
        {
          "duration": 0.05592096874999797,
          "durationTicks": 17,
          "midi": 60,
          "name": "C4",
          "ticks": 8880,
          "time": 29.210482499999998,
          "velocity": 0.5826771653543307
        },
        {
          "duration": 0.059210437500002655,
          "durationTicks": 18,
          "midi": 48,
          "name": "C3",
          "ticks": 8880,
          "time": 29.210482499999998,
          "velocity": 0.5984251968503937
        },
        {
          "duration": 1.2631560000000022,
          "durationTicks": 384,
          "midi": 55,
          "name": "G3",
          "ticks": 8880,
          "time": 29.210482499999998,
          "velocity": 0.5511811023622047
        },
        {
          "duration": 1.2631560000000022,
          "durationTicks": 384,
          "midi": 63,
          "name": "D#4",
          "ticks": 8880,
          "time": 29.210482499999998,
          "velocity": 0.47244094488188976
        },
        {
          "duration": 0.09210512499999979,
          "durationTicks": 28,
          "midi": 60,
          "name": "C4",
          "ticks": 9074,
          "time": 29.848639437499997,
          "velocity": 0.5905511811023622
        },
        {
          "duration": 0.06578937500000137,
          "durationTicks": 20,
          "midi": 48,
          "name": "C3",
          "ticks": 9074,
          "time": 29.848639437499997,
          "velocity": 0.6062992125984252
        },
        {
          "duration": 0.6315779999999975,
          "durationTicks": 192,
          "midi": 58,
          "name": "A#3",
          "ticks": 9264,
          "time": 30.4736385,
          "velocity": 0.47244094488188976
        },
        {
          "duration": 1.2631559999999986,
          "durationTicks": 384,
          "midi": 67,
          "name": "G4",
          "ticks": 9264,
          "time": 30.4736385,
          "velocity": 0.47244094488188976
        },
        {
          "duration": 0.09210512499999979,
          "durationTicks": 28,
          "midi": 60,
          "name": "C4",
          "ticks": 9264,
          "time": 30.4736385,
          "velocity": 0.5905511811023622
        },
        {
          "duration": 0.08552618750000107,
          "durationTicks": 26,
          "midi": 48,
          "name": "C3",
          "ticks": 9266,
          "time": 30.4802174375,
          "velocity": 0.5905511811023622
        },
        {
          "duration": 0.07565778125000477,
          "durationTicks": 23,
          "midi": 48,
          "name": "C3",
          "ticks": 9455,
          "time": 31.101927031249996,
          "velocity": 0.6062992125984252
        },
        {
          "duration": 0.6315780000000011,
          "durationTicks": 192,
          "midi": 57,
          "name": "A3",
          "ticks": 9456,
          "time": 31.105216499999997,
          "velocity": 0.47244094488188976
        },
        {
          "duration": 0.09210512500000334,
          "durationTicks": 28,
          "midi": 60,
          "name": "C4",
          "ticks": 9456,
          "time": 31.105216499999997,
          "velocity": 0.5905511811023622
        },
        {
          "duration": 0.0592104374999991,
          "durationTicks": 18,
          "midi": 43,
          "name": "G2",
          "ticks": 9648,
          "time": 31.7367945,
          "velocity": 0.5984251968503937
        },
        {
          "duration": 1.2631559999999986,
          "durationTicks": 384,
          "midi": 53,
          "name": "F3",
          "ticks": 9648,
          "time": 31.7367945,
          "velocity": 0.5511811023622047
        },
        {
          "duration": 1.2631559999999986,
          "durationTicks": 384,
          "midi": 62,
          "name": "D4",
          "ticks": 9648,
          "time": 31.7367945,
          "velocity": 0.47244094488188976
        },
        {
          "duration": 0.05592096874999797,
          "durationTicks": 17,
          "midi": 59,
          "name": "B3",
          "ticks": 9648,
          "time": 31.7367945,
          "velocity": 0.5826771653543307
        },
        {
          "duration": 0.06578937500000848,
          "durationTicks": 20,
          "midi": 43,
          "name": "G2",
          "ticks": 9842,
          "time": 32.374951437499995,
          "velocity": 0.6062992125984252
        },
        {
          "duration": 0.09210512500000334,
          "durationTicks": 28,
          "midi": 59,
          "name": "B3",
          "ticks": 9842,
          "time": 32.374951437499995,
          "velocity": 0.5905511811023622
        },
        {
          "duration": 1.2631560000000022,
          "durationTicks": 384,
          "midi": 67,
          "name": "G4",
          "ticks": 10032,
          "time": 32.9999505,
          "velocity": 0.47244094488188976
        },
        {
          "duration": 0.09210512500000334,
          "durationTicks": 28,
          "midi": 59,
          "name": "B3",
          "ticks": 10032,
          "time": 32.9999505,
          "velocity": 0.5905511811023622
        },
        {
          "duration": 0.6315780000000046,
          "durationTicks": 192,
          "midi": 56,
          "name": "G#3",
          "ticks": 10032,
          "time": 32.9999505,
          "velocity": 0.47244094488188976
        },
        {
          "duration": 0.08552618750000107,
          "durationTicks": 26,
          "midi": 43,
          "name": "G2",
          "ticks": 10034,
          "time": 33.0065294375,
          "velocity": 0.5905511811023622
        },
        {
          "duration": 0.07565778125000122,
          "durationTicks": 23,
          "midi": 43,
          "name": "G2",
          "ticks": 10223,
          "time": 33.62823903125,
          "velocity": 0.6062992125984252
        },
        {
          "duration": 0.6315779999999975,
          "durationTicks": 192,
          "midi": 53,
          "name": "F3",
          "ticks": 10224,
          "time": 33.6315285,
          "velocity": 0.47244094488188976
        },
        {
          "duration": 0.09210512499999624,
          "durationTicks": 28,
          "midi": 59,
          "name": "B3",
          "ticks": 10224,
          "time": 33.6315285,
          "velocity": 0.5905511811023622
        },
        {
          "duration": 0.055920968749994415,
          "durationTicks": 17,
          "midi": 60,
          "name": "C4",
          "ticks": 10416,
          "time": 34.2631065,
          "velocity": 0.5826771653543307
        },
        {
          "duration": 0.6315779999999975,
          "durationTicks": 192,
          "midi": 54,
          "name": "F#3",
          "ticks": 10416,
          "time": 34.2631065,
          "velocity": 0.5511811023622047
        },
        {
          "duration": 0.0592104374999991,
          "durationTicks": 18,
          "midi": 45,
          "name": "A2",
          "ticks": 10416,
          "time": 34.2631065,
          "velocity": 0.5984251968503937
        },
        {
          "duration": 0.6315779999999975,
          "durationTicks": 192,
          "midi": 63,
          "name": "D#4",
          "ticks": 10416,
          "time": 34.2631065,
          "velocity": 0.5511811023622047
        },
        {
          "duration": 0.6315780000000046,
          "durationTicks": 192,
          "midi": 66,
          "name": "F#4",
          "ticks": 10608,
          "time": 34.8946845,
          "velocity": 0.5511811023622047
        },
        {
          "duration": 0.6315780000000046,
          "durationTicks": 192,
          "midi": 57,
          "name": "A3",
          "ticks": 10608,
          "time": 34.8946845,
          "velocity": 0.5511811023622047
        },
        {
          "duration": 0.06578937500000137,
          "durationTicks": 20,
          "midi": 45,
          "name": "A2",
          "ticks": 10610,
          "time": 34.9012634375,
          "velocity": 0.6062992125984252
        },
        {
          "duration": 0.09210512499999624,
          "durationTicks": 28,
          "midi": 60,
          "name": "C4",
          "ticks": 10610,
          "time": 34.9012634375,
          "velocity": 0.5905511811023622
        },
        {
          "duration": 0.09210512499999624,
          "durationTicks": 28,
          "midi": 63,
          "name": "D#4",
          "ticks": 10800,
          "time": 35.5262625,
          "velocity": 0.5905511811023622
        },
        {
          "duration": 0.6315779999999975,
          "durationTicks": 192,
          "midi": 69,
          "name": "A4",
          "ticks": 10800,
          "time": 35.5262625,
          "velocity": 0.5511811023622047
        },
        {
          "duration": 0.6315779999999975,
          "durationTicks": 192,
          "midi": 60,
          "name": "C4",
          "ticks": 10800,
          "time": 35.5262625,
          "velocity": 0.47244094488188976
        },
        {
          "duration": 0.08552618750000107,
          "durationTicks": 26,
          "midi": 45,
          "name": "A2",
          "ticks": 10802,
          "time": 35.5328414375,
          "velocity": 0.5905511811023622
        },
        {
          "duration": 0.07565778125000833,
          "durationTicks": 23,
          "midi": 45,
          "name": "A2",
          "ticks": 10991,
          "time": 36.154551031249994,
          "velocity": 0.6062992125984252
        },
        {
          "duration": 0.6315779999999975,
          "durationTicks": 192,
          "midi": 54,
          "name": "F#3",
          "ticks": 10992,
          "time": 36.1578405,
          "velocity": 0.47244094488188976
        },
        {
          "duration": 0.09210512500000334,
          "durationTicks": 28,
          "midi": 60,
          "name": "C4",
          "ticks": 10992,
          "time": 36.1578405,
          "velocity": 0.5905511811023622
        },
        {
          "duration": 0.6315779999999975,
          "durationTicks": 192,
          "midi": 72,
          "name": "C5",
          "ticks": 10992,
          "time": 36.1578405,
          "velocity": 0.5511811023622047
        },
        {
          "duration": 0.6315779999999975,
          "durationTicks": 192,
          "midi": 63,
          "name": "D#4",
          "ticks": 10992,
          "time": 36.1578405,
          "velocity": 0.5511811023622047
        },
        {
          "duration": 0.09210512500000334,
          "durationTicks": 28,
          "midi": 69,
          "name": "A4",
          "ticks": 11184,
          "time": 36.7894185,
          "velocity": 0.8661417322834646
        },
        {
          "duration": 0.09210512500000334,
          "durationTicks": 28,
          "midi": 60,
          "name": "C4",
          "ticks": 11184,
          "time": 36.7894185,
          "velocity": 0.8661417322834646
        },
        {
          "duration": 0.09210512500000334,
          "durationTicks": 28,
          "midi": 51,
          "name": "D#3",
          "ticks": 11184,
          "time": 36.7894185,
          "velocity": 0.8661417322834646
        },
        {
          "duration": 1.2631560000000022,
          "durationTicks": 384,
          "midi": 81,
          "name": "A5",
          "ticks": 11184,
          "time": 36.7894185,
          "velocity": 0.3937007874015748
        },
        {
          "duration": 0.09210512500000334,
          "durationTicks": 28,
          "midi": 70,
          "name": "A#4",
          "ticks": 11568,
          "time": 38.0525745,
          "velocity": 0.8661417322834646
        },
        {
          "duration": 0.09210512500000334,
          "durationTicks": 28,
          "midi": 62,
          "name": "D4",
          "ticks": 11568,
          "time": 38.0525745,
          "velocity": 0.8661417322834646
        },
        {
          "duration": 0.09210512500000334,
          "durationTicks": 28,
          "midi": 53,
          "name": "F3",
          "ticks": 11568,
          "time": 38.0525745,
          "velocity": 0.8661417322834646
        },
        {
          "duration": 0.7894725000000022,
          "durationTicks": 240,
          "midi": 82,
          "name": "A#5",
          "ticks": 11568,
          "time": 38.0525745,
          "velocity": 0.3937007874015748
        },
        {
          "duration": 0.09210512499999624,
          "durationTicks": 28,
          "midi": 58,
          "name": "A#3",
          "ticks": 11808,
          "time": 38.842047,
          "velocity": 0.5826771653543307
        },
        {
          "duration": 0.10526299999999367,
          "durationTicks": 32,
          "midi": 70,
          "name": "A#4",
          "ticks": 11808,
          "time": 38.842047,
          "velocity": 0.7086614173228346
        },
        {
          "duration": 0.10526300000000077,
          "durationTicks": 32,
          "midi": 58,
          "name": "A#3",
          "ticks": 11856,
          "time": 38.9999415,
          "velocity": 0.6456692913385826
        },
        {
          "duration": 0.10526300000000077,
          "durationTicks": 32,
          "midi": 70,
          "name": "A#4",
          "ticks": 11856,
          "time": 38.9999415,
          "velocity": 0.7086614173228346
        },
        {
          "duration": 0.10526300000000077,
          "durationTicks": 32,
          "midi": 58,
          "name": "A#3",
          "ticks": 11904,
          "time": 39.157835999999996,
          "velocity": 0.7086614173228346
        },
        {
          "duration": 0.10526300000000077,
          "durationTicks": 32,
          "midi": 70,
          "name": "A#4",
          "ticks": 11904,
          "time": 39.157835999999996,
          "velocity": 0.7086614173228346
        },
        {
          "duration": 0.6315779999999975,
          "durationTicks": 192,
          "midi": 63,
          "name": "D#4",
          "ticks": 11952,
          "time": 39.3157305,
          "velocity": 0.7086614173228346
        },
        {
          "duration": 0.6315779999999975,
          "durationTicks": 192,
          "midi": 51,
          "name": "D#3",
          "ticks": 11952,
          "time": 39.3157305,
          "velocity": 0.7086614173228346
        },
        {
          "duration": 0.6315779999999975,
          "durationTicks": 192,
          "midi": 53,
          "name": "F3",
          "ticks": 12144,
          "time": 39.9473085,
          "velocity": 0.7086614173228346
        },
        {
          "duration": 0.6315779999999975,
          "durationTicks": 192,
          "midi": 65,
          "name": "F4",
          "ticks": 12144,
          "time": 39.9473085,
          "velocity": 0.7086614173228346
        },
        {
          "duration": 1.2631560000000022,
          "durationTicks": 384,
          "midi": 58,
          "name": "A#3",
          "ticks": 12336,
          "time": 40.578886499999996,
          "velocity": 0.7086614173228346
        },
        {
          "duration": 1.2631560000000022,
          "durationTicks": 384,
          "midi": 46,
          "name": "A#2",
          "ticks": 12336,
          "time": 40.578886499999996,
          "velocity": 0.7086614173228346
        }
      ],
      "endOfTrackTicks": 12720
    },
    {
      "channel": 9,
      "controlChanges": {
        "7": [
          {
            "number": 7,
            "ticks": 0,
            "time": 0,
            "value": 1
          }
        ],
        "52": [
          {
            "number": 52,
            "ticks": 48,
            "time": 0.1578945,
            "value": 0.023622047244094488
          },
          {
            "number": 52,
            "ticks": 12695,
            "time": 41.75980578125,
            "value": 0.023622047244094488
          }
        ]
      },
      "pitchBends": [],
      "instrument": {
        "family": "drums",
        "number": 1
      },
      "name": "Drums               ",
      "notes": [
        {
          "duration": 0.006578937499999993,
          "durationTicks": 2,
          "midi": 49,
          "name": "C#3",
          "ticks": 46,
          "time": 0.1513155625,
          "velocity": 0.8740157480314961
        },
        {
          "duration": 0.006578937499999993,
          "durationTicks": 2,
          "midi": 35,
          "name": "B1",
          "ticks": 47,
          "time": 0.15460503125,
          "velocity": 0.968503937007874
        },
        {
          "duration": 0.10855246874999999,
          "durationTicks": 33,
          "midi": 69,
          "name": "A4",
          "ticks": 47,
          "time": 0.15460503125,
          "velocity": 0.7165354330708661
        },
        {
          "duration": 0.006578937499999993,
          "durationTicks": 2,
          "midi": 46,
          "name": "A#2",
          "ticks": 49,
          "time": 0.16118396875,
          "velocity": 0.8740157480314961
        },
        {
          "duration": 0.0065789375000000205,
          "durationTicks": 2,
          "midi": 51,
          "name": "D#3",
          "ticks": 52,
          "time": 0.17105237499999998,
          "velocity": 0.4881889763779528
        },
        {
          "duration": 0.0986840625,
          "durationTicks": 30,
          "midi": 69,
          "name": "A4",
          "ticks": 100,
          "time": 0.328946875,
          "velocity": 0.41732283464566927
        },
        {
          "duration": 0.009868406250000017,
          "durationTicks": 3,
          "midi": 51,
          "name": "D#3",
          "ticks": 142,
          "time": 0.4671045625,
          "velocity": 0.5275590551181102
        },
        {
          "duration": 0.15789449999999988,
          "durationTicks": 48,
          "midi": 69,
          "name": "A4",
          "ticks": 145,
          "time": 0.47697296875,
          "velocity": 0.5511811023622047
        },
        {
          "duration": 0.006578937499999993,
          "durationTicks": 2,
          "midi": 42,
          "name": "F#2",
          "ticks": 145,
          "time": 0.47697296875,
          "velocity": 0.889763779527559
        },
        {
          "duration": 0.006578937500000048,
          "durationTicks": 2,
          "midi": 57,
          "name": "A3",
          "ticks": 192,
          "time": 0.631578,
          "velocity": 0.8740157480314961
        },
        {
          "duration": 0.006578937500000048,
          "durationTicks": 2,
          "midi": 35,
          "name": "B1",
          "ticks": 196,
          "time": 0.644735875,
          "velocity": 0.8582677165354331
        },
        {
          "duration": 0.006578937500000048,
          "durationTicks": 2,
          "midi": 51,
          "name": "D#3",
          "ticks": 238,
          "time": 0.7828935625,
          "velocity": 0.4881889763779528
        },
        {
          "duration": 0.20394706250000005,
          "durationTicks": 62,
          "midi": 69,
          "name": "A4",
          "ticks": 241,
          "time": 0.7927619687499999,
          "velocity": 0.6850393700787402
        },
        {
          "duration": 0.006578937500000048,
          "durationTicks": 2,
          "midi": 42,
          "name": "F#2",
          "ticks": 241,
          "time": 0.7927619687499999,
          "velocity": 0.8740157480314961
        },
        {
          "duration": 0.062499906250000126,
          "durationTicks": 19,
          "midi": 38,
          "name": "D2",
          "ticks": 241,
          "time": 0.7927619687499999,
          "velocity": 0.984251968503937
        },
        {
          "duration": 0.00986840624999985,
          "durationTicks": 3,
          "midi": 51,
          "name": "D#3",
          "ticks": 335,
          "time": 1.10197203125,
          "velocity": 0.5039370078740157
        },
        {
          "duration": 0.006578937500000048,
          "durationTicks": 2,
          "midi": 42,
          "name": "F#2",
          "ticks": 336,
          "time": 1.1052615,
          "velocity": 0.8740157480314961
        },
        {
          "duration": 0.08552618749999996,
          "durationTicks": 26,
          "midi": 80,
          "name": "G#5",
          "ticks": 341,
          "time": 1.12170884375,
          "velocity": 0.3858267716535433
        },
        {
          "duration": 0.12828928125000005,
          "durationTicks": 39,
          "midi": 69,
          "name": "A4",
          "ticks": 388,
          "time": 1.276313875,
          "velocity": 0.6692913385826772
        },
        {
          "duration": 0.006578937499999826,
          "durationTicks": 2,
          "midi": 35,
          "name": "B1",
          "ticks": 388,
          "time": 1.276313875,
          "velocity": 0.8661417322834646
        },
        {
          "duration": 0.16118396874999985,
          "durationTicks": 49,
          "midi": 81,
          "name": "A5",
          "ticks": 394,
          "time": 1.2960506875,
          "velocity": 0.5039370078740157
        },
        {
          "duration": 0.006578937499999826,
          "durationTicks": 2,
          "midi": 35,
          "name": "B1",
          "ticks": 433,
          "time": 1.42433996875,
          "velocity": 0.9133858267716536
        },
        {
          "duration": 0.006578937499999826,
          "durationTicks": 2,
          "midi": 42,
          "name": "F#2",
          "ticks": 433,
          "time": 1.42433996875,
          "velocity": 0.8818897637795275
        },
        {
          "duration": 0.1052630000000001,
          "durationTicks": 32,
          "midi": 80,
          "name": "G#5",
          "ticks": 434,
          "time": 1.4276294374999998,
          "velocity": 0.3937007874015748
        },
        {
          "duration": 0.006578937500000048,
          "durationTicks": 2,
          "midi": 51,
          "name": "D#3",
          "ticks": 435,
          "time": 1.4309189062499998,
          "velocity": 0.44881889763779526
        },
        {
          "duration": 0.09210512500000001,
          "durationTicks": 28,
          "midi": 69,
          "name": "A4",
          "ticks": 484,
          "time": 1.592102875,
          "velocity": 0.6692913385826772
        },
        {
          "duration": 0.006578937499999826,
          "durationTicks": 2,
          "midi": 42,
          "name": "F#2",
          "ticks": 529,
          "time": 1.7401289687500001,
          "velocity": 0.8661417322834646
        },
        {
          "duration": 0.00986840624999985,
          "durationTicks": 3,
          "midi": 51,
          "name": "D#3",
          "ticks": 530,
          "time": 1.7434184375,
          "velocity": 0.4015748031496063
        },
        {
          "duration": 0.10855246874999991,
          "durationTicks": 33,
          "midi": 80,
          "name": "G#5",
          "ticks": 531,
          "time": 1.74670790625,
          "velocity": 0.3779527559055118
        },
        {
          "duration": 0.18421025000000002,
          "durationTicks": 56,
          "midi": 81,
          "name": "A5",
          "ticks": 579,
          "time": 1.90460240625,
          "velocity": 0.5039370078740157
        },
        {
          "duration": 0.09210512499999979,
          "durationTicks": 28,
          "midi": 69,
          "name": "A4",
          "ticks": 580,
          "time": 1.907891875,
          "velocity": 0.6692913385826772
        },
        {
          "duration": 0.06578937499999982,
          "durationTicks": 20,
          "midi": 38,
          "name": "D2",
          "ticks": 580,
          "time": 1.907891875,
          "velocity": 0.984251968503937
        },
        {
          "duration": 0.16447343749999987,
          "durationTicks": 50,
          "midi": 80,
          "name": "G#5",
          "ticks": 622,
          "time": 2.0460495625,
          "velocity": 0.3937007874015748
        },
        {
          "duration": 0.006578937499999604,
          "durationTicks": 2,
          "midi": 42,
          "name": "F#2",
          "ticks": 625,
          "time": 2.05591796875,
          "velocity": 0.8503937007874016
        },
        {
          "duration": 0.006578937500000048,
          "durationTicks": 2,
          "midi": 51,
          "name": "D#3",
          "ticks": 629,
          "time": 2.06907584375,
          "velocity": 0.4015748031496063
        },
        {
          "duration": 0.11184193749999993,
          "durationTicks": 34,
          "midi": 69,
          "name": "A4",
          "ticks": 676,
          "time": 2.223680875,
          "velocity": 0.6299212598425197
        },
        {
          "duration": 0.006578937500000048,
          "durationTicks": 2,
          "midi": 35,
          "name": "B1",
          "ticks": 676,
          "time": 2.223680875,
          "velocity": 0.7086614173228346
        },
        {
          "duration": 0.10526299999999988,
          "durationTicks": 32,
          "midi": 69,
          "name": "A4",
          "ticks": 721,
          "time": 2.37170696875,
          "velocity": 0.7165354330708661
        },
        {
          "duration": 0.003289468749999802,
          "durationTicks": 1,
          "midi": 42,
          "name": "F#2",
          "ticks": 721,
          "time": 2.37170696875,
          "velocity": 0.84251968503937
        },
        {
          "duration": 0.006578937500000048,
          "durationTicks": 2,
          "midi": 51,
          "name": "D#3",
          "ticks": 723,
          "time": 2.37828590625,
          "velocity": 0.4330708661417323
        },
        {
          "duration": 0.10855246875000013,
          "durationTicks": 33,
          "midi": 69,
          "name": "A4",
          "ticks": 772,
          "time": 2.5394698749999995,
          "velocity": 0.6299212598425197
        },
        {
          "duration": 0.006578937500000492,
          "durationTicks": 2,
          "midi": 35,
          "name": "B1",
          "ticks": 772,
          "time": 2.5394698749999995,
          "velocity": 0.8661417322834646
        },
        {
          "duration": 0.006578937500000492,
          "durationTicks": 2,
          "midi": 49,
          "name": "C#3",
          "ticks": 816,
          "time": 2.6842064999999997,
          "velocity": 0.8740157480314961
        },
        {
          "duration": 0.006578937500000492,
          "durationTicks": 2,
          "midi": 35,
          "name": "B1",
          "ticks": 817,
          "time": 2.6874959687499995,
          "velocity": 0.937007874015748
        },
        {
          "duration": 0.006578937500000492,
          "durationTicks": 2,
          "midi": 42,
          "name": "F#2",
          "ticks": 817,
          "time": 2.6874959687499995,
          "velocity": 0.8818897637795275
        },
        {
          "duration": 0.003289468750000246,
          "durationTicks": 1,
          "midi": 51,
          "name": "D#3",
          "ticks": 820,
          "time": 2.697364375,
          "velocity": 0.47244094488188976
        },
        {
          "duration": 0.06249990625000024,
          "durationTicks": 19,
          "midi": 38,
          "name": "D2",
          "ticks": 865,
          "time": 2.84539046875,
          "velocity": 0.6377952755905512
        },
        {
          "duration": 0.07236831250000053,
          "durationTicks": 22,
          "midi": 69,
          "name": "A4",
          "ticks": 868,
          "time": 2.8552588749999996,
          "velocity": 0.5590551181102362
        },
        {
          "duration": 0.006578937500000048,
          "durationTicks": 2,
          "midi": 46,
          "name": "A#2",
          "ticks": 912,
          "time": 2.9999955,
          "velocity": 0.6299212598425197
        },
        {
          "duration": 0.11184193750000038,
          "durationTicks": 34,
          "midi": 69,
          "name": "A4",
          "ticks": 913,
          "time": 3.0032849687499996,
          "velocity": 0.6692913385826772
        },
        {
          "duration": 0.003289468749999802,
          "durationTicks": 1,
          "midi": 51,
          "name": "D#3",
          "ticks": 915,
          "time": 3.0098639062499997,
          "velocity": 0.47244094488188976
        },
        {
          "duration": 0.006578937500000048,
          "durationTicks": 2,
          "midi": 57,
          "name": "A3",
          "ticks": 960,
          "time": 3.15789,
          "velocity": 0.8740157480314961
        },
        {
          "duration": 0.006578937500000048,
          "durationTicks": 2,
          "midi": 35,
          "name": "B1",
          "ticks": 964,
          "time": 3.1710478749999997,
          "velocity": 1
        },
        {
          "duration": 0.15460503125000002,
          "durationTicks": 47,
          "midi": 69,
          "name": "A4",
          "ticks": 1009,
          "time": 3.3190739687499997,
          "velocity": 0.6614173228346457
        },
        {
          "duration": 0.006578937500000048,
          "durationTicks": 2,
          "midi": 42,
          "name": "F#2",
          "ticks": 1009,
          "time": 3.3190739687499997,
          "velocity": 0.9133858267716536
        },
        {
          "duration": 0.06578937500000004,
          "durationTicks": 20,
          "midi": 38,
          "name": "D2",
          "ticks": 1009,
          "time": 3.3190739687499997,
          "velocity": 0.984251968503937
        },
        {
          "duration": 0.006578937500000048,
          "durationTicks": 2,
          "midi": 51,
          "name": "D#3",
          "ticks": 1014,
          "time": 3.3355213125,
          "velocity": 0.3858267716535433
        },
        {
          "duration": 0.006578937500000048,
          "durationTicks": 2,
          "midi": 42,
          "name": "F#2",
          "ticks": 1105,
          "time": 3.63486296875,
          "velocity": 0.8661417322834646
        },
        {
          "duration": 0.006578937500000048,
          "durationTicks": 2,
          "midi": 51,
          "name": "D#3",
          "ticks": 1105,
          "time": 3.63486296875,
          "velocity": 0.4566929133858268
        },
        {
          "duration": 0.12171034375000023,
          "durationTicks": 37,
          "midi": 80,
          "name": "G#5",
          "ticks": 1108,
          "time": 3.6447313749999997,
          "velocity": 0.4015748031496063
        },
        {
          "duration": 0.23026281250000036,
          "durationTicks": 70,
          "midi": 81,
          "name": "A5",
          "ticks": 1156,
          "time": 3.8026258749999995,
          "velocity": 0.5039370078740157
        },
        {
          "duration": 0.10197353125000053,
          "durationTicks": 31,
          "midi": 69,
          "name": "A4",
          "ticks": 1156,
          "time": 3.8026258749999995,
          "velocity": 0.6456692913385826
        },
        {
          "duration": 0.006578937500000492,
          "durationTicks": 2,
          "midi": 35,
          "name": "B1",
          "ticks": 1156,
          "time": 3.8026258749999995,
          "velocity": 0.8661417322834646
        },
        {
          "duration": 0.006578937500000492,
          "durationTicks": 2,
          "midi": 42,
          "name": "F#2",
          "ticks": 1201,
          "time": 3.9506519687499995,
          "velocity": 0.8740157480314961
        },
        {
          "duration": 0.0032894687500006903,
          "durationTicks": 1,
          "midi": 35,
          "name": "B1",
          "ticks": 1201,
          "time": 3.9506519687499995,
          "velocity": 0.9133858267716536
        },
        {
          "duration": 0.006578937499999604,
          "durationTicks": 2,
          "midi": 51,
          "name": "D#3",
          "ticks": 1202,
          "time": 3.9539414375,
          "velocity": 0.4409448818897638
        },
        {
          "duration": 0.09210512500000068,
          "durationTicks": 28,
          "midi": 80,
          "name": "G#5",
          "ticks": 1204,
          "time": 3.9605203749999998,
          "velocity": 0.4015748031496063
        },
        {
          "duration": 0.07565778125000033,
          "durationTicks": 23,
          "midi": 69,
          "name": "A4",
          "ticks": 1251,
          "time": 4.11512540625,
          "velocity": 0.6141732283464567
        },
        {
          "duration": 0.10526299999999988,
          "durationTicks": 32,
          "midi": 69,
          "name": "A4",
          "ticks": 1297,
          "time": 4.26644096875,
          "velocity": 0.6850393700787402
        },
        {
          "duration": 0.006578937500000492,
          "durationTicks": 2,
          "midi": 42,
          "name": "F#2",
          "ticks": 1297,
          "time": 4.26644096875,
          "velocity": 0.8661417322834646
        },
        {
          "duration": 0.006578937499999604,
          "durationTicks": 2,
          "midi": 51,
          "name": "D#3",
          "ticks": 1298,
          "time": 4.2697304375,
          "velocity": 0.4645669291338583
        },
        {
          "duration": 0.09868406250000028,
          "durationTicks": 30,
          "midi": 80,
          "name": "G#5",
          "ticks": 1301,
          "time": 4.27959884375,
          "velocity": 0.4094488188976378
        },
        {
          "duration": 0.06907884375000073,
          "durationTicks": 21,
          "midi": 38,
          "name": "D2",
          "ticks": 1347,
          "time": 4.430914406249999,
          "velocity": 0.984251968503937
        },
        {
          "duration": 0.20394706249999928,
          "durationTicks": 62,
          "midi": 81,
          "name": "A5",
          "ticks": 1349,
          "time": 4.43749334375,
          "velocity": 0.5354330708661418
        },
        {
          "duration": 0.11513140625000062,
          "durationTicks": 35,
          "midi": 69,
          "name": "A4",
          "ticks": 1393,
          "time": 4.582229968749999,
          "velocity": 0.6377952755905512
        },
        {
          "duration": 0.006578937500000492,
          "durationTicks": 2,
          "midi": 42,
          "name": "F#2",
          "ticks": 1393,
          "time": 4.582229968749999,
          "velocity": 0.8503937007874016
        },
        {
          "duration": 0.006578937499999604,
          "durationTicks": 2,
          "midi": 51,
          "name": "D#3",
          "ticks": 1396,
          "time": 4.592098375,
          "velocity": 0.44881889763779526
        },
        {
          "duration": 0.08223671874999994,
          "durationTicks": 25,
          "midi": 80,
          "name": "G#5",
          "ticks": 1399,
          "time": 4.60196678125,
          "velocity": 0.4015748031496063
        },
        {
          "duration": 0.006578937500000492,
          "durationTicks": 2,
          "midi": 35,
          "name": "B1",
          "ticks": 1444,
          "time": 4.749992874999999,
          "velocity": 0.8661417322834646
        },
        {
          "duration": 0.12499981249999959,
          "durationTicks": 38,
          "midi": 69,
          "name": "A4",
          "ticks": 1489,
          "time": 4.89801896875,
          "velocity": 0.6456692913385826
        },
        {
          "duration": 0.006578937499999604,
          "durationTicks": 2,
          "midi": 42,
          "name": "F#2",
          "ticks": 1489,
          "time": 4.89801896875,
          "velocity": 0.8661417322834646
        },
        {
          "duration": 0.0657893749999996,
          "durationTicks": 20,
          "midi": 38,
          "name": "D2",
          "ticks": 1489,
          "time": 4.89801896875,
          "velocity": 0.889763779527559
        },
        {
          "duration": 0.003289468750000246,
          "durationTicks": 1,
          "midi": 51,
          "name": "D#3",
          "ticks": 1492,
          "time": 4.907887375,
          "velocity": 0.4409448818897638
        },
        {
          "duration": 0.006578937499999604,
          "durationTicks": 2,
          "midi": 35,
          "name": "B1",
          "ticks": 1585,
          "time": 5.21380796875,
          "velocity": 0.968503937007874
        },
        {
          "duration": 0.006578937499999604,
          "durationTicks": 2,
          "midi": 46,
          "name": "A#2",
          "ticks": 1585,
          "time": 5.21380796875,
          "velocity": 0.8740157480314961
        },
        {
          "duration": 0.10197353125000053,
          "durationTicks": 31,
          "midi": 69,
          "name": "A4",
          "ticks": 1586,
          "time": 5.2170974375,
          "velocity": 0.7165354330708661
        },
        {
          "duration": 0.006578937499999604,
          "durationTicks": 2,
          "midi": 51,
          "name": "D#3",
          "ticks": 1588,
          "time": 5.223676375,
          "velocity": 0.4881889763779528
        },
        {
          "duration": 0.09539459374999915,
          "durationTicks": 29,
          "midi": 69,
          "name": "A4",
          "ticks": 1636,
          "time": 5.381570875,
          "velocity": 0.41732283464566927
        },
        {
          "duration": 0.006578937500000492,
          "durationTicks": 2,
          "midi": 51,
          "name": "D#3",
          "ticks": 1679,
          "time": 5.5230180312499995,
          "velocity": 0.5275590551181102
        },
        {
          "duration": 0.15789450000000027,
          "durationTicks": 48,
          "midi": 69,
          "name": "A4",
          "ticks": 1681,
          "time": 5.52959696875,
          "velocity": 0.5511811023622047
        },
        {
          "duration": 0.006578937499999604,
          "durationTicks": 2,
          "midi": 42,
          "name": "F#2",
          "ticks": 1681,
          "time": 5.52959696875,
          "velocity": 0.889763779527559
        },
        {
          "duration": 0.006578937499999604,
          "durationTicks": 2,
          "midi": 35,
          "name": "B1",
          "ticks": 1732,
          "time": 5.697359875,
          "velocity": 0.8582677165354331
        },
        {
          "duration": 0.006578937499999604,
          "durationTicks": 2,
          "midi": 51,
          "name": "D#3",
          "ticks": 1774,
          "time": 5.8355175625,
          "velocity": 0.4881889763779528
        },
        {
          "duration": 0.009868406250000739,
          "durationTicks": 3,
          "midi": 42,
          "name": "F#2",
          "ticks": 1776,
          "time": 5.842096499999999,
          "velocity": 0.8740157480314961
        },
        {
          "duration": 0.20723653124999952,
          "durationTicks": 63,
          "midi": 69,
          "name": "A4",
          "ticks": 1777,
          "time": 5.8453859687500005,
          "velocity": 0.6850393700787402
        },
        {
          "duration": 0.0657893749999996,
          "durationTicks": 20,
          "midi": 38,
          "name": "D2",
          "ticks": 1777,
          "time": 5.8453859687500005,
          "velocity": 0.984251968503937
        },
        {
          "duration": 0.003289468750000246,
          "durationTicks": 1,
          "midi": 51,
          "name": "D#3",
          "ticks": 1872,
          "time": 6.1578855,
          "velocity": 0.5039370078740157
        },
        {
          "duration": 0.006578937499999604,
          "durationTicks": 2,
          "midi": 42,
          "name": "F#2",
          "ticks": 1872,
          "time": 6.1578855,
          "velocity": 0.8740157480314961
        },
        {
          "duration": 0.08881565625000043,
          "durationTicks": 27,
          "midi": 80,
          "name": "G#5",
          "ticks": 1877,
          "time": 6.174332843749999,
          "velocity": 0.3858267716535433
        },
        {
          "duration": 0.12828928124999983,
          "durationTicks": 39,
          "midi": 69,
          "name": "A4",
          "ticks": 1924,
          "time": 6.328937875,
          "velocity": 0.6692913385826772
        },
        {
          "duration": 0.006578937499999604,
          "durationTicks": 2,
          "midi": 35,
          "name": "B1",
          "ticks": 1924,
          "time": 6.328937875,
          "velocity": 0.8661417322834646
        },
        {
          "duration": 0.16118396874999963,
          "durationTicks": 49,
          "midi": 81,
          "name": "A5",
          "ticks": 1930,
          "time": 6.3486746875,
          "velocity": 0.5039370078740157
        },
        {
          "duration": 0.006578937499999604,
          "durationTicks": 2,
          "midi": 35,
          "name": "B1",
          "ticks": 1969,
          "time": 6.47696396875,
          "velocity": 0.9133858267716536
        },
        {
          "duration": 0.006578937499999604,
          "durationTicks": 2,
          "midi": 42,
          "name": "F#2",
          "ticks": 1969,
          "time": 6.47696396875,
          "velocity": 0.8818897637795275
        },
        {
          "duration": 0.10526300000000077,
          "durationTicks": 32,
          "midi": 80,
          "name": "G#5",
          "ticks": 1970,
          "time": 6.480253437499999,
          "velocity": 0.3937007874015748
        },
        {
          "duration": 0.003289468749999358,
          "durationTicks": 1,
          "midi": 51,
          "name": "D#3",
          "ticks": 1972,
          "time": 6.486832375,
          "velocity": 0.44881889763779526
        },
        {
          "duration": 0.09210512499999979,
          "durationTicks": 28,
          "midi": 69,
          "name": "A4",
          "ticks": 2020,
          "time": 6.644726875,
          "velocity": 0.6692913385826772
        },
        {
          "duration": 0.00986840624999985,
          "durationTicks": 3,
          "midi": 42,
          "name": "F#2",
          "ticks": 2064,
          "time": 6.7894635,
          "velocity": 0.8661417322834646
        },
        {
          "duration": 0.11184193750000038,
          "durationTicks": 34,
          "midi": 80,
          "name": "G#5",
          "ticks": 2066,
          "time": 6.7960424375,
          "velocity": 0.3779527559055118
        },
        {
          "duration": 0.006578937500000492,
          "durationTicks": 2,
          "midi": 51,
          "name": "D#3",
          "ticks": 2066,
          "time": 6.7960424375,
          "velocity": 0.4015748031496063
        },
        {
          "duration": 0.18421024999999958,
          "durationTicks": 56,
          "midi": 81,
          "name": "A5",
          "ticks": 2115,
          "time": 6.957226406249999,
          "velocity": 0.5039370078740157
        },
        {
          "duration": 0.0657893749999996,
          "durationTicks": 20,
          "midi": 38,
          "name": "D2",
          "ticks": 2116,
          "time": 6.9605158750000005,
          "velocity": 0.984251968503937
        },
        {
          "duration": 0.08552618750000107,
          "durationTicks": 26,
          "midi": 69,
          "name": "A4",
          "ticks": 2117,
          "time": 6.963805343749999,
          "velocity": 0.6692913385826772
        },
        {
          "duration": 0.16447343749999987,
          "durationTicks": 50,
          "midi": 80,
          "name": "G#5",
          "ticks": 2158,
          "time": 7.0986735625,
          "velocity": 0.3937007874015748
        },
        {
          "duration": 0.006578937499999604,
          "durationTicks": 2,
          "midi": 42,
          "name": "F#2",
          "ticks": 2161,
          "time": 7.10854196875,
          "velocity": 0.8503937007874016
        },
        {
          "duration": 0.006578937499999604,
          "durationTicks": 2,
          "midi": 51,
          "name": "D#3",
          "ticks": 2164,
          "time": 7.118410375,
          "velocity": 0.4015748031496063
        },
        {
          "duration": 0.11184193749999949,
          "durationTicks": 34,
          "midi": 69,
          "name": "A4",
          "ticks": 2212,
          "time": 7.276304875,
          "velocity": 0.6299212598425197
        },
        {
          "duration": 0.006578937499999604,
          "durationTicks": 2,
          "midi": 35,
          "name": "B1",
          "ticks": 2212,
          "time": 7.276304875,
          "velocity": 0.7086614173228346
        },
        {
          "duration": 0.10526299999999988,
          "durationTicks": 32,
          "midi": 69,
          "name": "A4",
          "ticks": 2257,
          "time": 7.42433096875,
          "velocity": 0.7165354330708661
        },
        {
          "duration": 0.006578937499999604,
          "durationTicks": 2,
          "midi": 42,
          "name": "F#2",
          "ticks": 2257,
          "time": 7.42433096875,
          "velocity": 0.84251968503937
        },
        {
          "duration": 0.003289468749999358,
          "durationTicks": 1,
          "midi": 51,
          "name": "D#3",
          "ticks": 2260,
          "time": 7.434199375,
          "velocity": 0.4330708661417323
        },
        {
          "duration": 0.10526299999999988,
          "durationTicks": 32,
          "midi": 69,
          "name": "A4",
          "ticks": 2308,
          "time": 7.592093875,
          "velocity": 0.6299212598425197
        },
        {
          "duration": 0.006578937499999604,
          "durationTicks": 2,
          "midi": 35,
          "name": "B1",
          "ticks": 2308,
          "time": 7.592093875,
          "velocity": 0.8661417322834646
        },
        {
          "duration": 0.006578937499999604,
          "durationTicks": 2,
          "midi": 35,
          "name": "B1",
          "ticks": 2353,
          "time": 7.74011996875,
          "velocity": 0.937007874015748
        },
        {
          "duration": 0.003289468749999358,
          "durationTicks": 1,
          "midi": 42,
          "name": "F#2",
          "ticks": 2353,
          "time": 7.74011996875,
          "velocity": 0.8818897637795275
        },
        {
          "duration": 0.003289468750000246,
          "durationTicks": 1,
          "midi": 51,
          "name": "D#3",
          "ticks": 2355,
          "time": 7.74669890625,
          "velocity": 0.47244094488188976
        },
        {
          "duration": 0.06249990624999846,
          "durationTicks": 19,
          "midi": 38,
          "name": "D2",
          "ticks": 2401,
          "time": 7.8980144687500005,
          "velocity": 0.6377952755905512
        },
        {
          "duration": 0.0723683124999992,
          "durationTicks": 22,
          "midi": 69,
          "name": "A4",
          "ticks": 2404,
          "time": 7.907882875,
          "velocity": 0.5590551181102362
        },
        {
          "duration": 0.11184193749999949,
          "durationTicks": 34,
          "midi": 69,
          "name": "A4",
          "ticks": 2449,
          "time": 8.05590896875,
          "velocity": 0.6692913385826772
        },
        {
          "duration": 0.006578937500000492,
          "durationTicks": 2,
          "midi": 46,
          "name": "A#2",
          "ticks": 2449,
          "time": 8.05590896875,
          "velocity": 0.6299212598425197
        },
        {
          "duration": 0.003289468749999358,
          "durationTicks": 1,
          "midi": 51,
          "name": "D#3",
          "ticks": 2451,
          "time": 8.06248790625,
          "velocity": 0.47244094488188976
        },
        {
          "duration": 0.006578937499998716,
          "durationTicks": 2,
          "midi": 35,
          "name": "B1",
          "ticks": 2500,
          "time": 8.223671875,
          "velocity": 1
        },
        {
          "duration": 0.006578937500000492,
          "durationTicks": 2,
          "midi": 42,
          "name": "F#2",
          "ticks": 2544,
          "time": 8.3684085,
          "velocity": 0.9133858267716536
        },
        {
          "duration": 0.15460503125000002,
          "durationTicks": 47,
          "midi": 69,
          "name": "A4",
          "ticks": 2545,
          "time": 8.37169796875,
          "velocity": 0.6614173228346457
        },
        {
          "duration": 0.06249990624999846,
          "durationTicks": 19,
          "midi": 38,
          "name": "D2",
          "ticks": 2545,
          "time": 8.37169796875,
          "velocity": 0.984251968503937
        },
        {
          "duration": 0.0032894687500011344,
          "durationTicks": 1,
          "midi": 51,
          "name": "D#3",
          "ticks": 2550,
          "time": 8.388145312499999,
          "velocity": 0.3858267716535433
        },
        {
          "duration": 0.006578937500000492,
          "durationTicks": 2,
          "midi": 42,
          "name": "F#2",
          "ticks": 2641,
          "time": 8.68748696875,
          "velocity": 0.8661417322834646
        },
        {
          "duration": 0.006578937500000492,
          "durationTicks": 2,
          "midi": 51,
          "name": "D#3",
          "ticks": 2641,
          "time": 8.68748696875,
          "velocity": 0.4566929133858268
        },
        {
          "duration": 0.12499981250000047,
          "durationTicks": 38,
          "midi": 80,
          "name": "G#5",
          "ticks": 2643,
          "time": 8.69406590625,
          "velocity": 0.4015748031496063
        },
        {
          "duration": 0.23026281249999947,
          "durationTicks": 70,
          "midi": 81,
          "name": "A5",
          "ticks": 2692,
          "time": 8.855249875,
          "velocity": 0.5039370078740157
        },
        {
          "duration": 0.10197353124999964,
          "durationTicks": 31,
          "midi": 69,
          "name": "A4",
          "ticks": 2692,
          "time": 8.855249875,
          "velocity": 0.6456692913385826
        },
        {
          "duration": 0.006578937499998716,
          "durationTicks": 2,
          "midi": 35,
          "name": "B1",
          "ticks": 2692,
          "time": 8.855249875,
          "velocity": 0.8661417322834646
        },
        {
          "duration": 0.00986840624999985,
          "durationTicks": 3,
          "midi": 42,
          "name": "F#2",
          "ticks": 2737,
          "time": 9.00327596875,
          "velocity": 0.8740157480314961
        },
        {
          "duration": 0.006578937500000492,
          "durationTicks": 2,
          "midi": 35,
          "name": "B1",
          "ticks": 2737,
          "time": 9.00327596875,
          "velocity": 0.9133858267716536
        },
        {
          "duration": 0.006578937500000492,
          "durationTicks": 2,
          "midi": 51,
          "name": "D#3",
          "ticks": 2738,
          "time": 9.006565437499999,
          "velocity": 0.4409448818897638
        },
        {
          "duration": 0.09210512499999979,
          "durationTicks": 28,
          "midi": 80,
          "name": "G#5",
          "ticks": 2740,
          "time": 9.013144375,
          "velocity": 0.4015748031496063
        },
        {
          "duration": 0.07565778124999945,
          "durationTicks": 23,
          "midi": 69,
          "name": "A4",
          "ticks": 2788,
          "time": 9.171038875,
          "velocity": 0.6141732283464567
        },
        {
          "duration": 0.105262999999999,
          "durationTicks": 32,
          "midi": 69,
          "name": "A4",
          "ticks": 2833,
          "time": 9.31906496875,
          "velocity": 0.6850393700787402
        },
        {
          "duration": 0.006578937499998716,
          "durationTicks": 2,
          "midi": 42,
          "name": "F#2",
          "ticks": 2833,
          "time": 9.31906496875,
          "velocity": 0.8661417322834646
        },
        {
          "duration": 0.00986840624999985,
          "durationTicks": 3,
          "midi": 51,
          "name": "D#3",
          "ticks": 2833,
          "time": 9.31906496875,
          "velocity": 0.4645669291338583
        },
        {
          "duration": 0.09868406250000028,
          "durationTicks": 30,
          "midi": 80,
          "name": "G#5",
          "ticks": 2837,
          "time": 9.33222284375,
          "velocity": 0.4094488188976378
        },
        {
          "duration": 0.0657893749999996,
          "durationTicks": 20,
          "midi": 38,
          "name": "D2",
          "ticks": 2884,
          "time": 9.486827875,
          "velocity": 0.984251968503937
        },
        {
          "duration": 0.20394706250000105,
          "durationTicks": 62,
          "midi": 81,
          "name": "A5",
          "ticks": 2885,
          "time": 9.490117343749999,
          "velocity": 0.5354330708661418
        },
        {
          "duration": 0.11513140624999885,
          "durationTicks": 35,
          "midi": 69,
          "name": "A4",
          "ticks": 2929,
          "time": 9.63485396875,
          "velocity": 0.6377952755905512
        },
        {
          "duration": 0.006578937499998716,
          "durationTicks": 2,
          "midi": 42,
          "name": "F#2",
          "ticks": 2929,
          "time": 9.63485396875,
          "velocity": 0.8503937007874016
        },
        {
          "duration": 0.006578937499998716,
          "durationTicks": 2,
          "midi": 51,
          "name": "D#3",
          "ticks": 2932,
          "time": 9.644722375,
          "velocity": 0.44881889763779526
        },
        {
          "duration": 0.0789472499999988,
          "durationTicks": 24,
          "midi": 80,
          "name": "G#5",
          "ticks": 2935,
          "time": 9.65459078125,
          "velocity": 0.4015748031496063
        },
        {
          "duration": 0.006578937499998716,
          "durationTicks": 2,
          "midi": 35,
          "name": "B1",
          "ticks": 2980,
          "time": 9.802616875,
          "velocity": 0.8661417322834646
        },
        {
          "duration": 0.006578937500000492,
          "durationTicks": 2,
          "midi": 42,
          "name": "F#2",
          "ticks": 3025,
          "time": 9.95064296875,
          "velocity": 0.8661417322834646
        },
        {
          "duration": 0.06249990625000024,
          "durationTicks": 19,
          "midi": 38,
          "name": "D2",
          "ticks": 3025,
          "time": 9.95064296875,
          "velocity": 0.889763779527559
        },
        {
          "duration": 0.12171034375000112,
          "durationTicks": 37,
          "midi": 69,
          "name": "A4",
          "ticks": 3026,
          "time": 9.953932437499999,
          "velocity": 0.6456692913385826
        },
        {
          "duration": 0.006578937500000492,
          "durationTicks": 2,
          "midi": 51,
          "name": "D#3",
          "ticks": 3028,
          "time": 9.960511375,
          "velocity": 0.4409448818897638
        },
        {
          "duration": 0.00986840624999985,
          "durationTicks": 3,
          "midi": 35,
          "name": "B1",
          "ticks": 3121,
          "time": 10.266431968749998,
          "velocity": 0.968503937007874
        },
        {
          "duration": 0.006578937500000492,
          "durationTicks": 2,
          "midi": 46,
          "name": "A#2",
          "ticks": 3121,
          "time": 10.266431968749998,
          "velocity": 0.8740157480314961
        },
        {
          "duration": 0.006578937500000492,
          "durationTicks": 2,
          "midi": 49,
          "name": "C#3",
          "ticks": 3121,
          "time": 10.266431968749998,
          "velocity": 0.7086614173228346
        },
        {
          "duration": 0.105262999999999,
          "durationTicks": 32,
          "midi": 69,
          "name": "A4",
          "ticks": 3122,
          "time": 10.2697214375,
          "velocity": 0.7165354330708661
        },
        {
          "duration": 0.006578937500002269,
          "durationTicks": 2,
          "midi": 51,
          "name": "D#3",
          "ticks": 3124,
          "time": 10.276300374999998,
          "velocity": 0.4881889763779528
        },
        {
          "duration": 0.09539459375000092,
          "durationTicks": 29,
          "midi": 69,
          "name": "A4",
          "ticks": 3172,
          "time": 10.434194875,
          "velocity": 0.41732283464566927
        },
        {
          "duration": 0.006578937500000492,
          "durationTicks": 2,
          "midi": 51,
          "name": "D#3",
          "ticks": 3214,
          "time": 10.572352562499999,
          "velocity": 0.5275590551181102
        },
        {
          "duration": 0.15789449999999938,
          "durationTicks": 48,
          "midi": 69,
          "name": "A4",
          "ticks": 3217,
          "time": 10.582220968749999,
          "velocity": 0.5511811023622047
        },
        {
          "duration": 0.006578937500000492,
          "durationTicks": 2,
          "midi": 42,
          "name": "F#2",
          "ticks": 3217,
          "time": 10.582220968749999,
          "velocity": 0.889763779527559
        },
        {
          "duration": 0.006578937500002269,
          "durationTicks": 2,
          "midi": 35,
          "name": "B1",
          "ticks": 3268,
          "time": 10.749983874999998,
          "velocity": 0.8582677165354331
        },
        {
          "duration": 0.006578937500000492,
          "durationTicks": 2,
          "midi": 51,
          "name": "D#3",
          "ticks": 3310,
          "time": 10.8881415625,
          "velocity": 0.4881889763779528
        },
        {
          "duration": 0.006578937500000492,
          "durationTicks": 2,
          "midi": 57,
          "name": "A3",
          "ticks": 3312,
          "time": 10.8947205,
          "velocity": 0.7086614173228346
        },
        {
          "duration": 0.20394706249999928,
          "durationTicks": 62,
          "midi": 69,
          "name": "A4",
          "ticks": 3313,
          "time": 10.89800996875,
          "velocity": 0.6850393700787402
        },
        {
          "duration": 0.006578937500000492,
          "durationTicks": 2,
          "midi": 42,
          "name": "F#2",
          "ticks": 3313,
          "time": 10.89800996875,
          "velocity": 0.8740157480314961
        },
        {
          "duration": 0.0657893749999996,
          "durationTicks": 20,
          "midi": 38,
          "name": "D2",
          "ticks": 3313,
          "time": 10.89800996875,
          "velocity": 0.984251968503937
        },
        {
          "duration": 0.009868406250001627,
          "durationTicks": 3,
          "midi": 51,
          "name": "D#3",
          "ticks": 3407,
          "time": 11.20722003125,
          "velocity": 0.5039370078740157
        },
        {
          "duration": 0.006578937500002269,
          "durationTicks": 2,
          "midi": 42,
          "name": "F#2",
          "ticks": 3408,
          "time": 11.210509499999999,
          "velocity": 0.8740157480314961
        },
        {
          "duration": 0.08552618749999752,
          "durationTicks": 26,
          "midi": 80,
          "name": "G#5",
          "ticks": 3413,
          "time": 11.226956843750001,
          "velocity": 0.3858267716535433
        },
        {
          "duration": 0.00986840624999985,
          "durationTicks": 3,
          "midi": 35,
          "name": "B1",
          "ticks": 3459,
          "time": 11.37827240625,
          "velocity": 0.8661417322834646
        },
        {
          "duration": 0.12828928124999983,
          "durationTicks": 39,
          "midi": 69,
          "name": "A4",
          "ticks": 3460,
          "time": 11.381561875,
          "velocity": 0.6692913385826772
        },
        {
          "duration": 0.16118396875000052,
          "durationTicks": 49,
          "midi": 81,
          "name": "A5",
          "ticks": 3466,
          "time": 11.401298687499999,
          "velocity": 0.5039370078740157
        },
        {
          "duration": 0.006578937500000492,
          "durationTicks": 2,
          "midi": 49,
          "name": "C#3",
          "ticks": 3504,
          "time": 11.5262985,
          "velocity": 0.7086614173228346
        },
        {
          "duration": 0.006578937500000492,
          "durationTicks": 2,
          "midi": 35,
          "name": "B1",
          "ticks": 3505,
          "time": 11.529587968749999,
          "velocity": 0.9133858267716536
        },
        {
          "duration": 0.006578937500000492,
          "durationTicks": 2,
          "midi": 42,
          "name": "F#2",
          "ticks": 3505,
          "time": 11.529587968749999,
          "velocity": 0.8818897637795275
        },
        {
          "duration": 0.105262999999999,
          "durationTicks": 32,
          "midi": 80,
          "name": "G#5",
          "ticks": 3506,
          "time": 11.5328774375,
          "velocity": 0.3937007874015748
        },
        {
          "duration": 0.006578937500000492,
          "durationTicks": 2,
          "midi": 51,
          "name": "D#3",
          "ticks": 3507,
          "time": 11.53616690625,
          "velocity": 0.44881889763779526
        },
        {
          "duration": 0.08881565625000043,
          "durationTicks": 27,
          "midi": 69,
          "name": "A4",
          "ticks": 3556,
          "time": 11.697350874999998,
          "velocity": 0.6692913385826772
        },
        {
          "duration": 0.006578937500000492,
          "durationTicks": 2,
          "midi": 42,
          "name": "F#2",
          "ticks": 3601,
          "time": 11.84537696875,
          "velocity": 0.8661417322834646
        },
        {
          "duration": 0.006578937499998716,
          "durationTicks": 2,
          "midi": 51,
          "name": "D#3",
          "ticks": 3602,
          "time": 11.8486664375,
          "velocity": 0.4015748031496063
        },
        {
          "duration": 0.10855246875000013,
          "durationTicks": 33,
          "midi": 80,
          "name": "G#5",
          "ticks": 3603,
          "time": 11.85195590625,
          "velocity": 0.3779527559055118
        },
        {
          "duration": 0.18421025000000135,
          "durationTicks": 56,
          "midi": 81,
          "name": "A5",
          "ticks": 3651,
          "time": 12.009850406249999,
          "velocity": 0.5039370078740157
        },
        {
          "duration": 0.06578937500000137,
          "durationTicks": 20,
          "midi": 38,
          "name": "D2",
          "ticks": 3652,
          "time": 12.013139874999998,
          "velocity": 0.984251968503937
        },
        {
          "duration": 0.08881565625000043,
          "durationTicks": 27,
          "midi": 69,
          "name": "A4",
          "ticks": 3653,
          "time": 12.01642934375,
          "velocity": 0.6692913385826772
        },
        {
          "duration": 0.16447343750000165,
          "durationTicks": 50,
          "midi": 80,
          "name": "G#5",
          "ticks": 3694,
          "time": 12.151297562499998,
          "velocity": 0.3937007874015748
        },
        {
          "duration": 0.006578937500002269,
          "durationTicks": 2,
          "midi": 42,
          "name": "F#2",
          "ticks": 3696,
          "time": 12.157876499999999,
          "velocity": 0.8503937007874016
        },
        {
          "duration": 0.006578937500002269,
          "durationTicks": 2,
          "midi": 57,
          "name": "A3",
          "ticks": 3696,
          "time": 12.157876499999999,
          "velocity": 0.7086614173228346
        },
        {
          "duration": 0.006578937500002269,
          "durationTicks": 2,
          "midi": 51,
          "name": "D#3",
          "ticks": 3700,
          "time": 12.171034374999998,
          "velocity": 0.4015748031496063
        },
        {
          "duration": 0.11184193750000126,
          "durationTicks": 34,
          "midi": 69,
          "name": "A4",
          "ticks": 3748,
          "time": 12.328928874999999,
          "velocity": 0.6299212598425197
        },
        {
          "duration": 0.006578937500000492,
          "durationTicks": 2,
          "midi": 35,
          "name": "B1",
          "ticks": 3748,
          "time": 12.328928874999999,
          "velocity": 0.7086614173228346
        },
        {
          "duration": 0.10526300000000077,
          "durationTicks": 32,
          "midi": 69,
          "name": "A4",
          "ticks": 3793,
          "time": 12.476954968749999,
          "velocity": 0.7165354330708661
        },
        {
          "duration": 0.0032894687500011344,
          "durationTicks": 1,
          "midi": 42,
          "name": "F#2",
          "ticks": 3793,
          "time": 12.476954968749999,
          "velocity": 0.84251968503937
        },
        {
          "duration": 0.006578937500000492,
          "durationTicks": 2,
          "midi": 51,
          "name": "D#3",
          "ticks": 3795,
          "time": 12.483533906249999,
          "velocity": 0.4330708661417323
        },
        {
          "duration": 0.10855246874999835,
          "durationTicks": 33,
          "midi": 69,
          "name": "A4",
          "ticks": 3844,
          "time": 12.644717875,
          "velocity": 0.6299212598425197
        },
        {
          "duration": 0.006578937500000492,
          "durationTicks": 2,
          "midi": 35,
          "name": "B1",
          "ticks": 3844,
          "time": 12.644717875,
          "velocity": 0.8661417322834646
        },
        {
          "duration": 0.006578937500000492,
          "durationTicks": 2,
          "midi": 35,
          "name": "B1",
          "ticks": 3889,
          "time": 12.792743968749999,
          "velocity": 0.937007874015748
        },
        {
          "duration": 0.006578937500000492,
          "durationTicks": 2,
          "midi": 42,
          "name": "F#2",
          "ticks": 3889,
          "time": 12.792743968749999,
          "velocity": 0.8818897637795275
        },
        {
          "duration": 0.006578937500000492,
          "durationTicks": 2,
          "midi": 49,
          "name": "C#3",
          "ticks": 3889,
          "time": 12.792743968749999,
          "velocity": 0.7874015748031497
        },
        {
          "duration": 0.0032894687500011344,
          "durationTicks": 1,
          "midi": 51,
          "name": "D#3",
          "ticks": 3892,
          "time": 12.802612374999999,
          "velocity": 0.47244094488188976
        },
        {
          "duration": 0.06907884375000073,
          "durationTicks": 21,
          "midi": 38,
          "name": "D2",
          "ticks": 3936,
          "time": 12.947348999999999,
          "velocity": 0.6377952755905512
        },
        {
          "duration": 0.07236831250000186,
          "durationTicks": 22,
          "midi": 69,
          "name": "A4",
          "ticks": 3940,
          "time": 12.960506874999998,
          "velocity": 0.5590551181102362
        },
        {
          "duration": 0.11184193750000304,
          "durationTicks": 34,
          "midi": 69,
          "name": "A4",
          "ticks": 3985,
          "time": 13.108532968749998,
          "velocity": 0.6692913385826772
        },
        {
          "duration": 0.0032894687500029107,
          "durationTicks": 1,
          "midi": 46,
          "name": "A#2",
          "ticks": 3985,
          "time": 13.108532968749998,
          "velocity": 0.6299212598425197
        },
        {
          "duration": 0.003289468749999358,
          "durationTicks": 1,
          "midi": 51,
          "name": "D#3",
          "ticks": 3987,
          "time": 13.11511190625,
          "velocity": 0.47244094488188976
        },
        {
          "duration": 0.006578937500000492,
          "durationTicks": 2,
          "midi": 35,
          "name": "B1",
          "ticks": 4036,
          "time": 13.276295874999999,
          "velocity": 1
        },
        {
          "duration": 0.006578937500000492,
          "durationTicks": 2,
          "midi": 57,
          "name": "A3",
          "ticks": 4080,
          "time": 13.421032499999999,
          "velocity": 0.7874015748031497
        },
        {
          "duration": 0.1546050312500018,
          "durationTicks": 47,
          "midi": 69,
          "name": "A4",
          "ticks": 4081,
          "time": 13.424321968749998,
          "velocity": 0.6614173228346457
        },
        {
          "duration": 0.006578937500000492,
          "durationTicks": 2,
          "midi": 42,
          "name": "F#2",
          "ticks": 4081,
          "time": 13.424321968749998,
          "velocity": 0.9133858267716536
        },
        {
          "duration": 0.06578937500000137,
          "durationTicks": 20,
          "midi": 38,
          "name": "D2",
          "ticks": 4081,
          "time": 13.424321968749998,
          "velocity": 0.984251968503937
        },
        {
          "duration": 0.006578937500002269,
          "durationTicks": 2,
          "midi": 51,
          "name": "D#3",
          "ticks": 4086,
          "time": 13.440769312499999,
          "velocity": 0.3858267716535433
        },
        {
          "duration": 0.00986840624999985,
          "durationTicks": 3,
          "midi": 42,
          "name": "F#2",
          "ticks": 4176,
          "time": 13.7368215,
          "velocity": 0.8661417322834646
        },
        {
          "duration": 0.0032894687500011344,
          "durationTicks": 1,
          "midi": 51,
          "name": "D#3",
          "ticks": 4177,
          "time": 13.740110968749999,
          "velocity": 0.4566929133858268
        },
        {
          "duration": 0.12499981250000047,
          "durationTicks": 38,
          "midi": 80,
          "name": "G#5",
          "ticks": 4179,
          "time": 13.74668990625,
          "velocity": 0.4015748031496063
        },
        {
          "duration": 0.23026281250000125,
          "durationTicks": 70,
          "midi": 81,
          "name": "A5",
          "ticks": 4228,
          "time": 13.907873874999998,
          "velocity": 0.5039370078740157
        },
        {
          "duration": 0.10197353125000141,
          "durationTicks": 31,
          "midi": 69,
          "name": "A4",
          "ticks": 4228,
          "time": 13.907873874999998,
          "velocity": 0.6456692913385826
        },
        {
          "duration": 0.006578937500000492,
          "durationTicks": 2,
          "midi": 35,
          "name": "B1",
          "ticks": 4228,
          "time": 13.907873874999998,
          "velocity": 0.8661417322834646
        },
        {
          "duration": 0.006578937500000492,
          "durationTicks": 2,
          "midi": 49,
          "name": "C#3",
          "ticks": 4272,
          "time": 14.0526105,
          "velocity": 0.8661417322834646
        },
        {
          "duration": 0.0657893749999996,
          "durationTicks": 20,
          "midi": 38,
          "name": "D2",
          "ticks": 4272,
          "time": 14.0526105,
          "velocity": 1
        },
        {
          "duration": 0.006578937500000492,
          "durationTicks": 2,
          "midi": 42,
          "name": "F#2",
          "ticks": 4273,
          "time": 14.05589996875,
          "velocity": 0.9448818897637795
        },
        {
          "duration": 0.006578937500000492,
          "durationTicks": 2,
          "midi": 35,
          "name": "B1",
          "ticks": 4273,
          "time": 14.05589996875,
          "velocity": 1
        },
        {
          "duration": 0.006578937499998716,
          "durationTicks": 2,
          "midi": 51,
          "name": "D#3",
          "ticks": 4274,
          "time": 14.0591894375,
          "velocity": 0.4409448818897638
        },
        {
          "duration": 0.08881565624999865,
          "durationTicks": 27,
          "midi": 80,
          "name": "G#5",
          "ticks": 4276,
          "time": 14.065768375,
          "velocity": 0.4015748031496063
        },
        {
          "duration": 0.06578937500000137,
          "durationTicks": 20,
          "midi": 38,
          "name": "D2",
          "ticks": 4512,
          "time": 14.842082999999999,
          "velocity": 0.7874015748031497
        },
        {
          "duration": 0.006578937500000492,
          "durationTicks": 2,
          "midi": 35,
          "name": "B1",
          "ticks": 4516,
          "time": 14.855240874999998,
          "velocity": 0.8661417322834646
        },
        {
          "duration": 0.06578937500000137,
          "durationTicks": 20,
          "midi": 38,
          "name": "D2",
          "ticks": 4536,
          "time": 14.92103025,
          "velocity": 0.8267716535433071
        },
        {
          "duration": 0.0657893749999996,
          "durationTicks": 20,
          "midi": 38,
          "name": "D2",
          "ticks": 4560,
          "time": 14.9999775,
          "velocity": 0.8661417322834646
        },
        {
          "duration": 0.12499981250000047,
          "durationTicks": 38,
          "midi": 69,
          "name": "A4",
          "ticks": 4561,
          "time": 15.00326696875,
          "velocity": 0.6456692913385826
        },
        {
          "duration": 0.006578937500000492,
          "durationTicks": 2,
          "midi": 42,
          "name": "F#2",
          "ticks": 4561,
          "time": 15.00326696875,
          "velocity": 0.8661417322834646
        },
        {
          "duration": 0.006578937500000492,
          "durationTicks": 2,
          "midi": 51,
          "name": "D#3",
          "ticks": 4564,
          "time": 15.013135375,
          "velocity": 0.4409448818897638
        },
        {
          "duration": 0.06578937500000137,
          "durationTicks": 20,
          "midi": 38,
          "name": "D2",
          "ticks": 4608,
          "time": 15.157872,
          "velocity": 0.905511811023622
        },
        {
          "duration": 0.006578937500000492,
          "durationTicks": 2,
          "midi": 35,
          "name": "B1",
          "ticks": 4657,
          "time": 15.319055968749998,
          "velocity": 0.968503937007874
        },
        {
          "duration": 0.006578937500000492,
          "durationTicks": 2,
          "midi": 49,
          "name": "C#3",
          "ticks": 4657,
          "time": 15.319055968749998,
          "velocity": 0.8740157480314961
        },
        {
          "duration": 0.10197353124999964,
          "durationTicks": 31,
          "midi": 69,
          "name": "A4",
          "ticks": 4658,
          "time": 15.3223454375,
          "velocity": 0.7165354330708661
        },
        {
          "duration": 0.006578937500002269,
          "durationTicks": 2,
          "midi": 51,
          "name": "D#3",
          "ticks": 4660,
          "time": 15.328924374999998,
          "velocity": 0.4881889763779528
        },
        {
          "duration": 0.09539459375000092,
          "durationTicks": 29,
          "midi": 69,
          "name": "A4",
          "ticks": 4708,
          "time": 15.486818874999999,
          "velocity": 0.41732283464566927
        },
        {
          "duration": 0.006578937499998716,
          "durationTicks": 2,
          "midi": 51,
          "name": "D#3",
          "ticks": 4751,
          "time": 15.62826603125,
          "velocity": 0.5275590551181102
        },
        {
          "duration": 0.15789449999999938,
          "durationTicks": 48,
          "midi": 69,
          "name": "A4",
          "ticks": 4753,
          "time": 15.634844968749999,
          "velocity": 0.5511811023622047
        },
        {
          "duration": 0.006578937500000492,
          "durationTicks": 2,
          "midi": 42,
          "name": "F#2",
          "ticks": 4753,
          "time": 15.634844968749999,
          "velocity": 0.889763779527559
        },
        {
          "duration": 0.006578937500002269,
          "durationTicks": 2,
          "midi": 35,
          "name": "B1",
          "ticks": 4804,
          "time": 15.802607874999998,
          "velocity": 0.8582677165354331
        },
        {
          "duration": 0.006578937500000492,
          "durationTicks": 2,
          "midi": 51,
          "name": "D#3",
          "ticks": 4846,
          "time": 15.9407655625,
          "velocity": 0.4881889763779528
        },
        {
          "duration": 0.00986840624999985,
          "durationTicks": 3,
          "midi": 42,
          "name": "F#2",
          "ticks": 4848,
          "time": 15.9473445,
          "velocity": 0.8740157480314961
        },
        {
          "duration": 0.20723653124999863,
          "durationTicks": 63,
          "midi": 69,
          "name": "A4",
          "ticks": 4849,
          "time": 15.95063396875,
          "velocity": 0.6850393700787402
        },
        {
          "duration": 0.06249990625000201,
          "durationTicks": 19,
          "midi": 38,
          "name": "D2",
          "ticks": 4849,
          "time": 15.95063396875,
          "velocity": 0.984251968503937
        },
        {
          "duration": 0.006578937500002269,
          "durationTicks": 2,
          "midi": 51,
          "name": "D#3",
          "ticks": 4944,
          "time": 16.2631335,
          "velocity": 0.5039370078740157
        },
        {
          "duration": 0.0032894687500011344,
          "durationTicks": 1,
          "midi": 42,
          "name": "F#2",
          "ticks": 4945,
          "time": 16.26642296875,
          "velocity": 0.8740157480314961
        },
        {
          "duration": 0.08552618749999752,
          "durationTicks": 26,
          "midi": 80,
          "name": "G#5",
          "ticks": 4949,
          "time": 16.27958084375,
          "velocity": 0.3858267716535433
        },
        {
          "duration": 0.1282892812500016,
          "durationTicks": 39,
          "midi": 69,
          "name": "A4",
          "ticks": 4996,
          "time": 16.434185874999997,
          "velocity": 0.6692913385826772
        },
        {
          "duration": 0.006578937500002269,
          "durationTicks": 2,
          "midi": 35,
          "name": "B1",
          "ticks": 4996,
          "time": 16.434185874999997,
          "velocity": 0.8661417322834646
        },
        {
          "duration": 0.1611839687500023,
          "durationTicks": 49,
          "midi": 81,
          "name": "A5",
          "ticks": 5002,
          "time": 16.453922687499997,
          "velocity": 0.5039370078740157
        },
        {
          "duration": 0.006578937500002269,
          "durationTicks": 2,
          "midi": 35,
          "name": "B1",
          "ticks": 5041,
          "time": 16.58221196875,
          "velocity": 0.9133858267716536
        },
        {
          "duration": 0.006578937500002269,
          "durationTicks": 2,
          "midi": 42,
          "name": "F#2",
          "ticks": 5041,
          "time": 16.58221196875,
          "velocity": 0.8818897637795275
        },
        {
          "duration": 0.10526299999999722,
          "durationTicks": 32,
          "midi": 80,
          "name": "G#5",
          "ticks": 5042,
          "time": 16.5855014375,
          "velocity": 0.3937007874015748
        },
        {
          "duration": 0.0032894687500011344,
          "durationTicks": 1,
          "midi": 51,
          "name": "D#3",
          "ticks": 5044,
          "time": 16.592080375,
          "velocity": 0.44881889763779526
        },
        {
          "duration": 0.09210512499999979,
          "durationTicks": 28,
          "midi": 69,
          "name": "A4",
          "ticks": 5092,
          "time": 16.749974875,
          "velocity": 0.6692913385826772
        },
        {
          "duration": 0.006578937499998716,
          "durationTicks": 2,
          "midi": 42,
          "name": "F#2",
          "ticks": 5136,
          "time": 16.8947115,
          "velocity": 0.8661417322834646
        },
        {
          "duration": 0.10855246874999835,
          "durationTicks": 33,
          "midi": 80,
          "name": "G#5",
          "ticks": 5139,
          "time": 16.90457990625,
          "velocity": 0.3779527559055118
        },
        {
          "duration": 0.0032894687499975817,
          "durationTicks": 1,
          "midi": 51,
          "name": "D#3",
          "ticks": 5139,
          "time": 16.90457990625,
          "velocity": 0.4015748031496063
        },
        {
          "duration": 0.1874997187500007,
          "durationTicks": 57,
          "midi": 81,
          "name": "A5",
          "ticks": 5186,
          "time": 17.0591849375,
          "velocity": 0.5039370078740157
        },
        {
          "duration": 0.06578937500000137,
          "durationTicks": 20,
          "midi": 38,
          "name": "D2",
          "ticks": 5188,
          "time": 17.065763875,
          "velocity": 0.984251968503937
        },
        {
          "duration": 0.08552618749999752,
          "durationTicks": 26,
          "midi": 69,
          "name": "A4",
          "ticks": 5189,
          "time": 17.06905334375,
          "velocity": 0.6692913385826772
        },
        {
          "duration": 0.16447343749999987,
          "durationTicks": 50,
          "midi": 80,
          "name": "G#5",
          "ticks": 5230,
          "time": 17.2039215625,
          "velocity": 0.3937007874015748
        },
        {
          "duration": 0.006578937499998716,
          "durationTicks": 2,
          "midi": 42,
          "name": "F#2",
          "ticks": 5233,
          "time": 17.21378996875,
          "velocity": 0.8503937007874016
        },
        {
          "duration": 0.006578937499998716,
          "durationTicks": 2,
          "midi": 51,
          "name": "D#3",
          "ticks": 5236,
          "time": 17.223658375,
          "velocity": 0.4015748031496063
        },
        {
          "duration": 0.006578937500002269,
          "durationTicks": 2,
          "midi": 35,
          "name": "B1",
          "ticks": 5284,
          "time": 17.381552874999997,
          "velocity": 0.7086614173228346
        },
        {
          "duration": 0.10855246874999835,
          "durationTicks": 33,
          "midi": 69,
          "name": "A4",
          "ticks": 5285,
          "time": 17.38484234375,
          "velocity": 0.6299212598425197
        },
        {
          "duration": 0.10526300000000077,
          "durationTicks": 32,
          "midi": 69,
          "name": "A4",
          "ticks": 5329,
          "time": 17.52957896875,
          "velocity": 0.7165354330708661
        },
        {
          "duration": 0.006578937500002269,
          "durationTicks": 2,
          "midi": 42,
          "name": "F#2",
          "ticks": 5329,
          "time": 17.52957896875,
          "velocity": 0.84251968503937
        },
        {
          "duration": 0.0032894687500011344,
          "durationTicks": 1,
          "midi": 51,
          "name": "D#3",
          "ticks": 5332,
          "time": 17.539447374999998,
          "velocity": 0.4330708661417323
        },
        {
          "duration": 0.10526300000000077,
          "durationTicks": 32,
          "midi": 69,
          "name": "A4",
          "ticks": 5380,
          "time": 17.697341875,
          "velocity": 0.6299212598425197
        },
        {
          "duration": 0.006578937499998716,
          "durationTicks": 2,
          "midi": 35,
          "name": "B1",
          "ticks": 5380,
          "time": 17.697341875,
          "velocity": 0.8661417322834646
        },
        {
          "duration": 0.006578937500002269,
          "durationTicks": 2,
          "midi": 35,
          "name": "B1",
          "ticks": 5425,
          "time": 17.845367968749997,
          "velocity": 0.937007874015748
        },
        {
          "duration": 0.0032894687500011344,
          "durationTicks": 1,
          "midi": 42,
          "name": "F#2",
          "ticks": 5425,
          "time": 17.845367968749997,
          "velocity": 0.8818897637795275
        },
        {
          "duration": 0.0032894687499975817,
          "durationTicks": 1,
          "midi": 51,
          "name": "D#3",
          "ticks": 5427,
          "time": 17.85194690625,
          "velocity": 0.47244094488188976
        },
        {
          "duration": 0.06578937500000137,
          "durationTicks": 20,
          "midi": 38,
          "name": "D2",
          "ticks": 5473,
          "time": 18.00326246875,
          "velocity": 0.6377952755905512
        },
        {
          "duration": 0.07236831250000364,
          "durationTicks": 22,
          "midi": 69,
          "name": "A4",
          "ticks": 5476,
          "time": 18.013130874999998,
          "velocity": 0.5590551181102362
        },
        {
          "duration": 0.11184193749999949,
          "durationTicks": 34,
          "midi": 69,
          "name": "A4",
          "ticks": 5521,
          "time": 18.16115696875,
          "velocity": 0.6692913385826772
        },
        {
          "duration": 0.006578937499998716,
          "durationTicks": 2,
          "midi": 46,
          "name": "A#2",
          "ticks": 5521,
          "time": 18.16115696875,
          "velocity": 0.6299212598425197
        },
        {
          "duration": 0.0032894687500011344,
          "durationTicks": 1,
          "midi": 51,
          "name": "D#3",
          "ticks": 5523,
          "time": 18.167735906249998,
          "velocity": 0.47244094488188976
        },
        {
          "duration": 0.006578937500002269,
          "durationTicks": 2,
          "midi": 35,
          "name": "B1",
          "ticks": 5572,
          "time": 18.328919874999997,
          "velocity": 1
        },
        {
          "duration": 0.15460503125000002,
          "durationTicks": 47,
          "midi": 69,
          "name": "A4",
          "ticks": 5617,
          "time": 18.476945968749998,
          "velocity": 0.6614173228346457
        },
        {
          "duration": 0.0032894687500011344,
          "durationTicks": 1,
          "midi": 42,
          "name": "F#2",
          "ticks": 5617,
          "time": 18.476945968749998,
          "velocity": 0.9133858267716536
        },
        {
          "duration": 0.06249990625000024,
          "durationTicks": 19,
          "midi": 38,
          "name": "D2",
          "ticks": 5617,
          "time": 18.476945968749998,
          "velocity": 0.984251968503937
        },
        {
          "duration": 0.0032894687499975817,
          "durationTicks": 1,
          "midi": 51,
          "name": "D#3",
          "ticks": 5622,
          "time": 18.4933933125,
          "velocity": 0.3858267716535433
        },
        {
          "duration": 0.00986840624999985,
          "durationTicks": 3,
          "midi": 42,
          "name": "F#2",
          "ticks": 5713,
          "time": 18.792734968749997,
          "velocity": 0.8661417322834646
        },
        {
          "duration": 0.006578937500002269,
          "durationTicks": 2,
          "midi": 51,
          "name": "D#3",
          "ticks": 5713,
          "time": 18.792734968749997,
          "velocity": 0.4566929133858268
        },
        {
          "duration": 0.12171034375000289,
          "durationTicks": 37,
          "midi": 80,
          "name": "G#5",
          "ticks": 5716,
          "time": 18.802603374999997,
          "velocity": 0.4015748031496063
        },
        {
          "duration": 0.23026281250000125,
          "durationTicks": 70,
          "midi": 81,
          "name": "A5",
          "ticks": 5764,
          "time": 18.960497874999998,
          "velocity": 0.5039370078740157
        },
        {
          "duration": 0.10197353125000319,
          "durationTicks": 31,
          "midi": 69,
          "name": "A4",
          "ticks": 5764,
          "time": 18.960497874999998,
          "velocity": 0.6456692913385826
        },
        {
          "duration": 0.006578937500002269,
          "durationTicks": 2,
          "midi": 35,
          "name": "B1",
          "ticks": 5764,
          "time": 18.960497874999998,
          "velocity": 0.8661417322834646
        },
        {
          "duration": 0.00986840624999985,
          "durationTicks": 3,
          "midi": 42,
          "name": "F#2",
          "ticks": 5808,
          "time": 19.105234499999998,
          "velocity": 0.8740157480314961
        },
        {
          "duration": 0.006578937499998716,
          "durationTicks": 2,
          "midi": 35,
          "name": "B1",
          "ticks": 5809,
          "time": 19.10852396875,
          "velocity": 0.9133858267716536
        },
        {
          "duration": 0.0032894687499975817,
          "durationTicks": 1,
          "midi": 51,
          "name": "D#3",
          "ticks": 5810,
          "time": 19.1118134375,
          "velocity": 0.4409448818897638
        },
        {
          "duration": 0.09210512499999979,
          "durationTicks": 28,
          "midi": 80,
          "name": "G#5",
          "ticks": 5812,
          "time": 19.118392375,
          "velocity": 0.4015748031496063
        },
        {
          "duration": 0.07236831250000364,
          "durationTicks": 22,
          "midi": 69,
          "name": "A4",
          "ticks": 5860,
          "time": 19.276286874999997,
          "velocity": 0.6141732283464567
        },
        {
          "duration": 0.10526300000000077,
          "durationTicks": 32,
          "midi": 69,
          "name": "A4",
          "ticks": 5905,
          "time": 19.424312968749998,
          "velocity": 0.6850393700787402
        },
        {
          "duration": 0.006578937500002269,
          "durationTicks": 2,
          "midi": 42,
          "name": "F#2",
          "ticks": 5905,
          "time": 19.424312968749998,
          "velocity": 0.8661417322834646
        },
        {
          "duration": 0.006578937499998716,
          "durationTicks": 2,
          "midi": 51,
          "name": "D#3",
          "ticks": 5906,
          "time": 19.4276024375,
          "velocity": 0.4645669291338583
        },
        {
          "duration": 0.09868406250000206,
          "durationTicks": 30,
          "midi": 80,
          "name": "G#5",
          "ticks": 5909,
          "time": 19.43747084375,
          "velocity": 0.4094488188976378
        },
        {
          "duration": 0.20394706249999928,
          "durationTicks": 62,
          "midi": 81,
          "name": "A5",
          "ticks": 5957,
          "time": 19.59536534375,
          "velocity": 0.5354330708661418
        },
        {
          "duration": 0.06578937500000137,
          "durationTicks": 20,
          "midi": 38,
          "name": "D2",
          "ticks": 6000,
          "time": 19.7368125,
          "velocity": 0.984251968503937
        },
        {
          "duration": 0.11513140625000062,
          "durationTicks": 35,
          "midi": 69,
          "name": "A4",
          "ticks": 6001,
          "time": 19.740101968749997,
          "velocity": 0.6377952755905512
        },
        {
          "duration": 0.006578937500002269,
          "durationTicks": 2,
          "midi": 42,
          "name": "F#2",
          "ticks": 6001,
          "time": 19.740101968749997,
          "velocity": 0.8503937007874016
        },
        {
          "duration": 0.006578937500002269,
          "durationTicks": 2,
          "midi": 51,
          "name": "D#3",
          "ticks": 6004,
          "time": 19.749970374999997,
          "velocity": 0.44881889763779526
        },
        {
          "duration": 0.0789472499999988,
          "durationTicks": 24,
          "midi": 80,
          "name": "G#5",
          "ticks": 6007,
          "time": 19.75983878125,
          "velocity": 0.4015748031496063
        },
        {
          "duration": 0.006578937500002269,
          "durationTicks": 2,
          "midi": 35,
          "name": "B1",
          "ticks": 6052,
          "time": 19.907864874999998,
          "velocity": 0.8661417322834646
        },
        {
          "duration": 0.12499981250000047,
          "durationTicks": 38,
          "midi": 69,
          "name": "A4",
          "ticks": 6097,
          "time": 20.05589096875,
          "velocity": 0.6456692913385826
        },
        {
          "duration": 0.006578937499998716,
          "durationTicks": 2,
          "midi": 42,
          "name": "F#2",
          "ticks": 6097,
          "time": 20.05589096875,
          "velocity": 0.8661417322834646
        },
        {
          "duration": 0.06249990625000024,
          "durationTicks": 19,
          "midi": 38,
          "name": "D2",
          "ticks": 6097,
          "time": 20.05589096875,
          "velocity": 0.889763779527559
        },
        {
          "duration": 0.006578937500002269,
          "durationTicks": 2,
          "midi": 51,
          "name": "D#3",
          "ticks": 6099,
          "time": 20.062469906249998,
          "velocity": 0.4409448818897638
        },
        {
          "duration": 0.006578937499998716,
          "durationTicks": 2,
          "midi": 35,
          "name": "B1",
          "ticks": 6193,
          "time": 20.37167996875,
          "velocity": 0.937007874015748
        },
        {
          "duration": 0.0032894687499975817,
          "durationTicks": 1,
          "midi": 42,
          "name": "F#2",
          "ticks": 6193,
          "time": 20.37167996875,
          "velocity": 0.8818897637795275
        },
        {
          "duration": 0.0032894687500011344,
          "durationTicks": 1,
          "midi": 51,
          "name": "D#3",
          "ticks": 6195,
          "time": 20.37825890625,
          "velocity": 0.47244094488188976
        },
        {
          "duration": 0.06578937500000137,
          "durationTicks": 20,
          "midi": 38,
          "name": "D2",
          "ticks": 6241,
          "time": 20.52957446875,
          "velocity": 0.6377952755905512
        },
        {
          "duration": 0.07236831250000009,
          "durationTicks": 22,
          "midi": 69,
          "name": "A4",
          "ticks": 6244,
          "time": 20.539442875,
          "velocity": 0.5590551181102362
        },
        {
          "duration": 0.11184193749999594,
          "durationTicks": 34,
          "midi": 69,
          "name": "A4",
          "ticks": 6289,
          "time": 20.68746896875,
          "velocity": 0.6692913385826772
        },
        {
          "duration": 0.006578937499998716,
          "durationTicks": 2,
          "midi": 46,
          "name": "A#2",
          "ticks": 6289,
          "time": 20.68746896875,
          "velocity": 0.6299212598425197
        },
        {
          "duration": 0.0032894687500011344,
          "durationTicks": 1,
          "midi": 51,
          "name": "D#3",
          "ticks": 6291,
          "time": 20.69404790625,
          "velocity": 0.47244094488188976
        },
        {
          "duration": 0.006578937499998716,
          "durationTicks": 2,
          "midi": 35,
          "name": "B1",
          "ticks": 6340,
          "time": 20.855231875,
          "velocity": 1
        },
        {
          "duration": 0.15460503125000002,
          "durationTicks": 47,
          "midi": 69,
          "name": "A4",
          "ticks": 6385,
          "time": 21.00325796875,
          "velocity": 0.6614173228346457
        },
        {
          "duration": 0.0032894687499975817,
          "durationTicks": 1,
          "midi": 42,
          "name": "F#2",
          "ticks": 6385,
          "time": 21.00325796875,
          "velocity": 0.9133858267716536
        },
        {
          "duration": 0.06249990625000024,
          "durationTicks": 19,
          "midi": 38,
          "name": "D2",
          "ticks": 6385,
          "time": 21.00325796875,
          "velocity": 0.984251968503937
        },
        {
          "duration": 0.003289468750004687,
          "durationTicks": 1,
          "midi": 51,
          "name": "D#3",
          "ticks": 6390,
          "time": 21.019705312499998,
          "velocity": 0.3858267716535433
        },
        {
          "duration": 0.00986840624999985,
          "durationTicks": 3,
          "midi": 42,
          "name": "F#2",
          "ticks": 6481,
          "time": 21.31904696875,
          "velocity": 0.8661417322834646
        },
        {
          "duration": 0.006578937499998716,
          "durationTicks": 2,
          "midi": 51,
          "name": "D#3",
          "ticks": 6481,
          "time": 21.31904696875,
          "velocity": 0.4566929133858268
        },
        {
          "duration": 0.12171034374999579,
          "durationTicks": 37,
          "midi": 80,
          "name": "G#5",
          "ticks": 6484,
          "time": 21.328915375,
          "velocity": 0.4015748031496063
        },
        {
          "duration": 0.23026281249999414,
          "durationTicks": 70,
          "midi": 81,
          "name": "A5",
          "ticks": 6532,
          "time": 21.486809875000002,
          "velocity": 0.5039370078740157
        },
        {
          "duration": 0.10197353124999609,
          "durationTicks": 31,
          "midi": 69,
          "name": "A4",
          "ticks": 6532,
          "time": 21.486809875000002,
          "velocity": 0.6456692913385826
        },
        {
          "duration": 0.006578937499995163,
          "durationTicks": 2,
          "midi": 35,
          "name": "B1",
          "ticks": 6532,
          "time": 21.486809875000002,
          "velocity": 0.8661417322834646
        },
        {
          "duration": 0.00986840624999985,
          "durationTicks": 3,
          "midi": 42,
          "name": "F#2",
          "ticks": 6576,
          "time": 21.6315465,
          "velocity": 0.8740157480314961
        },
        {
          "duration": 0.006578937499998716,
          "durationTicks": 2,
          "midi": 35,
          "name": "B1",
          "ticks": 6577,
          "time": 21.63483596875,
          "velocity": 0.9133858267716536
        },
        {
          "duration": 0.0032894687500011344,
          "durationTicks": 1,
          "midi": 51,
          "name": "D#3",
          "ticks": 6578,
          "time": 21.638125437499998,
          "velocity": 0.4409448818897638
        },
        {
          "duration": 0.09210512499999624,
          "durationTicks": 28,
          "midi": 80,
          "name": "G#5",
          "ticks": 6580,
          "time": 21.644704375,
          "velocity": 0.4015748031496063
        },
        {
          "duration": 0.06578937499999782,
          "durationTicks": 20,
          "midi": 38,
          "name": "D2",
          "ticks": 6624,
          "time": 21.789441,
          "velocity": 0.7086614173228346
        },
        {
          "duration": 0.07236831249999653,
          "durationTicks": 22,
          "midi": 69,
          "name": "A4",
          "ticks": 6628,
          "time": 21.802598875,
          "velocity": 0.6141732283464567
        },
        {
          "duration": 0.06578937500000137,
          "durationTicks": 20,
          "midi": 38,
          "name": "D2",
          "ticks": 6672,
          "time": 21.947335499999998,
          "velocity": 0.7086614173228346
        },
        {
          "duration": 0.10526300000000077,
          "durationTicks": 32,
          "midi": 69,
          "name": "A4",
          "ticks": 6673,
          "time": 21.95062496875,
          "velocity": 0.6850393700787402
        },
        {
          "duration": 0.006578937499998716,
          "durationTicks": 2,
          "midi": 42,
          "name": "F#2",
          "ticks": 6673,
          "time": 21.95062496875,
          "velocity": 0.8661417322834646
        },
        {
          "duration": 0.0065789375000058214,
          "durationTicks": 2,
          "midi": 51,
          "name": "D#3",
          "ticks": 6674,
          "time": 21.953914437499996,
          "velocity": 0.4645669291338583
        },
        {
          "duration": 0.09868406250000206,
          "durationTicks": 30,
          "midi": 80,
          "name": "G#5",
          "ticks": 6677,
          "time": 21.963782843749996,
          "velocity": 0.4094488188976378
        },
        {
          "duration": 0.06578937499999782,
          "durationTicks": 20,
          "midi": 38,
          "name": "D2",
          "ticks": 6720,
          "time": 22.10523,
          "velocity": 0.7086614173228346
        },
        {
          "duration": 0.20394706250000283,
          "durationTicks": 62,
          "midi": 81,
          "name": "A5",
          "ticks": 6725,
          "time": 22.121677343749997,
          "velocity": 0.5354330708661418
        },
        {
          "duration": 0.06578937499999782,
          "durationTicks": 20,
          "midi": 38,
          "name": "D2",
          "ticks": 6768,
          "time": 22.2631245,
          "velocity": 0.984251968503937
        },
        {
          "duration": 0.11513140624999707,
          "durationTicks": 35,
          "midi": 69,
          "name": "A4",
          "ticks": 6769,
          "time": 22.26641396875,
          "velocity": 0.6377952755905512
        },
        {
          "duration": 0.006578937499998716,
          "durationTicks": 2,
          "midi": 42,
          "name": "F#2",
          "ticks": 6769,
          "time": 22.26641396875,
          "velocity": 0.8503937007874016
        },
        {
          "duration": 0.006578937499998716,
          "durationTicks": 2,
          "midi": 51,
          "name": "D#3",
          "ticks": 6772,
          "time": 22.276282375,
          "velocity": 0.44881889763779526
        },
        {
          "duration": 0.0789472499999988,
          "durationTicks": 24,
          "midi": 80,
          "name": "G#5",
          "ticks": 6775,
          "time": 22.28615078125,
          "velocity": 0.4015748031496063
        },
        {
          "duration": 0.006578937499995163,
          "durationTicks": 2,
          "midi": 35,
          "name": "B1",
          "ticks": 6820,
          "time": 22.434176875000002,
          "velocity": 0.8661417322834646
        },
        {
          "duration": 0.12499981250000047,
          "durationTicks": 38,
          "midi": 69,
          "name": "A4",
          "ticks": 6865,
          "time": 22.58220296875,
          "velocity": 0.6456692913385826
        },
        {
          "duration": 0.006578937499998716,
          "durationTicks": 2,
          "midi": 42,
          "name": "F#2",
          "ticks": 6865,
          "time": 22.58220296875,
          "velocity": 0.8661417322834646
        },
        {
          "duration": 0.062499906249996684,
          "durationTicks": 19,
          "midi": 38,
          "name": "D2",
          "ticks": 6865,
          "time": 22.58220296875,
          "velocity": 0.889763779527559
        },
        {
          "duration": 0.006578937499998716,
          "durationTicks": 2,
          "midi": 51,
          "name": "D#3",
          "ticks": 6867,
          "time": 22.58878190625,
          "velocity": 0.4409448818897638
        },
        {
          "duration": 0.06578937500000137,
          "durationTicks": 20,
          "midi": 49,
          "name": "C#3",
          "ticks": 6960,
          "time": 22.894702499999998,
          "velocity": 0.5905511811023622
        },
        {
          "duration": 0.10855246874999835,
          "durationTicks": 33,
          "midi": 69,
          "name": "A4",
          "ticks": 6961,
          "time": 22.897991968750002,
          "velocity": 0.7165354330708661
        },
        {
          "duration": 0.006578937499995163,
          "durationTicks": 2,
          "midi": 35,
          "name": "B1",
          "ticks": 6961,
          "time": 22.897991968750002,
          "velocity": 0.968503937007874
        },
        {
          "duration": 0.006578937499995163,
          "durationTicks": 2,
          "midi": 46,
          "name": "A#2",
          "ticks": 6961,
          "time": 22.897991968750002,
          "velocity": 0.8740157480314961
        },
        {
          "duration": 0.006578937499998716,
          "durationTicks": 2,
          "midi": 51,
          "name": "D#3",
          "ticks": 6964,
          "time": 22.907860375000002,
          "velocity": 0.4881889763779528
        },
        {
          "duration": 0.09868406250000206,
          "durationTicks": 30,
          "midi": 69,
          "name": "A4",
          "ticks": 7012,
          "time": 23.065754875,
          "velocity": 0.41732283464566927
        },
        {
          "duration": 0.00986840624999985,
          "durationTicks": 3,
          "midi": 51,
          "name": "D#3",
          "ticks": 7054,
          "time": 23.2039125625,
          "velocity": 0.5275590551181102
        },
        {
          "duration": 0.15789450000000116,
          "durationTicks": 48,
          "midi": 69,
          "name": "A4",
          "ticks": 7057,
          "time": 23.21378096875,
          "velocity": 0.5511811023622047
        },
        {
          "duration": 0.006578937499998716,
          "durationTicks": 2,
          "midi": 42,
          "name": "F#2",
          "ticks": 7057,
          "time": 23.21378096875,
          "velocity": 0.889763779527559
        },
        {
          "duration": 0.006578937499998716,
          "durationTicks": 2,
          "midi": 35,
          "name": "B1",
          "ticks": 7108,
          "time": 23.381543875000002,
          "velocity": 0.8582677165354331
        },
        {
          "duration": 0.006578937499998716,
          "durationTicks": 2,
          "midi": 51,
          "name": "D#3",
          "ticks": 7150,
          "time": 23.5197015625,
          "velocity": 0.4881889763779528
        },
        {
          "duration": 0.20394706249999928,
          "durationTicks": 62,
          "midi": 69,
          "name": "A4",
          "ticks": 7153,
          "time": 23.52956996875,
          "velocity": 0.6850393700787402
        },
        {
          "duration": 0.006578937499998716,
          "durationTicks": 2,
          "midi": 42,
          "name": "F#2",
          "ticks": 7153,
          "time": 23.52956996875,
          "velocity": 0.8740157480314961
        },
        {
          "duration": 0.062499906249996684,
          "durationTicks": 19,
          "midi": 38,
          "name": "D2",
          "ticks": 7153,
          "time": 23.52956996875,
          "velocity": 0.984251968503937
        },
        {
          "duration": 0.00986840624999985,
          "durationTicks": 3,
          "midi": 51,
          "name": "D#3",
          "ticks": 7247,
          "time": 23.838780031249996,
          "velocity": 0.5039370078740157
        },
        {
          "duration": 0.006578937499998716,
          "durationTicks": 2,
          "midi": 42,
          "name": "F#2",
          "ticks": 7248,
          "time": 23.842069499999997,
          "velocity": 0.8740157480314961
        },
        {
          "duration": 0.08552618750000462,
          "durationTicks": 26,
          "midi": 80,
          "name": "G#5",
          "ticks": 7253,
          "time": 23.858516843749996,
          "velocity": 0.3858267716535433
        },
        {
          "duration": 0.1282892812500016,
          "durationTicks": 39,
          "midi": 69,
          "name": "A4",
          "ticks": 7300,
          "time": 24.013121875,
          "velocity": 0.6692913385826772
        },
        {
          "duration": 0.006578937499998716,
          "durationTicks": 2,
          "midi": 35,
          "name": "B1",
          "ticks": 7300,
          "time": 24.013121875,
          "velocity": 0.8661417322834646
        },
        {
          "duration": 0.16118396874999874,
          "durationTicks": 49,
          "midi": 81,
          "name": "A5",
          "ticks": 7306,
          "time": 24.0328586875,
          "velocity": 0.5039370078740157
        },
        {
          "duration": 0.006578937499998716,
          "durationTicks": 2,
          "midi": 35,
          "name": "B1",
          "ticks": 7345,
          "time": 24.16114796875,
          "velocity": 0.9133858267716536
        },
        {
          "duration": 0.006578937499998716,
          "durationTicks": 2,
          "midi": 42,
          "name": "F#2",
          "ticks": 7345,
          "time": 24.16114796875,
          "velocity": 0.8818897637795275
        },
        {
          "duration": 0.10526300000000077,
          "durationTicks": 32,
          "midi": 80,
          "name": "G#5",
          "ticks": 7346,
          "time": 24.1644374375,
          "velocity": 0.3937007874015748
        },
        {
          "duration": 0.006578937499998716,
          "durationTicks": 2,
          "midi": 51,
          "name": "D#3",
          "ticks": 7347,
          "time": 24.16772690625,
          "velocity": 0.44881889763779526
        },
        {
          "duration": 0.09210512499999624,
          "durationTicks": 28,
          "midi": 69,
          "name": "A4",
          "ticks": 7396,
          "time": 24.328910875000002,
          "velocity": 0.6692913385826772
        },
        {
          "duration": 0.006578937499998716,
          "durationTicks": 2,
          "midi": 42,
          "name": "F#2",
          "ticks": 7441,
          "time": 24.47693696875,
          "velocity": 0.8661417322834646
        },
        {
          "duration": 0.00986840624999985,
          "durationTicks": 3,
          "midi": 51,
          "name": "D#3",
          "ticks": 7442,
          "time": 24.480226437499997,
          "velocity": 0.4015748031496063
        },
        {
          "duration": 0.10855246875000191,
          "durationTicks": 33,
          "midi": 80,
          "name": "G#5",
          "ticks": 7443,
          "time": 24.48351590625,
          "velocity": 0.3779527559055118
        },
        {
          "duration": 0.18421024999999958,
          "durationTicks": 56,
          "midi": 81,
          "name": "A5",
          "ticks": 7491,
          "time": 24.64141040625,
          "velocity": 0.5039370078740157
        },
        {
          "duration": 0.09210512499999624,
          "durationTicks": 28,
          "midi": 69,
          "name": "A4",
          "ticks": 7492,
          "time": 24.644699875,
          "velocity": 0.6692913385826772
        },
        {
          "duration": 0.16447343749999632,
          "durationTicks": 50,
          "midi": 80,
          "name": "G#5",
          "ticks": 7534,
          "time": 24.782857562500002,
          "velocity": 0.3937007874015748
        },
        {
          "duration": 0.06578937500000137,
          "durationTicks": 20,
          "midi": 38,
          "name": "D2",
          "ticks": 7536,
          "time": 24.789436499999997,
          "velocity": 0.984251968503937
        },
        {
          "duration": 0.006578937499998716,
          "durationTicks": 2,
          "midi": 42,
          "name": "F#2",
          "ticks": 7537,
          "time": 24.792725968750002,
          "velocity": 0.8503937007874016
        },
        {
          "duration": 0.0065789375000058214,
          "durationTicks": 2,
          "midi": 51,
          "name": "D#3",
          "ticks": 7541,
          "time": 24.805883843749996,
          "velocity": 0.4015748031496063
        },
        {
          "duration": 0.11184193749999949,
          "durationTicks": 34,
          "midi": 69,
          "name": "A4",
          "ticks": 7588,
          "time": 24.960488875,
          "velocity": 0.6299212598425197
        },
        {
          "duration": 0.006578937499998716,
          "durationTicks": 2,
          "midi": 35,
          "name": "B1",
          "ticks": 7588,
          "time": 24.960488875,
          "velocity": 0.7086614173228346
        },
        {
          "duration": 0.10526299999999722,
          "durationTicks": 32,
          "midi": 69,
          "name": "A4",
          "ticks": 7633,
          "time": 25.10851496875,
          "velocity": 0.7165354330708661
        },
        {
          "duration": 0.0032894687499975817,
          "durationTicks": 1,
          "midi": 42,
          "name": "F#2",
          "ticks": 7633,
          "time": 25.10851496875,
          "velocity": 0.84251968503937
        },
        {
          "duration": 0.006578937499998716,
          "durationTicks": 2,
          "midi": 51,
          "name": "D#3",
          "ticks": 7635,
          "time": 25.11509390625,
          "velocity": 0.4330708661417323
        },
        {
          "duration": 0.10855246874999835,
          "durationTicks": 33,
          "midi": 69,
          "name": "A4",
          "ticks": 7684,
          "time": 25.276277875,
          "velocity": 0.6299212598425197
        },
        {
          "duration": 0.006578937499998716,
          "durationTicks": 2,
          "midi": 35,
          "name": "B1",
          "ticks": 7684,
          "time": 25.276277875,
          "velocity": 0.8661417322834646
        },
        {
          "duration": 0.06249990625000379,
          "durationTicks": 19,
          "midi": 38,
          "name": "D2",
          "ticks": 7728,
          "time": 25.4210145,
          "velocity": 0.6377952755905512
        },
        {
          "duration": 0.006578937499998716,
          "durationTicks": 2,
          "midi": 35,
          "name": "B1",
          "ticks": 7729,
          "time": 25.42430396875,
          "velocity": 0.937007874015748
        },
        {
          "duration": 0.006578937499998716,
          "durationTicks": 2,
          "midi": 42,
          "name": "F#2",
          "ticks": 7729,
          "time": 25.42430396875,
          "velocity": 0.8818897637795275
        },
        {
          "duration": 0.06578937499999782,
          "durationTicks": 20,
          "midi": 49,
          "name": "C#3",
          "ticks": 7729,
          "time": 25.42430396875,
          "velocity": 0.6299212598425197
        },
        {
          "duration": 0.0032894687499975817,
          "durationTicks": 1,
          "midi": 51,
          "name": "D#3",
          "ticks": 7732,
          "time": 25.434172375,
          "velocity": 0.47244094488188976
        },
        {
          "duration": 0.07236831249999653,
          "durationTicks": 22,
          "midi": 69,
          "name": "A4",
          "ticks": 7780,
          "time": 25.592066875,
          "velocity": 0.5590551181102362
        },
        {
          "duration": 0.006578937499995163,
          "durationTicks": 2,
          "midi": 46,
          "name": "A#2",
          "ticks": 7824,
          "time": 25.7368035,
          "velocity": 0.6299212598425197
        },
        {
          "duration": 0.11184193749999594,
          "durationTicks": 34,
          "midi": 69,
          "name": "A4",
          "ticks": 7825,
          "time": 25.74009296875,
          "velocity": 0.6692913385826772
        },
        {
          "duration": 0.0032894687500011344,
          "durationTicks": 1,
          "midi": 51,
          "name": "D#3",
          "ticks": 7827,
          "time": 25.74667190625,
          "velocity": 0.47244094488188976
        },
        {
          "duration": 0.006578937499998716,
          "durationTicks": 2,
          "midi": 35,
          "name": "B1",
          "ticks": 7876,
          "time": 25.907855875,
          "velocity": 1
        },
        {
          "duration": 0.06578937499999782,
          "durationTicks": 20,
          "midi": 57,
          "name": "A3",
          "ticks": 7920,
          "time": 26.0525925,
          "velocity": 0.5511811023622047
        },
        {
          "duration": 0.15460503125000002,
          "durationTicks": 47,
          "midi": 69,
          "name": "A4",
          "ticks": 7921,
          "time": 26.05588196875,
          "velocity": 0.6614173228346457
        },
        {
          "duration": 0.006578937499998716,
          "durationTicks": 2,
          "midi": 42,
          "name": "F#2",
          "ticks": 7921,
          "time": 26.05588196875,
          "velocity": 0.9133858267716536
        },
        {
          "duration": 0.06578937499999782,
          "durationTicks": 20,
          "midi": 38,
          "name": "D2",
          "ticks": 7921,
          "time": 26.05588196875,
          "velocity": 0.984251968503937
        },
        {
          "duration": 0.006578937499998716,
          "durationTicks": 2,
          "midi": 51,
          "name": "D#3",
          "ticks": 7926,
          "time": 26.0723293125,
          "velocity": 0.3858267716535433
        },
        {
          "duration": 0.006578937499998716,
          "durationTicks": 2,
          "midi": 42,
          "name": "F#2",
          "ticks": 8017,
          "time": 26.37167096875,
          "velocity": 0.8661417322834646
        },
        {
          "duration": 0.006578937499998716,
          "durationTicks": 2,
          "midi": 51,
          "name": "D#3",
          "ticks": 8017,
          "time": 26.37167096875,
          "velocity": 0.4566929133858268
        },
        {
          "duration": 0.12171034374999934,
          "durationTicks": 37,
          "midi": 80,
          "name": "G#5",
          "ticks": 8020,
          "time": 26.381539375,
          "velocity": 0.4015748031496063
        },
        {
          "duration": 0.2302628124999977,
          "durationTicks": 70,
          "midi": 81,
          "name": "A5",
          "ticks": 8068,
          "time": 26.539433875,
          "velocity": 0.5039370078740157
        },
        {
          "duration": 0.10197353124999609,
          "durationTicks": 31,
          "midi": 69,
          "name": "A4",
          "ticks": 8068,
          "time": 26.539433875,
          "velocity": 0.6456692913385826
        },
        {
          "duration": 0.006578937499998716,
          "durationTicks": 2,
          "midi": 35,
          "name": "B1",
          "ticks": 8068,
          "time": 26.539433875,
          "velocity": 0.8661417322834646
        },
        {
          "duration": 0.06578937499999782,
          "durationTicks": 20,
          "midi": 38,
          "name": "D2",
          "ticks": 8112,
          "time": 26.6841705,
          "velocity": 0.984251968503937
        },
        {
          "duration": 0.06578937499999782,
          "durationTicks": 20,
          "midi": 49,
          "name": "C#3",
          "ticks": 8112,
          "time": 26.6841705,
          "velocity": 0.5905511811023622
        },
        {
          "duration": 0.006578937499998716,
          "durationTicks": 2,
          "midi": 42,
          "name": "F#2",
          "ticks": 8113,
          "time": 26.68745996875,
          "velocity": 0.8740157480314961
        },
        {
          "duration": 0.003289468749994029,
          "durationTicks": 1,
          "midi": 35,
          "name": "B1",
          "ticks": 8113,
          "time": 26.68745996875,
          "velocity": 0.9133858267716536
        },
        {
          "duration": 0.0065789375000058214,
          "durationTicks": 2,
          "midi": 51,
          "name": "D#3",
          "ticks": 8114,
          "time": 26.690749437499996,
          "velocity": 0.4409448818897638
        },
        {
          "duration": 0.09210512499999624,
          "durationTicks": 28,
          "midi": 80,
          "name": "G#5",
          "ticks": 8116,
          "time": 26.697328375,
          "velocity": 0.4015748031496063
        },
        {
          "duration": 0.07565778124999767,
          "durationTicks": 23,
          "midi": 69,
          "name": "A4",
          "ticks": 8163,
          "time": 26.851933406249998,
          "velocity": 0.6141732283464567
        },
        {
          "duration": 0.10526299999999722,
          "durationTicks": 32,
          "midi": 69,
          "name": "A4",
          "ticks": 8209,
          "time": 27.00324896875,
          "velocity": 0.6850393700787402
        },
        {
          "duration": 0.006578937499998716,
          "durationTicks": 2,
          "midi": 42,
          "name": "F#2",
          "ticks": 8209,
          "time": 27.00324896875,
          "velocity": 0.8661417322834646
        },
        {
          "duration": 0.006578937500002269,
          "durationTicks": 2,
          "midi": 51,
          "name": "D#3",
          "ticks": 8210,
          "time": 27.006538437499998,
          "velocity": 0.4645669291338583
        },
        {
          "duration": 0.0986840624999985,
          "durationTicks": 30,
          "midi": 80,
          "name": "G#5",
          "ticks": 8213,
          "time": 27.016406843749998,
          "velocity": 0.4094488188976378
        },
        {
          "duration": 0.20394706250000283,
          "durationTicks": 62,
          "midi": 81,
          "name": "A5",
          "ticks": 8261,
          "time": 27.17430134375,
          "velocity": 0.5354330708661418
        },
        {
          "duration": 0.0690788437500025,
          "durationTicks": 21,
          "midi": 38,
          "name": "D2",
          "ticks": 8304,
          "time": 27.315748499999998,
          "velocity": 0.984251968503937
        },
        {
          "duration": 0.06578937499999782,
          "durationTicks": 20,
          "midi": 57,
          "name": "A3",
          "ticks": 8304,
          "time": 27.315748499999998,
          "velocity": 0.6299212598425197
        },
        {
          "duration": 0.11513140625000062,
          "durationTicks": 35,
          "midi": 69,
          "name": "A4",
          "ticks": 8305,
          "time": 27.31903796875,
          "velocity": 0.6377952755905512
        },
        {
          "duration": 0.006578937499998716,
          "durationTicks": 2,
          "midi": 42,
          "name": "F#2",
          "ticks": 8305,
          "time": 27.31903796875,
          "velocity": 0.8503937007874016
        },
        {
          "duration": 0.006578937499998716,
          "durationTicks": 2,
          "midi": 51,
          "name": "D#3",
          "ticks": 8308,
          "time": 27.328906375,
          "velocity": 0.44881889763779526
        },
        {
          "duration": 0.08223671874999994,
          "durationTicks": 25,
          "midi": 80,
          "name": "G#5",
          "ticks": 8311,
          "time": 27.33877478125,
          "velocity": 0.4015748031496063
        },
        {
          "duration": 0.006578937499998716,
          "durationTicks": 2,
          "midi": 35,
          "name": "B1",
          "ticks": 8356,
          "time": 27.486800875,
          "velocity": 0.8661417322834646
        },
        {
          "duration": 0.12499981249999692,
          "durationTicks": 38,
          "midi": 69,
          "name": "A4",
          "ticks": 8401,
          "time": 27.63482696875,
          "velocity": 0.6456692913385826
        },
        {
          "duration": 0.006578937499998716,
          "durationTicks": 2,
          "midi": 42,
          "name": "F#2",
          "ticks": 8401,
          "time": 27.63482696875,
          "velocity": 0.8661417322834646
        },
        {
          "duration": 0.06578937499999782,
          "durationTicks": 20,
          "midi": 38,
          "name": "D2",
          "ticks": 8401,
          "time": 27.63482696875,
          "velocity": 0.889763779527559
        },
        {
          "duration": 0.0032894687499975817,
          "durationTicks": 1,
          "midi": 51,
          "name": "D#3",
          "ticks": 8404,
          "time": 27.644695375,
          "velocity": 0.4409448818897638
        },
        {
          "duration": 0.06578937499999782,
          "durationTicks": 20,
          "midi": 38,
          "name": "D2",
          "ticks": 8496,
          "time": 27.9473265,
          "velocity": 0.984251968503937
        },
        {
          "duration": 0.06578937499999782,
          "durationTicks": 20,
          "midi": 49,
          "name": "C#3",
          "ticks": 8496,
          "time": 27.9473265,
          "velocity": 0.6692913385826772
        },
        {
          "duration": 0.006578937499998716,
          "durationTicks": 2,
          "midi": 35,
          "name": "B1",
          "ticks": 8497,
          "time": 27.95061596875,
          "velocity": 0.968503937007874
        },
        {
          "duration": 0.10197353124999964,
          "durationTicks": 31,
          "midi": 69,
          "name": "A4",
          "ticks": 8498,
          "time": 27.953905437499998,
          "velocity": 0.7165354330708661
        },
        {
          "duration": 0.006578937499998716,
          "durationTicks": 2,
          "midi": 51,
          "name": "D#3",
          "ticks": 8500,
          "time": 27.960484375,
          "velocity": 0.4881889763779528
        },
        {
          "duration": 0.09539459374999737,
          "durationTicks": 29,
          "midi": 69,
          "name": "A4",
          "ticks": 8548,
          "time": 28.118378875,
          "velocity": 0.41732283464566927
        },
        {
          "duration": 0.006578937500002269,
          "durationTicks": 2,
          "midi": 51,
          "name": "D#3",
          "ticks": 8591,
          "time": 28.259826031249997,
          "velocity": 0.5275590551181102
        },
        {
          "duration": 0.15789450000000116,
          "durationTicks": 48,
          "midi": 69,
          "name": "A4",
          "ticks": 8593,
          "time": 28.26640496875,
          "velocity": 0.5511811023622047
        },
        {
          "duration": 0.006578937499998716,
          "durationTicks": 2,
          "midi": 42,
          "name": "F#2",
          "ticks": 8593,
          "time": 28.26640496875,
          "velocity": 0.889763779527559
        },
        {
          "duration": 0.006578937499998716,
          "durationTicks": 2,
          "midi": 35,
          "name": "B1",
          "ticks": 8644,
          "time": 28.434167875,
          "velocity": 0.8582677165354331
        },
        {
          "duration": 0.006578937499998716,
          "durationTicks": 2,
          "midi": 51,
          "name": "D#3",
          "ticks": 8686,
          "time": 28.5723255625,
          "velocity": 0.4881889763779528
        },
        {
          "duration": 0.00986840624999985,
          "durationTicks": 3,
          "midi": 42,
          "name": "F#2",
          "ticks": 8688,
          "time": 28.5789045,
          "velocity": 0.8740157480314961
        },
        {
          "duration": 0.06578937499999782,
          "durationTicks": 20,
          "midi": 57,
          "name": "A3",
          "ticks": 8688,
          "time": 28.5789045,
          "velocity": 0.7086614173228346
        },
        {
          "duration": 0.2072365312500004,
          "durationTicks": 63,
          "midi": 69,
          "name": "A4",
          "ticks": 8689,
          "time": 28.58219396875,
          "velocity": 0.6850393700787402
        },
        {
          "duration": 0.06578937499999782,
          "durationTicks": 20,
          "midi": 38,
          "name": "D2",
          "ticks": 8689,
          "time": 28.58219396875,
          "velocity": 0.984251968503937
        },
        {
          "duration": 0.06578937499999782,
          "durationTicks": 20,
          "midi": 38,
          "name": "D2",
          "ticks": 8736,
          "time": 28.736798999999998,
          "velocity": 0.8661417322834646
        },
        {
          "duration": 0.0032894687500011344,
          "durationTicks": 1,
          "midi": 51,
          "name": "D#3",
          "ticks": 8784,
          "time": 28.8946935,
          "velocity": 0.5039370078740157
        },
        {
          "duration": 0.006578937499998716,
          "durationTicks": 2,
          "midi": 42,
          "name": "F#2",
          "ticks": 8784,
          "time": 28.8946935,
          "velocity": 0.8740157480314961
        },
        {
          "duration": 0.06578937499999782,
          "durationTicks": 20,
          "midi": 38,
          "name": "D2",
          "ticks": 8784,
          "time": 28.8946935,
          "velocity": 0.905511811023622
        },
        {
          "duration": 0.08881565624999865,
          "durationTicks": 27,
          "midi": 80,
          "name": "G#5",
          "ticks": 8789,
          "time": 28.911140843749997,
          "velocity": 0.3858267716535433
        },
        {
          "duration": 0.06578937499999782,
          "durationTicks": 20,
          "midi": 38,
          "name": "D2",
          "ticks": 8832,
          "time": 29.052588,
          "velocity": 0.984251968503937
        },
        {
          "duration": 0.12828928124999806,
          "durationTicks": 39,
          "midi": 69,
          "name": "A4",
          "ticks": 8836,
          "time": 29.065745875,
          "velocity": 0.6692913385826772
        },
        {
          "duration": 0.006578937499998716,
          "durationTicks": 2,
          "midi": 35,
          "name": "B1",
          "ticks": 8836,
          "time": 29.065745875,
          "velocity": 0.8661417322834646
        },
        {
          "duration": 0.12499981249999692,
          "durationTicks": 38,
          "midi": 81,
          "name": "A5",
          "ticks": 8842,
          "time": 29.0854826875,
          "velocity": 0.5039370078740157
        },
        {
          "duration": 0.006578937499998716,
          "durationTicks": 2,
          "midi": 35,
          "name": "B1",
          "ticks": 8881,
          "time": 29.21377196875,
          "velocity": 0.968503937007874
        },
        {
          "duration": 0.006578937499998716,
          "durationTicks": 2,
          "midi": 46,
          "name": "A#2",
          "ticks": 8881,
          "time": 29.21377196875,
          "velocity": 0.8740157480314961
        },
        {
          "duration": 0.10197353125000319,
          "durationTicks": 31,
          "midi": 69,
          "name": "A4",
          "ticks": 8882,
          "time": 29.217061437499996,
          "velocity": 0.7165354330708661
        },
        {
          "duration": 0.006578937499998716,
          "durationTicks": 2,
          "midi": 57,
          "name": "A3",
          "ticks": 8884,
          "time": 29.223640375,
          "velocity": 0.8661417322834646
        },
        {
          "duration": 0.09539459374999737,
          "durationTicks": 29,
          "midi": 69,
          "name": "A4",
          "ticks": 8932,
          "time": 29.381534875,
          "velocity": 0.41732283464566927
        },
        {
          "duration": 0.006578937500002269,
          "durationTicks": 2,
          "midi": 51,
          "name": "D#3",
          "ticks": 8975,
          "time": 29.52298203125,
          "velocity": 0.5275590551181102
        },
        {
          "duration": 0.1578944999999976,
          "durationTicks": 48,
          "midi": 69,
          "name": "A4",
          "ticks": 8977,
          "time": 29.52956096875,
          "velocity": 0.5511811023622047
        },
        {
          "duration": 0.006578937499998716,
          "durationTicks": 2,
          "midi": 42,
          "name": "F#2",
          "ticks": 8977,
          "time": 29.52956096875,
          "velocity": 0.889763779527559
        },
        {
          "duration": 0.006578937499998716,
          "durationTicks": 2,
          "midi": 35,
          "name": "B1",
          "ticks": 9028,
          "time": 29.697323875,
          "velocity": 0.8582677165354331
        },
        {
          "duration": 0.006578937499998716,
          "durationTicks": 2,
          "midi": 51,
          "name": "D#3",
          "ticks": 9070,
          "time": 29.8354815625,
          "velocity": 0.4881889763779528
        },
        {
          "duration": 0.00986840624999985,
          "durationTicks": 3,
          "midi": 42,
          "name": "F#2",
          "ticks": 9072,
          "time": 29.8420605,
          "velocity": 0.8740157480314961
        },
        {
          "duration": 0.2072365312500004,
          "durationTicks": 63,
          "midi": 69,
          "name": "A4",
          "ticks": 9073,
          "time": 29.84534996875,
          "velocity": 0.6850393700787402
        },
        {
          "duration": 0.06578937499999782,
          "durationTicks": 20,
          "midi": 38,
          "name": "D2",
          "ticks": 9073,
          "time": 29.84534996875,
          "velocity": 0.984251968503937
        },
        {
          "duration": 0.0032894687500011344,
          "durationTicks": 1,
          "midi": 51,
          "name": "D#3",
          "ticks": 9168,
          "time": 30.157849499999998,
          "velocity": 0.5039370078740157
        },
        {
          "duration": 0.006578937499998716,
          "durationTicks": 2,
          "midi": 42,
          "name": "F#2",
          "ticks": 9168,
          "time": 30.157849499999998,
          "velocity": 0.8740157480314961
        },
        {
          "duration": 0.0888156562500022,
          "durationTicks": 27,
          "midi": 80,
          "name": "G#5",
          "ticks": 9173,
          "time": 30.174296843749996,
          "velocity": 0.3858267716535433
        },
        {
          "duration": 0.1282892812500016,
          "durationTicks": 39,
          "midi": 69,
          "name": "A4",
          "ticks": 9220,
          "time": 30.328901875,
          "velocity": 0.6692913385826772
        },
        {
          "duration": 0.006578937499998716,
          "durationTicks": 2,
          "midi": 35,
          "name": "B1",
          "ticks": 9220,
          "time": 30.328901875,
          "velocity": 0.8661417322834646
        },
        {
          "duration": 0.16118396874999874,
          "durationTicks": 49,
          "midi": 81,
          "name": "A5",
          "ticks": 9226,
          "time": 30.3486386875,
          "velocity": 0.5039370078740157
        },
        {
          "duration": 0.006578937499998716,
          "durationTicks": 2,
          "midi": 35,
          "name": "B1",
          "ticks": 9265,
          "time": 30.47692796875,
          "velocity": 0.9133858267716536
        },
        {
          "duration": 0.006578937499998716,
          "durationTicks": 2,
          "midi": 42,
          "name": "F#2",
          "ticks": 9265,
          "time": 30.47692796875,
          "velocity": 0.8818897637795275
        },
        {
          "duration": 0.10526300000000077,
          "durationTicks": 32,
          "midi": 80,
          "name": "G#5",
          "ticks": 9266,
          "time": 30.4802174375,
          "velocity": 0.3937007874015748
        },
        {
          "duration": 0.0032894687499975817,
          "durationTicks": 1,
          "midi": 51,
          "name": "D#3",
          "ticks": 9268,
          "time": 30.486796375,
          "velocity": 0.44881889763779526
        },
        {
          "duration": 0.09210512499999979,
          "durationTicks": 28,
          "midi": 69,
          "name": "A4",
          "ticks": 9316,
          "time": 30.644690875,
          "velocity": 0.6692913385826772
        },
        {
          "duration": 0.00986840624999985,
          "durationTicks": 3,
          "midi": 42,
          "name": "F#2",
          "ticks": 9360,
          "time": 30.7894275,
          "velocity": 0.8661417322834646
        },
        {
          "duration": 0.11184193750000304,
          "durationTicks": 34,
          "midi": 80,
          "name": "G#5",
          "ticks": 9362,
          "time": 30.796006437499997,
          "velocity": 0.3779527559055118
        },
        {
          "duration": 0.006578937500002269,
          "durationTicks": 2,
          "midi": 51,
          "name": "D#3",
          "ticks": 9362,
          "time": 30.796006437499997,
          "velocity": 0.4015748031496063
        },
        {
          "duration": 0.18421024999999602,
          "durationTicks": 56,
          "midi": 81,
          "name": "A5",
          "ticks": 9411,
          "time": 30.95719040625,
          "velocity": 0.5039370078740157
        },
        {
          "duration": 0.06578937499999782,
          "durationTicks": 20,
          "midi": 38,
          "name": "D2",
          "ticks": 9412,
          "time": 30.960479875,
          "velocity": 0.984251968503937
        },
        {
          "duration": 0.08552618750000107,
          "durationTicks": 26,
          "midi": 69,
          "name": "A4",
          "ticks": 9413,
          "time": 30.96376934375,
          "velocity": 0.6692913385826772
        },
        {
          "duration": 0.16447343749999987,
          "durationTicks": 50,
          "midi": 80,
          "name": "G#5",
          "ticks": 9454,
          "time": 31.0986375625,
          "velocity": 0.3937007874015748
        },
        {
          "duration": 0.006578937499998716,
          "durationTicks": 2,
          "midi": 42,
          "name": "F#2",
          "ticks": 9457,
          "time": 31.10850596875,
          "velocity": 0.8503937007874016
        },
        {
          "duration": 0.006578937499995163,
          "durationTicks": 2,
          "midi": 51,
          "name": "D#3",
          "ticks": 9460,
          "time": 31.118374375000002,
          "velocity": 0.4015748031496063
        },
        {
          "duration": 0.11184193749999594,
          "durationTicks": 34,
          "midi": 69,
          "name": "A4",
          "ticks": 9508,
          "time": 31.276268875,
          "velocity": 0.6299212598425197
        },
        {
          "duration": 0.006578937499998716,
          "durationTicks": 2,
          "midi": 35,
          "name": "B1",
          "ticks": 9508,
          "time": 31.276268875,
          "velocity": 0.7086614173228346
        },
        {
          "duration": 0.10526299999999722,
          "durationTicks": 32,
          "midi": 69,
          "name": "A4",
          "ticks": 9553,
          "time": 31.42429496875,
          "velocity": 0.7165354330708661
        },
        {
          "duration": 0.006578937499998716,
          "durationTicks": 2,
          "midi": 42,
          "name": "F#2",
          "ticks": 9553,
          "time": 31.42429496875,
          "velocity": 0.84251968503937
        },
        {
          "duration": 0.0032894687499975817,
          "durationTicks": 1,
          "midi": 51,
          "name": "D#3",
          "ticks": 9556,
          "time": 31.434163375,
          "velocity": 0.4330708661417323
        },
        {
          "duration": 0.10526299999999722,
          "durationTicks": 32,
          "midi": 69,
          "name": "A4",
          "ticks": 9604,
          "time": 31.592057875000002,
          "velocity": 0.6299212598425197
        },
        {
          "duration": 0.006578937499995163,
          "durationTicks": 2,
          "midi": 35,
          "name": "B1",
          "ticks": 9604,
          "time": 31.592057875000002,
          "velocity": 0.8661417322834646
        },
        {
          "duration": 0.006578937499998716,
          "durationTicks": 2,
          "midi": 35,
          "name": "B1",
          "ticks": 9649,
          "time": 31.74008396875,
          "velocity": 0.937007874015748
        },
        {
          "duration": 0.0032894687499975817,
          "durationTicks": 1,
          "midi": 42,
          "name": "F#2",
          "ticks": 9649,
          "time": 31.74008396875,
          "velocity": 0.8818897637795275
        },
        {
          "duration": 0.006578937499998716,
          "durationTicks": 2,
          "midi": 49,
          "name": "C#3",
          "ticks": 9651,
          "time": 31.74666290625,
          "velocity": 0.8661417322834646
        },
        {
          "duration": 0.062499906249996684,
          "durationTicks": 19,
          "midi": 38,
          "name": "D2",
          "ticks": 9697,
          "time": 31.89797846875,
          "velocity": 0.6377952755905512
        },
        {
          "duration": 0.07236831249999653,
          "durationTicks": 22,
          "midi": 69,
          "name": "A4",
          "ticks": 9700,
          "time": 31.907846875,
          "velocity": 0.5590551181102362
        },
        {
          "duration": 0.11184193749999594,
          "durationTicks": 34,
          "midi": 69,
          "name": "A4",
          "ticks": 9745,
          "time": 32.05587296875,
          "velocity": 0.6692913385826772
        },
        {
          "duration": 0.006578937499995163,
          "durationTicks": 2,
          "midi": 46,
          "name": "A#2",
          "ticks": 9745,
          "time": 32.05587296875,
          "velocity": 0.6299212598425197
        },
        {
          "duration": 0.003289468750004687,
          "durationTicks": 1,
          "midi": 51,
          "name": "D#3",
          "ticks": 9747,
          "time": 32.06245190625,
          "velocity": 0.47244094488188976
        },
        {
          "duration": 0.006578937500002269,
          "durationTicks": 2,
          "midi": 35,
          "name": "B1",
          "ticks": 9796,
          "time": 32.223635875,
          "velocity": 1
        },
        {
          "duration": 0.006578937499995163,
          "durationTicks": 2,
          "midi": 42,
          "name": "F#2",
          "ticks": 9840,
          "time": 32.3683725,
          "velocity": 0.9133858267716536
        },
        {
          "duration": 0.15460503125000002,
          "durationTicks": 47,
          "midi": 69,
          "name": "A4",
          "ticks": 9841,
          "time": 32.37166196875,
          "velocity": 0.6614173228346457
        },
        {
          "duration": 0.062499906249996684,
          "durationTicks": 19,
          "midi": 38,
          "name": "D2",
          "ticks": 9841,
          "time": 32.37166196875,
          "velocity": 0.984251968503937
        },
        {
          "duration": 0.0032894687499975817,
          "durationTicks": 1,
          "midi": 51,
          "name": "D#3",
          "ticks": 9846,
          "time": 32.3881093125,
          "velocity": 0.3858267716535433
        },
        {
          "duration": 0.006578937500002269,
          "durationTicks": 2,
          "midi": 42,
          "name": "F#2",
          "ticks": 9937,
          "time": 32.68745096875,
          "velocity": 0.8661417322834646
        },
        {
          "duration": 0.006578937500002269,
          "durationTicks": 2,
          "midi": 51,
          "name": "D#3",
          "ticks": 9937,
          "time": 32.68745096875,
          "velocity": 0.4566929133858268
        },
        {
          "duration": 0.12499981249999337,
          "durationTicks": 38,
          "midi": 80,
          "name": "G#5",
          "ticks": 9939,
          "time": 32.69402990625,
          "velocity": 0.4015748031496063
        },
        {
          "duration": 0.23026281250000125,
          "durationTicks": 70,
          "midi": 81,
          "name": "A5",
          "ticks": 9988,
          "time": 32.855213875,
          "velocity": 0.5039370078740157
        },
        {
          "duration": 0.10197353125000319,
          "durationTicks": 31,
          "midi": 69,
          "name": "A4",
          "ticks": 9988,
          "time": 32.855213875,
          "velocity": 0.6456692913385826
        },
        {
          "duration": 0.006578937500002269,
          "durationTicks": 2,
          "midi": 35,
          "name": "B1",
          "ticks": 9988,
          "time": 32.855213875,
          "velocity": 0.8661417322834646
        },
        {
          "duration": 0.00986840624999985,
          "durationTicks": 3,
          "midi": 42,
          "name": "F#2",
          "ticks": 10033,
          "time": 33.00323996875,
          "velocity": 0.8740157480314961
        },
        {
          "duration": 0.006578937499995163,
          "durationTicks": 2,
          "midi": 35,
          "name": "B1",
          "ticks": 10033,
          "time": 33.00323996875,
          "velocity": 0.9133858267716536
        },
        {
          "duration": 0.006578937500002269,
          "durationTicks": 2,
          "midi": 51,
          "name": "D#3",
          "ticks": 10034,
          "time": 33.0065294375,
          "velocity": 0.4409448818897638
        },
        {
          "duration": 0.09210512499999624,
          "durationTicks": 28,
          "midi": 80,
          "name": "G#5",
          "ticks": 10036,
          "time": 33.013108375,
          "velocity": 0.4015748031496063
        },
        {
          "duration": 0.07565778125000122,
          "durationTicks": 23,
          "midi": 69,
          "name": "A4",
          "ticks": 10084,
          "time": 33.171002875,
          "velocity": 0.6141732283464567
        },
        {
          "duration": 0.10526300000000077,
          "durationTicks": 32,
          "midi": 69,
          "name": "A4",
          "ticks": 10129,
          "time": 33.31902896875,
          "velocity": 0.6850393700787402
        },
        {
          "duration": 0.006578937500002269,
          "durationTicks": 2,
          "midi": 42,
          "name": "F#2",
          "ticks": 10129,
          "time": 33.31902896875,
          "velocity": 0.8661417322834646
        },
        {
          "duration": 0.00986840624999985,
          "durationTicks": 3,
          "midi": 51,
          "name": "D#3",
          "ticks": 10129,
          "time": 33.31902896875,
          "velocity": 0.4645669291338583
        },
        {
          "duration": 0.09868406250000561,
          "durationTicks": 30,
          "midi": 80,
          "name": "G#5",
          "ticks": 10133,
          "time": 33.332186843749994,
          "velocity": 0.4094488188976378
        },
        {
          "duration": 0.20394706249999928,
          "durationTicks": 62,
          "midi": 81,
          "name": "A5",
          "ticks": 10181,
          "time": 33.49008134375,
          "velocity": 0.5354330708661418
        },
        {
          "duration": 0.06578937499999427,
          "durationTicks": 20,
          "midi": 38,
          "name": "D2",
          "ticks": 10224,
          "time": 33.6315285,
          "velocity": 0.984251968503937
        },
        {
          "duration": 0.11513140625000062,
          "durationTicks": 35,
          "midi": 69,
          "name": "A4",
          "ticks": 10225,
          "time": 33.63481796875,
          "velocity": 0.6377952755905512
        },
        {
          "duration": 0.006578937500002269,
          "durationTicks": 2,
          "midi": 42,
          "name": "F#2",
          "ticks": 10225,
          "time": 33.63481796875,
          "velocity": 0.8503937007874016
        },
        {
          "duration": 0.006578937500002269,
          "durationTicks": 2,
          "midi": 51,
          "name": "D#3",
          "ticks": 10228,
          "time": 33.644686375,
          "velocity": 0.44881889763779526
        },
        {
          "duration": 0.0789472499999988,
          "durationTicks": 24,
          "midi": 80,
          "name": "G#5",
          "ticks": 10231,
          "time": 33.65455478125,
          "velocity": 0.4015748031496063
        },
        {
          "duration": 0.006578937500002269,
          "durationTicks": 2,
          "midi": 35,
          "name": "B1",
          "ticks": 10276,
          "time": 33.802580875,
          "velocity": 0.8661417322834646
        },
        {
          "duration": 0.006578937499995163,
          "durationTicks": 2,
          "midi": 42,
          "name": "F#2",
          "ticks": 10321,
          "time": 33.95060696875,
          "velocity": 0.8661417322834646
        },
        {
          "duration": 0.062499906249996684,
          "durationTicks": 19,
          "midi": 38,
          "name": "D2",
          "ticks": 10321,
          "time": 33.95060696875,
          "velocity": 0.889763779527559
        },
        {
          "duration": 0.12171034374999579,
          "durationTicks": 37,
          "midi": 69,
          "name": "A4",
          "ticks": 10322,
          "time": 33.9538964375,
          "velocity": 0.6456692913385826
        },
        {
          "duration": 0.006578937499995163,
          "durationTicks": 2,
          "midi": 51,
          "name": "D#3",
          "ticks": 10324,
          "time": 33.960475375,
          "velocity": 0.4409448818897638
        },
        {
          "duration": 0.00986840624999985,
          "durationTicks": 3,
          "midi": 35,
          "name": "B1",
          "ticks": 10417,
          "time": 34.26639596875,
          "velocity": 0.968503937007874
        },
        {
          "duration": 0.006578937500002269,
          "durationTicks": 2,
          "midi": 46,
          "name": "A#2",
          "ticks": 10417,
          "time": 34.26639596875,
          "velocity": 0.8740157480314961
        },
        {
          "duration": 0.10526300000000788,
          "durationTicks": 32,
          "midi": 69,
          "name": "A4",
          "ticks": 10418,
          "time": 34.269685437499994,
          "velocity": 0.7165354330708661
        },
        {
          "duration": 0.006578937500002269,
          "durationTicks": 2,
          "midi": 51,
          "name": "D#3",
          "ticks": 10420,
          "time": 34.276264375,
          "velocity": 0.4881889763779528
        },
        {
          "duration": 0.09539459374999382,
          "durationTicks": 29,
          "midi": 69,
          "name": "A4",
          "ticks": 10468,
          "time": 34.434158875,
          "velocity": 0.41732283464566927
        },
        {
          "duration": 0.006578937500002269,
          "durationTicks": 2,
          "midi": 51,
          "name": "D#3",
          "ticks": 10510,
          "time": 34.5723165625,
          "velocity": 0.5275590551181102
        },
        {
          "duration": 0.1578944999999976,
          "durationTicks": 48,
          "midi": 69,
          "name": "A4",
          "ticks": 10513,
          "time": 34.58218496875,
          "velocity": 0.5511811023622047
        },
        {
          "duration": 0.006578937500002269,
          "durationTicks": 2,
          "midi": 42,
          "name": "F#2",
          "ticks": 10513,
          "time": 34.58218496875,
          "velocity": 0.889763779527559
        },
        {
          "duration": 0.006578937500002269,
          "durationTicks": 2,
          "midi": 35,
          "name": "B1",
          "ticks": 10564,
          "time": 34.749947875,
          "velocity": 0.8582677165354331
        },
        {
          "duration": 0.006578937499995163,
          "durationTicks": 2,
          "midi": 51,
          "name": "D#3",
          "ticks": 10606,
          "time": 34.8881055625,
          "velocity": 0.4881889763779528
        },
        {
          "duration": 0.20394706249999928,
          "durationTicks": 62,
          "midi": 69,
          "name": "A4",
          "ticks": 10609,
          "time": 34.89797396875,
          "velocity": 0.6850393700787402
        },
        {
          "duration": 0.006578937499995163,
          "durationTicks": 2,
          "midi": 42,
          "name": "F#2",
          "ticks": 10609,
          "time": 34.89797396875,
          "velocity": 0.8740157480314961
        },
        {
          "duration": 0.06578937499999427,
          "durationTicks": 20,
          "midi": 38,
          "name": "D2",
          "ticks": 10609,
          "time": 34.89797396875,
          "velocity": 0.984251968503937
        },
        {
          "duration": 0.00986840624999985,
          "durationTicks": 3,
          "midi": 51,
          "name": "D#3",
          "ticks": 10703,
          "time": 35.207184031249994,
          "velocity": 0.5039370078740157
        },
        {
          "duration": 0.006578937499995163,
          "durationTicks": 2,
          "midi": 42,
          "name": "F#2",
          "ticks": 10704,
          "time": 35.2104735,
          "velocity": 0.8740157480314961
        },
        {
          "duration": 0.08552618750000818,
          "durationTicks": 26,
          "midi": 80,
          "name": "G#5",
          "ticks": 10709,
          "time": 35.226920843749994,
          "velocity": 0.3858267716535433
        },
        {
          "duration": 0.00986840624999985,
          "durationTicks": 3,
          "midi": 35,
          "name": "B1",
          "ticks": 10755,
          "time": 35.37823640625,
          "velocity": 0.8661417322834646
        },
        {
          "duration": 0.12828928124999806,
          "durationTicks": 39,
          "midi": 69,
          "name": "A4",
          "ticks": 10756,
          "time": 35.381525875,
          "velocity": 0.6692913385826772
        },
        {
          "duration": 0.1611839687499952,
          "durationTicks": 49,
          "midi": 81,
          "name": "A5",
          "ticks": 10762,
          "time": 35.4012626875,
          "velocity": 0.5039370078740157
        },
        {
          "duration": 0.006578937500002269,
          "durationTicks": 2,
          "midi": 35,
          "name": "B1",
          "ticks": 10801,
          "time": 35.52955196875,
          "velocity": 0.9133858267716536
        },
        {
          "duration": 0.006578937500002269,
          "durationTicks": 2,
          "midi": 42,
          "name": "F#2",
          "ticks": 10801,
          "time": 35.52955196875,
          "velocity": 0.8818897637795275
        },
        {
          "duration": 0.10526300000000077,
          "durationTicks": 32,
          "midi": 80,
          "name": "G#5",
          "ticks": 10802,
          "time": 35.5328414375,
          "velocity": 0.3937007874015748
        },
        {
          "duration": 0.006578937499995163,
          "durationTicks": 2,
          "midi": 51,
          "name": "D#3",
          "ticks": 10803,
          "time": 35.53613090625,
          "velocity": 0.44881889763779526
        },
        {
          "duration": 0.08881565625000576,
          "durationTicks": 27,
          "midi": 69,
          "name": "A4",
          "ticks": 10852,
          "time": 35.697314875,
          "velocity": 0.6692913385826772
        },
        {
          "duration": 0.006578937499995163,
          "durationTicks": 2,
          "midi": 42,
          "name": "F#2",
          "ticks": 10897,
          "time": 35.84534096875,
          "velocity": 0.8661417322834646
        },
        {
          "duration": 0.006578937500002269,
          "durationTicks": 2,
          "midi": 51,
          "name": "D#3",
          "ticks": 10898,
          "time": 35.8486304375,
          "velocity": 0.4015748031496063
        },
        {
          "duration": 0.10855246875000546,
          "durationTicks": 33,
          "midi": 80,
          "name": "G#5",
          "ticks": 10899,
          "time": 35.85191990625,
          "velocity": 0.3779527559055118
        },
        {
          "duration": 0.18421024999999247,
          "durationTicks": 56,
          "midi": 81,
          "name": "A5",
          "ticks": 10947,
          "time": 36.00981440625,
          "velocity": 0.5039370078740157
        },
        {
          "duration": 0.06578937500000137,
          "durationTicks": 20,
          "midi": 38,
          "name": "D2",
          "ticks": 10948,
          "time": 36.013103875,
          "velocity": 0.984251968503937
        },
        {
          "duration": 0.08881565624999865,
          "durationTicks": 27,
          "midi": 69,
          "name": "A4",
          "ticks": 10949,
          "time": 36.016393343749996,
          "velocity": 0.6692913385826772
        },
        {
          "duration": 0.16447343749999987,
          "durationTicks": 50,
          "midi": 80,
          "name": "G#5",
          "ticks": 10990,
          "time": 36.1512615625,
          "velocity": 0.3937007874015748
        },
        {
          "duration": 0.006578937499995163,
          "durationTicks": 2,
          "midi": 42,
          "name": "F#2",
          "ticks": 10992,
          "time": 36.1578405,
          "velocity": 0.8503937007874016
        },
        {
          "duration": 0.006578937499995163,
          "durationTicks": 2,
          "midi": 51,
          "name": "D#3",
          "ticks": 10996,
          "time": 36.170998375,
          "velocity": 0.4015748031496063
        },
        {
          "duration": 0.06578937500000137,
          "durationTicks": 20,
          "midi": 38,
          "name": "D2",
          "ticks": 11040,
          "time": 36.315735,
          "velocity": 0.984251968503937
        },
        {
          "duration": 0.11184193749999594,
          "durationTicks": 34,
          "midi": 69,
          "name": "A4",
          "ticks": 11044,
          "time": 36.328892875,
          "velocity": 0.6299212598425197
        },
        {
          "duration": 0.006578937499995163,
          "durationTicks": 2,
          "midi": 35,
          "name": "B1",
          "ticks": 11044,
          "time": 36.328892875,
          "velocity": 0.7086614173228346
        },
        {
          "duration": 0.06578937499999427,
          "durationTicks": 20,
          "midi": 38,
          "name": "D2",
          "ticks": 11088,
          "time": 36.4736295,
          "velocity": 0.984251968503937
        },
        {
          "duration": 0.10526300000000077,
          "durationTicks": 32,
          "midi": 69,
          "name": "A4",
          "ticks": 11089,
          "time": 36.47691896875,
          "velocity": 0.7165354330708661
        },
        {
          "duration": 0.0032894687499975817,
          "durationTicks": 1,
          "midi": 42,
          "name": "F#2",
          "ticks": 11089,
          "time": 36.47691896875,
          "velocity": 0.84251968503937
        },
        {
          "duration": 0.006578937499995163,
          "durationTicks": 2,
          "midi": 51,
          "name": "D#3",
          "ticks": 11091,
          "time": 36.48349790625,
          "velocity": 0.4330708661417323
        },
        {
          "duration": 0.06578937500000137,
          "durationTicks": 20,
          "midi": 38,
          "name": "D2",
          "ticks": 11136,
          "time": 36.631524,
          "velocity": 0.984251968503937
        },
        {
          "duration": 0.10855246874999835,
          "durationTicks": 33,
          "midi": 69,
          "name": "A4",
          "ticks": 11140,
          "time": 36.644681875,
          "velocity": 0.6299212598425197
        },
        {
          "duration": 0.006578937499995163,
          "durationTicks": 2,
          "midi": 35,
          "name": "B1",
          "ticks": 11140,
          "time": 36.644681875,
          "velocity": 0.8661417322834646
        },
        {
          "duration": 0.06578937500000137,
          "durationTicks": 20,
          "midi": 38,
          "name": "D2",
          "ticks": 11184,
          "time": 36.7894185,
          "velocity": 0.984251968503937
        },
        {
          "duration": 0.006578937500002269,
          "durationTicks": 2,
          "midi": 42,
          "name": "F#2",
          "ticks": 11184,
          "time": 36.7894185,
          "velocity": 0.7795275590551181
        },
        {
          "duration": 0.00986840624999985,
          "durationTicks": 3,
          "midi": 35,
          "name": "B1",
          "ticks": 11185,
          "time": 36.79270796875,
          "velocity": 0.968503937007874
        },
        {
          "duration": 0.006578937499995163,
          "durationTicks": 2,
          "midi": 49,
          "name": "C#3",
          "ticks": 11185,
          "time": 36.79270796875,
          "velocity": 0.7874015748031497
        },
        {
          "duration": 0.10526300000000077,
          "durationTicks": 32,
          "midi": 69,
          "name": "A4",
          "ticks": 11186,
          "time": 36.7959974375,
          "velocity": 0.7165354330708661
        },
        {
          "duration": 0.006578937499995163,
          "durationTicks": 2,
          "midi": 42,
          "name": "F#2",
          "ticks": 11376,
          "time": 37.4209965,
          "velocity": 0.7795275590551181
        },
        {
          "duration": 0.06578937500000137,
          "durationTicks": 20,
          "midi": 38,
          "name": "D2",
          "ticks": 11568,
          "time": 38.0525745,
          "velocity": 0.984251968503937
        },
        {
          "duration": 0.006578937499995163,
          "durationTicks": 2,
          "midi": 42,
          "name": "F#2",
          "ticks": 11568,
          "time": 38.0525745,
          "velocity": 0.7795275590551181
        },
        {
          "duration": 0.00986840624999985,
          "durationTicks": 3,
          "midi": 35,
          "name": "B1",
          "ticks": 11569,
          "time": 38.05586396875,
          "velocity": 0.968503937007874
        },
        {
          "duration": 0.006578937499995163,
          "durationTicks": 2,
          "midi": 49,
          "name": "C#3",
          "ticks": 11569,
          "time": 38.05586396875,
          "velocity": 0.7874015748031497
        },
        {
          "duration": 0.10526300000000788,
          "durationTicks": 32,
          "midi": 69,
          "name": "A4",
          "ticks": 11570,
          "time": 38.059153437499994,
          "velocity": 0.7165354330708661
        },
        {
          "duration": 0.006578937500002269,
          "durationTicks": 2,
          "midi": 42,
          "name": "F#2",
          "ticks": 11760,
          "time": 38.684152499999996,
          "velocity": 0.7795275590551181
        },
        {
          "duration": 0.062499906249996684,
          "durationTicks": 19,
          "midi": 38,
          "name": "D2",
          "ticks": 11808,
          "time": 38.842047,
          "velocity": 0.7086614173228346
        },
        {
          "duration": 0.06249990625000379,
          "durationTicks": 19,
          "midi": 38,
          "name": "D2",
          "ticks": 11856,
          "time": 38.9999415,
          "velocity": 0.7874015748031497
        },
        {
          "duration": 0.06249990625000379,
          "durationTicks": 19,
          "midi": 38,
          "name": "D2",
          "ticks": 11904,
          "time": 39.157835999999996,
          "velocity": 0.8661417322834646
        },
        {
          "duration": 0.006578937499995163,
          "durationTicks": 2,
          "midi": 49,
          "name": "C#3",
          "ticks": 11952,
          "time": 39.3157305,
          "velocity": 0.8740157480314961
        },
        {
          "duration": 0.062499906249996684,
          "durationTicks": 19,
          "midi": 38,
          "name": "D2",
          "ticks": 11952,
          "time": 39.3157305,
          "velocity": 0.984251968503937
        },
        {
          "duration": 0.10855246874999835,
          "durationTicks": 33,
          "midi": 69,
          "name": "A4",
          "ticks": 11953,
          "time": 39.31901996875,
          "velocity": 0.7165354330708661
        },
        {
          "duration": 0.006578937500002269,
          "durationTicks": 2,
          "midi": 35,
          "name": "B1",
          "ticks": 11953,
          "time": 39.31901996875,
          "velocity": 0.968503937007874
        },
        {
          "duration": 0.006578937500002269,
          "durationTicks": 2,
          "midi": 46,
          "name": "A#2",
          "ticks": 11953,
          "time": 39.31901996875,
          "velocity": 0.8740157480314961
        },
        {
          "duration": 0.006578937500002269,
          "durationTicks": 2,
          "midi": 51,
          "name": "D#3",
          "ticks": 11956,
          "time": 39.328888375,
          "velocity": 0.4881889763779528
        },
        {
          "duration": 0.0986840624999985,
          "durationTicks": 30,
          "midi": 69,
          "name": "A4",
          "ticks": 12004,
          "time": 39.486782875,
          "velocity": 0.41732283464566927
        },
        {
          "duration": 0.00986840624999985,
          "durationTicks": 3,
          "midi": 51,
          "name": "D#3",
          "ticks": 12046,
          "time": 39.6249405625,
          "velocity": 0.5275590551181102
        },
        {
          "duration": 0.1578944999999976,
          "durationTicks": 48,
          "midi": 69,
          "name": "A4",
          "ticks": 12049,
          "time": 39.63480896875,
          "velocity": 0.5511811023622047
        },
        {
          "duration": 0.006578937499995163,
          "durationTicks": 2,
          "midi": 42,
          "name": "F#2",
          "ticks": 12049,
          "time": 39.63480896875,
          "velocity": 0.889763779527559
        },
        {
          "duration": 0.006578937499995163,
          "durationTicks": 2,
          "midi": 51,
          "name": "D#3",
          "ticks": 12142,
          "time": 39.9407295625,
          "velocity": 0.4881889763779528
        },
        {
          "duration": 0.006578937499995163,
          "durationTicks": 2,
          "midi": 57,
          "name": "A3",
          "ticks": 12144,
          "time": 39.9473085,
          "velocity": 0.8740157480314961
        },
        {
          "duration": 0.006578937499995163,
          "durationTicks": 2,
          "midi": 35,
          "name": "B1",
          "ticks": 12144,
          "time": 39.9473085,
          "velocity": 0.8582677165354331
        },
        {
          "duration": 0.20394706249999217,
          "durationTicks": 62,
          "midi": 69,
          "name": "A4",
          "ticks": 12145,
          "time": 39.95059796875,
          "velocity": 0.6850393700787402
        },
        {
          "duration": 0.006578937499995163,
          "durationTicks": 2,
          "midi": 42,
          "name": "F#2",
          "ticks": 12145,
          "time": 39.95059796875,
          "velocity": 0.8740157480314961
        },
        {
          "duration": 0.062499906249996684,
          "durationTicks": 19,
          "midi": 38,
          "name": "D2",
          "ticks": 12145,
          "time": 39.95059796875,
          "velocity": 0.984251968503937
        },
        {
          "duration": 0.00986840624999985,
          "durationTicks": 3,
          "midi": 51,
          "name": "D#3",
          "ticks": 12239,
          "time": 40.259808031249996,
          "velocity": 0.5039370078740157
        },
        {
          "duration": 0.006578937499995163,
          "durationTicks": 2,
          "midi": 42,
          "name": "F#2",
          "ticks": 12240,
          "time": 40.2630975,
          "velocity": 0.8740157480314961
        },
        {
          "duration": 0.08552618750000107,
          "durationTicks": 26,
          "midi": 80,
          "name": "G#5",
          "ticks": 12245,
          "time": 40.279544843749996,
          "velocity": 0.3858267716535433
        },
        {
          "duration": 0.12828928124999806,
          "durationTicks": 39,
          "midi": 69,
          "name": "A4",
          "ticks": 12292,
          "time": 40.434149874999996,
          "velocity": 0.6692913385826772
        },
        {
          "duration": 0.13157875000000274,
          "durationTicks": 40,
          "midi": 81,
          "name": "A5",
          "ticks": 12298,
          "time": 40.453886687499995,
          "velocity": 0.5039370078740157
        },
        {
          "duration": 0.06578937500000848,
          "durationTicks": 20,
          "midi": 38,
          "name": "D2",
          "ticks": 12336,
          "time": 40.578886499999996,
          "velocity": 0.984251968503937
        },
        {
          "duration": 0.006578937500002269,
          "durationTicks": 2,
          "midi": 35,
          "name": "B1",
          "ticks": 12337,
          "time": 40.58217596874999,
          "velocity": 0.9133858267716536
        },
        {
          "duration": 0.006578937500002269,
          "durationTicks": 2,
          "midi": 42,
          "name": "F#2",
          "ticks": 12337,
          "time": 40.58217596874999,
          "velocity": 0.8818897637795275
        },
        {
          "duration": 0.1611839687500023,
          "durationTicks": 49,
          "midi": 81,
          "name": "A5",
          "ticks": 12338,
          "time": 40.5854654375,
          "velocity": 0.5039370078740157
        },
        {
          "duration": 0.006578937500002269,
          "durationTicks": 2,
          "midi": 51,
          "name": "D#3",
          "ticks": 12339,
          "time": 40.588754906249996,
          "velocity": 0.44881889763779526
        },
        {
          "duration": 0.10526300000000788,
          "durationTicks": 32,
          "midi": 50,
          "name": "D3",
          "ticks": 12624,
          "time": 41.526253499999996,
          "velocity": 0.7086614173228346
        },
        {
          "duration": 0.10526300000000077,
          "durationTicks": 32,
          "midi": 48,
          "name": "C3",
          "ticks": 12648,
          "time": 41.60520075,
          "velocity": 0.7086614173228346
        },
        {
          "duration": 0.10526300000000077,
          "durationTicks": 32,
          "midi": 45,
          "name": "A2",
          "ticks": 12672,
          "time": 41.684148,
          "velocity": 0.7086614173228346
        },
        {
          "duration": 0.0789472499999988,
          "durationTicks": 24,
          "midi": 43,
          "name": "G2",
          "ticks": 12696,
          "time": 41.76309525,
          "velocity": 0.7086614173228346
        },
        {
          "duration": 0.0789472499999988,
          "durationTicks": 24,
          "midi": 41,
          "name": "F2",
          "ticks": 12720,
          "time": 41.8420425,
          "velocity": 0.7086614173228346
        },
        {
          "duration": 0.006578937500002269,
          "durationTicks": 2,
          "midi": 35,
          "name": "B1",
          "ticks": 12720,
          "time": 41.8420425,
          "velocity": 0.9133858267716536
        }
      ],
      "endOfTrackTicks": 12744
    }
  ]
}
