{
  "header": {
    "keySignatures": [],
    "meta": [],
    "name": "",
    "ppq": 384,
    "tempos": [
      {
        "bpm": 120,
        "ticks": 0
      },
      {
        "bpm": 175.02049198260298,
        "ticks": 0
      }
    ],
    "timeSignatures": [
      {
        "ticks": 0,
        "timeSignature": [
          4,
          4
        ],
        "measures": 0
      },
      {
        "ticks": 0,
        "timeSignature": [
          4,
          4
        ],
        "measures": 0
      }
    ]
  },
  "tracks": [
    {
      "channel": 9,
      "controlChanges": {
        "7": [
          {
            "number": 7,
            "ticks": 0,
            "time": 0,
            "value": 0.7874015748031497
          }
        ],
        "10": [
          {
            "number": 10,
            "ticks": 0,
            "time": 0,
            "value": 0.5039370078740157
          }
        ],
        "91": [
          {
            "number": 91,
            "ticks": 0,
            "time": 0,
            "value": 0.3937007874015748
          }
        ],
        "93": [
          {
            "number": 93,
            "ticks": 0,
            "time": 0,
            "value": 0
          }
        ]
      },
      "pitchBends": [
        {
          "ticks": 0,
          "time": 0,
          "value": 0
        }
      ],
      "instrument": {
        "family": "drums",
        "number": 0,
        "name": "standard kit"
      },
      "name": "",
      "notes": [
        {
          "duration": 0.04285212500000002,
          "durationTicks": 48,
          "midi": 49,
          "name": "C#3",
          "ticks": 1536,
          "time": 1.371268,
          "velocity": 0.7086614173228346
        },
        {
          "duration": 0.042852124999999575,
          "durationTicks": 48,
          "midi": 49,
          "name": "C#3",
          "ticks": 4608,
          "time": 4.113804,
          "velocity": 0.7086614173228346
        },
        {
          "duration": 0.04285212500000046,
          "durationTicks": 48,
          "midi": 49,
          "name": "C#3",
          "ticks": 7680,
          "time": 6.856339999999999,
          "velocity": 0.7086614173228346
        },
        {
          "duration": 0.042852124999999575,
          "durationTicks": 48,
          "midi": 35,
          "name": "B1",
          "ticks": 12288,
          "time": 10.970144,
          "velocity": 0.8188976377952756
        },
        {
          "duration": 0.042852124999999575,
          "durationTicks": 48,
          "midi": 51,
          "name": "D#3",
          "ticks": 12288,
          "time": 10.970144,
          "velocity": 0.6535433070866141
        },
        {
          "duration": 0.042852124999999575,
          "durationTicks": 48,
          "midi": 35,
          "name": "B1",
          "ticks": 12672,
          "time": 11.312961,
          "velocity": 0.8188976377952756
        },
        {
          "duration": 0.042852124999999575,
          "durationTicks": 48,
          "midi": 39,
          "name": "D#2",
          "ticks": 12672,
          "time": 11.312961,
          "velocity": 0.7480314960629921
        },
        {
          "duration": 0.042852124999999575,
          "durationTicks": 48,
          "midi": 38,
          "name": "D2",
          "ticks": 12672,
          "time": 11.312961,
          "velocity": 0.6692913385826772
        },
        {
          "duration": 0.042852124999999575,
          "durationTicks": 48,
          "midi": 51,
          "name": "D#3",
          "ticks": 12864,
          "time": 11.4843695,
          "velocity": 0.5275590551181102
        },
        {
          "duration": 0.042852124999999575,
          "durationTicks": 48,
          "midi": 35,
          "name": "B1",
          "ticks": 13056,
          "time": 11.655778,
          "velocity": 0.8188976377952756
        },
        {
          "duration": 0.042852124999999575,
          "durationTicks": 48,
          "midi": 51,
          "name": "D#3",
          "ticks": 13056,
          "time": 11.655778,
          "velocity": 0.5590551181102362
        },
        {
          "duration": 0.042852124999999575,
          "durationTicks": 48,
          "midi": 35,
          "name": "B1",
          "ticks": 13440,
          "time": 11.998595,
          "velocity": 0.8188976377952756
        },
        {
          "duration": 0.042852124999999575,
          "durationTicks": 48,
          "midi": 51,
          "name": "D#3",
          "ticks": 13440,
          "time": 11.998595,
          "velocity": 0.5511811023622047
        },
        {
          "duration": 0.042852124999999575,
          "durationTicks": 48,
          "midi": 39,
          "name": "D#2",
          "ticks": 13440,
          "time": 11.998595,
          "velocity": 0.7480314960629921
        },
        {
          "duration": 0.042852124999999575,
          "durationTicks": 48,
          "midi": 38,
          "name": "D2",
          "ticks": 13440,
          "time": 11.998595,
          "velocity": 0.6692913385826772
        },
        {
          "duration": 0.042852124999999575,
          "durationTicks": 48,
          "midi": 39,
          "name": "D#2",
          "ticks": 13632,
          "time": 12.1700035,
          "velocity": 0.7480314960629921
        },
        {
          "duration": 0.042852124999999575,
          "durationTicks": 48,
          "midi": 38,
          "name": "D2",
          "ticks": 13632,
          "time": 12.1700035,
          "velocity": 0.6692913385826772
        },
        {
          "duration": 0.042852124999999575,
          "durationTicks": 48,
          "midi": 35,
          "name": "B1",
          "ticks": 13824,
          "time": 12.341412,
          "velocity": 0.8188976377952756
        },
        {
          "duration": 0.042852124999999575,
          "durationTicks": 48,
          "midi": 51,
          "name": "D#3",
          "ticks": 13824,
          "time": 12.341412,
          "velocity": 0.5826771653543307
        },
        {
          "duration": 0.042852124999999575,
          "durationTicks": 48,
          "midi": 35,
          "name": "B1",
          "ticks": 14208,
          "time": 12.684229,
          "velocity": 0.8188976377952756
        },
        {
          "duration": 0.042852124999999575,
          "durationTicks": 48,
          "midi": 39,
          "name": "D#2",
          "ticks": 14208,
          "time": 12.684229,
          "velocity": 0.7480314960629921
        },
        {
          "duration": 0.042852124999999575,
          "durationTicks": 48,
          "midi": 38,
          "name": "D2",
          "ticks": 14208,
          "time": 12.684229,
          "velocity": 0.6692913385826772
        },
        {
          "duration": 0.04285212500000135,
          "durationTicks": 48,
          "midi": 51,
          "name": "D#3",
          "ticks": 14400,
          "time": 12.855637499999998,
          "velocity": 0.5511811023622047
        },
        {
          "duration": 0.04285212500000135,
          "durationTicks": 48,
          "midi": 35,
          "name": "B1",
          "ticks": 14592,
          "time": 13.027045999999999,
          "velocity": 0.8188976377952756
        },
        {
          "duration": 0.04285212500000135,
          "durationTicks": 48,
          "midi": 51,
          "name": "D#3",
          "ticks": 14592,
          "time": 13.027045999999999,
          "velocity": 0.5669291338582677
        },
        {
          "duration": 0.04285212500000135,
          "durationTicks": 48,
          "midi": 35,
          "name": "B1",
          "ticks": 14976,
          "time": 13.369862999999999,
          "velocity": 0.8188976377952756
        },
        {
          "duration": 0.04285212500000135,
          "durationTicks": 48,
          "midi": 51,
          "name": "D#3",
          "ticks": 14976,
          "time": 13.369862999999999,
          "velocity": 0.5354330708661418
        },
        {
          "duration": 0.04285212500000135,
          "durationTicks": 48,
          "midi": 39,
          "name": "D#2",
          "ticks": 14976,
          "time": 13.369862999999999,
          "velocity": 0.7480314960629921
        },
        {
          "duration": 0.04285212500000135,
          "durationTicks": 48,
          "midi": 38,
          "name": "D2",
          "ticks": 14976,
          "time": 13.369862999999999,
          "velocity": 0.6692913385826772
        },
        {
          "duration": 0.04285212500000135,
          "durationTicks": 48,
          "midi": 39,
          "name": "D#2",
          "ticks": 15168,
          "time": 13.541271499999999,
          "velocity": 0.7480314960629921
        },
        {
          "duration": 0.04285212500000135,
          "durationTicks": 48,
          "midi": 38,
          "name": "D2",
          "ticks": 15168,
          "time": 13.541271499999999,
          "velocity": 0.6692913385826772
        },
        {
          "duration": 0.042852124999999575,
          "durationTicks": 48,
          "midi": 35,
          "name": "B1",
          "ticks": 15360,
          "time": 13.712679999999999,
          "velocity": 0.8188976377952756
        },
        {
          "duration": 0.042852124999999575,
          "durationTicks": 48,
          "midi": 51,
          "name": "D#3",
          "ticks": 15360,
          "time": 13.712679999999999,
          "velocity": 0.5590551181102362
        },
        {
          "duration": 0.042852124999999575,
          "durationTicks": 48,
          "midi": 35,
          "name": "B1",
          "ticks": 15744,
          "time": 14.055496999999999,
          "velocity": 0.8188976377952756
        },
        {
          "duration": 0.042852124999999575,
          "durationTicks": 48,
          "midi": 39,
          "name": "D#2",
          "ticks": 15744,
          "time": 14.055496999999999,
          "velocity": 0.7480314960629921
        },
        {
          "duration": 0.042852124999999575,
          "durationTicks": 48,
          "midi": 38,
          "name": "D2",
          "ticks": 15744,
          "time": 14.055496999999999,
          "velocity": 0.6692913385826772
        },
        {
          "duration": 0.042852124999999575,
          "durationTicks": 48,
          "midi": 51,
          "name": "D#3",
          "ticks": 15936,
          "time": 14.226905499999999,
          "velocity": 0.5826771653543307
        },
        {
          "duration": 0.042852124999999575,
          "durationTicks": 48,
          "midi": 35,
          "name": "B1",
          "ticks": 16128,
          "time": 14.398314,
          "velocity": 0.8188976377952756
        },
        {
          "duration": 0.042852124999999575,
          "durationTicks": 48,
          "midi": 51,
          "name": "D#3",
          "ticks": 16128,
          "time": 14.398314,
          "velocity": 0.5275590551181102
        },
        {
          "duration": 0.042852124999999575,
          "durationTicks": 48,
          "midi": 35,
          "name": "B1",
          "ticks": 16512,
          "time": 14.741131,
          "velocity": 0.8188976377952756
        },
        {
          "duration": 0.042852124999999575,
          "durationTicks": 48,
          "midi": 51,
          "name": "D#3",
          "ticks": 16512,
          "time": 14.741131,
          "velocity": 0.5590551181102362
        },
        {
          "duration": 0.042852124999999575,
          "durationTicks": 48,
          "midi": 39,
          "name": "D#2",
          "ticks": 16512,
          "time": 14.741131,
          "velocity": 0.7480314960629921
        },
        {
          "duration": 0.042852124999999575,
          "durationTicks": 48,
          "midi": 38,
          "name": "D2",
          "ticks": 16512,
          "time": 14.741131,
          "velocity": 0.6692913385826772
        },
        {
          "duration": 0.042852124999999575,
          "durationTicks": 48,
          "midi": 39,
          "name": "D#2",
          "ticks": 16704,
          "time": 14.9125395,
          "velocity": 0.7480314960629921
        },
        {
          "duration": 0.042852124999999575,
          "durationTicks": 48,
          "midi": 38,
          "name": "D2",
          "ticks": 16704,
          "time": 14.9125395,
          "velocity": 0.6692913385826772
        },
        {
          "duration": 0.042852124999999575,
          "durationTicks": 48,
          "midi": 35,
          "name": "B1",
          "ticks": 16896,
          "time": 15.083948,
          "velocity": 0.8188976377952756
        },
        {
          "duration": 0.042852124999999575,
          "durationTicks": 48,
          "midi": 51,
          "name": "D#3",
          "ticks": 16896,
          "time": 15.083948,
          "velocity": 0.5669291338582677
        },
        {
          "duration": 0.042852124999999575,
          "durationTicks": 48,
          "midi": 35,
          "name": "B1",
          "ticks": 17280,
          "time": 15.426765,
          "velocity": 0.8188976377952756
        },
        {
          "duration": 0.042852124999999575,
          "durationTicks": 48,
          "midi": 39,
          "name": "D#2",
          "ticks": 17280,
          "time": 15.426765,
          "velocity": 0.7480314960629921
        },
        {
          "duration": 0.042852124999999575,
          "durationTicks": 48,
          "midi": 38,
          "name": "D2",
          "ticks": 17280,
          "time": 15.426765,
          "velocity": 0.6692913385826772
        },
        {
          "duration": 0.042852124999999575,
          "durationTicks": 48,
          "midi": 51,
          "name": "D#3",
          "ticks": 17472,
          "time": 15.5981735,
          "velocity": 0.5196850393700787
        },
        {
          "duration": 0.042852124999999575,
          "durationTicks": 48,
          "midi": 35,
          "name": "B1",
          "ticks": 17664,
          "time": 15.769582,
          "velocity": 0.8188976377952756
        },
        {
          "duration": 0.042852124999999575,
          "durationTicks": 48,
          "midi": 51,
          "name": "D#3",
          "ticks": 17664,
          "time": 15.769582,
          "velocity": 0.5275590551181102
        },
        {
          "duration": 0.042852124999999575,
          "durationTicks": 48,
          "midi": 35,
          "name": "B1",
          "ticks": 18048,
          "time": 16.112399,
          "velocity": 0.8188976377952756
        },
        {
          "duration": 0.042852124999999575,
          "durationTicks": 48,
          "midi": 51,
          "name": "D#3",
          "ticks": 18048,
          "time": 16.112399,
          "velocity": 0.5275590551181102
        },
        {
          "duration": 0.042852124999999575,
          "durationTicks": 48,
          "midi": 39,
          "name": "D#2",
          "ticks": 18048,
          "time": 16.112399,
          "velocity": 0.7480314960629921
        },
        {
          "duration": 0.042852124999999575,
          "durationTicks": 48,
          "midi": 38,
          "name": "D2",
          "ticks": 18048,
          "time": 16.112399,
          "velocity": 0.6692913385826772
        },
        {
          "duration": 0.042852124999999575,
          "durationTicks": 48,
          "midi": 39,
          "name": "D#2",
          "ticks": 18240,
          "time": 16.283807499999998,
          "velocity": 0.7480314960629921
        },
        {
          "duration": 0.042852124999999575,
          "durationTicks": 48,
          "midi": 38,
          "name": "D2",
          "ticks": 18240,
          "time": 16.283807499999998,
          "velocity": 0.6692913385826772
        },
        {
          "duration": 0.042852124999999575,
          "durationTicks": 48,
          "midi": 35,
          "name": "B1",
          "ticks": 18432,
          "time": 16.455216,
          "velocity": 0.8188976377952756
        },
        {
          "duration": 0.042852124999999575,
          "durationTicks": 48,
          "midi": 51,
          "name": "D#3",
          "ticks": 18432,
          "time": 16.455216,
          "velocity": 0.5669291338582677
        },
        {
          "duration": 0.042852124999999575,
          "durationTicks": 48,
          "midi": 35,
          "name": "B1",
          "ticks": 18816,
          "time": 16.798033,
          "velocity": 0.8188976377952756
        },
        {
          "duration": 0.042852124999999575,
          "durationTicks": 48,
          "midi": 39,
          "name": "D#2",
          "ticks": 18816,
          "time": 16.798033,
          "velocity": 0.7480314960629921
        },
        {
          "duration": 0.042852124999999575,
          "durationTicks": 48,
          "midi": 38,
          "name": "D2",
          "ticks": 18816,
          "time": 16.798033,
          "velocity": 0.6692913385826772
        },
        {
          "duration": 0.042852124999999575,
          "durationTicks": 48,
          "midi": 51,
          "name": "D#3",
          "ticks": 19008,
          "time": 16.9694415,
          "velocity": 0.49606299212598426
        },
        {
          "duration": 0.042852124999999575,
          "durationTicks": 48,
          "midi": 35,
          "name": "B1",
          "ticks": 19200,
          "time": 17.14085,
          "velocity": 0.8188976377952756
        },
        {
          "duration": 0.042852124999999575,
          "durationTicks": 48,
          "midi": 51,
          "name": "D#3",
          "ticks": 19200,
          "time": 17.14085,
          "velocity": 0.5354330708661418
        },
        {
          "duration": 0.042852124999999575,
          "durationTicks": 48,
          "midi": 35,
          "name": "B1",
          "ticks": 19584,
          "time": 17.483667,
          "velocity": 0.8188976377952756
        },
        {
          "duration": 0.042852124999999575,
          "durationTicks": 48,
          "midi": 51,
          "name": "D#3",
          "ticks": 19584,
          "time": 17.483667,
          "velocity": 0.5826771653543307
        },
        {
          "duration": 0.042852124999999575,
          "durationTicks": 48,
          "midi": 39,
          "name": "D#2",
          "ticks": 19584,
          "time": 17.483667,
          "velocity": 0.7480314960629921
        },
        {
          "duration": 0.042852124999999575,
          "durationTicks": 48,
          "midi": 38,
          "name": "D2",
          "ticks": 19584,
          "time": 17.483667,
          "velocity": 0.6692913385826772
        },
        {
          "duration": 0.042852124999999575,
          "durationTicks": 48,
          "midi": 39,
          "name": "D#2",
          "ticks": 19776,
          "time": 17.6550755,
          "velocity": 0.7480314960629921
        },
        {
          "duration": 0.042852124999999575,
          "durationTicks": 48,
          "midi": 38,
          "name": "D2",
          "ticks": 19776,
          "time": 17.6550755,
          "velocity": 0.6692913385826772
        },
        {
          "duration": 0.042852124999999575,
          "durationTicks": 48,
          "midi": 35,
          "name": "B1",
          "ticks": 19968,
          "time": 17.826484,
          "velocity": 0.8188976377952756
        },
        {
          "duration": 0.042852124999999575,
          "durationTicks": 48,
          "midi": 51,
          "name": "D#3",
          "ticks": 19968,
          "time": 17.826484,
          "velocity": 0.5905511811023622
        },
        {
          "duration": 0.042852124999999575,
          "durationTicks": 48,
          "midi": 35,
          "name": "B1",
          "ticks": 20352,
          "time": 18.169301,
          "velocity": 0.8188976377952756
        },
        {
          "duration": 0.042852124999999575,
          "durationTicks": 48,
          "midi": 39,
          "name": "D#2",
          "ticks": 20352,
          "time": 18.169301,
          "velocity": 0.7480314960629921
        },
        {
          "duration": 0.042852124999999575,
          "durationTicks": 48,
          "midi": 38,
          "name": "D2",
          "ticks": 20352,
          "time": 18.169301,
          "velocity": 0.6692913385826772
        },
        {
          "duration": 0.042852124999999575,
          "durationTicks": 48,
          "midi": 51,
          "name": "D#3",
          "ticks": 20544,
          "time": 18.3407095,
          "velocity": 0.5826771653543307
        },
        {
          "duration": 0.04285212500000313,
          "durationTicks": 48,
          "midi": 35,
          "name": "B1",
          "ticks": 20736,
          "time": 18.512117999999997,
          "velocity": 0.8188976377952756
        },
        {
          "duration": 0.04285212500000313,
          "durationTicks": 48,
          "midi": 51,
          "name": "D#3",
          "ticks": 20736,
          "time": 18.512117999999997,
          "velocity": 0.5511811023622047
        },
        {
          "duration": 0.04285212500000313,
          "durationTicks": 48,
          "midi": 35,
          "name": "B1",
          "ticks": 21120,
          "time": 18.854934999999998,
          "velocity": 0.8188976377952756
        },
        {
          "duration": 0.04285212500000313,
          "durationTicks": 48,
          "midi": 51,
          "name": "D#3",
          "ticks": 21120,
          "time": 18.854934999999998,
          "velocity": 0.5590551181102362
        },
        {
          "duration": 0.04285212500000313,
          "durationTicks": 48,
          "midi": 39,
          "name": "D#2",
          "ticks": 21120,
          "time": 18.854934999999998,
          "velocity": 0.7480314960629921
        },
        {
          "duration": 0.04285212500000313,
          "durationTicks": 48,
          "midi": 38,
          "name": "D2",
          "ticks": 21120,
          "time": 18.854934999999998,
          "velocity": 0.6692913385826772
        },
        {
          "duration": 0.042852124999999575,
          "durationTicks": 48,
          "midi": 39,
          "name": "D#2",
          "ticks": 21312,
          "time": 19.0263435,
          "velocity": 0.7480314960629921
        },
        {
          "duration": 0.042852124999999575,
          "durationTicks": 48,
          "midi": 38,
          "name": "D2",
          "ticks": 21312,
          "time": 19.0263435,
          "velocity": 0.6692913385826772
        },
        {
          "duration": 0.042852124999999575,
          "durationTicks": 48,
          "midi": 35,
          "name": "B1",
          "ticks": 21504,
          "time": 19.197751999999998,
          "velocity": 0.8188976377952756
        },
        {
          "duration": 0.042852124999999575,
          "durationTicks": 48,
          "midi": 51,
          "name": "D#3",
          "ticks": 21504,
          "time": 19.197751999999998,
          "velocity": 0.5511811023622047
        },
        {
          "duration": 0.042852124999999575,
          "durationTicks": 48,
          "midi": 35,
          "name": "B1",
          "ticks": 21888,
          "time": 19.540568999999998,
          "velocity": 0.8188976377952756
        },
        {
          "duration": 0.042852124999999575,
          "durationTicks": 48,
          "midi": 39,
          "name": "D#2",
          "ticks": 21888,
          "time": 19.540568999999998,
          "velocity": 0.7480314960629921
        },
        {
          "duration": 0.042852124999999575,
          "durationTicks": 48,
          "midi": 38,
          "name": "D2",
          "ticks": 21888,
          "time": 19.540568999999998,
          "velocity": 0.6692913385826772
        },
        {
          "duration": 0.042852124999999575,
          "durationTicks": 48,
          "midi": 51,
          "name": "D#3",
          "ticks": 22080,
          "time": 19.7119775,
          "velocity": 0.5433070866141733
        },
        {
          "duration": 0.042852124999999575,
          "durationTicks": 48,
          "midi": 35,
          "name": "B1",
          "ticks": 22272,
          "time": 19.883385999999998,
          "velocity": 0.8188976377952756
        },
        {
          "duration": 0.042852124999999575,
          "durationTicks": 48,
          "midi": 51,
          "name": "D#3",
          "ticks": 22272,
          "time": 19.883385999999998,
          "velocity": 0.5196850393700787
        },
        {
          "duration": 0.042852124999999575,
          "durationTicks": 48,
          "midi": 35,
          "name": "B1",
          "ticks": 22656,
          "time": 20.226202999999998,
          "velocity": 0.8188976377952756
        },
        {
          "duration": 0.042852124999999575,
          "durationTicks": 48,
          "midi": 51,
          "name": "D#3",
          "ticks": 22656,
          "time": 20.226202999999998,
          "velocity": 0.5433070866141733
        },
        {
          "duration": 0.042852124999999575,
          "durationTicks": 48,
          "midi": 39,
          "name": "D#2",
          "ticks": 22656,
          "time": 20.226202999999998,
          "velocity": 0.7480314960629921
        },
        {
          "duration": 0.042852124999999575,
          "durationTicks": 48,
          "midi": 38,
          "name": "D2",
          "ticks": 22656,
          "time": 20.226202999999998,
          "velocity": 0.6692913385826772
        },
        {
          "duration": 0.042852124999999575,
          "durationTicks": 48,
          "midi": 39,
          "name": "D#2",
          "ticks": 22848,
          "time": 20.3976115,
          "velocity": 0.7480314960629921
        },
        {
          "duration": 0.042852124999999575,
          "durationTicks": 48,
          "midi": 38,
          "name": "D2",
          "ticks": 22848,
          "time": 20.3976115,
          "velocity": 0.6692913385826772
        },
        {
          "duration": 0.042852124999999575,
          "durationTicks": 48,
          "midi": 35,
          "name": "B1",
          "ticks": 23040,
          "time": 20.56902,
          "velocity": 0.8188976377952756
        },
        {
          "duration": 0.042852124999999575,
          "durationTicks": 48,
          "midi": 51,
          "name": "D#3",
          "ticks": 23040,
          "time": 20.56902,
          "velocity": 0.5275590551181102
        },
        {
          "duration": 0.042852124999999575,
          "durationTicks": 48,
          "midi": 35,
          "name": "B1",
          "ticks": 23424,
          "time": 20.911837,
          "velocity": 0.8188976377952756
        },
        {
          "duration": 0.042852124999999575,
          "durationTicks": 48,
          "midi": 39,
          "name": "D#2",
          "ticks": 23424,
          "time": 20.911837,
          "velocity": 0.7480314960629921
        },
        {
          "duration": 0.042852124999999575,
          "durationTicks": 48,
          "midi": 38,
          "name": "D2",
          "ticks": 23424,
          "time": 20.911837,
          "velocity": 0.6692913385826772
        },
        {
          "duration": 0.042852124999999575,
          "durationTicks": 48,
          "midi": 51,
          "name": "D#3",
          "ticks": 23616,
          "time": 21.0832455,
          "velocity": 0.5039370078740157
        },
        {
          "duration": 0.042852124999999575,
          "durationTicks": 48,
          "midi": 35,
          "name": "B1",
          "ticks": 23808,
          "time": 21.254654,
          "velocity": 0.8188976377952756
        },
        {
          "duration": 0.042852124999999575,
          "durationTicks": 48,
          "midi": 51,
          "name": "D#3",
          "ticks": 23808,
          "time": 21.254654,
          "velocity": 0.5433070866141733
        },
        {
          "duration": 0.042852124999999575,
          "durationTicks": 48,
          "midi": 35,
          "name": "B1",
          "ticks": 24192,
          "time": 21.597471,
          "velocity": 0.8188976377952756
        },
        {
          "duration": 0.042852124999999575,
          "durationTicks": 48,
          "midi": 39,
          "name": "D#2",
          "ticks": 24192,
          "time": 21.597471,
          "velocity": 0.7480314960629921
        },
        {
          "duration": 0.042852124999999575,
          "durationTicks": 48,
          "midi": 38,
          "name": "D2",
          "ticks": 24192,
          "time": 21.597471,
          "velocity": 0.6692913385826772
        },
        {
          "duration": 0.042852124999999575,
          "durationTicks": 48,
          "midi": 39,
          "name": "D#2",
          "ticks": 24384,
          "time": 21.7688795,
          "velocity": 0.7480314960629921
        },
        {
          "duration": 0.042852124999999575,
          "durationTicks": 48,
          "midi": 38,
          "name": "D2",
          "ticks": 24384,
          "time": 21.7688795,
          "velocity": 0.6692913385826772
        },
        {
          "duration": 0.042852124999999575,
          "durationTicks": 48,
          "midi": 35,
          "name": "B1",
          "ticks": 24576,
          "time": 21.940288,
          "velocity": 0.8188976377952756
        },
        {
          "duration": 0.042852124999999575,
          "durationTicks": 48,
          "midi": 51,
          "name": "D#3",
          "ticks": 24576,
          "time": 21.940288,
          "velocity": 0.5905511811023622
        },
        {
          "duration": 0.042852124999999575,
          "durationTicks": 48,
          "midi": 35,
          "name": "B1",
          "ticks": 24960,
          "time": 22.283105,
          "velocity": 0.8188976377952756
        },
        {
          "duration": 0.042852124999999575,
          "durationTicks": 48,
          "midi": 39,
          "name": "D#2",
          "ticks": 24960,
          "time": 22.283105,
          "velocity": 0.7480314960629921
        },
        {
          "duration": 0.042852124999999575,
          "durationTicks": 48,
          "midi": 38,
          "name": "D2",
          "ticks": 24960,
          "time": 22.283105,
          "velocity": 0.6692913385826772
        },
        {
          "duration": 0.04285212500000313,
          "durationTicks": 48,
          "midi": 51,
          "name": "D#3",
          "ticks": 25152,
          "time": 22.454513499999997,
          "velocity": 0.5196850393700787
        },
        {
          "duration": 0.042852124999999575,
          "durationTicks": 48,
          "midi": 35,
          "name": "B1",
          "ticks": 25344,
          "time": 22.625922,
          "velocity": 0.8188976377952756
        },
        {
          "duration": 0.042852124999999575,
          "durationTicks": 48,
          "midi": 51,
          "name": "D#3",
          "ticks": 25344,
          "time": 22.625922,
          "velocity": 0.5354330708661418
        },
        {
          "duration": 0.042852124999999575,
          "durationTicks": 48,
          "midi": 35,
          "name": "B1",
          "ticks": 25728,
          "time": 22.968739,
          "velocity": 0.8188976377952756
        },
        {
          "duration": 0.042852124999999575,
          "durationTicks": 48,
          "midi": 51,
          "name": "D#3",
          "ticks": 25728,
          "time": 22.968739,
          "velocity": 0.5275590551181102
        },
        {
          "duration": 0.042852124999999575,
          "durationTicks": 48,
          "midi": 39,
          "name": "D#2",
          "ticks": 25728,
          "time": 22.968739,
          "velocity": 0.7480314960629921
        },
        {
          "duration": 0.042852124999999575,
          "durationTicks": 48,
          "midi": 38,
          "name": "D2",
          "ticks": 25728,
          "time": 22.968739,
          "velocity": 0.6692913385826772
        },
        {
          "duration": 0.042852124999999575,
          "durationTicks": 48,
          "midi": 35,
          "name": "B1",
          "ticks": 26112,
          "time": 23.311556,
          "velocity": 0.8188976377952756
        },
        {
          "duration": 0.042852124999999575,
          "durationTicks": 48,
          "midi": 51,
          "name": "D#3",
          "ticks": 26112,
          "time": 23.311556,
          "velocity": 0.5826771653543307
        },
        {
          "duration": 0.042852124999999575,
          "durationTicks": 48,
          "midi": 35,
          "name": "B1",
          "ticks": 26496,
          "time": 23.654373,
          "velocity": 0.8188976377952756
        },
        {
          "duration": 0.042852124999999575,
          "durationTicks": 48,
          "midi": 39,
          "name": "D#2",
          "ticks": 26496,
          "time": 23.654373,
          "velocity": 0.7480314960629921
        },
        {
          "duration": 0.042852124999999575,
          "durationTicks": 48,
          "midi": 38,
          "name": "D2",
          "ticks": 26496,
          "time": 23.654373,
          "velocity": 0.6692913385826772
        },
        {
          "duration": 0.042852124999999575,
          "durationTicks": 48,
          "midi": 51,
          "name": "D#3",
          "ticks": 26688,
          "time": 23.825781499999998,
          "velocity": 0.5590551181102362
        },
        {
          "duration": 0.042852124999999575,
          "durationTicks": 48,
          "midi": 35,
          "name": "B1",
          "ticks": 26880,
          "time": 23.99719,
          "velocity": 0.8188976377952756
        },
        {
          "duration": 0.042852124999999575,
          "durationTicks": 48,
          "midi": 51,
          "name": "D#3",
          "ticks": 26880,
          "time": 23.99719,
          "velocity": 0.5354330708661418
        },
        {
          "duration": 0.042852124999999575,
          "durationTicks": 48,
          "midi": 35,
          "name": "B1",
          "ticks": 27264,
          "time": 24.340007,
          "velocity": 0.8188976377952756
        },
        {
          "duration": 0.042852124999999575,
          "durationTicks": 48,
          "midi": 51,
          "name": "D#3",
          "ticks": 27264,
          "time": 24.340007,
          "velocity": 0.5039370078740157
        },
        {
          "duration": 0.042852124999999575,
          "durationTicks": 48,
          "midi": 39,
          "name": "D#2",
          "ticks": 27264,
          "time": 24.340007,
          "velocity": 0.7480314960629921
        },
        {
          "duration": 0.042852124999999575,
          "durationTicks": 48,
          "midi": 38,
          "name": "D2",
          "ticks": 27264,
          "time": 24.340007,
          "velocity": 0.6692913385826772
        },
        {
          "duration": 0.042852124999999575,
          "durationTicks": 48,
          "midi": 35,
          "name": "B1",
          "ticks": 27648,
          "time": 24.682824,
          "velocity": 0.8188976377952756
        },
        {
          "duration": 0.042852124999999575,
          "durationTicks": 48,
          "midi": 51,
          "name": "D#3",
          "ticks": 27648,
          "time": 24.682824,
          "velocity": 0.5669291338582677
        },
        {
          "duration": 0.042852124999999575,
          "durationTicks": 48,
          "midi": 35,
          "name": "B1",
          "ticks": 28032,
          "time": 25.025641,
          "velocity": 0.8188976377952756
        },
        {
          "duration": 0.042852124999999575,
          "durationTicks": 48,
          "midi": 39,
          "name": "D#2",
          "ticks": 28032,
          "time": 25.025641,
          "velocity": 0.7480314960629921
        },
        {
          "duration": 0.042852124999999575,
          "durationTicks": 48,
          "midi": 38,
          "name": "D2",
          "ticks": 28032,
          "time": 25.025641,
          "velocity": 0.6692913385826772
        },
        {
          "duration": 0.042852124999999575,
          "durationTicks": 48,
          "midi": 51,
          "name": "D#3",
          "ticks": 28224,
          "time": 25.1970495,
          "velocity": 0.49606299212598426
        },
        {
          "duration": 0.042852124999999575,
          "durationTicks": 48,
          "midi": 35,
          "name": "B1",
          "ticks": 28416,
          "time": 25.368458,
          "velocity": 0.8188976377952756
        },
        {
          "duration": 0.042852124999999575,
          "durationTicks": 48,
          "midi": 51,
          "name": "D#3",
          "ticks": 28416,
          "time": 25.368458,
          "velocity": 0.5433070866141733
        },
        {
          "duration": 0.04285212500000313,
          "durationTicks": 48,
          "midi": 35,
          "name": "B1",
          "ticks": 28800,
          "time": 25.711274999999997,
          "velocity": 0.8188976377952756
        },
        {
          "duration": 0.04285212500000313,
          "durationTicks": 48,
          "midi": 51,
          "name": "D#3",
          "ticks": 28800,
          "time": 25.711274999999997,
          "velocity": 0.5511811023622047
        },
        {
          "duration": 0.04285212500000313,
          "durationTicks": 48,
          "midi": 39,
          "name": "D#2",
          "ticks": 28800,
          "time": 25.711274999999997,
          "velocity": 0.7480314960629921
        },
        {
          "duration": 0.04285212500000313,
          "durationTicks": 48,
          "midi": 38,
          "name": "D2",
          "ticks": 28800,
          "time": 25.711274999999997,
          "velocity": 0.6692913385826772
        },
        {
          "duration": 0.04285212500000313,
          "durationTicks": 48,
          "midi": 35,
          "name": "B1",
          "ticks": 29184,
          "time": 26.054091999999997,
          "velocity": 0.8188976377952756
        },
        {
          "duration": 0.04285212500000313,
          "durationTicks": 48,
          "midi": 51,
          "name": "D#3",
          "ticks": 29184,
          "time": 26.054091999999997,
          "velocity": 0.6062992125984252
        },
        {
          "duration": 0.04285212500000313,
          "durationTicks": 48,
          "midi": 35,
          "name": "B1",
          "ticks": 29568,
          "time": 26.396908999999997,
          "velocity": 0.8188976377952756
        },
        {
          "duration": 0.04285212500000313,
          "durationTicks": 48,
          "midi": 39,
          "name": "D#2",
          "ticks": 29568,
          "time": 26.396908999999997,
          "velocity": 0.7480314960629921
        },
        {
          "duration": 0.04285212500000313,
          "durationTicks": 48,
          "midi": 38,
          "name": "D2",
          "ticks": 29568,
          "time": 26.396908999999997,
          "velocity": 0.6692913385826772
        },
        {
          "duration": 0.042852124999999575,
          "durationTicks": 48,
          "midi": 51,
          "name": "D#3",
          "ticks": 29760,
          "time": 26.5683175,
          "velocity": 0.5669291338582677
        },
        {
          "duration": 0.042852124999999575,
          "durationTicks": 48,
          "midi": 35,
          "name": "B1",
          "ticks": 29952,
          "time": 26.739725999999997,
          "velocity": 0.8188976377952756
        },
        {
          "duration": 0.042852124999999575,
          "durationTicks": 48,
          "midi": 51,
          "name": "D#3",
          "ticks": 29952,
          "time": 26.739725999999997,
          "velocity": 0.5433070866141733
        },
        {
          "duration": 0.042852124999999575,
          "durationTicks": 48,
          "midi": 35,
          "name": "B1",
          "ticks": 30336,
          "time": 27.082542999999998,
          "velocity": 0.8188976377952756
        },
        {
          "duration": 0.042852124999999575,
          "durationTicks": 48,
          "midi": 51,
          "name": "D#3",
          "ticks": 30336,
          "time": 27.082542999999998,
          "velocity": 0.5590551181102362
        },
        {
          "duration": 0.042852124999999575,
          "durationTicks": 48,
          "midi": 39,
          "name": "D#2",
          "ticks": 30336,
          "time": 27.082542999999998,
          "velocity": 0.7480314960629921
        },
        {
          "duration": 0.042852124999999575,
          "durationTicks": 48,
          "midi": 38,
          "name": "D2",
          "ticks": 30336,
          "time": 27.082542999999998,
          "velocity": 0.6692913385826772
        },
        {
          "duration": 0.042852124999999575,
          "durationTicks": 48,
          "midi": 35,
          "name": "B1",
          "ticks": 30720,
          "time": 27.425359999999998,
          "velocity": 0.8188976377952756
        },
        {
          "duration": 0.042852124999999575,
          "durationTicks": 48,
          "midi": 51,
          "name": "D#3",
          "ticks": 30720,
          "time": 27.425359999999998,
          "velocity": 0.5905511811023622
        },
        {
          "duration": 0.042852124999999575,
          "durationTicks": 48,
          "midi": 35,
          "name": "B1",
          "ticks": 31104,
          "time": 27.768176999999998,
          "velocity": 0.8188976377952756
        },
        {
          "duration": 0.042852124999999575,
          "durationTicks": 48,
          "midi": 39,
          "name": "D#2",
          "ticks": 31104,
          "time": 27.768176999999998,
          "velocity": 0.7480314960629921
        },
        {
          "duration": 0.042852124999999575,
          "durationTicks": 48,
          "midi": 38,
          "name": "D2",
          "ticks": 31104,
          "time": 27.768176999999998,
          "velocity": 0.6692913385826772
        },
        {
          "duration": 0.042852124999999575,
          "durationTicks": 48,
          "midi": 51,
          "name": "D#3",
          "ticks": 31296,
          "time": 27.9395855,
          "velocity": 0.5826771653543307
        },
        {
          "duration": 0.042852124999999575,
          "durationTicks": 48,
          "midi": 35,
          "name": "B1",
          "ticks": 31488,
          "time": 28.110993999999998,
          "velocity": 0.8188976377952756
        },
        {
          "duration": 0.042852124999999575,
          "durationTicks": 48,
          "midi": 51,
          "name": "D#3",
          "ticks": 31488,
          "time": 28.110993999999998,
          "velocity": 0.5433070866141733
        },
        {
          "duration": 0.042852124999999575,
          "durationTicks": 48,
          "midi": 35,
          "name": "B1",
          "ticks": 31872,
          "time": 28.453810999999998,
          "velocity": 0.8188976377952756
        },
        {
          "duration": 0.042852124999999575,
          "durationTicks": 48,
          "midi": 51,
          "name": "D#3",
          "ticks": 31872,
          "time": 28.453810999999998,
          "velocity": 0.5511811023622047
        },
        {
          "duration": 0.042852124999999575,
          "durationTicks": 48,
          "midi": 39,
          "name": "D#2",
          "ticks": 31872,
          "time": 28.453810999999998,
          "velocity": 0.7637795275590551
        },
        {
          "duration": 0.042852124999999575,
          "durationTicks": 48,
          "midi": 38,
          "name": "D2",
          "ticks": 31872,
          "time": 28.453810999999998,
          "velocity": 0.6850393700787402
        },
        {
          "duration": 0.042852124999999575,
          "durationTicks": 48,
          "midi": 35,
          "name": "B1",
          "ticks": 32256,
          "time": 28.796628,
          "velocity": 0.8188976377952756
        },
        {
          "duration": 0.042852124999999575,
          "durationTicks": 48,
          "midi": 51,
          "name": "D#3",
          "ticks": 32256,
          "time": 28.796628,
          "velocity": 0.5826771653543307
        },
        {
          "duration": 0.042852124999999575,
          "durationTicks": 48,
          "midi": 35,
          "name": "B1",
          "ticks": 32640,
          "time": 29.139445,
          "velocity": 0.8188976377952756
        },
        {
          "duration": 0.042852124999999575,
          "durationTicks": 48,
          "midi": 39,
          "name": "D#2",
          "ticks": 32640,
          "time": 29.139445,
          "velocity": 0.7637795275590551
        },
        {
          "duration": 0.042852124999999575,
          "durationTicks": 48,
          "midi": 38,
          "name": "D2",
          "ticks": 32640,
          "time": 29.139445,
          "velocity": 0.6850393700787402
        },
        {
          "duration": 0.04285212500000313,
          "durationTicks": 48,
          "midi": 51,
          "name": "D#3",
          "ticks": 32832,
          "time": 29.310853499999997,
          "velocity": 0.5590551181102362
        },
        {
          "duration": 0.042852124999999575,
          "durationTicks": 48,
          "midi": 35,
          "name": "B1",
          "ticks": 33024,
          "time": 29.482262,
          "velocity": 0.8188976377952756
        },
        {
          "duration": 0.042852124999999575,
          "durationTicks": 48,
          "midi": 51,
          "name": "D#3",
          "ticks": 33024,
          "time": 29.482262,
          "velocity": 0.5275590551181102
        },
        {
          "duration": 0.042852124999999575,
          "durationTicks": 48,
          "midi": 35,
          "name": "B1",
          "ticks": 33408,
          "time": 29.825079,
          "velocity": 0.8188976377952756
        },
        {
          "duration": 0.042852124999999575,
          "durationTicks": 48,
          "midi": 51,
          "name": "D#3",
          "ticks": 33408,
          "time": 29.825079,
          "velocity": 0.5826771653543307
        },
        {
          "duration": 0.042852124999999575,
          "durationTicks": 48,
          "midi": 39,
          "name": "D#2",
          "ticks": 33408,
          "time": 29.825079,
          "velocity": 0.7637795275590551
        },
        {
          "duration": 0.042852124999999575,
          "durationTicks": 48,
          "midi": 38,
          "name": "D2",
          "ticks": 33408,
          "time": 29.825079,
          "velocity": 0.6850393700787402
        },
        {
          "duration": 0.042852124999999575,
          "durationTicks": 48,
          "midi": 35,
          "name": "B1",
          "ticks": 33792,
          "time": 30.167896,
          "velocity": 0.8188976377952756
        },
        {
          "duration": 0.042852124999999575,
          "durationTicks": 48,
          "midi": 51,
          "name": "D#3",
          "ticks": 33792,
          "time": 30.167896,
          "velocity": 0.5905511811023622
        },
        {
          "duration": 0.042852124999999575,
          "durationTicks": 48,
          "midi": 35,
          "name": "B1",
          "ticks": 34176,
          "time": 30.510713,
          "velocity": 0.8188976377952756
        },
        {
          "duration": 0.042852124999999575,
          "durationTicks": 48,
          "midi": 39,
          "name": "D#2",
          "ticks": 34176,
          "time": 30.510713,
          "velocity": 0.7637795275590551
        },
        {
          "duration": 0.042852124999999575,
          "durationTicks": 48,
          "midi": 38,
          "name": "D2",
          "ticks": 34176,
          "time": 30.510713,
          "velocity": 0.6850393700787402
        },
        {
          "duration": 0.042852124999999575,
          "durationTicks": 48,
          "midi": 51,
          "name": "D#3",
          "ticks": 34368,
          "time": 30.682121499999997,
          "velocity": 0.5826771653543307
        },
        {
          "duration": 0.042852124999999575,
          "durationTicks": 48,
          "midi": 35,
          "name": "B1",
          "ticks": 34560,
          "time": 30.85353,
          "velocity": 0.8188976377952756
        },
        {
          "duration": 0.042852124999999575,
          "durationTicks": 48,
          "midi": 51,
          "name": "D#3",
          "ticks": 34560,
          "time": 30.85353,
          "velocity": 0.5511811023622047
        },
        {
          "duration": 0.042852124999999575,
          "durationTicks": 48,
          "midi": 35,
          "name": "B1",
          "ticks": 34944,
          "time": 31.196347,
          "velocity": 0.8188976377952756
        },
        {
          "duration": 0.042852124999999575,
          "durationTicks": 48,
          "midi": 51,
          "name": "D#3",
          "ticks": 34944,
          "time": 31.196347,
          "velocity": 0.5748031496062992
        },
        {
          "duration": 0.042852124999999575,
          "durationTicks": 48,
          "midi": 39,
          "name": "D#2",
          "ticks": 34944,
          "time": 31.196347,
          "velocity": 0.7637795275590551
        },
        {
          "duration": 0.042852124999999575,
          "durationTicks": 48,
          "midi": 38,
          "name": "D2",
          "ticks": 34944,
          "time": 31.196347,
          "velocity": 0.6850393700787402
        },
        {
          "duration": 0.042852124999999575,
          "durationTicks": 48,
          "midi": 35,
          "name": "B1",
          "ticks": 35328,
          "time": 31.539164,
          "velocity": 0.8188976377952756
        },
        {
          "duration": 0.042852124999999575,
          "durationTicks": 48,
          "midi": 51,
          "name": "D#3",
          "ticks": 35328,
          "time": 31.539164,
          "velocity": 0.5826771653543307
        },
        {
          "duration": 0.04285212499999602,
          "durationTicks": 48,
          "midi": 49,
          "name": "C#3",
          "ticks": 38400,
          "time": 34.2817,
          "velocity": 0.7086614173228346
        },
        {
          "duration": 0.04285212500000313,
          "durationTicks": 48,
          "midi": 49,
          "name": "C#3",
          "ticks": 41472,
          "time": 37.024235999999995,
          "velocity": 0.7086614173228346
        },
        {
          "duration": 0.04285212500000313,
          "durationTicks": 48,
          "midi": 49,
          "name": "C#3",
          "ticks": 44544,
          "time": 39.766771999999996,
          "velocity": 0.7086614173228346
        },
        {
          "duration": 0.04285212500000313,
          "durationTicks": 48,
          "midi": 49,
          "name": "C#3",
          "ticks": 47616,
          "time": 42.509308,
          "velocity": 0.7086614173228346
        },
        {
          "duration": 0.04285212500000313,
          "durationTicks": 48,
          "midi": 35,
          "name": "B1",
          "ticks": 49152,
          "time": 43.880576,
          "velocity": 0.8188976377952756
        },
        {
          "duration": 0.04285212500000313,
          "durationTicks": 48,
          "midi": 51,
          "name": "D#3",
          "ticks": 49152,
          "time": 43.880576,
          "velocity": 0.6220472440944882
        },
        {
          "duration": 0.04285212500000313,
          "durationTicks": 48,
          "midi": 35,
          "name": "B1",
          "ticks": 49536,
          "time": 44.223392999999994,
          "velocity": 0.8188976377952756
        },
        {
          "duration": 0.04285212500000313,
          "durationTicks": 48,
          "midi": 39,
          "name": "D#2",
          "ticks": 49536,
          "time": 44.223392999999994,
          "velocity": 0.7480314960629921
        },
        {
          "duration": 0.04285212500000313,
          "durationTicks": 48,
          "midi": 38,
          "name": "D2",
          "ticks": 49536,
          "time": 44.223392999999994,
          "velocity": 0.6692913385826772
        },
        {
          "duration": 0.04285212499999602,
          "durationTicks": 48,
          "midi": 51,
          "name": "D#3",
          "ticks": 49728,
          "time": 44.3948015,
          "velocity": 0.5826771653543307
        },
        {
          "duration": 0.04285212500000313,
          "durationTicks": 48,
          "midi": 35,
          "name": "B1",
          "ticks": 49920,
          "time": 44.56621,
          "velocity": 0.8188976377952756
        },
        {
          "duration": 0.04285212500000313,
          "durationTicks": 48,
          "midi": 51,
          "name": "D#3",
          "ticks": 49920,
          "time": 44.56621,
          "velocity": 0.5590551181102362
        },
        {
          "duration": 0.04285212500000313,
          "durationTicks": 48,
          "midi": 35,
          "name": "B1",
          "ticks": 50304,
          "time": 44.909026999999995,
          "velocity": 0.8188976377952756
        },
        {
          "duration": 0.04285212500000313,
          "durationTicks": 48,
          "midi": 51,
          "name": "D#3",
          "ticks": 50304,
          "time": 44.909026999999995,
          "velocity": 0.5196850393700787
        },
        {
          "duration": 0.04285212500000313,
          "durationTicks": 48,
          "midi": 39,
          "name": "D#2",
          "ticks": 50304,
          "time": 44.909026999999995,
          "velocity": 0.7480314960629921
        },
        {
          "duration": 0.04285212500000313,
          "durationTicks": 48,
          "midi": 38,
          "name": "D2",
          "ticks": 50304,
          "time": 44.909026999999995,
          "velocity": 0.6692913385826772
        },
        {
          "duration": 0.04285212499999602,
          "durationTicks": 48,
          "midi": 39,
          "name": "D#2",
          "ticks": 50496,
          "time": 45.0804355,
          "velocity": 0.7480314960629921
        },
        {
          "duration": 0.04285212499999602,
          "durationTicks": 48,
          "midi": 38,
          "name": "D2",
          "ticks": 50496,
          "time": 45.0804355,
          "velocity": 0.6692913385826772
        },
        {
          "duration": 0.04285212499999602,
          "durationTicks": 48,
          "midi": 35,
          "name": "B1",
          "ticks": 50688,
          "time": 45.251844,
          "velocity": 0.8188976377952756
        },
        {
          "duration": 0.04285212499999602,
          "durationTicks": 48,
          "midi": 51,
          "name": "D#3",
          "ticks": 50688,
          "time": 45.251844,
          "velocity": 0.5905511811023622
        },
        {
          "duration": 0.04285212500000313,
          "durationTicks": 48,
          "midi": 35,
          "name": "B1",
          "ticks": 51072,
          "time": 45.594660999999995,
          "velocity": 0.8188976377952756
        },
        {
          "duration": 0.04285212500000313,
          "durationTicks": 48,
          "midi": 39,
          "name": "D#2",
          "ticks": 51072,
          "time": 45.594660999999995,
          "velocity": 0.7480314960629921
        },
        {
          "duration": 0.04285212500000313,
          "durationTicks": 48,
          "midi": 38,
          "name": "D2",
          "ticks": 51072,
          "time": 45.594660999999995,
          "velocity": 0.6692913385826772
        },
        {
          "duration": 0.04285212499999602,
          "durationTicks": 48,
          "midi": 51,
          "name": "D#3",
          "ticks": 51264,
          "time": 45.7660695,
          "velocity": 0.5354330708661418
        },
        {
          "duration": 0.04285212499999602,
          "durationTicks": 48,
          "midi": 35,
          "name": "B1",
          "ticks": 51456,
          "time": 45.937478,
          "velocity": 0.8188976377952756
        },
        {
          "duration": 0.04285212499999602,
          "durationTicks": 48,
          "midi": 51,
          "name": "D#3",
          "ticks": 51456,
          "time": 45.937478,
          "velocity": 0.5275590551181102
        },
        {
          "duration": 0.04285212500000313,
          "durationTicks": 48,
          "midi": 35,
          "name": "B1",
          "ticks": 51840,
          "time": 46.280294999999995,
          "velocity": 0.8188976377952756
        },
        {
          "duration": 0.04285212500000313,
          "durationTicks": 48,
          "midi": 51,
          "name": "D#3",
          "ticks": 51840,
          "time": 46.280294999999995,
          "velocity": 0.5196850393700787
        },
        {
          "duration": 0.04285212500000313,
          "durationTicks": 48,
          "midi": 39,
          "name": "D#2",
          "ticks": 51840,
          "time": 46.280294999999995,
          "velocity": 0.7480314960629921
        },
        {
          "duration": 0.04285212500000313,
          "durationTicks": 48,
          "midi": 38,
          "name": "D2",
          "ticks": 51840,
          "time": 46.280294999999995,
          "velocity": 0.6692913385826772
        },
        {
          "duration": 0.04285212499999602,
          "durationTicks": 48,
          "midi": 39,
          "name": "D#2",
          "ticks": 52032,
          "time": 46.4517035,
          "velocity": 0.7480314960629921
        },
        {
          "duration": 0.04285212499999602,
          "durationTicks": 48,
          "midi": 38,
          "name": "D2",
          "ticks": 52032,
          "time": 46.4517035,
          "velocity": 0.6692913385826772
        },
        {
          "duration": 0.04285212499999602,
          "durationTicks": 48,
          "midi": 35,
          "name": "B1",
          "ticks": 52224,
          "time": 46.623112,
          "velocity": 0.8188976377952756
        },
        {
          "duration": 0.04285212499999602,
          "durationTicks": 48,
          "midi": 51,
          "name": "D#3",
          "ticks": 52224,
          "time": 46.623112,
          "velocity": 0.5275590551181102
        },
        {
          "duration": 0.04285212500000313,
          "durationTicks": 48,
          "midi": 35,
          "name": "B1",
          "ticks": 52608,
          "time": 46.965928999999996,
          "velocity": 0.8188976377952756
        },
        {
          "duration": 0.04285212500000313,
          "durationTicks": 48,
          "midi": 39,
          "name": "D#2",
          "ticks": 52608,
          "time": 46.965928999999996,
          "velocity": 0.7480314960629921
        },
        {
          "duration": 0.04285212500000313,
          "durationTicks": 48,
          "midi": 38,
          "name": "D2",
          "ticks": 52608,
          "time": 46.965928999999996,
          "velocity": 0.6692913385826772
        },
        {
          "duration": 0.04285212499999602,
          "durationTicks": 48,
          "midi": 51,
          "name": "D#3",
          "ticks": 52800,
          "time": 47.1373375,
          "velocity": 0.5511811023622047
        },
        {
          "duration": 0.04285212499999602,
          "durationTicks": 48,
          "midi": 35,
          "name": "B1",
          "ticks": 52992,
          "time": 47.308746,
          "velocity": 0.8188976377952756
        },
        {
          "duration": 0.04285212499999602,
          "durationTicks": 48,
          "midi": 51,
          "name": "D#3",
          "ticks": 52992,
          "time": 47.308746,
          "velocity": 0.5433070866141733
        },
        {
          "duration": 0.04285212500000313,
          "durationTicks": 48,
          "midi": 35,
          "name": "B1",
          "ticks": 53376,
          "time": 47.651562999999996,
          "velocity": 0.8188976377952756
        },
        {
          "duration": 0.04285212500000313,
          "durationTicks": 48,
          "midi": 51,
          "name": "D#3",
          "ticks": 53376,
          "time": 47.651562999999996,
          "velocity": 0.5511811023622047
        },
        {
          "duration": 0.04285212500000313,
          "durationTicks": 48,
          "midi": 39,
          "name": "D#2",
          "ticks": 53376,
          "time": 47.651562999999996,
          "velocity": 0.7480314960629921
        },
        {
          "duration": 0.04285212500000313,
          "durationTicks": 48,
          "midi": 38,
          "name": "D2",
          "ticks": 53376,
          "time": 47.651562999999996,
          "velocity": 0.6692913385826772
        },
        {
          "duration": 0.04285212500000313,
          "durationTicks": 48,
          "midi": 39,
          "name": "D#2",
          "ticks": 53568,
          "time": 47.822971499999994,
          "velocity": 0.7480314960629921
        },
        {
          "duration": 0.04285212500000313,
          "durationTicks": 48,
          "midi": 38,
          "name": "D2",
          "ticks": 53568,
          "time": 47.822971499999994,
          "velocity": 0.6692913385826772
        },
        {
          "duration": 0.04285212499999602,
          "durationTicks": 48,
          "midi": 35,
          "name": "B1",
          "ticks": 53760,
          "time": 47.99438,
          "velocity": 0.8188976377952756
        },
        {
          "duration": 0.04285212499999602,
          "durationTicks": 48,
          "midi": 51,
          "name": "D#3",
          "ticks": 53760,
          "time": 47.99438,
          "velocity": 0.5826771653543307
        },
        {
          "duration": 0.04285212500000313,
          "durationTicks": 48,
          "midi": 35,
          "name": "B1",
          "ticks": 54144,
          "time": 48.337196999999996,
          "velocity": 0.8188976377952756
        },
        {
          "duration": 0.04285212500000313,
          "durationTicks": 48,
          "midi": 39,
          "name": "D#2",
          "ticks": 54144,
          "time": 48.337196999999996,
          "velocity": 0.7480314960629921
        },
        {
          "duration": 0.04285212500000313,
          "durationTicks": 48,
          "midi": 38,
          "name": "D2",
          "ticks": 54144,
          "time": 48.337196999999996,
          "velocity": 0.6692913385826772
        },
        {
          "duration": 0.04285212500000313,
          "durationTicks": 48,
          "midi": 51,
          "name": "D#3",
          "ticks": 54336,
          "time": 48.508605499999994,
          "velocity": 0.5354330708661418
        },
        {
          "duration": 0.04285212499999602,
          "durationTicks": 48,
          "midi": 35,
          "name": "B1",
          "ticks": 54528,
          "time": 48.680014,
          "velocity": 0.8188976377952756
        },
        {
          "duration": 0.04285212499999602,
          "durationTicks": 48,
          "midi": 51,
          "name": "D#3",
          "ticks": 54528,
          "time": 48.680014,
          "velocity": 0.49606299212598426
        },
        {
          "duration": 0.04285212500000313,
          "durationTicks": 48,
          "midi": 35,
          "name": "B1",
          "ticks": 54912,
          "time": 49.022831,
          "velocity": 0.8188976377952756
        },
        {
          "duration": 0.04285212500000313,
          "durationTicks": 48,
          "midi": 51,
          "name": "D#3",
          "ticks": 54912,
          "time": 49.022831,
          "velocity": 0.5354330708661418
        },
        {
          "duration": 0.04285212500000313,
          "durationTicks": 48,
          "midi": 39,
          "name": "D#2",
          "ticks": 54912,
          "time": 49.022831,
          "velocity": 0.7480314960629921
        },
        {
          "duration": 0.04285212500000313,
          "durationTicks": 48,
          "midi": 38,
          "name": "D2",
          "ticks": 54912,
          "time": 49.022831,
          "velocity": 0.6692913385826772
        },
        {
          "duration": 0.04285212500000313,
          "durationTicks": 48,
          "midi": 39,
          "name": "D#2",
          "ticks": 55104,
          "time": 49.194239499999995,
          "velocity": 0.7480314960629921
        },
        {
          "duration": 0.04285212500000313,
          "durationTicks": 48,
          "midi": 38,
          "name": "D2",
          "ticks": 55104,
          "time": 49.194239499999995,
          "velocity": 0.6692913385826772
        },
        {
          "duration": 0.04285212499999602,
          "durationTicks": 48,
          "midi": 35,
          "name": "B1",
          "ticks": 55296,
          "time": 49.365648,
          "velocity": 0.8188976377952756
        },
        {
          "duration": 0.04285212499999602,
          "durationTicks": 48,
          "midi": 51,
          "name": "D#3",
          "ticks": 55296,
          "time": 49.365648,
          "velocity": 0.5905511811023622
        },
        {
          "duration": 0.04285212500000313,
          "durationTicks": 48,
          "midi": 35,
          "name": "B1",
          "ticks": 55680,
          "time": 49.708465,
          "velocity": 0.8188976377952756
        },
        {
          "duration": 0.04285212500000313,
          "durationTicks": 48,
          "midi": 39,
          "name": "D#2",
          "ticks": 55680,
          "time": 49.708465,
          "velocity": 0.7480314960629921
        },
        {
          "duration": 0.04285212500000313,
          "durationTicks": 48,
          "midi": 38,
          "name": "D2",
          "ticks": 55680,
          "time": 49.708465,
          "velocity": 0.6692913385826772
        },
        {
          "duration": 0.04285212500000313,
          "durationTicks": 48,
          "midi": 51,
          "name": "D#3",
          "ticks": 55872,
          "time": 49.879873499999995,
          "velocity": 0.5433070866141733
        },
        {
          "duration": 0.04285212499999602,
          "durationTicks": 48,
          "midi": 35,
          "name": "B1",
          "ticks": 56064,
          "time": 50.051282,
          "velocity": 0.8188976377952756
        },
        {
          "duration": 0.04285212499999602,
          "durationTicks": 48,
          "midi": 51,
          "name": "D#3",
          "ticks": 56064,
          "time": 50.051282,
          "velocity": 0.5354330708661418
        },
        {
          "duration": 0.04285212500000313,
          "durationTicks": 48,
          "midi": 35,
          "name": "B1",
          "ticks": 56448,
          "time": 50.394099,
          "velocity": 0.8188976377952756
        },
        {
          "duration": 0.04285212500000313,
          "durationTicks": 48,
          "midi": 51,
          "name": "D#3",
          "ticks": 56448,
          "time": 50.394099,
          "velocity": 0.5511811023622047
        },
        {
          "duration": 0.04285212500000313,
          "durationTicks": 48,
          "midi": 39,
          "name": "D#2",
          "ticks": 56448,
          "time": 50.394099,
          "velocity": 0.7480314960629921
        },
        {
          "duration": 0.04285212500000313,
          "durationTicks": 48,
          "midi": 38,
          "name": "D2",
          "ticks": 56448,
          "time": 50.394099,
          "velocity": 0.6692913385826772
        },
        {
          "duration": 0.04285212500000313,
          "durationTicks": 48,
          "midi": 39,
          "name": "D#2",
          "ticks": 56640,
          "time": 50.565507499999995,
          "velocity": 0.7480314960629921
        },
        {
          "duration": 0.04285212500000313,
          "durationTicks": 48,
          "midi": 38,
          "name": "D2",
          "ticks": 56640,
          "time": 50.565507499999995,
          "velocity": 0.6692913385826772
        },
        {
          "duration": 0.04285212499999602,
          "durationTicks": 48,
          "midi": 35,
          "name": "B1",
          "ticks": 56832,
          "time": 50.736916,
          "velocity": 0.8188976377952756
        },
        {
          "duration": 0.04285212499999602,
          "durationTicks": 48,
          "midi": 51,
          "name": "D#3",
          "ticks": 56832,
          "time": 50.736916,
          "velocity": 0.5905511811023622
        },
        {
          "duration": 0.04285212500000313,
          "durationTicks": 48,
          "midi": 35,
          "name": "B1",
          "ticks": 57216,
          "time": 51.079733,
          "velocity": 0.8188976377952756
        },
        {
          "duration": 0.04285212500000313,
          "durationTicks": 48,
          "midi": 39,
          "name": "D#2",
          "ticks": 57216,
          "time": 51.079733,
          "velocity": 0.7480314960629921
        },
        {
          "duration": 0.04285212500000313,
          "durationTicks": 48,
          "midi": 38,
          "name": "D2",
          "ticks": 57216,
          "time": 51.079733,
          "velocity": 0.6692913385826772
        },
        {
          "duration": 0.04285212500000313,
          "durationTicks": 48,
          "midi": 51,
          "name": "D#3",
          "ticks": 57408,
          "time": 51.251141499999996,
          "velocity": 0.49606299212598426
        },
        {
          "duration": 0.04285212500000313,
          "durationTicks": 48,
          "midi": 35,
          "name": "B1",
          "ticks": 57600,
          "time": 51.422549999999994,
          "velocity": 0.8188976377952756
        },
        {
          "duration": 0.04285212500000313,
          "durationTicks": 48,
          "midi": 51,
          "name": "D#3",
          "ticks": 57600,
          "time": 51.422549999999994,
          "velocity": 0.5118110236220472
        },
        {
          "duration": 0.04285212500000313,
          "durationTicks": 48,
          "midi": 35,
          "name": "B1",
          "ticks": 57984,
          "time": 51.765367,
          "velocity": 0.8188976377952756
        },
        {
          "duration": 0.04285212500000313,
          "durationTicks": 48,
          "midi": 51,
          "name": "D#3",
          "ticks": 57984,
          "time": 51.765367,
          "velocity": 0.5826771653543307
        },
        {
          "duration": 0.04285212500000313,
          "durationTicks": 48,
          "midi": 39,
          "name": "D#2",
          "ticks": 57984,
          "time": 51.765367,
          "velocity": 0.7480314960629921
        },
        {
          "duration": 0.04285212500000313,
          "durationTicks": 48,
          "midi": 38,
          "name": "D2",
          "ticks": 57984,
          "time": 51.765367,
          "velocity": 0.6692913385826772
        },
        {
          "duration": 0.04285212500000313,
          "durationTicks": 48,
          "midi": 39,
          "name": "D#2",
          "ticks": 58176,
          "time": 51.936775499999996,
          "velocity": 0.7480314960629921
        },
        {
          "duration": 0.04285212500000313,
          "durationTicks": 48,
          "midi": 38,
          "name": "D2",
          "ticks": 58176,
          "time": 51.936775499999996,
          "velocity": 0.6692913385826772
        },
        {
          "duration": 0.04285212500000313,
          "durationTicks": 48,
          "midi": 35,
          "name": "B1",
          "ticks": 58368,
          "time": 52.108183999999994,
          "velocity": 0.8188976377952756
        },
        {
          "duration": 0.04285212500000313,
          "durationTicks": 48,
          "midi": 51,
          "name": "D#3",
          "ticks": 58368,
          "time": 52.108183999999994,
          "velocity": 0.5984251968503937
        },
        {
          "duration": 0.04285212499999602,
          "durationTicks": 48,
          "midi": 35,
          "name": "B1",
          "ticks": 58752,
          "time": 52.451001,
          "velocity": 0.8188976377952756
        },
        {
          "duration": 0.04285212499999602,
          "durationTicks": 48,
          "midi": 39,
          "name": "D#2",
          "ticks": 58752,
          "time": 52.451001,
          "velocity": 0.7480314960629921
        },
        {
          "duration": 0.04285212499999602,
          "durationTicks": 48,
          "midi": 38,
          "name": "D2",
          "ticks": 58752,
          "time": 52.451001,
          "velocity": 0.6692913385826772
        },
        {
          "duration": 0.04285212500000313,
          "durationTicks": 48,
          "midi": 51,
          "name": "D#3",
          "ticks": 58944,
          "time": 52.622409499999996,
          "velocity": 0.6062992125984252
        },
        {
          "duration": 0.04285212500000313,
          "durationTicks": 48,
          "midi": 35,
          "name": "B1",
          "ticks": 59136,
          "time": 52.793817999999995,
          "velocity": 0.8188976377952756
        },
        {
          "duration": 0.04285212500000313,
          "durationTicks": 48,
          "midi": 51,
          "name": "D#3",
          "ticks": 59136,
          "time": 52.793817999999995,
          "velocity": 0.6141732283464567
        },
        {
          "duration": 0.04285212499999602,
          "durationTicks": 48,
          "midi": 35,
          "name": "B1",
          "ticks": 59520,
          "time": 53.136635,
          "velocity": 0.8188976377952756
        },
        {
          "duration": 0.04285212499999602,
          "durationTicks": 48,
          "midi": 51,
          "name": "D#3",
          "ticks": 59520,
          "time": 53.136635,
          "velocity": 0.5984251968503937
        },
        {
          "duration": 0.04285212499999602,
          "durationTicks": 48,
          "midi": 39,
          "name": "D#2",
          "ticks": 59520,
          "time": 53.136635,
          "velocity": 0.7480314960629921
        },
        {
          "duration": 0.04285212499999602,
          "durationTicks": 48,
          "midi": 38,
          "name": "D2",
          "ticks": 59520,
          "time": 53.136635,
          "velocity": 0.6692913385826772
        },
        {
          "duration": 0.04285212500000313,
          "durationTicks": 48,
          "midi": 39,
          "name": "D#2",
          "ticks": 59712,
          "time": 53.3080435,
          "velocity": 0.7480314960629921
        },
        {
          "duration": 0.04285212500000313,
          "durationTicks": 48,
          "midi": 38,
          "name": "D2",
          "ticks": 59712,
          "time": 53.3080435,
          "velocity": 0.6692913385826772
        },
        {
          "duration": 0.04285212500000313,
          "durationTicks": 48,
          "midi": 35,
          "name": "B1",
          "ticks": 59904,
          "time": 53.479451999999995,
          "velocity": 0.8188976377952756
        },
        {
          "duration": 0.04285212500000313,
          "durationTicks": 48,
          "midi": 51,
          "name": "D#3",
          "ticks": 59904,
          "time": 53.479451999999995,
          "velocity": 0.5905511811023622
        },
        {
          "duration": 0.04285212499999602,
          "durationTicks": 48,
          "midi": 35,
          "name": "B1",
          "ticks": 60288,
          "time": 53.822269,
          "velocity": 0.8188976377952756
        },
        {
          "duration": 0.04285212499999602,
          "durationTicks": 48,
          "midi": 39,
          "name": "D#2",
          "ticks": 60288,
          "time": 53.822269,
          "velocity": 0.7480314960629921
        },
        {
          "duration": 0.04285212499999602,
          "durationTicks": 48,
          "midi": 38,
          "name": "D2",
          "ticks": 60288,
          "time": 53.822269,
          "velocity": 0.6692913385826772
        },
        {
          "duration": 0.04285212500000313,
          "durationTicks": 48,
          "midi": 51,
          "name": "D#3",
          "ticks": 60480,
          "time": 53.9936775,
          "velocity": 0.5905511811023622
        },
        {
          "duration": 0.04285212500000313,
          "durationTicks": 48,
          "midi": 35,
          "name": "B1",
          "ticks": 60672,
          "time": 54.165085999999995,
          "velocity": 0.8188976377952756
        },
        {
          "duration": 0.04285212500000313,
          "durationTicks": 48,
          "midi": 51,
          "name": "D#3",
          "ticks": 60672,
          "time": 54.165085999999995,
          "velocity": 0.5905511811023622
        }
      ],
      "endOfTrackTicks": 61440
    },
    {
      "channel": 0,
      "controlChanges": {
        "7": [
          {
            "number": 7,
            "ticks": 0,
            "time": 0,
            "value": 1
          }
        ],
        "10": [
          {
            "number": 10,
            "ticks": 0,
            "time": 0,
            "value": 0.5039370078740157
          }
        ],
        "91": [
          {
            "number": 91,
            "ticks": 0,
            "time": 0,
            "value": 0
          }
        ],
        "93": [
          {
            "number": 93,
            "ticks": 0,
            "time": 0,
            "value": 0
          }
        ]
      },
      "pitchBends": [
        {
          "ticks": 0,
          "time": 0,
          "value": 0
        }
      ],
      "instrument": {
        "family": "bass",
        "number": 33,
        "name": "electric bass (finger)"
      },
      "name": "",
      "notes": [
        {
          "duration": 0.2017620885416651,
          "durationTicks": 226,
          "midi": 33,
          "name": "A1",
          "ticks": 12288,
          "time": 10.970144,
          "velocity": 1
        },
        {
          "duration": 0.19819107812499936,
          "durationTicks": 222,
          "midi": 28,
          "name": "E1",
          "ticks": 12672,
          "time": 11.312961,
          "velocity": 1
        },
        {
          "duration": 0.18569254166666482,
          "durationTicks": 208,
          "midi": 33,
          "name": "A1",
          "ticks": 13056,
          "time": 11.655778,
          "velocity": 1
        },
        {
          "duration": 0.14641142708333277,
          "durationTicks": 164,
          "midi": 28,
          "name": "E1",
          "ticks": 13440,
          "time": 11.998595,
          "velocity": 1
        },
        {
          "duration": 0.16962299479166454,
          "durationTicks": 190,
          "midi": 40,
          "name": "E2",
          "ticks": 13824,
          "time": 12.341412,
          "velocity": 1
        },
        {
          "duration": 0.2017620885416651,
          "durationTicks": 226,
          "midi": 35,
          "name": "B1",
          "ticks": 14208,
          "time": 12.684229,
          "velocity": 1
        },
        {
          "duration": 0.2053330989583344,
          "durationTicks": 230,
          "midi": 40,
          "name": "E2",
          "ticks": 14592,
          "time": 13.027045999999999,
          "velocity": 1
        },
        {
          "duration": 0.14284041666666702,
          "durationTicks": 160,
          "midi": 35,
          "name": "B1",
          "ticks": 14976,
          "time": 13.369862999999999,
          "velocity": 1
        },
        {
          "duration": 0.16605198437500057,
          "durationTicks": 186,
          "midi": 35,
          "name": "B1",
          "ticks": 15360,
          "time": 13.712679999999999,
          "velocity": 1
        },
        {
          "duration": 0.14819693229166653,
          "durationTicks": 166,
          "midi": 30,
          "name": "F#1",
          "ticks": 15744,
          "time": 14.055496999999999,
          "velocity": 1
        },
        {
          "duration": 0.1785505208333351,
          "durationTicks": 200,
          "midi": 35,
          "name": "B1",
          "ticks": 16128,
          "time": 14.398314,
          "velocity": 1
        },
        {
          "duration": 0.18212153124999908,
          "durationTicks": 204,
          "midi": 30,
          "name": "F#1",
          "ticks": 16512,
          "time": 14.741131,
          "velocity": 1
        },
        {
          "duration": 0.19462006770833362,
          "durationTicks": 218,
          "midi": 33,
          "name": "A1",
          "ticks": 16896,
          "time": 15.083948,
          "velocity": 1
        },
        {
          "duration": 0.15890996354166553,
          "durationTicks": 178,
          "midi": 28,
          "name": "E1",
          "ticks": 17280,
          "time": 15.426765,
          "velocity": 1
        },
        {
          "duration": 0.1964055729166656,
          "durationTicks": 220,
          "midi": 33,
          "name": "A1",
          "ticks": 17664,
          "time": 15.769582,
          "velocity": 1
        },
        {
          "duration": 0.16783748958333433,
          "durationTicks": 188,
          "midi": 28,
          "name": "E1",
          "ticks": 18048,
          "time": 16.112399,
          "velocity": 1
        },
        {
          "duration": 0.19819107812499936,
          "durationTicks": 222,
          "midi": 33,
          "name": "A1",
          "ticks": 18432,
          "time": 16.455216,
          "velocity": 1
        },
        {
          "duration": 0.16248097395833483,
          "durationTicks": 182,
          "midi": 28,
          "name": "E1",
          "ticks": 18816,
          "time": 16.798033,
          "velocity": 1
        },
        {
          "duration": 0.1553389531249998,
          "durationTicks": 174,
          "midi": 33,
          "name": "A1",
          "ticks": 19200,
          "time": 17.14085,
          "velocity": 1
        },
        {
          "duration": 0.20176208854166333,
          "durationTicks": 226,
          "midi": 28,
          "name": "E1",
          "ticks": 19584,
          "time": 17.483667,
          "velocity": 1
        },
        {
          "duration": 0.20354759374999887,
          "durationTicks": 228,
          "midi": 40,
          "name": "E2",
          "ticks": 19968,
          "time": 17.826484,
          "velocity": 1
        },
        {
          "duration": 0.18569254166666482,
          "durationTicks": 208,
          "midi": 35,
          "name": "B1",
          "ticks": 20352,
          "time": 18.169301,
          "velocity": 1
        },
        {
          "duration": 0.18033602604166887,
          "durationTicks": 202,
          "midi": 40,
          "name": "E2",
          "ticks": 20736,
          "time": 18.512117999999997,
          "velocity": 1
        },
        {
          "duration": 0.13212738541666624,
          "durationTicks": 148,
          "midi": 35,
          "name": "B1",
          "ticks": 21120,
          "time": 18.854934999999998,
          "velocity": 1
        },
        {
          "duration": 0.15176794270833582,
          "durationTicks": 170,
          "midi": 35,
          "name": "B1",
          "ticks": 21504,
          "time": 19.197751999999998,
          "velocity": 1
        },
        {
          "duration": 0.18212153125000086,
          "durationTicks": 204,
          "midi": 30,
          "name": "F#1",
          "ticks": 21888,
          "time": 19.540568999999998,
          "velocity": 1
        },
        {
          "duration": 0.17497951041666582,
          "durationTicks": 196,
          "midi": 35,
          "name": "B1",
          "ticks": 22272,
          "time": 19.883385999999998,
          "velocity": 1
        },
        {
          "duration": 0.13391289062500178,
          "durationTicks": 150,
          "midi": 30,
          "name": "F#1",
          "ticks": 22656,
          "time": 20.226202999999998,
          "velocity": 1
        },
        {
          "duration": 0.14641142708333632,
          "durationTicks": 164,
          "midi": 33,
          "name": "A1",
          "ticks": 23040,
          "time": 20.56902,
          "velocity": 1
        },
        {
          "duration": 0.12855637499999872,
          "durationTicks": 144,
          "midi": 28,
          "name": "E1",
          "ticks": 23424,
          "time": 20.911837,
          "velocity": 1
        },
        {
          "duration": 0.27496780208333504,
          "durationTicks": 308,
          "midi": 33,
          "name": "A1",
          "ticks": 23808,
          "time": 21.254654,
          "velocity": 1
        },
        {
          "duration": 0.19819107812499936,
          "durationTicks": 222,
          "midi": 35,
          "name": "B1",
          "ticks": 24576,
          "time": 21.940288,
          "velocity": 1
        },
        {
          "duration": 0.21247511979166944,
          "durationTicks": 238,
          "midi": 35,
          "name": "B1",
          "ticks": 24960,
          "time": 22.283105,
          "velocity": 1
        },
        {
          "duration": 0.19819107812499936,
          "durationTicks": 222,
          "midi": 33,
          "name": "A1",
          "ticks": 25344,
          "time": 22.625922,
          "velocity": 1
        },
        {
          "duration": 0.23390118229166745,
          "durationTicks": 262,
          "midi": 33,
          "name": "A1",
          "ticks": 25728,
          "time": 22.968739,
          "velocity": 1
        },
        {
          "duration": 0.20890410937499837,
          "durationTicks": 234,
          "midi": 42,
          "name": "F#2",
          "ticks": 26112,
          "time": 23.311556,
          "velocity": 1
        },
        {
          "duration": 0.289251843749998,
          "durationTicks": 324,
          "midi": 42,
          "name": "F#2",
          "ticks": 26496,
          "time": 23.654373,
          "velocity": 1
        },
        {
          "duration": 0.1714084999999983,
          "durationTicks": 192,
          "midi": 40,
          "name": "E2",
          "ticks": 26880,
          "time": 23.99719,
          "velocity": 1
        },
        {
          "duration": 0.24282870833333092,
          "durationTicks": 272,
          "midi": 40,
          "name": "E2",
          "ticks": 27264,
          "time": 24.340007,
          "velocity": 1
        },
        {
          "duration": 0.17497951041666582,
          "durationTicks": 196,
          "midi": 35,
          "name": "B1",
          "ticks": 27648,
          "time": 24.682824,
          "velocity": 1
        },
        {
          "duration": 0.24639971874999844,
          "durationTicks": 276,
          "midi": 35,
          "name": "B1",
          "ticks": 28032,
          "time": 25.025641,
          "velocity": 1
        },
        {
          "duration": 0.14998243749999673,
          "durationTicks": 168,
          "midi": 33,
          "name": "A1",
          "ticks": 28416,
          "time": 25.368458,
          "velocity": 1
        },
        {
          "duration": 0.18390703645833284,
          "durationTicks": 206,
          "midi": 33,
          "name": "A1",
          "ticks": 28800,
          "time": 25.711274999999997,
          "velocity": 1
        },
        {
          "duration": 0.24818522395833398,
          "durationTicks": 278,
          "midi": 37,
          "name": "C#2",
          "ticks": 29184,
          "time": 26.054091999999997,
          "velocity": 1
        },
        {
          "duration": 0.23033017187499993,
          "durationTicks": 258,
          "midi": 37,
          "name": "C#2",
          "ticks": 29568,
          "time": 26.396908999999997,
          "velocity": 1
        },
        {
          "duration": 0.19283456249999986,
          "durationTicks": 216,
          "midi": 35,
          "name": "B1",
          "ticks": 29952,
          "time": 26.739725999999997,
          "velocity": 1
        },
        {
          "duration": 0.21247511979166944,
          "durationTicks": 238,
          "midi": 35,
          "name": "B1",
          "ticks": 30336,
          "time": 27.082542999999998,
          "velocity": 1
        },
        {
          "duration": 0.1606954687499993,
          "durationTicks": 180,
          "midi": 35,
          "name": "B1",
          "ticks": 30720,
          "time": 27.425359999999998,
          "velocity": 1
        },
        {
          "duration": 0.2160461302083334,
          "durationTicks": 242,
          "midi": 35,
          "name": "B1",
          "ticks": 31104,
          "time": 27.768176999999998,
          "velocity": 1
        },
        {
          "duration": 0.14105491145833327,
          "durationTicks": 158,
          "midi": 33,
          "name": "A1",
          "ticks": 31488,
          "time": 28.110993999999998,
          "velocity": 1
        },
        {
          "duration": 0.31960543229167016,
          "durationTicks": 358,
          "midi": 33,
          "name": "A1",
          "ticks": 31872,
          "time": 28.453810999999998,
          "velocity": 1
        },
        {
          "duration": 0.16248097395833128,
          "durationTicks": 182,
          "midi": 42,
          "name": "F#2",
          "ticks": 32256,
          "time": 28.796628,
          "velocity": 1
        },
        {
          "duration": 0.19104905729166788,
          "durationTicks": 214,
          "midi": 42,
          "name": "F#2",
          "ticks": 32640,
          "time": 29.139445,
          "velocity": 1
        },
        {
          "duration": 0.1481969322916683,
          "durationTicks": 166,
          "midi": 40,
          "name": "E2",
          "ticks": 33024,
          "time": 29.482262,
          "velocity": 1
        },
        {
          "duration": 0.21604613020832986,
          "durationTicks": 242,
          "midi": 40,
          "name": "E2",
          "ticks": 33408,
          "time": 29.825079,
          "velocity": 1
        },
        {
          "duration": 0.15712445833333177,
          "durationTicks": 176,
          "midi": 42,
          "name": "F#2",
          "ticks": 33792,
          "time": 30.167896,
          "velocity": 1
        },
        {
          "duration": 0.18926355208333234,
          "durationTicks": 212,
          "midi": 42,
          "name": "F#2",
          "ticks": 34176,
          "time": 30.510713,
          "velocity": 1
        },
        {
          "duration": 0.1589099635416673,
          "durationTicks": 178,
          "midi": 40,
          "name": "E2",
          "ticks": 34560,
          "time": 30.85353,
          "velocity": 1
        },
        {
          "duration": 0.280324317708331,
          "durationTicks": 314,
          "midi": 40,
          "name": "E2",
          "ticks": 34944,
          "time": 31.196347,
          "velocity": 1
        },
        {
          "duration": 0.1481969322916683,
          "durationTicks": 166,
          "midi": 35,
          "name": "B1",
          "ticks": 35328,
          "time": 31.539164,
          "velocity": 1
        },
        {
          "duration": 0.14998243749999673,
          "durationTicks": 168,
          "midi": 35,
          "name": "B1",
          "ticks": 35712,
          "time": 31.881981,
          "velocity": 1
        },
        {
          "duration": 0.20176208854166333,
          "durationTicks": 226,
          "midi": 33,
          "name": "A1",
          "ticks": 36096,
          "time": 32.224798,
          "velocity": 1
        },
        {
          "duration": 0.20176208854166333,
          "durationTicks": 226,
          "midi": 33,
          "name": "A1",
          "ticks": 49152,
          "time": 43.880576,
          "velocity": 1
        },
        {
          "duration": 0.19819107812500647,
          "durationTicks": 222,
          "midi": 28,
          "name": "E1",
          "ticks": 49536,
          "time": 44.223392999999994,
          "velocity": 1
        },
        {
          "duration": 0.18569254166666127,
          "durationTicks": 208,
          "midi": 33,
          "name": "A1",
          "ticks": 49920,
          "time": 44.56621,
          "velocity": 1
        },
        {
          "duration": 0.14641142708333632,
          "durationTicks": 164,
          "midi": 28,
          "name": "E1",
          "ticks": 50304,
          "time": 44.909026999999995,
          "velocity": 1
        },
        {
          "duration": 0.1696229947916592,
          "durationTicks": 190,
          "midi": 40,
          "name": "E2",
          "ticks": 50688,
          "time": 45.251844,
          "velocity": 1
        },
        {
          "duration": 0.20176208854166333,
          "durationTicks": 226,
          "midi": 35,
          "name": "B1",
          "ticks": 51072,
          "time": 45.594660999999995,
          "velocity": 1
        },
        {
          "duration": 0.2053330989583344,
          "durationTicks": 230,
          "midi": 40,
          "name": "E2",
          "ticks": 51456,
          "time": 45.937478,
          "velocity": 1
        },
        {
          "duration": 0.14284041666666525,
          "durationTicks": 160,
          "midi": 35,
          "name": "B1",
          "ticks": 51840,
          "time": 46.280294999999995,
          "velocity": 1
        },
        {
          "duration": 0.16605198437499524,
          "durationTicks": 186,
          "midi": 35,
          "name": "B1",
          "ticks": 52224,
          "time": 46.623112,
          "velocity": 1
        },
        {
          "duration": 0.1481969322916683,
          "durationTicks": 166,
          "midi": 30,
          "name": "F#1",
          "ticks": 52608,
          "time": 46.965928999999996,
          "velocity": 1
        },
        {
          "duration": 0.17855052083333334,
          "durationTicks": 200,
          "midi": 35,
          "name": "B1",
          "ticks": 52992,
          "time": 47.308746,
          "velocity": 1
        },
        {
          "duration": 0.1821215312500044,
          "durationTicks": 204,
          "midi": 30,
          "name": "F#1",
          "ticks": 53376,
          "time": 47.651562999999996,
          "velocity": 1
        },
        {
          "duration": 0.1946200677083354,
          "durationTicks": 218,
          "midi": 33,
          "name": "A1",
          "ticks": 53760,
          "time": 47.99438,
          "velocity": 1
        },
        {
          "duration": 0.1589099635416673,
          "durationTicks": 178,
          "midi": 28,
          "name": "E1",
          "ticks": 54144,
          "time": 48.337196999999996,
          "velocity": 1
        },
        {
          "duration": 0.19640557291666028,
          "durationTicks": 220,
          "midi": 33,
          "name": "A1",
          "ticks": 54528,
          "time": 48.680014,
          "velocity": 1
        },
        {
          "duration": 0.16783748958333433,
          "durationTicks": 188,
          "midi": 28,
          "name": "E1",
          "ticks": 54912,
          "time": 49.022831,
          "velocity": 1
        },
        {
          "duration": 0.19819107812499936,
          "durationTicks": 222,
          "midi": 33,
          "name": "A1",
          "ticks": 55296,
          "time": 49.365648,
          "velocity": 1
        },
        {
          "duration": 0.16248097395833838,
          "durationTicks": 182,
          "midi": 28,
          "name": "E1",
          "ticks": 55680,
          "time": 49.708465,
          "velocity": 1
        },
        {
          "duration": 0.15533895312499624,
          "durationTicks": 174,
          "midi": 33,
          "name": "A1",
          "ticks": 56064,
          "time": 50.051282,
          "velocity": 1
        },
        {
          "duration": 0.20176208854166333,
          "durationTicks": 226,
          "midi": 28,
          "name": "E1",
          "ticks": 56448,
          "time": 50.394099,
          "velocity": 1
        },
        {
          "duration": 0.20354759374999531,
          "durationTicks": 228,
          "midi": 40,
          "name": "E2",
          "ticks": 56832,
          "time": 50.736916,
          "velocity": 1
        },
        {
          "duration": 0.18569254166666127,
          "durationTicks": 208,
          "midi": 35,
          "name": "B1",
          "ticks": 57216,
          "time": 51.079733,
          "velocity": 1
        },
        {
          "duration": 0.18033602604166532,
          "durationTicks": 202,
          "midi": 40,
          "name": "E2",
          "ticks": 57600,
          "time": 51.422549999999994,
          "velocity": 1
        },
        {
          "duration": 0.13212738541666624,
          "durationTicks": 148,
          "midi": 35,
          "name": "B1",
          "ticks": 57984,
          "time": 51.765367,
          "velocity": 1
        },
        {
          "duration": 0.15176794270833938,
          "durationTicks": 170,
          "midi": 35,
          "name": "B1",
          "ticks": 58368,
          "time": 52.108183999999994,
          "velocity": 1
        },
        {
          "duration": 0.1821215312499973,
          "durationTicks": 204,
          "midi": 30,
          "name": "F#1",
          "ticks": 58752,
          "time": 52.451001,
          "velocity": 1
        },
        {
          "duration": 0.17497951041666937,
          "durationTicks": 196,
          "midi": 35,
          "name": "B1",
          "ticks": 59136,
          "time": 52.793817999999995,
          "velocity": 1
        },
        {
          "duration": 0.13391289062499823,
          "durationTicks": 150,
          "midi": 30,
          "name": "F#1",
          "ticks": 59520,
          "time": 53.136635,
          "velocity": 1
        },
        {
          "duration": 0.14641142708333632,
          "durationTicks": 164,
          "midi": 33,
          "name": "A1",
          "ticks": 59904,
          "time": 53.479451999999995,
          "velocity": 1
        },
        {
          "duration": 0.12855637499999517,
          "durationTicks": 144,
          "midi": 28,
          "name": "E1",
          "ticks": 60288,
          "time": 53.822269,
          "velocity": 1
        },
        {
          "duration": 0.2749678020833386,
          "durationTicks": 308,
          "midi": 33,
          "name": "A1",
          "ticks": 60672,
          "time": 54.165085999999995,
          "velocity": 1
        }
      ],
      "endOfTrackTicks": 61440
    },
    {
      "channel": 1,
      "controlChanges": {
        "7": [
          {
            "number": 7,
            "ticks": 0,
            "time": 0,
            "value": 0.7874015748031497
          }
        ],
        "10": [
          {
            "number": 10,
            "ticks": 0,
            "time": 0,
            "value": 0.5039370078740157
          }
        ],
        "91": [
          {
            "number": 91,
            "ticks": 0,
            "time": 0,
            "value": 0.6299212598425197
          }
        ],
        "93": [
          {
            "number": 93,
            "ticks": 0,
            "time": 0,
            "value": 0
          }
        ]
      },
      "pitchBends": [
        {
          "ticks": 0,
          "time": 0,
          "value": 0
        }
      ],
      "instrument": {
        "family": "reed",
        "number": 65,
        "name": "alto sax"
      },
      "name": "",
      "notes": [
        {
          "duration": 0.32853295833333335,
          "durationTicks": 368,
          "midi": 61,
          "name": "C#4",
          "ticks": 8,
          "time": 0.007142020833333333,
          "velocity": 1
        },
        {
          "duration": 0.33746048437500004,
          "durationTicks": 378,
          "midi": 57,
          "name": "A3",
          "ticks": 384,
          "time": 0.342817,
          "velocity": 1
        },
        {
          "duration": 0.3374604843750001,
          "durationTicks": 378,
          "midi": 54,
          "name": "F#3",
          "ticks": 768,
          "time": 0.685634,
          "velocity": 1
        },
        {
          "duration": 0.337460484375,
          "durationTicks": 378,
          "midi": 52,
          "name": "E3",
          "ticks": 1152,
          "time": 1.028451,
          "velocity": 1
        },
        {
          "duration": 0.16605198437500013,
          "durationTicks": 186,
          "midi": 50,
          "name": "D3",
          "ticks": 2112,
          "time": 1.8854935,
          "velocity": 1
        },
        {
          "duration": 0.16605198437500013,
          "durationTicks": 186,
          "midi": 62,
          "name": "D4",
          "ticks": 2112,
          "time": 1.8854935,
          "velocity": 1
        },
        {
          "duration": 0.16605198437499968,
          "durationTicks": 186,
          "midi": 49,
          "name": "C#3",
          "ticks": 2304,
          "time": 2.056902,
          "velocity": 1
        },
        {
          "duration": 0.16605198437499968,
          "durationTicks": 186,
          "midi": 61,
          "name": "C#4",
          "ticks": 2304,
          "time": 2.056902,
          "velocity": 1
        },
        {
          "duration": 0.16605198437499968,
          "durationTicks": 186,
          "midi": 47,
          "name": "B2",
          "ticks": 2496,
          "time": 2.2283105,
          "velocity": 1
        },
        {
          "duration": 0.16605198437499968,
          "durationTicks": 186,
          "midi": 59,
          "name": "B3",
          "ticks": 2496,
          "time": 2.2283105,
          "velocity": 1
        },
        {
          "duration": 0.3374604843750002,
          "durationTicks": 378,
          "midi": 45,
          "name": "A2",
          "ticks": 2688,
          "time": 2.3997189999999997,
          "velocity": 1
        },
        {
          "duration": 0.3374604843750002,
          "durationTicks": 378,
          "midi": 57,
          "name": "A3",
          "ticks": 2688,
          "time": 2.3997189999999997,
          "velocity": 1
        },
        {
          "duration": 0.3374604843750002,
          "durationTicks": 378,
          "midi": 61,
          "name": "C#4",
          "ticks": 3072,
          "time": 2.742536,
          "velocity": 1
        },
        {
          "duration": 0.33746048437499976,
          "durationTicks": 378,
          "midi": 57,
          "name": "A3",
          "ticks": 3456,
          "time": 3.085353,
          "velocity": 1
        },
        {
          "duration": 0.3374604843750002,
          "durationTicks": 378,
          "midi": 54,
          "name": "F#3",
          "ticks": 3840,
          "time": 3.4281699999999997,
          "velocity": 1
        },
        {
          "duration": 0.33746048437499976,
          "durationTicks": 378,
          "midi": 52,
          "name": "E3",
          "ticks": 4224,
          "time": 3.770987,
          "velocity": 1
        },
        {
          "duration": 0.16605198437500057,
          "durationTicks": 186,
          "midi": 40,
          "name": "E2",
          "ticks": 5184,
          "time": 4.628029499999999,
          "velocity": 1
        },
        {
          "duration": 0.1642664791666668,
          "durationTicks": 184,
          "midi": 52,
          "name": "E3",
          "ticks": 5184,
          "time": 4.628029499999999,
          "velocity": 1
        },
        {
          "duration": 0.16605198437500057,
          "durationTicks": 186,
          "midi": 45,
          "name": "A2",
          "ticks": 5376,
          "time": 4.799437999999999,
          "velocity": 1
        },
        {
          "duration": 0.16605198437500057,
          "durationTicks": 186,
          "midi": 57,
          "name": "A3",
          "ticks": 5376,
          "time": 4.799437999999999,
          "velocity": 1
        },
        {
          "duration": 0.16605198437500057,
          "durationTicks": 186,
          "midi": 40,
          "name": "E2",
          "ticks": 5568,
          "time": 4.9708464999999995,
          "velocity": 1
        },
        {
          "duration": 0.16605198437500057,
          "durationTicks": 186,
          "midi": 52,
          "name": "E3",
          "ticks": 5568,
          "time": 4.9708464999999995,
          "velocity": 1
        },
        {
          "duration": 0.33746048437499976,
          "durationTicks": 378,
          "midi": 45,
          "name": "A2",
          "ticks": 5760,
          "time": 5.142255,
          "velocity": 1
        },
        {
          "duration": 0.33746048437499976,
          "durationTicks": 378,
          "midi": 57,
          "name": "A3",
          "ticks": 5760,
          "time": 5.142255,
          "velocity": 1
        },
        {
          "duration": 0.33746048437499976,
          "durationTicks": 378,
          "midi": 61,
          "name": "C#4",
          "ticks": 6144,
          "time": 5.485072,
          "velocity": 1
        },
        {
          "duration": 0.33746048437499976,
          "durationTicks": 378,
          "midi": 57,
          "name": "A3",
          "ticks": 6528,
          "time": 5.827889,
          "velocity": 1
        },
        {
          "duration": 0.33746048437499976,
          "durationTicks": 378,
          "midi": 54,
          "name": "F#3",
          "ticks": 6912,
          "time": 6.170706,
          "velocity": 1
        },
        {
          "duration": 0.33746048437500065,
          "durationTicks": 378,
          "midi": 52,
          "name": "E3",
          "ticks": 7296,
          "time": 6.513522999999999,
          "velocity": 1
        },
        {
          "duration": 0.16605198437499968,
          "durationTicks": 186,
          "midi": 50,
          "name": "D3",
          "ticks": 8256,
          "time": 7.3705655,
          "velocity": 1
        },
        {
          "duration": 0.16605198437499968,
          "durationTicks": 186,
          "midi": 62,
          "name": "D4",
          "ticks": 8256,
          "time": 7.3705655,
          "velocity": 1
        },
        {
          "duration": 0.16605198437499968,
          "durationTicks": 186,
          "midi": 49,
          "name": "C#3",
          "ticks": 8448,
          "time": 7.541974,
          "velocity": 1
        },
        {
          "duration": 0.16605198437499968,
          "durationTicks": 186,
          "midi": 61,
          "name": "C#4",
          "ticks": 8448,
          "time": 7.541974,
          "velocity": 1
        },
        {
          "duration": 0.16605198437499968,
          "durationTicks": 186,
          "midi": 47,
          "name": "B2",
          "ticks": 8640,
          "time": 7.7133825,
          "velocity": 1
        },
        {
          "duration": 0.16605198437499968,
          "durationTicks": 186,
          "midi": 59,
          "name": "B3",
          "ticks": 8640,
          "time": 7.7133825,
          "velocity": 1
        },
        {
          "duration": 0.33746048437499887,
          "durationTicks": 378,
          "midi": 45,
          "name": "A2",
          "ticks": 8832,
          "time": 7.884791,
          "velocity": 1
        },
        {
          "duration": 0.33746048437499887,
          "durationTicks": 378,
          "midi": 57,
          "name": "A3",
          "ticks": 8832,
          "time": 7.884791,
          "velocity": 1
        },
        {
          "duration": 0.33746048437499887,
          "durationTicks": 378,
          "midi": 61,
          "name": "C#4",
          "ticks": 9216,
          "time": 8.227608,
          "velocity": 1
        },
        {
          "duration": 0.33746048437499887,
          "durationTicks": 378,
          "midi": 57,
          "name": "A3",
          "ticks": 9600,
          "time": 8.570425,
          "velocity": 1
        },
        {
          "duration": 0.33746048437499887,
          "durationTicks": 378,
          "midi": 54,
          "name": "F#3",
          "ticks": 9984,
          "time": 8.913242,
          "velocity": 1
        },
        {
          "duration": 0.33746048437500065,
          "durationTicks": 378,
          "midi": 52,
          "name": "E3",
          "ticks": 10368,
          "time": 9.256058999999999,
          "velocity": 1
        },
        {
          "duration": 0.16605198437500057,
          "durationTicks": 186,
          "midi": 40,
          "name": "E2",
          "ticks": 11328,
          "time": 10.113101499999999,
          "velocity": 1
        },
        {
          "duration": 0.16605198437500057,
          "durationTicks": 186,
          "midi": 52,
          "name": "E3",
          "ticks": 11328,
          "time": 10.113101499999999,
          "velocity": 1
        },
        {
          "duration": 0.16605198437500057,
          "durationTicks": 186,
          "midi": 45,
          "name": "A2",
          "ticks": 11520,
          "time": 10.28451,
          "velocity": 1
        },
        {
          "duration": 0.16605198437500057,
          "durationTicks": 186,
          "midi": 57,
          "name": "A3",
          "ticks": 11520,
          "time": 10.28451,
          "velocity": 1
        },
        {
          "duration": 0.16605198437500057,
          "durationTicks": 186,
          "midi": 40,
          "name": "E2",
          "ticks": 11712,
          "time": 10.4559185,
          "velocity": 1
        },
        {
          "duration": 0.16605198437500057,
          "durationTicks": 186,
          "midi": 52,
          "name": "E3",
          "ticks": 11712,
          "time": 10.4559185,
          "velocity": 1
        },
        {
          "duration": 0.3356749791666669,
          "durationTicks": 376,
          "midi": 45,
          "name": "A2",
          "ticks": 11904,
          "time": 10.627327,
          "velocity": 1
        },
        {
          "duration": 0.3356749791666669,
          "durationTicks": 376,
          "midi": 57,
          "name": "A3",
          "ticks": 11904,
          "time": 10.627327,
          "velocity": 1
        },
        {
          "duration": 0.6802774843750008,
          "durationTicks": 762,
          "midi": 57,
          "name": "A3",
          "ticks": 12288,
          "time": 10.970144,
          "velocity": 1
        },
        {
          "duration": 0.1660519843749988,
          "durationTicks": 186,
          "midi": 59,
          "name": "B3",
          "ticks": 13056,
          "time": 11.655778,
          "velocity": 1
        },
        {
          "duration": 0.1660519843749988,
          "durationTicks": 186,
          "midi": 62,
          "name": "D4",
          "ticks": 13248,
          "time": 11.8271865,
          "velocity": 1
        },
        {
          "duration": 0.1660519843749988,
          "durationTicks": 186,
          "midi": 61,
          "name": "C#4",
          "ticks": 13440,
          "time": 11.998595,
          "velocity": 1
        },
        {
          "duration": 0.1660519843749988,
          "durationTicks": 186,
          "midi": 59,
          "name": "B3",
          "ticks": 13632,
          "time": 12.1700035,
          "velocity": 1
        },
        {
          "duration": 0.33746048437499887,
          "durationTicks": 378,
          "midi": 64,
          "name": "E4",
          "ticks": 13824,
          "time": 12.341412,
          "velocity": 1
        },
        {
          "duration": 0.33746048437499887,
          "durationTicks": 378,
          "midi": 64,
          "name": "E4",
          "ticks": 14208,
          "time": 12.684229,
          "velocity": 1
        },
        {
          "duration": 0.16605198437500057,
          "durationTicks": 186,
          "midi": 64,
          "name": "E4",
          "ticks": 14592,
          "time": 13.027045999999999,
          "velocity": 1
        },
        {
          "duration": 0.16605198437500057,
          "durationTicks": 186,
          "midi": 66,
          "name": "F#4",
          "ticks": 14784,
          "time": 13.198454499999999,
          "velocity": 1
        },
        {
          "duration": 0.16605198437500057,
          "durationTicks": 186,
          "midi": 61,
          "name": "C#4",
          "ticks": 14976,
          "time": 13.369862999999999,
          "velocity": 1
        },
        {
          "duration": 0.16605198437500057,
          "durationTicks": 186,
          "midi": 62,
          "name": "D4",
          "ticks": 15168,
          "time": 13.541271499999999,
          "velocity": 1
        },
        {
          "duration": 0.3356749791666669,
          "durationTicks": 376,
          "midi": 59,
          "name": "B3",
          "ticks": 15360,
          "time": 13.712679999999999,
          "velocity": 1
        },
        {
          "duration": 0.33746048437500065,
          "durationTicks": 378,
          "midi": 59,
          "name": "B3",
          "ticks": 15744,
          "time": 14.055496999999999,
          "velocity": 1
        },
        {
          "duration": 0.16605198437500057,
          "durationTicks": 186,
          "midi": 59,
          "name": "B3",
          "ticks": 16128,
          "time": 14.398314,
          "velocity": 1
        },
        {
          "duration": 0.16605198437500057,
          "durationTicks": 186,
          "midi": 62,
          "name": "D4",
          "ticks": 16320,
          "time": 14.5697225,
          "velocity": 1
        },
        {
          "duration": 0.16605198437500057,
          "durationTicks": 186,
          "midi": 61,
          "name": "C#4",
          "ticks": 16512,
          "time": 14.741131,
          "velocity": 1
        },
        {
          "duration": 0.16605198437500057,
          "durationTicks": 186,
          "midi": 59,
          "name": "B3",
          "ticks": 16704,
          "time": 14.9125395,
          "velocity": 1
        },
        {
          "duration": 0.16605198437500057,
          "durationTicks": 186,
          "midi": 57,
          "name": "A3",
          "ticks": 16896,
          "time": 15.083948,
          "velocity": 1
        },
        {
          "duration": 0.16605198437500057,
          "durationTicks": 186,
          "midi": 69,
          "name": "A4",
          "ticks": 17088,
          "time": 15.2553565,
          "velocity": 1
        },
        {
          "duration": 0.1660519843749988,
          "durationTicks": 186,
          "midi": 68,
          "name": "G#4",
          "ticks": 17280,
          "time": 15.426765,
          "velocity": 1
        },
        {
          "duration": 0.1660519843749988,
          "durationTicks": 186,
          "midi": 66,
          "name": "F#4",
          "ticks": 17472,
          "time": 15.5981735,
          "velocity": 1
        },
        {
          "duration": 0.1660519843749988,
          "durationTicks": 186,
          "midi": 64,
          "name": "E4",
          "ticks": 17664,
          "time": 15.769582,
          "velocity": 1
        },
        {
          "duration": 0.16605198437500057,
          "durationTicks": 186,
          "midi": 62,
          "name": "D4",
          "ticks": 17856,
          "time": 15.9409905,
          "velocity": 1
        },
        {
          "duration": 0.1660519843749988,
          "durationTicks": 186,
          "midi": 61,
          "name": "C#4",
          "ticks": 18048,
          "time": 16.112399,
          "velocity": 1
        },
        {
          "duration": 0.16605198437500235,
          "durationTicks": 186,
          "midi": 59,
          "name": "B3",
          "ticks": 18240,
          "time": 16.283807499999998,
          "velocity": 1
        },
        {
          "duration": 0.33746048437500065,
          "durationTicks": 378,
          "midi": 45,
          "name": "A2",
          "ticks": 18432,
          "time": 16.455216,
          "velocity": 1
        },
        {
          "duration": 0.33746048437500065,
          "durationTicks": 378,
          "midi": 52,
          "name": "E3",
          "ticks": 18816,
          "time": 16.798033,
          "velocity": 1
        },
        {
          "duration": 0.6802774843749972,
          "durationTicks": 762,
          "midi": 45,
          "name": "A2",
          "ticks": 19200,
          "time": 17.14085,
          "velocity": 1
        },
        {
          "duration": 0.3356749791666651,
          "durationTicks": 376,
          "midi": 52,
          "name": "E3",
          "ticks": 19968,
          "time": 17.826484,
          "velocity": 1
        },
        {
          "duration": 0.3374604843749971,
          "durationTicks": 378,
          "midi": 47,
          "name": "B2",
          "ticks": 20352,
          "time": 18.169301,
          "velocity": 1
        },
        {
          "duration": 0.6802774843750008,
          "durationTicks": 762,
          "midi": 52,
          "name": "E3",
          "ticks": 20736,
          "time": 18.512117999999997,
          "velocity": 1
        },
        {
          "duration": 0.33746048437500065,
          "durationTicks": 378,
          "midi": 47,
          "name": "B2",
          "ticks": 21504,
          "time": 19.197751999999998,
          "velocity": 1
        },
        {
          "duration": 0.33746048437500065,
          "durationTicks": 378,
          "midi": 42,
          "name": "F#2",
          "ticks": 21888,
          "time": 19.540568999999998,
          "velocity": 1
        },
        {
          "duration": 0.6802774843750008,
          "durationTicks": 762,
          "midi": 47,
          "name": "B2",
          "ticks": 22272,
          "time": 19.883385999999998,
          "velocity": 1
        },
        {
          "duration": 0.6802774843750008,
          "durationTicks": 762,
          "midi": 45,
          "name": "A2",
          "ticks": 23040,
          "time": 20.56902,
          "velocity": 1
        },
        {
          "duration": 0.6784919791666688,
          "durationTicks": 760,
          "midi": 59,
          "name": "B3",
          "ticks": 24576,
          "time": 21.940288,
          "velocity": 1
        },
        {
          "duration": 0.1660519843749988,
          "durationTicks": 186,
          "midi": 59,
          "name": "B3",
          "ticks": 25344,
          "time": 22.625922,
          "velocity": 1
        },
        {
          "duration": 0.16426647916667036,
          "durationTicks": 184,
          "midi": 57,
          "name": "A3",
          "ticks": 25536,
          "time": 22.797330499999997,
          "velocity": 1
        },
        {
          "duration": 0.33746048437500065,
          "durationTicks": 378,
          "midi": 57,
          "name": "A3",
          "ticks": 25728,
          "time": 22.968739,
          "velocity": 1
        },
        {
          "duration": 0.1660519843749988,
          "durationTicks": 186,
          "midi": 66,
          "name": "F#4",
          "ticks": 27648,
          "time": 24.682824,
          "velocity": 1
        },
        {
          "duration": 0.1660519843749988,
          "durationTicks": 186,
          "midi": 59,
          "name": "B3",
          "ticks": 27840,
          "time": 24.8542325,
          "velocity": 1
        },
        {
          "duration": 0.1660519843749988,
          "durationTicks": 186,
          "midi": 59,
          "name": "B3",
          "ticks": 28032,
          "time": 25.025641,
          "velocity": 1
        },
        {
          "duration": 0.1660519843749988,
          "durationTicks": 186,
          "midi": 66,
          "name": "F#4",
          "ticks": 28224,
          "time": 25.1970495,
          "velocity": 1
        },
        {
          "duration": 0.1660519843749988,
          "durationTicks": 186,
          "midi": 64,
          "name": "E4",
          "ticks": 28416,
          "time": 25.368458,
          "velocity": 1
        },
        {
          "duration": 0.1642664791666668,
          "durationTicks": 184,
          "midi": 57,
          "name": "A3",
          "ticks": 28608,
          "time": 25.5398665,
          "velocity": 1
        },
        {
          "duration": 0.33746048437500065,
          "durationTicks": 378,
          "midi": 57,
          "name": "A3",
          "ticks": 28800,
          "time": 25.711274999999997,
          "velocity": 1
        },
        {
          "duration": 0.5088689843750025,
          "durationTicks": 570,
          "midi": 59,
          "name": "B3",
          "ticks": 30720,
          "time": 27.425359999999998,
          "velocity": 1
        },
        {
          "duration": 0.1660519843749988,
          "durationTicks": 186,
          "midi": 61,
          "name": "C#4",
          "ticks": 31296,
          "time": 27.9395855,
          "velocity": 1
        },
        {
          "duration": 0.16426647916667036,
          "durationTicks": 184,
          "midi": 59,
          "name": "B3",
          "ticks": 31488,
          "time": 28.110993999999998,
          "velocity": 1
        },
        {
          "duration": 0.1660519843749988,
          "durationTicks": 186,
          "midi": 57,
          "name": "A3",
          "ticks": 31680,
          "time": 28.2824025,
          "velocity": 1
        },
        {
          "duration": 0.33746048437500065,
          "durationTicks": 378,
          "midi": 57,
          "name": "A3",
          "ticks": 31872,
          "time": 28.453810999999998,
          "velocity": 1
        },
        {
          "duration": 0.1660519843749988,
          "durationTicks": 186,
          "midi": 62,
          "name": "D4",
          "ticks": 32256,
          "time": 28.796628,
          "velocity": 1
        },
        {
          "duration": 0.1660519843749988,
          "durationTicks": 186,
          "midi": 66,
          "name": "F#4",
          "ticks": 32448,
          "time": 28.9680365,
          "velocity": 1
        },
        {
          "duration": 0.1660519843749988,
          "durationTicks": 186,
          "midi": 69,
          "name": "A4",
          "ticks": 32640,
          "time": 29.139445,
          "velocity": 1
        },
        {
          "duration": 0.16605198437500235,
          "durationTicks": 186,
          "midi": 66,
          "name": "F#4",
          "ticks": 32832,
          "time": 29.310853499999997,
          "velocity": 1
        },
        {
          "duration": 0.1660519843749988,
          "durationTicks": 186,
          "midi": 66,
          "name": "F#4",
          "ticks": 33024,
          "time": 29.482262,
          "velocity": 1
        },
        {
          "duration": 0.16783748958333433,
          "durationTicks": 188,
          "midi": 64,
          "name": "E4",
          "ticks": 33216,
          "time": 29.653670499999997,
          "velocity": 1
        },
        {
          "duration": 0.33746048437500065,
          "durationTicks": 378,
          "midi": 64,
          "name": "E4",
          "ticks": 33408,
          "time": 29.825079,
          "velocity": 1
        },
        {
          "duration": 0.1660519843749988,
          "durationTicks": 186,
          "midi": 66,
          "name": "F#4",
          "ticks": 33792,
          "time": 30.167896,
          "velocity": 1
        },
        {
          "duration": 0.16605198437500235,
          "durationTicks": 186,
          "midi": 59,
          "name": "B3",
          "ticks": 33984,
          "time": 30.339304499999997,
          "velocity": 1
        },
        {
          "duration": 0.1660519843749988,
          "durationTicks": 186,
          "midi": 59,
          "name": "B3",
          "ticks": 34176,
          "time": 30.510713,
          "velocity": 1
        },
        {
          "duration": 0.16605198437500235,
          "durationTicks": 186,
          "midi": 66,
          "name": "F#4",
          "ticks": 34368,
          "time": 30.682121499999997,
          "velocity": 1
        },
        {
          "duration": 0.1660519843749988,
          "durationTicks": 186,
          "midi": 64,
          "name": "E4",
          "ticks": 34560,
          "time": 30.85353,
          "velocity": 1
        },
        {
          "duration": 0.16605198437500235,
          "durationTicks": 186,
          "midi": 57,
          "name": "A3",
          "ticks": 34752,
          "time": 31.024938499999998,
          "velocity": 1
        },
        {
          "duration": 0.33746048437500065,
          "durationTicks": 378,
          "midi": 57,
          "name": "A3",
          "ticks": 34944,
          "time": 31.196347,
          "velocity": 1
        },
        {
          "duration": 0.1660519843749988,
          "durationTicks": 186,
          "midi": 61,
          "name": "C#4",
          "ticks": 35328,
          "time": 31.539164,
          "velocity": 1
        },
        {
          "duration": 0.16605198437500235,
          "durationTicks": 186,
          "midi": 59,
          "name": "B3",
          "ticks": 35520,
          "time": 31.710572499999998,
          "velocity": 1
        },
        {
          "duration": 0.1660519843749988,
          "durationTicks": 186,
          "midi": 61,
          "name": "C#4",
          "ticks": 35712,
          "time": 31.881981,
          "velocity": 1
        },
        {
          "duration": 0.16605198437499524,
          "durationTicks": 186,
          "midi": 59,
          "name": "B3",
          "ticks": 35904,
          "time": 32.0533895,
          "velocity": 1
        },
        {
          "duration": 0.508868984374999,
          "durationTicks": 570,
          "midi": 57,
          "name": "A3",
          "ticks": 36096,
          "time": 32.224798,
          "velocity": 1
        },
        {
          "duration": 0.33746048437500065,
          "durationTicks": 378,
          "midi": 61,
          "name": "C#4",
          "ticks": 36864,
          "time": 32.910432,
          "velocity": 1
        },
        {
          "duration": 0.33746048437500065,
          "durationTicks": 378,
          "midi": 57,
          "name": "A3",
          "ticks": 37248,
          "time": 33.253249,
          "velocity": 1
        },
        {
          "duration": 0.33746048437500065,
          "durationTicks": 378,
          "midi": 54,
          "name": "F#3",
          "ticks": 37632,
          "time": 33.596066,
          "velocity": 1
        },
        {
          "duration": 0.33746048437500065,
          "durationTicks": 378,
          "midi": 52,
          "name": "E3",
          "ticks": 38016,
          "time": 33.938883,
          "velocity": 1
        },
        {
          "duration": 0.16605198437500235,
          "durationTicks": 186,
          "midi": 50,
          "name": "D3",
          "ticks": 38976,
          "time": 34.795925499999996,
          "velocity": 1
        },
        {
          "duration": 0.16605198437500235,
          "durationTicks": 186,
          "midi": 62,
          "name": "D4",
          "ticks": 38976,
          "time": 34.795925499999996,
          "velocity": 1
        },
        {
          "duration": 0.16605198437499524,
          "durationTicks": 186,
          "midi": 49,
          "name": "C#3",
          "ticks": 39168,
          "time": 34.967334,
          "velocity": 1
        },
        {
          "duration": 0.16605198437499524,
          "durationTicks": 186,
          "midi": 61,
          "name": "C#4",
          "ticks": 39168,
          "time": 34.967334,
          "velocity": 1
        },
        {
          "duration": 0.16605198437500235,
          "durationTicks": 186,
          "midi": 47,
          "name": "B2",
          "ticks": 39360,
          "time": 35.1387425,
          "velocity": 1
        },
        {
          "duration": 0.16605198437500235,
          "durationTicks": 186,
          "midi": 59,
          "name": "B3",
          "ticks": 39360,
          "time": 35.1387425,
          "velocity": 1
        },
        {
          "duration": 0.33746048437500065,
          "durationTicks": 378,
          "midi": 45,
          "name": "A2",
          "ticks": 39552,
          "time": 35.310151,
          "velocity": 1
        },
        {
          "duration": 0.33746048437500065,
          "durationTicks": 378,
          "midi": 57,
          "name": "A3",
          "ticks": 39552,
          "time": 35.310151,
          "velocity": 1
        },
        {
          "duration": 0.33746048437499354,
          "durationTicks": 378,
          "midi": 61,
          "name": "C#4",
          "ticks": 39936,
          "time": 35.652968,
          "velocity": 1
        },
        {
          "duration": 0.33746048437500065,
          "durationTicks": 378,
          "midi": 57,
          "name": "A3",
          "ticks": 40320,
          "time": 35.995785,
          "velocity": 1
        },
        {
          "duration": 0.33746048437499354,
          "durationTicks": 378,
          "midi": 54,
          "name": "F#3",
          "ticks": 40704,
          "time": 36.338602,
          "velocity": 1
        },
        {
          "duration": 0.33746048437500065,
          "durationTicks": 378,
          "midi": 52,
          "name": "E3",
          "ticks": 41088,
          "time": 36.681419,
          "velocity": 1
        },
        {
          "duration": 0.16605198437500235,
          "durationTicks": 186,
          "midi": 40,
          "name": "E2",
          "ticks": 42048,
          "time": 37.5384615,
          "velocity": 1
        },
        {
          "duration": 0.16605198437500235,
          "durationTicks": 186,
          "midi": 52,
          "name": "E3",
          "ticks": 42048,
          "time": 37.5384615,
          "velocity": 1
        },
        {
          "duration": 0.16605198437500235,
          "durationTicks": 186,
          "midi": 45,
          "name": "A2",
          "ticks": 42240,
          "time": 37.709869999999995,
          "velocity": 1
        },
        {
          "duration": 0.16605198437500235,
          "durationTicks": 186,
          "midi": 57,
          "name": "A3",
          "ticks": 42240,
          "time": 37.709869999999995,
          "velocity": 1
        },
        {
          "duration": 0.16605198437499524,
          "durationTicks": 186,
          "midi": 40,
          "name": "E2",
          "ticks": 42432,
          "time": 37.8812785,
          "velocity": 1
        },
        {
          "duration": 0.16605198437499524,
          "durationTicks": 186,
          "midi": 52,
          "name": "E3",
          "ticks": 42432,
          "time": 37.8812785,
          "velocity": 1
        },
        {
          "duration": 0.33567497916666866,
          "durationTicks": 376,
          "midi": 45,
          "name": "A2",
          "ticks": 42624,
          "time": 38.052687,
          "velocity": 1
        },
        {
          "duration": 0.33746048437500065,
          "durationTicks": 378,
          "midi": 57,
          "name": "A3",
          "ticks": 42624,
          "time": 38.052687,
          "velocity": 1
        },
        {
          "duration": 0.33746048437500065,
          "durationTicks": 378,
          "midi": 61,
          "name": "C#4",
          "ticks": 43008,
          "time": 38.395503999999995,
          "velocity": 1
        },
        {
          "duration": 0.33746048437500065,
          "durationTicks": 378,
          "midi": 57,
          "name": "A3",
          "ticks": 43392,
          "time": 38.738321,
          "velocity": 1
        },
        {
          "duration": 0.33746048437500065,
          "durationTicks": 378,
          "midi": 54,
          "name": "F#3",
          "ticks": 43776,
          "time": 39.081137999999996,
          "velocity": 1
        },
        {
          "duration": 0.33746048437500065,
          "durationTicks": 378,
          "midi": 52,
          "name": "E3",
          "ticks": 44160,
          "time": 39.423955,
          "velocity": 1
        },
        {
          "duration": 0.16605198437500235,
          "durationTicks": 186,
          "midi": 50,
          "name": "D3",
          "ticks": 45120,
          "time": 40.2809975,
          "velocity": 1
        },
        {
          "duration": 0.16605198437500235,
          "durationTicks": 186,
          "midi": 62,
          "name": "D4",
          "ticks": 45120,
          "time": 40.2809975,
          "velocity": 1
        },
        {
          "duration": 0.16605198437500235,
          "durationTicks": 186,
          "midi": 49,
          "name": "C#3",
          "ticks": 45312,
          "time": 40.452405999999996,
          "velocity": 1
        },
        {
          "duration": 0.16605198437500235,
          "durationTicks": 186,
          "midi": 61,
          "name": "C#4",
          "ticks": 45312,
          "time": 40.452405999999996,
          "velocity": 1
        },
        {
          "duration": 0.16605198437500235,
          "durationTicks": 186,
          "midi": 47,
          "name": "B2",
          "ticks": 45504,
          "time": 40.623814499999995,
          "velocity": 1
        },
        {
          "duration": 0.16783748958333433,
          "durationTicks": 188,
          "midi": 59,
          "name": "B3",
          "ticks": 45504,
          "time": 40.623814499999995,
          "velocity": 1
        },
        {
          "duration": 0.33746048437500065,
          "durationTicks": 378,
          "midi": 45,
          "name": "A2",
          "ticks": 45696,
          "time": 40.795223,
          "velocity": 1
        },
        {
          "duration": 0.33746048437500065,
          "durationTicks": 378,
          "midi": 57,
          "name": "A3",
          "ticks": 45696,
          "time": 40.795223,
          "velocity": 1
        },
        {
          "duration": 0.33746048437500065,
          "durationTicks": 378,
          "midi": 61,
          "name": "C#4",
          "ticks": 46080,
          "time": 41.13804,
          "velocity": 1
        },
        {
          "duration": 0.33746048437500065,
          "durationTicks": 378,
          "midi": 57,
          "name": "A3",
          "ticks": 46464,
          "time": 41.480857,
          "velocity": 1
        },
        {
          "duration": 0.33746048437500065,
          "durationTicks": 378,
          "midi": 54,
          "name": "F#3",
          "ticks": 46848,
          "time": 41.823674,
          "velocity": 1
        },
        {
          "duration": 0.33746048437500065,
          "durationTicks": 378,
          "midi": 52,
          "name": "E3",
          "ticks": 47232,
          "time": 42.166491,
          "velocity": 1
        },
        {
          "duration": 0.16605198437499524,
          "durationTicks": 186,
          "midi": 40,
          "name": "E2",
          "ticks": 48192,
          "time": 43.0235335,
          "velocity": 1
        },
        {
          "duration": 0.16605198437499524,
          "durationTicks": 186,
          "midi": 52,
          "name": "E3",
          "ticks": 48192,
          "time": 43.0235335,
          "velocity": 1
        },
        {
          "duration": 0.16605198437500235,
          "durationTicks": 186,
          "midi": 45,
          "name": "A2",
          "ticks": 48384,
          "time": 43.194942,
          "velocity": 1
        },
        {
          "duration": 0.16605198437500235,
          "durationTicks": 186,
          "midi": 57,
          "name": "A3",
          "ticks": 48384,
          "time": 43.194942,
          "velocity": 1
        },
        {
          "duration": 0.16605198437500235,
          "durationTicks": 186,
          "midi": 40,
          "name": "E2",
          "ticks": 48576,
          "time": 43.366350499999996,
          "velocity": 1
        },
        {
          "duration": 0.16605198437500235,
          "durationTicks": 186,
          "midi": 52,
          "name": "E3",
          "ticks": 48576,
          "time": 43.366350499999996,
          "velocity": 1
        },
        {
          "duration": 0.33746048437499354,
          "durationTicks": 378,
          "midi": 45,
          "name": "A2",
          "ticks": 48768,
          "time": 43.537759,
          "velocity": 1
        },
        {
          "duration": 0.33746048437499354,
          "durationTicks": 378,
          "midi": 57,
          "name": "A3",
          "ticks": 48768,
          "time": 43.537759,
          "velocity": 1
        },
        {
          "duration": 0.6802774843749972,
          "durationTicks": 762,
          "midi": 57,
          "name": "A3",
          "ticks": 49152,
          "time": 43.880576,
          "velocity": 1
        },
        {
          "duration": 0.16605198437500235,
          "durationTicks": 186,
          "midi": 59,
          "name": "B3",
          "ticks": 49920,
          "time": 44.56621,
          "velocity": 1
        },
        {
          "duration": 0.16605198437500235,
          "durationTicks": 186,
          "midi": 62,
          "name": "D4",
          "ticks": 50112,
          "time": 44.737618499999996,
          "velocity": 1
        },
        {
          "duration": 0.16605198437500235,
          "durationTicks": 186,
          "midi": 61,
          "name": "C#4",
          "ticks": 50304,
          "time": 44.909026999999995,
          "velocity": 1
        },
        {
          "duration": 0.16605198437499524,
          "durationTicks": 186,
          "midi": 59,
          "name": "B3",
          "ticks": 50496,
          "time": 45.0804355,
          "velocity": 1
        },
        {
          "duration": 0.33746048437500065,
          "durationTicks": 378,
          "midi": 64,
          "name": "E4",
          "ticks": 50688,
          "time": 45.251844,
          "velocity": 1
        },
        {
          "duration": 0.33746048437500065,
          "durationTicks": 378,
          "midi": 64,
          "name": "E4",
          "ticks": 51072,
          "time": 45.594660999999995,
          "velocity": 1
        },
        {
          "duration": 0.16605198437500235,
          "durationTicks": 186,
          "midi": 64,
          "name": "E4",
          "ticks": 51456,
          "time": 45.937478,
          "velocity": 1
        },
        {
          "duration": 0.16605198437500235,
          "durationTicks": 186,
          "midi": 66,
          "name": "F#4",
          "ticks": 51648,
          "time": 46.1088865,
          "velocity": 1
        },
        {
          "duration": 0.16605198437500235,
          "durationTicks": 186,
          "midi": 61,
          "name": "C#4",
          "ticks": 51840,
          "time": 46.280294999999995,
          "velocity": 1
        },
        {
          "duration": 0.16605198437499524,
          "durationTicks": 186,
          "midi": 62,
          "name": "D4",
          "ticks": 52032,
          "time": 46.4517035,
          "velocity": 1
        },
        {
          "duration": 0.33746048437500065,
          "durationTicks": 378,
          "midi": 59,
          "name": "B3",
          "ticks": 52224,
          "time": 46.623112,
          "velocity": 1
        },
        {
          "duration": 0.33746048437500065,
          "durationTicks": 378,
          "midi": 59,
          "name": "B3",
          "ticks": 52608,
          "time": 46.965928999999996,
          "velocity": 1
        },
        {
          "duration": 0.16605198437499524,
          "durationTicks": 186,
          "midi": 59,
          "name": "B3",
          "ticks": 52992,
          "time": 47.308746,
          "velocity": 1
        },
        {
          "duration": 0.16605198437500235,
          "durationTicks": 186,
          "midi": 62,
          "name": "D4",
          "ticks": 53184,
          "time": 47.4801545,
          "velocity": 1
        },
        {
          "duration": 0.16605198437500235,
          "durationTicks": 186,
          "midi": 61,
          "name": "C#4",
          "ticks": 53376,
          "time": 47.651562999999996,
          "velocity": 1
        },
        {
          "duration": 0.16605198437500235,
          "durationTicks": 186,
          "midi": 59,
          "name": "B3",
          "ticks": 53568,
          "time": 47.822971499999994,
          "velocity": 1
        },
        {
          "duration": 0.16605198437499524,
          "durationTicks": 186,
          "midi": 57,
          "name": "A3",
          "ticks": 53760,
          "time": 47.99438,
          "velocity": 1
        },
        {
          "duration": 0.16605198437500235,
          "durationTicks": 186,
          "midi": 69,
          "name": "A4",
          "ticks": 53952,
          "time": 48.1657885,
          "velocity": 1
        },
        {
          "duration": 0.16605198437500235,
          "durationTicks": 186,
          "midi": 68,
          "name": "G#4",
          "ticks": 54144,
          "time": 48.337196999999996,
          "velocity": 1
        },
        {
          "duration": 0.16605198437500235,
          "durationTicks": 186,
          "midi": 66,
          "name": "F#4",
          "ticks": 54336,
          "time": 48.508605499999994,
          "velocity": 1
        },
        {
          "duration": 0.16605198437499524,
          "durationTicks": 186,
          "midi": 64,
          "name": "E4",
          "ticks": 54528,
          "time": 48.680014,
          "velocity": 1
        },
        {
          "duration": 0.16605198437500235,
          "durationTicks": 186,
          "midi": 62,
          "name": "D4",
          "ticks": 54720,
          "time": 48.8514225,
          "velocity": 1
        },
        {
          "duration": 0.16605198437500235,
          "durationTicks": 186,
          "midi": 61,
          "name": "C#4",
          "ticks": 54912,
          "time": 49.022831,
          "velocity": 1
        },
        {
          "duration": 0.16605198437500235,
          "durationTicks": 186,
          "midi": 59,
          "name": "B3",
          "ticks": 55104,
          "time": 49.194239499999995,
          "velocity": 1
        },
        {
          "duration": 0.33746048437500065,
          "durationTicks": 378,
          "midi": 45,
          "name": "A2",
          "ticks": 55296,
          "time": 49.365648,
          "velocity": 1
        },
        {
          "duration": 0.33746048437500065,
          "durationTicks": 378,
          "midi": 52,
          "name": "E3",
          "ticks": 55680,
          "time": 49.708465,
          "velocity": 1
        },
        {
          "duration": 0.6802774843749972,
          "durationTicks": 762,
          "midi": 45,
          "name": "A2",
          "ticks": 56064,
          "time": 50.051282,
          "velocity": 1
        },
        {
          "duration": 0.33746048437499354,
          "durationTicks": 378,
          "midi": 52,
          "name": "E3",
          "ticks": 56832,
          "time": 50.736916,
          "velocity": 1
        },
        {
          "duration": 0.33746048437500065,
          "durationTicks": 378,
          "midi": 47,
          "name": "B2",
          "ticks": 57216,
          "time": 51.079733,
          "velocity": 1
        },
        {
          "duration": 0.6802774843750043,
          "durationTicks": 762,
          "midi": 52,
          "name": "E3",
          "ticks": 57600,
          "time": 51.422549999999994,
          "velocity": 1
        },
        {
          "duration": 0.33746048437500065,
          "durationTicks": 378,
          "midi": 47,
          "name": "B2",
          "ticks": 58368,
          "time": 52.108183999999994,
          "velocity": 1
        },
        {
          "duration": 0.33746048437500065,
          "durationTicks": 378,
          "midi": 42,
          "name": "F#2",
          "ticks": 58752,
          "time": 52.451001,
          "velocity": 1
        },
        {
          "duration": 0.6802774843750043,
          "durationTicks": 762,
          "midi": 47,
          "name": "B2",
          "ticks": 59136,
          "time": 52.793817999999995,
          "velocity": 1
        }
      ],
      "endOfTrackTicks": 59904
    },
    {
      "channel": 2,
      "controlChanges": {
        "7": [
          {
            "number": 7,
            "ticks": 0,
            "time": 0,
            "value": 0.7874015748031497
          }
        ],
        "10": [
          {
            "number": 10,
            "ticks": 0,
            "time": 0,
            "value": 0.5039370078740157
          }
        ],
        "91": [
          {
            "number": 91,
            "ticks": 0,
            "time": 0,
            "value": 0.6299212598425197
          }
        ],
        "93": [
          {
            "number": 93,
            "ticks": 0,
            "time": 0,
            "value": 0
          }
        ]
      },
      "pitchBends": [
        {
          "ticks": 0,
          "time": 0,
          "value": 0
        }
      ],
      "instrument": {
        "family": "brass",
        "number": 60,
        "name": "french horn"
      },
      "name": "",
      "notes": [
        {
          "duration": 0.337460484375,
          "durationTicks": 378,
          "midi": 61,
          "name": "C#4",
          "ticks": 8,
          "time": 0.007142020833333333,
          "velocity": 0.9763779527559056
        },
        {
          "duration": 0.33746048437500004,
          "durationTicks": 378,
          "midi": 57,
          "name": "A3",
          "ticks": 384,
          "time": 0.342817,
          "velocity": 0.9763779527559056
        },
        {
          "duration": 0.3374604843750001,
          "durationTicks": 378,
          "midi": 54,
          "name": "F#3",
          "ticks": 768,
          "time": 0.685634,
          "velocity": 0.9763779527559056
        },
        {
          "duration": 0.337460484375,
          "durationTicks": 378,
          "midi": 52,
          "name": "E3",
          "ticks": 1152,
          "time": 1.028451,
          "velocity": 0.9763779527559056
        },
        {
          "duration": 0.1660519843749999,
          "durationTicks": 186,
          "midi": 52,
          "name": "E3",
          "ticks": 1536,
          "time": 1.371268,
          "velocity": 0.9763779527559056
        },
        {
          "duration": 0.1660519843749999,
          "durationTicks": 186,
          "midi": 64,
          "name": "E4",
          "ticks": 1536,
          "time": 1.371268,
          "velocity": 0.9763779527559056
        },
        {
          "duration": 0.1660519843749999,
          "durationTicks": 186,
          "midi": 56,
          "name": "G#3",
          "ticks": 1728,
          "time": 1.5426765,
          "velocity": 0.9763779527559056
        },
        {
          "duration": 0.1660519843749999,
          "durationTicks": 186,
          "midi": 68,
          "name": "G#4",
          "ticks": 1728,
          "time": 1.5426765,
          "velocity": 0.9763779527559056
        },
        {
          "duration": 0.16605198437500013,
          "durationTicks": 186,
          "midi": 59,
          "name": "B3",
          "ticks": 1920,
          "time": 1.7140849999999999,
          "velocity": 0.9763779527559056
        },
        {
          "duration": 0.16605198437500013,
          "durationTicks": 186,
          "midi": 71,
          "name": "B4",
          "ticks": 1920,
          "time": 1.7140849999999999,
          "velocity": 0.9763779527559056
        },
        {
          "duration": 0.3374604843750002,
          "durationTicks": 378,
          "midi": 61,
          "name": "C#4",
          "ticks": 3072,
          "time": 2.742536,
          "velocity": 0.9763779527559056
        },
        {
          "duration": 0.33746048437499976,
          "durationTicks": 378,
          "midi": 57,
          "name": "A3",
          "ticks": 3456,
          "time": 3.085353,
          "velocity": 0.9763779527559056
        },
        {
          "duration": 0.3374604843750002,
          "durationTicks": 378,
          "midi": 54,
          "name": "F#3",
          "ticks": 3840,
          "time": 3.4281699999999997,
          "velocity": 0.9763779527559056
        },
        {
          "duration": 0.33746048437499976,
          "durationTicks": 378,
          "midi": 52,
          "name": "E3",
          "ticks": 4224,
          "time": 3.770987,
          "velocity": 0.9763779527559056
        },
        {
          "duration": 0.16605198437499968,
          "durationTicks": 186,
          "midi": 52,
          "name": "E3",
          "ticks": 4608,
          "time": 4.113804,
          "velocity": 0.9763779527559056
        },
        {
          "duration": 0.16605198437499968,
          "durationTicks": 186,
          "midi": 64,
          "name": "E4",
          "ticks": 4608,
          "time": 4.113804,
          "velocity": 0.9763779527559056
        },
        {
          "duration": 0.16605198437499968,
          "durationTicks": 186,
          "midi": 56,
          "name": "G#3",
          "ticks": 4800,
          "time": 4.2852125,
          "velocity": 0.9763779527559056
        },
        {
          "duration": 0.16605198437499968,
          "durationTicks": 186,
          "midi": 68,
          "name": "G#4",
          "ticks": 4800,
          "time": 4.2852125,
          "velocity": 0.9763779527559056
        },
        {
          "duration": 0.16605198437499968,
          "durationTicks": 186,
          "midi": 59,
          "name": "B3",
          "ticks": 4992,
          "time": 4.456621,
          "velocity": 0.9763779527559056
        },
        {
          "duration": 0.16605198437499968,
          "durationTicks": 186,
          "midi": 71,
          "name": "B4",
          "ticks": 4992,
          "time": 4.456621,
          "velocity": 0.9763779527559056
        },
        {
          "duration": 1.3659114843750002,
          "durationTicks": 1530,
          "midi": 49,
          "name": "C#3",
          "ticks": 6144,
          "time": 5.485072,
          "velocity": 0.9763779527559056
        },
        {
          "duration": 0.33746048437499976,
          "durationTicks": 378,
          "midi": 61,
          "name": "C#4",
          "ticks": 6144,
          "time": 5.485072,
          "velocity": 0.9763779527559056
        },
        {
          "duration": 0.33210396874999937,
          "durationTicks": 372,
          "midi": 73,
          "name": "C#5",
          "ticks": 6164,
          "time": 5.502927052083333,
          "velocity": 0.84251968503937
        },
        {
          "duration": 0.33746048437499976,
          "durationTicks": 378,
          "midi": 57,
          "name": "A3",
          "ticks": 6528,
          "time": 5.827889,
          "velocity": 0.9763779527559056
        },
        {
          "duration": 0.37317058854166607,
          "durationTicks": 418,
          "midi": 69,
          "name": "A4",
          "ticks": 6532,
          "time": 5.8314600104166665,
          "velocity": 0.8346456692913385
        },
        {
          "duration": 0.33746048437499976,
          "durationTicks": 378,
          "midi": 54,
          "name": "F#3",
          "ticks": 6912,
          "time": 6.170706,
          "velocity": 0.9763779527559056
        },
        {
          "duration": 0.3660285677083337,
          "durationTicks": 410,
          "midi": 66,
          "name": "F#4",
          "ticks": 6914,
          "time": 6.172491505208333,
          "velocity": 0.8661417322834646
        },
        {
          "duration": 0.33746048437500065,
          "durationTicks": 378,
          "midi": 52,
          "name": "E3",
          "ticks": 7296,
          "time": 6.513522999999999,
          "velocity": 0.9763779527559056
        },
        {
          "duration": 0.29282285416666554,
          "durationTicks": 328,
          "midi": 64,
          "name": "E4",
          "ticks": 7312,
          "time": 6.527807041666667,
          "velocity": 0.8661417322834646
        },
        {
          "duration": 0.6802774843749999,
          "durationTicks": 762,
          "midi": 47,
          "name": "B2",
          "ticks": 7680,
          "time": 6.856339999999999,
          "velocity": 0.9763779527559056
        },
        {
          "duration": 0.16605198437500057,
          "durationTicks": 186,
          "midi": 52,
          "name": "E3",
          "ticks": 7680,
          "time": 6.856339999999999,
          "velocity": 0.9763779527559056
        },
        {
          "duration": 0.16605198437500057,
          "durationTicks": 186,
          "midi": 64,
          "name": "E4",
          "ticks": 7680,
          "time": 6.856339999999999,
          "velocity": 0.9763779527559056
        },
        {
          "duration": 0.16605198437500057,
          "durationTicks": 186,
          "midi": 56,
          "name": "G#3",
          "ticks": 7872,
          "time": 7.0277484999999995,
          "velocity": 0.9763779527559056
        },
        {
          "duration": 0.16605198437500057,
          "durationTicks": 186,
          "midi": 68,
          "name": "G#4",
          "ticks": 7872,
          "time": 7.0277484999999995,
          "velocity": 0.9763779527559056
        },
        {
          "duration": 0.16605198437499968,
          "durationTicks": 186,
          "midi": 59,
          "name": "B3",
          "ticks": 8064,
          "time": 7.199157,
          "velocity": 0.9763779527559056
        },
        {
          "duration": 0.16605198437499968,
          "durationTicks": 186,
          "midi": 71,
          "name": "B4",
          "ticks": 8064,
          "time": 7.199157,
          "velocity": 0.9763779527559056
        },
        {
          "duration": 0.680277484374999,
          "durationTicks": 762,
          "midi": 49,
          "name": "C#3",
          "ticks": 8448,
          "time": 7.541974,
          "velocity": 0.9763779527559056
        },
        {
          "duration": 1.3659114843749993,
          "durationTicks": 1530,
          "midi": 49,
          "name": "C#3",
          "ticks": 9216,
          "time": 8.227608,
          "velocity": 0.9763779527559056
        },
        {
          "duration": 0.33746048437499887,
          "durationTicks": 378,
          "midi": 61,
          "name": "C#4",
          "ticks": 9216,
          "time": 8.227608,
          "velocity": 0.9763779527559056
        },
        {
          "duration": 0.31781992708333284,
          "durationTicks": 356,
          "midi": 73,
          "name": "C#5",
          "ticks": 9244,
          "time": 8.252605072916667,
          "velocity": 0.8661417322834646
        },
        {
          "duration": 0.33746048437499887,
          "durationTicks": 378,
          "midi": 57,
          "name": "A3",
          "ticks": 9600,
          "time": 8.570425,
          "velocity": 0.9763779527559056
        },
        {
          "duration": 0.33924598958333263,
          "durationTicks": 380,
          "midi": 69,
          "name": "A4",
          "ticks": 9624,
          "time": 8.5918510625,
          "velocity": 0.8346456692913385
        },
        {
          "duration": 0.33746048437499887,
          "durationTicks": 378,
          "midi": 54,
          "name": "F#3",
          "ticks": 9984,
          "time": 8.913242,
          "velocity": 0.9763779527559056
        },
        {
          "duration": 0.34103149479166817,
          "durationTicks": 382,
          "midi": 66,
          "name": "F#4",
          "ticks": 10016,
          "time": 8.941810083333332,
          "velocity": 0.8503937007874016
        },
        {
          "duration": 0.33746048437500065,
          "durationTicks": 378,
          "midi": 52,
          "name": "E3",
          "ticks": 10368,
          "time": 9.256058999999999,
          "velocity": 0.9763779527559056
        },
        {
          "duration": 0.3196054322916666,
          "durationTicks": 358,
          "midi": 64,
          "name": "E4",
          "ticks": 10398,
          "time": 9.282841578125,
          "velocity": 0.8661417322834646
        },
        {
          "duration": 0.6802774843750008,
          "durationTicks": 762,
          "midi": 47,
          "name": "B2",
          "ticks": 10752,
          "time": 9.598875999999999,
          "velocity": 0.9763779527559056
        },
        {
          "duration": 0.16605198437500057,
          "durationTicks": 186,
          "midi": 52,
          "name": "E3",
          "ticks": 10752,
          "time": 9.598875999999999,
          "velocity": 0.9763779527559056
        },
        {
          "duration": 0.16605198437500057,
          "durationTicks": 186,
          "midi": 64,
          "name": "E4",
          "ticks": 10752,
          "time": 9.598875999999999,
          "velocity": 0.9763779527559056
        },
        {
          "duration": 0.16605198437500057,
          "durationTicks": 186,
          "midi": 56,
          "name": "G#3",
          "ticks": 10944,
          "time": 9.770284499999999,
          "velocity": 0.9763779527559056
        },
        {
          "duration": 0.16605198437500057,
          "durationTicks": 186,
          "midi": 68,
          "name": "G#4",
          "ticks": 10944,
          "time": 9.770284499999999,
          "velocity": 0.9763779527559056
        },
        {
          "duration": 0.16605198437500057,
          "durationTicks": 186,
          "midi": 59,
          "name": "B3",
          "ticks": 11136,
          "time": 9.941692999999999,
          "velocity": 0.9763779527559056
        },
        {
          "duration": 0.16605198437500057,
          "durationTicks": 186,
          "midi": 71,
          "name": "B4",
          "ticks": 11136,
          "time": 9.941692999999999,
          "velocity": 0.9763779527559056
        },
        {
          "duration": 0.6802774843750008,
          "durationTicks": 762,
          "midi": 45,
          "name": "A2",
          "ticks": 11520,
          "time": 10.28451,
          "velocity": 0.9763779527559056
        },
        {
          "duration": 0.33746048437500065,
          "durationTicks": 378,
          "midi": 45,
          "name": "A2",
          "ticks": 12288,
          "time": 10.970144,
          "velocity": 0.9763779527559056
        },
        {
          "duration": 0.33746048437500065,
          "durationTicks": 378,
          "midi": 52,
          "name": "E3",
          "ticks": 12672,
          "time": 11.312961,
          "velocity": 0.9763779527559056
        },
        {
          "duration": 0.680277484374999,
          "durationTicks": 762,
          "midi": 45,
          "name": "A2",
          "ticks": 13056,
          "time": 11.655778,
          "velocity": 0.9763779527559056
        },
        {
          "duration": 0.33746048437499887,
          "durationTicks": 378,
          "midi": 52,
          "name": "E3",
          "ticks": 13824,
          "time": 12.341412,
          "velocity": 0.9763779527559056
        },
        {
          "duration": 0.33746048437499887,
          "durationTicks": 378,
          "midi": 47,
          "name": "B2",
          "ticks": 14208,
          "time": 12.684229,
          "velocity": 0.9763779527559056
        },
        {
          "duration": 0.6802774843750008,
          "durationTicks": 762,
          "midi": 52,
          "name": "E3",
          "ticks": 14592,
          "time": 13.027045999999999,
          "velocity": 0.9763779527559056
        },
        {
          "duration": 0.33746048437500065,
          "durationTicks": 378,
          "midi": 47,
          "name": "B2",
          "ticks": 15360,
          "time": 13.712679999999999,
          "velocity": 0.9763779527559056
        },
        {
          "duration": 0.33746048437500065,
          "durationTicks": 378,
          "midi": 42,
          "name": "F#2",
          "ticks": 15744,
          "time": 14.055496999999999,
          "velocity": 0.9763779527559056
        },
        {
          "duration": 0.6802774843750008,
          "durationTicks": 762,
          "midi": 47,
          "name": "B2",
          "ticks": 16128,
          "time": 14.398314,
          "velocity": 0.9763779527559056
        },
        {
          "duration": 1.365911484375001,
          "durationTicks": 1530,
          "midi": 45,
          "name": "A2",
          "ticks": 16896,
          "time": 15.083948,
          "velocity": 0.9763779527559056
        },
        {
          "duration": 0.6802774843750008,
          "durationTicks": 762,
          "midi": 57,
          "name": "A3",
          "ticks": 18432,
          "time": 16.455216,
          "velocity": 0.9763779527559056
        },
        {
          "duration": 0.1660519843749988,
          "durationTicks": 186,
          "midi": 59,
          "name": "B3",
          "ticks": 19200,
          "time": 17.14085,
          "velocity": 0.9763779527559056
        },
        {
          "duration": 0.1660519843749988,
          "durationTicks": 186,
          "midi": 62,
          "name": "D4",
          "ticks": 19392,
          "time": 17.3122585,
          "velocity": 0.9763779527559056
        },
        {
          "duration": 0.1660519843749988,
          "durationTicks": 186,
          "midi": 61,
          "name": "C#4",
          "ticks": 19584,
          "time": 17.483667,
          "velocity": 0.9763779527559056
        },
        {
          "duration": 0.1660519843749988,
          "durationTicks": 186,
          "midi": 59,
          "name": "B3",
          "ticks": 19776,
          "time": 17.6550755,
          "velocity": 0.9763779527559056
        },
        {
          "duration": 0.3374604843749971,
          "durationTicks": 378,
          "midi": 64,
          "name": "E4",
          "ticks": 19968,
          "time": 17.826484,
          "velocity": 0.9763779527559056
        },
        {
          "duration": 0.3374604843749971,
          "durationTicks": 378,
          "midi": 64,
          "name": "E4",
          "ticks": 20352,
          "time": 18.169301,
          "velocity": 0.9763779527559056
        },
        {
          "duration": 0.16605198437500235,
          "durationTicks": 186,
          "midi": 64,
          "name": "E4",
          "ticks": 20736,
          "time": 18.512117999999997,
          "velocity": 0.9763779527559056
        },
        {
          "duration": 0.1660519843749988,
          "durationTicks": 186,
          "midi": 66,
          "name": "F#4",
          "ticks": 20928,
          "time": 18.6835265,
          "velocity": 0.9763779527559056
        },
        {
          "duration": 0.16605198437500235,
          "durationTicks": 186,
          "midi": 61,
          "name": "C#4",
          "ticks": 21120,
          "time": 18.854934999999998,
          "velocity": 0.9763779527559056
        },
        {
          "duration": 0.1660519843749988,
          "durationTicks": 186,
          "midi": 62,
          "name": "D4",
          "ticks": 21312,
          "time": 19.0263435,
          "velocity": 0.9763779527559056
        },
        {
          "duration": 0.33746048437500065,
          "durationTicks": 378,
          "midi": 59,
          "name": "B3",
          "ticks": 21504,
          "time": 19.197751999999998,
          "velocity": 0.9763779527559056
        },
        {
          "duration": 0.33746048437500065,
          "durationTicks": 378,
          "midi": 59,
          "name": "B3",
          "ticks": 21888,
          "time": 19.540568999999998,
          "velocity": 0.9763779527559056
        },
        {
          "duration": 0.16605198437500235,
          "durationTicks": 186,
          "midi": 59,
          "name": "B3",
          "ticks": 22272,
          "time": 19.883385999999998,
          "velocity": 0.9763779527559056
        },
        {
          "duration": 0.1660519843749988,
          "durationTicks": 186,
          "midi": 62,
          "name": "D4",
          "ticks": 22464,
          "time": 20.0547945,
          "velocity": 0.9763779527559056
        },
        {
          "duration": 0.16605198437500235,
          "durationTicks": 186,
          "midi": 61,
          "name": "C#4",
          "ticks": 22656,
          "time": 20.226202999999998,
          "velocity": 0.9763779527559056
        },
        {
          "duration": 0.1660519843749988,
          "durationTicks": 186,
          "midi": 59,
          "name": "B3",
          "ticks": 22848,
          "time": 20.3976115,
          "velocity": 0.9763779527559056
        },
        {
          "duration": 0.16605198437500235,
          "durationTicks": 186,
          "midi": 57,
          "name": "A3",
          "ticks": 23040,
          "time": 20.56902,
          "velocity": 0.9763779527559056
        },
        {
          "duration": 0.1660519843749988,
          "durationTicks": 186,
          "midi": 64,
          "name": "E4",
          "ticks": 23232,
          "time": 20.7404285,
          "velocity": 0.9763779527559056
        },
        {
          "duration": 0.1660519843749988,
          "durationTicks": 186,
          "midi": 59,
          "name": "B3",
          "ticks": 23424,
          "time": 20.911837,
          "velocity": 0.9763779527559056
        },
        {
          "duration": 0.1660519843749988,
          "durationTicks": 186,
          "midi": 61,
          "name": "C#4",
          "ticks": 23616,
          "time": 21.0832455,
          "velocity": 0.9763779527559056
        },
        {
          "duration": 0.6802774843750008,
          "durationTicks": 762,
          "midi": 57,
          "name": "A3",
          "ticks": 23808,
          "time": 21.254654,
          "velocity": 0.9763779527559056
        },
        {
          "duration": 0.6802774843750008,
          "durationTicks": 762,
          "midi": 59,
          "name": "B3",
          "ticks": 24576,
          "time": 21.940288,
          "velocity": 0.9763779527559056
        },
        {
          "duration": 0.1660519843749988,
          "durationTicks": 186,
          "midi": 59,
          "name": "B3",
          "ticks": 25344,
          "time": 22.625922,
          "velocity": 0.9763779527559056
        },
        {
          "duration": 0.16605198437500235,
          "durationTicks": 186,
          "midi": 57,
          "name": "A3",
          "ticks": 25536,
          "time": 22.797330499999997,
          "velocity": 0.9763779527559056
        },
        {
          "duration": 0.33746048437500065,
          "durationTicks": 378,
          "midi": 57,
          "name": "A3",
          "ticks": 25728,
          "time": 22.968739,
          "velocity": 0.9763779527559056
        },
        {
          "duration": 0.1660519843749988,
          "durationTicks": 186,
          "midi": 66,
          "name": "F#4",
          "ticks": 27648,
          "time": 24.682824,
          "velocity": 0.9763779527559056
        },
        {
          "duration": 0.1660519843749988,
          "durationTicks": 186,
          "midi": 59,
          "name": "B3",
          "ticks": 27840,
          "time": 24.8542325,
          "velocity": 0.9763779527559056
        },
        {
          "duration": 0.1660519843749988,
          "durationTicks": 186,
          "midi": 59,
          "name": "B3",
          "ticks": 28032,
          "time": 25.025641,
          "velocity": 0.9763779527559056
        },
        {
          "duration": 0.1660519843749988,
          "durationTicks": 186,
          "midi": 66,
          "name": "F#4",
          "ticks": 28224,
          "time": 25.1970495,
          "velocity": 0.9763779527559056
        },
        {
          "duration": 0.1660519843749988,
          "durationTicks": 186,
          "midi": 64,
          "name": "E4",
          "ticks": 28416,
          "time": 25.368458,
          "velocity": 0.9763779527559056
        },
        {
          "duration": 0.1660519843749988,
          "durationTicks": 186,
          "midi": 57,
          "name": "A3",
          "ticks": 28608,
          "time": 25.5398665,
          "velocity": 0.9763779527559056
        },
        {
          "duration": 0.33746048437500065,
          "durationTicks": 378,
          "midi": 57,
          "name": "A3",
          "ticks": 28800,
          "time": 25.711274999999997,
          "velocity": 0.9763779527559056
        },
        {
          "duration": 0.6802774843750008,
          "durationTicks": 762,
          "midi": 49,
          "name": "C#3",
          "ticks": 29184,
          "time": 26.054091999999997,
          "velocity": 0.9763779527559056
        },
        {
          "duration": 0.6802774843750008,
          "durationTicks": 762,
          "midi": 47,
          "name": "B2",
          "ticks": 29952,
          "time": 26.739725999999997,
          "velocity": 0.9763779527559056
        },
        {
          "duration": 1.3659114843749975,
          "durationTicks": 1530,
          "midi": 49,
          "name": "C#3",
          "ticks": 36864,
          "time": 32.910432,
          "velocity": 0.9763779527559056
        },
        {
          "duration": 0.33746048437500065,
          "durationTicks": 378,
          "midi": 61,
          "name": "C#4",
          "ticks": 36864,
          "time": 32.910432,
          "velocity": 0.9763779527559056
        },
        {
          "duration": 0.33746048437500065,
          "durationTicks": 378,
          "midi": 57,
          "name": "A3",
          "ticks": 37248,
          "time": 33.253249,
          "velocity": 0.9763779527559056
        },
        {
          "duration": 0.33746048437500065,
          "durationTicks": 378,
          "midi": 54,
          "name": "F#3",
          "ticks": 37632,
          "time": 33.596066,
          "velocity": 0.9763779527559056
        },
        {
          "duration": 0.33746048437500065,
          "durationTicks": 378,
          "midi": 52,
          "name": "E3",
          "ticks": 38016,
          "time": 33.938883,
          "velocity": 0.9763779527559056
        },
        {
          "duration": 0.6802774843749972,
          "durationTicks": 762,
          "midi": 47,
          "name": "B2",
          "ticks": 38400,
          "time": 34.2817,
          "velocity": 0.9763779527559056
        },
        {
          "duration": 0.16605198437499524,
          "durationTicks": 186,
          "midi": 52,
          "name": "E3",
          "ticks": 38400,
          "time": 34.2817,
          "velocity": 0.9763779527559056
        },
        {
          "duration": 0.16605198437499524,
          "durationTicks": 186,
          "midi": 64,
          "name": "E4",
          "ticks": 38400,
          "time": 34.2817,
          "velocity": 0.9763779527559056
        },
        {
          "duration": 0.16605198437500235,
          "durationTicks": 186,
          "midi": 56,
          "name": "G#3",
          "ticks": 38592,
          "time": 34.4531085,
          "velocity": 0.9763779527559056
        },
        {
          "duration": 0.16605198437500235,
          "durationTicks": 186,
          "midi": 68,
          "name": "G#4",
          "ticks": 38592,
          "time": 34.4531085,
          "velocity": 0.9763779527559056
        },
        {
          "duration": 0.16605198437500235,
          "durationTicks": 186,
          "midi": 59,
          "name": "B3",
          "ticks": 38784,
          "time": 34.624517,
          "velocity": 0.9763779527559056
        },
        {
          "duration": 0.16605198437500235,
          "durationTicks": 186,
          "midi": 71,
          "name": "B4",
          "ticks": 38784,
          "time": 34.624517,
          "velocity": 0.9763779527559056
        },
        {
          "duration": 0.6802774843749972,
          "durationTicks": 762,
          "midi": 49,
          "name": "C#3",
          "ticks": 39168,
          "time": 34.967334,
          "velocity": 0.9763779527559056
        },
        {
          "duration": 1.3659114843749975,
          "durationTicks": 1530,
          "midi": 49,
          "name": "C#3",
          "ticks": 39936,
          "time": 35.652968,
          "velocity": 0.9763779527559056
        },
        {
          "duration": 0.33746048437499354,
          "durationTicks": 378,
          "midi": 61,
          "name": "C#4",
          "ticks": 39936,
          "time": 35.652968,
          "velocity": 0.9763779527559056
        },
        {
          "duration": 0.33746048437500065,
          "durationTicks": 378,
          "midi": 57,
          "name": "A3",
          "ticks": 40320,
          "time": 35.995785,
          "velocity": 0.9763779527559056
        },
        {
          "duration": 0.33746048437499354,
          "durationTicks": 378,
          "midi": 54,
          "name": "F#3",
          "ticks": 40704,
          "time": 36.338602,
          "velocity": 0.9763779527559056
        },
        {
          "duration": 0.33746048437500065,
          "durationTicks": 378,
          "midi": 52,
          "name": "E3",
          "ticks": 41088,
          "time": 36.681419,
          "velocity": 0.9763779527559056
        },
        {
          "duration": 0.6802774843750043,
          "durationTicks": 762,
          "midi": 47,
          "name": "B2",
          "ticks": 41472,
          "time": 37.024235999999995,
          "velocity": 0.9763779527559056
        },
        {
          "duration": 0.16605198437500235,
          "durationTicks": 186,
          "midi": 52,
          "name": "E3",
          "ticks": 41472,
          "time": 37.024235999999995,
          "velocity": 0.9763779527559056
        },
        {
          "duration": 0.16605198437500235,
          "durationTicks": 186,
          "midi": 64,
          "name": "E4",
          "ticks": 41472,
          "time": 37.024235999999995,
          "velocity": 0.9763779527559056
        },
        {
          "duration": 0.16605198437499524,
          "durationTicks": 186,
          "midi": 56,
          "name": "G#3",
          "ticks": 41664,
          "time": 37.1956445,
          "velocity": 0.9763779527559056
        },
        {
          "duration": 0.16605198437499524,
          "durationTicks": 186,
          "midi": 68,
          "name": "G#4",
          "ticks": 41664,
          "time": 37.1956445,
          "velocity": 0.9763779527559056
        },
        {
          "duration": 0.16605198437500235,
          "durationTicks": 186,
          "midi": 59,
          "name": "B3",
          "ticks": 41856,
          "time": 37.367053,
          "velocity": 0.9763779527559056
        },
        {
          "duration": 0.16605198437500235,
          "durationTicks": 186,
          "midi": 71,
          "name": "B4",
          "ticks": 41856,
          "time": 37.367053,
          "velocity": 0.9763779527559056
        },
        {
          "duration": 0.6802774843750043,
          "durationTicks": 762,
          "midi": 45,
          "name": "A2",
          "ticks": 42240,
          "time": 37.709869999999995,
          "velocity": 0.9763779527559056
        },
        {
          "duration": 1.3659114843750046,
          "durationTicks": 1530,
          "midi": 49,
          "name": "C#3",
          "ticks": 43008,
          "time": 38.395503999999995,
          "velocity": 0.9763779527559056
        },
        {
          "duration": 0.33746048437500065,
          "durationTicks": 378,
          "midi": 61,
          "name": "C#4",
          "ticks": 43008,
          "time": 38.395503999999995,
          "velocity": 0.9763779527559056
        },
        {
          "duration": 0.3303184635416656,
          "durationTicks": 370,
          "midi": 73,
          "name": "C#5",
          "ticks": 43042,
          "time": 38.42585758854167,
          "velocity": 0.8661417322834646
        },
        {
          "duration": 0.33746048437500065,
          "durationTicks": 378,
          "midi": 57,
          "name": "A3",
          "ticks": 43392,
          "time": 38.738321,
          "velocity": 0.9763779527559056
        },
        {
          "duration": 0.3088924010416676,
          "durationTicks": 346,
          "midi": 69,
          "name": "A4",
          "ticks": 43414,
          "time": 38.757961557291665,
          "velocity": 0.84251968503937
        },
        {
          "duration": 0.3571010416666667,
          "durationTicks": 400,
          "midi": 66,
          "name": "F#4",
          "ticks": 43764,
          "time": 39.07042496875,
          "velocity": 0.8582677165354331
        },
        {
          "duration": 0.33746048437500065,
          "durationTicks": 378,
          "midi": 54,
          "name": "F#3",
          "ticks": 43776,
          "time": 39.081137999999996,
          "velocity": 0.9763779527559056
        },
        {
          "duration": 0.3285329583333336,
          "durationTicks": 368,
          "midi": 64,
          "name": "E4",
          "ticks": 44152,
          "time": 39.416812979166664,
          "velocity": 0.84251968503937
        },
        {
          "duration": 0.33746048437500065,
          "durationTicks": 378,
          "midi": 52,
          "name": "E3",
          "ticks": 44160,
          "time": 39.423955,
          "velocity": 0.9763779527559056
        },
        {
          "duration": 0.6802774843750043,
          "durationTicks": 762,
          "midi": 47,
          "name": "B2",
          "ticks": 44544,
          "time": 39.766771999999996,
          "velocity": 0.9763779527559056
        },
        {
          "duration": 0.16605198437500235,
          "durationTicks": 186,
          "midi": 52,
          "name": "E3",
          "ticks": 44544,
          "time": 39.766771999999996,
          "velocity": 0.9763779527559056
        },
        {
          "duration": 0.18926355208333234,
          "durationTicks": 212,
          "midi": 64,
          "name": "E4",
          "ticks": 44544,
          "time": 39.766771999999996,
          "velocity": 0.9763779527559056
        },
        {
          "duration": 0.16605198437499524,
          "durationTicks": 186,
          "midi": 56,
          "name": "G#3",
          "ticks": 44736,
          "time": 39.9381805,
          "velocity": 0.9763779527559056
        },
        {
          "duration": 0.16605198437499524,
          "durationTicks": 186,
          "midi": 68,
          "name": "G#4",
          "ticks": 44736,
          "time": 39.9381805,
          "velocity": 0.9763779527559056
        },
        {
          "duration": 0.16605198437499524,
          "durationTicks": 186,
          "midi": 59,
          "name": "B3",
          "ticks": 44928,
          "time": 40.109589,
          "velocity": 0.9763779527559056
        },
        {
          "duration": 0.16605198437499524,
          "durationTicks": 186,
          "midi": 71,
          "name": "B4",
          "ticks": 44928,
          "time": 40.109589,
          "velocity": 0.9763779527559056
        },
        {
          "duration": 0.6802774843750043,
          "durationTicks": 762,
          "midi": 49,
          "name": "C#3",
          "ticks": 45312,
          "time": 40.452405999999996,
          "velocity": 0.9763779527559056
        },
        {
          "duration": 1.3659114843750046,
          "durationTicks": 1530,
          "midi": 49,
          "name": "C#3",
          "ticks": 46080,
          "time": 41.13804,
          "velocity": 0.9763779527559056
        },
        {
          "duration": 0.33746048437500065,
          "durationTicks": 378,
          "midi": 61,
          "name": "C#4",
          "ticks": 46080,
          "time": 41.13804,
          "velocity": 0.9763779527559056
        },
        {
          "duration": 0.32317644270833057,
          "durationTicks": 362,
          "midi": 73,
          "name": "C#5",
          "ticks": 46126,
          "time": 41.17910661979167,
          "velocity": 0.8503937007874016
        },
        {
          "duration": 0.33746048437500065,
          "durationTicks": 378,
          "midi": 57,
          "name": "A3",
          "ticks": 46464,
          "time": 41.480857,
          "velocity": 0.9763779527559056
        },
        {
          "duration": 0.38209811458332865,
          "durationTicks": 428,
          "midi": 69,
          "name": "A4",
          "ticks": 46488,
          "time": 41.5022830625,
          "velocity": 0.8346456692913385
        },
        {
          "duration": 0.33746048437500065,
          "durationTicks": 378,
          "midi": 54,
          "name": "F#3",
          "ticks": 46848,
          "time": 41.823674,
          "velocity": 0.9763779527559056
        },
        {
          "duration": 0.2946083593749975,
          "durationTicks": 330,
          "midi": 66,
          "name": "F#4",
          "ticks": 46880,
          "time": 41.85224208333333,
          "velocity": 0.8503937007874016
        },
        {
          "duration": 0.5177965104166731,
          "durationTicks": 580,
          "midi": 64,
          "name": "E4",
          "ticks": 47220,
          "time": 42.155777968749994,
          "velocity": 0.84251968503937
        },
        {
          "duration": 0.33746048437500065,
          "durationTicks": 378,
          "midi": 52,
          "name": "E3",
          "ticks": 47232,
          "time": 42.166491,
          "velocity": 0.9763779527559056
        },
        {
          "duration": 0.6802774843749972,
          "durationTicks": 762,
          "midi": 47,
          "name": "B2",
          "ticks": 47616,
          "time": 42.509308,
          "velocity": 0.9763779527559056
        },
        {
          "duration": 0.16605198437500235,
          "durationTicks": 186,
          "midi": 52,
          "name": "E3",
          "ticks": 47616,
          "time": 42.509308,
          "velocity": 0.9763779527559056
        },
        {
          "duration": 0.16605198437500235,
          "durationTicks": 186,
          "midi": 64,
          "name": "E4",
          "ticks": 47616,
          "time": 42.509308,
          "velocity": 0.9763779527559056
        },
        {
          "duration": 0.16605198437500235,
          "durationTicks": 186,
          "midi": 56,
          "name": "G#3",
          "ticks": 47808,
          "time": 42.680716499999996,
          "velocity": 0.9763779527559056
        },
        {
          "duration": 0.16605198437500235,
          "durationTicks": 186,
          "midi": 68,
          "name": "G#4",
          "ticks": 47808,
          "time": 42.680716499999996,
          "velocity": 0.9763779527559056
        },
        {
          "duration": 0.16605198437499524,
          "durationTicks": 186,
          "midi": 59,
          "name": "B3",
          "ticks": 48000,
          "time": 42.852125,
          "velocity": 0.9763779527559056
        },
        {
          "duration": 0.16605198437499524,
          "durationTicks": 186,
          "midi": 71,
          "name": "B4",
          "ticks": 48000,
          "time": 42.852125,
          "velocity": 0.9763779527559056
        },
        {
          "duration": 0.6802774843749972,
          "durationTicks": 762,
          "midi": 45,
          "name": "A2",
          "ticks": 48384,
          "time": 43.194942,
          "velocity": 0.9763779527559056
        },
        {
          "duration": 0.33746048437500065,
          "durationTicks": 378,
          "midi": 45,
          "name": "A2",
          "ticks": 49152,
          "time": 43.880576,
          "velocity": 0.9763779527559056
        },
        {
          "duration": 0.33746048437500065,
          "durationTicks": 378,
          "midi": 52,
          "name": "E3",
          "ticks": 49536,
          "time": 44.223392999999994,
          "velocity": 0.9763779527559056
        },
        {
          "duration": 0.6802774843749972,
          "durationTicks": 762,
          "midi": 45,
          "name": "A2",
          "ticks": 49920,
          "time": 44.56621,
          "velocity": 0.9763779527559056
        },
        {
          "duration": 0.33746048437500065,
          "durationTicks": 378,
          "midi": 52,
          "name": "E3",
          "ticks": 50688,
          "time": 45.251844,
          "velocity": 0.9763779527559056
        },
        {
          "duration": 0.33746048437500065,
          "durationTicks": 378,
          "midi": 47,
          "name": "B2",
          "ticks": 51072,
          "time": 45.594660999999995,
          "velocity": 0.9763779527559056
        },
        {
          "duration": 0.6802774843749972,
          "durationTicks": 762,
          "midi": 52,
          "name": "E3",
          "ticks": 51456,
          "time": 45.937478,
          "velocity": 0.9763779527559056
        },
        {
          "duration": 0.33746048437500065,
          "durationTicks": 378,
          "midi": 47,
          "name": "B2",
          "ticks": 52224,
          "time": 46.623112,
          "velocity": 0.9763779527559056
        },
        {
          "duration": 0.33746048437500065,
          "durationTicks": 378,
          "midi": 42,
          "name": "F#2",
          "ticks": 52608,
          "time": 46.965928999999996,
          "velocity": 0.9763779527559056
        },
        {
          "duration": 0.6802774843749972,
          "durationTicks": 762,
          "midi": 47,
          "name": "B2",
          "ticks": 52992,
          "time": 47.308746,
          "velocity": 0.9763779527559056
        },
        {
          "duration": 1.3659114843749975,
          "durationTicks": 1530,
          "midi": 45,
          "name": "A2",
          "ticks": 53760,
          "time": 47.99438,
          "velocity": 0.9763779527559056
        },
        {
          "duration": 0.6802774843749972,
          "durationTicks": 762,
          "midi": 57,
          "name": "A3",
          "ticks": 55296,
          "time": 49.365648,
          "velocity": 0.9763779527559056
        },
        {
          "duration": 0.16605198437499524,
          "durationTicks": 186,
          "midi": 59,
          "name": "B3",
          "ticks": 56064,
          "time": 50.051282,
          "velocity": 0.9763779527559056
        },
        {
          "duration": 0.16605198437499524,
          "durationTicks": 186,
          "midi": 62,
          "name": "D4",
          "ticks": 56256,
          "time": 50.2226905,
          "velocity": 0.9763779527559056
        },
        {
          "duration": 0.16605198437500235,
          "durationTicks": 186,
          "midi": 61,
          "name": "C#4",
          "ticks": 56448,
          "time": 50.394099,
          "velocity": 0.9763779527559056
        },
        {
          "duration": 0.16605198437500235,
          "durationTicks": 186,
          "midi": 59,
          "name": "B3",
          "ticks": 56640,
          "time": 50.565507499999995,
          "velocity": 0.9763779527559056
        },
        {
          "duration": 0.33746048437499354,
          "durationTicks": 378,
          "midi": 64,
          "name": "E4",
          "ticks": 56832,
          "time": 50.736916,
          "velocity": 0.9763779527559056
        },
        {
          "duration": 0.33746048437500065,
          "durationTicks": 378,
          "midi": 64,
          "name": "E4",
          "ticks": 57216,
          "time": 51.079733,
          "velocity": 0.9763779527559056
        },
        {
          "duration": 0.16605198437500235,
          "durationTicks": 186,
          "midi": 64,
          "name": "E4",
          "ticks": 57600,
          "time": 51.422549999999994,
          "velocity": 0.9763779527559056
        },
        {
          "duration": 0.16605198437499524,
          "durationTicks": 186,
          "midi": 66,
          "name": "F#4",
          "ticks": 57792,
          "time": 51.5939585,
          "velocity": 0.9763779527559056
        },
        {
          "duration": 0.16605198437500235,
          "durationTicks": 186,
          "midi": 61,
          "name": "C#4",
          "ticks": 57984,
          "time": 51.765367,
          "velocity": 0.9763779527559056
        },
        {
          "duration": 0.16605198437500235,
          "durationTicks": 186,
          "midi": 62,
          "name": "D4",
          "ticks": 58176,
          "time": 51.936775499999996,
          "velocity": 0.9763779527559056
        },
        {
          "duration": 0.33746048437500065,
          "durationTicks": 378,
          "midi": 59,
          "name": "B3",
          "ticks": 58368,
          "time": 52.108183999999994,
          "velocity": 0.9763779527559056
        },
        {
          "duration": 0.33746048437500065,
          "durationTicks": 378,
          "midi": 59,
          "name": "B3",
          "ticks": 58752,
          "time": 52.451001,
          "velocity": 0.9763779527559056
        },
        {
          "duration": 0.16605198437500235,
          "durationTicks": 186,
          "midi": 59,
          "name": "B3",
          "ticks": 59136,
          "time": 52.793817999999995,
          "velocity": 0.9763779527559056
        },
        {
          "duration": 0.16605198437499524,
          "durationTicks": 186,
          "midi": 62,
          "name": "D4",
          "ticks": 59328,
          "time": 52.9652265,
          "velocity": 0.9763779527559056
        },
        {
          "duration": 0.16605198437500235,
          "durationTicks": 186,
          "midi": 61,
          "name": "C#4",
          "ticks": 59520,
          "time": 53.136635,
          "velocity": 0.9763779527559056
        },
        {
          "duration": 0.16605198437500235,
          "durationTicks": 186,
          "midi": 59,
          "name": "B3",
          "ticks": 59712,
          "time": 53.3080435,
          "velocity": 0.9763779527559056
        },
        {
          "duration": 0.16605198437500235,
          "durationTicks": 186,
          "midi": 45,
          "name": "A2",
          "ticks": 59904,
          "time": 53.479451999999995,
          "velocity": 0.9763779527559056
        },
        {
          "duration": 0.16605198437500235,
          "durationTicks": 186,
          "midi": 57,
          "name": "A3",
          "ticks": 59904,
          "time": 53.479451999999995,
          "velocity": 0.9763779527559056
        },
        {
          "duration": 0.16605198437499524,
          "durationTicks": 186,
          "midi": 52,
          "name": "E3",
          "ticks": 60096,
          "time": 53.6508605,
          "velocity": 0.9763779527559056
        },
        {
          "duration": 0.16605198437499524,
          "durationTicks": 186,
          "midi": 64,
          "name": "E4",
          "ticks": 60096,
          "time": 53.6508605,
          "velocity": 0.9763779527559056
        },
        {
          "duration": 0.16605198437499524,
          "durationTicks": 186,
          "midi": 47,
          "name": "B2",
          "ticks": 60288,
          "time": 53.822269,
          "velocity": 0.9763779527559056
        },
        {
          "duration": 0.16605198437499524,
          "durationTicks": 186,
          "midi": 59,
          "name": "B3",
          "ticks": 60288,
          "time": 53.822269,
          "velocity": 0.9763779527559056
        },
        {
          "duration": 0.16605198437500235,
          "durationTicks": 186,
          "midi": 49,
          "name": "C#3",
          "ticks": 60480,
          "time": 53.9936775,
          "velocity": 0.9763779527559056
        },
        {
          "duration": 0.16605198437500235,
          "durationTicks": 186,
          "midi": 61,
          "name": "C#4",
          "ticks": 60480,
          "time": 53.9936775,
          "velocity": 0.9763779527559056
        },
        {
          "duration": 0.6802774843750043,
          "durationTicks": 762,
          "midi": 45,
          "name": "A2",
          "ticks": 60672,
          "time": 54.165085999999995,
          "velocity": 0.9763779527559056
        },
        {
          "duration": 0.6802774843750043,
          "durationTicks": 762,
          "midi": 57,
          "name": "A3",
          "ticks": 60672,
          "time": 54.165085999999995,
          "velocity": 0.9763779527559056
        }
      ],
      "endOfTrackTicks": 61440
    },
    {
      "channel": 3,
      "controlChanges": {
        "7": [
          {
            "number": 7,
            "ticks": 0,
            "time": 0,
            "value": 0.7874015748031497
          }
        ],
        "10": [
          {
            "number": 10,
            "ticks": 0,
            "time": 0,
            "value": 0.5039370078740157
          }
        ],
        "91": [
          {
            "number": 91,
            "ticks": 0,
            "time": 0,
            "value": 0.6299212598425197
          }
        ],
        "93": [
          {
            "number": 93,
            "ticks": 0,
            "time": 0,
            "value": 0
          }
        ]
      },
      "pitchBends": [
        {
          "ticks": 0,
          "time": 0,
          "value": 0
        }
      ],
      "instrument": {
        "family": "strings",
        "number": 45,
        "name": "pizzicato strings"
      },
      "name": "",
      "notes": [
        {
          "duration": 0.1660519843749988,
          "durationTicks": 186,
          "midi": 62,
          "name": "D4",
          "ticks": 26112,
          "time": 23.311556,
          "velocity": 0.8031496062992126
        },
        {
          "duration": 0.1660519843749988,
          "durationTicks": 186,
          "midi": 74,
          "name": "D5",
          "ticks": 26112,
          "time": 23.311556,
          "velocity": 0.8031496062992126
        },
        {
          "duration": 0.16605198437500235,
          "durationTicks": 186,
          "midi": 66,
          "name": "F#4",
          "ticks": 26304,
          "time": 23.482964499999998,
          "velocity": 0.8031496062992126
        },
        {
          "duration": 0.16605198437500235,
          "durationTicks": 186,
          "midi": 78,
          "name": "F#5",
          "ticks": 26304,
          "time": 23.482964499999998,
          "velocity": 0.8031496062992126
        },
        {
          "duration": 0.1660519843749988,
          "durationTicks": 186,
          "midi": 69,
          "name": "A4",
          "ticks": 26496,
          "time": 23.654373,
          "velocity": 0.8031496062992126
        },
        {
          "duration": 0.1660519843749988,
          "durationTicks": 186,
          "midi": 81,
          "name": "A5",
          "ticks": 26496,
          "time": 23.654373,
          "velocity": 0.8031496062992126
        },
        {
          "duration": 0.16605198437500235,
          "durationTicks": 186,
          "midi": 66,
          "name": "F#4",
          "ticks": 26688,
          "time": 23.825781499999998,
          "velocity": 0.8031496062992126
        },
        {
          "duration": 0.16605198437500235,
          "durationTicks": 186,
          "midi": 78,
          "name": "F#5",
          "ticks": 26688,
          "time": 23.825781499999998,
          "velocity": 0.8031496062992126
        },
        {
          "duration": 0.1660519843749988,
          "durationTicks": 186,
          "midi": 66,
          "name": "F#4",
          "ticks": 26880,
          "time": 23.99719,
          "velocity": 0.8031496062992126
        },
        {
          "duration": 0.1660519843749988,
          "durationTicks": 186,
          "midi": 78,
          "name": "F#5",
          "ticks": 26880,
          "time": 23.99719,
          "velocity": 0.8031496062992126
        },
        {
          "duration": 0.16605198437500235,
          "durationTicks": 186,
          "midi": 64,
          "name": "E4",
          "ticks": 27072,
          "time": 24.168598499999998,
          "velocity": 0.8031496062992126
        },
        {
          "duration": 0.16605198437500235,
          "durationTicks": 186,
          "midi": 76,
          "name": "E5",
          "ticks": 27072,
          "time": 24.168598499999998,
          "velocity": 0.8031496062992126
        },
        {
          "duration": 0.1660519843749988,
          "durationTicks": 186,
          "midi": 64,
          "name": "E4",
          "ticks": 27264,
          "time": 24.340007,
          "velocity": 0.8031496062992126
        },
        {
          "duration": 0.1660519843749988,
          "durationTicks": 186,
          "midi": 76,
          "name": "E5",
          "ticks": 27264,
          "time": 24.340007,
          "velocity": 0.8031496062992126
        },
        {
          "duration": 0.16605198437500235,
          "durationTicks": 186,
          "midi": 73,
          "name": "C#5",
          "ticks": 29184,
          "time": 26.054091999999997,
          "velocity": 0.8031496062992126
        },
        {
          "duration": 0.1660519843749988,
          "durationTicks": 186,
          "midi": 71,
          "name": "B4",
          "ticks": 29376,
          "time": 26.2255005,
          "velocity": 0.8031496062992126
        },
        {
          "duration": 0.16605198437500235,
          "durationTicks": 186,
          "midi": 73,
          "name": "C#5",
          "ticks": 29568,
          "time": 26.396908999999997,
          "velocity": 0.8031496062992126
        },
        {
          "duration": 0.1660519843749988,
          "durationTicks": 186,
          "midi": 71,
          "name": "B4",
          "ticks": 29760,
          "time": 26.5683175,
          "velocity": 0.8031496062992126
        },
        {
          "duration": 0.16605198437500235,
          "durationTicks": 186,
          "midi": 73,
          "name": "C#5",
          "ticks": 29952,
          "time": 26.739725999999997,
          "velocity": 0.8031496062992126
        },
        {
          "duration": 0.1660519843749988,
          "durationTicks": 186,
          "midi": 71,
          "name": "B4",
          "ticks": 30144,
          "time": 26.9111345,
          "velocity": 0.8031496062992126
        },
        {
          "duration": 0.16605198437500235,
          "durationTicks": 186,
          "midi": 73,
          "name": "C#5",
          "ticks": 30336,
          "time": 27.082542999999998,
          "velocity": 0.8031496062992126
        },
        {
          "duration": 0.1660519843749988,
          "durationTicks": 186,
          "midi": 71,
          "name": "B4",
          "ticks": 30528,
          "time": 27.2539515,
          "velocity": 0.8031496062992126
        }
      ],
      "endOfTrackTicks": 30720
    },
    {
      "channel": 4,
      "controlChanges": {
        "7": [
          {
            "number": 7,
            "ticks": 0,
            "time": 0,
            "value": 0.7874015748031497
          }
        ],
        "10": [
          {
            "number": 10,
            "ticks": 0,
            "time": 0,
            "value": 0.5039370078740157
          }
        ],
        "91": [
          {
            "number": 91,
            "ticks": 0,
            "time": 0,
            "value": 0.7874015748031497
          }
        ],
        "93": [
          {
            "number": 93,
            "ticks": 0,
            "time": 0,
            "value": 0
          }
        ]
      },
      "pitchBends": [
        {
          "ticks": 0,
          "time": 0,
          "value": 0
        }
      ],
      "instrument": {
        "family": "pipe",
        "number": 72,
        "name": "piccolo"
      },
      "name": "",
      "notes": [
        {
          "duration": 0.1642664791666668,
          "durationTicks": 184,
          "midi": 74,
          "name": "D5",
          "ticks": 26112,
          "time": 23.311556,
          "velocity": 1
        },
        {
          "duration": 0.16426647916667036,
          "durationTicks": 184,
          "midi": 78,
          "name": "F#5",
          "ticks": 26304,
          "time": 23.482964499999998,
          "velocity": 1
        },
        {
          "duration": 0.1642664791666668,
          "durationTicks": 184,
          "midi": 81,
          "name": "A5",
          "ticks": 26496,
          "time": 23.654373,
          "velocity": 1
        },
        {
          "duration": 0.16426647916667036,
          "durationTicks": 184,
          "midi": 78,
          "name": "F#5",
          "ticks": 26688,
          "time": 23.825781499999998,
          "velocity": 1
        },
        {
          "duration": 0.1642664791666668,
          "durationTicks": 184,
          "midi": 78,
          "name": "F#5",
          "ticks": 26880,
          "time": 23.99719,
          "velocity": 1
        },
        {
          "duration": 0.16426647916667036,
          "durationTicks": 184,
          "midi": 76,
          "name": "E5",
          "ticks": 27072,
          "time": 24.168598499999998,
          "velocity": 1
        },
        {
          "duration": 0.1642664791666668,
          "durationTicks": 184,
          "midi": 76,
          "name": "E5",
          "ticks": 27264,
          "time": 24.340007,
          "velocity": 1
        },
        {
          "duration": 0.16426647916667036,
          "durationTicks": 184,
          "midi": 73,
          "name": "C#5",
          "ticks": 29184,
          "time": 26.054091999999997,
          "velocity": 1
        },
        {
          "duration": 0.1642664791666668,
          "durationTicks": 184,
          "midi": 71,
          "name": "B4",
          "ticks": 29376,
          "time": 26.2255005,
          "velocity": 1
        },
        {
          "duration": 0.16426647916667036,
          "durationTicks": 184,
          "midi": 73,
          "name": "C#5",
          "ticks": 29568,
          "time": 26.396908999999997,
          "velocity": 1
        },
        {
          "duration": 0.1642664791666668,
          "durationTicks": 184,
          "midi": 71,
          "name": "B4",
          "ticks": 29760,
          "time": 26.5683175,
          "velocity": 1
        },
        {
          "duration": 0.16426647916667036,
          "durationTicks": 184,
          "midi": 73,
          "name": "C#5",
          "ticks": 29952,
          "time": 26.739725999999997,
          "velocity": 1
        },
        {
          "duration": 0.1642664791666668,
          "durationTicks": 184,
          "midi": 71,
          "name": "B4",
          "ticks": 30144,
          "time": 26.9111345,
          "velocity": 1
        },
        {
          "duration": 0.16426647916667036,
          "durationTicks": 184,
          "midi": 73,
          "name": "C#5",
          "ticks": 30336,
          "time": 27.082542999999998,
          "velocity": 1
        },
        {
          "duration": 0.1642664791666668,
          "durationTicks": 184,
          "midi": 71,
          "name": "B4",
          "ticks": 30528,
          "time": 27.2539515,
          "velocity": 1
        },
        {
          "duration": 0.1642664791666668,
          "durationTicks": 184,
          "midi": 74,
          "name": "D5",
          "ticks": 32256,
          "time": 28.796628,
          "velocity": 1
        },
        {
          "duration": 0.1642664791666668,
          "durationTicks": 184,
          "midi": 78,
          "name": "F#5",
          "ticks": 32448,
          "time": 28.9680365,
          "velocity": 1
        },
        {
          "duration": 0.1642664791666668,
          "durationTicks": 184,
          "midi": 81,
          "name": "A5",
          "ticks": 32640,
          "time": 29.139445,
          "velocity": 1
        },
        {
          "duration": 0.16426647916667036,
          "durationTicks": 184,
          "midi": 78,
          "name": "F#5",
          "ticks": 32832,
          "time": 29.310853499999997,
          "velocity": 1
        },
        {
          "duration": 0.1642664791666668,
          "durationTicks": 184,
          "midi": 78,
          "name": "F#5",
          "ticks": 33024,
          "time": 29.482262,
          "velocity": 1
        },
        {
          "duration": 0.16426647916667036,
          "durationTicks": 184,
          "midi": 76,
          "name": "E5",
          "ticks": 33216,
          "time": 29.653670499999997,
          "velocity": 1
        },
        {
          "duration": 0.1642664791666668,
          "durationTicks": 184,
          "midi": 76,
          "name": "E5",
          "ticks": 33408,
          "time": 29.825079,
          "velocity": 1
        }
      ],
      "endOfTrackTicks": 33792
    }
  ]
}
