<svg class="wb_symbol_cloud" xmlns="http://www.w3.org/2000/svg"
	 width="41" height="28" viewBox="0 0 41 28">
<polygon class="svg-secondary" points="1.1,22.1 1,25 4,25 4,27 6,27 6,28 35,28 35,27 37,27 37,25 39,25 39,23 41,23 41,17 39,17 39,14 36,14 36,11
	35,11 35,9 34,9 34,7 32,7 32,6 29,6 29,5 25,5 25,4 22,4 22,2 20,2 20,1 18,1 18,0 13,0 13,1 11,1 11,3 8,3 8,5 6,5 6,10 5,10
	5,11 2,11 2,13 1,13 1,16 0,16 0,22 "/>
<polygon class="svg-primary" fill="#FFFFFF" points="3,13 3,16 2,16 2,22 4,22 4,25 6,25 6,26 35,26 35,25 37,25 37,22 39,22 39,18 37,18 37,16 35,16
	35,14 34,14 34,11 33,11 33,9 32,9 32,8 29,8 29,7 25,7 25,6 22,6 22,4 20,4 20,3 18,3 18,2 13,2 13,3 11,3 11,5 8,5 8,10 7,10
	7,12 5,12 5,13 "/>
</svg>
