<svg class="wb_symbol_screen_diagnose"  width="52" height="44" viewBox="0 0 52 44" xmlns="http://www.w3.org/2000/svg">
<path d="M50 40H2V2H50V40ZM4 38H48V4H4V38Z" class="svg-primary" fill="white"/>
<rect x="6" y="14" width="4" height="4" class="svg-tertiary" fill="#FFAA55"/>
<rect x="6" y="22" width="4" height="4" class="svg-tertiary" fill="#FFAA55"/>
<rect x="14" y="6" width="4" height="4" class="svg-tertiary" fill="#FFAA55"/>
<rect x="6" y="6" width="4" height="4" class="svg-tertiary" fill="#FFAA55"/>
<rect x="14" y="14" width="4" height="4" class="svg-tertiary" fill="#FFAA55"/>
<rect x="14" y="22" width="4" height="4" class="svg-tertiary" fill="#FFAA55"/>
<rect x="22" y="6" width="4" height="4" class="svg-tertiary" fill="#FFAA55"/>
<rect x="22" y="14" width="4" height="4" class="svg-tertiary" fill="#FFAA55"/>
<rect x="22" y="22" width="4" height="4" class="svg-tertiary" fill="#FFAA55"/>
<rect x="30" y="6" width="4" height="4" class="svg-tertiary" fill="#FFAA55"/>
<rect x="30" y="14" width="4" height="4" class="svg-tertiary" fill="#FFAA55"/>
<rect x="30" y="22" width="4" height="4" class="svg-tertiary" fill="#FFAA55"/>
<rect x="10" y="6" width="4" height="4" class="svg-quaternary" fill="#0055AA"/>
<rect x="10" y="14" width="4" height="4" class="svg-quaternary" fill="#0055AA"/>
<rect x="10" y="22" width="4" height="4" class="svg-quaternary" fill="#0055AA"/>
<rect x="18" y="6" width="4" height="4" class="svg-quaternary" fill="#0055AA"/>
<rect x="18" y="14" width="4" height="4" class="svg-quaternary" fill="#0055AA"/>
<rect x="18" y="22" width="4" height="4" class="svg-quaternary" fill="#0055AA"/>
<rect x="26" y="6" width="4" height="4" class="svg-quaternary" fill="#0055AA"/>
<rect x="26" y="14" width="4" height="4" class="svg-quaternary" fill="#0055AA"/>
<rect x="26" y="22" width="4" height="4" class="svg-quaternary" fill="#0055AA"/>
<rect x="34" y="6" width="4" height="4" class="svg-quaternary" fill="#0055AA"/>
<rect x="34" y="14" width="4" height="4" class="svg-quaternary" fill="#0055AA"/>
<rect x="34" y="22" width="4" height="4" class="svg-quaternary" fill="#0055AA"/>
<rect x="38" y="10" width="4" height="4" class="svg-quaternary" fill="#0055AA"/>
<rect x="42" y="6" width="4" height="4" class="svg-quaternary" fill="#0055AA"/>
<rect x="42" y="14" width="4" height="4" class="svg-quaternary" fill="#0055AA"/>
<rect x="38" y="26" width="4" height="4" class="svg-quaternary" fill="#0055AA"/>
<rect x="42" y="30" width="4" height="4" class="svg-quaternary" fill="#0055AA"/>
<rect x="38" y="18" width="4" height="4" class="svg-quaternary" fill="#0055AA"/>
<rect x="42" y="22" width="4" height="4" class="svg-quaternary" fill="#0055AA"/>
<rect x="34" y="30" width="4" height="4" class="svg-quaternary" fill="#0055AA"/>
<rect x="38" y="34" width="4" height="2" class="svg-quaternary" fill="#0055AA"/>
<rect x="6" y="10" width="4" height="4" class="svg-quaternary" fill="#0055AA"/>
<rect x="6" y="18" width="4" height="4" class="svg-quaternary" fill="#0055AA"/>
<rect x="6" y="26" width="4" height="4" class="svg-quaternary" fill="#0055AA"/>
<rect x="10" y="30" width="4" height="4" class="svg-quaternary" fill="#0055AA"/>
<rect x="14" y="34" width="4" height="2" class="svg-quaternary" fill="#0055AA"/>
<rect x="6" y="34" width="4" height="2" class="svg-quaternary" fill="#0055AA"/>
<rect x="14" y="10" width="4" height="4" class="svg-quaternary" fill="#0055AA"/>
<rect x="14" y="18" width="4" height="4" class="svg-quaternary" fill="#0055AA"/>
<rect x="14" y="26" width="4" height="4" class="svg-quaternary" fill="#0055AA"/>
<rect x="18" y="30" width="4" height="4" class="svg-quaternary" fill="#0055AA"/>
<rect x="22" y="34" width="4" height="2" class="svg-quaternary" fill="#0055AA"/>
<rect x="22" y="10" width="4" height="4" class="svg-quaternary" fill="#0055AA"/>
<rect x="22" y="18" width="4" height="4" class="svg-quaternary" fill="#0055AA"/>
<rect x="22" y="26" width="4" height="4" class="svg-quaternary" fill="#0055AA"/>
<rect x="26" y="30" width="4" height="4" class="svg-quaternary" fill="#0055AA"/>
<rect x="30" y="34" width="4" height="2" class="svg-quaternary" fill="#0055AA"/>
<rect x="30" y="10" width="4" height="4" class="svg-quaternary" fill="#0055AA"/>
<rect x="30" y="18" width="4" height="4" class="svg-quaternary" fill="#0055AA"/>
<rect x="30" y="26" width="4" height="4" class="svg-quaternary" fill="#0055AA"/>
<rect x="10" y="10" width="4" height="4" class="svg-tertiary" fill="#FFAA55"/>
<rect x="10" y="18" width="4" height="4" class="svg-tertiary" fill="#FFAA55"/>
<rect x="10" y="26" width="4" height="4" class="svg-tertiary" fill="#FFAA55"/>
<rect x="18" y="10" width="4" height="4" class="svg-tertiary" fill="#FFAA55"/>
<rect x="18" y="18" width="4" height="4" class="svg-tertiary" fill="#FFAA55"/>
<rect x="18" y="26" width="4" height="4" class="svg-tertiary" fill="#FFAA55"/>
<rect x="26" y="10" width="4" height="4" class="svg-tertiary" fill="#FFAA55"/>
<rect x="26" y="18" width="4" height="4" class="svg-tertiary" fill="#FFAA55"/>
<rect x="26" y="26" width="4" height="4" class="svg-tertiary" fill="#FFAA55"/>
<rect x="34" y="10" width="4" height="4" class="svg-tertiary" fill="#FFAA55"/>
<rect x="38" y="6" width="4" height="4" class="svg-tertiary" fill="#FFAA55"/>
<rect x="42" y="10" width="4" height="4" class="svg-tertiary" fill="#FFAA55"/>
<rect x="34" y="18" width="4" height="4" class="svg-tertiary" fill="#FFAA55"/>
<rect x="38" y="14" width="4" height="4" class="svg-tertiary" fill="#FFAA55"/>
<rect x="42" y="18" width="4" height="4" class="svg-tertiary" fill="#FFAA55"/>
<rect x="34" y="26" width="4" height="4" class="svg-tertiary" fill="#FFAA55"/>
<rect x="38" y="22" width="4" height="4" class="svg-tertiary" fill="#FFAA55"/>
<rect x="42" y="26" width="4" height="4" class="svg-tertiary" fill="#FFAA55"/>
<rect x="38" y="30" width="4" height="4" class="svg-tertiary" fill="#FFAA55"/>
<rect x="42" y="34" width="4" height="2" class="svg-tertiary" fill="#FFAA55"/>
<rect x="30" y="30" width="4" height="4" class="svg-tertiary" fill="#FFAA55"/>
<rect x="34" y="34" width="4" height="2" class="svg-tertiary" fill="#FFAA55"/>
<rect x="22" y="30" width="4" height="4" class="svg-tertiary" fill="#FFAA55"/>
<rect x="26" y="34" width="4" height="2" class="svg-tertiary" fill="#FFAA55"/>
<rect x="14" y="30" width="4" height="4" class="svg-tertiary" fill="#FFAA55"/>
<rect x="18" y="34" width="4" height="2" class="svg-tertiary" fill="#FFAA55"/>
<rect x="6" y="30" width="4" height="4" class="svg-tertiary" fill="#FFAA55"/>
<rect x="10" y="34" width="4" height="2" class="svg-tertiary" fill="#FFAA55"/>
<path fill-rule="evenodd" clip-rule="evenodd" d="M48 38H4V4H48V38ZM6 36H46V6H6V36Z" class="svg-secondary" fill="black"/>
<path d="M46 44H6V42H2V40H50V42H46V44Z" class="svg-secondary" fill="black"/>
<path d="M2 40H0V2H2V40Z" class="svg-secondary" fill="black"/>
<path d="M52 40H50V2H52V40Z" class="svg-secondary" fill="black"/>
<path d="M50 2H2V0H50V2Z" class="svg-secondary" fill="black"/>
</svg>
