<?xml version="1.0" encoding="utf-8"?>
<!-- Generator: Adobe Illustrator 27.7.0, SVG Export Plug-In . SVG Version: 6.00 Build 0)  -->
<svg version="1.1" class="Ebene_1" xmlns="http://www.w3.org/2000/svg" xmlns:xlink="http://www.w3.org/1999/xlink" x="0px" y="0px"
	 width="27px" height="33px" viewBox="0 0 27 33" style="enable-background:new 0 0 27 33;" xml:space="preserve">
<g class="divide">
	<polygon class="background" points="20,27 20,26 19,26 19,25 17,25 17,24 14,24 14,25 12,25 12,26 11,26 11,27 10,27 10,28 10,29
		10,30 11,30 11,31 12,31 12,32 14,32 14,33 17,33 17,32 19,32 19,31 20,31 20,30 21,30 21,29 21,28 21,27 	"/>
	<polygon class="foreground" style="fill:#FFFFFF;" points="17,27 17,26 16,26 15,26 15,27 14,27 14,28 13,28 13,29 13,30 14,30 14,31
		15,31 16,31 16,30 17,30 17,29 18,29 18,28 18,27 	"/>
	<rect class="line" x="20" width="1" height="27"/>
	<g class="lines">
		<polygon class="line4" points="21,20 25,20 25,22 27,22 27,19 26,19 26,18 21,18 		"/>
		<polygon class="line3" points="21,14 25,14 25,16 27,16 27,13 26,13 26,12
			21,12 		"/>
		<polygon class="line2" points="21,8 25,8 25,10 27,10 27,7 26,7 26,6 21,6 		"/>
		<polygon class="line1" points="21,2 25,2 25,4 27,4 27,1 26,1 26,0 21,0 		"/>
	</g>
	<g class="bindings">
		<rect class="bind4-right" x="21" y="18" width="6" height="2"/>
		<rect class="bind4-left" x="0" y="18" width="20" height="2"/>
		<rect class="bind3-right" x="21" y="12" width="6" height="2"/>
		<rect class="bind3-left" x="0" y="12" width="20" height="2"/>
		<rect class="bind2-right" x="21" y="6" width="6" height="2"/>
		<rect class="bind2-left" x="0" y="6" width="20" height="2"/>
		<rect class="bind1-right" x="21" y="0" width="6" height="2"/>
		<rect class="bind1-left" x="0" width="20" height="2"/>
	</g>
	<polygon class="dot" points="25,28 24,28 24,27 23,27 23,28 22,28 22,29 23,29 23,30 24,30 24,29 25,29 	"/>
</g>
<g class="whole">
	<polygon class="background" points="19.5,27 19.5,26 18.5,26 18.5,25 16.5,25
		16.5,24 10.5,24 10.5,25 8.5,25 8.5,26 7.5,26 7.5,27 6.5,27 6.5,28 6.5,29 6.5,30 7.5,30 7.5,31 8.5,31 8.5,32 10.5,32 10.5,33
		16.5,33 16.5,32 18.5,32 18.5,31 19.5,31 19.5,30 20.5,30 20.5,29 20.5,28 20.5,27 	"/>
	<polygon class="foreground" style="fill:#FFFFFF;" points="15.5,27 15.5,26
		14.5,26 14.5,25 11.5,25 11.5,26 10.5,26 10.5,27 10.5,28 10.5,29 10.5,30 11.5,30 11.5,31 12.5,31 12.5,32 15.5,32 15.5,31
		16.5,31 16.5,30 16.5,29 16.5,28 16.5,27 	"/>
	<g class="double">
		<rect x="4" y="24" width="1" height="9"/>
		<rect x="2" y="24" width="1" height="9"/>
		<rect x="24" y="24" width="1" height="9"/>
		<rect x="22" y="24" width="1" height="9"/>
	</g>
</g>
<g class="extend">
	<rect x="4" y="24" width="1" height="9"/>
	<rect x="2" y="26" width="7" height="1"/>
	<rect x="2" y="30" width="7" height="1"/>
	<rect x="6" y="24" width="1" height="9"/>
</g>
<g class="divide-pause">
	<g class="line4">
		<rect x="18" y="3" width="1" height="6"/>
		<polygon points="17,4 17,3 17,2 16,2 16,1 14,1 14,2 13,2 13,3 13,4 14,4 14,5 16,5 18,5 18,4 		"/>
	</g>
	<g class="line3">
		<rect x="17" y="9" width="1" height="6"/>
		<polygon points="16,10 16,9 16,8 15,8 15,7 13,7 13,8 12,8 12,9 12,10 13,10 13,11 15,11 17,11 17,10 		"/>
	</g>
	<g class="line2">
		<rect x="16" y="15" width="1" height="6"/>
		<polygon points="15,16 15,15 15,14 14,14 14,13 12,13 12,14 11,14 11,15 11,16 12,16 12,17 14,17 16,17 16,16 		"/>
	</g>
	<g class="line1">
		<rect x="15" y="21" width="1" height="6"/>
		<rect x="14" y="27" width="1" height="6"/>
		<polygon points="14,22 14,21 14,20 13,20 13,19 11,19 11,20 10,20 10,21 10,22 11,22 11,23 13,23 15,23 15,22 		"/>
	</g>
</g>
<rect class="half-pause" x="11" y="24" width="8" height="3"/>
<rect class="whole-pause" x="11" y="28" width="8" height="3"/>
<rect class="double-pause" x="11" y="24" width="8" height="7"/>
</svg>
