<?xml version="1.0" encoding="utf-8"?>
<!-- Generator: Adobe Illustrator 22.1.0, SVG Export Plug-In . SVG Version: 6.00 Build 0)  -->
<svg version="1.1" id="Ebene_1" xmlns="http://www.w3.org/2000/svg" xmlns:xlink="http://www.w3.org/1999/xlink" x="0px" y="0px"
	 viewBox="0 0 100 100" style="enable-background:new 0 0 100 100;" xml:space="preserve">
<g>
	<g>
		<path d="M50,31c10.48,0,19,8.52,19,19s-8.52,19-19,19s-19-8.52-19-19S39.52,31,50,31 M50,25c-13.81,0-25,11.19-25,25
			s11.19,25,25,25s25-11.19,25-25S63.81,25,50,25L50,25z"/>
	</g>
	<g>
		<g>
			<path d="M50,100L50,100c-1.66,0-3-1.34-3-3V83c0-1.66,1.34-3,3-3h0c1.66,0,3,1.34,3,3v14C53,98.66,51.66,100,50,100z"/>
		</g>
		<g>
			<path d="M50,20L50,20c-1.66,0-3-1.34-3-3V3c0-1.66,1.34-3,3-3h0c1.66,0,3,1.34,3,3v14C53,18.66,51.66,20,50,20z"/>
		</g>
	</g>
	<g>
		<g>
			<path d="M85.36,85.36L85.36,85.36c-1.17,1.17-3.07,1.17-4.24,0l-9.9-9.9c-1.17-1.17-1.17-3.07,0-4.24l0,0
				c1.17-1.17,3.07-1.17,4.24,0l9.9,9.9C86.53,82.28,86.53,84.18,85.36,85.36z"/>
		</g>
		<g>
			<path d="M28.79,28.79L28.79,28.79c-1.17,1.17-3.07,1.17-4.24,0l-9.9-9.9c-1.17-1.17-1.17-3.07,0-4.24l0,0
				c1.17-1.17,3.07-1.17,4.24,0l9.9,9.9C29.96,25.72,29.96,27.62,28.79,28.79z"/>
		</g>
	</g>
	<g>
		<g>
			<path d="M14.64,85.36L14.64,85.36c-1.17-1.17-1.17-3.07,0-4.24l9.9-9.9c1.17-1.17,3.07-1.17,4.24,0h0c1.17,1.17,1.17,3.07,0,4.24
				l-9.9,9.9C17.72,86.53,15.82,86.53,14.64,85.36z"/>
		</g>
		<g>
			<path d="M71.21,28.79L71.21,28.79c-1.17-1.17-1.17-3.07,0-4.24l9.9-9.9c1.17-1.17,3.07-1.17,4.24,0v0c1.17,1.17,1.17,3.07,0,4.24
				l-9.9,9.9C74.28,29.96,72.38,29.96,71.21,28.79z"/>
		</g>
	</g>
	<g>
		<g>
			<path d="M100,50L100,50c0,1.66-1.34,3-3,3H83c-1.66,0-3-1.34-3-3v0c0-1.66,1.34-3,3-3h14C98.66,47,100,48.34,100,50z"/>
		</g>
		<g>
			<path d="M20,50L20,50c0,1.66-1.34,3-3,3H3c-1.66,0-3-1.34-3-3l0,0c0-1.66,1.34-3,3-3h14C18.66,47,20,48.34,20,50z"/>
		</g>
	</g>
</g>
</svg>
