<?xml version="1.0" encoding="utf-8"?>
<!-- Generator: Adobe Illustrator 22.1.0, SVG Export Plug-In . SVG Version: 6.00 Build 0)  -->
<svg version="1.1" id="Ebene_1" xmlns="http://www.w3.org/2000/svg" xmlns:xlink="http://www.w3.org/1999/xlink" x="0px" y="0px"
	 viewBox="0 0 100 100" style="enable-background:new 0 0 100 100;" xml:space="preserve">
<path style="fill:none;" d="M62,54v20c5.52,0,10-4.48,10-10C72,58.48,67.52,54,62,54z"/>
<g>
	<g>
		<path d="M50,6c24.26,0,44,19.74,44,44S74.26,94,50,94S6,74.26,6,50S25.74,6,50,6 M50,0C22.39,0,0,22.39,0,50s22.39,50,50,50
			s50-22.39,50-50S77.61,0,50,0L50,0z"/>
	</g>
	<g>
		<g>
			<circle cx="30" cy="64" r="10"/>
		</g>
		<g>
			<path d="M43,24c0,4.48,2.94,8.27,7,9.54V14.46C45.94,15.73,43,19.52,43,24z"/>
		</g>
		<g>
			<path d="M50,0v14.46c0.95-0.3,1.95-0.46,3-0.46c5.52,0,10,4.48,10,10c0,5.52-4.48,10-10,10c-1.05,0-2.05-0.16-3-0.46V100
				c27.61,0,50-22.39,50-50C100,22.39,77.61,0,50,0z M75,68c-5.52,0-10-4.48-10-10c0-5.52,4.48-10,10-10s10,4.48,10,10
				C85,63.52,80.52,68,75,68z"/>
		</g>
	</g>
</g>
</svg>
