<?xml version="1.0" encoding="utf-8"?>
<!-- Generator: Adobe Illustrator 22.1.0, SVG Export Plug-In . SVG Version: 6.00 Build 0)  -->
<svg version="1.1" id="Ebene_1" xmlns="http://www.w3.org/2000/svg" xmlns:xlink="http://www.w3.org/1999/xlink" x="0px" y="0px"
	 viewBox="0 0 100 100" style="enable-background:new 0 0 100 100;" xml:space="preserve">
<g>
	<path d="M45,21c15.24,0,30.17,0.93,37.63,1.48C83.18,28.43,84,39.06,84,50c0,10.93-0.82,21.56-1.37,27.52
		C75.16,78.07,60.24,79,45,79c-15.14,0-29.97-0.92-37.48-1.47C6.96,69.88,6,55.75,6,50s0.96-19.88,1.52-27.53
		C15.03,21.92,29.86,21,45,21 M45,15c-22.02,0-43.09,1.89-43.09,1.89S0,41.64,0,50s1.91,33.11,1.91,33.11S22.98,85,45,85
		s43.09-1.89,43.09-1.89S90,67.03,90,50s-1.91-33.11-1.91-33.11S67.02,15,45,15L45,15z"/>
</g>
<g>
	<path d="M65,31c11.11,0,22,0.59,28.08,0.98C93.5,36.33,94,43.07,94,50c0,6.91-0.51,13.66-0.92,18.02C87.01,68.42,76.12,69,65,69
		c-11.02,0-21.83-0.58-27.94-0.97C36.62,62.41,36,53.7,36,50s0.62-12.41,1.06-18.03C43.16,31.58,53.97,31,65,31 M65,25
		c-17.13,0-33.51,1.35-33.51,1.35S30,44.03,30,50s1.49,23.65,1.49,23.65S47.87,75,65,75s33.51-1.35,33.51-1.35S100,62.16,100,50
		s-1.49-23.65-1.49-23.65S82.13,25,65,25L65,25z"/>
</g>
</svg>
