<svg version="1.1" id="Ebene_1" xmlns="http://www.w3.org/2000/svg" x="0" y="0" viewBox="0 0 31.55 22.07" xml:space="preserve">
      <path d="M0 8.74V.15h2.78c1.05 0 1.74.04 2.06.13.49.13.9.41 1.24.84s.5.99.5 1.67c0 .53-.1.97-.29 1.33-.19.36-.43.64-.73.85s-.59.34-.9.41c-.41.08-1.01.12-1.79.12H1.73v3.24H0zM1.73 1.6v2.44h.95c.68 0 1.14-.04 1.37-.13s.42-.24.55-.43.2-.41.2-.67c0-.31-.09-.57-.28-.77s-.42-.33-.7-.38c-.21-.04-.62-.06-1.25-.06h-.84z"/>
      <path d="M7.99.15h1.73V4.8c0 .74.02 1.22.06 1.44.07.35.25.63.53.85s.66.32 1.15.32c.49 0 .86-.1 1.11-.3s.4-.45.45-.74.08-.78.08-1.46V.15h1.73v4.51c0 1.03-.05 1.76-.14 2.19s-.27.79-.52 1.08-.59.53-1.01.7-.97.26-1.65.26c-.82 0-1.44-.09-1.87-.28s-.76-.44-1-.74-.4-.63-.48-.96c-.11-.49-.17-1.22-.17-2.18V.15z"/>
      <path d="M16.23 5.94l1.69-.16c.1.57.31.98.62 1.25s.73.4 1.26.4c.56 0 .98-.12 1.26-.35s.42-.51.42-.83c0-.2-.06-.38-.18-.52s-.33-.27-.62-.37c-.2-.07-.67-.2-1.39-.38-.93-.23-1.58-.51-1.96-.85-.53-.47-.79-1.05-.79-1.73 0-.44.12-.85.37-1.23S17.52.5 17.98.3s1.04-.3 1.7-.3c1.08 0 1.89.24 2.43.71s.83 1.1.86 1.89l-1.73.08c-.08-.44-.24-.76-.48-.95s-.61-.29-1.1-.29c-.5 0-.9.1-1.18.31-.18.13-.28.31-.28.53 0 .2.09.38.26.52.22.18.75.38 1.59.57s1.47.41 1.87.62.72.5.95.87.34.83.34 1.37c0 .49-.14.95-.41 1.38s-.66.75-1.16.96-1.12.31-1.87.31c-1.09 0-1.92-.25-2.5-.75s-.93-1.23-1.04-2.19z"/>
      <path d="M24.68 8.74V.15h1.73v3.38h3.4V.15h1.73v8.59h-1.73V4.98h-3.4v3.76h-1.73z"/>
    <path d="M21.3 15.57h-13c-.83 0-1.5-.67-1.5-1.5v0c0-.83.67-1.5 1.5-1.5h13c.83 0 1.5.67 1.5 1.5v0c0 .83-.67 1.5-1.5 1.5z" fill="#787878" stroke="#000" stroke-miterlimit="10"/>
    <path d="M21.3 21.57h-13c-.83 0-1.5-.67-1.5-1.5v0c0-.83.67-1.5 1.5-1.5h13c.83 0 1.5.67 1.5 1.5v0c0 .83-.67 1.5-1.5 1.5z" fill="#787878" stroke="#000" stroke-miterlimit="10"/>
</svg>
