<?xml version="1.0" encoding="utf-8"?>
<!-- Generator: Adobe Illustrator 22.1.0, SVG Export Plug-In . SVG Version: 6.00 Build 0)  -->
<svg version="1.1" id="Ebene_1" xmlns="http://www.w3.org/2000/svg" xmlns:xlink="http://www.w3.org/1999/xlink" x="0px" y="0px"
	 viewBox="0 0 100 100" style="enable-background:new 0 0 100 100;" xml:space="preserve">
<g>
	<g>
		<path d="M50,21c15.24,0,30.17,0.93,37.63,1.48C88.18,28.43,89,39.06,89,50c0,10.93-0.82,21.56-1.37,27.52
			C80.16,78.07,65.24,79,50,79c-15.14,0-29.97-0.92-37.48-1.47C11.96,69.88,11,55.75,11,50s0.96-19.88,1.52-27.53
			C20.03,21.92,34.86,21,50,21 M50,15c-22.02,0-43.09,1.89-43.09,1.89S5,41.64,5,50s1.91,33.11,1.91,33.11S27.98,85,50,85
			s43.09-1.89,43.09-1.89S95,67.03,95,50s-1.91-33.11-1.91-33.11S72.02,15,50,15L50,15z"/>
	</g>
	<g>
		<polygon points="49,79 49,20 65,20 54,79 		"/>
	</g>
</g>
</svg>
