<svg version="1.1" xmlns="http://www.w3.org/2000/svg" xmlns:xlink="http://www.w3.org/1999/xlink" x="0px" y="0px" viewBox="0 0 22 22" width="22" height="22">
  <g>
		<rect x="2" y="10" class="svg-primary" width="2" height="2"/>
		<rect x="4" y="8" class="svg-primary" width="2" height="2"/>
		<rect x="6" y="6" class="svg-primary" width="2" height="2"/>
		<rect x="8" y="4" class="svg-primary" width="2" height="2"/>
		<rect x="4" y="16" class="svg-primary" width="2" height="2"/>
		<polygon class="svg-primary" points="14,6 14,8 12,8 12,10 10,10 10,12 8,12 8,14 6,14 6,16 8,16 8,18 10,18 10,20 12,20 12,18 14,18
			14,16 16,16 16,14 18,14 18,12 20,12 20,10 18,10 18,8 16,8 16,6 		"/>
		<rect x="16" y="4" class="svg-primary" width="2" height="2"/>
		<rect x="10" y="2" class="svg-primary" width="2" height="2"/>
		<rect x="12" y="4" class="svg-primary" width="2" height="2"/>
		<rect x="4" y="12" class="svg-primary" width="2" height="2"/>
		<rect x="2" y="18" class="svg-primary" width="2" height="2"/>
		<rect x="18" y="2" class="svg-primary" width="2" height="2"/>
  </g>
</svg>
