<svg version="1.1" xmlns="http://www.w3.org/2000/svg" xmlns:xlink="http://www.w3.org/1999/xlink" x="0px" y="0px" viewBox="0 0 22 22" width="22" height="22">
  <g>
		<rect x="8" y="8" class="svg__primary" width="2" height="2"/>
		<rect x="8" y="12" class="svg__primary" width="2" height="2"/>
		<rect x="10" y="10" class="svg__primary" width="2" height="2"/>
		<rect x="2" y="10" class="svg__primary" width="6" height="2"/>
		<rect x="14" y="8" class="svg__primary" width="2" height="2"/>
		<rect x="14" y="12" class="svg__primary" width="2" height="2"/>
		<rect x="18" y="8" class="svg__primary" width="2" height="2"/>
		<rect x="18" y="12" class="svg__primary" width="2" height="2"/>
		<rect x="10" y="6" class="svg__primary" width="2" height="2"/>
		<rect x="12" y="4" class="svg__primary" width="2" height="2"/>
		<rect x="16" y="4" class="svg__primary" width="2" height="2"/>
		<rect x="10" y="14" class="svg__primary" width="2" height="2"/>
		<rect x="12" y="16" class="svg__primary" width="2" height="2"/>
		<rect x="16" y="16" class="svg__primary" width="2" height="2"/>
  </g>
</svg>
