<svg version="1.1" xmlns="http://www.w3.org/2000/svg" xmlns:xlink="http://www.w3.org/1999/xlink" x="0px" y="0px" viewBox="0 0 22 22">
	<g>
		<rect x="4" y="8" class="svg__primary" width="2" height="2"/>
		<rect x="16" y="8" class="svg__primary" width="2" height="2"/>
		<rect x="14" y="10" class="svg__primary" width="2" height="2"/>
		<rect x="14" y="6" class="svg__primary" width="2" height="2"/>
		<rect x="12" y="4" class="svg__primary" width="2" height="2"/>
		<rect x="12" y="12" class="svg__primary" width="2" height="2"/>
		<rect x="6" y="10" class="svg__primary" width="2" height="2"/>
		<rect x="6" y="6" class="svg__primary" width="2" height="2"/>
		<rect x="8" y="4" class="svg__primary" width="2" height="2"/>
		<polygon class="svg__primary" points="10,12 8,12 8,14 8,18 4,18 4,20 8,20 10,20 12,20 12,18 10,18 10,16 12,16 12,14 10,14"/>
		<rect x="10" y="2" class="svg__primary" width="2" height="2"/>
	</g>
</svg>
