<svg version="1.1" xmlns="http://www.w3.org/2000/svg" xmlns:xlink="http://www.w3.org/1999/xlink" x="0px" y="0px" viewBox="0 0 22 22">
	<g>
		<rect x="2" y="2" class="svg__primary" width="2" height="6"/>
		<rect x="8" y="2" class="svg__primary" width="2" height="6"/>
		<rect x="4" y="8" class="svg__primary" width="4" height="2"/>
		<rect x="14" y="12" class="svg__primary" width="4" height="2"/>
		<rect x="14" y="18" class="svg__primary" width="4" height="2"/>
		<rect x="12" y="14" class="svg__primary" width="2" height="4"/>
		<rect x="18" y="14" class="svg__primary" width="2" height="4"/>
		<polygon class="svg__primary" points="18,2 18,6 16,6 16,8 18,8 18,10 20,10 20,2 			"/>
		<polygon class="svg__primary" points="14,4 14,2 12,2 12,10 14,10 14,6 16,6 16,4 			"/>
		<rect x="8" y="14" class="svg__primary" width="2" height="4"/>
		<polygon class="svg__primary" points="4,14 8,14 8,12 2,12 2,14 2,18 2,20 8,20 8,18 4,18 			"/>
	</g>
</svg>
