<svg version="1.1" xmlns="http://www.w3.org/2000/svg" xmlns:xlink="http://www.w3.org/1999/xlink" x="0px" y="0px" viewBox="0 0 22 22">
  <g>
    <rect x="16" y="4" class="svg__primary" width="2" height="2"/>
    <rect x="18" y="2" class="svg__primary" width="2" height="2"/>
    <rect x="2" y="18" class="svg__primary" width="2" height="2"/>
    <rect x="4" y="16" class="svg__primary" width="2" height="2"/>
    <rect x="2" y="10" class="svg__primary" width="2" height="2"/>
    <rect x="4" y="8" class="svg__primary" width="2" height="2"/>
    <rect x="4" y="12" class="svg__primary" width="2" height="2"/>
    <polygon class="svg__primary" points="6,6 6,8 12,8 12,10 10,10 10,12 8,12 8,14 6,14 6,16 16,16 16,14 18,14 18,12 20,12 20,10 18,10
			18,8 16,8 16,6 		"/>
  </g>
</svg>
