<svg  xmlns="http://www.w3.org/2000/svg" x="0" y="0" viewBox="0 0 100 100">
  <path d="M50 31c10.48 0 19 8.52 19 19s-8.52 19-19 19-19-8.52-19-19 8.52-19 19-19m0-6c-13.81 0-25 11.19-25 25s11.19 25 25 25 25-11.19 25-25-11.19-25-25-25z"/>
  <path d="M50 100c-1.66 0-3-1.34-3-3V83c0-1.66 1.34-3 3-3s3 1.34 3 3v14c0 1.66-1.34 3-3 3z"/>
  <path d="M50 20c-1.66 0-3-1.34-3-3V3c0-1.66 1.34-3 3-3s3 1.34 3 3v14c0 1.66-1.34 3-3 3z"/>
  <path d="M85.36 85.36c-1.17 1.17-3.07 1.17-4.24 0l-9.9-9.9c-1.17-1.17-1.17-3.07 0-4.24 1.17-1.17 3.07-1.17 4.24 0l9.9 9.9c1.17 1.16 1.17 3.06 0 4.24z"/>
  <path d="M28.79 28.79c-1.17 1.17-3.07 1.17-4.24 0l-9.9-9.9c-1.17-1.17-1.17-3.07 0-4.24 1.17-1.17 3.07-1.17 4.24 0l9.9 9.9c1.17 1.17 1.17 3.07 0 4.24z"/>
  <path d="M14.64 85.36c-1.17-1.17-1.17-3.07 0-4.24l9.9-9.9c1.17-1.17 3.07-1.17 4.24 0 1.17 1.17 1.17 3.07 0 4.24l-9.9 9.9c-1.16 1.17-3.06 1.17-4.24 0z"/>
  <path d="M71.21 28.79c-1.17-1.17-1.17-3.07 0-4.24l9.9-9.9c1.17-1.17 3.07-1.17 4.24 0 1.17 1.17 1.17 3.07 0 4.24l-9.9 9.9c-1.17 1.17-3.07 1.17-4.24 0z"/>
  <path d="M100 50c0 1.66-1.34 3-3 3H83c-1.66 0-3-1.34-3-3s1.34-3 3-3h14c1.66 0 3 1.34 3 3z"/>
  <path d="M20 50c0 1.66-1.34 3-3 3H3c-1.66 0-3-1.34-3-3s1.34-3 3-3h14c1.66 0 3 1.34 3 3z"/>
</svg>
