<svg viewBox="0 0 100 100" fill="none" xmlns="http://www.w3.org/2000/svg">
<path d="M50 6C74.26 6 94 25.74 94 50C94 74.26 74.26 94 50 94C25.74 94 6 74.26 6 50C6 25.74 25.74 6 50 6ZM50 0C22.39 0 0 22.39 0 50C0 77.61 22.39 100 50 100C77.61 100 100 77.61 100 50C100 22.39 77.61 0 50 0Z" fill="black"/>
<path d="M29 75C33.9706 75 38 70.9706 38 66C38 61.0294 33.9706 57 29 57C24.0294 57 20 61.0294 20 66C20 70.9706 24.0294 75 29 75Z" fill="black"/>
<path d="M50 38C45.0294 38 41 33.9706 41 29C41 24.0294 45.0294 20 50 20V38Z" fill="black"/>
<path fill-rule="evenodd" clip-rule="evenodd" d="M50 0C77.61 0 100 22.39 100 50C100 77.61 77.61 100 50 100V38C54.9706 38 59 33.9706 59 29C59 24.0294 54.9706 20 50 20V0ZM71 57C66.0294 57 62 61.0294 62 66C62 70.9706 66.0294 75 71 75C75.9706 75 80 70.9706 80 66C80 61.0294 75.9706 57 71 57Z" fill="black"/>
</svg>
