<svg viewBox="0 0 100 70" fill="none" xmlns="http://www.w3.org/2000/svg">
<path d="M45 6C60.24 6 75.17 6.93 82.63 7.48C83.18 13.43 84 24.06 84 35C84 45.93 83.18 56.56 82.63 62.52C75.16 63.07 60.24 64 45 64C29.86 64 15.03 63.08 7.52 62.53C6.96 54.88 6 40.75 6 35C6 29.25 6.96 15.12 7.52 7.47C15.03 6.92 29.86 6 45 6ZM45 0C22.98 0 1.91 1.89 1.91 1.89C1.91 1.89 0 26.64 0 35C0 43.36 1.91 68.11 1.91 68.11C1.91 68.11 22.98 70 45 70C67.02 70 88.09 68.11 88.09 68.11C88.09 68.11 90 52.03 90 35C90 17.97 88.09 1.89 88.09 1.89C88.09 1.89 67.02 0 45 0Z" fill="black"/>
<path d="M65 17.9C76.11 17.9 87 18.43 93.08 18.78C93.5 22.7 94 28.76 94 35C94 41.22 93.49 47.29 93.08 51.22C87.01 51.58 76.12 52.1 65 52.1C53.98 52.1 43.17 51.58 37.06 51.23C36.62 46.17 36 38.33 36 35C36 31.67 36.62 23.83 37.06 18.77C43.16 18.42 53.97 17.9 65 17.9ZM65 12.5C47.87 12.5 31.49 13.72 31.49 13.72C31.49 13.72 30 29.63 30 35C30 40.37 31.49 56.28 31.49 56.28C31.49 56.28 47.87 57.5 65 57.5C82.13 57.5 98.51 56.28 98.51 56.28C98.51 56.28 100 45.94 100 35C100 24.06 98.51 13.72 98.51 13.72C98.51 13.72 82.13 12.5 65 12.5Z" fill="black"/>
</svg>
