<svg width="22" height="22" viewBox="0 0 22 22" fill="currentcolor" xmlns="http://www.w3.org/2000/svg">
<path d="M8 4H14V6H8V4Z"/>
<path d="M6 20H16V22H6V20Z"/>
<path d="M8 16H14V18H8V16Z"/>
<path d="M4 8H6V14H4V8Z"/>
<path d="M16 8H18V14H16V8Z"/>
<path d="M20 6H22V16H20V6Z"/>
<path d="M0 6H2V16H0V6Z"/>
<path d="M14 6H16V8H14V6Z"/>
<path d="M18 4H20V6H18V4Z"/>
<path d="M16 2H18V4H16V2Z"/>
<path d="M4 2H6V4H4V2Z"/>
<path d="M2 4H4V6H2V4Z"/>
<path d="M2 16H4V18H2V16Z"/>
<path d="M4 18H6V20H4V18Z"/>
<path d="M6 0H16V2H6V0Z"/>
<path d="M6 6H8V8H6V6Z"/>
<path d="M6 14H8V16H6V14Z"/>
<path d="M16 18H18V20H16V18Z"/>
<path d="M18 16H20V18H18V16Z"/>
<path d="M14 14H16V16H14V14Z"/>
<path d="M10 10H12V12H10V10Z"/>
</svg>
