<?xml version="1.0" encoding="utf-8"?>
<!-- Generator: Adobe Illustrator 22.1.0, SVG Export Plug-In . SVG Version: 6.00 Build 0)  -->
<svg version="1.1" id="Ebene_1" xmlns="http://www.w3.org/2000/svg" xmlns:xlink="http://www.w3.org/1999/xlink" x="0px" y="0px"
	 viewBox="0 0 260 262" style="enable-background:new 0 0 260 262;" xml:space="preserve">
<g>
	<polygon points="258,24 258,22 256,22 256,20 254,20 254,18 252,18 252,16 250,16 250,14 248,14 248,12 246,12 246,10 244,10 
		244,8 242,8 242,6 240,6 240,4 238,4 238,2 236,2 236,0 48,0 48,88 46,88 46,90 42,90 42,92 38,92 38,94 34,94 34,96 32,96 32,98 
		30,98 30,102 28,102 28,106 26,106 26,110 24,110 24,116 22,116 22,120 20,120 20,122 18,122 18,124 14,124 14,126 12,126 12,128 
		10,128 10,130 8,130 8,132 6,132 6,136 4,136 4,138 2,138 2,142 0,142 0,200 2,200 2,262 104,262 104,240 106,240 106,238 110,238 
		110,236 114,236 114,234 118,234 118,232 120,232 120,230 122,230 122,226 124,226 124,224 126,224 126,220 128,220 128,218 
		130,218 130,214 132,214 132,212 136,212 136,210 138,210 138,208 140,208 140,206 142,206 142,204 144,204 144,200 146,200 
		146,198 148,198 148,194 150,194 150,190 152,190 152,186 154,186 154,182 156,182 156,172 260,172 260,24 	"/>
	<polygon points="188,182 192,182 192,184 190,184 190,186 188,186 188,188 186,188 186,190 184,190 184,192 182,192 182,182 
		184,182 184,180 174,180 174,182 176,182 176,200 182,200 182,198 184,198 184,196 186,196 186,194 188,194 188,192 190,192 
		190,190 192,190 192,188 194,188 194,186 196,186 196,184 198,184 198,182 202,182 202,180 188,180 	"/>
	<polygon points="218,180 212,180 212,182 210,182 210,184 208,184 208,186 212,186 212,196 208,196 208,200 222,200 222,196 
		218,196 	"/>
	<rect x="226" y="196" width="4" height="4"/>
	<polygon points="252,182 250,182 250,180 238,180 238,182 236,182 236,184 234,184 234,186 242,186 242,184 246,184 246,188 
		242,188 242,192 246,192 246,196 242,196 242,194 234,194 234,196 236,196 236,198 238,198 238,200 250,200 250,198 252,198 
		252,196 254,196 254,194 252,194 252,192 250,192 250,188 252,188 252,186 254,186 254,184 252,184 	"/>
</g>
<g>
	<polygon style="fill:#7777CC;" points="252,24 252,22 250,22 250,20 248,20 248,18 246,18 246,16 244,16 244,14 242,14 242,12 
		240,12 240,10 238,10 238,8 236,8 236,6 234,6 233,4 210,4 210,48 98,48 98,4 54,4 54,122 58,122 58,120 60,120 60,118 64,118 
		64,116 66,116 66,114 68,114 68,112 72,112 72,92 86,92 86,88 108,88 108,90 110,90 110,92 238,92 238,168 254,168 254,24 	"/>
	<rect x="180" y="12" style="fill:#7777CC;" width="12" height="22"/>
</g>
<g>
	<polygon style="fill:#FFFFFF;" points="116,96 116,120 114,120 114,122 112,122 112,124 110,124 110,126 106,126 106,128 104,128 
		104,130 102,130 102,132 100,132 100,134 98,134 98,136 96,136 96,138 94,138 94,140 90,140 90,142 88,142 88,144 86,144 86,166 
		88,166 88,168 232,168 232,96 	"/>
	<polygon style="fill:#FFFFFF;" points="80,100 82,100 82,96 78,96 78,102 80,102 	"/>
	<polygon style="fill:#FFFFFF;" points="92,172 90,172 90,178 94,178 94,176 96,176 96,174 93,174 	"/>
	<polygon style="fill:#FFFFFF;" points="116,186 116,184 118,184 118,182 120,182 120,180 122,180 122,178 124,178 124,176 126,176 
		126,174 128,174 128,172 96,172 96,174 100,174 100,176 104,176 104,178 106,178 106,180 108,180 108,182 110,182 110,184 112,184 
		112,186 	"/>
	<polygon style="fill:#FFFFFF;" points="138,174 136,174 136,176 134,176 134,178 132,178 132,180 130,180 130,182 128,182 128,184 
		126,184 126,186 124,186 124,188 122,188 122,190 120,190 120,192 124,192 124,190 130,190 130,192 134,192 134,194 136,194 
		136,196 138,196 138,200 136,200 136,204 140,204 140,200 142,200 142,198 144,198 144,194 146,194 146,190 148,190 148,186 
		150,186 150,182 152,182 152,172 138,172 	"/>
	<polygon style="fill:#FFFFFF;" points="134,196 134,194 130,194 130,192 124,192 124,194 120,194 120,200 122,200 122,204 130,204 
		130,202 134,202 134,200 136,200 136,196 	"/>
	<rect x="88" y="182" style="fill:#FFFFFF;" width="2" height="8"/>
	<polygon style="fill:#FFFFFF;" points="102,192 108,192 108,188 110,188 110,186 108,186 108,184 106,184 106,182 104,182 104,180 
		96,180 96,182 92,182 92,188 94,188 94,190 102,190 	"/>
	<rect x="90" y="190" style="fill:#FFFFFF;" width="4" height="2"/>
	<rect x="94" y="192" style="fill:#FFFFFF;" width="8" height="2"/>
	<rect x="130" y="204" style="fill:#FFFFFF;" width="4" height="2"/>
	<polygon style="fill:#FFFFFF;" points="130,208 130,212 132,212 132,210 136,210 136,208 138,208 138,206 134,206 134,208 	"/>
	<rect x="116" y="200" style="fill:#FFFFFF;" width="2" height="2"/>
	<rect x="104" y="236" style="fill:#FFFFFF;" width="2" height="2"/>
	<polygon style="fill:#FFFFFF;" points="120,206 120,204 118,204 118,206 119,206 	"/>
	<polygon style="fill:#FFFFFF;" points="120,208 118,208 118,206 116,206 116,202 114,202 114,200 112,200 112,196 94,196 94,194 
		90,194 90,210 88,210 88,212 86,212 86,214 84,214 84,216 82,216 82,218 80,218 80,220 66,220 66,258 100,258 100,236 104,236 
		104,234 110,234 110,232 114,232 114,230 118,230 118,226 120,226 120,224 122,224 122,220 124,220 124,218 126,218 126,214 
		128,214 128,210 120,210 	"/>
	<rect x="120" y="206" style="fill:#FFFFFF;" width="2" height="2"/>
	<polygon style="fill:#FFFFFF;" points="102,92 94,92 94,90 88,90 88,94 86,94 86,100 84,100 84,104 86,104 86,106 88,106 88,108 
		90,108 90,110 104,110 104,94 102,94 	"/>
	<rect x="38" y="134" style="fill:#FFFFFF;" width="2" height="2"/>
	<polygon style="fill:#FFFFFF;" points="80,214 82,214 82,212 84,212 84,210 86,210 86,170 84,170 84,166 82,166 82,144 84,144 
		84,142 86,142 86,140 88,140 88,138 92,138 92,136 94,136 94,134 96,134 96,132 98,132 98,130 100,130 100,128 102,128 102,126 
		104,126 104,124 108,124 108,122 110,122 110,120 112,120 112,94 108,94 108,92 104,92 104,94 106,94 106,96 108,96 108,112 
		106,112 106,114 90,114 90,112 88,112 88,110 86,110 86,108 84,108 84,110 82,110 82,112 78,112 78,114 76,114 76,116 74,116 
		74,118 70,118 70,120 68,120 68,122 66,122 66,124 62,124 62,126 58,126 58,128 54,128 54,130 50,130 50,132 46,132 46,134 42,134 
		42,136 40,136 40,138 36,138 36,140 34,140 34,142 32,142 32,144 28,144 28,146 26,146 26,148 24,148 24,150 20,150 20,152 18,152 
		18,148 20,148 20,146 22,146 22,144 26,144 26,142 28,142 28,140 30,140 30,138 34,138 34,136 36,136 36,134 38,134 38,132 40,132 
		40,130 34,130 34,128 32,128 32,126 30,126 30,124 28,124 28,122 30,122 30,124 34,124 34,126 38,126 38,128 44,128 44,126 48,126 
		48,92 44,92 44,94 42,94 42,96 38,96 38,98 34,98 34,102 32,102 32,106 30,106 30,110 28,110 28,114 26,114 26,120 24,120 24,122 
		22,122 22,124 20,124 20,126 16,126 16,128 14,128 14,130 12,130 12,132 10,132 10,136 8,136 8,138 6,138 6,142 4,142 4,198 6,198 
		6,258 62,258 62,216 80,216 	"/>
	<rect x="30" y="140" style="fill:#FFFFFF;" width="2" height="2"/>
	<rect x="22" y="146" style="fill:#FFFFFF;" width="2" height="2"/>
</g>
<path style="fill:#BBBBBB;" d="M104,4v40h100V4H104z M198,38h-24V8h24V38z"/>
<g>
	<polygon style="fill:#7777CC;" points="130,118 130,116 126,116 126,114 122,114 122,116 124,116 124,118 	"/>
	<polygon style="fill:#7777CC;" points="132,122 138,122 138,120 136,120 136,114 138,114 138,110 140,110 140,108 130,108 130,110 
		132,110 132,114 130,114 130,116 132,116 	"/>
	<polygon style="fill:#7777CC;" points="152,112 154,112 154,110 158,110 158,108 144,108 144,110 148,110 148,112 146,112 146,114 
		152,114 	"/>
	<polygon style="fill:#7777CC;" points="144,118 154,118 154,116 156,116 156,112 154,112 154,114 152,114 152,116 146,116 146,114 
		142,114 142,116 144,116 	"/>
	<polygon style="fill:#7777CC;" points="162,118 174,118 174,108 168,108 168,110 166,110 166,112 170,112 170,116 164,116 164,112 
		160,112 160,116 162,116 	"/>
	<path style="fill:#7777CC;" d="M178,116h2v2h10v-2h2v-4h-14V116z M182,114h6v2h-6V114z"/>
	<polygon style="fill:#7777CC;" points="210,120 210,112 208,112 208,110 206,110 206,108 194,108 194,110 192,110 192,112 196,112 
		196,116 198,116 198,118 204,118 204,116 200,116 200,112 206,112 206,114 204,114 204,116 206,116 206,122 212,122 212,120 	"/>
	<polygon style="fill:#7777CC;" points="198,130 196,130 196,132 192,132 192,130 190,130 190,128 186,128 186,142 190,142 190,134 
		192,134 192,136 196,136 196,134 198,134 198,142 202,142 202,128 198,128 	"/>
	<path style="fill:#7777CC;" d="M180,128h-10v2h-2v6h2v2h10v-2h2v-6h-2V128z M178,136h-6v-6h6V136z"/>
	<polygon style="fill:#7777CC;" points="156,130 158,130 158,134 156,134 156,136 158,136 158,138 164,138 164,136 162,136 162,130 
		164,130 164,128 156,128 	"/>
	<polygon style="fill:#7777CC;" points="152,132 148,132 148,136 150,136 150,138 156,138 156,136 152,136 	"/>
	<polygon style="fill:#7777CC;" points="140,132 136,132 136,130 134,130 134,128 130,128 130,130 132,130 132,132 134,132 134,134 
		132,134 132,136 130,136 130,138 134,138 134,136 136,136 136,134 140,134 140,142 146,142 146,140 144,140 144,130 146,130 
		146,128 140,128 	"/>
</g>
<g>
	<path style="fill:#BBBBBB;" d="M146,160v-2h2v-6h-2v-2h-4v-2h-24v2h2v2h-8v-2h2v-2h-12v2h4v14h6v-2h2v-2h2v-2h2v-2h2v-2h2v-2h2v-2
		h4v4h-2v2h10v-2h-2v-4h2v2h2v2h2v4h-2v2h-2v2h-4v-2h-2v-2h-2v6h14v-2h2v-2H146z M116,156h-2v2h-2v-4h4V156z"/>
	<path style="fill:#BBBBBB;" d="M210,148v2h2v2h-8v-2h2v-2h-20v2h4v2h-2v2h-2v2h-2v-8h-6v4h-2v2h-2v2h-2v-4h2v-2h2v-2h-28v2h4v6h-2
		v4h-4v2h-2v2h28v-2h2v-2h2v-2h2v6h10v-2h-2v-4h2v-2h2v-2h2v-2h4v-2h2v14h6v-2h2v-2h2v-2h2v-2h2v-2h2v-2h2v-2h4v-2H210z M166,156h-2
		v4h-2v2h-8v-2h2v-4h2v-4h2v-2h6V156z M208,156h-2v2h-2v-4h4V156z"/>
</g>
<g>
	<polygon points="108,164 110,164 110,162 112,162 112,160 114,160 114,158 108,158 	"/>
	<polygon points="140,160 138,160 138,162 142,162 142,160 144,160 144,158 140,158 	"/>
	<polygon points="130,158 128,158 128,164 138,164 138,162 130,162 	"/>
	<polygon points="154,158 150,158 150,162 146,162 146,164 156,164 156,162 154,162 	"/>
	<polygon points="170,160 168,160 168,158 164,158 164,162 162,162 162,164 170,164 170,162 172,162 172,160 174,160 174,158 
		170,158 	"/>
	<polygon points="178,164 186,164 186,162 184,162 184,160 186,160 186,158 178,158 	"/>
	<polygon points="200,158 200,164 202,164 202,162 204,162 204,160 206,160 206,158 	"/>
</g>
</svg>
