<?xml version="1.0" encoding="utf-8"?>
<!-- Generator: Adobe Illustrator 27.7.0, SVG Export Plug-In . SVG Version: 6.00 Build 0)  -->
<svg version="1.1" id="Ebene_1" xmlns="http://www.w3.org/2000/svg" xmlns:xlink="http://www.w3.org/1999/xlink" x="0px" y="0px"
	 viewBox="0 0 900 815" style="enable-background:new 0 0 900 815;" xml:space="preserve">
<g>
	<g>
		<g>
			<path style="fill:#AEA59F;" d="M887,5H13c-4.4,0-8,3.6-8,8v764c0,4.4,3.6,8,8,8h874c4.4,0,8-3.6,8-8V13C895,8.6,891.4,5,887,5z
				 M790,638c0,0-170,15-340,15s-340-15-340-15s-10-134-10-268s10-268,10-268s170-15,340-15s340,15,340,15s10,134,10,268
				S790,638,790,638z"/>
		</g>
		<path style="fill:#928C7F;" d="M25,25v690h850V25H25z M790,638c0,0-170,15-340,15s-340-15-340-15s-10-134-10-268s10-268,10-268
			s170-15,340-15s340,15,340,15s10,134,10,268S790,638,790,638z"/>
		<path style="fill:#837C72;" d="M35,35v670h830V35H35z M790,638c0,0-170,15-340,15s-340-15-340-15s-10-134-10-268s10-268,10-268
			s170-15,340-15s340,15,340,15s10,134,10,268S790,638,790,638z"/>
		<path style="fill:#615A52;" d="M813,72H87c-4.4,0-8,3.6-8,8v580c0,4.4,3.6,8,8,8h726c4.4,0,8-3.6,8-8V80C821,75.6,817.4,72,813,72
			z M790,638c0,0-170,15-340,15s-340-15-340-15s-10-134-10-268s10-268,10-268s170-15,340-15s340,15,340,15s10,134,10,268
			S790,638,790,638z"/>
		<g>
			<path style="opacity:0.1;fill:#FFFFFF;enable-background:new    ;" d="M818.6,74.3L790,102c0,0,10,134,10,268s-10,268-10,268
				l28.6,27.7c1.5-1.5,2.4-3.5,2.4-5.7V80C821,77.8,820.1,75.8,818.6,74.3z"/>
			<path style="opacity:0.2;enable-background:new    ;" d="M110,102c0,0,170-15,340-15s340,15,340,15l28.6-27.7
				c-1.5-1.4-3.4-2.3-5.6-2.3H87c-2.2,0-4.2,0.9-5.6,2.3L110,102z"/>
			<path style="opacity:0.1;enable-background:new    ;" d="M81.4,665.7L110,638c0,0-10-134-10-268s10-268,10-268L81.4,74.3
				C79.9,75.8,79,77.8,79,80v580C79,662.2,79.9,664.2,81.4,665.7z"/>
			<path style="opacity:0.1;fill:#FFFFFF;enable-background:new    ;" d="M790,638c0,0-170,15-340,15s-340-15-340-15l-28.6,27.7
				c1.4,1.4,3.4,2.3,5.6,2.3h726c2.2,0,4.2-0.9,5.6-2.3L790,638z"/>
			<g>

					<linearGradient id="SVGID_1_" gradientUnits="userSpaceOnUse" x1="670.5718" y1="283.6132" x2="964.642" y2="610.2111" gradientTransform="matrix(1 0 0 -1 0 816)">
					<stop  offset="0.5" style="stop-color:#000000;stop-opacity:0"/>
					<stop  offset="1" style="stop-color:#000000;stop-opacity:0.4"/>
				</linearGradient>
				<path style="fill:url(#SVGID_1_);" d="M818.6,74.3L790,102c0,0,10,134,10,268s-10,268-10,268l28.6,27.7c1.5-1.5,2.4-3.5,2.4-5.7
					V80C821,77.8,820.1,75.8,818.6,74.3z"/>

					<linearGradient id="SVGID_00000017495171873688654080000007288953089996179870_" gradientUnits="userSpaceOnUse" x1="284.9501" y1="924.9966" x2="615.9993" y2="557.3291" gradientTransform="matrix(1 0 0 -1 0 816)">
					<stop  offset="0" style="stop-color:#000000;stop-opacity:0.4"/>
					<stop  offset="0.5" style="stop-color:#000000;stop-opacity:0"/>
				</linearGradient>
				<path style="fill:url(#SVGID_00000017495171873688654080000007288953089996179870_);" d="M110,102c0,0,170-15,340-15
					s340,15,340,15l28.6-27.7c-1.5-1.4-3.4-2.3-5.6-2.3H87c-2.2,0-4.2,0.9-5.6,2.3L110,102z"/>

					<linearGradient id="SVGID_00000168806588890896385680000010558580785952247481_" gradientUnits="userSpaceOnUse" x1="-66.2327" y1="297.9224" x2="229.9224" y2="594.0776" gradientTransform="matrix(1 0 0 -1 0 816)">
					<stop  offset="0" style="stop-color:#000000;stop-opacity:0.4"/>
					<stop  offset="0.5" style="stop-color:#000000;stop-opacity:0"/>
				</linearGradient>
				<path style="fill:url(#SVGID_00000168806588890896385680000010558580785952247481_);" d="M81.4,665.7L110,638c0,0-10-134-10-268
					s10-268,10-268L81.4,74.3C79.9,75.8,79,77.8,79,80v580C79,662.2,79.9,664.2,81.4,665.7z"/>

					<linearGradient id="SVGID_00000002370749016012512710000008556382444181884089_" gradientUnits="userSpaceOnUse" x1="265.69" y1="334.62" x2="634.31" y2="-34" gradientTransform="matrix(1 0 0 -1 0 816)">
					<stop  offset="0.5" style="stop-color:#000000;stop-opacity:0"/>
					<stop  offset="1" style="stop-color:#000000;stop-opacity:0.4"/>
				</linearGradient>
				<path style="fill:url(#SVGID_00000002370749016012512710000008556382444181884089_);" d="M790,638c0,0-170,15-340,15
					s-340-15-340-15l-28.6,27.7c1.4,1.4,3.4,2.3,5.6,2.3h726c2.2,0,4.2-0.9,5.6-2.3L790,638z"/>

					<linearGradient id="SVGID_00000139982484290108472950000013588072294785966519_" gradientUnits="userSpaceOnUse" x1="284.9501" y1="924.9966" x2="615.9993" y2="557.3291" gradientTransform="matrix(1 0 0 -1 0 816)">
					<stop  offset="0.5" style="stop-color:#000000;stop-opacity:0"/>
					<stop  offset="1" style="stop-color:#000000;stop-opacity:0.4"/>
				</linearGradient>
				<path style="fill:url(#SVGID_00000139982484290108472950000013588072294785966519_);" d="M110,102c0,0,170-15,340-15
					s340,15,340,15l28.6-27.7c-1.5-1.4-3.4-2.3-5.6-2.3H87c-2.2,0-4.2,0.9-5.6,2.3L110,102z"/>

					<linearGradient id="SVGID_00000087393841810753776190000017763248637707601322_" gradientUnits="userSpaceOnUse" x1="670.5718" y1="283.6132" x2="964.642" y2="610.2111" gradientTransform="matrix(1 0 0 -1 0 816)">
					<stop  offset="0" style="stop-color:#000000;stop-opacity:0.4"/>
					<stop  offset="0.5" style="stop-color:#000000;stop-opacity:0"/>
				</linearGradient>
				<path style="fill:url(#SVGID_00000087393841810753776190000017763248637707601322_);" d="M818.6,74.3L790,102c0,0,10,134,10,268
					s-10,268-10,268l28.6,27.7c1.5-1.5,2.4-3.5,2.4-5.7V80C821,77.8,820.1,75.8,818.6,74.3z"/>

					<linearGradient id="SVGID_00000166654853922535319390000017734520837421394353_" gradientUnits="userSpaceOnUse" x1="265.69" y1="334.62" x2="634.31" y2="-34" gradientTransform="matrix(1 0 0 -1 0 816)">
					<stop  offset="0" style="stop-color:#000000;stop-opacity:0.4"/>
					<stop  offset="0.5" style="stop-color:#000000;stop-opacity:0"/>
				</linearGradient>
				<path style="fill:url(#SVGID_00000166654853922535319390000017734520837421394353_);" d="M790,638c0,0-170,15-340,15
					s-340-15-340-15l-28.6,27.7c1.4,1.4,3.4,2.3,5.6,2.3h726c2.2,0,4.2-0.9,5.6-2.3L790,638z"/>

					<linearGradient id="SVGID_00000124860929729464985180000017651206278915690138_" gradientUnits="userSpaceOnUse" x1="-66.2327" y1="297.9224" x2="229.9224" y2="594.0776" gradientTransform="matrix(1 0 0 -1 0 816)">
					<stop  offset="0.5" style="stop-color:#000000;stop-opacity:0"/>
					<stop  offset="1" style="stop-color:#000000;stop-opacity:0.4"/>
				</linearGradient>
				<path style="fill:url(#SVGID_00000124860929729464985180000017651206278915690138_);" d="M81.4,665.7L110,638c0,0-10-134-10-268
					s10-268,10-268L81.4,74.3C79.9,75.8,79,77.8,79,80v580C79,662.2,79.9,664.2,81.4,665.7z"/>
			</g>
		</g>
		<path style="fill:#9D958A;" d="M70,785h760v25H70V785z"/>
		<path style="fill:#7E776E;" d="M887,5c4.4,0,8,3.6,8,8v764c0,4.4-3.6,8-8,8H13c-4.4,0-8-3.6-8-8V13c0-4.4,3.6-8,8-8H887 M887,0H13
			C5.8,0,0,5.8,0,13v764c0,7.2,5.8,13,13,13h874c7.2,0,13-5.8,13-13V13C900,5.8,894.2,0,887,0z"/>
		<path style="opacity:0.3;enable-background:new    ;" d="M70,790h760v5H70V790z"/>
	</g>
	<g>
		<path style="opacity:0.2;enable-background:new    ;" d="M25,25h850v2H25V25z"/>
		<path style="opacity:0.2;enable-background:new    ;" d="M33,33h834v2H33V33z"/>
		<path style="opacity:0.2;enable-background:new    ;" d="M25,27h2v686h-2V27z"/>
		<path style="opacity:0.2;enable-background:new    ;" d="M873,27h2v686h-2V27z"/>
		<path style="opacity:0.2;enable-background:new    ;" d="M25,713h850v2H25V713z"/>
		<path style="opacity:0.2;enable-background:new    ;" d="M33,705h834v2H33V705z"/>
		<path style="opacity:0.2;enable-background:new    ;" d="M33,35h2v670h-2V35z"/>
		<path style="opacity:0.2;enable-background:new    ;" d="M865,35h2v670h-2V35z"/>
		<path style="opacity:0.2;enable-background:new    ;" d="M835,790h-5v20H70v-20H40v5h25v20h770v-20h25v-5H835z"/>
	</g>
	<g id="ScreenControls">
		<path style="opacity:0.2;enable-background:new    ;" d="M343,715h2v70h-2V715z"/>
		<g id="ScreenBlendeInner_1_">
			<path style="opacity:0.3;enable-background:new    ;" d="M345,715h406v70H345V715z"/>
			<path style="opacity:0.3;enable-background:new    ;" d="M753,715h66v70h-66V715z"/>
			<path style="opacity:0.1;enable-background:new    ;" d="M345,715v70h406v-70H345z M748,782H348v-64h400V782z"/>
			<path style="fill:#757066;" d="M343,713v74h410v-74H343z M751,785H345v-70h406V785z"/>
			<path style="opacity:0.1;enable-background:new    ;" d="M753,715v70h66v-70H753z M816,782h-60v-64h60V782z"/>
			<g>
				<path style="fill:#757066;" d="M751,715h2v70h-2V715z"/>
				<path style="fill:#757066;" d="M819,715h2v70h-2V715z"/>
				<path style="fill:#757066;" d="M753,785h68v2h-68V785z"/>
			</g>
			<path style="fill:#757066;" d="M751,713v74h70v-74H751z M819,785h-66v-70h66V785z"/>
		</g>
		<g id="ScreenLogo_2_">
			<path style="opacity:0.2;fill:#FFFFFF;enable-background:new    ;" d="M25.3,738.9h133.6v31.2H25.3V738.9z"/>
			<path style="fill:#2C5AA0;" d="M68.8,743.1c-0.3,0.3-0.6,0.6-0.9,0.8h3.3l0.2-0.8H68.8z M84.5,743.1c-1.1,0-2.2,0.3-3.1,0.8h6.1
				C86.6,743.4,85.6,743.1,84.5,743.1z M101.5,743.1c-1.3,0-2.5,0.3-3.5,0.8h7.2C104.2,743.4,103,743.1,101.5,743.1z M121.2,743.2
				l-0.6,0.7h4.2l0.1-0.7H121.2z M66.5,745c-0.5,0.4-1,0.8-1.5,1.1h5.8L71,745H66.5z M79.8,745C79.7,745,79.7,745.1,79.8,745
				c-0.4,0.4-0.7,0.7-1,1.1h10.9c-0.2-0.4-0.5-0.7-0.8-1l-0.1-0.1H79.8z M96.3,745c-0.3,0.3-0.7,0.7-0.9,1.1h11.9
				c-0.2-0.4-0.5-0.8-0.8-1.1H96.3z M119.7,745l-1,1.1h5.6l0.3-1.1H119.7z M63.1,747.3c-0.7,0.4-1.4,0.7-2.2,1.1h9.4l0.2-1.1
				C70.5,747.3,63.1,747.3,63.1,747.3z M77.9,747.3c-0.2,0.4-0.4,0.7-0.6,1.1h4.5c0.1-0.2,0.3-0.5,0.4-0.6c0.1-0.2,0.3-0.3,0.4-0.5
				C82.6,747.3,77.9,747.3,77.9,747.3z M85.7,747.3C85.8,747.3,85.8,747.3,85.7,747.3c0.3,0.3,0.4,0.7,0.5,1.1h4.2
				c-0.1-0.4-0.2-0.8-0.3-1.1C90.1,747.3,85.7,747.3,85.7,747.3z M94.9,747.3c-0.1,0.4-0.2,0.7-0.3,1.1h4.1c0.1-0.4,0.3-0.7,0.6-1
				l0.1-0.1C99.4,747.3,94.9,747.3,94.9,747.3z M103.2,747.3c0.3,0.3,0.4,0.7,0.5,1.1h4.2c0-0.4-0.1-0.8-0.2-1.1H103.2z
				 M117.8,747.3l-1,1.1h7.1l0.2-1.1C124.1,747.3,117.8,747.3,117.8,747.3z M59.8,749.5l-0.3,1.1h5c0.3-0.2,0.7-0.4,1-0.6l-0.1,0.6
				h4.4l0.3-1.1H59.8L59.8,749.5z M76.8,749.5c-0.2,0.3-0.3,0.7-0.4,1.1h4.5c0.1-0.4,0.3-0.8,0.5-1.1H76.8z M86.4,749.5v0.3
				c0,0.2-0.1,0.6-0.1,0.8h4.4c0-0.4,0-0.8-0.1-1.1C90.6,749.5,86.4,749.5,86.4,749.5z M94.6,749.5c0,0.4,0.1,0.8,0.2,1.1h4
				c-0.1-0.3-0.2-0.7-0.2-1.1H94.6z M103.8,749.5c-0.1,0.4-0.3,0.8-0.6,1.1h4.2c0.2-0.4,0.3-0.7,0.3-1.1H103.8z M115.9,749.5
				l-0.9,1.1h4.2l0.2-0.3l-0.1,0.3h4.1l0.2-1.1C123.6,749.5,115.9,749.5,115.9,749.5z M59.4,751.7l-0.2,1c0.9-0.2,1.9-0.5,3-1H59.4z
				 M65.2,751.7l-0.2,1.1h4.3l0.3-1.1C69.6,751.7,65.2,751.7,65.2,751.7z M75.9,751.7c-0.1,0.4-0.2,0.7-0.3,1.1h4.5
				c0.1-0.4,0.2-0.8,0.3-1.1H75.9z M86.2,751.7c0,0.4-0.1,0.7-0.2,1.1h4.5c0-0.4,0.1-0.7,0.1-1.1H86.2z M95.3,751.7
				c0.3,0.4,0.6,0.8,1,1.1h9c0.5-0.3,1-0.7,1.4-1.1h-5.1c-0.3,0.1-0.5,0.1-0.8,0.1c-0.2,0-0.4-0.1-0.6-0.1H95.3z M114,751.7l-1,1.1
				h4.2l1-1.1H114z M119.1,751.7l-0.3,1.1h4.1l0.3-1.1H119.1z M64.7,754l-0.2,1.1h4.4l0.2-1.1H64.7z M75.4,754
				c-0.1,0.4-0.1,0.7-0.2,1.1h4.5c0.1-0.4,0.1-0.7,0.2-1.1H75.4z M85.9,754c-0.1,0.4-0.1,0.7-0.2,1.1h4.5c0.1-0.4,0.2-0.7,0.2-1.1
				H85.9z M95.5,754c-0.5,0.3-1.1,0.7-1.5,1.1h11.7c-0.3-0.4-0.7-0.8-1.1-1.1H95.5z M112.1,754l-1,1.1h4.2l1-1.1H112.1z M118.6,754
				l-0.2,1.1h4.1l0.2-1.1H118.6z M64.2,756.2l-0.2,1.1h4.4l0.2-1.1C68.6,756.2,64.2,756.2,64.2,756.2z M74.9,756.2
				c0,0.4-0.1,0.7-0.1,1.1h4.4c0-0.4,0.1-0.7,0.1-1.1H74.9z M85.4,756.2c-0.1,0.4-0.2,0.8-0.3,1.1h4.5c0.1-0.4,0.3-0.7,0.3-1.1H85.4
				z M93.2,756.2c-0.2,0.4-0.4,0.7-0.6,1.1h4.5c0.1-0.3,0.3-0.6,0.5-0.8l0.3-0.3C97.9,756.2,93.2,756.2,93.2,756.2z M102.1,756.2
				c0.2,0.3,0.4,0.7,0.4,1.1h4.2c-0.1-0.4-0.2-0.8-0.3-1.1C106.4,756.2,102.1,756.2,102.1,756.2z M110.2,756.2l-0.9,1.1h4.2l1-1.1
				C114.5,756.2,110.2,756.2,110.2,756.2z M118.2,756.2l-0.2,1.1h4.1l0.2-1.1H118.2z M63.8,758.4l-0.3,1.1h4.4l0.3-1.1H63.8z
				 M74.8,758.4c0,0.4,0,0.8,0.1,1.1h4.2v-0.3c0-0.2,0.1-0.5,0.1-0.8C79.2,758.4,74.8,758.4,74.8,758.4z M84.8,758.4
				c-0.1,0.4-0.3,0.8-0.4,1.1h4.5c0.2-0.4,0.3-0.7,0.4-1.1H84.8z M92.4,758.4c-0.1,0.4-0.1,0.7-0.1,1.1h4.3c0-0.4,0.1-0.8,0.1-1.1
				H92.4z M102.5,758.4c0,0.4,0,0.8-0.1,1.1h4.3c0.1-0.4,0.1-0.7,0.1-1.1H102.5z M109,758.4l-0.3,1.1h15.6l0.3-1.1H109L109,758.4z
				 M63.3,760.6l-0.3,1.1h4.4l0.3-1.1C67.7,760.6,63.3,760.6,63.3,760.6z M75.1,760.6c0.1,0.4,0.2,0.8,0.3,1.1h4.4l-0.1-0.1
				c-0.2-0.3-0.3-0.6-0.4-1C79.3,760.6,75.1,760.6,75.1,760.6z M83.8,760.6c-0.1,0.2-0.3,0.5-0.4,0.6l-0.5,0.5h4.8
				c0.2-0.3,0.4-0.7,0.6-1.1H83.8z M92.3,760.6c0,0.4,0.1,0.8,0.2,1.1h4.7c-0.3-0.3-0.4-0.7-0.5-1.1
				C96.7,760.6,92.3,760.6,92.3,760.6z M101.9,760.6c-0.1,0.1-0.1,0.2-0.2,0.3c-0.2,0.3-0.3,0.6-0.6,0.8h4.9
				c0.2-0.4,0.3-0.7,0.4-1.1C106.4,760.6,101.9,760.6,101.9,760.6z M108.5,760.6l-0.1,0.3h8.8l-0.1,0.8h4.1l0.1-0.8h2.7l0.1-0.3
				H108.5z M62.8,762.9l-0.2,1.1H67l0.2-1.1H62.8L62.8,762.9z M75.9,762.9c0.2,0.4,0.5,0.8,0.8,1.1H86l0.1-0.1
				c0.3-0.3,0.6-0.7,0.9-1H75.9L75.9,762.9z M93,762.9c0.2,0.4,0.4,0.8,0.8,1.1h10.4c0.4-0.3,0.7-0.7,1-1l0.1-0.1H93L93,762.9z
				 M116.8,762.9l-0.2,1.1h4.1l0.2-1.1H116.8z M62.4,765.1l-0.1,0.4h4.4l0.1-0.4H62.4z M78,765.1c0.9,0.5,1.9,0.8,3.1,0.8
				c1.1,0,2.2-0.3,3.1-0.8H78L78,765.1z M95.3,765.1c1,0.5,2.2,0.8,3.5,0.8c1.4,0,2.7-0.3,3.8-0.8H95.3z M116.3,765.1l-0.1,0.4h4.1
				l0.1-0.4H116.3z"/>
		</g>
	</g>
</g>
<path style="fill:none;stroke:#333; stroke-width: 1.5px;stroke-miterlimit:10;" d="M790,102c0,0-170-15-340-15s-340,15-340,15s-10,134-10,268
	s10,268,10,268s170,15,340,15s340-15,340-15s10-134,10-268S790,102,790,102z"/>
</svg>
