<svg version="1.1" xmlns="http://www.w3.org/2000/svg" x="0" y="0" width="900" height="815" viewBox="0 0 900 815" xml:space="preserve">
  <g>
    <g>
      <g>
        <path d="M887 5H13c-4.42 0-8 3.58-8 8v764c0 4.42 3.58 8 8 8h874c4.42 0 8-3.58 8-8V13c0-4.42-3.58-8-8-8zm-97 633s-170 15-340 15-340-15-340-15-10-134-10-268 10-268 10-268 170-15 340-15 340 15 340 15 10 134 10 268-10 268-10 268z" fill="#aea59f"/>
      </g>
      <path d="M25 25v690h850V25H25zm765 613s-170 15-340 15-340-15-340-15-10-134-10-268 10-268 10-268 170-15 340-15 340 15 340 15 10 134 10 268-10 268-10 268z" fill="#928c7f"/>
      <path d="M35 35v670h830V35H35zm755 603s-170 15-340 15-340-15-340-15-10-134-10-268 10-268 10-268 170-15 340-15 340 15 340 15 10 134 10 268-10 268-10 268z" fill="#837c72"/>
      <path d="M813 72H87c-4.42 0-8 3.58-8 8v580c0 4.42 3.58 8 8 8h726c4.42 0 8-3.58 8-8V80c0-4.42-3.58-8-8-8zm-23 566s-170 15-340 15-340-15-340-15-10-134-10-268 10-268 10-268 170-15 340-15 340 15 340 15 10 134 10 268-10 268-10 268z" fill="#615a52"/>
      <g>
        <path d="M818.62 74.31L790 102s10 134 10 268-10 268-10 268l28.62 27.69c1.47-1.45 2.38-3.46 2.38-5.69V80c0-2.23-.91-4.24-2.38-5.69z" opacity=".1" fill="#fff"/>
        <path d="M110 102s170-15 340-15 340 15 340 15l28.62-27.69C817.17 72.88 815.19 72 813 72H87c-2.19 0-4.17.88-5.62 2.31L110 102z" opacity=".2"/>
        <path d="M81.38 665.69L110 638s-10-134-10-268 10-268 10-268L81.38 74.31C79.91 75.76 79 77.77 79 80v580c0 2.23.91 4.24 2.38 5.69z" opacity=".1"/>
        <path d="M790 638s-170 15-340 15-340-15-340-15l-28.62 27.69c1.44 1.43 3.43 2.31 5.62 2.31h726c2.19 0 4.17-.88 5.62-2.31L790 638z" opacity=".1" fill="#fff"/>
        <g>
          <linearGradient id="SVGID_17_" gradientUnits="userSpaceOnUse" x1="670.5685" y1="532.3904" x2="964.6422" y2="205.7885">
            <stop offset=".5" stop-opacity="0"/>
            <stop offset="1" stop-opacity=".4"/>
          </linearGradient>
          <path d="M818.62 74.31L790 102s10 134 10 268-10 268-10 268l28.62 27.69c1.47-1.45 2.38-3.46 2.38-5.69V80c0-2.23-.91-4.24-2.38-5.69z" fill="url(#SVGID_17_)"/>
          <linearGradient id="SVGID_18_" gradientUnits="userSpaceOnUse" x1="284.9516" y1="-108.9983" x2="616.001" y2="258.6694">
            <stop offset="0" stop-opacity=".4"/>
            <stop offset=".5" stop-opacity="0"/>
          </linearGradient>
          <path d="M110 102s170-15 340-15 340 15 340 15l28.62-27.69C817.17 72.88 815.19 72 813 72H87c-2.19 0-4.17.88-5.62 2.31L110 102z" fill="url(#SVGID_18_)"/>
          <linearGradient id="SVGID_19_" gradientUnits="userSpaceOnUse" x1="-66.2327" y1="518.0776" x2="229.9224" y2="221.9224">
            <stop offset="0" stop-opacity=".4"/>
            <stop offset=".5" stop-opacity="0"/>
          </linearGradient>
          <path d="M81.38 665.69L110 638s-10-134-10-268 10-268 10-268L81.38 74.31C79.91 75.76 79 77.77 79 80v580c0 2.23.91 4.24 2.38 5.69z" fill="url(#SVGID_19_)"/>
          <linearGradient id="SVGID_20_" gradientUnits="userSpaceOnUse" x1="265.6917" y1="481.3852" x2="634.3083" y2="850.0018">
            <stop offset=".5" stop-opacity="0"/>
            <stop offset="1" stop-opacity=".4"/>
          </linearGradient>
          <path d="M790 638s-170 15-340 15-340-15-340-15l-28.62 27.69c1.44 1.43 3.43 2.31 5.62 2.31h726c2.19 0 4.17-.88 5.62-2.31L790 638z" fill="url(#SVGID_20_)"/>
          <linearGradient id="SVGID_21_" gradientUnits="userSpaceOnUse" x1="284.9516" y1="-108.9983" x2="616.001" y2="258.6694">
            <stop offset=".5" stop-opacity="0"/>
            <stop offset="1" stop-opacity=".4"/>
          </linearGradient>
          <path d="M110 102s170-15 340-15 340 15 340 15l28.62-27.69C817.17 72.88 815.19 72 813 72H87c-2.19 0-4.17.88-5.62 2.31L110 102z" fill="url(#SVGID_21_)"/>
          <linearGradient id="SVGID_22_" gradientUnits="userSpaceOnUse" x1="670.5685" y1="532.3904" x2="964.6422" y2="205.7885">
            <stop offset="0" stop-opacity=".4"/>
            <stop offset=".5" stop-opacity="0"/>
          </linearGradient>
          <path d="M818.62 74.31L790 102s10 134 10 268-10 268-10 268l28.62 27.69c1.47-1.45 2.38-3.46 2.38-5.69V80c0-2.23-.91-4.24-2.38-5.69z" fill="url(#SVGID_22_)"/>
          <linearGradient id="SVGID_23_" gradientUnits="userSpaceOnUse" x1="265.6917" y1="481.3852" x2="634.3083" y2="850.0018">
            <stop offset="0" stop-opacity=".4"/>
            <stop offset=".5" stop-opacity="0"/>
          </linearGradient>
          <path d="M790 638s-170 15-340 15-340-15-340-15l-28.62 27.69c1.44 1.43 3.43 2.31 5.62 2.31h726c2.19 0 4.17-.88 5.62-2.31L790 638z" fill="url(#SVGID_23_)"/>
          <linearGradient id="SVGID_24_" gradientUnits="userSpaceOnUse" x1="-66.2327" y1="518.0776" x2="229.9224" y2="221.9224">
            <stop offset=".5" stop-opacity="0"/>
            <stop offset="1" stop-opacity=".4"/>
          </linearGradient>
          <path d="M81.38 665.69L110 638s-10-134-10-268 10-268 10-268L81.38 74.31C79.91 75.76 79 77.77 79 80v580c0 2.23.91 4.24 2.38 5.69z" fill="url(#SVGID_24_)"/>
        </g>
      </g>
      <path fill="#9d958a" d="M70 785h760v25H70z"/>
      <path d="M887 5c4.42 0 8 3.58 8 8v764c0 4.42-3.58 8-8 8H13c-4.42 0-8-3.58-8-8V13c0-4.42 3.58-8 8-8h874m0-5H13C5.83 0 0 5.83 0 13v764c0 7.17 5.83 13 13 13h874c7.17 0 13-5.83 13-13V13c0-7.17-5.83-13-13-13z" fill="#7e776e"/>
      <path opacity=".3" d="M70 790h760v5H70z"/>
    </g>
    <g>
      <path opacity=".2" d="M25 25h850v2H25z"/>
      <path opacity=".2" d="M33 33h834v2H33z"/>
      <path opacity=".2" d="M25 27h2v686h-2z"/>
      <path opacity=".2" d="M873 27h2v686h-2z"/>
      <path opacity=".2" d="M25 713h850v2H25z"/>
      <path opacity=".2" d="M33 705h834v2H33z"/>
      <path opacity=".2" d="M33 35h2v670h-2z"/>
      <path opacity=".2" d="M865 35h2v670h-2z"/>
      <path opacity=".2" d="M835 790h-5v20H70v-20H40v5h25v20h770v-20h25v-5z"/>
    </g>
    <g id="ScreenControls">
      <path opacity=".2" d="M343 715h2v70h-2z"/>
      <g id="ScreenBlendeInner_1_">
        <path opacity=".3" d="M345 715h406v70H345z"/>
        <path opacity=".3" d="M753 715h66v70h-66z"/>
        <path d="M345 715v70h406v-70H345zm403 67H348v-64h400v64z" opacity=".1"/>
        <path d="M343 713v74h410v-74H343zm408 72H345v-70h406v70z" fill="#757066"/>
        <path d="M753 715v70h66v-70h-66zm63 67h-60v-64h60v64z" opacity=".1"/>
        <g>
          <path fill="#757066" d="M751 715h2v70h-2z"/>
          <path fill="#757066" d="M819 715h2v70h-2z"/>
          <path fill="#757066" d="M753 785h68v2h-68z"/>
        </g>
        <path d="M751 713v74h70v-74h-70zm68 72h-66v-70h66v70z" fill="#757066"/>
      </g>
      <g id="ScreenLogo_2_">
        <path opacity=".2" fill="#fff" d="M25.3 738.91h133.6v31.2H25.3z"/>
        <path d="M68.8 743.11c-.3.3-.6.6-.9.8h3.3l.2-.8h-2.6zm15.7 0c-1.1 0-2.2.3-3.1.8h6.1c-.9-.5-1.9-.8-3-.8zm17 0c-1.3 0-2.5.3-3.5.8h7.2c-1-.5-2.2-.8-3.7-.8zm19.7.1l-.6.7h4.2l.1-.7h-3.7zm-54.7 1.8c-.5.4-1 .8-1.5 1.1h5.8l.2-1.1h-4.5zm13.3 0c-.1 0-.1.1-.1.1-.3.3-.6.6-.9 1h10.9c-.2-.4-.5-.7-.8-1l-.1-.1h-9zm16.5 0c-.3.3-.7.7-.9 1.1h11.9c-.2-.4-.5-.8-.8-1.1H96.3zm23.4 0l-1 1.1h5.6l.3-1.1h-4.9zm-56.6 2.3c-.7.4-1.4.7-2.2 1.1h9.4l.2-1.1h-7.4zm14.8 0c-.2.4-.4.7-.6 1.1h4.5c.1-.2.3-.5.4-.6.1-.2.3-.3.4-.5h-4.7zm7.8 0c.1 0 .1 0 0 0 .3.3.4.7.5 1.1h4.2c-.1-.4-.2-.8-.3-1.1h-4.4zm9.2 0c-.1.4-.2.7-.3 1.1h4.1c.1-.4.3-.7.6-1l.1-.1h-4.5zm8.3 0c.3.3.4.7.5 1.1h4.2c0-.4-.1-.8-.2-1.1h-4.5zm14.6 0l-1 1.1h7.1l.2-1.1h-6.3zm-58 2.2l-.3 1.1h5c.3-.2.7-.4 1-.6l-.1.6h4.4l.3-1.1H59.8zm17 0c-.2.3-.3.7-.4 1.1h4.5c.1-.4.3-.8.5-1.1h-4.6zm9.6 0v.3c0 .2-.1.6-.1.8h4.4c0-.4 0-.8-.1-1.1h-4.2zm8.2 0c0 .4.1.8.2 1.1h4c-.1-.3-.2-.7-.2-1.1h-4zm9.2 0c-.1.4-.3.8-.6 1.1h4.2c.2-.4.3-.7.3-1.1h-3.9zm12.1 0l-.9 1.1h4.2l.2-.3-.1.3h4.1l.2-1.1h-7.7zm-56.5 2.2l-.2 1c.9-.2 1.9-.5 3-1h-2.8zm5.8 0l-.2 1.1h4.3l.3-1.1h-4.4zm10.7 0c-.1.4-.2.7-.3 1.1h4.5c.1-.4.2-.8.3-1.1h-4.5zm10.3 0c0 .4-.1.7-.2 1.1h4.5c0-.4.1-.7.1-1.1h-4.4zm9.1 0c.3.4.6.8 1 1.1h9c.5-.3 1-.7 1.4-1.1h-5.1c-.3.1-.5.1-.8.1-.2 0-.4-.1-.6-.1h-4.9zm18.7 0l-1 1.1h4.2l1-1.1H114zm5.1 0l-.3 1.1h4.1l.3-1.1h-4.1zm-54.4 2.3l-.2 1.1h4.4l.2-1.1h-4.4zm10.7 0c-.1.4-.1.7-.2 1.1h4.5c.1-.4.1-.7.2-1.1h-4.5zm10.5 0c-.1.4-.1.7-.2 1.1h4.5c.1-.4.2-.7.2-1.1h-4.5zm9.6 0c-.5.3-1.1.7-1.5 1.1h11.7c-.3-.4-.7-.8-1.1-1.1h-9.1zm16.6 0l-1 1.1h4.2l1-1.1h-4.2zm6.5 0l-.2 1.1h4.1l.2-1.1h-4.1zm-54.4 2.2l-.2 1.1h4.4l.2-1.1h-4.4zm10.7 0c0 .4-.1.7-.1 1.1h4.4c0-.4.1-.7.1-1.1h-4.4zm10.5 0c-.1.4-.2.8-.3 1.1h4.5c.1-.4.3-.7.3-1.1h-4.5zm7.8 0c-.2.4-.4.7-.6 1.1h4.5c.1-.3.3-.6.5-.8l.3-.3h-4.7zm8.9 0c.2.3.4.7.4 1.1h4.2c-.1-.4-.2-.8-.3-1.1h-4.3zm8.1 0l-.9 1.1h4.2l1-1.1h-4.3zm8 0l-.2 1.1h4.1l.2-1.1h-4.1zm-54.4 2.2l-.3 1.1h4.4l.3-1.1h-4.4zm11 0c0 .4 0 .8.1 1.1h4.2v-.3c0-.2.1-.5.1-.8h-4.4zm10 0c-.1.4-.3.8-.4 1.1h4.5c.2-.4.3-.7.4-1.1h-4.5zm7.6 0c-.1.4-.1.7-.1 1.1h4.3c0-.4.1-.8.1-1.1h-4.3zm10.1 0c0 .4 0 .8-.1 1.1h4.3c.1-.4.1-.7.1-1.1h-4.3zm6.5 0l-.3 1.1h15.6l.3-1.1H109zm-45.7 2.2l-.3 1.1h4.4l.3-1.1h-4.4zm11.8 0c.1.4.2.8.3 1.1h4.4l-.1-.1c-.2-.3-.3-.6-.4-1h-4.2zm8.7 0c-.1.2-.3.5-.4.6l-.5.5h4.8c.2-.3.4-.7.6-1.1h-4.5zm8.5 0c0 .4.1.8.2 1.1h4.7c-.3-.3-.4-.7-.5-1.1h-4.4zm9.6 0c-.1.1-.1.2-.2.3-.2.3-.3.6-.6.8h4.9c.2-.4.3-.7.4-1.1h-4.5zm6.6 0l-.1.3h8.8l-.1.8h4.1l.1-.8h2.7l.1-.3h-15.6zm-45.7 2.3l-.2 1.1H67l.2-1.1h-4.4zm13.1 0c.2.4.5.8.8 1.1H86l.1-.1c.3-.3.6-.7.9-1H75.9zm17.1 0c.2.4.4.8.8 1.1h10.4c.4-.3.7-.7 1-1l.1-.1H93zm23.8 0l-.2 1.1h4.1l.2-1.1h-4.1zm-54.4 2.2l-.1.4h4.4l.1-.4h-4.4zm15.6 0c.9.5 1.9.8 3.1.8 1.1 0 2.2-.3 3.1-.8H78zm17.3 0c1 .5 2.2.8 3.5.8 1.4 0 2.7-.3 3.8-.8h-7.3zm21 0l-.1.4h4.1l.1-.4h-4.1z" fill="#2c5aa0"/>
      </g>
    </g>
  </g>
</svg>
