<?xml version="1.0" encoding="utf-8"?>
<!-- Generator: Adobe Illustrator 22.1.0, SVG Export Plug-In . SVG Version: 6.00 Build 0)  -->
<svg version="1.1" id="Ebene_1" xmlns="http://www.w3.org/2000/svg" xmlns:xlink="http://www.w3.org/1999/xlink" x="0px" y="0px"
	 viewBox="0 0 889.99 802" style="enable-background:new 0 0 889.99 802;" xml:space="preserve">
<rect x="100.82" y="80.46" width="688.36" height="574.46"/>
<g>
	<path style="fill:#AEA59F;" d="M8.89,0C4,0,0,3.81,0,8.51v762.88c0,4.7,4,8.51,8.89,8.51H881.1c4.9,0,8.89-3.8,8.89-8.51V8.51
		c0-4.7-4-8.51-8.89-8.51C881.1,0,8.89,0,8.89,0z M443.75,80.46c115.11,0.2,222.62,6.1,337.23,17.51
		c10.79,179.81,10.79,360.73,0,540.54c-230.22,22.71-441.75,20.81-672.17,0c-10.79-172.11-10.79-345.82,0-540.54
		c104.82-11.21,202.44-16.91,311.75-17.51C428.36,80.46,436.06,80.46,443.75,80.46L443.75,80.46z"/>
	<g transform="matrix(1.9999999,0,0,1.9999999,-1776.2855,906.76222)">
		<path style="fill:#928C7F;" d="M899.29-442.19v345.32l5.6-5.5v-334.31L899.29-442.19z"/>
		<path style="fill:#928C7F;" d="M1321.96-442.19l-5.6,5.6v334.21l5.6,5.6V-442.19z"/>
		<path style="fill:#928C7F;" d="M1316.46-436.68H904.89l-5.6-5.5h422.77L1316.46-436.68z"/>
		<path style="fill:#928C7F;" d="M1316.46-102.47H904.89l-5.6,5.5h422.77L1316.46-102.47z"/>
	</g>
	<path style="fill:#837C72;" d="M33.37,33.43v668.42h823.25V33.43H33.37L33.37,33.43z M443.75,80.46
		c115.11,0.2,222.62,6.1,337.23,17.51c10.79,179.81,10.79,360.73,0,540.54c-230.22,22.71-441.75,20.81-672.17,0
		c-10.79-172.11-10.79-345.82,0-540.54c104.82-11.21,202.44-16.91,311.75-17.51C428.36,80.46,436.06,80.46,443.75,80.46
		L443.75,80.46z"/>
	<path style="fill:#615A52;" d="M87.03,68.95c-5.1,0-9.19,4.1-9.19,9.21v579.06c0,5.1,4.1,9.21,9.19,9.21h715.84
		c5.1,0,9.19-4.1,9.19-9.21V78.15c0-5.1-4.1-9.21-9.19-9.21H87.03V68.95z M443.75,80.46c115.11,0.2,222.62,6.1,337.23,17.51
		c10.79,179.81,10.79,360.73,0,540.54c-230.22,22.71-441.75,20.81-672.17,0c-10.79-172.11-10.79-345.82,0-540.54
		c104.82-11.21,202.44-16.91,311.75-17.51C428.36,80.46,436.06,80.46,443.75,80.46L443.75,80.46z"/>
	<g transform="matrix(1.9999999,0,0,1.9999999,-1696.2857,-187.50501)">
		<rect x="881.47" y="483.64" style="fill:#9D958A;" width="378.2" height="11.11"/>
		<rect x="881.47" y="483.64" style="opacity:0.2;enable-background:new    ;" width="378.2" height="2.2"/>
	</g>
</g>
<g>
	<rect x="331.8" y="713.01" style="fill:#AAA69D;" width="409.6" height="66.8"/>
	<rect x="331.8" y="713.01" style="opacity:0.2;enable-background:new    ;" width="2.2" height="66.8"/>
	<rect x="741.5" y="713.01" style="opacity:0.2;enable-background:new    ;" width="2.2" height="66.8"/>
</g>
<g>
	<rect x="22.3" y="737.51" style="opacity:0.2;fill:#FFFFFF;enable-background:new    ;" width="133.6" height="31.2"/>
	<path style="fill:#2C5AA0;" d="M65.8,741.71c-0.3,0.3-0.6,0.6-0.9,0.8h3.3l0.2-0.8H65.8L65.8,741.71z M81.5,741.71
		c-1.1,0-2.2,0.3-3.1,0.8h6.1C83.6,742.01,82.6,741.71,81.5,741.71z M98.5,741.71c-1.3,0-2.5,0.3-3.5,0.8h7.2
		C101.2,742.01,100,741.71,98.5,741.71z M118.2,741.81l-0.6,0.7h4.2l0.1-0.7H118.2z M63.5,743.61c-0.5,0.4-1,0.8-1.5,1.1h5.8
		l0.2-1.1H63.5L63.5,743.61z M76.8,743.61c-0.1,0-0.1,0.1-0.1,0.1c-0.3,0.3-0.6,0.6-0.9,1h10.9c-0.2-0.4-0.5-0.7-0.8-1
		c0,0,0,0-0.1-0.1H76.8L76.8,743.61z M93.3,743.61c-0.3,0.3-0.7,0.7-0.9,1.1h11.9c-0.2-0.4-0.5-0.8-0.8-1.1H93.3z M116.7,743.61
		l-1,1.1h5.6l0.3-1.1H116.7z M60.1,745.91c-0.7,0.4-1.4,0.7-2.2,1.1h9.4l0.2-1.1H60.1L60.1,745.91z M74.9,745.91
		c-0.2,0.4-0.4,0.7-0.6,1.1h4.5c0.1-0.2,0.3-0.5,0.4-0.6c0.1-0.2,0.3-0.3,0.4-0.5H74.9z M82.7,745.91
		C82.8,745.91,82.8,745.91,82.7,745.91c0.3,0.3,0.4,0.7,0.5,1.1h4.2c-0.1-0.4-0.2-0.8-0.3-1.1H82.7L82.7,745.91z M91.9,745.91
		c-0.1,0.4-0.2,0.7-0.3,1.1h4.1c0.1-0.4,0.3-0.7,0.6-1c0,0,0,0,0.1-0.1H91.9L91.9,745.91z M100.2,745.91c0.3,0.3,0.4,0.7,0.5,1.1
		h4.2c0-0.4-0.1-0.8-0.2-1.1H100.2L100.2,745.91z M114.8,745.91l-1,1.1h7.1l0.2-1.1H114.8L114.8,745.91z M56.8,748.11l-0.3,1.1h5
		c0.3-0.2,0.7-0.4,1-0.6l-0.1,0.6h4.4l0.3-1.1H56.8z M73.8,748.11c-0.2,0.3-0.3,0.7-0.4,1.1h4.5c0.1-0.4,0.3-0.8,0.5-1.1H73.8z
		 M83.4,748.11c0,0.1,0,0.2,0,0.3c0,0.2-0.1,0.6-0.1,0.8h4.4c0-0.4,0-0.8-0.1-1.1H83.4L83.4,748.11z M91.6,748.11
		c0,0.4,0.1,0.8,0.2,1.1h4c-0.1-0.3-0.2-0.7-0.2-1.1H91.6z M100.8,748.11c-0.1,0.4-0.3,0.8-0.6,1.1h4.2c0.2-0.4,0.3-0.7,0.3-1.1
		H100.8z M112.9,748.11l-0.9,1.1h4.2l0.2-0.3l-0.1,0.3h4.1l0.2-1.1H112.9L112.9,748.11z M56.4,750.31l-0.2,1c0.9-0.2,1.9-0.5,3-1
		H56.4L56.4,750.31z M62.2,750.31l-0.2,1.1h4.3l0.3-1.1H62.2L62.2,750.31z M72.9,750.31c-0.1,0.4-0.2,0.7-0.3,1.1h4.5
		c0.1-0.4,0.2-0.8,0.3-1.1H72.9z M83.2,750.31c0,0.4-0.1,0.7-0.2,1.1h4.5c0-0.4,0.1-0.7,0.1-1.1H83.2L83.2,750.31z M92.3,750.31
		c0.3,0.4,0.6,0.8,1,1.1h9c0.5-0.3,1-0.7,1.4-1.1h-5.1c-0.3,0.1-0.5,0.1-0.8,0.1c-0.2,0-0.4-0.1-0.6-0.1H92.3z M111,750.31l-1,1.1
		h4.2l1-1.1H111z M116.1,750.31l-0.3,1.1h4.1l0.3-1.1H116.1z M61.7,752.61l-0.2,1.1h4.4l0.2-1.1H61.7z M72.4,752.61
		c-0.1,0.4-0.1,0.7-0.2,1.1h4.5c0.1-0.4,0.1-0.7,0.2-1.1H72.4z M82.9,752.61c-0.1,0.4-0.1,0.7-0.2,1.1h4.5c0.1-0.4,0.2-0.7,0.2-1.1
		H82.9z M92.5,752.61c-0.5,0.3-1.1,0.7-1.5,1.1h11.7c-0.3-0.4-0.7-0.8-1.1-1.1H92.5z M109.1,752.61l-1,1.1h4.2l1-1.1H109.1z
		 M115.6,752.61l-0.2,1.1h4.1l0.2-1.1H115.6z M61.2,754.81l-0.2,1.1h4.4l0.2-1.1H61.2z M71.9,754.81c0,0.4-0.1,0.7-0.1,1.1h4.4
		c0-0.4,0.1-0.7,0.1-1.1H71.9L71.9,754.81z M82.4,754.81c-0.1,0.4-0.2,0.8-0.3,1.1h4.5c0.1-0.4,0.3-0.7,0.3-1.1H82.4z M90.2,754.81
		c-0.2,0.4-0.4,0.7-0.6,1.1h4.5c0.1-0.3,0.3-0.6,0.5-0.8c0.1-0.1,0.2-0.2,0.3-0.3H90.2z M99.1,754.81c0.2,0.3,0.4,0.7,0.4,1.1h4.2
		c-0.1-0.4-0.2-0.8-0.3-1.1H99.1z M107.2,754.81l-0.9,1.1h4.2l1-1.1H107.2z M115.2,754.81l-0.2,1.1h4.1l0.2-1.1H115.2z M60.8,757.01
		l-0.3,1.1h4.4l0.3-1.1H60.8z M71.8,757.01c0,0.4,0,0.8,0.1,1.1h4.2c0-0.1,0-0.2,0-0.3c0-0.2,0.1-0.5,0.1-0.8H71.8L71.8,757.01z
		 M81.8,757.01c-0.1,0.4-0.3,0.8-0.4,1.1h4.5c0.2-0.4,0.3-0.7,0.4-1.1H81.8z M89.4,757.01c-0.1,0.4-0.1,0.7-0.1,1.1h4.3
		c0-0.4,0.1-0.8,0.1-1.1H89.4z M99.5,757.01c0,0.4,0,0.8-0.1,1.1h4.3c0.1-0.4,0.1-0.7,0.1-1.1H99.5z M106,757.01l-0.3,1.1h15.6
		l0.3-1.1H106z M60.3,759.21l-0.3,1.1h4.4l0.3-1.1H60.3z M72.1,759.21c0.1,0.4,0.2,0.8,0.3,1.1h4.4c0,0,0,0-0.1-0.1
		c-0.2-0.3-0.3-0.6-0.4-1H72.1L72.1,759.21z M80.8,759.21c-0.1,0.2-0.3,0.5-0.4,0.6c-0.2,0.2-0.3,0.3-0.5,0.5h4.8
		c0.2-0.3,0.4-0.7,0.6-1.1H80.8z M89.3,759.21c0,0.4,0.1,0.8,0.2,1.1h4.7c-0.3-0.3-0.4-0.7-0.5-1.1H89.3L89.3,759.21z M98.9,759.21
		c-0.1,0.1-0.1,0.2-0.2,0.3c-0.2,0.3-0.3,0.6-0.6,0.8h4.9c0.2-0.4,0.3-0.7,0.4-1.1H98.9L98.9,759.21z M105.5,759.21l-0.1,0.3h8.8
		l-0.1,0.8h4.1l0.1-0.8h2.7l0.1-0.3H105.5z M59.8,761.51l-0.2,1.1H64l0.2-1.1H59.8z M72.9,761.51c0.2,0.4,0.5,0.8,0.8,1.1H83
		c0,0,0,0,0.1-0.1c0.3-0.3,0.6-0.7,0.9-1H72.9L72.9,761.51z M90,761.51c0.2,0.4,0.4,0.8,0.8,1.1h10.4c0.4-0.3,0.7-0.7,1-1
		c0,0,0,0,0.1-0.1H90L90,761.51z M113.8,761.51l-0.2,1.1h4.1l0.2-1.1H113.8z M59.4,763.71l-0.1,0.4h4.4l0.1-0.4H59.4z M75,763.71
		c0.9,0.5,1.9,0.8,3.1,0.8c1.1,0,2.2-0.3,3.1-0.8H75z M92.3,763.71c1,0.5,2.2,0.8,3.5,0.8c1.4,0,2.7-0.3,3.8-0.8H92.3z
		 M113.3,763.71l-0.1,0.4h4.1l0.1-0.4H113.3z"/>
</g>
<g>
	<rect x="743.7" y="713.01" style="fill:#AAA69D;" width="66.8" height="66.8"/>
	<rect x="810.5" y="713.01" style="opacity:0.2;enable-background:new    ;" width="2.2" height="66.8"/>
	<g transform="matrix(2.2464077,0,0,2.2464077,-1796.8879,-227.14437)" style="opacity:0.5;">
		<g>
			<path d="M1137.2,439.83v-3.4h1.3c0.2,0,0.4,0,0.5,0c0.2,0,0.3,0.1,0.4,0.2s0.2,0.2,0.3,0.3c0.1,0.1,0.1,0.3,0.1,0.5
				c0,0.3-0.1,0.5-0.3,0.7c-0.2,0.2-0.5,0.3-1,0.3h-0.9v1.4H1137.2z M1137.6,438.03h0.9c0.3,0,0.5-0.1,0.6-0.2s0.2-0.3,0.2-0.5
				c0-0.1,0-0.3-0.1-0.4s-0.2-0.2-0.3-0.2c-0.1,0-0.2,0-0.4,0h-0.9L1137.6,438.03L1137.6,438.03z"/>
			<path d="M1140.2,438.23c0-0.6,0.1-1,0.4-1.3s0.7-0.5,1.2-0.5c0.3,0,0.6,0.1,0.8,0.2c0.2,0.1,0.4,0.4,0.6,0.6
				c0.1,0.3,0.2,0.6,0.2,0.9s-0.1,0.6-0.2,0.9s-0.3,0.5-0.6,0.6c-0.3,0.1-0.5,0.2-0.8,0.2s-0.6-0.1-0.8-0.2
				c-0.2-0.2-0.4-0.4-0.6-0.6C1140.2,438.73,1140.2,438.53,1140.2,438.23z M1140.6,438.23c0,0.4,0.1,0.7,0.3,1s0.5,0.3,0.8,0.3
				s0.6-0.1,0.8-0.4c0.2-0.2,0.3-0.6,0.3-1c0-0.3,0-0.5-0.1-0.7s-0.2-0.4-0.4-0.5c-0.2-0.1-0.4-0.2-0.6-0.2c-0.3,0-0.6,0.1-0.8,0.3
				C1140.7,437.33,1140.6,437.73,1140.6,438.23z"/>
			<path d="M1144.5,439.83l-0.9-3.4h0.5l0.5,2.2c0.1,0.2,0.1,0.5,0.1,0.7c0.1-0.4,0.1-0.6,0.2-0.6l0.6-2.3h0.5l0.5,1.7
				c0.1,0.4,0.2,0.8,0.3,1.2c0-0.2,0.1-0.5,0.2-0.7l0.5-2.2h0.4l-0.9,3.4h-0.4l-0.7-2.6c-0.1-0.2-0.1-0.3-0.1-0.4
				c0,0.2-0.1,0.3-0.1,0.4l-0.7,2.6L1144.5,439.83L1144.5,439.83z"/>
			<path d="M1148.4,439.83v-3.4h2.4v0.4h-2v1h1.9v0.4h-1.9v1.1h2.1v0.4h-2.5V439.83z"/>
			<path d="M1151.5,439.83v-3.4h1.5c0.3,0,0.5,0,0.7,0.1s0.3,0.2,0.4,0.3c0.1,0.2,0.1,0.3,0.1,0.5s-0.1,0.4-0.2,0.6
				c-0.2,0.2-0.4,0.3-0.7,0.3c0.1,0.1,0.2,0.1,0.3,0.2c0.1,0.1,0.3,0.3,0.4,0.4l0.6,0.9h-0.6l-0.4-0.7c-0.1-0.2-0.2-0.4-0.3-0.5
				c-0.1-0.1-0.2-0.2-0.2-0.2c-0.1,0-0.1-0.1-0.2-0.1s-0.1,0-0.2,0h-0.5v1.5h-0.7L1151.5,439.83L1151.5,439.83z M1152,437.93h1
				c0.2,0,0.4,0,0.5-0.1c0.1,0,0.2-0.1,0.3-0.2c0.1-0.1,0.1-0.2,0.1-0.3c0-0.2-0.1-0.3-0.2-0.4s-0.3-0.2-0.5-0.2h-1.1v1.2H1152z"/>
		</g>
		<g>
			<path d="M1145.8,442.03c-1,0-1.7,0.8-1.7,1.7c0,1,0.8,1.7,1.7,1.7c1,0,1.7-0.8,1.7-1.7
				C1147.6,442.73,1146.8,442.03,1145.8,442.03z M1145.8,442.63c0.3,0,0.6,0.1,0.8,0.3c0.2,0.2,0.3,0.5,0.3,0.8s-0.1,0.6-0.3,0.8
				c-0.2,0.2-0.5,0.3-0.8,0.3s-0.6-0.1-0.8-0.3s-0.3-0.5-0.3-0.8s0.1-0.6,0.3-0.8S1145.5,442.63,1145.8,442.63z M1145.8,442.93
				c-0.2,0-0.3,0.1-0.3,0.3v1.1c0,0.2,0.1,0.3,0.3,0.3s0.3-0.1,0.3-0.3v-1.1C1146.1,443.03,1146,442.93,1145.8,442.93z"/>
		</g>
	</g>
	<rect x="767.7" y="721.61" style="fill:#AA0000;" width="18.8" height="9.4"/>
</g>
</svg>
