<svg xmlns="http://www.w3.org/2000/svg" width="900" height="810" viewBox="0 0 900 810">
<g>
	<g>
		<g>
			<path style="fill: #aea59f;" d="M887,5H13c-4.42,0-8,3.58-8,8v764c0,4.42,3.58,8,8,8h874c4.42,0,8-3.58,8-8V13
				C895,8.58,891.42,5,887,5z M790,638c0,0-170,15-340,15s-340-15-340-15s-10-134-10-268s10-268,10-268s170-15,340-15s340,15,340,15
				s10,134,10,268S790,638,790,638z"/>
		</g>
		<path style="fill: #928c7f;" d="M25,25v690h850V25H25z M790,638c0,0-170,15-340,15s-340-15-340-15s-10-134-10-268s10-268,10-268
			s170-15,340-15s340,15,340,15s10,134,10,268S790,638,790,638z"/>
		<path style="fill: #837c72;" d="M35,35v670h830V35H35z M790,638c0,0-170,15-340,15s-340-15-340-15s-10-134-10-268s10-268,10-268
			s170-15,340-15s340,15,340,15s10,134,10,268S790,638,790,638z"/>
		<path style="fill: #615a52;" d="M813,72H87c-4.42,0-8,3.58-8,8v580c0,4.42,3.58,8,8,8h726c4.42,0,8-3.58,8-8V80
			C821,75.58,817.42,72,813,72z M790,638c0,0-170,15-340,15s-340-15-340-15s-10-134-10-268s10-268,10-268s170-15,340-15
			s340,15,340,15s10,134,10,268S790,638,790,638z"/>
		<g style="display: none;">
			<g style="display: inline;">
				<path style="fill: #615a52;" d="M-523.38,405.31L-552,433c0,0,10,134,10,268s-10,268-10,268l28.62,27.69
					c1.47-1.45,2.38-3.46,2.38-5.69V411C-521,408.77-521.91,406.76-523.38,405.31z"/>
				<path style="fill: #615a52;" d="M-1232,433c0,0,170-15,340-15s340,15,340,15l28.62-27.69c-1.44-1.43-3.43-2.31-5.62-2.31h-726
					c-2.19,0-4.17,0.88-5.62,2.31L-1232,433z"/>
				<path style="fill: #615a52;" d="M-1260.62,996.69L-1232,969c0,0-10-134-10-268s10-268,10-268l-28.62-27.69
					c-1.47,1.45-2.38,3.46-2.38,5.69v580C-1263,993.23-1262.09,995.24-1260.62,996.69z"/>
				<path style="fill: #615a52;" d="M-552,969c0,0-170,15-340,15s-340-15-340-15l-28.62,27.69c1.44,1.43,3.43,2.31,5.62,2.31h726
					c2.19,0,4.17-0.88,5.62-2.31L-552,969z"/>
			</g>
			<g style="display: inline;">
				<linearGradient id="SVGID_9_" gradientUnits="userSpaceOnUse" x1="-695.4315" y1="1666.3904" x2="-401.3579" y2="1339.7886">
					<stop  offset="0.5" style="stop-color: #000; stop-opacity: 0;"/>
					<stop  offset="1" style="stop-color: #000; stop-opacity: 0.4;"/>
				</linearGradient>
				<path style="fill: url(#SVGID_9_);" d="M-547.38,1208.31L-576,1236c0,0,10,134,10,268s-10,268-10,268l28.62,27.69
					c1.47-1.45,2.38-3.46,2.38-5.69v-580C-545,1211.77-545.91,1209.76-547.38,1208.31z"/>
				<linearGradient id="SVGID_10_" gradientUnits="userSpaceOnUse" x1="-1081.0485" y1="1025.0017" x2="-749.999" y2="1392.6693">
					<stop  offset="0" style="stop-color: #000; stop-opacity: 0.4;"/>
					<stop  offset="0.5" style="stop-color: #000; stop-opacity: 0;"/>
				</linearGradient>
				<path style="fill: url(#SVGID_10_);" d="M-1256,1236c0,0,170-15,340-15s340,15,340,15l28.62-27.69
					c-1.44-1.43-3.43-2.31-5.62-2.31h-726c-2.19,0-4.17,0.88-5.62,2.31L-1256,1236z"/>
				<linearGradient id="SVGID_11_" gradientUnits="userSpaceOnUse" x1="-1432.2328" y1="1652.0776" x2="-1136.0776" y2="1355.9224">
					<stop  offset="0" style="stop-color: #000; stop-opacity: 0.4;"/>
					<stop  offset="0.5" style="stop-color: #000; stop-opacity: 0;"/>
				</linearGradient>
				<path style="fill: url(#SVGID_11_);" d="M-1284.62,1799.69L-1256,1772c0,0-10-134-10-268s10-268,10-268l-28.62-27.69
					c-1.47,1.45-2.38,3.46-2.38,5.69v580C-1287,1796.23-1286.09,1798.24-1284.62,1799.69z"/>
				<linearGradient id="SVGID_12_" gradientUnits="userSpaceOnUse" x1="-1100.3083" y1="1615.3851" x2="-731.6917" y2="1984.0017">
					<stop  offset="0.5" style="stop-color: #000; stop-opacity: 0;"/>
					<stop  offset="1" style="stop-color: #000; stop-opacity: 0.4;"/>
				</linearGradient>
				<path style="fill: url(#SVGID_12_);" d="M-576,1772c0,0-170,15-340,15s-340-15-340-15l-28.62,27.69
					c1.44,1.43,3.43,2.31,5.62,2.31h726c2.19,0,4.17-0.88,5.62-2.31L-576,1772z"/>
				<linearGradient id="SVGID_13_" gradientUnits="userSpaceOnUse" x1="-1081.0485" y1="1025.0017" x2="-749.999" y2="1392.6693">
					<stop  offset="0.5" style="stop-color: #000; stop-opacity: 0;"/>
					<stop  offset="1" style="stop-color: #000; stop-opacity: 0.4;"/>
				</linearGradient>
				<path style="fill: url(#SVGID_13_);" d="M-1256,1236c0,0,170-15,340-15s340,15,340,15l28.62-27.69
					c-1.44-1.43-3.43-2.31-5.62-2.31h-726c-2.19,0-4.17,0.88-5.62,2.31L-1256,1236z"/>
				<linearGradient id="SVGID_14_" gradientUnits="userSpaceOnUse" x1="-695.4315" y1="1666.3904" x2="-401.3579" y2="1339.7886">
					<stop  offset="0" style="stop-color: #000; stop-opacity: 0.4;"/>
					<stop  offset="0.5" style="stop-color: #000; stop-opacity: 0;"/>
				</linearGradient>
				<path style="fill: url(#SVGID_14_);" d="M-547.38,1208.31L-576,1236c0,0,10,134,10,268s-10,268-10,268l28.62,27.69
					c1.47-1.45,2.38-3.46,2.38-5.69v-580C-545,1211.77-545.91,1209.76-547.38,1208.31z"/>
				<linearGradient id="SVGID_15_" gradientUnits="userSpaceOnUse" x1="-1100.3083" y1="1615.3851" x2="-731.6917" y2="1984.0017">
					<stop  offset="0" style="stop-color: #000; stop-opacity: 0.4;"/>
					<stop  offset="0.5" style="stop-color: #000; stop-opacity: 0;"/>
				</linearGradient>
				<path style="fill: url(#SVGID_15_);" d="M-576,1772c0,0-170,15-340,15s-340-15-340-15l-28.62,27.69
					c1.44,1.43,3.43,2.31,5.62,2.31h726c2.19,0,4.17-0.88,5.62-2.31L-576,1772z"/>
				<linearGradient id="SVGID_16_" gradientUnits="userSpaceOnUse" x1="-1432.2328" y1="1652.0776" x2="-1136.0776" y2="1355.9224">
					<stop  offset="0.5" style="stop-color: #000; stop-opacity: 0;"/>
					<stop  offset="1" style="stop-color: #000; stop-opacity: 0.4;"/>
				</linearGradient>
				<path style="fill: url(#SVGID_16_);" d="M-1284.62,1799.69L-1256,1772c0,0-10-134-10-268s10-268,10-268l-28.62-27.69
					c-1.47,1.45-2.38,3.46-2.38,5.69v580C-1287,1796.23-1286.09,1798.24-1284.62,1799.69z"/>
			</g>
			<rect x="-1534" y="-750" style="display: inline; fill: #ab9d00;" width="680" height="536"/>
		</g>
		<g>
			<path style="opacity: 0.1; fill: #fff;" d="M818.62,74.31L790,102c0,0,10,134,10,268s-10,268-10,268l28.62,27.69
				c1.47-1.45,2.38-3.46,2.38-5.69V80C821,77.77,820.09,75.76,818.62,74.31z"/>
			<path style="opacity: 0.2;" d="M110,102c0,0,170-15,340-15s340,15,340,15l28.62-27.69C817.17,72.88,815.19,72,813,72H87
				c-2.19,0-4.17,0.88-5.62,2.31L110,102z"/>
			<path style="opacity: 0.1;" d="M81.38,665.69L110,638c0,0-10-134-10-268s10-268,10-268L81.38,74.31C79.91,75.76,79,77.77,79,80
				v580C79,662.23,79.91,664.24,81.38,665.69z"/>
			<path style="opacity: 0.1; fill: #fff;" d="M790,638c0,0-170,15-340,15s-340-15-340-15l-28.62,27.69
				c1.44,1.43,3.43,2.31,5.62,2.31h726c2.19,0,4.17-0.88,5.62-2.31L790,638z"/>
			<g>
				<linearGradient id="SVGID_17_" gradientUnits="userSpaceOnUse" x1="670.5685" y1="532.3904" x2="964.6422" y2="205.7885">
					<stop  offset="0.5" style="stop-color: #000; stop-opacity: 0;"/>
					<stop  offset="1" style="stop-color: #000; stop-opacity: 0.4;"/>
				</linearGradient>
				<path style="fill: url(#SVGID_17_);" d="M818.62,74.31L790,102c0,0,10,134,10,268s-10,268-10,268l28.62,27.69
					c1.47-1.45,2.38-3.46,2.38-5.69V80C821,77.77,820.09,75.76,818.62,74.31z"/>
				<linearGradient id="SVGID_18_" gradientUnits="userSpaceOnUse" x1="284.9516" y1="-108.9983" x2="616.001" y2="258.6694">
					<stop  offset="0" style="stop-color: #000; stop-opacity: 0.4;"/>
					<stop  offset="0.5" style="stop-color: #000; stop-opacity: 0;"/>
				</linearGradient>
				<path style="fill: url(#SVGID_18_);" d="M110,102c0,0,170-15,340-15s340,15,340,15l28.62-27.69C817.17,72.88,815.19,72,813,72H87
					c-2.19,0-4.17,0.88-5.62,2.31L110,102z"/>
				<linearGradient id="SVGID_19_" gradientUnits="userSpaceOnUse" x1="-66.2327" y1="518.0776" x2="229.9224" y2="221.9224">
					<stop  offset="0" style="stop-color: #000; stop-opacity: 0.4;"/>
					<stop  offset="0.5" style="stop-color: #000; stop-opacity: 0;"/>
				</linearGradient>
				<path style="fill: url(#SVGID_19_);" d="M81.38,665.69L110,638c0,0-10-134-10-268s10-268,10-268L81.38,74.31
					C79.91,75.76,79,77.77,79,80v580C79,662.23,79.91,664.24,81.38,665.69z"/>
				<linearGradient id="SVGID_20_" gradientUnits="userSpaceOnUse" x1="265.6917" y1="481.3852" x2="634.3083" y2="850.0018">
					<stop  offset="0.5" style="stop-color: #000; stop-opacity: 0;"/>
					<stop  offset="1" style="stop-color: #000; stop-opacity: 0.4;"/>
				</linearGradient>
				<path style="fill: url(#SVGID_20_);" d="M790,638c0,0-170,15-340,15s-340-15-340-15l-28.62,27.69c1.44,1.43,3.43,2.31,5.62,2.31
					h726c2.19,0,4.17-0.88,5.62-2.31L790,638z"/>
				<linearGradient id="SVGID_21_" gradientUnits="userSpaceOnUse" x1="284.9516" y1="-108.9983" x2="616.001" y2="258.6694">
					<stop  offset="0.5" style="stop-color: #000; stop-opacity: 0;"/>
					<stop  offset="1" style="stop-color: #000; stop-opacity: 0.4;"/>
				</linearGradient>
				<path style="fill: url(#SVGID_21_);" d="M110,102c0,0,170-15,340-15s340,15,340,15l28.62-27.69C817.17,72.88,815.19,72,813,72H87
					c-2.19,0-4.17,0.88-5.62,2.31L110,102z"/>
				<linearGradient id="SVGID_22_" gradientUnits="userSpaceOnUse" x1="670.5685" y1="532.3904" x2="964.6422" y2="205.7885">
					<stop  offset="0" style="stop-color: #000; stop-opacity: 0.4;"/>
					<stop  offset="0.5" style="stop-color: #000; stop-opacity: 0;"/>
				</linearGradient>
				<path style="fill: url(#SVGID_22_);" d="M818.62,74.31L790,102c0,0,10,134,10,268s-10,268-10,268l28.62,27.69
					c1.47-1.45,2.38-3.46,2.38-5.69V80C821,77.77,820.09,75.76,818.62,74.31z"/>
				<linearGradient id="SVGID_23_" gradientUnits="userSpaceOnUse" x1="265.6917" y1="481.3852" x2="634.3083" y2="850.0018">
					<stop  offset="0" style="stop-color: #000; stop-opacity: 0.4;"/>
					<stop  offset="0.5" style="stop-color: #000; stop-opacity: 0;"/>
				</linearGradient>
				<path style="fill: url(#SVGID_23_);" d="M790,638c0,0-170,15-340,15s-340-15-340-15l-28.62,27.69c1.44,1.43,3.43,2.31,5.62,2.31
					h726c2.19,0,4.17-0.88,5.62-2.31L790,638z"/>
				<linearGradient id="SVGID_24_" gradientUnits="userSpaceOnUse" x1="-66.2327" y1="518.0776" x2="229.9224" y2="221.9224">
					<stop  offset="0.5" style="stop-color: #000; stop-opacity: 0;"/>
					<stop  offset="1" style="stop-color: #000; stop-opacity: 0.4;"/>
				</linearGradient>
				<path style="fill: url(#SVGID_24_);" d="M81.38,665.69L110,638c0,0-10-134-10-268s10-268,10-268L81.38,74.31
					C79.91,75.76,79,77.77,79,80v580C79,662.23,79.91,664.24,81.38,665.69z"/>
			</g>
		</g>
		<rect x="70" y="785" style="fill: #9d958a;" width="760" height="25"/>
		<path style="fill: #7e776e;" d="M887,5c4.42,0,8,3.58,8,8v764c0,4.42-3.58,8-8,8H13c-4.42,0-8-3.58-8-8V13c0-4.42,3.58-8,8-8H887
			 M887,0H13C5.83,0,0,5.83,0,13v764c0,7.17,5.83,13,13,13h874c7.17,0,13-5.83,13-13V13C900,5.83,894.17,0,887,0L887,0z"/>
		<rect x="70" y="790" style="opacity: 0.3;" width="760" height="5"/>
	</g>
	<g>
		<rect x="25" y="25" style="opacity: 0.2;" width="850" height="2"/>
		<rect x="33" y="33" style="opacity: 0.2;" width="834" height="2"/>
		<rect x="25" y="27" style="opacity: 0.2;" width="2" height="686"/>
		<rect x="873" y="27" style="opacity: 0.2;" width="2" height="686"/>
		<rect x="25" y="713" style="opacity: 0.2;" width="850" height="2"/>
		<rect x="33" y="705" style="opacity: 0.2;" width="834" height="2"/>
		<rect x="33" y="35" style="opacity: 0.2;" width="2" height="670"/>
		<rect x="865" y="35" style="opacity: 0.2;" width="2" height="670"/>
	</g>
	<g class="svg__screen__controls">
		<rect x="343" y="715" style="opacity: 0.2;" width="2" height="70"/>
		<g class="svg__screen__controls__button">
			<rect x="753" y="785" style="fill: #757066;" width="68" height="2"/>
			<g>
				<rect x="753" y="715" style="fill: #aaa69d;" width="66" height="70"/>
				<rect x="751" y="715" style="fill: #757066;" width="2" height="70"/>
				<rect x="819" y="715" style="fill: #757066;" width="2" height="70"/>
			</g>
			<g style="opacity: 0.5;">
				<g>
					<path d="M766,762.87v-7.73h2.93c0.52,0,0.91,0.02,1.18,0.07c0.38,0.06,0.7,0.18,0.96,0.36c0.26,0.18,0.47,0.43,0.62,0.75
						c0.16,0.32,0.24,0.67,0.24,1.05c0,0.66-0.21,1.21-0.63,1.67c-0.42,0.46-1.18,0.68-2.28,0.68h-1.99v3.14H766z M767.03,758.81
						h2.01c0.66,0,1.14-0.12,1.41-0.37c0.28-0.25,0.42-0.59,0.42-1.04c0-0.32-0.08-0.6-0.25-0.83c-0.16-0.23-0.38-0.38-0.65-0.46
						c-0.17-0.05-0.49-0.07-0.96-0.07h-1.99V758.81z"/>
					<path d="M772.92,759.1c0-1.28,0.35-2.29,1.04-3.01c0.69-0.73,1.59-1.09,2.68-1.09c0.72,0,1.36,0.17,1.94,0.51
						c0.58,0.34,1.01,0.82,1.32,1.43c0.3,0.61,0.45,1.3,0.45,2.08c0,0.78-0.16,1.49-0.48,2.1s-0.77,1.09-1.35,1.41
						c-0.58,0.32-1.21,0.48-1.89,0.48c-0.73,0-1.38-0.18-1.96-0.53c-0.58-0.35-1.01-0.83-1.31-1.44S772.92,759.78,772.92,759.1z
						 M773.98,759.12c0,0.93,0.25,1.67,0.75,2.2c0.5,0.54,1.13,0.8,1.89,0.8c0.77,0,1.41-0.27,1.91-0.81
						c0.5-0.54,0.75-1.31,0.75-2.3c0-0.63-0.11-1.18-0.32-1.65c-0.21-0.47-0.53-0.83-0.94-1.09c-0.41-0.26-0.87-0.39-1.38-0.39
						c-0.73,0-1.35,0.25-1.88,0.75C774.24,757.12,773.98,757.95,773.98,759.12z"/>
					<path d="M783.03,762.87l-2.06-7.73h1.05l1.18,5.07c0.13,0.53,0.24,1.06,0.33,1.58c0.2-0.83,0.31-1.3,0.35-1.43l1.48-5.22h1.24
						l1.11,3.91c0.28,0.97,0.48,1.88,0.6,2.74c0.1-0.49,0.23-1.05,0.39-1.68l1.22-4.97h1.03l-2.13,7.73h-0.99l-1.64-5.89
						c-0.14-0.49-0.22-0.79-0.24-0.91c-0.08,0.36-0.16,0.66-0.23,0.91l-1.65,5.89H783.03z"/>
					<path d="M791.93,762.87v-7.73h5.61v0.91h-4.59v2.37h4.29v0.91h-4.29v2.63h4.77v0.91H791.93z"/>
					<path d="M799.16,762.87v-7.73h3.44c0.69,0,1.22,0.07,1.58,0.21s0.65,0.38,0.86,0.74c0.22,0.35,0.32,0.74,0.32,1.16
						c0,0.55-0.18,1.01-0.54,1.39c-0.36,0.38-0.91,0.61-1.65,0.72c0.27,0.13,0.48,0.26,0.62,0.38c0.3,0.27,0.58,0.62,0.85,1.03
						l1.35,2.1h-1.29l-1.03-1.61c-0.3-0.46-0.55-0.82-0.74-1.06c-0.19-0.25-0.37-0.42-0.52-0.52c-0.15-0.1-0.31-0.17-0.47-0.21
						c-0.12-0.02-0.31-0.04-0.57-0.04h-1.19v3.43H799.16z M800.18,758.55h2.21c0.47,0,0.84-0.05,1.1-0.15
						c0.26-0.1,0.47-0.25,0.6-0.46c0.14-0.21,0.21-0.44,0.21-0.69c0-0.37-0.13-0.67-0.4-0.9c-0.27-0.23-0.69-0.35-1.26-0.35h-2.46
						V758.55z"/>
				</g>
				<g>
					<path d="M786,769c1.65,0,3,1.35,3,3s-1.35,3-3,3s-3-1.35-3-3S784.35,769,786,769 M786,768c-2.21,0-4,1.79-4,4
						c0,2.21,1.79,4,4,4s4-1.79,4-4C790,769.79,788.21,768,786,768L786,768z"/>
					<g>
						<path d="M786,773.5c-0.28,0-0.5-0.22-0.5-0.5v-2c0-0.28,0.22-0.5,0.5-0.5s0.5,0.22,0.5,0.5v2
							C786.5,773.28,786.28,773.5,786,773.5z"/>
					</g>
				</g>
			</g>
			<rect x="777" y="727" style="fill: #a00;" width="18" height="9"/>
		</g>
		<g class="svg__screen__blende__inner">
			<rect x="345" y="715" style="opacity: 0.3;" width="406" height="70"/>
			<path style="opacity: 0.1;" d="M345,715v3v64v3h406v-3v-64v-3H345z M748,782H348v-64h400V782z"/>
			<path style="fill: #757066;" d="M343,713v2v70v2h410v-2v-70v-2H343z M751,785H345v-70h406V785z"/>
		</g>
		<g class="svg__screen__blende">
			<rect x="345" y="715" style="fill: #aaa69d;" width="406" height="70"/>
			<g class="svg__screen__blende__push" style="opacity: 0.1;">
				<g>
					<path d="M532.2,735.17v-8.59h2.78c1.05,0,1.74,0.04,2.06,0.13c0.49,0.13,0.9,0.41,1.24,0.84s0.5,0.99,0.5,1.67
						c0,0.53-0.1,0.97-0.29,1.33s-0.43,0.64-0.73,0.85s-0.59,0.34-0.9,0.41c-0.41,0.08-1.01,0.12-1.8,0.12h-1.13v3.24H532.2z
						 M533.94,728.03v2.44h0.95c0.68,0,1.14-0.04,1.37-0.13s0.41-0.23,0.54-0.42s0.2-0.41,0.2-0.67c0-0.31-0.09-0.57-0.28-0.77
						s-0.42-0.33-0.7-0.38c-0.21-0.04-0.62-0.06-1.25-0.06H533.94z"/>
					<path d="M540.2,726.58h1.73v4.65c0,0.74,0.02,1.22,0.06,1.44c0.07,0.35,0.25,0.63,0.53,0.85s0.66,0.32,1.15,0.32
						c0.49,0,0.86-0.1,1.11-0.3s0.4-0.45,0.45-0.74s0.08-0.78,0.08-1.46v-4.75h1.73v4.51c0,1.03-0.05,1.76-0.14,2.19
						s-0.27,0.79-0.52,1.08s-0.59,0.53-1.01,0.7s-0.97,0.26-1.65,0.26c-0.82,0-1.44-0.09-1.87-0.28s-0.76-0.44-1-0.74
						s-0.41-0.62-0.49-0.95c-0.11-0.49-0.17-1.22-0.17-2.18V726.58z"/>
					<path d="M548.43,732.37l1.69-0.16c0.1,0.57,0.31,0.98,0.62,1.25s0.73,0.4,1.26,0.4c0.56,0,0.98-0.12,1.26-0.35
						s0.42-0.51,0.42-0.83c0-0.2-0.06-0.38-0.18-0.52s-0.33-0.27-0.62-0.37c-0.2-0.07-0.67-0.2-1.39-0.38
						c-0.93-0.23-1.58-0.51-1.96-0.85c-0.53-0.47-0.79-1.05-0.79-1.73c0-0.44,0.12-0.85,0.37-1.23s0.61-0.67,1.07-0.87
						s1.03-0.3,1.69-0.3c1.08,0,1.89,0.24,2.43,0.71s0.83,1.1,0.86,1.89l-1.73,0.08c-0.07-0.44-0.23-0.76-0.48-0.95
						s-0.61-0.29-1.1-0.29c-0.5,0-0.9,0.1-1.18,0.31c-0.18,0.13-0.28,0.31-0.28,0.53c0,0.2,0.09,0.38,0.26,0.52
						c0.22,0.18,0.75,0.38,1.59,0.57s1.47,0.41,1.87,0.62s0.72,0.5,0.95,0.87s0.34,0.83,0.34,1.37c0,0.49-0.14,0.95-0.41,1.38
						s-0.66,0.75-1.16,0.96s-1.12,0.31-1.87,0.31c-1.09,0-1.92-0.25-2.5-0.75S548.55,733.33,548.43,732.37z"/>
					<path d="M556.88,735.17v-8.59h1.73v3.38h3.4v-3.38h1.73v8.59h-1.73v-3.76h-3.4v3.76H556.88z"/>
				</g>
				<path style="fill: #787878; stroke: #000; stroke-miterlimit: 10;" d="M553.5,742h-13c-0.83,0-1.5-0.67-1.5-1.5l0,0
					c0-0.83,0.67-1.5,1.5-1.5h13c0.83,0,1.5,0.67,1.5,1.5l0,0C555,741.33,554.33,742,553.5,742z"/>
				<path style="fill: #787878; stroke: #000; stroke-miterlimit: 10;" d="M553.5,748h-13c-0.83,0-1.5-0.67-1.5-1.5l0,0
					c0-0.83,0.67-1.5,1.5-1.5h13c0.83,0,1.5,0.67,1.5,1.5l0,0C555,747.33,554.33,748,553.5,748z"/>
			</g>
		</g>
		<g class="svg__screen__logo">
			<rect x="25.3" y="738.91" style="opacity: 0.2; fill: #fff; enable-background: new;" width="133.6" height="31.2"/>
			<path style="fill: #2c5aa0;" d="M68.8,743.11c-0.3,0.3-0.6,0.6-0.9,0.8h3.3l0.2-0.8H68.8L68.8,743.11z M84.5,743.11
				c-1.1,0-2.2,0.3-3.1,0.8h6.1C86.6,743.41,85.6,743.11,84.5,743.11z M101.5,743.11c-1.3,0-2.5,0.3-3.5,0.8h7.2
				C104.2,743.41,103,743.11,101.5,743.11z M121.2,743.21l-0.6,0.7h4.2l0.1-0.7H121.2z M66.5,745.01c-0.5,0.4-1,0.8-1.5,1.1h5.8
				l0.2-1.1H66.5L66.5,745.01z M79.8,745.01c-0.1,0-0.1,0.1-0.1,0.1c-0.3,0.3-0.6,0.6-0.9,1h10.9c-0.2-0.4-0.5-0.7-0.8-1
				c0,0,0,0-0.1-0.1H79.8L79.8,745.01z M96.3,745.01c-0.3,0.3-0.7,0.7-0.9,1.1h11.9c-0.2-0.4-0.5-0.8-0.8-1.1H96.3z M119.7,745.01
				l-1,1.1h5.6l0.3-1.1H119.7z M63.1,747.31c-0.7,0.4-1.4,0.7-2.2,1.1h9.4l0.2-1.1H63.1L63.1,747.31z M77.9,747.31
				c-0.2,0.4-0.4,0.7-0.6,1.1h4.5c0.1-0.2,0.3-0.5,0.4-0.6c0.1-0.2,0.3-0.3,0.4-0.5H77.9z M85.7,747.31
				C85.8,747.31,85.8,747.31,85.7,747.31c0.3,0.3,0.4,0.7,0.5,1.1h4.2c-0.1-0.4-0.2-0.8-0.3-1.1H85.7L85.7,747.31z M94.9,747.31
				c-0.1,0.4-0.2,0.7-0.3,1.1h4.1c0.1-0.4,0.3-0.7,0.6-1c0,0,0,0,0.1-0.1H94.9L94.9,747.31z M103.2,747.31c0.3,0.3,0.4,0.7,0.5,1.1
				h4.2c0-0.4-0.1-0.8-0.2-1.1H103.2L103.2,747.31z M117.8,747.31l-1,1.1h7.1l0.2-1.1H117.8L117.8,747.31z M59.8,749.51l-0.3,1.1h5
				c0.3-0.2,0.7-0.4,1-0.6l-0.1,0.6h4.4l0.3-1.1H59.8z M76.8,749.51c-0.2,0.3-0.3,0.7-0.4,1.1h4.5c0.1-0.4,0.3-0.8,0.5-1.1H76.8z
				 M86.4,749.51c0,0.1,0,0.2,0,0.3c0,0.2-0.1,0.6-0.1,0.8h4.4c0-0.4,0-0.8-0.1-1.1H86.4L86.4,749.51z M94.6,749.51
				c0,0.4,0.1,0.8,0.2,1.1h4c-0.1-0.3-0.2-0.7-0.2-1.1H94.6z M103.8,749.51c-0.1,0.4-0.3,0.8-0.6,1.1h4.2c0.2-0.4,0.3-0.7,0.3-1.1
				H103.8z M115.9,749.51l-0.9,1.1h4.2l0.2-0.3l-0.1,0.3h4.1l0.2-1.1H115.9L115.9,749.51z M59.4,751.71l-0.2,1c0.9-0.2,1.9-0.5,3-1
				H59.4L59.4,751.71z M65.2,751.71l-0.2,1.1h4.3l0.3-1.1H65.2L65.2,751.71z M75.9,751.71c-0.1,0.4-0.2,0.7-0.3,1.1h4.5
				c0.1-0.4,0.2-0.8,0.3-1.1H75.9z M86.2,751.71c0,0.4-0.1,0.7-0.2,1.1h4.5c0-0.4,0.1-0.7,0.1-1.1H86.2L86.2,751.71z M95.3,751.71
				c0.3,0.4,0.6,0.8,1,1.1h9c0.5-0.3,1-0.7,1.4-1.1h-5.1c-0.3,0.1-0.5,0.1-0.8,0.1c-0.2,0-0.4-0.1-0.6-0.1H95.3z M114,751.71l-1,1.1
				h4.2l1-1.1H114z M119.1,751.71l-0.3,1.1h4.1l0.3-1.1H119.1z M64.7,754.01l-0.2,1.1h4.4l0.2-1.1H64.7z M75.4,754.01
				c-0.1,0.4-0.1,0.7-0.2,1.1h4.5c0.1-0.4,0.1-0.7,0.2-1.1H75.4z M85.9,754.01c-0.1,0.4-0.1,0.7-0.2,1.1h4.5
				c0.1-0.4,0.2-0.7,0.2-1.1H85.9z M95.5,754.01c-0.5,0.3-1.1,0.7-1.5,1.1h11.7c-0.3-0.4-0.7-0.8-1.1-1.1H95.5z M112.1,754.01
				l-1,1.1h4.2l1-1.1H112.1z M118.6,754.01l-0.2,1.1h4.1l0.2-1.1H118.6z M64.2,756.21l-0.2,1.1h4.4l0.2-1.1H64.2z M74.9,756.21
				c0,0.4-0.1,0.7-0.1,1.1h4.4c0-0.4,0.1-0.7,0.1-1.1H74.9L74.9,756.21z M85.4,756.21c-0.1,0.4-0.2,0.8-0.3,1.1h4.5
				c0.1-0.4,0.3-0.7,0.3-1.1H85.4z M93.2,756.21c-0.2,0.4-0.4,0.7-0.6,1.1h4.5c0.1-0.3,0.3-0.6,0.5-0.8c0.1-0.1,0.2-0.2,0.3-0.3
				H93.2z M102.1,756.21c0.2,0.3,0.4,0.7,0.4,1.1h4.2c-0.1-0.4-0.2-0.8-0.3-1.1H102.1z M110.2,756.21l-0.9,1.1h4.2l1-1.1H110.2z
				 M118.2,756.21l-0.2,1.1h4.1l0.2-1.1H118.2z M63.8,758.41l-0.3,1.1h4.4l0.3-1.1H63.8z M74.8,758.41c0,0.4,0,0.8,0.1,1.1h4.2
				c0-0.1,0-0.2,0-0.3c0-0.2,0.1-0.5,0.1-0.8H74.8L74.8,758.41z M84.8,758.41c-0.1,0.4-0.3,0.8-0.4,1.1h4.5c0.2-0.4,0.3-0.7,0.4-1.1
				H84.8z M92.4,758.41c-0.1,0.4-0.1,0.7-0.1,1.1h4.3c0-0.4,0.1-0.8,0.1-1.1H92.4z M102.5,758.41c0,0.4,0,0.8-0.1,1.1h4.3
				c0.1-0.4,0.1-0.7,0.1-1.1H102.5z M109,758.41l-0.3,1.1h15.6l0.3-1.1H109z M63.3,760.61l-0.3,1.1h4.4l0.3-1.1H63.3z M75.1,760.61
				c0.1,0.4,0.2,0.8,0.3,1.1h4.4c0,0,0,0-0.1-0.1c-0.2-0.3-0.3-0.6-0.4-1H75.1L75.1,760.61z M83.8,760.61c-0.1,0.2-0.3,0.5-0.4,0.6
				c-0.2,0.2-0.3,0.3-0.5,0.5h4.8c0.2-0.3,0.4-0.7,0.6-1.1H83.8z M92.3,760.61c0,0.4,0.1,0.8,0.2,1.1h4.7c-0.3-0.3-0.4-0.7-0.5-1.1
				H92.3L92.3,760.61z M101.9,760.61c-0.1,0.1-0.1,0.2-0.2,0.3c-0.2,0.3-0.3,0.6-0.6,0.8h4.9c0.2-0.4,0.3-0.7,0.4-1.1H101.9
				L101.9,760.61z M108.5,760.61l-0.1,0.3h8.8l-0.1,0.8h4.1l0.1-0.8h2.7l0.1-0.3H108.5z M62.8,762.91l-0.2,1.1H67l0.2-1.1H62.8z
				 M75.9,762.91c0.2,0.4,0.5,0.8,0.8,1.1H86c0,0,0,0,0.1-0.1c0.3-0.3,0.6-0.7,0.9-1H75.9L75.9,762.91z M93,762.91
				c0.2,0.4,0.4,0.8,0.8,1.1h10.4c0.4-0.3,0.7-0.7,1-1c0,0,0,0,0.1-0.1H93L93,762.91z M116.8,762.91l-0.2,1.1h4.1l0.2-1.1H116.8z
				 M62.4,765.11l-0.1,0.4h4.4l0.1-0.4H62.4z M78,765.11c0.9,0.5,1.9,0.8,3.1,0.8c1.1,0,2.2-0.3,3.1-0.8H78z M95.3,765.11
				c1,0.5,2.2,0.8,3.5,0.8c1.4,0,2.7-0.3,3.8-0.8H95.3z M116.3,765.11l-0.1,0.4h4.1l0.1-0.4H116.3z"/>
		</g>
	</g>
</g>
</svg>
