<svg xmlns="http://www.w3.org/2000/svg" width="900" height="815" fill="none">
  <g clip-path="url(#a)">
    <path fill="#AEA59F" d="M887 5H13c-4.4 0-8 3.6-8 8v764c0 4.4 3.6 8 8 8h874c4.4 0 8-3.6 8-8V13c0-4.4-3.6-8-8-8Zm-97 633s-170 15-340 15-340-15-340-15-10-134-10-268 10-268 10-268 170-15 340-15 340 15 340 15 10 134 10 268-10 268-10 268Z"/>
    <path fill="#928C7F" d="M25 25v690h850V25H25Zm765 613s-170 15-340 15-340-15-340-15V102s170-15 340-15 340 15 340 15v536Z"/>
    <path fill="#837C72" d="M35 35v670h830V35H35Zm755 603s-170 15-340 15-340-15-340-15V102s170-15 340-15 340 15 340 15v536Z"/>
    <path fill="#615A52" d="M813 72H87c-4.4 0-8 3.6-8 8v580c0 4.4 3.6 8 8 8h726c4.4 0 8-3.6 8-8V80c0-4.4-3.6-8-8-8Zm-23 566H110V102h680v536Z"/>
    <path fill="#fff" d="M818.6 74.3 790 102v536l28.6 27.7c1.5-1.5 2.4-3.5 2.4-5.7V80c0-2.2-.9-4.2-2.4-5.7Z" opacity=".1"/>
    <path fill="#000" d="M110 102h680l28.6-27.7c-1.5-1.4-3.4-2.3-5.6-2.3H87c-2.2 0-4.2.9-5.6 2.3L110 102Z" opacity=".2"/>
    <path fill="#000" d="M81.4 665.7 110 638V102L81.4 74.3C79.9 75.8 79 77.8 79 80v580c0 2.2.9 4.2 2.4 5.7Z" opacity=".1"/>
    <path fill="#fff" d="M790 638H110l-28.6 27.7c1.4 1.4 3.4 2.3 5.6 2.3h726c2.2 0 4.2-.9 5.6-2.3L790 638Z" opacity=".1"/>
    <path fill="url(#b)" d="M818.6 74.3 790 102v536l28.6 27.7c1.5-1.5 2.4-3.5 2.4-5.7V80c0-2.2-.9-4.2-2.4-5.7Z"/>
    <path fill="url(#c)" d="M110 102h680l28.6-27.7c-1.5-1.4-3.4-2.3-5.6-2.3H87c-2.2 0-4.2.9-5.6 2.3L110 102Z"/>
    <path fill="url(#d)" d="M81.4 665.7 110 638V102L81.4 74.3C79.9 75.8 79 77.8 79 80v580c0 2.2.9 4.2 2.4 5.7Z"/>
    <path fill="url(#e)" d="M790 638H110l-28.6 27.7c1.4 1.4 3.4 2.3 5.6 2.3h726c2.2 0 4.2-.9 5.6-2.3L790 638Z"/>
    <path fill="url(#f)" d="M110 102h680l28.6-27.7c-1.5-1.4-3.4-2.3-5.6-2.3H87c-2.2 0-4.2.9-5.6 2.3L110 102Z"/>
    <path fill="url(#g)" d="M818.6 74.3 790 102v536l28.6 27.7c1.5-1.5 2.4-3.5 2.4-5.7V80c0-2.2-.9-4.2-2.4-5.7Z"/>
    <path fill="url(#h)" d="M790 638H110l-28.6 27.7c1.4 1.4 3.4 2.3 5.6 2.3h726c2.2 0 4.2-.9 5.6-2.3L790 638Z"/>
    <path fill="url(#i)" d="m81.4 666 28.6-27.728V102L81.4 74.3c-1.5 1.502-2.4 3.204-2.4 5.406v580.588c0 2.202.9 4.205 2.4 5.706Z"/>
    <path fill="#9D958A" d="M70 785h760v25H70v-25Z"/>
    <path fill="#7E776E" d="M887 5c4.4 0 8 3.6 8 8v764c0 4.4-3.6 8-8 8H13c-4.4 0-8-3.6-8-8V13c0-4.4 3.6-8 8-8h874Zm0-5H13C5.8 0 0 5.8 0 13v764c0 7.2 5.8 13 13 13h874c7.2 0 13-5.8 13-13V13c0-7.2-5.8-13-13-13Z"/>
    <path fill="#000" d="M70 790h760v5H70v-5Z" opacity=".3"/>
    <path fill="#000" d="M25 25h850v2H25v-2ZM33 33h834v2H33v-2ZM25 27h2v686h-2V27ZM873 27h2v686h-2V27ZM25 713h850v2H25v-2ZM33 705h834v2H33v-2ZM33 35h2v670h-2V35ZM865 35h2v670h-2V35ZM835 790h-5v20H70v-20H40v5h25v20h770v-20h25v-5h-25ZM343 715h2v70h-2v-70Z" opacity=".2"/>
    <path fill="#000" d="M345 715h406v70H345v-70ZM753 715h66v70h-66v-70Z" opacity=".3"/>
    <path fill="#000" d="M345 715v70h406v-70H345Zm403 67H348v-64h400v64Z" opacity=".1"/>
    <path fill="#757066" d="M343 713v74h410v-74H343Zm408 72H345v-70h406v70Z"/>
    <path fill="#000" d="M753 715v70h66v-70h-66Zm63 67h-60v-64h60v64Z" opacity=".1"/>
    <path fill="#757066" d="M751 715h2v70h-2v-70ZM819 715h2v70h-2v-70ZM753 785h68v2h-68v-2Z"/>
    <path fill="#757066" d="M751 713v74h70v-74h-70Zm68 72h-66v-70h66v70Z"/>
    <path fill="#fff" d="M25.3 738.9h133.6v31.2H25.3v-31.2Z" opacity=".2"/>
    <path fill="#2C5AA0" d="M68.8 743.1c-.3.3-.6.6-.9.8h3.3l.2-.8h-2.6Zm15.7 0c-1.1 0-2.2.3-3.1.8h6.1c-.9-.5-1.9-.8-3-.8Zm17 0c-1.3 0-2.5.3-3.5.8h7.2c-1-.5-2.2-.8-3.7-.8Zm19.7.1-.6.7h4.2l.1-.7h-3.7ZM66.5 745c-.5.4-1 .8-1.5 1.1h5.8l.2-1.1h-4.5Zm13.3 0c-.1.1-.1 0 0 0-.4.4-.7.7-1 1.1h10.9c-.2-.4-.5-.7-.8-1l-.1-.1h-9Zm16.5 0c-.3.3-.7.7-.9 1.1h11.9c-.2-.4-.5-.8-.8-1.1H96.3Zm23.4 0-1 1.1h5.6l.3-1.1h-4.9Zm-56.6 2.3c-.7.4-1.4.7-2.2 1.1h9.4l.2-1.1h-7.4Zm14.8 0c-.2.4-.4.7-.6 1.1h4.5c.1-.2.3-.5.4-.6.1-.2.3-.3.4-.5h-4.7Zm7.8 0c.1 0 .1 0 0 0 .3.3.4.7.5 1.1h4.2c-.1-.4-.2-.8-.3-1.1h-4.4Zm9.2 0c-.1.4-.2.7-.3 1.1h4.1c.1-.4.3-.7.6-1l.1-.1h-4.5Zm8.3 0c.3.3.4.7.5 1.1h4.2c0-.4-.1-.8-.2-1.1h-4.5Zm14.6 0-1 1.1h7.1l.2-1.1h-6.3Zm-58 2.2-.3 1.1h5c.3-.2.7-.4 1-.6l-.1.6h4.4l.3-1.1H59.8Zm17 0c-.2.3-.3.7-.4 1.1h4.5c.1-.4.3-.8.5-1.1h-4.6Zm9.6 0v.3c0 .2-.1.6-.1.8h4.4c0-.4 0-.8-.1-1.1h-4.2Zm8.2 0c0 .4.1.8.2 1.1h4c-.1-.3-.2-.7-.2-1.1h-4Zm9.2 0c-.1.4-.3.8-.6 1.1h4.2c.2-.4.3-.7.3-1.1h-3.9Zm12.1 0-.9 1.1h4.2l.2-.3-.1.3h4.1l.2-1.1h-7.7Zm-56.5 2.2-.2 1c.9-.2 1.9-.5 3-1h-2.8Zm5.8 0-.2 1.1h4.3l.3-1.1h-4.4Zm10.7 0c-.1.4-.2.7-.3 1.1h4.5c.1-.4.2-.8.3-1.1h-4.5Zm10.3 0c0 .4-.1.7-.2 1.1h4.5c0-.4.1-.7.1-1.1h-4.4Zm9.1 0c.3.4.6.8 1 1.1h9c.5-.3 1-.7 1.4-1.1h-5.1c-.3.1-.5.1-.8.1-.2 0-.4-.1-.6-.1h-4.9Zm18.7 0-1 1.1h4.2l1-1.1H114Zm5.1 0-.3 1.1h4.1l.3-1.1h-4.1ZM64.7 754l-.2 1.1h4.4l.2-1.1h-4.4Zm10.7 0c-.1.4-.1.7-.2 1.1h4.5c.1-.4.1-.7.2-1.1h-4.5Zm10.5 0c-.1.4-.1.7-.2 1.1h4.5c.1-.4.2-.7.2-1.1h-4.5Zm9.6 0c-.5.3-1.1.7-1.5 1.1h11.7c-.3-.4-.7-.8-1.1-1.1h-9.1Zm16.6 0-1 1.1h4.2l1-1.1h-4.2Zm6.5 0-.2 1.1h4.1l.2-1.1h-4.1Zm-54.4 2.2-.2 1.1h4.4l.2-1.1h-4.4Zm10.7 0c0 .4-.1.7-.1 1.1h4.4c0-.4.1-.7.1-1.1h-4.4Zm10.5 0c-.1.4-.2.8-.3 1.1h4.5c.1-.4.3-.7.3-1.1h-4.5Zm7.8 0c-.2.4-.4.7-.6 1.1h4.5c.1-.3.3-.6.5-.8l.3-.3h-4.7Zm8.9 0c.2.3.4.7.4 1.1h4.2c-.1-.4-.2-.8-.3-1.1h-4.3Zm8.1 0-.9 1.1h4.2l1-1.1h-4.3Zm8 0-.2 1.1h4.1l.2-1.1h-4.1Zm-54.4 2.2-.3 1.1h4.4l.3-1.1h-4.4Zm11 0c0 .4 0 .8.1 1.1h4.2v-.3c0-.2.1-.5.1-.8h-4.4Zm10 0c-.1.4-.3.8-.4 1.1h4.5c.2-.4.3-.7.4-1.1h-4.5Zm7.6 0c-.1.4-.1.7-.1 1.1h4.3c0-.4.1-.8.1-1.1h-4.3Zm10.1 0c0 .4 0 .8-.1 1.1h4.3c.1-.4.1-.7.1-1.1h-4.3Zm6.5 0-.3 1.1h15.6l.3-1.1H109Zm-45.7 2.2-.3 1.1h4.4l.3-1.1h-4.4Zm11.8 0c.1.4.2.8.3 1.1h4.4l-.1-.1c-.2-.3-.3-.6-.4-1h-4.2Zm8.7 0c-.1.2-.3.5-.4.6l-.5.5h4.8c.2-.3.4-.7.6-1.1h-4.5Zm8.5 0c0 .4.1.8.2 1.1h4.7c-.3-.3-.4-.7-.5-1.1h-4.4Zm9.6 0c-.1.1-.1.2-.2.3-.2.3-.3.6-.6.8h4.9c.2-.4.3-.7.4-1.1h-4.5Zm6.6 0-.1.3h8.8l-.1.8h4.1l.1-.8h2.7l.1-.3h-15.6Zm-45.7 2.3-.2 1.1H67l.2-1.1h-4.4Zm13.1 0c.2.4.5.8.8 1.1H86l.1-.1c.3-.3.6-.7.9-1H75.9Zm17.1 0c.2.4.4.8.8 1.1h10.4c.4-.3.7-.7 1-1l.1-.1H93Zm23.8 0-.2 1.1h4.1l.2-1.1h-4.1Zm-54.4 2.2-.1.4h4.4l.1-.4h-4.4Zm15.6 0c.9.5 1.9.8 3.1.8 1.1 0 2.2-.3 3.1-.8H78Zm17.3 0c1 .5 2.2.8 3.5.8 1.4 0 2.7-.3 3.8-.8h-7.3Zm21 0-.1.4h4.1l.1-.4h-4.1Z"/>
  </g>
  <defs>
    <linearGradient id="b" x1="670.572" x2="964.642" y1="532.387" y2="205.789" gradientUnits="userSpaceOnUse">
      <stop offset=".5" stop-opacity="0"/>
      <stop offset="1" stop-opacity=".4"/>
    </linearGradient>
    <linearGradient id="c" x1="284.95" x2="615.999" y1="-108.997" y2="258.671" gradientUnits="userSpaceOnUse">
      <stop stop-opacity=".4"/>
      <stop offset=".5" stop-opacity="0"/>
    </linearGradient>
    <linearGradient id="d" x1="-66.233" x2="229.922" y1="518.078" y2="221.922" gradientUnits="userSpaceOnUse">
      <stop stop-opacity=".4"/>
      <stop offset=".5" stop-opacity="0"/>
    </linearGradient>
    <linearGradient id="e" x1="265.69" x2="634.31" y1="481.38" y2="850" gradientUnits="userSpaceOnUse">
      <stop offset=".5" stop-opacity="0"/>
      <stop offset="1" stop-opacity=".4"/>
    </linearGradient>
    <linearGradient id="f" x1="284.95" x2="615.999" y1="-108.997" y2="258.671" gradientUnits="userSpaceOnUse">
      <stop offset=".5" stop-opacity="0"/>
      <stop offset="1" stop-opacity=".4"/>
    </linearGradient>
    <linearGradient id="g" x1="670.572" x2="964.642" y1="532.387" y2="205.789" gradientUnits="userSpaceOnUse">
      <stop stop-opacity=".4"/>
      <stop offset=".5" stop-opacity="0"/>
    </linearGradient>
    <linearGradient id="h" x1="265.69" x2="634.31" y1="481.38" y2="850" gradientUnits="userSpaceOnUse">
      <stop stop-opacity=".4"/>
      <stop offset=".5" stop-opacity="0"/>
    </linearGradient>
    <linearGradient id="i" x1="-66.233" x2="230.223" y1="518.228" y2="222.073" gradientUnits="userSpaceOnUse">
      <stop offset=".5" stop-opacity="0"/>
      <stop offset="1" stop-opacity=".4"/>
    </linearGradient>
    <clipPath id="a">
      <path fill="#fff" d="M0 0h900v815H0z"/>
    </clipPath>
  </defs>
</svg>
