<svg width="900" height="815" viewBox="0 0 900 815" fill="none" xmlns="http://www.w3.org/2000/svg">
<g clip-path="url(#clip0_1428_2101)">
<path d="M887 5H13C8.6 5 5 8.6 5 13V777C5 781.4 8.6 785 13 785H887C891.4 785 895 781.4 895 777V13C895 8.6 891.4 5 887 5ZM790 638C790 638 620 653 450 653C280 653 110 638 110 638C110 638 100 504 100 370C100 236 110 102 110 102C110 102 280 87 450 87C620 87 790 102 790 102C790 102 800 236 800 370C800 504 790 638 790 638Z" fill="#AEA59F"/>
<path d="M25 25V715H875V25H25ZM790 638C790 638 620 653 450 653C280 653 110 638 110 638C110 638 100 504 100 370C100 236 110 102 110 102C110 102 280 87 450 87C620 87 790 102 790 102C790 102 800 236 800 370C800 504 790 638 790 638Z" fill="#928C7F"/>
<path d="M35 35V705H865V35H35ZM790 638C790 638 620 653 450 653C280 653 110 638 110 638C110 638 100 504 100 370C100 236 110 102 110 102C110 102 280 87 450 87C620 87 790 102 790 102C790 102 800 236 800 370C800 504 790 638 790 638Z" fill="#837C72"/>
<path d="M813 72H87C82.6 72 79 75.6 79 80V660C79 664.4 82.6 668 87 668H813C817.4 668 821 664.4 821 660V80C821 75.6 817.4 72 813 72ZM790 638C790 638 620 653 450 653C280 653 110 638 110 638C110 638 100 504 100 370C100 236 110 102 110 102C110 102 280 87 450 87C620 87 790 102 790 102C790 102 800 236 800 370C800 504 790 638 790 638Z" fill="#615A52"/>
<path opacity="0.1" d="M818.6 74.2998L790 102C790 102 800 236 800 370C800 504 790 638 790 638L818.6 665.7C820.1 664.2 821 662.2 821 660V79.9998C821 77.7998 820.1 75.7998 818.6 74.2998Z" fill="white"/>
<path opacity="0.2" d="M110 102C110 102 280 87 450 87C620 87 790 102 790 102L818.6 74.3C817.1 72.9 815.2 72 813 72H87C84.8 72 82.8 72.9 81.4 74.3L110 102Z" fill="black"/>
<path opacity="0.1" d="M81.4 665.7L110 638C110 638 100 504 100 370C100 236 110 102 110 102L81.4 74.2998C79.9 75.7998 79 77.7998 79 79.9998V660C79 662.2 79.9 664.2 81.4 665.7Z" fill="black"/>
<path opacity="0.1" d="M790 638C790 638 620 653 450 653C280 653 110 638 110 638L81.4 665.7C82.8 667.1 84.8 668 87 668H813C815.2 668 817.2 667.1 818.6 665.7L790 638Z" fill="white"/>
<path d="M818.6 74.2998L790 102C790 102 800 236 800 370C800 504 790 638 790 638L818.6 665.7C820.1 664.2 821 662.2 821 660V79.9998C821 77.7998 820.1 75.7998 818.6 74.2998Z" fill="url(#paint0_linear_1428_2101)"/>
<path d="M110 102C110 102 280 87 450 87C620 87 790 102 790 102L818.6 74.3C817.1 72.9 815.2 72 813 72H87C84.8 72 82.8 72.9 81.4 74.3L110 102Z" fill="url(#paint1_linear_1428_2101)"/>
<path d="M81.4 665.7L110 638C110 638 100 504 100 370C100 236 110 102 110 102L81.4 74.2998C79.9 75.7998 79 77.7998 79 79.9998V660C79 662.2 79.9 664.2 81.4 665.7Z" fill="url(#paint2_linear_1428_2101)"/>
<path d="M790 638C790 638 620 653 450 653C280 653 110 638 110 638L81.4 665.7C82.8 667.1 84.8 668 87 668H813C815.2 668 817.2 667.1 818.6 665.7L790 638Z" fill="url(#paint3_linear_1428_2101)"/>
<path d="M110 102C110 102 280 87 450 87C620 87 790 102 790 102L818.6 74.3C817.1 72.9 815.2 72 813 72H87C84.8 72 82.8 72.9 81.4 74.3L110 102Z" fill="url(#paint4_linear_1428_2101)"/>
<path d="M818.6 74.2998L790 102C790 102 800 236 800 370C800 504 790 638 790 638L818.6 665.7C820.1 664.2 821 662.2 821 660V79.9998C821 77.7998 820.1 75.7998 818.6 74.2998Z" fill="url(#paint5_linear_1428_2101)"/>
<path d="M790 638C790 638 620 653 450 653C280 653 110 638 110 638L81.4 665.7C82.8 667.1 84.8 668 87 668H813C815.2 668 817.2 667.1 818.6 665.7L790 638Z" fill="url(#paint6_linear_1428_2101)"/>
<path d="M81.4 665.7L110 638C110 638 100 504 100 370C100 236 110 102 110 102L81.4 74.2998C79.9 75.7998 79 77.7998 79 79.9998V660C79 662.2 79.9 664.2 81.4 665.7Z" fill="url(#paint7_linear_1428_2101)"/>
<path d="M70 785H830V810H70V785Z" fill="#9D958A"/>
<path d="M887 5C891.4 5 895 8.6 895 13V777C895 781.4 891.4 785 887 785H13C8.6 785 5 781.4 5 777V13C5 8.6 8.6 5 13 5H887ZM887 0H13C5.8 0 0 5.8 0 13V777C0 784.2 5.8 790 13 790H887C894.2 790 900 784.2 900 777V13C900 5.8 894.2 0 887 0Z" fill="#7E776E"/>
<path opacity="0.3" d="M70 790H830V795H70V790Z" fill="black"/>
<path opacity="0.2" d="M25 25H875V27H25V25Z" fill="black"/>
<path opacity="0.2" d="M33 33H867V35H33V33Z" fill="black"/>
<path opacity="0.2" d="M25 27H27V713H25V27Z" fill="black"/>
<path opacity="0.2" d="M873 27H875V713H873V27Z" fill="black"/>
<path opacity="0.2" d="M25 713H875V715H25V713Z" fill="black"/>
<path opacity="0.2" d="M33 705H867V707H33V705Z" fill="black"/>
<path opacity="0.2" d="M33 35H35V705H33V35Z" fill="black"/>
<path opacity="0.2" d="M865 35H867V705H865V35Z" fill="black"/>
<path opacity="0.2" d="M835 790H830V810H70V790H40V795H65V815H835V795H860V790H835Z" fill="black"/>
<path opacity="0.2" d="M343 715H345V785H343V715Z" fill="black"/>
<path opacity="0.3" d="M345 715H751V785H345V715Z" fill="black"/>
<path opacity="0.3" d="M753 715H819V785H753V715Z" fill="black"/>
<path opacity="0.1" d="M345 715V785H751V715H345ZM748 782H348V718H748V782Z" fill="black"/>
<path d="M343 713V787H753V713H343ZM751 785H345V715H751V785Z" fill="#757066"/>
<path opacity="0.1" d="M753 715V785H819V715H753ZM816 782H756V718H816V782Z" fill="black"/>
<path d="M751 715H753V785H751V715Z" fill="#757066"/>
<path d="M819 715H821V785H819V715Z" fill="#757066"/>
<path d="M753 785H821V787H753V785Z" fill="#757066"/>
<path d="M751 713V787H821V713H751ZM819 785H753V715H819V785Z" fill="#757066"/>
<path opacity="0.2" d="M25.3 738.9H158.9V770.1H25.3V738.9Z" fill="white"/>
<path d="M68.8001 743.1C68.5001 743.4 68.2001 743.7 67.9001 743.9H71.2001L71.4001 743.1H68.8001ZM84.5001 743.1C83.4001 743.1 82.3001 743.4 81.4001 743.9H87.5001C86.6001 743.4 85.6001 743.1 84.5001 743.1ZM101.5 743.1C100.2 743.1 99.0001 743.4 98.0001 743.9H105.2C104.2 743.4 103 743.1 101.5 743.1ZM121.2 743.2L120.6 743.9H124.8L124.9 743.2H121.2ZM66.5001 745C66.0001 745.4 65.5001 745.8 65.0001 746.1H70.8001L71.0001 745H66.5001ZM79.8001 745C79.7001 745.1 79.7001 745 79.8001 745C79.4001 745.4 79.1001 745.7 78.8001 746.1H89.7001C89.5001 745.7 89.2001 745.4 88.9001 745.1L88.8001 745H79.8001ZM96.3001 745C96.0001 745.3 95.6001 745.7 95.4001 746.1H107.3C107.1 745.7 106.8 745.3 106.5 745H96.3001ZM119.7 745L118.7 746.1H124.3L124.6 745H119.7ZM63.1001 747.3C62.4001 747.7 61.7001 748 60.9001 748.4H70.3001L70.5001 747.3H63.1001ZM77.9001 747.3C77.7001 747.7 77.5001 748 77.3001 748.4H81.8001C81.9001 748.2 82.1001 747.9 82.2001 747.8C82.3001 747.6 82.5001 747.5 82.6001 747.3C82.6001 747.3 77.9001 747.3 77.9001 747.3ZM85.7001 747.3C85.8001 747.3 85.8001 747.3 85.7001 747.3C86.0001 747.6 86.1001 748 86.2001 748.4H90.4001C90.3001 748 90.2001 747.6 90.1001 747.3C90.1001 747.3 85.7001 747.3 85.7001 747.3ZM94.9001 747.3C94.8001 747.7 94.7001 748 94.6001 748.4H98.7001C98.8001 748 99.0001 747.7 99.3001 747.4L99.4001 747.3C99.4001 747.3 94.9001 747.3 94.9001 747.3ZM103.2 747.3C103.5 747.6 103.6 748 103.7 748.4H107.9C107.9 748 107.8 747.6 107.7 747.3H103.2ZM117.8 747.3L116.8 748.4H123.9L124.1 747.3H117.8ZM59.8001 749.5L59.5001 750.6H64.5001C64.8001 750.4 65.2001 750.2 65.5001 750L65.4001 750.6H69.8001L70.1001 749.5H59.8001ZM76.8001 749.5C76.6001 749.8 76.5001 750.2 76.4001 750.6H80.9001C81.0001 750.2 81.2001 749.8 81.4001 749.5H76.8001ZM86.4001 749.5V749.8C86.4001 750 86.3001 750.4 86.3001 750.6H90.7001C90.7001 750.2 90.7001 749.8 90.6001 749.5C90.6001 749.5 86.4001 749.5 86.4001 749.5ZM94.6001 749.5C94.6001 749.9 94.7001 750.3 94.8001 750.6H98.8001C98.7001 750.3 98.6001 749.9 98.6001 749.5H94.6001ZM103.8 749.5C103.7 749.9 103.5 750.3 103.2 750.6H107.4C107.6 750.2 107.7 749.9 107.7 749.5H103.8ZM115.9 749.5L115 750.6H119.2L119.4 750.3L119.3 750.6H123.4L123.6 749.5C123.6 749.5 115.9 749.5 115.9 749.5ZM59.4001 751.7L59.2001 752.7C60.1001 752.5 61.1001 752.2 62.2001 751.7H59.4001ZM65.2001 751.7L65.0001 752.8H69.3001L69.6001 751.7H65.2001ZM75.9001 751.7C75.8001 752.1 75.7001 752.4 75.6001 752.8H80.1001C80.2001 752.4 80.3001 752 80.4001 751.7H75.9001ZM86.2001 751.7C86.2001 752.1 86.1001 752.4 86.0001 752.8H90.5001C90.5001 752.4 90.6001 752.1 90.6001 751.7H86.2001ZM95.3001 751.7C95.6001 752.1 95.9001 752.5 96.3001 752.8H105.3C105.8 752.5 106.3 752.1 106.7 751.7H101.6C101.3 751.8 101.1 751.8 100.8 751.8C100.6 751.8 100.4 751.7 100.2 751.7H95.3001ZM114 751.7L113 752.8H117.2L118.2 751.7H114ZM119.1 751.7L118.8 752.8H122.9L123.2 751.7H119.1ZM64.7001 754L64.5001 755.1H68.9001L69.1001 754H64.7001ZM75.4001 754C75.3001 754.4 75.3001 754.7 75.2001 755.1H79.7001C79.8001 754.7 79.8001 754.4 79.9001 754H75.4001ZM85.9001 754C85.8001 754.4 85.8001 754.7 85.7001 755.1H90.2001C90.3001 754.7 90.4001 754.4 90.4001 754H85.9001ZM95.5001 754C95.0001 754.3 94.4001 754.7 94.0001 755.1H105.7C105.4 754.7 105 754.3 104.6 754H95.5001ZM112.1 754L111.1 755.1H115.3L116.3 754H112.1ZM118.6 754L118.4 755.1H122.5L122.7 754H118.6ZM64.2001 756.2L64.0001 757.3H68.4001L68.6001 756.2C68.6001 756.2 64.2001 756.2 64.2001 756.2ZM74.9001 756.2C74.9001 756.6 74.8001 756.9 74.8001 757.3H79.2001C79.2001 756.9 79.3001 756.6 79.3001 756.2H74.9001ZM85.4001 756.2C85.3001 756.6 85.2001 757 85.1001 757.3H89.6001C89.7001 756.9 89.9001 756.6 89.9001 756.2H85.4001ZM93.2001 756.2C93.0001 756.6 92.8001 756.9 92.6001 757.3H97.1001C97.2001 757 97.4001 756.7 97.6001 756.5L97.9001 756.2C97.9001 756.2 93.2001 756.2 93.2001 756.2ZM102.1 756.2C102.3 756.5 102.5 756.9 102.5 757.3H106.7C106.6 756.9 106.5 756.5 106.4 756.2H102.1ZM110.2 756.2L109.3 757.3H113.5L114.5 756.2H110.2ZM118.2 756.2L118 757.3H122.1L122.3 756.2H118.2ZM63.8001 758.4L63.5001 759.5H67.9001L68.2001 758.4H63.8001ZM74.8001 758.4C74.8001 758.8 74.8001 759.2 74.9001 759.5H79.1001V759.2C79.1001 759 79.2001 758.7 79.2001 758.4C79.2001 758.4 74.8001 758.4 74.8001 758.4ZM84.8001 758.4C84.7001 758.8 84.5001 759.2 84.4001 759.5H88.9001C89.1001 759.1 89.2001 758.8 89.3001 758.4H84.8001ZM92.4001 758.4C92.3001 758.8 92.3001 759.1 92.3001 759.5H96.6001C96.6001 759.1 96.7001 758.7 96.7001 758.4H92.4001ZM102.5 758.4C102.5 758.8 102.5 759.2 102.4 759.5H106.7C106.8 759.1 106.8 758.8 106.8 758.4H102.5ZM109 758.4L108.7 759.5H124.3L124.6 758.4H109ZM63.3001 760.6L63.0001 761.7H67.4001L67.7001 760.6H63.3001ZM75.1001 760.6C75.2001 761 75.3001 761.4 75.4001 761.7H79.8001L79.7001 761.6C79.5001 761.3 79.4001 761 79.3001 760.6H75.1001ZM83.8001 760.6C83.7001 760.8 83.5001 761.1 83.4001 761.2L82.9001 761.7H87.7001C87.9001 761.4 88.1001 761 88.3001 760.6H83.8001ZM92.3001 760.6C92.3001 761 92.4001 761.4 92.5001 761.7H97.2001C96.9001 761.4 96.8001 761 96.7001 760.6H92.3001ZM101.9 760.6C101.8 760.7 101.8 760.8 101.7 760.9C101.5 761.2 101.4 761.5 101.1 761.7H106C106.2 761.3 106.3 761 106.4 760.6C106.4 760.6 101.9 760.6 101.9 760.6ZM108.5 760.6L108.4 760.9H117.2L117.1 761.7H121.2L121.3 760.9H124L124.1 760.6H108.5ZM62.8001 762.9L62.6001 764H67.0001L67.2001 762.9H62.8001ZM75.9001 762.9C76.1001 763.3 76.4001 763.7 76.7001 764H86.0001L86.1001 763.9C86.4001 763.6 86.7001 763.2 87.0001 762.9H75.9001ZM93.0001 762.9C93.2001 763.3 93.4001 763.7 93.8001 764H104.2C104.6 763.7 104.9 763.3 105.2 763L105.3 762.9H93.0001ZM116.8 762.9L116.6 764H120.7L120.9 762.9H116.8ZM62.4001 765.1L62.3001 765.5H66.7001L66.8001 765.1H62.4001ZM78.0001 765.1C78.9001 765.6 79.9001 765.9 81.1001 765.9C82.2001 765.9 83.3001 765.6 84.2001 765.1H78.0001ZM95.3001 765.1C96.3001 765.6 97.5001 765.9 98.8001 765.9C100.2 765.9 101.5 765.6 102.6 765.1H95.3001ZM116.3 765.1L116.2 765.5H120.3L120.4 765.1H116.3Z" fill="#2C5AA0"/>
</g>
<defs>
<linearGradient id="paint0_linear_1428_2101" x1="670.572" y1="532.387" x2="964.642" y2="205.789" gradientUnits="userSpaceOnUse">
<stop offset="0.5" stop-opacity="0"/>
<stop offset="1" stop-opacity="0.4"/>
</linearGradient>
<linearGradient id="paint1_linear_1428_2101" x1="284.95" y1="-108.997" x2="615.999" y2="258.671" gradientUnits="userSpaceOnUse">
<stop stop-opacity="0.4"/>
<stop offset="0.5" stop-opacity="0"/>
</linearGradient>
<linearGradient id="paint2_linear_1428_2101" x1="-66.2327" y1="518.077" x2="229.922" y2="221.922" gradientUnits="userSpaceOnUse">
<stop stop-opacity="0.4"/>
<stop offset="0.5" stop-opacity="0"/>
</linearGradient>
<linearGradient id="paint3_linear_1428_2101" x1="265.69" y1="481.38" x2="634.31" y2="850" gradientUnits="userSpaceOnUse">
<stop offset="0.5" stop-opacity="0"/>
<stop offset="1" stop-opacity="0.4"/>
</linearGradient>
<linearGradient id="paint4_linear_1428_2101" x1="284.95" y1="-108.997" x2="615.999" y2="258.671" gradientUnits="userSpaceOnUse">
<stop offset="0.5" stop-opacity="0"/>
<stop offset="1" stop-opacity="0.4"/>
</linearGradient>
<linearGradient id="paint5_linear_1428_2101" x1="670.572" y1="532.387" x2="964.642" y2="205.789" gradientUnits="userSpaceOnUse">
<stop stop-opacity="0.4"/>
<stop offset="0.5" stop-opacity="0"/>
</linearGradient>
<linearGradient id="paint6_linear_1428_2101" x1="265.69" y1="481.38" x2="634.31" y2="850" gradientUnits="userSpaceOnUse">
<stop stop-opacity="0.4"/>
<stop offset="0.5" stop-opacity="0"/>
</linearGradient>
<linearGradient id="paint7_linear_1428_2101" x1="-66.2327" y1="518.077" x2="229.922" y2="221.922" gradientUnits="userSpaceOnUse">
<stop offset="0.5" stop-opacity="0"/>
<stop offset="1" stop-opacity="0.4"/>
</linearGradient>
<clipPath id="clip0_1428_2101">
<rect width="900" height="815" fill="white"/>
</clipPath>
</defs>
</svg>
