<svg width="22" height="22" viewBox="0 0 22 22" xmlns="http://www.w3.org/2000/svg">
<path d="M4 10H2V12H4V10Z" fill="black"/>
<path d="M6 8H4V10H6V8Z" fill="black"/>
<path d="M8 6H6V8H8V6Z" fill="black"/>
<path d="M10 4H8V6H10V4Z" fill="black"/>
<path d="M14 6V8H16V10H18V12H16V14H14V16H12V18H10V16H8V14H6V16H8V18H10V20H12V18H14V16H16V14H18V12H20V10H18V8H16V6H14Z" fill="black"/>
<path d="M12 2H10V4H12V2Z" fill="black"/>
<path d="M14 4H12V6H14V4Z" fill="black"/>
<path d="M6 12H4V14H6V12Z" fill="black"/>
</svg>
