<svg xmlns="http://www.w3.org/2000/svg" x="0" y="0" viewBox="0 0 100 100">
  <path d="M62 54v20c5.52 0 10-4.48 10-10s-4.48-10-10-10z" fill="none"/>
  <path d="M50 6c24.26 0 44 19.74 44 44S74.26 94 50 94 6 74.26 6 50 25.74 6 50 6m0-6C22.39 0 0 22.39 0 50s22.39 50 50 50 50-22.39 50-50S77.61 0 50 0z"/>
  <circle cx="30" cy="64" r="10"/>
  <path d="M43 24c0 4.48 2.94 8.27 7 9.54V14.46c-4.06 1.27-7 5.06-7 9.54z"/>
  <path d="M50 0v14.46c.95-.3 1.95-.46 3-.46 5.52 0 10 4.48 10 10s-4.48 10-10 10c-1.05 0-2.05-.16-3-.46V100c27.61 0 50-22.39 50-50S77.61 0 50 0zm25 68c-5.52 0-10-4.48-10-10s4.48-10 10-10 10 4.48 10 10-4.48 10-10 10z"/>
</svg>
