<svg  xmlns="http://www.w3.org/2000/svg" x="0" y="0" viewBox="0 0 105 80">
  <path d="M45 11c15.24 0 30.17.93 37.63 1.48C83.18 18.43 84 29.06 84 40c0 10.93-.82 21.56-1.37 27.52C75.16 68.07 60.24 69 45 69c-15.14 0-29.97-.92-37.48-1.47C6.96 59.88 6 45.75 6 40s.96-19.88 1.52-27.53C15.03 11.92 29.86 11 45 11m0-6C22.98 5 1.91 6.89 1.91 6.89S0 31.64 0 40s1.91 33.11 1.91 33.11S22.98 75 45 75s43.09-1.89 43.09-1.89S90 57.03 90 40 88.09 6.89 88.09 6.89 67.02 5 45 5z"/>
  <path d="M70 22.9c11.11 0 22 .53 28.08.88.42 3.92.92 9.98.92 16.22 0 6.22-.51 12.29-.92 16.22-6.07.36-16.96.88-28.08.88-11.02 0-21.83-.52-27.94-.87C41.62 51.17 41 43.33 41 40s.62-11.17 1.06-16.23c6.1-.35 16.91-.87 27.94-.87m0-5.4c-17.13 0-33.51 1.22-33.51 1.22S35 34.63 35 40s1.49 21.28 1.49 21.28S52.87 62.5 70 62.5s33.51-1.22 33.51-1.22S105 50.94 105 40s-1.49-21.28-1.49-21.28S87.13 17.5 70 17.5z"/>
</svg>
