<svg xmlns="http://www.w3.org/2000/svg" x="0" y="0" viewBox="0 0 100 100">
  <path d="M45 21c15.24 0 30.17.93 37.63 1.48C83.18 28.43 84 39.06 84 50c0 10.93-.82 21.56-1.37 27.52C75.16 78.07 60.24 79 45 79c-15.14 0-29.97-.92-37.48-1.47C6.96 69.88 6 55.75 6 50s.96-19.88 1.52-27.53C15.03 21.92 29.86 21 45 21m0-6c-22.02 0-43.09 1.89-43.09 1.89S0 41.64 0 50s1.91 33.11 1.91 33.11S22.98 85 45 85s43.09-1.89 43.09-1.89S90 67.03 90 50s-1.91-33.11-1.91-33.11S67.02 15 45 15z"/>
  <path d="M65 31c11.11 0 22 .59 28.08.98.42 4.35.92 11.09.92 18.02 0 6.91-.51 13.66-.92 18.02-6.07.4-16.96.98-28.08.98-11.02 0-21.83-.58-27.94-.97C36.62 62.41 36 53.7 36 50s.62-12.41 1.06-18.03C43.16 31.58 53.97 31 65 31m0-6c-17.13 0-33.51 1.35-33.51 1.35S30 44.03 30 50s1.49 23.65 1.49 23.65S47.87 75 65 75s33.51-1.35 33.51-1.35S100 62.16 100 50s-1.49-23.65-1.49-23.65S82.13 25 65 25z"/>
</svg>
