<svg xmlns="http://www.w3.org/2000/svg" x="0" y="0" viewBox="0 0 100 100">
  <path d="M50 21c15.24 0 30.17.93 37.63 1.48C88.18 28.43 89 39.06 89 50c0 10.93-.82 21.56-1.37 27.52C80.16 78.07 65.24 79 50 79c-15.14 0-29.97-.92-37.48-1.47C11.96 69.88 11 55.75 11 50s.96-19.88 1.52-27.53C20.03 21.92 34.86 21 50 21m0-6c-22.02 0-43.09 1.89-43.09 1.89S5 41.64 5 50s1.91 33.11 1.91 33.11S27.98 85 50 85s43.09-1.89 43.09-1.89S95 67.03 95 50s-1.91-33.11-1.91-33.11S72.02 15 50 15z"/>
  <path d="M49 79V20h16L54 79z"/>
</svg>
