{
  "header": {
    "keySignatures": [
      {
        "key": "C",
        "scale": "major",
        "ticks": 0
      },
      {
        "key": "C",
        "scale": "major",
        "ticks": 0
      },
      {
        "key": "C",
        "scale": "major",
        "ticks": 0
      },
      {
        "key": "C",
        "scale": "major",
        "ticks": 0
      },
      {
        "key": "C",
        "scale": "major",
        "ticks": 0
      },
      {
        "key": "C",
        "scale": "major",
        "ticks": 0
      },
      {
        "key": "C",
        "scale": "major",
        "ticks": 0
      },
      {
        "key": "C",
        "scale": "major",
        "ticks": 0
      },
      {
        "key": "C",
        "scale": "major",
        "ticks": 0
      },
      {
        "key": "C",
        "scale": "major",
        "ticks": 0
      },
      {
        "key": "C",
        "scale": "major",
        "ticks": 0
      },
      {
        "key": "C",
        "scale": "major",
        "ticks": 0
      },
      {
        "key": "C",
        "scale": "major",
        "ticks": 0
      },
      {
        "key": "C",
        "scale": "major",
        "ticks": 0
      },
      {
        "key": "C",
        "scale": "major",
        "ticks": 0
      },
      {
        "key": "C",
        "scale": "major",
        "ticks": 0
      },
      {
        "key": "C",
        "scale": "major",
        "ticks": 0
      },
      {
        "key": "C",
        "scale": "major",
        "ticks": 0
      },
      {
        "key": "C",
        "scale": "major",
        "ticks": 0
      },
      {
        "key": "C",
        "scale": "major",
        "ticks": 0
      },
      {
        "key": "C",
        "scale": "major",
        "ticks": 0
      },
      {
        "key": "C",
        "scale": "major",
        "ticks": 0
      },
      {
        "key": "C",
        "scale": "major",
        "ticks": 0
      },
      {
        "key": "C",
        "scale": "major",
        "ticks": 0
      },
      {
        "key": "C",
        "scale": "major",
        "ticks": 0
      }
    ],
    "meta": [],
    "name": "",
    "ppq": 384,
    "tempos": [
      {
        "bpm": 180.00018000018,
        "ticks": 0
      }
    ],
    "timeSignatures": [
      {
        "ticks": 0,
        "timeSignature": [
          4,
          4
        ],
        "measures": 0
      }
    ]
  },
  "tracks": [
    {
      "channel": 0,
      "controlChanges": {
        "0": [
          {
            "number": 0,
            "ticks": 0,
            "time": 0,
            "value": 0
          }
        ]
      },
      "pitchBends": [],
      "instrument": {
        "family": "piano",
        "number": 0,
        "name": "acoustic grand piano"
      },
      "name": "Fretless Bass",
      "notes": [],
      "endOfTrackTicks": 94656
    },
    {
      "channel": 0,
      "controlChanges": {},
      "pitchBends": [],
      "instrument": {
        "family": "bass",
        "number": 35,
        "name": "fretless bass"
      },
      "name": "",
      "notes": [
        {
          "duration": 0.08333325,
          "durationTicks": 96,
          "midi": 43,
          "name": "G2",
          "ticks": 0,
          "time": 0,
          "velocity": 0.8582677165354331
        },
        {
          "duration": 0.08333325,
          "durationTicks": 96,
          "midi": 43,
          "name": "G2",
          "ticks": 96,
          "time": 0.08333325,
          "velocity": 0.8582677165354331
        },
        {
          "duration": 0.08333325,
          "durationTicks": 96,
          "midi": 43,
          "name": "G2",
          "ticks": 288,
          "time": 0.24999975,
          "velocity": 0.8582677165354331
        },
        {
          "duration": 0.08333325000000003,
          "durationTicks": 96,
          "midi": 43,
          "name": "G2",
          "ticks": 384,
          "time": 0.333333,
          "velocity": 0.8582677165354331
        },
        {
          "duration": 0.08333324999999997,
          "durationTicks": 96,
          "midi": 43,
          "name": "G2",
          "ticks": 576,
          "time": 0.4999995,
          "velocity": 0.8582677165354331
        },
        {
          "duration": 0.08333325000000003,
          "durationTicks": 96,
          "midi": 43,
          "name": "G2",
          "ticks": 768,
          "time": 0.666666,
          "velocity": 0.8582677165354331
        },
        {
          "duration": 0.08333325000000014,
          "durationTicks": 96,
          "midi": 43,
          "name": "G2",
          "ticks": 1344,
          "time": 1.1666655,
          "velocity": 0.8582677165354331
        },
        {
          "duration": 0.08333324999999991,
          "durationTicks": 96,
          "midi": 45,
          "name": "A2",
          "ticks": 1440,
          "time": 1.24999875,
          "velocity": 0.8582677165354331
        },
        {
          "duration": 0.16666650000000005,
          "durationTicks": 192,
          "midi": 48,
          "name": "C3",
          "ticks": 1536,
          "time": 1.333332,
          "velocity": 0.8582677165354331
        },
        {
          "duration": 0.16666649999999983,
          "durationTicks": 192,
          "midi": 48,
          "name": "C3",
          "ticks": 3072,
          "time": 2.666664,
          "velocity": 0.8582677165354331
        },
        {
          "duration": 0.16666650000000027,
          "durationTicks": 192,
          "midi": 50,
          "name": "D3",
          "ticks": 4608,
          "time": 3.999996,
          "velocity": 0.8582677165354331
        },
        {
          "duration": 0.08333324999999991,
          "durationTicks": 96,
          "midi": 55,
          "name": "G3",
          "ticks": 6336,
          "time": 5.4999945,
          "velocity": 0.8582677165354331
        },
        {
          "duration": 0.08333324999999991,
          "durationTicks": 96,
          "midi": 55,
          "name": "G3",
          "ticks": 6528,
          "time": 5.6666609999999995,
          "velocity": 0.8582677165354331
        },
        {
          "duration": 0.08333324999999991,
          "durationTicks": 96,
          "midi": 55,
          "name": "G3",
          "ticks": 6720,
          "time": 5.8333275,
          "velocity": 0.8582677165354331
        },
        {
          "duration": 0.08333324999999991,
          "durationTicks": 96,
          "midi": 55,
          "name": "G3",
          "ticks": 6912,
          "time": 5.999994,
          "velocity": 0.8582677165354331
        },
        {
          "duration": 0.16666649999999983,
          "durationTicks": 192,
          "midi": 36,
          "name": "C2",
          "ticks": 7680,
          "time": 6.66666,
          "velocity": 0.8582677165354331
        },
        {
          "duration": 0.16666649999999983,
          "durationTicks": 192,
          "midi": 31,
          "name": "G1",
          "ticks": 8064,
          "time": 6.999993,
          "velocity": 0.8582677165354331
        },
        {
          "duration": 0.16666649999999983,
          "durationTicks": 192,
          "midi": 36,
          "name": "C2",
          "ticks": 8448,
          "time": 7.333326,
          "velocity": 0.8582677165354331
        },
        {
          "duration": 0.16666649999999983,
          "durationTicks": 192,
          "midi": 31,
          "name": "G1",
          "ticks": 8832,
          "time": 7.666659,
          "velocity": 0.8582677165354331
        },
        {
          "duration": 0.16666650000000072,
          "durationTicks": 192,
          "midi": 36,
          "name": "C2",
          "ticks": 9216,
          "time": 7.999992,
          "velocity": 0.8582677165354331
        },
        {
          "duration": 0.16666649999999983,
          "durationTicks": 192,
          "midi": 31,
          "name": "G1",
          "ticks": 9600,
          "time": 8.333325,
          "velocity": 0.8582677165354331
        },
        {
          "duration": 0.16666649999999983,
          "durationTicks": 192,
          "midi": 36,
          "name": "C2",
          "ticks": 9984,
          "time": 8.666658,
          "velocity": 0.8582677165354331
        },
        {
          "duration": 0.16666649999999983,
          "durationTicks": 192,
          "midi": 31,
          "name": "G1",
          "ticks": 10368,
          "time": 8.999991,
          "velocity": 0.8582677165354331
        },
        {
          "duration": 0.16666649999999983,
          "durationTicks": 192,
          "midi": 38,
          "name": "D2",
          "ticks": 10752,
          "time": 9.333324,
          "velocity": 0.8582677165354331
        },
        {
          "duration": 0.1666665000000016,
          "durationTicks": 192,
          "midi": 33,
          "name": "A1",
          "ticks": 11136,
          "time": 9.666656999999999,
          "velocity": 0.8582677165354331
        },
        {
          "duration": 0.16666649999999983,
          "durationTicks": 192,
          "midi": 43,
          "name": "G2",
          "ticks": 11520,
          "time": 9.99999,
          "velocity": 0.8582677165354331
        },
        {
          "duration": 0.16666649999999983,
          "durationTicks": 192,
          "midi": 31,
          "name": "G1",
          "ticks": 11904,
          "time": 10.333323,
          "velocity": 0.8582677165354331
        },
        {
          "duration": 0.16666649999999983,
          "durationTicks": 192,
          "midi": 36,
          "name": "C2",
          "ticks": 12288,
          "time": 10.666656,
          "velocity": 0.8582677165354331
        },
        {
          "duration": 0.16666649999999983,
          "durationTicks": 192,
          "midi": 31,
          "name": "G1",
          "ticks": 12672,
          "time": 10.999989,
          "velocity": 0.8582677165354331
        },
        {
          "duration": 0.16666649999999983,
          "durationTicks": 192,
          "midi": 36,
          "name": "C2",
          "ticks": 13056,
          "time": 11.333321999999999,
          "velocity": 0.8582677165354331
        },
        {
          "duration": 0.16666649999999983,
          "durationTicks": 192,
          "midi": 31,
          "name": "G1",
          "ticks": 13440,
          "time": 11.666655,
          "velocity": 0.8582677165354331
        },
        {
          "duration": 0.16666649999999983,
          "durationTicks": 192,
          "midi": 36,
          "name": "C2",
          "ticks": 13824,
          "time": 11.999988,
          "velocity": 0.8582677165354331
        },
        {
          "duration": 0.16666649999999983,
          "durationTicks": 192,
          "midi": 31,
          "name": "G1",
          "ticks": 14208,
          "time": 12.333321,
          "velocity": 0.8582677165354331
        },
        {
          "duration": 0.16666649999999983,
          "durationTicks": 192,
          "midi": 36,
          "name": "C2",
          "ticks": 14592,
          "time": 12.666654,
          "velocity": 0.8582677165354331
        },
        {
          "duration": 0.16666649999999983,
          "durationTicks": 192,
          "midi": 31,
          "name": "G1",
          "ticks": 14976,
          "time": 12.999986999999999,
          "velocity": 0.8582677165354331
        },
        {
          "duration": 0.16666649999999983,
          "durationTicks": 192,
          "midi": 36,
          "name": "C2",
          "ticks": 15360,
          "time": 13.33332,
          "velocity": 0.8582677165354331
        },
        {
          "duration": 0.16666649999999983,
          "durationTicks": 192,
          "midi": 31,
          "name": "G1",
          "ticks": 15744,
          "time": 13.666653,
          "velocity": 0.8582677165354331
        },
        {
          "duration": 0.16666649999999983,
          "durationTicks": 192,
          "midi": 36,
          "name": "C2",
          "ticks": 16128,
          "time": 13.999986,
          "velocity": 0.8582677165354331
        },
        {
          "duration": 0.16666649999999983,
          "durationTicks": 192,
          "midi": 31,
          "name": "G1",
          "ticks": 16512,
          "time": 14.333319,
          "velocity": 0.8582677165354331
        },
        {
          "duration": 0.16666649999999983,
          "durationTicks": 192,
          "midi": 38,
          "name": "D2",
          "ticks": 16896,
          "time": 14.666652,
          "velocity": 0.8582677165354331
        },
        {
          "duration": 0.1666665000000016,
          "durationTicks": 192,
          "midi": 33,
          "name": "A1",
          "ticks": 17280,
          "time": 14.999984999999999,
          "velocity": 0.8582677165354331
        },
        {
          "duration": 0.16666649999999983,
          "durationTicks": 192,
          "midi": 40,
          "name": "E2",
          "ticks": 17664,
          "time": 15.333318,
          "velocity": 0.8582677165354331
        },
        {
          "duration": 0.16666649999999983,
          "durationTicks": 192,
          "midi": 28,
          "name": "E1",
          "ticks": 18048,
          "time": 15.666651,
          "velocity": 0.8582677165354331
        },
        {
          "duration": 0.16666649999999983,
          "durationTicks": 192,
          "midi": 33,
          "name": "A1",
          "ticks": 18432,
          "time": 15.999984,
          "velocity": 0.8582677165354331
        },
        {
          "duration": 0.16666649999999805,
          "durationTicks": 192,
          "midi": 45,
          "name": "A2",
          "ticks": 18816,
          "time": 16.333317,
          "velocity": 0.8582677165354331
        },
        {
          "duration": 0.16666649999999805,
          "durationTicks": 192,
          "midi": 43,
          "name": "G2",
          "ticks": 19200,
          "time": 16.66665,
          "velocity": 0.8582677165354331
        },
        {
          "duration": 0.16666649999999805,
          "durationTicks": 192,
          "midi": 31,
          "name": "G1",
          "ticks": 19584,
          "time": 16.999983,
          "velocity": 0.8582677165354331
        },
        {
          "duration": 0.2222219999999986,
          "durationTicks": 256,
          "midi": 29,
          "name": "F1",
          "ticks": 19968,
          "time": 17.333316,
          "velocity": 0.8582677165354331
        },
        {
          "duration": 0.08333324999999903,
          "durationTicks": 96,
          "midi": 29,
          "name": "F1",
          "ticks": 20256,
          "time": 17.58331575,
          "velocity": 0.8582677165354331
        },
        {
          "duration": 0.08333324999999903,
          "durationTicks": 96,
          "midi": 31,
          "name": "G1",
          "ticks": 20736,
          "time": 17.999982,
          "velocity": 0.8582677165354331
        },
        {
          "duration": 0.08333324999999903,
          "durationTicks": 96,
          "midi": 31,
          "name": "G1",
          "ticks": 20928,
          "time": 18.1666485,
          "velocity": 0.8582677165354331
        },
        {
          "duration": 0.1666665000000016,
          "durationTicks": 192,
          "midi": 36,
          "name": "C2",
          "ticks": 21504,
          "time": 18.666648,
          "velocity": 0.8582677165354331
        },
        {
          "duration": 0.1666665000000016,
          "durationTicks": 192,
          "midi": 31,
          "name": "G1",
          "ticks": 21888,
          "time": 18.999981,
          "velocity": 0.8582677165354331
        },
        {
          "duration": 0.1666665000000016,
          "durationTicks": 192,
          "midi": 36,
          "name": "C2",
          "ticks": 22272,
          "time": 19.333313999999998,
          "velocity": 0.8582677165354331
        },
        {
          "duration": 0.16666649999999805,
          "durationTicks": 192,
          "midi": 31,
          "name": "G1",
          "ticks": 22656,
          "time": 19.666647,
          "velocity": 0.8582677165354331
        },
        {
          "duration": 0.16666649999999805,
          "durationTicks": 192,
          "midi": 36,
          "name": "C2",
          "ticks": 23040,
          "time": 19.99998,
          "velocity": 0.8582677165354331
        },
        {
          "duration": 0.16666649999999805,
          "durationTicks": 192,
          "midi": 31,
          "name": "G1",
          "ticks": 23424,
          "time": 20.333313,
          "velocity": 0.8582677165354331
        },
        {
          "duration": 0.16666649999999805,
          "durationTicks": 192,
          "midi": 36,
          "name": "C2",
          "ticks": 23808,
          "time": 20.666646,
          "velocity": 0.8582677165354331
        },
        {
          "duration": 0.16666649999999805,
          "durationTicks": 192,
          "midi": 31,
          "name": "G1",
          "ticks": 24192,
          "time": 20.999979,
          "velocity": 0.8582677165354331
        },
        {
          "duration": 0.1666665000000016,
          "durationTicks": 192,
          "midi": 29,
          "name": "F1",
          "ticks": 24576,
          "time": 21.333312,
          "velocity": 0.8582677165354331
        },
        {
          "duration": 0.1666665000000016,
          "durationTicks": 192,
          "midi": 36,
          "name": "C2",
          "ticks": 24960,
          "time": 21.666645,
          "velocity": 0.8582677165354331
        },
        {
          "duration": 0.1666665000000016,
          "durationTicks": 192,
          "midi": 34,
          "name": "A#1",
          "ticks": 25344,
          "time": 21.999978,
          "velocity": 0.8582677165354331
        },
        {
          "duration": 0.1666665000000016,
          "durationTicks": 192,
          "midi": 29,
          "name": "F1",
          "ticks": 25728,
          "time": 22.333311,
          "velocity": 0.8582677165354331
        },
        {
          "duration": 0.1666665000000016,
          "durationTicks": 192,
          "midi": 27,
          "name": "D#1",
          "ticks": 26112,
          "time": 22.666643999999998,
          "velocity": 0.8582677165354331
        },
        {
          "duration": 0.1666665000000016,
          "durationTicks": 192,
          "midi": 34,
          "name": "A#1",
          "ticks": 26496,
          "time": 22.999976999999998,
          "velocity": 0.8582677165354331
        },
        {
          "duration": 0.16666649999999805,
          "durationTicks": 192,
          "midi": 32,
          "name": "G#1",
          "ticks": 26880,
          "time": 23.33331,
          "velocity": 0.8582677165354331
        },
        {
          "duration": 0.16666649999999805,
          "durationTicks": 192,
          "midi": 39,
          "name": "D#2",
          "ticks": 27264,
          "time": 23.666643,
          "velocity": 0.8582677165354331
        },
        {
          "duration": 0.16666649999999805,
          "durationTicks": 192,
          "midi": 29,
          "name": "F1",
          "ticks": 27648,
          "time": 23.999976,
          "velocity": 0.8582677165354331
        },
        {
          "duration": 0.16666649999999805,
          "durationTicks": 192,
          "midi": 36,
          "name": "C2",
          "ticks": 28032,
          "time": 24.333309,
          "velocity": 0.8582677165354331
        },
        {
          "duration": 0.16666649999999805,
          "durationTicks": 192,
          "midi": 34,
          "name": "A#1",
          "ticks": 28416,
          "time": 24.666642,
          "velocity": 0.8582677165354331
        },
        {
          "duration": 0.1666665000000016,
          "durationTicks": 192,
          "midi": 29,
          "name": "F1",
          "ticks": 28800,
          "time": 24.999975,
          "velocity": 0.8582677165354331
        },
        {
          "duration": 0.1666665000000016,
          "durationTicks": 192,
          "midi": 27,
          "name": "D#1",
          "ticks": 29184,
          "time": 25.333308,
          "velocity": 0.8582677165354331
        },
        {
          "duration": 0.1666665000000016,
          "durationTicks": 192,
          "midi": 34,
          "name": "A#1",
          "ticks": 29568,
          "time": 25.666641,
          "velocity": 0.8582677165354331
        },
        {
          "duration": 0.1666665000000016,
          "durationTicks": 192,
          "midi": 32,
          "name": "G#1",
          "ticks": 29952,
          "time": 25.999973999999998,
          "velocity": 0.8582677165354331
        },
        {
          "duration": 0.1666665000000016,
          "durationTicks": 192,
          "midi": 39,
          "name": "D#2",
          "ticks": 30336,
          "time": 26.333306999999998,
          "velocity": 0.8582677165354331
        },
        {
          "duration": 0.16666649999999805,
          "durationTicks": 192,
          "midi": 29,
          "name": "F1",
          "ticks": 30720,
          "time": 26.66664,
          "velocity": 0.8582677165354331
        },
        {
          "duration": 0.16666649999999805,
          "durationTicks": 192,
          "midi": 36,
          "name": "C2",
          "ticks": 31104,
          "time": 26.999973,
          "velocity": 0.8582677165354331
        },
        {
          "duration": 0.16666649999999805,
          "durationTicks": 192,
          "midi": 34,
          "name": "A#1",
          "ticks": 31488,
          "time": 27.333306,
          "velocity": 0.8582677165354331
        },
        {
          "duration": 0.16666649999999805,
          "durationTicks": 192,
          "midi": 29,
          "name": "F1",
          "ticks": 31872,
          "time": 27.666639,
          "velocity": 0.8582677165354331
        },
        {
          "duration": 0.16666649999999805,
          "durationTicks": 192,
          "midi": 27,
          "name": "D#1",
          "ticks": 32256,
          "time": 27.999972,
          "velocity": 0.8582677165354331
        },
        {
          "duration": 0.1666665000000016,
          "durationTicks": 192,
          "midi": 34,
          "name": "A#1",
          "ticks": 32640,
          "time": 28.333305,
          "velocity": 0.8582677165354331
        },
        {
          "duration": 0.1666665000000016,
          "durationTicks": 192,
          "midi": 32,
          "name": "G#1",
          "ticks": 33024,
          "time": 28.666638,
          "velocity": 0.8582677165354331
        },
        {
          "duration": 0.1666665000000016,
          "durationTicks": 192,
          "midi": 39,
          "name": "D#2",
          "ticks": 33408,
          "time": 28.999971,
          "velocity": 0.8582677165354331
        },
        {
          "duration": 0.1666665000000016,
          "durationTicks": 192,
          "midi": 29,
          "name": "F1",
          "ticks": 33792,
          "time": 29.333304,
          "velocity": 0.8582677165354331
        },
        {
          "duration": 0.1666665000000016,
          "durationTicks": 192,
          "midi": 36,
          "name": "C2",
          "ticks": 34176,
          "time": 29.666636999999998,
          "velocity": 0.8582677165354331
        },
        {
          "duration": 0.1666665000000016,
          "durationTicks": 192,
          "midi": 34,
          "name": "A#1",
          "ticks": 34560,
          "time": 29.999969999999998,
          "velocity": 0.8582677165354331
        },
        {
          "duration": 0.16666649999999805,
          "durationTicks": 192,
          "midi": 29,
          "name": "F1",
          "ticks": 34944,
          "time": 30.333303,
          "velocity": 0.8582677165354331
        },
        {
          "duration": 0.16666649999999805,
          "durationTicks": 192,
          "midi": 31,
          "name": "G1",
          "ticks": 35328,
          "time": 30.666636,
          "velocity": 0.8582677165354331
        },
        {
          "duration": 0.08333324999999903,
          "durationTicks": 96,
          "midi": 31,
          "name": "G1",
          "ticks": 35520,
          "time": 30.8333025,
          "velocity": 0.8582677165354331
        },
        {
          "duration": 0.08333325000000258,
          "durationTicks": 96,
          "midi": 31,
          "name": "G1",
          "ticks": 35616,
          "time": 30.916635749999998,
          "velocity": 0.8582677165354331
        },
        {
          "duration": 0.16666649999999805,
          "durationTicks": 192,
          "midi": 38,
          "name": "D2",
          "ticks": 35712,
          "time": 30.999969,
          "velocity": 0.8582677165354331
        },
        {
          "duration": 0.08333325000000258,
          "durationTicks": 96,
          "midi": 38,
          "name": "D2",
          "ticks": 35904,
          "time": 31.166635499999998,
          "velocity": 0.8582677165354331
        },
        {
          "duration": 0.08333324999999903,
          "durationTicks": 96,
          "midi": 38,
          "name": "D2",
          "ticks": 36000,
          "time": 31.24996875,
          "velocity": 0.8582677165354331
        },
        {
          "duration": 0.16666649999999805,
          "durationTicks": 192,
          "midi": 43,
          "name": "G2",
          "ticks": 36096,
          "time": 31.333302,
          "velocity": 0.8582677165354331
        },
        {
          "duration": 0.1666665000000016,
          "durationTicks": 192,
          "midi": 36,
          "name": "C2",
          "ticks": 36864,
          "time": 31.999968,
          "velocity": 0.8582677165354331
        },
        {
          "duration": 0.16666649999999805,
          "durationTicks": 192,
          "midi": 31,
          "name": "G1",
          "ticks": 37248,
          "time": 32.333301,
          "velocity": 0.8582677165354331
        },
        {
          "duration": 0.16666649999999805,
          "durationTicks": 192,
          "midi": 36,
          "name": "C2",
          "ticks": 37632,
          "time": 32.666634,
          "velocity": 0.8582677165354331
        },
        {
          "duration": 0.16666649999999805,
          "durationTicks": 192,
          "midi": 31,
          "name": "G1",
          "ticks": 38016,
          "time": 32.999967,
          "velocity": 0.8582677165354331
        },
        {
          "duration": 0.16666649999999805,
          "durationTicks": 192,
          "midi": 36,
          "name": "C2",
          "ticks": 38400,
          "time": 33.3333,
          "velocity": 0.8582677165354331
        },
        {
          "duration": 0.16666650000000516,
          "durationTicks": 192,
          "midi": 31,
          "name": "G1",
          "ticks": 38784,
          "time": 33.666633,
          "velocity": 0.8582677165354331
        },
        {
          "duration": 0.16666649999999805,
          "durationTicks": 192,
          "midi": 36,
          "name": "C2",
          "ticks": 39168,
          "time": 33.999966,
          "velocity": 0.8582677165354331
        },
        {
          "duration": 0.16666650000000516,
          "durationTicks": 192,
          "midi": 31,
          "name": "G1",
          "ticks": 39552,
          "time": 34.333299,
          "velocity": 0.8582677165354331
        },
        {
          "duration": 0.16666649999999805,
          "durationTicks": 192,
          "midi": 38,
          "name": "D2",
          "ticks": 39936,
          "time": 34.666632,
          "velocity": 0.8582677165354331
        },
        {
          "duration": 0.16666650000000516,
          "durationTicks": 192,
          "midi": 33,
          "name": "A1",
          "ticks": 40320,
          "time": 34.999964999999996,
          "velocity": 0.8582677165354331
        },
        {
          "duration": 0.16666649999999805,
          "durationTicks": 192,
          "midi": 43,
          "name": "G2",
          "ticks": 40704,
          "time": 35.333298,
          "velocity": 0.8582677165354331
        },
        {
          "duration": 0.16666649999999805,
          "durationTicks": 192,
          "midi": 31,
          "name": "G1",
          "ticks": 41088,
          "time": 35.666631,
          "velocity": 0.8582677165354331
        },
        {
          "duration": 0.16666649999999805,
          "durationTicks": 192,
          "midi": 36,
          "name": "C2",
          "ticks": 41472,
          "time": 35.999964,
          "velocity": 0.8582677165354331
        },
        {
          "duration": 0.16666649999999805,
          "durationTicks": 192,
          "midi": 31,
          "name": "G1",
          "ticks": 41856,
          "time": 36.333297,
          "velocity": 0.8582677165354331
        },
        {
          "duration": 0.16666649999999805,
          "durationTicks": 192,
          "midi": 36,
          "name": "C2",
          "ticks": 42240,
          "time": 36.66663,
          "velocity": 0.8582677165354331
        },
        {
          "duration": 0.16666649999999805,
          "durationTicks": 192,
          "midi": 31,
          "name": "G1",
          "ticks": 42624,
          "time": 36.999963,
          "velocity": 0.8582677165354331
        },
        {
          "duration": 0.16666650000000516,
          "durationTicks": 192,
          "midi": 36,
          "name": "C2",
          "ticks": 43008,
          "time": 37.333296,
          "velocity": 0.8582677165354331
        },
        {
          "duration": 0.16666649999999805,
          "durationTicks": 192,
          "midi": 31,
          "name": "G1",
          "ticks": 43392,
          "time": 37.666629,
          "velocity": 0.8582677165354331
        },
        {
          "duration": 0.16666650000000516,
          "durationTicks": 192,
          "midi": 36,
          "name": "C2",
          "ticks": 43776,
          "time": 37.999962,
          "velocity": 0.8582677165354331
        },
        {
          "duration": 0.16666649999999805,
          "durationTicks": 192,
          "midi": 31,
          "name": "G1",
          "ticks": 44160,
          "time": 38.333295,
          "velocity": 0.8582677165354331
        },
        {
          "duration": 0.16666650000000516,
          "durationTicks": 192,
          "midi": 36,
          "name": "C2",
          "ticks": 44544,
          "time": 38.666627999999996,
          "velocity": 0.8582677165354331
        },
        {
          "duration": 0.16666649999999805,
          "durationTicks": 192,
          "midi": 31,
          "name": "G1",
          "ticks": 44928,
          "time": 38.999961,
          "velocity": 0.8582677165354331
        },
        {
          "duration": 0.16666649999999805,
          "durationTicks": 192,
          "midi": 36,
          "name": "C2",
          "ticks": 45312,
          "time": 39.333294,
          "velocity": 0.8582677165354331
        },
        {
          "duration": 0.16666649999999805,
          "durationTicks": 192,
          "midi": 31,
          "name": "G1",
          "ticks": 45696,
          "time": 39.666627,
          "velocity": 0.8582677165354331
        },
        {
          "duration": 0.16666649999999805,
          "durationTicks": 192,
          "midi": 38,
          "name": "D2",
          "ticks": 46080,
          "time": 39.99996,
          "velocity": 0.8582677165354331
        },
        {
          "duration": 0.16666649999999805,
          "durationTicks": 192,
          "midi": 33,
          "name": "A1",
          "ticks": 46464,
          "time": 40.333293,
          "velocity": 0.8582677165354331
        },
        {
          "duration": 0.16666649999999805,
          "durationTicks": 192,
          "midi": 40,
          "name": "E2",
          "ticks": 46848,
          "time": 40.666626,
          "velocity": 0.8582677165354331
        },
        {
          "duration": 0.16666650000000516,
          "durationTicks": 192,
          "midi": 28,
          "name": "E1",
          "ticks": 47232,
          "time": 40.999959,
          "velocity": 0.8582677165354331
        },
        {
          "duration": 0.16666649999999805,
          "durationTicks": 192,
          "midi": 33,
          "name": "A1",
          "ticks": 47616,
          "time": 41.333292,
          "velocity": 0.8582677165354331
        },
        {
          "duration": 0.16666650000000516,
          "durationTicks": 192,
          "midi": 45,
          "name": "A2",
          "ticks": 48000,
          "time": 41.666624999999996,
          "velocity": 0.8582677165354331
        },
        {
          "duration": 0.16666649999999805,
          "durationTicks": 192,
          "midi": 43,
          "name": "G2",
          "ticks": 48384,
          "time": 41.999958,
          "velocity": 0.8582677165354331
        },
        {
          "duration": 0.16666650000000516,
          "durationTicks": 192,
          "midi": 31,
          "name": "G1",
          "ticks": 48768,
          "time": 42.333290999999996,
          "velocity": 0.8582677165354331
        },
        {
          "duration": 0.22222199999999503,
          "durationTicks": 256,
          "midi": 29,
          "name": "F1",
          "ticks": 49152,
          "time": 42.666624,
          "velocity": 0.8582677165354331
        },
        {
          "duration": 0.08333325000000258,
          "durationTicks": 96,
          "midi": 29,
          "name": "F1",
          "ticks": 49440,
          "time": 42.91662375,
          "velocity": 0.8582677165354331
        },
        {
          "duration": 0.08333325000000258,
          "durationTicks": 96,
          "midi": 31,
          "name": "G1",
          "ticks": 49920,
          "time": 43.33329,
          "velocity": 0.8582677165354331
        },
        {
          "duration": 0.08333325000000258,
          "durationTicks": 96,
          "midi": 31,
          "name": "G1",
          "ticks": 50112,
          "time": 43.499956499999996,
          "velocity": 0.8582677165354331
        },
        {
          "duration": 0.16666649999999805,
          "durationTicks": 192,
          "midi": 36,
          "name": "C2",
          "ticks": 50688,
          "time": 43.999956,
          "velocity": 0.8582677165354331
        },
        {
          "duration": 0.16666649999999805,
          "durationTicks": 192,
          "midi": 31,
          "name": "G1",
          "ticks": 51072,
          "time": 44.333289,
          "velocity": 0.8582677165354331
        },
        {
          "duration": 0.16666650000000516,
          "durationTicks": 192,
          "midi": 36,
          "name": "C2",
          "ticks": 51456,
          "time": 44.666622,
          "velocity": 0.8582677165354331
        },
        {
          "duration": 0.16666649999999805,
          "durationTicks": 192,
          "midi": 31,
          "name": "G1",
          "ticks": 51840,
          "time": 44.999955,
          "velocity": 0.8582677165354331
        },
        {
          "duration": 0.16666650000000516,
          "durationTicks": 192,
          "midi": 36,
          "name": "C2",
          "ticks": 52224,
          "time": 45.333287999999996,
          "velocity": 0.8582677165354331
        },
        {
          "duration": 0.16666649999999805,
          "durationTicks": 192,
          "midi": 31,
          "name": "G1",
          "ticks": 52608,
          "time": 45.666621,
          "velocity": 0.8582677165354331
        },
        {
          "duration": 0.16666650000000516,
          "durationTicks": 192,
          "midi": 36,
          "name": "C2",
          "ticks": 52992,
          "time": 45.999953999999995,
          "velocity": 0.8582677165354331
        },
        {
          "duration": 0.16666649999999805,
          "durationTicks": 192,
          "midi": 31,
          "name": "G1",
          "ticks": 53376,
          "time": 46.333287,
          "velocity": 0.8582677165354331
        },
        {
          "duration": 0.16666649999999805,
          "durationTicks": 192,
          "midi": 29,
          "name": "F1",
          "ticks": 53760,
          "time": 46.66662,
          "velocity": 0.8582677165354331
        },
        {
          "duration": 0.16666649999999805,
          "durationTicks": 192,
          "midi": 36,
          "name": "C2",
          "ticks": 54144,
          "time": 46.999953,
          "velocity": 0.8582677165354331
        },
        {
          "duration": 0.16666649999999805,
          "durationTicks": 192,
          "midi": 34,
          "name": "A#1",
          "ticks": 54528,
          "time": 47.333286,
          "velocity": 0.8582677165354331
        },
        {
          "duration": 0.16666649999999805,
          "durationTicks": 192,
          "midi": 29,
          "name": "F1",
          "ticks": 54912,
          "time": 47.666619,
          "velocity": 0.8582677165354331
        },
        {
          "duration": 0.16666649999999805,
          "durationTicks": 192,
          "midi": 27,
          "name": "D#1",
          "ticks": 55296,
          "time": 47.999952,
          "velocity": 0.8582677165354331
        },
        {
          "duration": 0.16666650000000516,
          "durationTicks": 192,
          "midi": 34,
          "name": "A#1",
          "ticks": 55680,
          "time": 48.333285,
          "velocity": 0.8582677165354331
        },
        {
          "duration": 0.16666649999999805,
          "durationTicks": 192,
          "midi": 32,
          "name": "G#1",
          "ticks": 56064,
          "time": 48.666618,
          "velocity": 0.8582677165354331
        },
        {
          "duration": 0.16666650000000516,
          "durationTicks": 192,
          "midi": 39,
          "name": "D#2",
          "ticks": 56448,
          "time": 48.999950999999996,
          "velocity": 0.8582677165354331
        },
        {
          "duration": 0.16666649999999805,
          "durationTicks": 192,
          "midi": 29,
          "name": "F1",
          "ticks": 56832,
          "time": 49.333284,
          "velocity": 0.8582677165354331
        },
        {
          "duration": 0.16666650000000516,
          "durationTicks": 192,
          "midi": 36,
          "name": "C2",
          "ticks": 57216,
          "time": 49.666616999999995,
          "velocity": 0.8582677165354331
        },
        {
          "duration": 0.16666649999999805,
          "durationTicks": 192,
          "midi": 34,
          "name": "A#1",
          "ticks": 57600,
          "time": 49.99995,
          "velocity": 0.8582677165354331
        },
        {
          "duration": 0.16666649999999805,
          "durationTicks": 192,
          "midi": 29,
          "name": "F1",
          "ticks": 57984,
          "time": 50.333283,
          "velocity": 0.8582677165354331
        },
        {
          "duration": 0.16666649999999805,
          "durationTicks": 192,
          "midi": 27,
          "name": "D#1",
          "ticks": 58368,
          "time": 50.666616,
          "velocity": 0.8582677165354331
        },
        {
          "duration": 0.16666649999999805,
          "durationTicks": 192,
          "midi": 34,
          "name": "A#1",
          "ticks": 58752,
          "time": 50.999949,
          "velocity": 0.8582677165354331
        },
        {
          "duration": 0.16666649999999805,
          "durationTicks": 192,
          "midi": 32,
          "name": "G#1",
          "ticks": 59136,
          "time": 51.333282,
          "velocity": 0.8582677165354331
        },
        {
          "duration": 0.16666649999999805,
          "durationTicks": 192,
          "midi": 39,
          "name": "D#2",
          "ticks": 59520,
          "time": 51.666615,
          "velocity": 0.8582677165354331
        },
        {
          "duration": 0.16666650000000516,
          "durationTicks": 192,
          "midi": 29,
          "name": "F1",
          "ticks": 59904,
          "time": 51.999947999999996,
          "velocity": 0.8582677165354331
        },
        {
          "duration": 0.16666649999999805,
          "durationTicks": 192,
          "midi": 36,
          "name": "C2",
          "ticks": 60288,
          "time": 52.333281,
          "velocity": 0.8582677165354331
        },
        {
          "duration": 0.16666650000000516,
          "durationTicks": 192,
          "midi": 34,
          "name": "A#1",
          "ticks": 60672,
          "time": 52.666613999999996,
          "velocity": 0.8582677165354331
        },
        {
          "duration": 0.16666649999999805,
          "durationTicks": 192,
          "midi": 29,
          "name": "F1",
          "ticks": 61056,
          "time": 52.999947,
          "velocity": 0.8582677165354331
        },
        {
          "duration": 0.16666649999999805,
          "durationTicks": 192,
          "midi": 27,
          "name": "D#1",
          "ticks": 61440,
          "time": 53.33328,
          "velocity": 0.8582677165354331
        },
        {
          "duration": 0.16666649999999805,
          "durationTicks": 192,
          "midi": 34,
          "name": "A#1",
          "ticks": 61824,
          "time": 53.666613,
          "velocity": 0.8582677165354331
        },
        {
          "duration": 0.16666649999999805,
          "durationTicks": 192,
          "midi": 32,
          "name": "G#1",
          "ticks": 62208,
          "time": 53.999946,
          "velocity": 0.8582677165354331
        },
        {
          "duration": 0.16666649999999805,
          "durationTicks": 192,
          "midi": 39,
          "name": "D#2",
          "ticks": 62592,
          "time": 54.333279,
          "velocity": 0.8582677165354331
        },
        {
          "duration": 0.16666649999999805,
          "durationTicks": 192,
          "midi": 29,
          "name": "F1",
          "ticks": 62976,
          "time": 54.666612,
          "velocity": 0.8582677165354331
        },
        {
          "duration": 0.16666650000000516,
          "durationTicks": 192,
          "midi": 36,
          "name": "C2",
          "ticks": 63360,
          "time": 54.999945,
          "velocity": 0.8582677165354331
        },
        {
          "duration": 0.16666649999999805,
          "durationTicks": 192,
          "midi": 34,
          "name": "A#1",
          "ticks": 63744,
          "time": 55.333278,
          "velocity": 0.8582677165354331
        },
        {
          "duration": 0.16666650000000516,
          "durationTicks": 192,
          "midi": 29,
          "name": "F1",
          "ticks": 64128,
          "time": 55.666610999999996,
          "velocity": 0.8582677165354331
        },
        {
          "duration": 0.16666649999999805,
          "durationTicks": 192,
          "midi": 31,
          "name": "G1",
          "ticks": 64512,
          "time": 55.999944,
          "velocity": 0.8582677165354331
        },
        {
          "duration": 0.08333325000000258,
          "durationTicks": 96,
          "midi": 31,
          "name": "G1",
          "ticks": 64704,
          "time": 56.1666105,
          "velocity": 0.8582677165354331
        },
        {
          "duration": 0.08333324999999547,
          "durationTicks": 96,
          "midi": 31,
          "name": "G1",
          "ticks": 64800,
          "time": 56.24994375,
          "velocity": 0.8582677165354331
        },
        {
          "duration": 0.16666650000000516,
          "durationTicks": 192,
          "midi": 38,
          "name": "D2",
          "ticks": 64896,
          "time": 56.333276999999995,
          "velocity": 0.8582677165354331
        },
        {
          "duration": 0.08333324999999547,
          "durationTicks": 96,
          "midi": 38,
          "name": "D2",
          "ticks": 65088,
          "time": 56.4999435,
          "velocity": 0.8582677165354331
        },
        {
          "duration": 0.08333325000000258,
          "durationTicks": 96,
          "midi": 38,
          "name": "D2",
          "ticks": 65184,
          "time": 56.583276749999996,
          "velocity": 0.8582677165354331
        },
        {
          "duration": 0.16666649999999805,
          "durationTicks": 192,
          "midi": 43,
          "name": "G2",
          "ticks": 65280,
          "time": 56.66661,
          "velocity": 0.8582677165354331
        },
        {
          "duration": 0.16666649999999805,
          "durationTicks": 192,
          "midi": 36,
          "name": "C2",
          "ticks": 66048,
          "time": 57.333276,
          "velocity": 0.8582677165354331
        },
        {
          "duration": 0.16666649999999805,
          "durationTicks": 192,
          "midi": 31,
          "name": "G1",
          "ticks": 66432,
          "time": 57.666609,
          "velocity": 0.8582677165354331
        },
        {
          "duration": 0.16666649999999805,
          "durationTicks": 192,
          "midi": 36,
          "name": "C2",
          "ticks": 66816,
          "time": 57.999942,
          "velocity": 0.8582677165354331
        },
        {
          "duration": 0.16666649999999805,
          "durationTicks": 192,
          "midi": 31,
          "name": "G1",
          "ticks": 67200,
          "time": 58.333275,
          "velocity": 0.8582677165354331
        },
        {
          "duration": 0.16666650000000516,
          "durationTicks": 192,
          "midi": 36,
          "name": "C2",
          "ticks": 67584,
          "time": 58.666608,
          "velocity": 0.8582677165354331
        },
        {
          "duration": 0.16666649999999805,
          "durationTicks": 192,
          "midi": 31,
          "name": "G1",
          "ticks": 67968,
          "time": 58.999941,
          "velocity": 0.8582677165354331
        },
        {
          "duration": 0.16666650000000516,
          "durationTicks": 192,
          "midi": 36,
          "name": "C2",
          "ticks": 68352,
          "time": 59.333273999999996,
          "velocity": 0.8582677165354331
        },
        {
          "duration": 0.16666649999999805,
          "durationTicks": 192,
          "midi": 31,
          "name": "G1",
          "ticks": 68736,
          "time": 59.666607,
          "velocity": 0.8582677165354331
        },
        {
          "duration": 0.16666650000000516,
          "durationTicks": 192,
          "midi": 38,
          "name": "D2",
          "ticks": 69120,
          "time": 59.999939999999995,
          "velocity": 0.8582677165354331
        },
        {
          "duration": 0.16666649999999805,
          "durationTicks": 192,
          "midi": 33,
          "name": "A1",
          "ticks": 69504,
          "time": 60.333273,
          "velocity": 0.8582677165354331
        },
        {
          "duration": 0.16666649999999805,
          "durationTicks": 192,
          "midi": 43,
          "name": "G2",
          "ticks": 69888,
          "time": 60.666606,
          "velocity": 0.8582677165354331
        },
        {
          "duration": 0.16666649999999805,
          "durationTicks": 192,
          "midi": 31,
          "name": "G1",
          "ticks": 70272,
          "time": 60.999939,
          "velocity": 0.8582677165354331
        },
        {
          "duration": 0.16666649999999805,
          "durationTicks": 192,
          "midi": 36,
          "name": "C2",
          "ticks": 70656,
          "time": 61.333272,
          "velocity": 0.8582677165354331
        },
        {
          "duration": 0.16666649999999805,
          "durationTicks": 192,
          "midi": 31,
          "name": "G1",
          "ticks": 71040,
          "time": 61.666605,
          "velocity": 0.8582677165354331
        },
        {
          "duration": 0.16666649999999805,
          "durationTicks": 192,
          "midi": 36,
          "name": "C2",
          "ticks": 71424,
          "time": 61.999938,
          "velocity": 0.8582677165354331
        },
        {
          "duration": 0.16666650000000516,
          "durationTicks": 192,
          "midi": 31,
          "name": "G1",
          "ticks": 71808,
          "time": 62.333270999999996,
          "velocity": 0.8582677165354331
        },
        {
          "duration": 0.16666649999999805,
          "durationTicks": 192,
          "midi": 36,
          "name": "C2",
          "ticks": 72192,
          "time": 62.666604,
          "velocity": 0.8582677165354331
        },
        {
          "duration": 0.16666650000000516,
          "durationTicks": 192,
          "midi": 31,
          "name": "G1",
          "ticks": 72576,
          "time": 62.999936999999996,
          "velocity": 0.8582677165354331
        },
        {
          "duration": 0.16666649999999805,
          "durationTicks": 192,
          "midi": 36,
          "name": "C2",
          "ticks": 72960,
          "time": 63.33327,
          "velocity": 0.8582677165354331
        },
        {
          "duration": 0.16666650000000516,
          "durationTicks": 192,
          "midi": 31,
          "name": "G1",
          "ticks": 73344,
          "time": 63.666602999999995,
          "velocity": 0.8582677165354331
        },
        {
          "duration": 0.16666649999999805,
          "durationTicks": 192,
          "midi": 36,
          "name": "C2",
          "ticks": 73728,
          "time": 63.999936,
          "velocity": 0.8582677165354331
        },
        {
          "duration": 0.16666649999999095,
          "durationTicks": 192,
          "midi": 31,
          "name": "G1",
          "ticks": 74112,
          "time": 64.333269,
          "velocity": 0.8582677165354331
        },
        {
          "duration": 0.16666650000000516,
          "durationTicks": 192,
          "midi": 36,
          "name": "C2",
          "ticks": 74496,
          "time": 64.666602,
          "velocity": 0.8582677165354331
        },
        {
          "duration": 0.16666650000000516,
          "durationTicks": 192,
          "midi": 31,
          "name": "G1",
          "ticks": 74880,
          "time": 64.999935,
          "velocity": 0.8582677165354331
        },
        {
          "duration": 0.16666649999999095,
          "durationTicks": 192,
          "midi": 38,
          "name": "D2",
          "ticks": 75264,
          "time": 65.333268,
          "velocity": 0.8582677165354331
        },
        {
          "duration": 0.16666650000000516,
          "durationTicks": 192,
          "midi": 33,
          "name": "A1",
          "ticks": 75648,
          "time": 65.666601,
          "velocity": 0.8582677165354331
        },
        {
          "duration": 0.16666650000000516,
          "durationTicks": 192,
          "midi": 40,
          "name": "E2",
          "ticks": 76032,
          "time": 65.999934,
          "velocity": 0.8582677165354331
        },
        {
          "duration": 0.16666650000000516,
          "durationTicks": 192,
          "midi": 28,
          "name": "E1",
          "ticks": 76416,
          "time": 66.33326699999999,
          "velocity": 0.8582677165354331
        },
        {
          "duration": 0.16666649999999095,
          "durationTicks": 192,
          "midi": 33,
          "name": "A1",
          "ticks": 76800,
          "time": 66.6666,
          "velocity": 0.8582677165354331
        },
        {
          "duration": 0.16666650000000516,
          "durationTicks": 192,
          "midi": 45,
          "name": "A2",
          "ticks": 77184,
          "time": 66.999933,
          "velocity": 0.8582677165354331
        },
        {
          "duration": 0.16666650000000516,
          "durationTicks": 192,
          "midi": 43,
          "name": "G2",
          "ticks": 77568,
          "time": 67.333266,
          "velocity": 0.8582677165354331
        },
        {
          "duration": 0.16666649999999095,
          "durationTicks": 192,
          "midi": 31,
          "name": "G1",
          "ticks": 77952,
          "time": 67.666599,
          "velocity": 0.8582677165354331
        },
        {
          "duration": 0.22222199999998793,
          "durationTicks": 256,
          "midi": 29,
          "name": "F1",
          "ticks": 78336,
          "time": 67.999932,
          "velocity": 0.8582677165354331
        },
        {
          "duration": 0.08333324999999547,
          "durationTicks": 96,
          "midi": 29,
          "name": "F1",
          "ticks": 78624,
          "time": 68.24993175,
          "velocity": 0.8582677165354331
        },
        {
          "duration": 0.08333325000000968,
          "durationTicks": 96,
          "midi": 31,
          "name": "G1",
          "ticks": 79104,
          "time": 68.666598,
          "velocity": 0.8582677165354331
        },
        {
          "duration": 0.08333324999999547,
          "durationTicks": 96,
          "midi": 31,
          "name": "G1",
          "ticks": 79296,
          "time": 68.8332645,
          "velocity": 0.8582677165354331
        },
        {
          "duration": 0.16666650000000516,
          "durationTicks": 192,
          "midi": 36,
          "name": "C2",
          "ticks": 79872,
          "time": 69.333264,
          "velocity": 0.8582677165354331
        },
        {
          "duration": 0.16666650000000516,
          "durationTicks": 192,
          "midi": 31,
          "name": "G1",
          "ticks": 80256,
          "time": 69.666597,
          "velocity": 0.8582677165354331
        },
        {
          "duration": 0.16666650000000516,
          "durationTicks": 192,
          "midi": 36,
          "name": "C2",
          "ticks": 80640,
          "time": 69.99992999999999,
          "velocity": 0.8582677165354331
        },
        {
          "duration": 0.16666649999999095,
          "durationTicks": 192,
          "midi": 31,
          "name": "G1",
          "ticks": 81024,
          "time": 70.333263,
          "velocity": 0.8582677165354331
        },
        {
          "duration": 0.16666650000000516,
          "durationTicks": 192,
          "midi": 36,
          "name": "C2",
          "ticks": 81408,
          "time": 70.666596,
          "velocity": 0.8582677165354331
        },
        {
          "duration": 0.16666650000000516,
          "durationTicks": 192,
          "midi": 31,
          "name": "G1",
          "ticks": 81792,
          "time": 70.999929,
          "velocity": 0.8582677165354331
        },
        {
          "duration": 0.16666649999999095,
          "durationTicks": 192,
          "midi": 36,
          "name": "C2",
          "ticks": 82176,
          "time": 71.333262,
          "velocity": 0.8582677165354331
        },
        {
          "duration": 0.16666649999999095,
          "durationTicks": 192,
          "midi": 31,
          "name": "G1",
          "ticks": 82560,
          "time": 71.666595,
          "velocity": 0.8582677165354331
        },
        {
          "duration": 0.16666650000000516,
          "durationTicks": 192,
          "midi": 29,
          "name": "F1",
          "ticks": 82944,
          "time": 71.999928,
          "velocity": 0.8582677165354331
        },
        {
          "duration": 0.16666650000000516,
          "durationTicks": 192,
          "midi": 36,
          "name": "C2",
          "ticks": 83328,
          "time": 72.333261,
          "velocity": 0.8582677165354331
        },
        {
          "duration": 0.16666649999999095,
          "durationTicks": 192,
          "midi": 34,
          "name": "A#1",
          "ticks": 83712,
          "time": 72.666594,
          "velocity": 0.8582677165354331
        },
        {
          "duration": 0.16666650000000516,
          "durationTicks": 192,
          "midi": 29,
          "name": "F1",
          "ticks": 84096,
          "time": 72.999927,
          "velocity": 0.8582677165354331
        },
        {
          "duration": 0.16666650000000516,
          "durationTicks": 192,
          "midi": 27,
          "name": "D#1",
          "ticks": 84480,
          "time": 73.33326,
          "velocity": 0.8582677165354331
        },
        {
          "duration": 0.16666650000000516,
          "durationTicks": 192,
          "midi": 34,
          "name": "A#1",
          "ticks": 84864,
          "time": 73.66659299999999,
          "velocity": 0.8582677165354331
        },
        {
          "duration": 0.16666649999999095,
          "durationTicks": 192,
          "midi": 32,
          "name": "G#1",
          "ticks": 85248,
          "time": 73.999926,
          "velocity": 0.8582677165354331
        },
        {
          "duration": 0.16666650000000516,
          "durationTicks": 192,
          "midi": 39,
          "name": "D#2",
          "ticks": 85632,
          "time": 74.333259,
          "velocity": 0.8582677165354331
        },
        {
          "duration": 0.16666650000000516,
          "durationTicks": 192,
          "midi": 29,
          "name": "F1",
          "ticks": 86016,
          "time": 74.666592,
          "velocity": 0.8582677165354331
        },
        {
          "duration": 0.16666649999999095,
          "durationTicks": 192,
          "midi": 36,
          "name": "C2",
          "ticks": 86400,
          "time": 74.999925,
          "velocity": 0.8582677165354331
        },
        {
          "duration": 0.16666649999999095,
          "durationTicks": 192,
          "midi": 34,
          "name": "A#1",
          "ticks": 86784,
          "time": 75.333258,
          "velocity": 0.8582677165354331
        },
        {
          "duration": 0.16666650000000516,
          "durationTicks": 192,
          "midi": 29,
          "name": "F1",
          "ticks": 87168,
          "time": 75.666591,
          "velocity": 0.8582677165354331
        },
        {
          "duration": 0.16666650000000516,
          "durationTicks": 192,
          "midi": 27,
          "name": "D#1",
          "ticks": 87552,
          "time": 75.999924,
          "velocity": 0.8582677165354331
        },
        {
          "duration": 0.16666649999999095,
          "durationTicks": 192,
          "midi": 34,
          "name": "A#1",
          "ticks": 87936,
          "time": 76.333257,
          "velocity": 0.8582677165354331
        },
        {
          "duration": 0.16666650000000516,
          "durationTicks": 192,
          "midi": 32,
          "name": "G#1",
          "ticks": 88320,
          "time": 76.66659,
          "velocity": 0.8582677165354331
        },
        {
          "duration": 0.16666650000000516,
          "durationTicks": 192,
          "midi": 39,
          "name": "D#2",
          "ticks": 88704,
          "time": 76.999923,
          "velocity": 0.8582677165354331
        },
        {
          "duration": 0.16666650000000516,
          "durationTicks": 192,
          "midi": 29,
          "name": "F1",
          "ticks": 89088,
          "time": 77.33325599999999,
          "velocity": 0.8582677165354331
        },
        {
          "duration": 0.16666649999999095,
          "durationTicks": 192,
          "midi": 36,
          "name": "C2",
          "ticks": 89472,
          "time": 77.666589,
          "velocity": 0.8582677165354331
        },
        {
          "duration": 0.16666650000000516,
          "durationTicks": 192,
          "midi": 34,
          "name": "A#1",
          "ticks": 89856,
          "time": 77.999922,
          "velocity": 0.8582677165354331
        },
        {
          "duration": 0.16666650000000516,
          "durationTicks": 192,
          "midi": 29,
          "name": "F1",
          "ticks": 90240,
          "time": 78.333255,
          "velocity": 0.8582677165354331
        },
        {
          "duration": 0.16666649999999095,
          "durationTicks": 192,
          "midi": 27,
          "name": "D#1",
          "ticks": 90624,
          "time": 78.666588,
          "velocity": 0.8582677165354331
        },
        {
          "duration": 0.16666649999999095,
          "durationTicks": 192,
          "midi": 34,
          "name": "A#1",
          "ticks": 91008,
          "time": 78.999921,
          "velocity": 0.8582677165354331
        },
        {
          "duration": 0.16666650000000516,
          "durationTicks": 192,
          "midi": 32,
          "name": "G#1",
          "ticks": 91392,
          "time": 79.333254,
          "velocity": 0.8582677165354331
        },
        {
          "duration": 0.16666650000000516,
          "durationTicks": 192,
          "midi": 39,
          "name": "D#2",
          "ticks": 91776,
          "time": 79.66658699999999,
          "velocity": 0.8582677165354331
        },
        {
          "duration": 0.16666649999999095,
          "durationTicks": 192,
          "midi": 29,
          "name": "F1",
          "ticks": 92160,
          "time": 79.99992,
          "velocity": 0.8582677165354331
        },
        {
          "duration": 0.16666650000000516,
          "durationTicks": 192,
          "midi": 36,
          "name": "C2",
          "ticks": 92544,
          "time": 80.333253,
          "velocity": 0.8582677165354331
        },
        {
          "duration": 0.16666650000000516,
          "durationTicks": 192,
          "midi": 34,
          "name": "A#1",
          "ticks": 92928,
          "time": 80.666586,
          "velocity": 0.8582677165354331
        },
        {
          "duration": 0.16666650000000516,
          "durationTicks": 192,
          "midi": 29,
          "name": "F1",
          "ticks": 93312,
          "time": 80.99991899999999,
          "velocity": 0.8582677165354331
        },
        {
          "duration": 0.16666649999999095,
          "durationTicks": 192,
          "midi": 31,
          "name": "G1",
          "ticks": 93696,
          "time": 81.333252,
          "velocity": 0.8582677165354331
        },
        {
          "duration": 0.08333325000000968,
          "durationTicks": 96,
          "midi": 31,
          "name": "G1",
          "ticks": 93888,
          "time": 81.49991849999999,
          "velocity": 0.8582677165354331
        },
        {
          "duration": 0.08333324999999547,
          "durationTicks": 96,
          "midi": 31,
          "name": "G1",
          "ticks": 93984,
          "time": 81.58325175,
          "velocity": 0.8582677165354331
        },
        {
          "duration": 0.16666650000000516,
          "durationTicks": 192,
          "midi": 38,
          "name": "D2",
          "ticks": 94080,
          "time": 81.666585,
          "velocity": 0.8582677165354331
        },
        {
          "duration": 0.08333324999999547,
          "durationTicks": 96,
          "midi": 38,
          "name": "D2",
          "ticks": 94272,
          "time": 81.8332515,
          "velocity": 0.8582677165354331
        },
        {
          "duration": 0.08333324999999547,
          "durationTicks": 96,
          "midi": 38,
          "name": "D2",
          "ticks": 94368,
          "time": 81.91658475,
          "velocity": 0.8582677165354331
        },
        {
          "duration": 0.16666650000000516,
          "durationTicks": 192,
          "midi": 43,
          "name": "G2",
          "ticks": 94464,
          "time": 81.999918,
          "velocity": 0.8582677165354331
        }
      ]
    },
    {
      "channel": 1,
      "controlChanges": {
        "0": [
          {
            "number": 0,
            "ticks": 0,
            "time": 0,
            "value": 0
          }
        ]
      },
      "pitchBends": [],
      "instrument": {
        "family": "piano",
        "number": 0,
        "name": "acoustic grand piano"
      },
      "name": "Piano",
      "notes": [
        {
          "duration": 0.08333324999999991,
          "durationTicks": 96,
          "midi": 77,
          "name": "F5",
          "ticks": 960,
          "time": 0.8333325,
          "velocity": 0.905511811023622
        },
        {
          "duration": 0.08333324999999991,
          "durationTicks": 96,
          "midi": 79,
          "name": "G5",
          "ticks": 960,
          "time": 0.8333325,
          "velocity": 0.905511811023622
        },
        {
          "duration": 0.08333324999999991,
          "durationTicks": 96,
          "midi": 86,
          "name": "D6",
          "ticks": 960,
          "time": 0.8333325,
          "velocity": 0.905511811023622
        },
        {
          "duration": 0.08333325000000003,
          "durationTicks": 96,
          "midi": 77,
          "name": "F5",
          "ticks": 1056,
          "time": 0.91666575,
          "velocity": 0.905511811023622
        },
        {
          "duration": 0.08333325000000003,
          "durationTicks": 96,
          "midi": 79,
          "name": "G5",
          "ticks": 1056,
          "time": 0.91666575,
          "velocity": 0.905511811023622
        },
        {
          "duration": 0.08333325000000003,
          "durationTicks": 96,
          "midi": 86,
          "name": "D6",
          "ticks": 1056,
          "time": 0.91666575,
          "velocity": 0.905511811023622
        },
        {
          "duration": 0.08333325000000003,
          "durationTicks": 96,
          "midi": 77,
          "name": "F5",
          "ticks": 1152,
          "time": 0.999999,
          "velocity": 0.905511811023622
        },
        {
          "duration": 0.08333325000000003,
          "durationTicks": 96,
          "midi": 79,
          "name": "G5",
          "ticks": 1152,
          "time": 0.999999,
          "velocity": 0.905511811023622
        },
        {
          "duration": 0.08333325000000003,
          "durationTicks": 96,
          "midi": 86,
          "name": "D6",
          "ticks": 1152,
          "time": 0.999999,
          "velocity": 0.905511811023622
        },
        {
          "duration": 0.08333324999999991,
          "durationTicks": 96,
          "midi": 55,
          "name": "G3",
          "ticks": 1536,
          "time": 1.333332,
          "velocity": 0.905511811023622
        },
        {
          "duration": 0.08333324999999991,
          "durationTicks": 96,
          "midi": 64,
          "name": "E4",
          "ticks": 1536,
          "time": 1.333332,
          "velocity": 0.905511811023622
        },
        {
          "duration": 0.08333324999999991,
          "durationTicks": 96,
          "midi": 72,
          "name": "C5",
          "ticks": 1728,
          "time": 1.4999985,
          "velocity": 0.905511811023622
        },
        {
          "duration": 0.08333324999999991,
          "durationTicks": 96,
          "midi": 76,
          "name": "E5",
          "ticks": 1728,
          "time": 1.4999985,
          "velocity": 0.905511811023622
        },
        {
          "duration": 0.08333324999999991,
          "durationTicks": 96,
          "midi": 67,
          "name": "G4",
          "ticks": 1728,
          "time": 1.4999985,
          "velocity": 0.905511811023622
        },
        {
          "duration": 0.08333324999999991,
          "durationTicks": 96,
          "midi": 72,
          "name": "C5",
          "ticks": 1920,
          "time": 1.666665,
          "velocity": 0.905511811023622
        },
        {
          "duration": 0.08333324999999991,
          "durationTicks": 96,
          "midi": 76,
          "name": "E5",
          "ticks": 1920,
          "time": 1.666665,
          "velocity": 0.905511811023622
        },
        {
          "duration": 0.08333324999999991,
          "durationTicks": 96,
          "midi": 67,
          "name": "G4",
          "ticks": 1920,
          "time": 1.666665,
          "velocity": 0.905511811023622
        },
        {
          "duration": 0.08333325000000014,
          "durationTicks": 96,
          "midi": 72,
          "name": "C5",
          "ticks": 2112,
          "time": 1.8333315,
          "velocity": 0.905511811023622
        },
        {
          "duration": 0.08333325000000014,
          "durationTicks": 96,
          "midi": 76,
          "name": "E5",
          "ticks": 2112,
          "time": 1.8333315,
          "velocity": 0.905511811023622
        },
        {
          "duration": 0.08333325000000014,
          "durationTicks": 96,
          "midi": 67,
          "name": "G4",
          "ticks": 2112,
          "time": 1.8333315,
          "velocity": 0.905511811023622
        },
        {
          "duration": 0.08333325000000014,
          "durationTicks": 96,
          "midi": 72,
          "name": "C5",
          "ticks": 2304,
          "time": 1.999998,
          "velocity": 0.905511811023622
        },
        {
          "duration": 0.08333325000000014,
          "durationTicks": 96,
          "midi": 76,
          "name": "E5",
          "ticks": 2304,
          "time": 1.999998,
          "velocity": 0.905511811023622
        },
        {
          "duration": 0.08333325000000014,
          "durationTicks": 96,
          "midi": 67,
          "name": "G4",
          "ticks": 2304,
          "time": 1.999998,
          "velocity": 0.905511811023622
        },
        {
          "duration": 0.08333324999999991,
          "durationTicks": 96,
          "midi": 72,
          "name": "C5",
          "ticks": 2496,
          "time": 2.1666645,
          "velocity": 0.905511811023622
        },
        {
          "duration": 0.08333324999999991,
          "durationTicks": 96,
          "midi": 76,
          "name": "E5",
          "ticks": 2496,
          "time": 2.1666645,
          "velocity": 0.905511811023622
        },
        {
          "duration": 0.08333324999999991,
          "durationTicks": 96,
          "midi": 67,
          "name": "G4",
          "ticks": 2496,
          "time": 2.1666645,
          "velocity": 0.905511811023622
        },
        {
          "duration": 0.08333324999999991,
          "durationTicks": 96,
          "midi": 72,
          "name": "C5",
          "ticks": 2688,
          "time": 2.333331,
          "velocity": 0.905511811023622
        },
        {
          "duration": 0.08333324999999991,
          "durationTicks": 96,
          "midi": 76,
          "name": "E5",
          "ticks": 2688,
          "time": 2.333331,
          "velocity": 0.905511811023622
        },
        {
          "duration": 0.08333324999999991,
          "durationTicks": 96,
          "midi": 67,
          "name": "G4",
          "ticks": 2688,
          "time": 2.333331,
          "velocity": 0.905511811023622
        },
        {
          "duration": 0.08333324999999991,
          "durationTicks": 96,
          "midi": 72,
          "name": "C5",
          "ticks": 2880,
          "time": 2.4999975,
          "velocity": 0.905511811023622
        },
        {
          "duration": 0.08333324999999991,
          "durationTicks": 96,
          "midi": 76,
          "name": "E5",
          "ticks": 2880,
          "time": 2.4999975,
          "velocity": 0.905511811023622
        },
        {
          "duration": 0.08333324999999991,
          "durationTicks": 96,
          "midi": 67,
          "name": "G4",
          "ticks": 2880,
          "time": 2.4999975,
          "velocity": 0.905511811023622
        },
        {
          "duration": 0.08333324999999991,
          "durationTicks": 96,
          "midi": 55,
          "name": "G3",
          "ticks": 3072,
          "time": 2.666664,
          "velocity": 0.905511811023622
        },
        {
          "duration": 0.08333324999999991,
          "durationTicks": 96,
          "midi": 64,
          "name": "E4",
          "ticks": 3072,
          "time": 2.666664,
          "velocity": 0.905511811023622
        },
        {
          "duration": 0.08333325000000036,
          "durationTicks": 96,
          "midi": 72,
          "name": "C5",
          "ticks": 3264,
          "time": 2.8333304999999998,
          "velocity": 0.905511811023622
        },
        {
          "duration": 0.08333325000000036,
          "durationTicks": 96,
          "midi": 76,
          "name": "E5",
          "ticks": 3264,
          "time": 2.8333304999999998,
          "velocity": 0.905511811023622
        },
        {
          "duration": 0.08333325000000036,
          "durationTicks": 96,
          "midi": 67,
          "name": "G4",
          "ticks": 3264,
          "time": 2.8333304999999998,
          "velocity": 0.905511811023622
        },
        {
          "duration": 0.08333324999999991,
          "durationTicks": 96,
          "midi": 72,
          "name": "C5",
          "ticks": 3456,
          "time": 2.999997,
          "velocity": 0.905511811023622
        },
        {
          "duration": 0.08333324999999991,
          "durationTicks": 96,
          "midi": 76,
          "name": "E5",
          "ticks": 3456,
          "time": 2.999997,
          "velocity": 0.905511811023622
        },
        {
          "duration": 0.08333324999999991,
          "durationTicks": 96,
          "midi": 67,
          "name": "G4",
          "ticks": 3456,
          "time": 2.999997,
          "velocity": 0.905511811023622
        },
        {
          "duration": 0.08333324999999991,
          "durationTicks": 96,
          "midi": 72,
          "name": "C5",
          "ticks": 3648,
          "time": 3.1666635,
          "velocity": 0.905511811023622
        },
        {
          "duration": 0.08333324999999991,
          "durationTicks": 96,
          "midi": 76,
          "name": "E5",
          "ticks": 3648,
          "time": 3.1666635,
          "velocity": 0.905511811023622
        },
        {
          "duration": 0.08333324999999991,
          "durationTicks": 96,
          "midi": 67,
          "name": "G4",
          "ticks": 3648,
          "time": 3.1666635,
          "velocity": 0.905511811023622
        },
        {
          "duration": 0.08333324999999991,
          "durationTicks": 96,
          "midi": 72,
          "name": "C5",
          "ticks": 3840,
          "time": 3.33333,
          "velocity": 0.905511811023622
        },
        {
          "duration": 0.08333324999999991,
          "durationTicks": 96,
          "midi": 76,
          "name": "E5",
          "ticks": 3840,
          "time": 3.33333,
          "velocity": 0.905511811023622
        },
        {
          "duration": 0.08333324999999991,
          "durationTicks": 96,
          "midi": 67,
          "name": "G4",
          "ticks": 3840,
          "time": 3.33333,
          "velocity": 0.905511811023622
        },
        {
          "duration": 0.08333324999999991,
          "durationTicks": 96,
          "midi": 72,
          "name": "C5",
          "ticks": 4032,
          "time": 3.4999965,
          "velocity": 0.905511811023622
        },
        {
          "duration": 0.08333324999999991,
          "durationTicks": 96,
          "midi": 76,
          "name": "E5",
          "ticks": 4032,
          "time": 3.4999965,
          "velocity": 0.905511811023622
        },
        {
          "duration": 0.08333324999999991,
          "durationTicks": 96,
          "midi": 67,
          "name": "G4",
          "ticks": 4032,
          "time": 3.4999965,
          "velocity": 0.905511811023622
        },
        {
          "duration": 0.08333324999999991,
          "durationTicks": 96,
          "midi": 72,
          "name": "C5",
          "ticks": 4224,
          "time": 3.666663,
          "velocity": 0.905511811023622
        },
        {
          "duration": 0.08333324999999991,
          "durationTicks": 96,
          "midi": 76,
          "name": "E5",
          "ticks": 4224,
          "time": 3.666663,
          "velocity": 0.905511811023622
        },
        {
          "duration": 0.08333324999999991,
          "durationTicks": 96,
          "midi": 67,
          "name": "G4",
          "ticks": 4224,
          "time": 3.666663,
          "velocity": 0.905511811023622
        },
        {
          "duration": 0.08333324999999991,
          "durationTicks": 96,
          "midi": 72,
          "name": "C5",
          "ticks": 4416,
          "time": 3.8333295,
          "velocity": 0.905511811023622
        },
        {
          "duration": 0.08333324999999991,
          "durationTicks": 96,
          "midi": 76,
          "name": "E5",
          "ticks": 4416,
          "time": 3.8333295,
          "velocity": 0.905511811023622
        },
        {
          "duration": 0.08333324999999991,
          "durationTicks": 96,
          "midi": 67,
          "name": "G4",
          "ticks": 4416,
          "time": 3.8333295,
          "velocity": 0.905511811023622
        },
        {
          "duration": 0.08333325000000036,
          "durationTicks": 96,
          "midi": 57,
          "name": "A3",
          "ticks": 4608,
          "time": 3.999996,
          "velocity": 0.905511811023622
        },
        {
          "duration": 0.08333325000000036,
          "durationTicks": 96,
          "midi": 62,
          "name": "D4",
          "ticks": 4608,
          "time": 3.999996,
          "velocity": 0.905511811023622
        },
        {
          "duration": 0.08333324999999991,
          "durationTicks": 96,
          "midi": 69,
          "name": "A4",
          "ticks": 4800,
          "time": 4.1666625,
          "velocity": 0.905511811023622
        },
        {
          "duration": 0.08333324999999991,
          "durationTicks": 96,
          "midi": 77,
          "name": "F5",
          "ticks": 4800,
          "time": 4.1666625,
          "velocity": 0.905511811023622
        },
        {
          "duration": 0.08333324999999991,
          "durationTicks": 96,
          "midi": 72,
          "name": "C5",
          "ticks": 4800,
          "time": 4.1666625,
          "velocity": 0.905511811023622
        },
        {
          "duration": 0.08333324999999991,
          "durationTicks": 96,
          "midi": 69,
          "name": "A4",
          "ticks": 4992,
          "time": 4.333329,
          "velocity": 0.905511811023622
        },
        {
          "duration": 0.08333324999999991,
          "durationTicks": 96,
          "midi": 77,
          "name": "F5",
          "ticks": 4992,
          "time": 4.333329,
          "velocity": 0.905511811023622
        },
        {
          "duration": 0.08333324999999991,
          "durationTicks": 96,
          "midi": 72,
          "name": "C5",
          "ticks": 4992,
          "time": 4.333329,
          "velocity": 0.905511811023622
        },
        {
          "duration": 0.08333324999999991,
          "durationTicks": 96,
          "midi": 69,
          "name": "A4",
          "ticks": 5184,
          "time": 4.4999955,
          "velocity": 0.905511811023622
        },
        {
          "duration": 0.08333324999999991,
          "durationTicks": 96,
          "midi": 77,
          "name": "F5",
          "ticks": 5184,
          "time": 4.4999955,
          "velocity": 0.905511811023622
        },
        {
          "duration": 0.08333324999999991,
          "durationTicks": 96,
          "midi": 72,
          "name": "C5",
          "ticks": 5184,
          "time": 4.4999955,
          "velocity": 0.905511811023622
        },
        {
          "duration": 0.08333324999999991,
          "durationTicks": 96,
          "midi": 69,
          "name": "A4",
          "ticks": 5376,
          "time": 4.666662,
          "velocity": 0.905511811023622
        },
        {
          "duration": 0.08333324999999991,
          "durationTicks": 96,
          "midi": 77,
          "name": "F5",
          "ticks": 5376,
          "time": 4.666662,
          "velocity": 0.905511811023622
        },
        {
          "duration": 0.08333324999999991,
          "durationTicks": 96,
          "midi": 72,
          "name": "C5",
          "ticks": 5376,
          "time": 4.666662,
          "velocity": 0.905511811023622
        },
        {
          "duration": 0.0833332500000008,
          "durationTicks": 96,
          "midi": 69,
          "name": "A4",
          "ticks": 5568,
          "time": 4.8333284999999995,
          "velocity": 0.905511811023622
        },
        {
          "duration": 0.0833332500000008,
          "durationTicks": 96,
          "midi": 77,
          "name": "F5",
          "ticks": 5568,
          "time": 4.8333284999999995,
          "velocity": 0.905511811023622
        },
        {
          "duration": 0.0833332500000008,
          "durationTicks": 96,
          "midi": 72,
          "name": "C5",
          "ticks": 5568,
          "time": 4.8333284999999995,
          "velocity": 0.905511811023622
        },
        {
          "duration": 0.08333324999999991,
          "durationTicks": 96,
          "midi": 69,
          "name": "A4",
          "ticks": 5760,
          "time": 4.999995,
          "velocity": 0.905511811023622
        },
        {
          "duration": 0.08333324999999991,
          "durationTicks": 96,
          "midi": 77,
          "name": "F5",
          "ticks": 5760,
          "time": 4.999995,
          "velocity": 0.905511811023622
        },
        {
          "duration": 0.08333324999999991,
          "durationTicks": 96,
          "midi": 72,
          "name": "C5",
          "ticks": 5760,
          "time": 4.999995,
          "velocity": 0.905511811023622
        },
        {
          "duration": 0.08333324999999991,
          "durationTicks": 96,
          "midi": 69,
          "name": "A4",
          "ticks": 5952,
          "time": 5.1666615,
          "velocity": 0.905511811023622
        },
        {
          "duration": 0.08333324999999991,
          "durationTicks": 96,
          "midi": 77,
          "name": "F5",
          "ticks": 5952,
          "time": 5.1666615,
          "velocity": 0.905511811023622
        },
        {
          "duration": 0.08333324999999991,
          "durationTicks": 96,
          "midi": 72,
          "name": "C5",
          "ticks": 5952,
          "time": 5.1666615,
          "velocity": 0.905511811023622
        },
        {
          "duration": 0.08333324999999991,
          "durationTicks": 96,
          "midi": 69,
          "name": "A4",
          "ticks": 6336,
          "time": 5.4999945,
          "velocity": 0.905511811023622
        },
        {
          "duration": 0.08333324999999991,
          "durationTicks": 96,
          "midi": 72,
          "name": "C5",
          "ticks": 6336,
          "time": 5.4999945,
          "velocity": 0.905511811023622
        },
        {
          "duration": 0.08333324999999991,
          "durationTicks": 96,
          "midi": 77,
          "name": "F5",
          "ticks": 6336,
          "time": 5.4999945,
          "velocity": 0.905511811023622
        },
        {
          "duration": 0.08333324999999991,
          "durationTicks": 96,
          "midi": 69,
          "name": "A4",
          "ticks": 6528,
          "time": 5.6666609999999995,
          "velocity": 0.905511811023622
        },
        {
          "duration": 0.08333324999999991,
          "durationTicks": 96,
          "midi": 72,
          "name": "C5",
          "ticks": 6528,
          "time": 5.6666609999999995,
          "velocity": 0.905511811023622
        },
        {
          "duration": 0.08333324999999991,
          "durationTicks": 96,
          "midi": 77,
          "name": "F5",
          "ticks": 6528,
          "time": 5.6666609999999995,
          "velocity": 0.905511811023622
        },
        {
          "duration": 0.08333324999999991,
          "durationTicks": 96,
          "midi": 69,
          "name": "A4",
          "ticks": 6720,
          "time": 5.8333275,
          "velocity": 0.905511811023622
        },
        {
          "duration": 0.08333324999999991,
          "durationTicks": 96,
          "midi": 72,
          "name": "C5",
          "ticks": 6720,
          "time": 5.8333275,
          "velocity": 0.905511811023622
        },
        {
          "duration": 0.08333324999999991,
          "durationTicks": 96,
          "midi": 79,
          "name": "G5",
          "ticks": 6720,
          "time": 5.8333275,
          "velocity": 0.905511811023622
        },
        {
          "duration": 0.08333324999999991,
          "durationTicks": 96,
          "midi": 74,
          "name": "D5",
          "ticks": 6912,
          "time": 5.999994,
          "velocity": 0.905511811023622
        },
        {
          "duration": 0.08333324999999991,
          "durationTicks": 96,
          "midi": 71,
          "name": "B4",
          "ticks": 6912,
          "time": 5.999994,
          "velocity": 0.905511811023622
        },
        {
          "duration": 0.08333324999999991,
          "durationTicks": 96,
          "midi": 79,
          "name": "G5",
          "ticks": 6912,
          "time": 5.999994,
          "velocity": 0.905511811023622
        },
        {
          "duration": 0.24999975000000063,
          "durationTicks": 288,
          "midi": 72,
          "name": "C5",
          "ticks": 24192,
          "time": 20.999979,
          "velocity": 0.905511811023622
        },
        {
          "duration": 0.08333324999999903,
          "durationTicks": 96,
          "midi": 74,
          "name": "D5",
          "ticks": 24480,
          "time": 21.24997875,
          "velocity": 0.905511811023622
        },
        {
          "duration": 0.33333299999999966,
          "durationTicks": 384,
          "midi": 72,
          "name": "C5",
          "ticks": 24576,
          "time": 21.333312,
          "velocity": 0.905511811023622
        },
        {
          "duration": 0.33333299999999966,
          "durationTicks": 384,
          "midi": 75,
          "name": "D#5",
          "ticks": 24576,
          "time": 21.333312,
          "velocity": 0.905511811023622
        },
        {
          "duration": 0.24999975000000063,
          "durationTicks": 288,
          "midi": 70,
          "name": "A#4",
          "ticks": 24960,
          "time": 21.666645,
          "velocity": 0.905511811023622
        },
        {
          "duration": 0.24999975000000063,
          "durationTicks": 288,
          "midi": 74,
          "name": "D5",
          "ticks": 24960,
          "time": 21.666645,
          "velocity": 0.905511811023622
        },
        {
          "duration": 0.08333324999999903,
          "durationTicks": 96,
          "midi": 72,
          "name": "C5",
          "ticks": 25248,
          "time": 21.91664475,
          "velocity": 0.905511811023622
        },
        {
          "duration": 0.08333324999999903,
          "durationTicks": 96,
          "midi": 75,
          "name": "D#5",
          "ticks": 25248,
          "time": 21.91664475,
          "velocity": 0.905511811023622
        },
        {
          "duration": 0.33333299999999966,
          "durationTicks": 384,
          "midi": 74,
          "name": "D5",
          "ticks": 25344,
          "time": 21.999978,
          "velocity": 0.905511811023622
        },
        {
          "duration": 0.33333299999999966,
          "durationTicks": 384,
          "midi": 77,
          "name": "F5",
          "ticks": 25344,
          "time": 21.999978,
          "velocity": 0.905511811023622
        },
        {
          "duration": 0.24999975000000063,
          "durationTicks": 288,
          "midi": 70,
          "name": "A#4",
          "ticks": 25728,
          "time": 22.333311,
          "velocity": 0.905511811023622
        },
        {
          "duration": 0.24999975000000063,
          "durationTicks": 288,
          "midi": 75,
          "name": "D#5",
          "ticks": 25728,
          "time": 22.333311,
          "velocity": 0.905511811023622
        },
        {
          "duration": 0.08333324999999903,
          "durationTicks": 96,
          "midi": 74,
          "name": "D5",
          "ticks": 26016,
          "time": 22.58331075,
          "velocity": 0.905511811023622
        },
        {
          "duration": 0.08333324999999903,
          "durationTicks": 96,
          "midi": 77,
          "name": "F5",
          "ticks": 26016,
          "time": 22.58331075,
          "velocity": 0.905511811023622
        },
        {
          "duration": 0.33333299999999966,
          "durationTicks": 384,
          "midi": 75,
          "name": "D#5",
          "ticks": 26112,
          "time": 22.666643999999998,
          "velocity": 0.905511811023622
        },
        {
          "duration": 0.33333299999999966,
          "durationTicks": 384,
          "midi": 79,
          "name": "G5",
          "ticks": 26112,
          "time": 22.666643999999998,
          "velocity": 0.905511811023622
        },
        {
          "duration": 0.24999975000000063,
          "durationTicks": 288,
          "midi": 77,
          "name": "F5",
          "ticks": 26496,
          "time": 22.999976999999998,
          "velocity": 0.905511811023622
        },
        {
          "duration": 0.24999975000000063,
          "durationTicks": 288,
          "midi": 74,
          "name": "D5",
          "ticks": 26496,
          "time": 22.999976999999998,
          "velocity": 0.905511811023622
        },
        {
          "duration": 0.08333325000000258,
          "durationTicks": 96,
          "midi": 75,
          "name": "D#5",
          "ticks": 26784,
          "time": 23.24997675,
          "velocity": 0.905511811023622
        },
        {
          "duration": 0.08333325000000258,
          "durationTicks": 96,
          "midi": 79,
          "name": "G5",
          "ticks": 26784,
          "time": 23.24997675,
          "velocity": 0.905511811023622
        },
        {
          "duration": 0.33333299999999966,
          "durationTicks": 384,
          "midi": 68,
          "name": "G#4",
          "ticks": 26880,
          "time": 23.33331,
          "velocity": 0.905511811023622
        },
        {
          "duration": 0.33333299999999966,
          "durationTicks": 384,
          "midi": 72,
          "name": "C5",
          "ticks": 26880,
          "time": 23.33331,
          "velocity": 0.905511811023622
        },
        {
          "duration": 0.24999974999999708,
          "durationTicks": 288,
          "midi": 67,
          "name": "G4",
          "ticks": 27264,
          "time": 23.666643,
          "velocity": 0.905511811023622
        },
        {
          "duration": 0.24999974999999708,
          "durationTicks": 288,
          "midi": 72,
          "name": "C5",
          "ticks": 27264,
          "time": 23.666643,
          "velocity": 0.905511811023622
        },
        {
          "duration": 0.08333325000000258,
          "durationTicks": 96,
          "midi": 70,
          "name": "A#4",
          "ticks": 27552,
          "time": 23.916642749999998,
          "velocity": 0.905511811023622
        },
        {
          "duration": 0.08333325000000258,
          "durationTicks": 96,
          "midi": 74,
          "name": "D5",
          "ticks": 27552,
          "time": 23.916642749999998,
          "velocity": 0.905511811023622
        },
        {
          "duration": 0.33333299999999966,
          "durationTicks": 384,
          "midi": 72,
          "name": "C5",
          "ticks": 27648,
          "time": 23.999976,
          "velocity": 0.905511811023622
        },
        {
          "duration": 0.33333299999999966,
          "durationTicks": 384,
          "midi": 75,
          "name": "D#5",
          "ticks": 27648,
          "time": 23.999976,
          "velocity": 0.905511811023622
        },
        {
          "duration": 0.24999975000000063,
          "durationTicks": 288,
          "midi": 70,
          "name": "A#4",
          "ticks": 28032,
          "time": 24.333309,
          "velocity": 0.905511811023622
        },
        {
          "duration": 0.24999975000000063,
          "durationTicks": 288,
          "midi": 74,
          "name": "D5",
          "ticks": 28032,
          "time": 24.333309,
          "velocity": 0.905511811023622
        },
        {
          "duration": 0.08333324999999903,
          "durationTicks": 96,
          "midi": 72,
          "name": "C5",
          "ticks": 28320,
          "time": 24.58330875,
          "velocity": 0.905511811023622
        },
        {
          "duration": 0.08333324999999903,
          "durationTicks": 96,
          "midi": 75,
          "name": "D#5",
          "ticks": 28320,
          "time": 24.58330875,
          "velocity": 0.905511811023622
        },
        {
          "duration": 0.33333299999999966,
          "durationTicks": 384,
          "midi": 74,
          "name": "D5",
          "ticks": 28416,
          "time": 24.666642,
          "velocity": 0.905511811023622
        },
        {
          "duration": 0.33333299999999966,
          "durationTicks": 384,
          "midi": 77,
          "name": "F5",
          "ticks": 28416,
          "time": 24.666642,
          "velocity": 0.905511811023622
        },
        {
          "duration": 0.24999975000000063,
          "durationTicks": 288,
          "midi": 70,
          "name": "A#4",
          "ticks": 28800,
          "time": 24.999975,
          "velocity": 0.905511811023622
        },
        {
          "duration": 0.24999975000000063,
          "durationTicks": 288,
          "midi": 75,
          "name": "D#5",
          "ticks": 28800,
          "time": 24.999975,
          "velocity": 0.905511811023622
        },
        {
          "duration": 0.08333324999999903,
          "durationTicks": 96,
          "midi": 74,
          "name": "D5",
          "ticks": 29088,
          "time": 25.24997475,
          "velocity": 0.905511811023622
        },
        {
          "duration": 0.08333324999999903,
          "durationTicks": 96,
          "midi": 77,
          "name": "F5",
          "ticks": 29088,
          "time": 25.24997475,
          "velocity": 0.905511811023622
        },
        {
          "duration": 0.6666659999999993,
          "durationTicks": 768,
          "midi": 75,
          "name": "D#5",
          "ticks": 29184,
          "time": 25.333308,
          "velocity": 0.905511811023622
        },
        {
          "duration": 0.6666659999999993,
          "durationTicks": 768,
          "midi": 79,
          "name": "G5",
          "ticks": 29184,
          "time": 25.333308,
          "velocity": 0.905511811023622
        },
        {
          "duration": 0.1666665000000016,
          "durationTicks": 192,
          "midi": 84,
          "name": "C6",
          "ticks": 29952,
          "time": 25.999973999999998,
          "velocity": 0.905511811023622
        },
        {
          "duration": 0.1666665000000016,
          "durationTicks": 192,
          "midi": 79,
          "name": "G5",
          "ticks": 29952,
          "time": 25.999973999999998,
          "velocity": 0.905511811023622
        },
        {
          "duration": 0.24999975000000063,
          "durationTicks": 288,
          "midi": 72,
          "name": "C5",
          "ticks": 53376,
          "time": 46.333287,
          "velocity": 0.905511811023622
        },
        {
          "duration": 0.08333325000000258,
          "durationTicks": 96,
          "midi": 74,
          "name": "D5",
          "ticks": 53664,
          "time": 46.58328675,
          "velocity": 0.905511811023622
        },
        {
          "duration": 0.3333329999999961,
          "durationTicks": 384,
          "midi": 72,
          "name": "C5",
          "ticks": 53760,
          "time": 46.66662,
          "velocity": 0.905511811023622
        },
        {
          "duration": 0.3333329999999961,
          "durationTicks": 384,
          "midi": 75,
          "name": "D#5",
          "ticks": 53760,
          "time": 46.66662,
          "velocity": 0.905511811023622
        },
        {
          "duration": 0.24999975000000063,
          "durationTicks": 288,
          "midi": 70,
          "name": "A#4",
          "ticks": 54144,
          "time": 46.999953,
          "velocity": 0.905511811023622
        },
        {
          "duration": 0.24999975000000063,
          "durationTicks": 288,
          "midi": 74,
          "name": "D5",
          "ticks": 54144,
          "time": 46.999953,
          "velocity": 0.905511811023622
        },
        {
          "duration": 0.08333325000000258,
          "durationTicks": 96,
          "midi": 72,
          "name": "C5",
          "ticks": 54432,
          "time": 47.24995275,
          "velocity": 0.905511811023622
        },
        {
          "duration": 0.08333325000000258,
          "durationTicks": 96,
          "midi": 75,
          "name": "D#5",
          "ticks": 54432,
          "time": 47.24995275,
          "velocity": 0.905511811023622
        },
        {
          "duration": 0.3333329999999961,
          "durationTicks": 384,
          "midi": 74,
          "name": "D5",
          "ticks": 54528,
          "time": 47.333286,
          "velocity": 0.905511811023622
        },
        {
          "duration": 0.3333329999999961,
          "durationTicks": 384,
          "midi": 77,
          "name": "F5",
          "ticks": 54528,
          "time": 47.333286,
          "velocity": 0.905511811023622
        },
        {
          "duration": 0.24999975000000063,
          "durationTicks": 288,
          "midi": 70,
          "name": "A#4",
          "ticks": 54912,
          "time": 47.666619,
          "velocity": 0.905511811023622
        },
        {
          "duration": 0.24999975000000063,
          "durationTicks": 288,
          "midi": 75,
          "name": "D#5",
          "ticks": 54912,
          "time": 47.666619,
          "velocity": 0.905511811023622
        },
        {
          "duration": 0.08333325000000258,
          "durationTicks": 96,
          "midi": 74,
          "name": "D5",
          "ticks": 55200,
          "time": 47.91661875,
          "velocity": 0.905511811023622
        },
        {
          "duration": 0.08333325000000258,
          "durationTicks": 96,
          "midi": 77,
          "name": "F5",
          "ticks": 55200,
          "time": 47.91661875,
          "velocity": 0.905511811023622
        },
        {
          "duration": 0.3333329999999961,
          "durationTicks": 384,
          "midi": 75,
          "name": "D#5",
          "ticks": 55296,
          "time": 47.999952,
          "velocity": 0.905511811023622
        },
        {
          "duration": 0.3333329999999961,
          "durationTicks": 384,
          "midi": 79,
          "name": "G5",
          "ticks": 55296,
          "time": 47.999952,
          "velocity": 0.905511811023622
        },
        {
          "duration": 0.24999975000000063,
          "durationTicks": 288,
          "midi": 77,
          "name": "F5",
          "ticks": 55680,
          "time": 48.333285,
          "velocity": 0.905511811023622
        },
        {
          "duration": 0.24999975000000063,
          "durationTicks": 288,
          "midi": 74,
          "name": "D5",
          "ticks": 55680,
          "time": 48.333285,
          "velocity": 0.905511811023622
        },
        {
          "duration": 0.08333325000000258,
          "durationTicks": 96,
          "midi": 75,
          "name": "D#5",
          "ticks": 55968,
          "time": 48.58328475,
          "velocity": 0.905511811023622
        },
        {
          "duration": 0.08333325000000258,
          "durationTicks": 96,
          "midi": 79,
          "name": "G5",
          "ticks": 55968,
          "time": 48.58328475,
          "velocity": 0.905511811023622
        },
        {
          "duration": 0.3333329999999961,
          "durationTicks": 384,
          "midi": 68,
          "name": "G#4",
          "ticks": 56064,
          "time": 48.666618,
          "velocity": 0.905511811023622
        },
        {
          "duration": 0.3333329999999961,
          "durationTicks": 384,
          "midi": 72,
          "name": "C5",
          "ticks": 56064,
          "time": 48.666618,
          "velocity": 0.905511811023622
        },
        {
          "duration": 0.24999975000000063,
          "durationTicks": 288,
          "midi": 67,
          "name": "G4",
          "ticks": 56448,
          "time": 48.999950999999996,
          "velocity": 0.905511811023622
        },
        {
          "duration": 0.24999975000000063,
          "durationTicks": 288,
          "midi": 72,
          "name": "C5",
          "ticks": 56448,
          "time": 48.999950999999996,
          "velocity": 0.905511811023622
        },
        {
          "duration": 0.08333325000000258,
          "durationTicks": 96,
          "midi": 70,
          "name": "A#4",
          "ticks": 56736,
          "time": 49.249950749999996,
          "velocity": 0.905511811023622
        },
        {
          "duration": 0.08333325000000258,
          "durationTicks": 96,
          "midi": 74,
          "name": "D5",
          "ticks": 56736,
          "time": 49.249950749999996,
          "velocity": 0.905511811023622
        },
        {
          "duration": 0.3333329999999961,
          "durationTicks": 384,
          "midi": 72,
          "name": "C5",
          "ticks": 56832,
          "time": 49.333284,
          "velocity": 0.905511811023622
        },
        {
          "duration": 0.3333329999999961,
          "durationTicks": 384,
          "midi": 75,
          "name": "D#5",
          "ticks": 56832,
          "time": 49.333284,
          "velocity": 0.905511811023622
        },
        {
          "duration": 0.24999975000000063,
          "durationTicks": 288,
          "midi": 70,
          "name": "A#4",
          "ticks": 57216,
          "time": 49.666616999999995,
          "velocity": 0.905511811023622
        },
        {
          "duration": 0.24999975000000063,
          "durationTicks": 288,
          "midi": 74,
          "name": "D5",
          "ticks": 57216,
          "time": 49.666616999999995,
          "velocity": 0.905511811023622
        },
        {
          "duration": 0.08333325000000258,
          "durationTicks": 96,
          "midi": 72,
          "name": "C5",
          "ticks": 57504,
          "time": 49.916616749999996,
          "velocity": 0.905511811023622
        },
        {
          "duration": 0.08333325000000258,
          "durationTicks": 96,
          "midi": 75,
          "name": "D#5",
          "ticks": 57504,
          "time": 49.916616749999996,
          "velocity": 0.905511811023622
        },
        {
          "duration": 0.3333330000000032,
          "durationTicks": 384,
          "midi": 74,
          "name": "D5",
          "ticks": 57600,
          "time": 49.99995,
          "velocity": 0.905511811023622
        },
        {
          "duration": 0.3333330000000032,
          "durationTicks": 384,
          "midi": 77,
          "name": "F5",
          "ticks": 57600,
          "time": 49.99995,
          "velocity": 0.905511811023622
        },
        {
          "duration": 0.24999974999999353,
          "durationTicks": 288,
          "midi": 70,
          "name": "A#4",
          "ticks": 57984,
          "time": 50.333283,
          "velocity": 0.905511811023622
        },
        {
          "duration": 0.24999974999999353,
          "durationTicks": 288,
          "midi": 75,
          "name": "D#5",
          "ticks": 57984,
          "time": 50.333283,
          "velocity": 0.905511811023622
        },
        {
          "duration": 0.08333325000000258,
          "durationTicks": 96,
          "midi": 74,
          "name": "D5",
          "ticks": 58272,
          "time": 50.583282749999995,
          "velocity": 0.905511811023622
        },
        {
          "duration": 0.08333325000000258,
          "durationTicks": 96,
          "midi": 77,
          "name": "F5",
          "ticks": 58272,
          "time": 50.583282749999995,
          "velocity": 0.905511811023622
        },
        {
          "duration": 0.6666659999999993,
          "durationTicks": 768,
          "midi": 75,
          "name": "D#5",
          "ticks": 58368,
          "time": 50.666616,
          "velocity": 0.905511811023622
        },
        {
          "duration": 0.6666659999999993,
          "durationTicks": 768,
          "midi": 79,
          "name": "G5",
          "ticks": 58368,
          "time": 50.666616,
          "velocity": 0.905511811023622
        },
        {
          "duration": 0.16666649999999805,
          "durationTicks": 192,
          "midi": 84,
          "name": "C6",
          "ticks": 59136,
          "time": 51.333282,
          "velocity": 0.905511811023622
        },
        {
          "duration": 0.16666649999999805,
          "durationTicks": 192,
          "midi": 79,
          "name": "G5",
          "ticks": 59136,
          "time": 51.333282,
          "velocity": 0.905511811023622
        },
        {
          "duration": 0.24999975000000063,
          "durationTicks": 288,
          "midi": 72,
          "name": "C5",
          "ticks": 82560,
          "time": 71.666595,
          "velocity": 0.905511811023622
        },
        {
          "duration": 0.08333324999999547,
          "durationTicks": 96,
          "midi": 74,
          "name": "D5",
          "ticks": 82848,
          "time": 71.91659475,
          "velocity": 0.905511811023622
        },
        {
          "duration": 0.3333329999999961,
          "durationTicks": 384,
          "midi": 72,
          "name": "C5",
          "ticks": 82944,
          "time": 71.999928,
          "velocity": 0.905511811023622
        },
        {
          "duration": 0.3333329999999961,
          "durationTicks": 384,
          "midi": 75,
          "name": "D#5",
          "ticks": 82944,
          "time": 71.999928,
          "velocity": 0.905511811023622
        },
        {
          "duration": 0.24999975000000063,
          "durationTicks": 288,
          "midi": 70,
          "name": "A#4",
          "ticks": 83328,
          "time": 72.333261,
          "velocity": 0.905511811023622
        },
        {
          "duration": 0.24999975000000063,
          "durationTicks": 288,
          "midi": 74,
          "name": "D5",
          "ticks": 83328,
          "time": 72.333261,
          "velocity": 0.905511811023622
        },
        {
          "duration": 0.08333325000000968,
          "durationTicks": 96,
          "midi": 72,
          "name": "C5",
          "ticks": 83616,
          "time": 72.58326075,
          "velocity": 0.905511811023622
        },
        {
          "duration": 0.08333325000000968,
          "durationTicks": 96,
          "midi": 75,
          "name": "D#5",
          "ticks": 83616,
          "time": 72.58326075,
          "velocity": 0.905511811023622
        },
        {
          "duration": 0.3333329999999961,
          "durationTicks": 384,
          "midi": 74,
          "name": "D5",
          "ticks": 83712,
          "time": 72.666594,
          "velocity": 0.905511811023622
        },
        {
          "duration": 0.3333329999999961,
          "durationTicks": 384,
          "midi": 77,
          "name": "F5",
          "ticks": 83712,
          "time": 72.666594,
          "velocity": 0.905511811023622
        },
        {
          "duration": 0.24999975000000063,
          "durationTicks": 288,
          "midi": 70,
          "name": "A#4",
          "ticks": 84096,
          "time": 72.999927,
          "velocity": 0.905511811023622
        },
        {
          "duration": 0.24999975000000063,
          "durationTicks": 288,
          "midi": 75,
          "name": "D#5",
          "ticks": 84096,
          "time": 72.999927,
          "velocity": 0.905511811023622
        },
        {
          "duration": 0.08333324999999547,
          "durationTicks": 96,
          "midi": 74,
          "name": "D5",
          "ticks": 84384,
          "time": 73.24992675,
          "velocity": 0.905511811023622
        },
        {
          "duration": 0.08333324999999547,
          "durationTicks": 96,
          "midi": 77,
          "name": "F5",
          "ticks": 84384,
          "time": 73.24992675,
          "velocity": 0.905511811023622
        },
        {
          "duration": 0.3333329999999961,
          "durationTicks": 384,
          "midi": 75,
          "name": "D#5",
          "ticks": 84480,
          "time": 73.33326,
          "velocity": 0.905511811023622
        },
        {
          "duration": 0.3333329999999961,
          "durationTicks": 384,
          "midi": 79,
          "name": "G5",
          "ticks": 84480,
          "time": 73.33326,
          "velocity": 0.905511811023622
        },
        {
          "duration": 0.24999975000000063,
          "durationTicks": 288,
          "midi": 77,
          "name": "F5",
          "ticks": 84864,
          "time": 73.66659299999999,
          "velocity": 0.905511811023622
        },
        {
          "duration": 0.24999975000000063,
          "durationTicks": 288,
          "midi": 74,
          "name": "D5",
          "ticks": 84864,
          "time": 73.66659299999999,
          "velocity": 0.905511811023622
        },
        {
          "duration": 0.08333325000000968,
          "durationTicks": 96,
          "midi": 75,
          "name": "D#5",
          "ticks": 85152,
          "time": 73.91659274999999,
          "velocity": 0.905511811023622
        },
        {
          "duration": 0.08333325000000968,
          "durationTicks": 96,
          "midi": 79,
          "name": "G5",
          "ticks": 85152,
          "time": 73.91659274999999,
          "velocity": 0.905511811023622
        },
        {
          "duration": 0.3333329999999961,
          "durationTicks": 384,
          "midi": 68,
          "name": "G#4",
          "ticks": 85248,
          "time": 73.999926,
          "velocity": 0.905511811023622
        },
        {
          "duration": 0.3333329999999961,
          "durationTicks": 384,
          "midi": 72,
          "name": "C5",
          "ticks": 85248,
          "time": 73.999926,
          "velocity": 0.905511811023622
        },
        {
          "duration": 0.24999975000000063,
          "durationTicks": 288,
          "midi": 67,
          "name": "G4",
          "ticks": 85632,
          "time": 74.333259,
          "velocity": 0.905511811023622
        },
        {
          "duration": 0.24999975000000063,
          "durationTicks": 288,
          "midi": 72,
          "name": "C5",
          "ticks": 85632,
          "time": 74.333259,
          "velocity": 0.905511811023622
        },
        {
          "duration": 0.08333324999999547,
          "durationTicks": 96,
          "midi": 70,
          "name": "A#4",
          "ticks": 85920,
          "time": 74.58325875,
          "velocity": 0.905511811023622
        },
        {
          "duration": 0.08333324999999547,
          "durationTicks": 96,
          "midi": 74,
          "name": "D5",
          "ticks": 85920,
          "time": 74.58325875,
          "velocity": 0.905511811023622
        },
        {
          "duration": 0.3333330000000103,
          "durationTicks": 384,
          "midi": 72,
          "name": "C5",
          "ticks": 86016,
          "time": 74.666592,
          "velocity": 0.905511811023622
        },
        {
          "duration": 0.3333330000000103,
          "durationTicks": 384,
          "midi": 75,
          "name": "D#5",
          "ticks": 86016,
          "time": 74.666592,
          "velocity": 0.905511811023622
        },
        {
          "duration": 0.24999974999998642,
          "durationTicks": 288,
          "midi": 70,
          "name": "A#4",
          "ticks": 86400,
          "time": 74.999925,
          "velocity": 0.905511811023622
        },
        {
          "duration": 0.24999974999998642,
          "durationTicks": 288,
          "midi": 74,
          "name": "D5",
          "ticks": 86400,
          "time": 74.999925,
          "velocity": 0.905511811023622
        },
        {
          "duration": 0.08333325000000968,
          "durationTicks": 96,
          "midi": 72,
          "name": "C5",
          "ticks": 86688,
          "time": 75.24992474999999,
          "velocity": 0.905511811023622
        },
        {
          "duration": 0.08333325000000968,
          "durationTicks": 96,
          "midi": 75,
          "name": "D#5",
          "ticks": 86688,
          "time": 75.24992474999999,
          "velocity": 0.905511811023622
        },
        {
          "duration": 0.3333329999999961,
          "durationTicks": 384,
          "midi": 74,
          "name": "D5",
          "ticks": 86784,
          "time": 75.333258,
          "velocity": 0.905511811023622
        },
        {
          "duration": 0.3333329999999961,
          "durationTicks": 384,
          "midi": 77,
          "name": "F5",
          "ticks": 86784,
          "time": 75.333258,
          "velocity": 0.905511811023622
        },
        {
          "duration": 0.24999975000000063,
          "durationTicks": 288,
          "midi": 70,
          "name": "A#4",
          "ticks": 87168,
          "time": 75.666591,
          "velocity": 0.905511811023622
        },
        {
          "duration": 0.24999975000000063,
          "durationTicks": 288,
          "midi": 75,
          "name": "D#5",
          "ticks": 87168,
          "time": 75.666591,
          "velocity": 0.905511811023622
        },
        {
          "duration": 0.08333324999999547,
          "durationTicks": 96,
          "midi": 74,
          "name": "D5",
          "ticks": 87456,
          "time": 75.91659075,
          "velocity": 0.905511811023622
        },
        {
          "duration": 0.08333324999999547,
          "durationTicks": 96,
          "midi": 77,
          "name": "F5",
          "ticks": 87456,
          "time": 75.91659075,
          "velocity": 0.905511811023622
        },
        {
          "duration": 0.6666660000000064,
          "durationTicks": 768,
          "midi": 75,
          "name": "D#5",
          "ticks": 87552,
          "time": 75.999924,
          "velocity": 0.905511811023622
        },
        {
          "duration": 0.6666660000000064,
          "durationTicks": 768,
          "midi": 79,
          "name": "G5",
          "ticks": 87552,
          "time": 75.999924,
          "velocity": 0.905511811023622
        },
        {
          "duration": 0.16666650000000516,
          "durationTicks": 192,
          "midi": 84,
          "name": "C6",
          "ticks": 88320,
          "time": 76.66659,
          "velocity": 0.905511811023622
        },
        {
          "duration": 0.16666650000000516,
          "durationTicks": 192,
          "midi": 79,
          "name": "G5",
          "ticks": 88320,
          "time": 76.66659,
          "velocity": 0.905511811023622
        }
      ],
      "endOfTrackTicks": 88512
    },
    {
      "channel": 0,
      "controlChanges": {
        "0": [
          {
            "number": 0,
            "ticks": 0,
            "time": 0,
            "value": 0
          }
        ]
      },
      "pitchBends": [],
      "instrument": {
        "family": "piano",
        "number": 0,
        "name": "acoustic grand piano"
      },
      "name": "Ocarina",
      "notes": [],
      "endOfTrackTicks": 79872
    },
    {
      "channel": 2,
      "controlChanges": {},
      "pitchBends": [],
      "instrument": {
        "family": "pipe",
        "number": 79,
        "name": "ocarina"
      },
      "name": "",
      "notes": [
        {
          "duration": 0.16666649999999983,
          "durationTicks": 192,
          "midi": 79,
          "name": "G5",
          "ticks": 7296,
          "time": 6.333327,
          "velocity": 0.7874015748031497
        },
        {
          "duration": 0.0833332500000008,
          "durationTicks": 96,
          "midi": 79,
          "name": "G5",
          "ticks": 7584,
          "time": 6.5833267499999994,
          "velocity": 0.7874015748031497
        },
        {
          "duration": 0.9999989999999999,
          "durationTicks": 1152,
          "midi": 84,
          "name": "C6",
          "ticks": 7680,
          "time": 6.66666,
          "velocity": 0.7874015748031497
        },
        {
          "duration": 0.24999974999999974,
          "durationTicks": 288,
          "midi": 84,
          "name": "C6",
          "ticks": 8832,
          "time": 7.666659,
          "velocity": 0.7874015748031497
        },
        {
          "duration": 0.08333324999999991,
          "durationTicks": 96,
          "midi": 88,
          "name": "E6",
          "ticks": 9120,
          "time": 7.91665875,
          "velocity": 0.7874015748031497
        },
        {
          "duration": 0.08333324999999991,
          "durationTicks": 96,
          "midi": 91,
          "name": "G6",
          "ticks": 9216,
          "time": 7.999992,
          "velocity": 0.7874015748031497
        },
        {
          "duration": 0.08333324999999903,
          "durationTicks": 96,
          "midi": 96,
          "name": "C7",
          "ticks": 9408,
          "time": 8.1666585,
          "velocity": 0.7874015748031497
        },
        {
          "duration": 0.08333324999999903,
          "durationTicks": 96,
          "midi": 95,
          "name": "B6",
          "ticks": 9600,
          "time": 8.333325,
          "velocity": 0.7874015748031497
        },
        {
          "duration": 0.08333324999999903,
          "durationTicks": 96,
          "midi": 93,
          "name": "A6",
          "ticks": 9792,
          "time": 8.4999915,
          "velocity": 0.7874015748031497
        },
        {
          "duration": 0.33333299999999966,
          "durationTicks": 384,
          "midi": 91,
          "name": "G6",
          "ticks": 9984,
          "time": 8.666658,
          "velocity": 0.7874015748031497
        },
        {
          "duration": 0.24999975000000063,
          "durationTicks": 288,
          "midi": 88,
          "name": "E6",
          "ticks": 10368,
          "time": 8.999991,
          "velocity": 0.7874015748031497
        },
        {
          "duration": 0.08333324999999903,
          "durationTicks": 96,
          "midi": 91,
          "name": "G6",
          "ticks": 10656,
          "time": 9.24999075,
          "velocity": 0.7874015748031497
        },
        {
          "duration": 0.33333299999999966,
          "durationTicks": 384,
          "midi": 89,
          "name": "F6",
          "ticks": 10752,
          "time": 9.333324,
          "velocity": 0.7874015748031497
        },
        {
          "duration": 0.24999975000000063,
          "durationTicks": 288,
          "midi": 86,
          "name": "D6",
          "ticks": 11136,
          "time": 9.666656999999999,
          "velocity": 0.7874015748031497
        },
        {
          "duration": 0.0833332500000008,
          "durationTicks": 96,
          "midi": 88,
          "name": "E6",
          "ticks": 11424,
          "time": 9.91665675,
          "velocity": 0.7874015748031497
        },
        {
          "duration": 0.33333299999999966,
          "durationTicks": 384,
          "midi": 86,
          "name": "D6",
          "ticks": 11520,
          "time": 9.99999,
          "velocity": 0.7874015748031497
        },
        {
          "duration": 0.24999974999999885,
          "durationTicks": 288,
          "midi": 88,
          "name": "E6",
          "ticks": 11904,
          "time": 10.333323,
          "velocity": 0.7874015748031497
        },
        {
          "duration": 0.0833332500000008,
          "durationTicks": 96,
          "midi": 86,
          "name": "D6",
          "ticks": 12192,
          "time": 10.583322749999999,
          "velocity": 0.7874015748031497
        },
        {
          "duration": 0.9999990000000007,
          "durationTicks": 1152,
          "midi": 84,
          "name": "C6",
          "ticks": 12288,
          "time": 10.666656,
          "velocity": 0.7874015748031497
        },
        {
          "duration": 0.16666649999999983,
          "durationTicks": 192,
          "midi": 79,
          "name": "G5",
          "ticks": 13440,
          "time": 11.666655,
          "velocity": 0.7874015748031497
        },
        {
          "duration": 0.0833332500000008,
          "durationTicks": 96,
          "midi": 79,
          "name": "G5",
          "ticks": 13728,
          "time": 11.91665475,
          "velocity": 0.7874015748031497
        },
        {
          "duration": 0.999998999999999,
          "durationTicks": 1152,
          "midi": 84,
          "name": "C6",
          "ticks": 13824,
          "time": 11.999988,
          "velocity": 0.7874015748031497
        },
        {
          "duration": 0.24999975000000063,
          "durationTicks": 288,
          "midi": 84,
          "name": "C6",
          "ticks": 14976,
          "time": 12.999986999999999,
          "velocity": 0.7874015748031497
        },
        {
          "duration": 0.0833332500000008,
          "durationTicks": 96,
          "midi": 88,
          "name": "E6",
          "ticks": 15264,
          "time": 13.24998675,
          "velocity": 0.7874015748031497
        },
        {
          "duration": 0.08333324999999903,
          "durationTicks": 96,
          "midi": 91,
          "name": "G6",
          "ticks": 15360,
          "time": 13.33332,
          "velocity": 0.7874015748031497
        },
        {
          "duration": 0.08333324999999903,
          "durationTicks": 96,
          "midi": 96,
          "name": "C7",
          "ticks": 15552,
          "time": 13.4999865,
          "velocity": 0.7874015748031497
        },
        {
          "duration": 0.08333324999999903,
          "durationTicks": 96,
          "midi": 95,
          "name": "B6",
          "ticks": 15744,
          "time": 13.666653,
          "velocity": 0.7874015748031497
        },
        {
          "duration": 0.08333324999999903,
          "durationTicks": 96,
          "midi": 93,
          "name": "A6",
          "ticks": 15936,
          "time": 13.8333195,
          "velocity": 0.7874015748031497
        },
        {
          "duration": 0.33333299999999966,
          "durationTicks": 384,
          "midi": 91,
          "name": "G6",
          "ticks": 16128,
          "time": 13.999986,
          "velocity": 0.7874015748031497
        },
        {
          "duration": 0.24999975000000063,
          "durationTicks": 288,
          "midi": 88,
          "name": "E6",
          "ticks": 16512,
          "time": 14.333319,
          "velocity": 0.7874015748031497
        },
        {
          "duration": 0.08333324999999903,
          "durationTicks": 96,
          "midi": 91,
          "name": "G6",
          "ticks": 16800,
          "time": 14.58331875,
          "velocity": 0.7874015748031497
        },
        {
          "duration": 0.33333299999999966,
          "durationTicks": 384,
          "midi": 89,
          "name": "F6",
          "ticks": 16896,
          "time": 14.666652,
          "velocity": 0.7874015748031497
        },
        {
          "duration": 0.24999975000000063,
          "durationTicks": 288,
          "midi": 86,
          "name": "D6",
          "ticks": 17280,
          "time": 14.999984999999999,
          "velocity": 0.7874015748031497
        },
        {
          "duration": 0.0833332500000008,
          "durationTicks": 96,
          "midi": 88,
          "name": "E6",
          "ticks": 17568,
          "time": 15.24998475,
          "velocity": 0.7874015748031497
        },
        {
          "duration": 0.33333299999999966,
          "durationTicks": 384,
          "midi": 86,
          "name": "D6",
          "ticks": 17664,
          "time": 15.333318,
          "velocity": 0.7874015748031497
        },
        {
          "duration": 0.24999974999999885,
          "durationTicks": 288,
          "midi": 88,
          "name": "E6",
          "ticks": 18048,
          "time": 15.666651,
          "velocity": 0.7874015748031497
        },
        {
          "duration": 0.0833332500000008,
          "durationTicks": 96,
          "midi": 86,
          "name": "D6",
          "ticks": 18336,
          "time": 15.916650749999999,
          "velocity": 0.7874015748031497
        },
        {
          "duration": 1.3333320000000004,
          "durationTicks": 1536,
          "midi": 84,
          "name": "C6",
          "ticks": 18432,
          "time": 15.999984,
          "velocity": 0.7874015748031497
        },
        {
          "duration": 0.24999975000000063,
          "durationTicks": 288,
          "midi": 84,
          "name": "C6",
          "ticks": 19968,
          "time": 17.333316,
          "velocity": 0.7874015748031497
        },
        {
          "duration": 0.08333324999999903,
          "durationTicks": 96,
          "midi": 84,
          "name": "C6",
          "ticks": 20256,
          "time": 17.58331575,
          "velocity": 0.7874015748031497
        },
        {
          "duration": 0.1666665000000016,
          "durationTicks": 192,
          "midi": 86,
          "name": "D6",
          "ticks": 20352,
          "time": 17.666649,
          "velocity": 0.7874015748031497
        },
        {
          "duration": 0.33333299999999966,
          "durationTicks": 384,
          "midi": 88,
          "name": "E6",
          "ticks": 20544,
          "time": 17.8333155,
          "velocity": 0.7874015748031497
        },
        {
          "duration": 0.16666649999999805,
          "durationTicks": 192,
          "midi": 84,
          "name": "C6",
          "ticks": 20928,
          "time": 18.1666485,
          "velocity": 0.7874015748031497
        },
        {
          "duration": 0.1666665000000016,
          "durationTicks": 192,
          "midi": 86,
          "name": "D6",
          "ticks": 21120,
          "time": 18.333315,
          "velocity": 0.7874015748031497
        },
        {
          "duration": 0.16666649999999805,
          "durationTicks": 192,
          "midi": 84,
          "name": "C6",
          "ticks": 21312,
          "time": 18.4999815,
          "velocity": 0.7874015748031497
        },
        {
          "duration": 0.16666649999999805,
          "durationTicks": 192,
          "midi": 79,
          "name": "G5",
          "ticks": 36480,
          "time": 31.666635,
          "velocity": 0.7874015748031497
        },
        {
          "duration": 0.08333324999999903,
          "durationTicks": 96,
          "midi": 79,
          "name": "G5",
          "ticks": 36768,
          "time": 31.91663475,
          "velocity": 0.7874015748031497
        },
        {
          "duration": 0.999998999999999,
          "durationTicks": 1152,
          "midi": 84,
          "name": "C6",
          "ticks": 36864,
          "time": 31.999968,
          "velocity": 0.7874015748031497
        },
        {
          "duration": 0.24999975000000063,
          "durationTicks": 288,
          "midi": 84,
          "name": "C6",
          "ticks": 38016,
          "time": 32.999967,
          "velocity": 0.7874015748031497
        },
        {
          "duration": 0.08333325000000258,
          "durationTicks": 96,
          "midi": 88,
          "name": "E6",
          "ticks": 38304,
          "time": 33.24996675,
          "velocity": 0.7874015748031497
        },
        {
          "duration": 0.08333324999999547,
          "durationTicks": 96,
          "midi": 91,
          "name": "G6",
          "ticks": 38400,
          "time": 33.3333,
          "velocity": 0.7874015748031497
        },
        {
          "duration": 0.08333325000000258,
          "durationTicks": 96,
          "midi": 96,
          "name": "C7",
          "ticks": 38592,
          "time": 33.4999665,
          "velocity": 0.7874015748031497
        },
        {
          "duration": 0.08333325000000258,
          "durationTicks": 96,
          "midi": 95,
          "name": "B6",
          "ticks": 38784,
          "time": 33.666633,
          "velocity": 0.7874015748031497
        },
        {
          "duration": 0.08333324999999547,
          "durationTicks": 96,
          "midi": 93,
          "name": "A6",
          "ticks": 38976,
          "time": 33.8332995,
          "velocity": 0.7874015748031497
        },
        {
          "duration": 0.3333329999999961,
          "durationTicks": 384,
          "midi": 91,
          "name": "G6",
          "ticks": 39168,
          "time": 33.999966,
          "velocity": 0.7874015748031497
        },
        {
          "duration": 0.24999975000000063,
          "durationTicks": 288,
          "midi": 88,
          "name": "E6",
          "ticks": 39552,
          "time": 34.333299,
          "velocity": 0.7874015748031497
        },
        {
          "duration": 0.08333325000000258,
          "durationTicks": 96,
          "midi": 91,
          "name": "G6",
          "ticks": 39840,
          "time": 34.58329875,
          "velocity": 0.7874015748031497
        },
        {
          "duration": 0.3333329999999961,
          "durationTicks": 384,
          "midi": 89,
          "name": "F6",
          "ticks": 39936,
          "time": 34.666632,
          "velocity": 0.7874015748031497
        },
        {
          "duration": 0.24999975000000063,
          "durationTicks": 288,
          "midi": 86,
          "name": "D6",
          "ticks": 40320,
          "time": 34.999964999999996,
          "velocity": 0.7874015748031497
        },
        {
          "duration": 0.08333325000000258,
          "durationTicks": 96,
          "midi": 88,
          "name": "E6",
          "ticks": 40608,
          "time": 35.24996475,
          "velocity": 0.7874015748031497
        },
        {
          "duration": 0.3333330000000032,
          "durationTicks": 384,
          "midi": 86,
          "name": "D6",
          "ticks": 40704,
          "time": 35.333298,
          "velocity": 0.7874015748031497
        },
        {
          "duration": 0.24999974999999353,
          "durationTicks": 288,
          "midi": 88,
          "name": "E6",
          "ticks": 41088,
          "time": 35.666631,
          "velocity": 0.7874015748031497
        },
        {
          "duration": 0.08333325000000258,
          "durationTicks": 96,
          "midi": 86,
          "name": "D6",
          "ticks": 41376,
          "time": 35.916630749999996,
          "velocity": 0.7874015748031497
        },
        {
          "duration": 0.9999990000000025,
          "durationTicks": 1152,
          "midi": 84,
          "name": "C6",
          "ticks": 41472,
          "time": 35.999964,
          "velocity": 0.7874015748031497
        },
        {
          "duration": 0.16666649999999805,
          "durationTicks": 192,
          "midi": 79,
          "name": "G5",
          "ticks": 42624,
          "time": 36.999963,
          "velocity": 0.7874015748031497
        },
        {
          "duration": 0.08333324999999547,
          "durationTicks": 96,
          "midi": 79,
          "name": "G5",
          "ticks": 42912,
          "time": 37.24996275,
          "velocity": 0.7874015748031497
        },
        {
          "duration": 0.9999990000000025,
          "durationTicks": 1152,
          "midi": 84,
          "name": "C6",
          "ticks": 43008,
          "time": 37.333296,
          "velocity": 0.7874015748031497
        },
        {
          "duration": 0.24999975000000063,
          "durationTicks": 288,
          "midi": 84,
          "name": "C6",
          "ticks": 44160,
          "time": 38.333295,
          "velocity": 0.7874015748031497
        },
        {
          "duration": 0.08333324999999547,
          "durationTicks": 96,
          "midi": 88,
          "name": "E6",
          "ticks": 44448,
          "time": 38.58329475,
          "velocity": 0.7874015748031497
        },
        {
          "duration": 0.08333325000000258,
          "durationTicks": 96,
          "midi": 91,
          "name": "G6",
          "ticks": 44544,
          "time": 38.666627999999996,
          "velocity": 0.7874015748031497
        },
        {
          "duration": 0.08333324999999547,
          "durationTicks": 96,
          "midi": 96,
          "name": "C7",
          "ticks": 44736,
          "time": 38.8332945,
          "velocity": 0.7874015748031497
        },
        {
          "duration": 0.08333325000000258,
          "durationTicks": 96,
          "midi": 95,
          "name": "B6",
          "ticks": 44928,
          "time": 38.999961,
          "velocity": 0.7874015748031497
        },
        {
          "duration": 0.08333325000000258,
          "durationTicks": 96,
          "midi": 93,
          "name": "A6",
          "ticks": 45120,
          "time": 39.1666275,
          "velocity": 0.7874015748031497
        },
        {
          "duration": 0.3333329999999961,
          "durationTicks": 384,
          "midi": 91,
          "name": "G6",
          "ticks": 45312,
          "time": 39.333294,
          "velocity": 0.7874015748031497
        },
        {
          "duration": 0.24999975000000063,
          "durationTicks": 288,
          "midi": 88,
          "name": "E6",
          "ticks": 45696,
          "time": 39.666627,
          "velocity": 0.7874015748031497
        },
        {
          "duration": 0.08333325000000258,
          "durationTicks": 96,
          "midi": 91,
          "name": "G6",
          "ticks": 45984,
          "time": 39.91662675,
          "velocity": 0.7874015748031497
        },
        {
          "duration": 0.3333329999999961,
          "durationTicks": 384,
          "midi": 89,
          "name": "F6",
          "ticks": 46080,
          "time": 39.99996,
          "velocity": 0.7874015748031497
        },
        {
          "duration": 0.24999975000000063,
          "durationTicks": 288,
          "midi": 86,
          "name": "D6",
          "ticks": 46464,
          "time": 40.333293,
          "velocity": 0.7874015748031497
        },
        {
          "duration": 0.08333325000000258,
          "durationTicks": 96,
          "midi": 88,
          "name": "E6",
          "ticks": 46752,
          "time": 40.58329275,
          "velocity": 0.7874015748031497
        },
        {
          "duration": 0.3333329999999961,
          "durationTicks": 384,
          "midi": 86,
          "name": "D6",
          "ticks": 46848,
          "time": 40.666626,
          "velocity": 0.7874015748031497
        },
        {
          "duration": 0.24999975000000063,
          "durationTicks": 288,
          "midi": 88,
          "name": "E6",
          "ticks": 47232,
          "time": 40.999959,
          "velocity": 0.7874015748031497
        },
        {
          "duration": 0.08333325000000258,
          "durationTicks": 96,
          "midi": 86,
          "name": "D6",
          "ticks": 47520,
          "time": 41.24995875,
          "velocity": 0.7874015748031497
        },
        {
          "duration": 1.3333319999999986,
          "durationTicks": 1536,
          "midi": 84,
          "name": "C6",
          "ticks": 47616,
          "time": 41.333292,
          "velocity": 0.7874015748031497
        },
        {
          "duration": 0.24999975000000063,
          "durationTicks": 288,
          "midi": 84,
          "name": "C6",
          "ticks": 49152,
          "time": 42.666624,
          "velocity": 0.7874015748031497
        },
        {
          "duration": 0.08333325000000258,
          "durationTicks": 96,
          "midi": 84,
          "name": "C6",
          "ticks": 49440,
          "time": 42.91662375,
          "velocity": 0.7874015748031497
        },
        {
          "duration": 0.16666649999999805,
          "durationTicks": 192,
          "midi": 86,
          "name": "D6",
          "ticks": 49536,
          "time": 42.999957,
          "velocity": 0.7874015748031497
        },
        {
          "duration": 0.3333329999999961,
          "durationTicks": 384,
          "midi": 88,
          "name": "E6",
          "ticks": 49728,
          "time": 43.1666235,
          "velocity": 0.7874015748031497
        },
        {
          "duration": 0.16666650000000516,
          "durationTicks": 192,
          "midi": 84,
          "name": "C6",
          "ticks": 50112,
          "time": 43.499956499999996,
          "velocity": 0.7874015748031497
        },
        {
          "duration": 0.16666649999999805,
          "durationTicks": 192,
          "midi": 86,
          "name": "D6",
          "ticks": 50304,
          "time": 43.666623,
          "velocity": 0.7874015748031497
        },
        {
          "duration": 0.16666649999999805,
          "durationTicks": 192,
          "midi": 84,
          "name": "C6",
          "ticks": 50496,
          "time": 43.8332895,
          "velocity": 0.7874015748031497
        },
        {
          "duration": 0.16666649999999805,
          "durationTicks": 192,
          "midi": 79,
          "name": "G5",
          "ticks": 65664,
          "time": 56.999943,
          "velocity": 0.7874015748031497
        },
        {
          "duration": 0.08333325000000258,
          "durationTicks": 96,
          "midi": 79,
          "name": "G5",
          "ticks": 65952,
          "time": 57.249942749999995,
          "velocity": 0.7874015748031497
        },
        {
          "duration": 0.9999990000000025,
          "durationTicks": 1152,
          "midi": 84,
          "name": "C6",
          "ticks": 66048,
          "time": 57.333276,
          "velocity": 0.7874015748031497
        },
        {
          "duration": 0.24999975000000063,
          "durationTicks": 288,
          "midi": 84,
          "name": "C6",
          "ticks": 67200,
          "time": 58.333275,
          "velocity": 0.7874015748031497
        },
        {
          "duration": 0.08333324999999547,
          "durationTicks": 96,
          "midi": 88,
          "name": "E6",
          "ticks": 67488,
          "time": 58.58327475,
          "velocity": 0.7874015748031497
        },
        {
          "duration": 0.08333325000000258,
          "durationTicks": 96,
          "midi": 91,
          "name": "G6",
          "ticks": 67584,
          "time": 58.666608,
          "velocity": 0.7874015748031497
        },
        {
          "duration": 0.08333324999999547,
          "durationTicks": 96,
          "midi": 96,
          "name": "C7",
          "ticks": 67776,
          "time": 58.8332745,
          "velocity": 0.7874015748031497
        },
        {
          "duration": 0.08333324999999547,
          "durationTicks": 96,
          "midi": 95,
          "name": "B6",
          "ticks": 67968,
          "time": 58.999941,
          "velocity": 0.7874015748031497
        },
        {
          "duration": 0.08333325000000258,
          "durationTicks": 96,
          "midi": 93,
          "name": "A6",
          "ticks": 68160,
          "time": 59.1666075,
          "velocity": 0.7874015748031497
        },
        {
          "duration": 0.3333330000000032,
          "durationTicks": 384,
          "midi": 91,
          "name": "G6",
          "ticks": 68352,
          "time": 59.333273999999996,
          "velocity": 0.7874015748031497
        },
        {
          "duration": 0.24999975000000063,
          "durationTicks": 288,
          "midi": 88,
          "name": "E6",
          "ticks": 68736,
          "time": 59.666607,
          "velocity": 0.7874015748031497
        },
        {
          "duration": 0.08333324999999547,
          "durationTicks": 96,
          "midi": 91,
          "name": "G6",
          "ticks": 69024,
          "time": 59.91660675,
          "velocity": 0.7874015748031497
        },
        {
          "duration": 0.3333330000000032,
          "durationTicks": 384,
          "midi": 89,
          "name": "F6",
          "ticks": 69120,
          "time": 59.999939999999995,
          "velocity": 0.7874015748031497
        },
        {
          "duration": 0.24999975000000063,
          "durationTicks": 288,
          "midi": 86,
          "name": "D6",
          "ticks": 69504,
          "time": 60.333273,
          "velocity": 0.7874015748031497
        },
        {
          "duration": 0.08333325000000258,
          "durationTicks": 96,
          "midi": 88,
          "name": "E6",
          "ticks": 69792,
          "time": 60.58327275,
          "velocity": 0.7874015748031497
        },
        {
          "duration": 0.3333329999999961,
          "durationTicks": 384,
          "midi": 86,
          "name": "D6",
          "ticks": 69888,
          "time": 60.666606,
          "velocity": 0.7874015748031497
        },
        {
          "duration": 0.24999975000000063,
          "durationTicks": 288,
          "midi": 88,
          "name": "E6",
          "ticks": 70272,
          "time": 60.999939,
          "velocity": 0.7874015748031497
        },
        {
          "duration": 0.08333325000000258,
          "durationTicks": 96,
          "midi": 86,
          "name": "D6",
          "ticks": 70560,
          "time": 61.24993875,
          "velocity": 0.7874015748031497
        },
        {
          "duration": 0.9999989999999954,
          "durationTicks": 1152,
          "midi": 84,
          "name": "C6",
          "ticks": 70656,
          "time": 61.333272,
          "velocity": 0.7874015748031497
        },
        {
          "duration": 0.16666650000000516,
          "durationTicks": 192,
          "midi": 79,
          "name": "G5",
          "ticks": 71808,
          "time": 62.333270999999996,
          "velocity": 0.7874015748031497
        },
        {
          "duration": 0.08333325000000258,
          "durationTicks": 96,
          "midi": 79,
          "name": "G5",
          "ticks": 72096,
          "time": 62.58327075,
          "velocity": 0.7874015748031497
        },
        {
          "duration": 0.9999989999999954,
          "durationTicks": 1152,
          "midi": 84,
          "name": "C6",
          "ticks": 72192,
          "time": 62.666604,
          "velocity": 0.7874015748031497
        },
        {
          "duration": 0.24999975000000063,
          "durationTicks": 288,
          "midi": 84,
          "name": "C6",
          "ticks": 73344,
          "time": 63.666602999999995,
          "velocity": 0.7874015748031497
        },
        {
          "duration": 0.08333325000000258,
          "durationTicks": 96,
          "midi": 88,
          "name": "E6",
          "ticks": 73632,
          "time": 63.916602749999996,
          "velocity": 0.7874015748031497
        },
        {
          "duration": 0.08333325000000258,
          "durationTicks": 96,
          "midi": 91,
          "name": "G6",
          "ticks": 73728,
          "time": 63.999936,
          "velocity": 0.7874015748031497
        },
        {
          "duration": 0.08333324999999547,
          "durationTicks": 96,
          "midi": 96,
          "name": "C7",
          "ticks": 73920,
          "time": 64.1666025,
          "velocity": 0.7874015748031497
        },
        {
          "duration": 0.08333324999999547,
          "durationTicks": 96,
          "midi": 95,
          "name": "B6",
          "ticks": 74112,
          "time": 64.333269,
          "velocity": 0.7874015748031497
        },
        {
          "duration": 0.08333325000000968,
          "durationTicks": 96,
          "midi": 93,
          "name": "A6",
          "ticks": 74304,
          "time": 64.49993549999999,
          "velocity": 0.7874015748031497
        },
        {
          "duration": 0.3333329999999961,
          "durationTicks": 384,
          "midi": 91,
          "name": "G6",
          "ticks": 74496,
          "time": 64.666602,
          "velocity": 0.7874015748031497
        },
        {
          "duration": 0.24999975000000063,
          "durationTicks": 288,
          "midi": 88,
          "name": "E6",
          "ticks": 74880,
          "time": 64.999935,
          "velocity": 0.7874015748031497
        },
        {
          "duration": 0.08333325000000968,
          "durationTicks": 96,
          "midi": 91,
          "name": "G6",
          "ticks": 75168,
          "time": 65.24993475,
          "velocity": 0.7874015748031497
        },
        {
          "duration": 0.3333329999999961,
          "durationTicks": 384,
          "midi": 89,
          "name": "F6",
          "ticks": 75264,
          "time": 65.333268,
          "velocity": 0.7874015748031497
        },
        {
          "duration": 0.24999975000000063,
          "durationTicks": 288,
          "midi": 86,
          "name": "D6",
          "ticks": 75648,
          "time": 65.666601,
          "velocity": 0.7874015748031497
        },
        {
          "duration": 0.08333324999999547,
          "durationTicks": 96,
          "midi": 88,
          "name": "E6",
          "ticks": 75936,
          "time": 65.91660075,
          "velocity": 0.7874015748031497
        },
        {
          "duration": 0.3333329999999961,
          "durationTicks": 384,
          "midi": 86,
          "name": "D6",
          "ticks": 76032,
          "time": 65.999934,
          "velocity": 0.7874015748031497
        },
        {
          "duration": 0.24999975000000063,
          "durationTicks": 288,
          "midi": 88,
          "name": "E6",
          "ticks": 76416,
          "time": 66.33326699999999,
          "velocity": 0.7874015748031497
        },
        {
          "duration": 0.08333325000000968,
          "durationTicks": 96,
          "midi": 86,
          "name": "D6",
          "ticks": 76704,
          "time": 66.58326674999999,
          "velocity": 0.7874015748031497
        },
        {
          "duration": 1.3333319999999986,
          "durationTicks": 1536,
          "midi": 84,
          "name": "C6",
          "ticks": 76800,
          "time": 66.6666,
          "velocity": 0.7874015748031497
        },
        {
          "duration": 0.24999975000000063,
          "durationTicks": 288,
          "midi": 84,
          "name": "C6",
          "ticks": 78336,
          "time": 67.999932,
          "velocity": 0.7874015748031497
        },
        {
          "duration": 0.08333324999999547,
          "durationTicks": 96,
          "midi": 84,
          "name": "C6",
          "ticks": 78624,
          "time": 68.24993175,
          "velocity": 0.7874015748031497
        },
        {
          "duration": 0.16666650000000516,
          "durationTicks": 192,
          "midi": 86,
          "name": "D6",
          "ticks": 78720,
          "time": 68.333265,
          "velocity": 0.7874015748031497
        },
        {
          "duration": 0.3333329999999961,
          "durationTicks": 384,
          "midi": 88,
          "name": "E6",
          "ticks": 78912,
          "time": 68.4999315,
          "velocity": 0.7874015748031497
        },
        {
          "duration": 0.16666650000000516,
          "durationTicks": 192,
          "midi": 84,
          "name": "C6",
          "ticks": 79296,
          "time": 68.8332645,
          "velocity": 0.7874015748031497
        },
        {
          "duration": 0.16666649999999095,
          "durationTicks": 192,
          "midi": 86,
          "name": "D6",
          "ticks": 79488,
          "time": 68.999931,
          "velocity": 0.7874015748031497
        },
        {
          "duration": 0.16666650000000516,
          "durationTicks": 192,
          "midi": 84,
          "name": "C6",
          "ticks": 79680,
          "time": 69.1665975,
          "velocity": 0.7874015748031497
        }
      ]
    },
    {
      "channel": 0,
      "controlChanges": {
        "0": [
          {
            "number": 0,
            "ticks": 0,
            "time": 0,
            "value": 0
          }
        ]
      },
      "pitchBends": [],
      "instrument": {
        "family": "piano",
        "number": 0,
        "name": "acoustic grand piano"
      },
      "name": "Pan Flute",
      "notes": [],
      "endOfTrackTicks": 89088
    },
    {
      "channel": 3,
      "controlChanges": {},
      "pitchBends": [],
      "instrument": {
        "family": "pipe",
        "number": 75,
        "name": "pan flute"
      },
      "name": "",
      "notes": [
        {
          "duration": 0.16666649999999983,
          "durationTicks": 192,
          "midi": 55,
          "name": "G3",
          "ticks": 7680,
          "time": 6.66666,
          "velocity": 0.7874015748031497
        },
        {
          "duration": 0.16666649999999983,
          "durationTicks": 192,
          "midi": 64,
          "name": "E4",
          "ticks": 7680,
          "time": 6.66666,
          "velocity": 0.7874015748031497
        },
        {
          "duration": 0.08333324999999991,
          "durationTicks": 96,
          "midi": 67,
          "name": "G4",
          "ticks": 7872,
          "time": 6.8333265,
          "velocity": 0.7874015748031497
        },
        {
          "duration": 0.08333324999999991,
          "durationTicks": 96,
          "midi": 76,
          "name": "E5",
          "ticks": 7872,
          "time": 6.8333265,
          "velocity": 0.7874015748031497
        },
        {
          "duration": 0.08333324999999991,
          "durationTicks": 96,
          "midi": 67,
          "name": "G4",
          "ticks": 8064,
          "time": 6.999993,
          "velocity": 0.7874015748031497
        },
        {
          "duration": 0.08333324999999991,
          "durationTicks": 96,
          "midi": 76,
          "name": "E5",
          "ticks": 8064,
          "time": 6.999993,
          "velocity": 0.7874015748031497
        },
        {
          "duration": 0.08333324999999991,
          "durationTicks": 96,
          "midi": 67,
          "name": "G4",
          "ticks": 8256,
          "time": 7.1666595,
          "velocity": 0.7874015748031497
        },
        {
          "duration": 0.08333324999999991,
          "durationTicks": 96,
          "midi": 76,
          "name": "E5",
          "ticks": 8256,
          "time": 7.1666595,
          "velocity": 0.7874015748031497
        },
        {
          "duration": 0.08333324999999991,
          "durationTicks": 96,
          "midi": 67,
          "name": "G4",
          "ticks": 8448,
          "time": 7.333326,
          "velocity": 0.7874015748031497
        },
        {
          "duration": 0.08333324999999991,
          "durationTicks": 96,
          "midi": 76,
          "name": "E5",
          "ticks": 8448,
          "time": 7.333326,
          "velocity": 0.7874015748031497
        },
        {
          "duration": 0.0833332500000008,
          "durationTicks": 96,
          "midi": 67,
          "name": "G4",
          "ticks": 8640,
          "time": 7.499992499999999,
          "velocity": 0.7874015748031497
        },
        {
          "duration": 0.0833332500000008,
          "durationTicks": 96,
          "midi": 76,
          "name": "E5",
          "ticks": 8640,
          "time": 7.499992499999999,
          "velocity": 0.7874015748031497
        },
        {
          "duration": 0.08333324999999991,
          "durationTicks": 96,
          "midi": 67,
          "name": "G4",
          "ticks": 8832,
          "time": 7.666659,
          "velocity": 0.7874015748031497
        },
        {
          "duration": 0.08333324999999991,
          "durationTicks": 96,
          "midi": 76,
          "name": "E5",
          "ticks": 8832,
          "time": 7.666659,
          "velocity": 0.7874015748031497
        },
        {
          "duration": 0.08333324999999991,
          "durationTicks": 96,
          "midi": 67,
          "name": "G4",
          "ticks": 9024,
          "time": 7.8333255,
          "velocity": 0.7874015748031497
        },
        {
          "duration": 0.08333324999999991,
          "durationTicks": 96,
          "midi": 76,
          "name": "E5",
          "ticks": 9024,
          "time": 7.8333255,
          "velocity": 0.7874015748031497
        },
        {
          "duration": 0.16666650000000072,
          "durationTicks": 192,
          "midi": 55,
          "name": "G3",
          "ticks": 9216,
          "time": 7.999992,
          "velocity": 0.7874015748031497
        },
        {
          "duration": 0.16666650000000072,
          "durationTicks": 192,
          "midi": 64,
          "name": "E4",
          "ticks": 9216,
          "time": 7.999992,
          "velocity": 0.7874015748031497
        },
        {
          "duration": 0.08333324999999903,
          "durationTicks": 96,
          "midi": 67,
          "name": "G4",
          "ticks": 9408,
          "time": 8.1666585,
          "velocity": 0.7874015748031497
        },
        {
          "duration": 0.08333324999999903,
          "durationTicks": 96,
          "midi": 76,
          "name": "E5",
          "ticks": 9408,
          "time": 8.1666585,
          "velocity": 0.7874015748031497
        },
        {
          "duration": 0.08333324999999903,
          "durationTicks": 96,
          "midi": 67,
          "name": "G4",
          "ticks": 9600,
          "time": 8.333325,
          "velocity": 0.7874015748031497
        },
        {
          "duration": 0.08333324999999903,
          "durationTicks": 96,
          "midi": 76,
          "name": "E5",
          "ticks": 9600,
          "time": 8.333325,
          "velocity": 0.7874015748031497
        },
        {
          "duration": 0.08333324999999903,
          "durationTicks": 96,
          "midi": 67,
          "name": "G4",
          "ticks": 9792,
          "time": 8.4999915,
          "velocity": 0.7874015748031497
        },
        {
          "duration": 0.08333324999999903,
          "durationTicks": 96,
          "midi": 76,
          "name": "E5",
          "ticks": 9792,
          "time": 8.4999915,
          "velocity": 0.7874015748031497
        },
        {
          "duration": 0.08333324999999903,
          "durationTicks": 96,
          "midi": 67,
          "name": "G4",
          "ticks": 9984,
          "time": 8.666658,
          "velocity": 0.7874015748031497
        },
        {
          "duration": 0.08333324999999903,
          "durationTicks": 96,
          "midi": 76,
          "name": "E5",
          "ticks": 9984,
          "time": 8.666658,
          "velocity": 0.7874015748031497
        },
        {
          "duration": 0.0833332500000008,
          "durationTicks": 96,
          "midi": 67,
          "name": "G4",
          "ticks": 10176,
          "time": 8.8333245,
          "velocity": 0.7874015748031497
        },
        {
          "duration": 0.0833332500000008,
          "durationTicks": 96,
          "midi": 76,
          "name": "E5",
          "ticks": 10176,
          "time": 8.8333245,
          "velocity": 0.7874015748031497
        },
        {
          "duration": 0.0833332500000008,
          "durationTicks": 96,
          "midi": 67,
          "name": "G4",
          "ticks": 10368,
          "time": 8.999991,
          "velocity": 0.7874015748031497
        },
        {
          "duration": 0.0833332500000008,
          "durationTicks": 96,
          "midi": 76,
          "name": "E5",
          "ticks": 10368,
          "time": 8.999991,
          "velocity": 0.7874015748031497
        },
        {
          "duration": 0.0833332500000008,
          "durationTicks": 96,
          "midi": 67,
          "name": "G4",
          "ticks": 10560,
          "time": 9.1666575,
          "velocity": 0.7874015748031497
        },
        {
          "duration": 0.0833332500000008,
          "durationTicks": 96,
          "midi": 76,
          "name": "E5",
          "ticks": 10560,
          "time": 9.1666575,
          "velocity": 0.7874015748031497
        },
        {
          "duration": 0.16666649999999983,
          "durationTicks": 192,
          "midi": 65,
          "name": "F4",
          "ticks": 10752,
          "time": 9.333324,
          "velocity": 0.7874015748031497
        },
        {
          "duration": 0.16666649999999983,
          "durationTicks": 192,
          "midi": 57,
          "name": "A3",
          "ticks": 10752,
          "time": 9.333324,
          "velocity": 0.7874015748031497
        },
        {
          "duration": 0.0833332500000008,
          "durationTicks": 96,
          "midi": 77,
          "name": "F5",
          "ticks": 10944,
          "time": 9.4999905,
          "velocity": 0.7874015748031497
        },
        {
          "duration": 0.0833332500000008,
          "durationTicks": 96,
          "midi": 69,
          "name": "A4",
          "ticks": 10944,
          "time": 9.4999905,
          "velocity": 0.7874015748031497
        },
        {
          "duration": 0.0833332500000008,
          "durationTicks": 96,
          "midi": 77,
          "name": "F5",
          "ticks": 11136,
          "time": 9.666656999999999,
          "velocity": 0.7874015748031497
        },
        {
          "duration": 0.0833332500000008,
          "durationTicks": 96,
          "midi": 69,
          "name": "A4",
          "ticks": 11136,
          "time": 9.666656999999999,
          "velocity": 0.7874015748031497
        },
        {
          "duration": 0.08333324999999903,
          "durationTicks": 96,
          "midi": 77,
          "name": "F5",
          "ticks": 11328,
          "time": 9.8333235,
          "velocity": 0.7874015748031497
        },
        {
          "duration": 0.08333324999999903,
          "durationTicks": 96,
          "midi": 69,
          "name": "A4",
          "ticks": 11328,
          "time": 9.8333235,
          "velocity": 0.7874015748031497
        },
        {
          "duration": 0.16666649999999983,
          "durationTicks": 192,
          "midi": 59,
          "name": "B3",
          "ticks": 11520,
          "time": 9.99999,
          "velocity": 0.7874015748031497
        },
        {
          "duration": 0.16666649999999983,
          "durationTicks": 192,
          "midi": 62,
          "name": "D4",
          "ticks": 11520,
          "time": 9.99999,
          "velocity": 0.7874015748031497
        },
        {
          "duration": 0.08333324999999903,
          "durationTicks": 96,
          "midi": 71,
          "name": "B4",
          "ticks": 11712,
          "time": 10.1666565,
          "velocity": 0.7874015748031497
        },
        {
          "duration": 0.08333324999999903,
          "durationTicks": 96,
          "midi": 77,
          "name": "F5",
          "ticks": 11712,
          "time": 10.1666565,
          "velocity": 0.7874015748031497
        },
        {
          "duration": 0.08333324999999903,
          "durationTicks": 96,
          "midi": 71,
          "name": "B4",
          "ticks": 11904,
          "time": 10.333323,
          "velocity": 0.7874015748031497
        },
        {
          "duration": 0.08333324999999903,
          "durationTicks": 96,
          "midi": 77,
          "name": "F5",
          "ticks": 11904,
          "time": 10.333323,
          "velocity": 0.7874015748031497
        },
        {
          "duration": 0.08333324999999903,
          "durationTicks": 96,
          "midi": 71,
          "name": "B4",
          "ticks": 12096,
          "time": 10.4999895,
          "velocity": 0.7874015748031497
        },
        {
          "duration": 0.08333324999999903,
          "durationTicks": 96,
          "midi": 77,
          "name": "F5",
          "ticks": 12096,
          "time": 10.4999895,
          "velocity": 0.7874015748031497
        },
        {
          "duration": 0.16666649999999983,
          "durationTicks": 192,
          "midi": 55,
          "name": "G3",
          "ticks": 12288,
          "time": 10.666656,
          "velocity": 0.7874015748031497
        },
        {
          "duration": 0.16666649999999983,
          "durationTicks": 192,
          "midi": 64,
          "name": "E4",
          "ticks": 12288,
          "time": 10.666656,
          "velocity": 0.7874015748031497
        },
        {
          "duration": 0.0833332500000008,
          "durationTicks": 96,
          "midi": 67,
          "name": "G4",
          "ticks": 12480,
          "time": 10.8333225,
          "velocity": 0.7874015748031497
        },
        {
          "duration": 0.0833332500000008,
          "durationTicks": 96,
          "midi": 76,
          "name": "E5",
          "ticks": 12480,
          "time": 10.8333225,
          "velocity": 0.7874015748031497
        },
        {
          "duration": 0.0833332500000008,
          "durationTicks": 96,
          "midi": 67,
          "name": "G4",
          "ticks": 12672,
          "time": 10.999989,
          "velocity": 0.7874015748031497
        },
        {
          "duration": 0.0833332500000008,
          "durationTicks": 96,
          "midi": 76,
          "name": "E5",
          "ticks": 12672,
          "time": 10.999989,
          "velocity": 0.7874015748031497
        },
        {
          "duration": 0.0833332500000008,
          "durationTicks": 96,
          "midi": 67,
          "name": "G4",
          "ticks": 12864,
          "time": 11.1666555,
          "velocity": 0.7874015748031497
        },
        {
          "duration": 0.0833332500000008,
          "durationTicks": 96,
          "midi": 76,
          "name": "E5",
          "ticks": 12864,
          "time": 11.1666555,
          "velocity": 0.7874015748031497
        },
        {
          "duration": 0.0833332500000008,
          "durationTicks": 96,
          "midi": 67,
          "name": "G4",
          "ticks": 13056,
          "time": 11.333321999999999,
          "velocity": 0.7874015748031497
        },
        {
          "duration": 0.0833332500000008,
          "durationTicks": 96,
          "midi": 76,
          "name": "E5",
          "ticks": 13056,
          "time": 11.333321999999999,
          "velocity": 0.7874015748031497
        },
        {
          "duration": 0.0833332500000008,
          "durationTicks": 96,
          "midi": 67,
          "name": "G4",
          "ticks": 13248,
          "time": 11.499988499999999,
          "velocity": 0.7874015748031497
        },
        {
          "duration": 0.0833332500000008,
          "durationTicks": 96,
          "midi": 76,
          "name": "E5",
          "ticks": 13248,
          "time": 11.499988499999999,
          "velocity": 0.7874015748031497
        },
        {
          "duration": 0.08333324999999903,
          "durationTicks": 96,
          "midi": 67,
          "name": "G4",
          "ticks": 13440,
          "time": 11.666655,
          "velocity": 0.7874015748031497
        },
        {
          "duration": 0.08333324999999903,
          "durationTicks": 96,
          "midi": 76,
          "name": "E5",
          "ticks": 13440,
          "time": 11.666655,
          "velocity": 0.7874015748031497
        },
        {
          "duration": 0.08333324999999903,
          "durationTicks": 96,
          "midi": 67,
          "name": "G4",
          "ticks": 13632,
          "time": 11.8333215,
          "velocity": 0.7874015748031497
        },
        {
          "duration": 0.08333324999999903,
          "durationTicks": 96,
          "midi": 76,
          "name": "E5",
          "ticks": 13632,
          "time": 11.8333215,
          "velocity": 0.7874015748031497
        },
        {
          "duration": 0.16666649999999983,
          "durationTicks": 192,
          "midi": 55,
          "name": "G3",
          "ticks": 13824,
          "time": 11.999988,
          "velocity": 0.7874015748031497
        },
        {
          "duration": 0.16666649999999983,
          "durationTicks": 192,
          "midi": 64,
          "name": "E4",
          "ticks": 13824,
          "time": 11.999988,
          "velocity": 0.7874015748031497
        },
        {
          "duration": 0.08333324999999903,
          "durationTicks": 96,
          "midi": 67,
          "name": "G4",
          "ticks": 14016,
          "time": 12.1666545,
          "velocity": 0.7874015748031497
        },
        {
          "duration": 0.08333324999999903,
          "durationTicks": 96,
          "midi": 76,
          "name": "E5",
          "ticks": 14016,
          "time": 12.1666545,
          "velocity": 0.7874015748031497
        },
        {
          "duration": 0.08333324999999903,
          "durationTicks": 96,
          "midi": 67,
          "name": "G4",
          "ticks": 14208,
          "time": 12.333321,
          "velocity": 0.7874015748031497
        },
        {
          "duration": 0.08333324999999903,
          "durationTicks": 96,
          "midi": 76,
          "name": "E5",
          "ticks": 14208,
          "time": 12.333321,
          "velocity": 0.7874015748031497
        },
        {
          "duration": 0.0833332500000008,
          "durationTicks": 96,
          "midi": 67,
          "name": "G4",
          "ticks": 14400,
          "time": 12.4999875,
          "velocity": 0.7874015748031497
        },
        {
          "duration": 0.0833332500000008,
          "durationTicks": 96,
          "midi": 76,
          "name": "E5",
          "ticks": 14400,
          "time": 12.4999875,
          "velocity": 0.7874015748031497
        },
        {
          "duration": 0.0833332500000008,
          "durationTicks": 96,
          "midi": 67,
          "name": "G4",
          "ticks": 14592,
          "time": 12.666654,
          "velocity": 0.7874015748031497
        },
        {
          "duration": 0.0833332500000008,
          "durationTicks": 96,
          "midi": 76,
          "name": "E5",
          "ticks": 14592,
          "time": 12.666654,
          "velocity": 0.7874015748031497
        },
        {
          "duration": 0.0833332500000008,
          "durationTicks": 96,
          "midi": 67,
          "name": "G4",
          "ticks": 14784,
          "time": 12.8333205,
          "velocity": 0.7874015748031497
        },
        {
          "duration": 0.0833332500000008,
          "durationTicks": 96,
          "midi": 76,
          "name": "E5",
          "ticks": 14784,
          "time": 12.8333205,
          "velocity": 0.7874015748031497
        },
        {
          "duration": 0.0833332500000008,
          "durationTicks": 96,
          "midi": 67,
          "name": "G4",
          "ticks": 14976,
          "time": 12.999986999999999,
          "velocity": 0.7874015748031497
        },
        {
          "duration": 0.0833332500000008,
          "durationTicks": 96,
          "midi": 76,
          "name": "E5",
          "ticks": 14976,
          "time": 12.999986999999999,
          "velocity": 0.7874015748031497
        },
        {
          "duration": 0.0833332500000008,
          "durationTicks": 96,
          "midi": 67,
          "name": "G4",
          "ticks": 15168,
          "time": 13.166653499999999,
          "velocity": 0.7874015748031497
        },
        {
          "duration": 0.0833332500000008,
          "durationTicks": 96,
          "midi": 76,
          "name": "E5",
          "ticks": 15168,
          "time": 13.166653499999999,
          "velocity": 0.7874015748031497
        },
        {
          "duration": 0.16666649999999983,
          "durationTicks": 192,
          "midi": 55,
          "name": "G3",
          "ticks": 15360,
          "time": 13.33332,
          "velocity": 0.7874015748031497
        },
        {
          "duration": 0.16666649999999983,
          "durationTicks": 192,
          "midi": 64,
          "name": "E4",
          "ticks": 15360,
          "time": 13.33332,
          "velocity": 0.7874015748031497
        },
        {
          "duration": 0.08333324999999903,
          "durationTicks": 96,
          "midi": 67,
          "name": "G4",
          "ticks": 15552,
          "time": 13.4999865,
          "velocity": 0.7874015748031497
        },
        {
          "duration": 0.08333324999999903,
          "durationTicks": 96,
          "midi": 76,
          "name": "E5",
          "ticks": 15552,
          "time": 13.4999865,
          "velocity": 0.7874015748031497
        },
        {
          "duration": 0.08333324999999903,
          "durationTicks": 96,
          "midi": 67,
          "name": "G4",
          "ticks": 15744,
          "time": 13.666653,
          "velocity": 0.7874015748031497
        },
        {
          "duration": 0.08333324999999903,
          "durationTicks": 96,
          "midi": 76,
          "name": "E5",
          "ticks": 15744,
          "time": 13.666653,
          "velocity": 0.7874015748031497
        },
        {
          "duration": 0.08333324999999903,
          "durationTicks": 96,
          "midi": 67,
          "name": "G4",
          "ticks": 15936,
          "time": 13.8333195,
          "velocity": 0.7874015748031497
        },
        {
          "duration": 0.08333324999999903,
          "durationTicks": 96,
          "midi": 76,
          "name": "E5",
          "ticks": 15936,
          "time": 13.8333195,
          "velocity": 0.7874015748031497
        },
        {
          "duration": 0.08333324999999903,
          "durationTicks": 96,
          "midi": 67,
          "name": "G4",
          "ticks": 16128,
          "time": 13.999986,
          "velocity": 0.7874015748031497
        },
        {
          "duration": 0.08333324999999903,
          "durationTicks": 96,
          "midi": 76,
          "name": "E5",
          "ticks": 16128,
          "time": 13.999986,
          "velocity": 0.7874015748031497
        },
        {
          "duration": 0.0833332500000008,
          "durationTicks": 96,
          "midi": 67,
          "name": "G4",
          "ticks": 16320,
          "time": 14.1666525,
          "velocity": 0.7874015748031497
        },
        {
          "duration": 0.0833332500000008,
          "durationTicks": 96,
          "midi": 76,
          "name": "E5",
          "ticks": 16320,
          "time": 14.1666525,
          "velocity": 0.7874015748031497
        },
        {
          "duration": 0.0833332500000008,
          "durationTicks": 96,
          "midi": 67,
          "name": "G4",
          "ticks": 16512,
          "time": 14.333319,
          "velocity": 0.7874015748031497
        },
        {
          "duration": 0.0833332500000008,
          "durationTicks": 96,
          "midi": 76,
          "name": "E5",
          "ticks": 16512,
          "time": 14.333319,
          "velocity": 0.7874015748031497
        },
        {
          "duration": 0.0833332500000008,
          "durationTicks": 96,
          "midi": 67,
          "name": "G4",
          "ticks": 16704,
          "time": 14.4999855,
          "velocity": 0.7874015748031497
        },
        {
          "duration": 0.0833332500000008,
          "durationTicks": 96,
          "midi": 76,
          "name": "E5",
          "ticks": 16704,
          "time": 14.4999855,
          "velocity": 0.7874015748031497
        },
        {
          "duration": 0.16666649999999983,
          "durationTicks": 192,
          "midi": 65,
          "name": "F4",
          "ticks": 16896,
          "time": 14.666652,
          "velocity": 0.7874015748031497
        },
        {
          "duration": 0.16666649999999983,
          "durationTicks": 192,
          "midi": 57,
          "name": "A3",
          "ticks": 16896,
          "time": 14.666652,
          "velocity": 0.7874015748031497
        },
        {
          "duration": 0.0833332500000008,
          "durationTicks": 96,
          "midi": 77,
          "name": "F5",
          "ticks": 17088,
          "time": 14.833318499999999,
          "velocity": 0.7874015748031497
        },
        {
          "duration": 0.0833332500000008,
          "durationTicks": 96,
          "midi": 69,
          "name": "A4",
          "ticks": 17088,
          "time": 14.833318499999999,
          "velocity": 0.7874015748031497
        },
        {
          "duration": 0.0833332500000008,
          "durationTicks": 96,
          "midi": 77,
          "name": "F5",
          "ticks": 17280,
          "time": 14.999984999999999,
          "velocity": 0.7874015748031497
        },
        {
          "duration": 0.0833332500000008,
          "durationTicks": 96,
          "midi": 69,
          "name": "A4",
          "ticks": 17280,
          "time": 14.999984999999999,
          "velocity": 0.7874015748031497
        },
        {
          "duration": 0.08333324999999903,
          "durationTicks": 96,
          "midi": 77,
          "name": "F5",
          "ticks": 17472,
          "time": 15.1666515,
          "velocity": 0.7874015748031497
        },
        {
          "duration": 0.08333324999999903,
          "durationTicks": 96,
          "midi": 69,
          "name": "A4",
          "ticks": 17472,
          "time": 15.1666515,
          "velocity": 0.7874015748031497
        },
        {
          "duration": 0.16666649999999983,
          "durationTicks": 192,
          "midi": 62,
          "name": "D4",
          "ticks": 17664,
          "time": 15.333318,
          "velocity": 0.7874015748031497
        },
        {
          "duration": 0.16666649999999983,
          "durationTicks": 192,
          "midi": 56,
          "name": "G#3",
          "ticks": 17664,
          "time": 15.333318,
          "velocity": 0.7874015748031497
        },
        {
          "duration": 0.08333324999999903,
          "durationTicks": 96,
          "midi": 68,
          "name": "G#4",
          "ticks": 17856,
          "time": 15.4999845,
          "velocity": 0.7874015748031497
        },
        {
          "duration": 0.08333324999999903,
          "durationTicks": 96,
          "midi": 76,
          "name": "E5",
          "ticks": 17856,
          "time": 15.4999845,
          "velocity": 0.7874015748031497
        },
        {
          "duration": 0.08333324999999903,
          "durationTicks": 96,
          "midi": 68,
          "name": "G#4",
          "ticks": 18048,
          "time": 15.666651,
          "velocity": 0.7874015748031497
        },
        {
          "duration": 0.08333324999999903,
          "durationTicks": 96,
          "midi": 76,
          "name": "E5",
          "ticks": 18048,
          "time": 15.666651,
          "velocity": 0.7874015748031497
        },
        {
          "duration": 0.08333324999999903,
          "durationTicks": 96,
          "midi": 68,
          "name": "G#4",
          "ticks": 18240,
          "time": 15.8333175,
          "velocity": 0.7874015748031497
        },
        {
          "duration": 0.08333324999999903,
          "durationTicks": 96,
          "midi": 76,
          "name": "E5",
          "ticks": 18240,
          "time": 15.8333175,
          "velocity": 0.7874015748031497
        },
        {
          "duration": 0.0833332500000008,
          "durationTicks": 96,
          "midi": 64,
          "name": "E4",
          "ticks": 18432,
          "time": 15.999984,
          "velocity": 0.7874015748031497
        },
        {
          "duration": 0.0833332500000008,
          "durationTicks": 96,
          "midi": 69,
          "name": "A4",
          "ticks": 18432,
          "time": 15.999984,
          "velocity": 0.7874015748031497
        },
        {
          "duration": 0.08333324999999903,
          "durationTicks": 96,
          "midi": 69,
          "name": "A4",
          "ticks": 18528,
          "time": 16.08331725,
          "velocity": 0.7874015748031497
        },
        {
          "duration": 0.08333324999999903,
          "durationTicks": 96,
          "midi": 72,
          "name": "C5",
          "ticks": 18528,
          "time": 16.08331725,
          "velocity": 0.7874015748031497
        },
        {
          "duration": 0.08333324999999903,
          "durationTicks": 96,
          "midi": 72,
          "name": "C5",
          "ticks": 18624,
          "time": 16.1666505,
          "velocity": 0.7874015748031497
        },
        {
          "duration": 0.08333324999999903,
          "durationTicks": 96,
          "midi": 76,
          "name": "E5",
          "ticks": 18624,
          "time": 16.1666505,
          "velocity": 0.7874015748031497
        },
        {
          "duration": 0.08333325000000258,
          "durationTicks": 96,
          "midi": 69,
          "name": "A4",
          "ticks": 18720,
          "time": 16.24998375,
          "velocity": 0.7874015748031497
        },
        {
          "duration": 0.08333325000000258,
          "durationTicks": 96,
          "midi": 72,
          "name": "C5",
          "ticks": 18720,
          "time": 16.24998375,
          "velocity": 0.7874015748031497
        },
        {
          "duration": 0.08333324999999903,
          "durationTicks": 96,
          "midi": 72,
          "name": "C5",
          "ticks": 18816,
          "time": 16.333317,
          "velocity": 0.7874015748031497
        },
        {
          "duration": 0.08333324999999903,
          "durationTicks": 96,
          "midi": 76,
          "name": "E5",
          "ticks": 18816,
          "time": 16.333317,
          "velocity": 0.7874015748031497
        },
        {
          "duration": 0.08333324999999903,
          "durationTicks": 96,
          "midi": 69,
          "name": "A4",
          "ticks": 18912,
          "time": 16.41665025,
          "velocity": 0.7874015748031497
        },
        {
          "duration": 0.08333324999999903,
          "durationTicks": 96,
          "midi": 72,
          "name": "C5",
          "ticks": 18912,
          "time": 16.41665025,
          "velocity": 0.7874015748031497
        },
        {
          "duration": 0.08333324999999903,
          "durationTicks": 96,
          "midi": 72,
          "name": "C5",
          "ticks": 19008,
          "time": 16.4999835,
          "velocity": 0.7874015748031497
        },
        {
          "duration": 0.08333324999999903,
          "durationTicks": 96,
          "midi": 76,
          "name": "E5",
          "ticks": 19008,
          "time": 16.4999835,
          "velocity": 0.7874015748031497
        },
        {
          "duration": 0.08333325000000258,
          "durationTicks": 96,
          "midi": 69,
          "name": "A4",
          "ticks": 19104,
          "time": 16.583316749999998,
          "velocity": 0.7874015748031497
        },
        {
          "duration": 0.08333325000000258,
          "durationTicks": 96,
          "midi": 72,
          "name": "C5",
          "ticks": 19104,
          "time": 16.583316749999998,
          "velocity": 0.7874015748031497
        },
        {
          "duration": 0.08333324999999903,
          "durationTicks": 96,
          "midi": 62,
          "name": "D4",
          "ticks": 19200,
          "time": 16.66665,
          "velocity": 0.7874015748031497
        },
        {
          "duration": 0.08333324999999903,
          "durationTicks": 96,
          "midi": 67,
          "name": "G4",
          "ticks": 19200,
          "time": 16.66665,
          "velocity": 0.7874015748031497
        },
        {
          "duration": 0.08333324999999903,
          "durationTicks": 96,
          "midi": 67,
          "name": "G4",
          "ticks": 19296,
          "time": 16.74998325,
          "velocity": 0.7874015748031497
        },
        {
          "duration": 0.08333324999999903,
          "durationTicks": 96,
          "midi": 72,
          "name": "C5",
          "ticks": 19296,
          "time": 16.74998325,
          "velocity": 0.7874015748031497
        },
        {
          "duration": 0.08333325000000258,
          "durationTicks": 96,
          "midi": 72,
          "name": "C5",
          "ticks": 19392,
          "time": 16.8333165,
          "velocity": 0.7874015748031497
        },
        {
          "duration": 0.08333325000000258,
          "durationTicks": 96,
          "midi": 76,
          "name": "E5",
          "ticks": 19392,
          "time": 16.8333165,
          "velocity": 0.7874015748031497
        },
        {
          "duration": 0.08333324999999903,
          "durationTicks": 96,
          "midi": 67,
          "name": "G4",
          "ticks": 19488,
          "time": 16.91664975,
          "velocity": 0.7874015748031497
        },
        {
          "duration": 0.08333324999999903,
          "durationTicks": 96,
          "midi": 72,
          "name": "C5",
          "ticks": 19488,
          "time": 16.91664975,
          "velocity": 0.7874015748031497
        },
        {
          "duration": 0.08333324999999903,
          "durationTicks": 96,
          "midi": 72,
          "name": "C5",
          "ticks": 19584,
          "time": 16.999983,
          "velocity": 0.7874015748031497
        },
        {
          "duration": 0.08333324999999903,
          "durationTicks": 96,
          "midi": 76,
          "name": "E5",
          "ticks": 19584,
          "time": 16.999983,
          "velocity": 0.7874015748031497
        },
        {
          "duration": 0.08333324999999903,
          "durationTicks": 96,
          "midi": 67,
          "name": "G4",
          "ticks": 19680,
          "time": 17.08331625,
          "velocity": 0.7874015748031497
        },
        {
          "duration": 0.08333324999999903,
          "durationTicks": 96,
          "midi": 72,
          "name": "C5",
          "ticks": 19680,
          "time": 17.08331625,
          "velocity": 0.7874015748031497
        },
        {
          "duration": 0.08333325000000258,
          "durationTicks": 96,
          "midi": 72,
          "name": "C5",
          "ticks": 19776,
          "time": 17.1666495,
          "velocity": 0.7874015748031497
        },
        {
          "duration": 0.08333325000000258,
          "durationTicks": 96,
          "midi": 76,
          "name": "E5",
          "ticks": 19776,
          "time": 17.1666495,
          "velocity": 0.7874015748031497
        },
        {
          "duration": 0.08333324999999903,
          "durationTicks": 96,
          "midi": 67,
          "name": "G4",
          "ticks": 19872,
          "time": 17.24998275,
          "velocity": 0.7874015748031497
        },
        {
          "duration": 0.08333324999999903,
          "durationTicks": 96,
          "midi": 72,
          "name": "C5",
          "ticks": 19872,
          "time": 17.24998275,
          "velocity": 0.7874015748031497
        },
        {
          "duration": 0.2222219999999986,
          "durationTicks": 256,
          "midi": 69,
          "name": "A4",
          "ticks": 19968,
          "time": 17.333316,
          "velocity": 0.7874015748031497
        },
        {
          "duration": 0.2222219999999986,
          "durationTicks": 256,
          "midi": 77,
          "name": "F5",
          "ticks": 19968,
          "time": 17.333316,
          "velocity": 0.7874015748031497
        },
        {
          "duration": 0.08333324999999903,
          "durationTicks": 96,
          "midi": 69,
          "name": "A4",
          "ticks": 20256,
          "time": 17.58331575,
          "velocity": 0.7874015748031497
        },
        {
          "duration": 0.08333324999999903,
          "durationTicks": 96,
          "midi": 77,
          "name": "F5",
          "ticks": 20256,
          "time": 17.58331575,
          "velocity": 0.7874015748031497
        },
        {
          "duration": 0.08333324999999903,
          "durationTicks": 96,
          "midi": 71,
          "name": "B4",
          "ticks": 20736,
          "time": 17.999982,
          "velocity": 0.7874015748031497
        },
        {
          "duration": 0.08333324999999903,
          "durationTicks": 96,
          "midi": 79,
          "name": "G5",
          "ticks": 20736,
          "time": 17.999982,
          "velocity": 0.7874015748031497
        },
        {
          "duration": 0.08333324999999903,
          "durationTicks": 96,
          "midi": 71,
          "name": "B4",
          "ticks": 20928,
          "time": 18.1666485,
          "velocity": 0.7874015748031497
        },
        {
          "duration": 0.08333324999999903,
          "durationTicks": 96,
          "midi": 79,
          "name": "G5",
          "ticks": 20928,
          "time": 18.1666485,
          "velocity": 0.7874015748031497
        },
        {
          "duration": 0.1666665000000016,
          "durationTicks": 192,
          "midi": 55,
          "name": "G3",
          "ticks": 21504,
          "time": 18.666648,
          "velocity": 0.7874015748031497
        },
        {
          "duration": 0.1666665000000016,
          "durationTicks": 192,
          "midi": 64,
          "name": "E4",
          "ticks": 21504,
          "time": 18.666648,
          "velocity": 0.7874015748031497
        },
        {
          "duration": 0.08333324999999903,
          "durationTicks": 96,
          "midi": 67,
          "name": "G4",
          "ticks": 21696,
          "time": 18.8333145,
          "velocity": 0.7874015748031497
        },
        {
          "duration": 0.08333324999999903,
          "durationTicks": 96,
          "midi": 76,
          "name": "E5",
          "ticks": 21696,
          "time": 18.8333145,
          "velocity": 0.7874015748031497
        },
        {
          "duration": 0.08333325000000258,
          "durationTicks": 96,
          "midi": 67,
          "name": "G4",
          "ticks": 21888,
          "time": 18.999981,
          "velocity": 0.7874015748031497
        },
        {
          "duration": 0.08333325000000258,
          "durationTicks": 96,
          "midi": 76,
          "name": "E5",
          "ticks": 21888,
          "time": 18.999981,
          "velocity": 0.7874015748031497
        },
        {
          "duration": 0.08333324999999903,
          "durationTicks": 96,
          "midi": 67,
          "name": "G4",
          "ticks": 22080,
          "time": 19.1666475,
          "velocity": 0.7874015748031497
        },
        {
          "duration": 0.08333324999999903,
          "durationTicks": 96,
          "midi": 76,
          "name": "E5",
          "ticks": 22080,
          "time": 19.1666475,
          "velocity": 0.7874015748031497
        },
        {
          "duration": 0.08333325000000258,
          "durationTicks": 96,
          "midi": 67,
          "name": "G4",
          "ticks": 22272,
          "time": 19.333313999999998,
          "velocity": 0.7874015748031497
        },
        {
          "duration": 0.08333325000000258,
          "durationTicks": 96,
          "midi": 76,
          "name": "E5",
          "ticks": 22272,
          "time": 19.333313999999998,
          "velocity": 0.7874015748031497
        },
        {
          "duration": 0.08333324999999903,
          "durationTicks": 96,
          "midi": 67,
          "name": "G4",
          "ticks": 22464,
          "time": 19.4999805,
          "velocity": 0.7874015748031497
        },
        {
          "duration": 0.08333324999999903,
          "durationTicks": 96,
          "midi": 76,
          "name": "E5",
          "ticks": 22464,
          "time": 19.4999805,
          "velocity": 0.7874015748031497
        },
        {
          "duration": 0.08333324999999903,
          "durationTicks": 96,
          "midi": 67,
          "name": "G4",
          "ticks": 22656,
          "time": 19.666647,
          "velocity": 0.7874015748031497
        },
        {
          "duration": 0.08333324999999903,
          "durationTicks": 96,
          "midi": 76,
          "name": "E5",
          "ticks": 22656,
          "time": 19.666647,
          "velocity": 0.7874015748031497
        },
        {
          "duration": 0.08333324999999903,
          "durationTicks": 96,
          "midi": 67,
          "name": "G4",
          "ticks": 22848,
          "time": 19.8333135,
          "velocity": 0.7874015748031497
        },
        {
          "duration": 0.08333324999999903,
          "durationTicks": 96,
          "midi": 76,
          "name": "E5",
          "ticks": 22848,
          "time": 19.8333135,
          "velocity": 0.7874015748031497
        },
        {
          "duration": 0.16666649999999805,
          "durationTicks": 192,
          "midi": 55,
          "name": "G3",
          "ticks": 23040,
          "time": 19.99998,
          "velocity": 0.7874015748031497
        },
        {
          "duration": 0.16666649999999805,
          "durationTicks": 192,
          "midi": 64,
          "name": "E4",
          "ticks": 23040,
          "time": 19.99998,
          "velocity": 0.7874015748031497
        },
        {
          "duration": 0.08333324999999903,
          "durationTicks": 96,
          "midi": 67,
          "name": "G4",
          "ticks": 23232,
          "time": 20.1666465,
          "velocity": 0.7874015748031497
        },
        {
          "duration": 0.08333324999999903,
          "durationTicks": 96,
          "midi": 76,
          "name": "E5",
          "ticks": 23232,
          "time": 20.1666465,
          "velocity": 0.7874015748031497
        },
        {
          "duration": 0.08333324999999903,
          "durationTicks": 96,
          "midi": 67,
          "name": "G4",
          "ticks": 23424,
          "time": 20.333313,
          "velocity": 0.7874015748031497
        },
        {
          "duration": 0.08333324999999903,
          "durationTicks": 96,
          "midi": 76,
          "name": "E5",
          "ticks": 23424,
          "time": 20.333313,
          "velocity": 0.7874015748031497
        },
        {
          "duration": 0.08333325000000258,
          "durationTicks": 96,
          "midi": 67,
          "name": "G4",
          "ticks": 23616,
          "time": 20.4999795,
          "velocity": 0.7874015748031497
        },
        {
          "duration": 0.08333325000000258,
          "durationTicks": 96,
          "midi": 76,
          "name": "E5",
          "ticks": 23616,
          "time": 20.4999795,
          "velocity": 0.7874015748031497
        },
        {
          "duration": 0.08333324999999903,
          "durationTicks": 96,
          "midi": 67,
          "name": "G4",
          "ticks": 23808,
          "time": 20.666646,
          "velocity": 0.7874015748031497
        },
        {
          "duration": 0.08333324999999903,
          "durationTicks": 96,
          "midi": 76,
          "name": "E5",
          "ticks": 23808,
          "time": 20.666646,
          "velocity": 0.7874015748031497
        },
        {
          "duration": 0.08333325000000258,
          "durationTicks": 96,
          "midi": 67,
          "name": "G4",
          "ticks": 24000,
          "time": 20.833312499999998,
          "velocity": 0.7874015748031497
        },
        {
          "duration": 0.08333325000000258,
          "durationTicks": 96,
          "midi": 76,
          "name": "E5",
          "ticks": 24000,
          "time": 20.833312499999998,
          "velocity": 0.7874015748031497
        },
        {
          "duration": 0.08333324999999903,
          "durationTicks": 96,
          "midi": 67,
          "name": "G4",
          "ticks": 24192,
          "time": 20.999979,
          "velocity": 0.7874015748031497
        },
        {
          "duration": 0.08333324999999903,
          "durationTicks": 96,
          "midi": 76,
          "name": "E5",
          "ticks": 24192,
          "time": 20.999979,
          "velocity": 0.7874015748031497
        },
        {
          "duration": 0.08333325000000258,
          "durationTicks": 96,
          "midi": 67,
          "name": "G4",
          "ticks": 24384,
          "time": 21.166645499999998,
          "velocity": 0.7874015748031497
        },
        {
          "duration": 0.08333325000000258,
          "durationTicks": 96,
          "midi": 76,
          "name": "E5",
          "ticks": 24384,
          "time": 21.166645499999998,
          "velocity": 0.7874015748031497
        },
        {
          "duration": 0.08333324999999903,
          "durationTicks": 96,
          "midi": 53,
          "name": "F3",
          "ticks": 24576,
          "time": 21.333312,
          "velocity": 0.7874015748031497
        },
        {
          "duration": 0.08333325000000258,
          "durationTicks": 96,
          "midi": 60,
          "name": "C4",
          "ticks": 24672,
          "time": 21.41664525,
          "velocity": 0.7874015748031497
        },
        {
          "duration": 0.08333324999999903,
          "durationTicks": 96,
          "midi": 68,
          "name": "G#4",
          "ticks": 24768,
          "time": 21.4999785,
          "velocity": 0.7874015748031497
        },
        {
          "duration": 0.08333324999999903,
          "durationTicks": 96,
          "midi": 60,
          "name": "C4",
          "ticks": 24864,
          "time": 21.58331175,
          "velocity": 0.7874015748031497
        },
        {
          "duration": 0.08333324999999903,
          "durationTicks": 96,
          "midi": 68,
          "name": "G#4",
          "ticks": 24960,
          "time": 21.666645,
          "velocity": 0.7874015748031497
        },
        {
          "duration": 0.08333325000000258,
          "durationTicks": 96,
          "midi": 60,
          "name": "C4",
          "ticks": 25056,
          "time": 21.749978249999998,
          "velocity": 0.7874015748031497
        },
        {
          "duration": 0.08333324999999903,
          "durationTicks": 96,
          "midi": 68,
          "name": "G#4",
          "ticks": 25152,
          "time": 21.8333115,
          "velocity": 0.7874015748031497
        },
        {
          "duration": 0.08333324999999903,
          "durationTicks": 96,
          "midi": 60,
          "name": "C4",
          "ticks": 25248,
          "time": 21.91664475,
          "velocity": 0.7874015748031497
        },
        {
          "duration": 0.08333324999999903,
          "durationTicks": 96,
          "midi": 58,
          "name": "A#3",
          "ticks": 25344,
          "time": 21.999978,
          "velocity": 0.7874015748031497
        },
        {
          "duration": 0.08333325000000258,
          "durationTicks": 96,
          "midi": 65,
          "name": "F4",
          "ticks": 25440,
          "time": 22.083311249999998,
          "velocity": 0.7874015748031497
        },
        {
          "duration": 0.08333324999999903,
          "durationTicks": 96,
          "midi": 70,
          "name": "A#4",
          "ticks": 25536,
          "time": 22.1666445,
          "velocity": 0.7874015748031497
        },
        {
          "duration": 0.08333324999999903,
          "durationTicks": 96,
          "midi": 65,
          "name": "F4",
          "ticks": 25632,
          "time": 22.24997775,
          "velocity": 0.7874015748031497
        },
        {
          "duration": 0.08333325000000258,
          "durationTicks": 96,
          "midi": 70,
          "name": "A#4",
          "ticks": 25728,
          "time": 22.333311,
          "velocity": 0.7874015748031497
        },
        {
          "duration": 0.08333324999999903,
          "durationTicks": 96,
          "midi": 65,
          "name": "F4",
          "ticks": 25824,
          "time": 22.41664425,
          "velocity": 0.7874015748031497
        },
        {
          "duration": 0.08333324999999903,
          "durationTicks": 96,
          "midi": 70,
          "name": "A#4",
          "ticks": 25920,
          "time": 22.4999775,
          "velocity": 0.7874015748031497
        },
        {
          "duration": 0.08333324999999903,
          "durationTicks": 96,
          "midi": 65,
          "name": "F4",
          "ticks": 26016,
          "time": 22.58331075,
          "velocity": 0.7874015748031497
        },
        {
          "duration": 0.08333325000000258,
          "durationTicks": 96,
          "midi": 51,
          "name": "D#3",
          "ticks": 26112,
          "time": 22.666643999999998,
          "velocity": 0.7874015748031497
        },
        {
          "duration": 0.08333324999999903,
          "durationTicks": 96,
          "midi": 60,
          "name": "C4",
          "ticks": 26208,
          "time": 22.74997725,
          "velocity": 0.7874015748031497
        },
        {
          "duration": 0.08333324999999903,
          "durationTicks": 96,
          "midi": 63,
          "name": "D#4",
          "ticks": 26304,
          "time": 22.8333105,
          "velocity": 0.7874015748031497
        },
        {
          "duration": 0.08333324999999903,
          "durationTicks": 96,
          "midi": 60,
          "name": "C4",
          "ticks": 26400,
          "time": 22.91664375,
          "velocity": 0.7874015748031497
        },
        {
          "duration": 0.08333325000000258,
          "durationTicks": 96,
          "midi": 67,
          "name": "G4",
          "ticks": 26496,
          "time": 22.999976999999998,
          "velocity": 0.7874015748031497
        },
        {
          "duration": 0.08333324999999903,
          "durationTicks": 96,
          "midi": 60,
          "name": "C4",
          "ticks": 26592,
          "time": 23.08331025,
          "velocity": 0.7874015748031497
        },
        {
          "duration": 0.08333324999999903,
          "durationTicks": 96,
          "midi": 63,
          "name": "D#4",
          "ticks": 26688,
          "time": 23.1666435,
          "velocity": 0.7874015748031497
        },
        {
          "duration": 0.08333325000000258,
          "durationTicks": 96,
          "midi": 56,
          "name": "G#3",
          "ticks": 26784,
          "time": 23.24997675,
          "velocity": 0.7874015748031497
        },
        {
          "duration": 0.08333324999999903,
          "durationTicks": 96,
          "midi": 63,
          "name": "D#4",
          "ticks": 26880,
          "time": 23.33331,
          "velocity": 0.7874015748031497
        },
        {
          "duration": 0.08333324999999903,
          "durationTicks": 96,
          "midi": 68,
          "name": "G#4",
          "ticks": 26976,
          "time": 23.41664325,
          "velocity": 0.7874015748031497
        },
        {
          "duration": 0.08333324999999903,
          "durationTicks": 96,
          "midi": 63,
          "name": "D#4",
          "ticks": 27072,
          "time": 23.4999765,
          "velocity": 0.7874015748031497
        },
        {
          "duration": 0.08333325000000258,
          "durationTicks": 96,
          "midi": 56,
          "name": "G#3",
          "ticks": 27168,
          "time": 23.583309749999998,
          "velocity": 0.7874015748031497
        },
        {
          "duration": 0.08333324999999903,
          "durationTicks": 96,
          "midi": 63,
          "name": "D#4",
          "ticks": 27264,
          "time": 23.666643,
          "velocity": 0.7874015748031497
        },
        {
          "duration": 0.08333324999999903,
          "durationTicks": 96,
          "midi": 68,
          "name": "G#4",
          "ticks": 27360,
          "time": 23.74997625,
          "velocity": 0.7874015748031497
        },
        {
          "duration": 0.08333324999999903,
          "durationTicks": 96,
          "midi": 63,
          "name": "D#4",
          "ticks": 27456,
          "time": 23.8333095,
          "velocity": 0.7874015748031497
        },
        {
          "duration": 0.08333325000000258,
          "durationTicks": 96,
          "midi": 56,
          "name": "G#3",
          "ticks": 27552,
          "time": 23.916642749999998,
          "velocity": 0.7874015748031497
        },
        {
          "duration": 0.08333324999999903,
          "durationTicks": 96,
          "midi": 53,
          "name": "F3",
          "ticks": 27648,
          "time": 23.999976,
          "velocity": 0.7874015748031497
        },
        {
          "duration": 0.08333324999999903,
          "durationTicks": 96,
          "midi": 60,
          "name": "C4",
          "ticks": 27744,
          "time": 24.08330925,
          "velocity": 0.7874015748031497
        },
        {
          "duration": 0.08333325000000258,
          "durationTicks": 96,
          "midi": 68,
          "name": "G#4",
          "ticks": 27840,
          "time": 24.1666425,
          "velocity": 0.7874015748031497
        },
        {
          "duration": 0.08333324999999903,
          "durationTicks": 96,
          "midi": 60,
          "name": "C4",
          "ticks": 27936,
          "time": 24.24997575,
          "velocity": 0.7874015748031497
        },
        {
          "duration": 0.08333324999999903,
          "durationTicks": 96,
          "midi": 68,
          "name": "G#4",
          "ticks": 28032,
          "time": 24.333309,
          "velocity": 0.7874015748031497
        },
        {
          "duration": 0.08333324999999903,
          "durationTicks": 96,
          "midi": 60,
          "name": "C4",
          "ticks": 28128,
          "time": 24.41664225,
          "velocity": 0.7874015748031497
        },
        {
          "duration": 0.08333325000000258,
          "durationTicks": 96,
          "midi": 68,
          "name": "G#4",
          "ticks": 28224,
          "time": 24.499975499999998,
          "velocity": 0.7874015748031497
        },
        {
          "duration": 0.08333324999999903,
          "durationTicks": 96,
          "midi": 60,
          "name": "C4",
          "ticks": 28320,
          "time": 24.58330875,
          "velocity": 0.7874015748031497
        },
        {
          "duration": 0.08333324999999903,
          "durationTicks": 96,
          "midi": 58,
          "name": "A#3",
          "ticks": 28416,
          "time": 24.666642,
          "velocity": 0.7874015748031497
        },
        {
          "duration": 0.08333324999999903,
          "durationTicks": 96,
          "midi": 65,
          "name": "F4",
          "ticks": 28512,
          "time": 24.74997525,
          "velocity": 0.7874015748031497
        },
        {
          "duration": 0.08333325000000258,
          "durationTicks": 96,
          "midi": 70,
          "name": "A#4",
          "ticks": 28608,
          "time": 24.833308499999998,
          "velocity": 0.7874015748031497
        },
        {
          "duration": 0.08333324999999903,
          "durationTicks": 96,
          "midi": 65,
          "name": "F4",
          "ticks": 28704,
          "time": 24.91664175,
          "velocity": 0.7874015748031497
        },
        {
          "duration": 0.08333324999999903,
          "durationTicks": 96,
          "midi": 70,
          "name": "A#4",
          "ticks": 28800,
          "time": 24.999975,
          "velocity": 0.7874015748031497
        },
        {
          "duration": 0.08333325000000258,
          "durationTicks": 96,
          "midi": 65,
          "name": "F4",
          "ticks": 28896,
          "time": 25.083308249999998,
          "velocity": 0.7874015748031497
        },
        {
          "duration": 0.08333324999999903,
          "durationTicks": 96,
          "midi": 70,
          "name": "A#4",
          "ticks": 28992,
          "time": 25.1666415,
          "velocity": 0.7874015748031497
        },
        {
          "duration": 0.08333324999999903,
          "durationTicks": 96,
          "midi": 65,
          "name": "F4",
          "ticks": 29088,
          "time": 25.24997475,
          "velocity": 0.7874015748031497
        },
        {
          "duration": 0.08333324999999903,
          "durationTicks": 96,
          "midi": 51,
          "name": "D#3",
          "ticks": 29184,
          "time": 25.333308,
          "velocity": 0.7874015748031497
        },
        {
          "duration": 0.08333325000000258,
          "durationTicks": 96,
          "midi": 58,
          "name": "A#3",
          "ticks": 29280,
          "time": 25.416641249999998,
          "velocity": 0.7874015748031497
        },
        {
          "duration": 0.08333324999999903,
          "durationTicks": 96,
          "midi": 63,
          "name": "D#4",
          "ticks": 29376,
          "time": 25.4999745,
          "velocity": 0.7874015748031497
        },
        {
          "duration": 0.08333324999999903,
          "durationTicks": 96,
          "midi": 58,
          "name": "A#3",
          "ticks": 29472,
          "time": 25.58330775,
          "velocity": 0.7874015748031497
        },
        {
          "duration": 0.08333324999999903,
          "durationTicks": 96,
          "midi": 67,
          "name": "G4",
          "ticks": 29568,
          "time": 25.666641,
          "velocity": 0.7874015748031497
        },
        {
          "duration": 0.08333325000000258,
          "durationTicks": 96,
          "midi": 58,
          "name": "A#3",
          "ticks": 29664,
          "time": 25.749974249999998,
          "velocity": 0.7874015748031497
        },
        {
          "duration": 0.08333324999999903,
          "durationTicks": 96,
          "midi": 63,
          "name": "D#4",
          "ticks": 29760,
          "time": 25.8333075,
          "velocity": 0.7874015748031497
        },
        {
          "duration": 0.08333324999999903,
          "durationTicks": 96,
          "midi": 58,
          "name": "A#3",
          "ticks": 29856,
          "time": 25.91664075,
          "velocity": 0.7874015748031497
        },
        {
          "duration": 0.08333325000000258,
          "durationTicks": 96,
          "midi": 56,
          "name": "G#3",
          "ticks": 29952,
          "time": 25.999973999999998,
          "velocity": 0.7874015748031497
        },
        {
          "duration": 0.08333324999999903,
          "durationTicks": 96,
          "midi": 63,
          "name": "D#4",
          "ticks": 30048,
          "time": 26.08330725,
          "velocity": 0.7874015748031497
        },
        {
          "duration": 0.08333324999999903,
          "durationTicks": 96,
          "midi": 72,
          "name": "C5",
          "ticks": 30144,
          "time": 26.1666405,
          "velocity": 0.7874015748031497
        },
        {
          "duration": 0.08333324999999903,
          "durationTicks": 96,
          "midi": 63,
          "name": "D#4",
          "ticks": 30240,
          "time": 26.24997375,
          "velocity": 0.7874015748031497
        },
        {
          "duration": 0.08333325000000258,
          "durationTicks": 96,
          "midi": 56,
          "name": "G#3",
          "ticks": 30336,
          "time": 26.333306999999998,
          "velocity": 0.7874015748031497
        },
        {
          "duration": 0.08333324999999903,
          "durationTicks": 96,
          "midi": 63,
          "name": "D#4",
          "ticks": 30432,
          "time": 26.41664025,
          "velocity": 0.7874015748031497
        },
        {
          "duration": 0.08333324999999903,
          "durationTicks": 96,
          "midi": 72,
          "name": "C5",
          "ticks": 30528,
          "time": 26.4999735,
          "velocity": 0.7874015748031497
        },
        {
          "duration": 0.08333325000000258,
          "durationTicks": 96,
          "midi": 63,
          "name": "D#4",
          "ticks": 30624,
          "time": 26.58330675,
          "velocity": 0.7874015748031497
        },
        {
          "duration": 0.1666665000000016,
          "durationTicks": 192,
          "midi": 55,
          "name": "G3",
          "ticks": 36864,
          "time": 31.999968,
          "velocity": 0.7874015748031497
        },
        {
          "duration": 0.1666665000000016,
          "durationTicks": 192,
          "midi": 64,
          "name": "E4",
          "ticks": 36864,
          "time": 31.999968,
          "velocity": 0.7874015748031497
        },
        {
          "duration": 0.08333324999999547,
          "durationTicks": 96,
          "midi": 67,
          "name": "G4",
          "ticks": 37056,
          "time": 32.1666345,
          "velocity": 0.7874015748031497
        },
        {
          "duration": 0.08333324999999547,
          "durationTicks": 96,
          "midi": 76,
          "name": "E5",
          "ticks": 37056,
          "time": 32.1666345,
          "velocity": 0.7874015748031497
        },
        {
          "duration": 0.08333325000000258,
          "durationTicks": 96,
          "midi": 67,
          "name": "G4",
          "ticks": 37248,
          "time": 32.333301,
          "velocity": 0.7874015748031497
        },
        {
          "duration": 0.08333325000000258,
          "durationTicks": 96,
          "midi": 76,
          "name": "E5",
          "ticks": 37248,
          "time": 32.333301,
          "velocity": 0.7874015748031497
        },
        {
          "duration": 0.08333325000000258,
          "durationTicks": 96,
          "midi": 67,
          "name": "G4",
          "ticks": 37440,
          "time": 32.4999675,
          "velocity": 0.7874015748031497
        },
        {
          "duration": 0.08333325000000258,
          "durationTicks": 96,
          "midi": 76,
          "name": "E5",
          "ticks": 37440,
          "time": 32.4999675,
          "velocity": 0.7874015748031497
        },
        {
          "duration": 0.08333324999999547,
          "durationTicks": 96,
          "midi": 67,
          "name": "G4",
          "ticks": 37632,
          "time": 32.666634,
          "velocity": 0.7874015748031497
        },
        {
          "duration": 0.08333324999999547,
          "durationTicks": 96,
          "midi": 76,
          "name": "E5",
          "ticks": 37632,
          "time": 32.666634,
          "velocity": 0.7874015748031497
        },
        {
          "duration": 0.08333325000000258,
          "durationTicks": 96,
          "midi": 67,
          "name": "G4",
          "ticks": 37824,
          "time": 32.8333005,
          "velocity": 0.7874015748031497
        },
        {
          "duration": 0.08333325000000258,
          "durationTicks": 96,
          "midi": 76,
          "name": "E5",
          "ticks": 37824,
          "time": 32.8333005,
          "velocity": 0.7874015748031497
        },
        {
          "duration": 0.08333325000000258,
          "durationTicks": 96,
          "midi": 67,
          "name": "G4",
          "ticks": 38016,
          "time": 32.999967,
          "velocity": 0.7874015748031497
        },
        {
          "duration": 0.08333325000000258,
          "durationTicks": 96,
          "midi": 76,
          "name": "E5",
          "ticks": 38016,
          "time": 32.999967,
          "velocity": 0.7874015748031497
        },
        {
          "duration": 0.08333325000000258,
          "durationTicks": 96,
          "midi": 67,
          "name": "G4",
          "ticks": 38208,
          "time": 33.166633499999996,
          "velocity": 0.7874015748031497
        },
        {
          "duration": 0.08333325000000258,
          "durationTicks": 96,
          "midi": 76,
          "name": "E5",
          "ticks": 38208,
          "time": 33.166633499999996,
          "velocity": 0.7874015748031497
        },
        {
          "duration": 0.16666649999999805,
          "durationTicks": 192,
          "midi": 55,
          "name": "G3",
          "ticks": 38400,
          "time": 33.3333,
          "velocity": 0.7874015748031497
        },
        {
          "duration": 0.16666649999999805,
          "durationTicks": 192,
          "midi": 64,
          "name": "E4",
          "ticks": 38400,
          "time": 33.3333,
          "velocity": 0.7874015748031497
        },
        {
          "duration": 0.08333325000000258,
          "durationTicks": 96,
          "midi": 67,
          "name": "G4",
          "ticks": 38592,
          "time": 33.4999665,
          "velocity": 0.7874015748031497
        },
        {
          "duration": 0.08333325000000258,
          "durationTicks": 96,
          "midi": 76,
          "name": "E5",
          "ticks": 38592,
          "time": 33.4999665,
          "velocity": 0.7874015748031497
        },
        {
          "duration": 0.08333325000000258,
          "durationTicks": 96,
          "midi": 67,
          "name": "G4",
          "ticks": 38784,
          "time": 33.666633,
          "velocity": 0.7874015748031497
        },
        {
          "duration": 0.08333325000000258,
          "durationTicks": 96,
          "midi": 76,
          "name": "E5",
          "ticks": 38784,
          "time": 33.666633,
          "velocity": 0.7874015748031497
        },
        {
          "duration": 0.08333324999999547,
          "durationTicks": 96,
          "midi": 67,
          "name": "G4",
          "ticks": 38976,
          "time": 33.8332995,
          "velocity": 0.7874015748031497
        },
        {
          "duration": 0.08333324999999547,
          "durationTicks": 96,
          "midi": 76,
          "name": "E5",
          "ticks": 38976,
          "time": 33.8332995,
          "velocity": 0.7874015748031497
        },
        {
          "duration": 0.08333324999999547,
          "durationTicks": 96,
          "midi": 67,
          "name": "G4",
          "ticks": 39168,
          "time": 33.999966,
          "velocity": 0.7874015748031497
        },
        {
          "duration": 0.08333324999999547,
          "durationTicks": 96,
          "midi": 76,
          "name": "E5",
          "ticks": 39168,
          "time": 33.999966,
          "velocity": 0.7874015748031497
        },
        {
          "duration": 0.08333325000000258,
          "durationTicks": 96,
          "midi": 67,
          "name": "G4",
          "ticks": 39360,
          "time": 34.1666325,
          "velocity": 0.7874015748031497
        },
        {
          "duration": 0.08333325000000258,
          "durationTicks": 96,
          "midi": 76,
          "name": "E5",
          "ticks": 39360,
          "time": 34.1666325,
          "velocity": 0.7874015748031497
        },
        {
          "duration": 0.08333325000000258,
          "durationTicks": 96,
          "midi": 67,
          "name": "G4",
          "ticks": 39552,
          "time": 34.333299,
          "velocity": 0.7874015748031497
        },
        {
          "duration": 0.08333325000000258,
          "durationTicks": 96,
          "midi": 76,
          "name": "E5",
          "ticks": 39552,
          "time": 34.333299,
          "velocity": 0.7874015748031497
        },
        {
          "duration": 0.08333324999999547,
          "durationTicks": 96,
          "midi": 67,
          "name": "G4",
          "ticks": 39744,
          "time": 34.4999655,
          "velocity": 0.7874015748031497
        },
        {
          "duration": 0.08333324999999547,
          "durationTicks": 96,
          "midi": 76,
          "name": "E5",
          "ticks": 39744,
          "time": 34.4999655,
          "velocity": 0.7874015748031497
        },
        {
          "duration": 0.16666649999999805,
          "durationTicks": 192,
          "midi": 65,
          "name": "F4",
          "ticks": 39936,
          "time": 34.666632,
          "velocity": 0.7874015748031497
        },
        {
          "duration": 0.16666649999999805,
          "durationTicks": 192,
          "midi": 57,
          "name": "A3",
          "ticks": 39936,
          "time": 34.666632,
          "velocity": 0.7874015748031497
        },
        {
          "duration": 0.08333325000000258,
          "durationTicks": 96,
          "midi": 77,
          "name": "F5",
          "ticks": 40128,
          "time": 34.8332985,
          "velocity": 0.7874015748031497
        },
        {
          "duration": 0.08333325000000258,
          "durationTicks": 96,
          "midi": 69,
          "name": "A4",
          "ticks": 40128,
          "time": 34.8332985,
          "velocity": 0.7874015748031497
        },
        {
          "duration": 0.08333325000000258,
          "durationTicks": 96,
          "midi": 77,
          "name": "F5",
          "ticks": 40320,
          "time": 34.999964999999996,
          "velocity": 0.7874015748031497
        },
        {
          "duration": 0.08333325000000258,
          "durationTicks": 96,
          "midi": 69,
          "name": "A4",
          "ticks": 40320,
          "time": 34.999964999999996,
          "velocity": 0.7874015748031497
        },
        {
          "duration": 0.08333324999999547,
          "durationTicks": 96,
          "midi": 77,
          "name": "F5",
          "ticks": 40512,
          "time": 35.1666315,
          "velocity": 0.7874015748031497
        },
        {
          "duration": 0.08333324999999547,
          "durationTicks": 96,
          "midi": 69,
          "name": "A4",
          "ticks": 40512,
          "time": 35.1666315,
          "velocity": 0.7874015748031497
        },
        {
          "duration": 0.16666649999999805,
          "durationTicks": 192,
          "midi": 59,
          "name": "B3",
          "ticks": 40704,
          "time": 35.333298,
          "velocity": 0.7874015748031497
        },
        {
          "duration": 0.16666649999999805,
          "durationTicks": 192,
          "midi": 62,
          "name": "D4",
          "ticks": 40704,
          "time": 35.333298,
          "velocity": 0.7874015748031497
        },
        {
          "duration": 0.08333325000000258,
          "durationTicks": 96,
          "midi": 71,
          "name": "B4",
          "ticks": 40896,
          "time": 35.4999645,
          "velocity": 0.7874015748031497
        },
        {
          "duration": 0.08333325000000258,
          "durationTicks": 96,
          "midi": 77,
          "name": "F5",
          "ticks": 40896,
          "time": 35.4999645,
          "velocity": 0.7874015748031497
        },
        {
          "duration": 0.08333324999999547,
          "durationTicks": 96,
          "midi": 71,
          "name": "B4",
          "ticks": 41088,
          "time": 35.666631,
          "velocity": 0.7874015748031497
        },
        {
          "duration": 0.08333324999999547,
          "durationTicks": 96,
          "midi": 77,
          "name": "F5",
          "ticks": 41088,
          "time": 35.666631,
          "velocity": 0.7874015748031497
        },
        {
          "duration": 0.08333324999999547,
          "durationTicks": 96,
          "midi": 71,
          "name": "B4",
          "ticks": 41280,
          "time": 35.8332975,
          "velocity": 0.7874015748031497
        },
        {
          "duration": 0.08333324999999547,
          "durationTicks": 96,
          "midi": 77,
          "name": "F5",
          "ticks": 41280,
          "time": 35.8332975,
          "velocity": 0.7874015748031497
        },
        {
          "duration": 0.16666649999999805,
          "durationTicks": 192,
          "midi": 55,
          "name": "G3",
          "ticks": 41472,
          "time": 35.999964,
          "velocity": 0.7874015748031497
        },
        {
          "duration": 0.16666649999999805,
          "durationTicks": 192,
          "midi": 64,
          "name": "E4",
          "ticks": 41472,
          "time": 35.999964,
          "velocity": 0.7874015748031497
        },
        {
          "duration": 0.08333325000000258,
          "durationTicks": 96,
          "midi": 67,
          "name": "G4",
          "ticks": 41664,
          "time": 36.1666305,
          "velocity": 0.7874015748031497
        },
        {
          "duration": 0.08333325000000258,
          "durationTicks": 96,
          "midi": 76,
          "name": "E5",
          "ticks": 41664,
          "time": 36.1666305,
          "velocity": 0.7874015748031497
        },
        {
          "duration": 0.08333324999999547,
          "durationTicks": 96,
          "midi": 67,
          "name": "G4",
          "ticks": 41856,
          "time": 36.333297,
          "velocity": 0.7874015748031497
        },
        {
          "duration": 0.08333324999999547,
          "durationTicks": 96,
          "midi": 76,
          "name": "E5",
          "ticks": 41856,
          "time": 36.333297,
          "velocity": 0.7874015748031497
        },
        {
          "duration": 0.08333325000000258,
          "durationTicks": 96,
          "midi": 67,
          "name": "G4",
          "ticks": 42048,
          "time": 36.4999635,
          "velocity": 0.7874015748031497
        },
        {
          "duration": 0.08333325000000258,
          "durationTicks": 96,
          "midi": 76,
          "name": "E5",
          "ticks": 42048,
          "time": 36.4999635,
          "velocity": 0.7874015748031497
        },
        {
          "duration": 0.08333325000000258,
          "durationTicks": 96,
          "midi": 67,
          "name": "G4",
          "ticks": 42240,
          "time": 36.66663,
          "velocity": 0.7874015748031497
        },
        {
          "duration": 0.08333325000000258,
          "durationTicks": 96,
          "midi": 76,
          "name": "E5",
          "ticks": 42240,
          "time": 36.66663,
          "velocity": 0.7874015748031497
        },
        {
          "duration": 0.08333325000000258,
          "durationTicks": 96,
          "midi": 67,
          "name": "G4",
          "ticks": 42432,
          "time": 36.833296499999996,
          "velocity": 0.7874015748031497
        },
        {
          "duration": 0.08333325000000258,
          "durationTicks": 96,
          "midi": 76,
          "name": "E5",
          "ticks": 42432,
          "time": 36.833296499999996,
          "velocity": 0.7874015748031497
        },
        {
          "duration": 0.08333324999999547,
          "durationTicks": 96,
          "midi": 67,
          "name": "G4",
          "ticks": 42624,
          "time": 36.999963,
          "velocity": 0.7874015748031497
        },
        {
          "duration": 0.08333324999999547,
          "durationTicks": 96,
          "midi": 76,
          "name": "E5",
          "ticks": 42624,
          "time": 36.999963,
          "velocity": 0.7874015748031497
        },
        {
          "duration": 0.08333325000000258,
          "durationTicks": 96,
          "midi": 67,
          "name": "G4",
          "ticks": 42816,
          "time": 37.1666295,
          "velocity": 0.7874015748031497
        },
        {
          "duration": 0.08333325000000258,
          "durationTicks": 96,
          "midi": 76,
          "name": "E5",
          "ticks": 42816,
          "time": 37.1666295,
          "velocity": 0.7874015748031497
        },
        {
          "duration": 0.16666650000000516,
          "durationTicks": 192,
          "midi": 55,
          "name": "G3",
          "ticks": 43008,
          "time": 37.333296,
          "velocity": 0.7874015748031497
        },
        {
          "duration": 0.16666650000000516,
          "durationTicks": 192,
          "midi": 64,
          "name": "E4",
          "ticks": 43008,
          "time": 37.333296,
          "velocity": 0.7874015748031497
        },
        {
          "duration": 0.08333324999999547,
          "durationTicks": 96,
          "midi": 67,
          "name": "G4",
          "ticks": 43200,
          "time": 37.4999625,
          "velocity": 0.7874015748031497
        },
        {
          "duration": 0.08333324999999547,
          "durationTicks": 96,
          "midi": 76,
          "name": "E5",
          "ticks": 43200,
          "time": 37.4999625,
          "velocity": 0.7874015748031497
        },
        {
          "duration": 0.08333324999999547,
          "durationTicks": 96,
          "midi": 67,
          "name": "G4",
          "ticks": 43392,
          "time": 37.666629,
          "velocity": 0.7874015748031497
        },
        {
          "duration": 0.08333324999999547,
          "durationTicks": 96,
          "midi": 76,
          "name": "E5",
          "ticks": 43392,
          "time": 37.666629,
          "velocity": 0.7874015748031497
        },
        {
          "duration": 0.08333325000000258,
          "durationTicks": 96,
          "midi": 67,
          "name": "G4",
          "ticks": 43584,
          "time": 37.8332955,
          "velocity": 0.7874015748031497
        },
        {
          "duration": 0.08333325000000258,
          "durationTicks": 96,
          "midi": 76,
          "name": "E5",
          "ticks": 43584,
          "time": 37.8332955,
          "velocity": 0.7874015748031497
        },
        {
          "duration": 0.08333325000000258,
          "durationTicks": 96,
          "midi": 67,
          "name": "G4",
          "ticks": 43776,
          "time": 37.999962,
          "velocity": 0.7874015748031497
        },
        {
          "duration": 0.08333325000000258,
          "durationTicks": 96,
          "midi": 76,
          "name": "E5",
          "ticks": 43776,
          "time": 37.999962,
          "velocity": 0.7874015748031497
        },
        {
          "duration": 0.08333324999999547,
          "durationTicks": 96,
          "midi": 67,
          "name": "G4",
          "ticks": 43968,
          "time": 38.1666285,
          "velocity": 0.7874015748031497
        },
        {
          "duration": 0.08333324999999547,
          "durationTicks": 96,
          "midi": 76,
          "name": "E5",
          "ticks": 43968,
          "time": 38.1666285,
          "velocity": 0.7874015748031497
        },
        {
          "duration": 0.08333325000000258,
          "durationTicks": 96,
          "midi": 67,
          "name": "G4",
          "ticks": 44160,
          "time": 38.333295,
          "velocity": 0.7874015748031497
        },
        {
          "duration": 0.08333325000000258,
          "durationTicks": 96,
          "midi": 76,
          "name": "E5",
          "ticks": 44160,
          "time": 38.333295,
          "velocity": 0.7874015748031497
        },
        {
          "duration": 0.08333325000000258,
          "durationTicks": 96,
          "midi": 67,
          "name": "G4",
          "ticks": 44352,
          "time": 38.4999615,
          "velocity": 0.7874015748031497
        },
        {
          "duration": 0.08333325000000258,
          "durationTicks": 96,
          "midi": 76,
          "name": "E5",
          "ticks": 44352,
          "time": 38.4999615,
          "velocity": 0.7874015748031497
        },
        {
          "duration": 0.16666650000000516,
          "durationTicks": 192,
          "midi": 55,
          "name": "G3",
          "ticks": 44544,
          "time": 38.666627999999996,
          "velocity": 0.7874015748031497
        },
        {
          "duration": 0.16666650000000516,
          "durationTicks": 192,
          "midi": 64,
          "name": "E4",
          "ticks": 44544,
          "time": 38.666627999999996,
          "velocity": 0.7874015748031497
        },
        {
          "duration": 0.08333324999999547,
          "durationTicks": 96,
          "midi": 67,
          "name": "G4",
          "ticks": 44736,
          "time": 38.8332945,
          "velocity": 0.7874015748031497
        },
        {
          "duration": 0.08333324999999547,
          "durationTicks": 96,
          "midi": 76,
          "name": "E5",
          "ticks": 44736,
          "time": 38.8332945,
          "velocity": 0.7874015748031497
        },
        {
          "duration": 0.08333325000000258,
          "durationTicks": 96,
          "midi": 67,
          "name": "G4",
          "ticks": 44928,
          "time": 38.999961,
          "velocity": 0.7874015748031497
        },
        {
          "duration": 0.08333325000000258,
          "durationTicks": 96,
          "midi": 76,
          "name": "E5",
          "ticks": 44928,
          "time": 38.999961,
          "velocity": 0.7874015748031497
        },
        {
          "duration": 0.08333325000000258,
          "durationTicks": 96,
          "midi": 67,
          "name": "G4",
          "ticks": 45120,
          "time": 39.1666275,
          "velocity": 0.7874015748031497
        },
        {
          "duration": 0.08333325000000258,
          "durationTicks": 96,
          "midi": 76,
          "name": "E5",
          "ticks": 45120,
          "time": 39.1666275,
          "velocity": 0.7874015748031497
        },
        {
          "duration": 0.08333324999999547,
          "durationTicks": 96,
          "midi": 67,
          "name": "G4",
          "ticks": 45312,
          "time": 39.333294,
          "velocity": 0.7874015748031497
        },
        {
          "duration": 0.08333324999999547,
          "durationTicks": 96,
          "midi": 76,
          "name": "E5",
          "ticks": 45312,
          "time": 39.333294,
          "velocity": 0.7874015748031497
        },
        {
          "duration": 0.08333324999999547,
          "durationTicks": 96,
          "midi": 67,
          "name": "G4",
          "ticks": 45504,
          "time": 39.4999605,
          "velocity": 0.7874015748031497
        },
        {
          "duration": 0.08333324999999547,
          "durationTicks": 96,
          "midi": 76,
          "name": "E5",
          "ticks": 45504,
          "time": 39.4999605,
          "velocity": 0.7874015748031497
        },
        {
          "duration": 0.08333325000000258,
          "durationTicks": 96,
          "midi": 67,
          "name": "G4",
          "ticks": 45696,
          "time": 39.666627,
          "velocity": 0.7874015748031497
        },
        {
          "duration": 0.08333325000000258,
          "durationTicks": 96,
          "midi": 76,
          "name": "E5",
          "ticks": 45696,
          "time": 39.666627,
          "velocity": 0.7874015748031497
        },
        {
          "duration": 0.08333325000000258,
          "durationTicks": 96,
          "midi": 67,
          "name": "G4",
          "ticks": 45888,
          "time": 39.833293499999996,
          "velocity": 0.7874015748031497
        },
        {
          "duration": 0.08333325000000258,
          "durationTicks": 96,
          "midi": 76,
          "name": "E5",
          "ticks": 45888,
          "time": 39.833293499999996,
          "velocity": 0.7874015748031497
        },
        {
          "duration": 0.16666649999999805,
          "durationTicks": 192,
          "midi": 65,
          "name": "F4",
          "ticks": 46080,
          "time": 39.99996,
          "velocity": 0.7874015748031497
        },
        {
          "duration": 0.16666649999999805,
          "durationTicks": 192,
          "midi": 57,
          "name": "A3",
          "ticks": 46080,
          "time": 39.99996,
          "velocity": 0.7874015748031497
        },
        {
          "duration": 0.08333325000000258,
          "durationTicks": 96,
          "midi": 77,
          "name": "F5",
          "ticks": 46272,
          "time": 40.1666265,
          "velocity": 0.7874015748031497
        },
        {
          "duration": 0.08333325000000258,
          "durationTicks": 96,
          "midi": 69,
          "name": "A4",
          "ticks": 46272,
          "time": 40.1666265,
          "velocity": 0.7874015748031497
        },
        {
          "duration": 0.08333325000000258,
          "durationTicks": 96,
          "midi": 77,
          "name": "F5",
          "ticks": 46464,
          "time": 40.333293,
          "velocity": 0.7874015748031497
        },
        {
          "duration": 0.08333325000000258,
          "durationTicks": 96,
          "midi": 69,
          "name": "A4",
          "ticks": 46464,
          "time": 40.333293,
          "velocity": 0.7874015748031497
        },
        {
          "duration": 0.08333325000000258,
          "durationTicks": 96,
          "midi": 77,
          "name": "F5",
          "ticks": 46656,
          "time": 40.499959499999996,
          "velocity": 0.7874015748031497
        },
        {
          "duration": 0.08333325000000258,
          "durationTicks": 96,
          "midi": 69,
          "name": "A4",
          "ticks": 46656,
          "time": 40.499959499999996,
          "velocity": 0.7874015748031497
        },
        {
          "duration": 0.16666649999999805,
          "durationTicks": 192,
          "midi": 62,
          "name": "D4",
          "ticks": 46848,
          "time": 40.666626,
          "velocity": 0.7874015748031497
        },
        {
          "duration": 0.16666649999999805,
          "durationTicks": 192,
          "midi": 56,
          "name": "G#3",
          "ticks": 46848,
          "time": 40.666626,
          "velocity": 0.7874015748031497
        },
        {
          "duration": 0.08333325000000258,
          "durationTicks": 96,
          "midi": 68,
          "name": "G#4",
          "ticks": 47040,
          "time": 40.8332925,
          "velocity": 0.7874015748031497
        },
        {
          "duration": 0.08333325000000258,
          "durationTicks": 96,
          "midi": 76,
          "name": "E5",
          "ticks": 47040,
          "time": 40.8332925,
          "velocity": 0.7874015748031497
        },
        {
          "duration": 0.08333325000000258,
          "durationTicks": 96,
          "midi": 68,
          "name": "G#4",
          "ticks": 47232,
          "time": 40.999959,
          "velocity": 0.7874015748031497
        },
        {
          "duration": 0.08333325000000258,
          "durationTicks": 96,
          "midi": 76,
          "name": "E5",
          "ticks": 47232,
          "time": 40.999959,
          "velocity": 0.7874015748031497
        },
        {
          "duration": 0.08333324999999547,
          "durationTicks": 96,
          "midi": 68,
          "name": "G#4",
          "ticks": 47424,
          "time": 41.1666255,
          "velocity": 0.7874015748031497
        },
        {
          "duration": 0.08333324999999547,
          "durationTicks": 96,
          "midi": 76,
          "name": "E5",
          "ticks": 47424,
          "time": 41.1666255,
          "velocity": 0.7874015748031497
        },
        {
          "duration": 0.08333324999999547,
          "durationTicks": 96,
          "midi": 64,
          "name": "E4",
          "ticks": 47616,
          "time": 41.333292,
          "velocity": 0.7874015748031497
        },
        {
          "duration": 0.08333324999999547,
          "durationTicks": 96,
          "midi": 69,
          "name": "A4",
          "ticks": 47616,
          "time": 41.333292,
          "velocity": 0.7874015748031497
        },
        {
          "duration": 0.08333325000000258,
          "durationTicks": 96,
          "midi": 69,
          "name": "A4",
          "ticks": 47712,
          "time": 41.416625249999996,
          "velocity": 0.7874015748031497
        },
        {
          "duration": 0.08333325000000258,
          "durationTicks": 96,
          "midi": 72,
          "name": "C5",
          "ticks": 47712,
          "time": 41.416625249999996,
          "velocity": 0.7874015748031497
        },
        {
          "duration": 0.08333325000000258,
          "durationTicks": 96,
          "midi": 72,
          "name": "C5",
          "ticks": 47808,
          "time": 41.4999585,
          "velocity": 0.7874015748031497
        },
        {
          "duration": 0.08333325000000258,
          "durationTicks": 96,
          "midi": 76,
          "name": "E5",
          "ticks": 47808,
          "time": 41.4999585,
          "velocity": 0.7874015748031497
        },
        {
          "duration": 0.08333324999999547,
          "durationTicks": 96,
          "midi": 69,
          "name": "A4",
          "ticks": 47904,
          "time": 41.58329175,
          "velocity": 0.7874015748031497
        },
        {
          "duration": 0.08333324999999547,
          "durationTicks": 96,
          "midi": 72,
          "name": "C5",
          "ticks": 47904,
          "time": 41.58329175,
          "velocity": 0.7874015748031497
        },
        {
          "duration": 0.08333325000000258,
          "durationTicks": 96,
          "midi": 72,
          "name": "C5",
          "ticks": 48000,
          "time": 41.666624999999996,
          "velocity": 0.7874015748031497
        },
        {
          "duration": 0.08333325000000258,
          "durationTicks": 96,
          "midi": 76,
          "name": "E5",
          "ticks": 48000,
          "time": 41.666624999999996,
          "velocity": 0.7874015748031497
        },
        {
          "duration": 0.08333325000000258,
          "durationTicks": 96,
          "midi": 69,
          "name": "A4",
          "ticks": 48096,
          "time": 41.74995825,
          "velocity": 0.7874015748031497
        },
        {
          "duration": 0.08333325000000258,
          "durationTicks": 96,
          "midi": 72,
          "name": "C5",
          "ticks": 48096,
          "time": 41.74995825,
          "velocity": 0.7874015748031497
        },
        {
          "duration": 0.08333324999999547,
          "durationTicks": 96,
          "midi": 72,
          "name": "C5",
          "ticks": 48192,
          "time": 41.8332915,
          "velocity": 0.7874015748031497
        },
        {
          "duration": 0.08333324999999547,
          "durationTicks": 96,
          "midi": 76,
          "name": "E5",
          "ticks": 48192,
          "time": 41.8332915,
          "velocity": 0.7874015748031497
        },
        {
          "duration": 0.08333325000000258,
          "durationTicks": 96,
          "midi": 69,
          "name": "A4",
          "ticks": 48288,
          "time": 41.91662475,
          "velocity": 0.7874015748031497
        },
        {
          "duration": 0.08333325000000258,
          "durationTicks": 96,
          "midi": 72,
          "name": "C5",
          "ticks": 48288,
          "time": 41.91662475,
          "velocity": 0.7874015748031497
        },
        {
          "duration": 0.08333325000000258,
          "durationTicks": 96,
          "midi": 62,
          "name": "D4",
          "ticks": 48384,
          "time": 41.999958,
          "velocity": 0.7874015748031497
        },
        {
          "duration": 0.08333325000000258,
          "durationTicks": 96,
          "midi": 67,
          "name": "G4",
          "ticks": 48384,
          "time": 41.999958,
          "velocity": 0.7874015748031497
        },
        {
          "duration": 0.08333324999999547,
          "durationTicks": 96,
          "midi": 67,
          "name": "G4",
          "ticks": 48480,
          "time": 42.08329125,
          "velocity": 0.7874015748031497
        },
        {
          "duration": 0.08333324999999547,
          "durationTicks": 96,
          "midi": 72,
          "name": "C5",
          "ticks": 48480,
          "time": 42.08329125,
          "velocity": 0.7874015748031497
        },
        {
          "duration": 0.08333325000000258,
          "durationTicks": 96,
          "midi": 72,
          "name": "C5",
          "ticks": 48576,
          "time": 42.1666245,
          "velocity": 0.7874015748031497
        },
        {
          "duration": 0.08333325000000258,
          "durationTicks": 96,
          "midi": 76,
          "name": "E5",
          "ticks": 48576,
          "time": 42.1666245,
          "velocity": 0.7874015748031497
        },
        {
          "duration": 0.08333324999999547,
          "durationTicks": 96,
          "midi": 67,
          "name": "G4",
          "ticks": 48672,
          "time": 42.24995775,
          "velocity": 0.7874015748031497
        },
        {
          "duration": 0.08333324999999547,
          "durationTicks": 96,
          "midi": 72,
          "name": "C5",
          "ticks": 48672,
          "time": 42.24995775,
          "velocity": 0.7874015748031497
        },
        {
          "duration": 0.08333325000000258,
          "durationTicks": 96,
          "midi": 72,
          "name": "C5",
          "ticks": 48768,
          "time": 42.333290999999996,
          "velocity": 0.7874015748031497
        },
        {
          "duration": 0.08333325000000258,
          "durationTicks": 96,
          "midi": 76,
          "name": "E5",
          "ticks": 48768,
          "time": 42.333290999999996,
          "velocity": 0.7874015748031497
        },
        {
          "duration": 0.08333325000000258,
          "durationTicks": 96,
          "midi": 67,
          "name": "G4",
          "ticks": 48864,
          "time": 42.41662425,
          "velocity": 0.7874015748031497
        },
        {
          "duration": 0.08333325000000258,
          "durationTicks": 96,
          "midi": 72,
          "name": "C5",
          "ticks": 48864,
          "time": 42.41662425,
          "velocity": 0.7874015748031497
        },
        {
          "duration": 0.08333324999999547,
          "durationTicks": 96,
          "midi": 72,
          "name": "C5",
          "ticks": 48960,
          "time": 42.4999575,
          "velocity": 0.7874015748031497
        },
        {
          "duration": 0.08333324999999547,
          "durationTicks": 96,
          "midi": 76,
          "name": "E5",
          "ticks": 48960,
          "time": 42.4999575,
          "velocity": 0.7874015748031497
        },
        {
          "duration": 0.08333325000000258,
          "durationTicks": 96,
          "midi": 67,
          "name": "G4",
          "ticks": 49056,
          "time": 42.583290749999996,
          "velocity": 0.7874015748031497
        },
        {
          "duration": 0.08333325000000258,
          "durationTicks": 96,
          "midi": 72,
          "name": "C5",
          "ticks": 49056,
          "time": 42.583290749999996,
          "velocity": 0.7874015748031497
        },
        {
          "duration": 0.22222199999999503,
          "durationTicks": 256,
          "midi": 69,
          "name": "A4",
          "ticks": 49152,
          "time": 42.666624,
          "velocity": 0.7874015748031497
        },
        {
          "duration": 0.22222199999999503,
          "durationTicks": 256,
          "midi": 77,
          "name": "F5",
          "ticks": 49152,
          "time": 42.666624,
          "velocity": 0.7874015748031497
        },
        {
          "duration": 0.08333325000000258,
          "durationTicks": 96,
          "midi": 69,
          "name": "A4",
          "ticks": 49440,
          "time": 42.91662375,
          "velocity": 0.7874015748031497
        },
        {
          "duration": 0.08333325000000258,
          "durationTicks": 96,
          "midi": 77,
          "name": "F5",
          "ticks": 49440,
          "time": 42.91662375,
          "velocity": 0.7874015748031497
        },
        {
          "duration": 0.08333325000000258,
          "durationTicks": 96,
          "midi": 71,
          "name": "B4",
          "ticks": 49920,
          "time": 43.33329,
          "velocity": 0.7874015748031497
        },
        {
          "duration": 0.08333325000000258,
          "durationTicks": 96,
          "midi": 79,
          "name": "G5",
          "ticks": 49920,
          "time": 43.33329,
          "velocity": 0.7874015748031497
        },
        {
          "duration": 0.08333325000000258,
          "durationTicks": 96,
          "midi": 71,
          "name": "B4",
          "ticks": 50112,
          "time": 43.499956499999996,
          "velocity": 0.7874015748031497
        },
        {
          "duration": 0.08333325000000258,
          "durationTicks": 96,
          "midi": 79,
          "name": "G5",
          "ticks": 50112,
          "time": 43.499956499999996,
          "velocity": 0.7874015748031497
        },
        {
          "duration": 0.16666649999999805,
          "durationTicks": 192,
          "midi": 55,
          "name": "G3",
          "ticks": 50688,
          "time": 43.999956,
          "velocity": 0.7874015748031497
        },
        {
          "duration": 0.16666649999999805,
          "durationTicks": 192,
          "midi": 64,
          "name": "E4",
          "ticks": 50688,
          "time": 43.999956,
          "velocity": 0.7874015748031497
        },
        {
          "duration": 0.08333325000000258,
          "durationTicks": 96,
          "midi": 67,
          "name": "G4",
          "ticks": 50880,
          "time": 44.166622499999995,
          "velocity": 0.7874015748031497
        },
        {
          "duration": 0.08333325000000258,
          "durationTicks": 96,
          "midi": 76,
          "name": "E5",
          "ticks": 50880,
          "time": 44.166622499999995,
          "velocity": 0.7874015748031497
        },
        {
          "duration": 0.08333324999999547,
          "durationTicks": 96,
          "midi": 67,
          "name": "G4",
          "ticks": 51072,
          "time": 44.333289,
          "velocity": 0.7874015748031497
        },
        {
          "duration": 0.08333324999999547,
          "durationTicks": 96,
          "midi": 76,
          "name": "E5",
          "ticks": 51072,
          "time": 44.333289,
          "velocity": 0.7874015748031497
        },
        {
          "duration": 0.08333325000000258,
          "durationTicks": 96,
          "midi": 67,
          "name": "G4",
          "ticks": 51264,
          "time": 44.4999555,
          "velocity": 0.7874015748031497
        },
        {
          "duration": 0.08333325000000258,
          "durationTicks": 96,
          "midi": 76,
          "name": "E5",
          "ticks": 51264,
          "time": 44.4999555,
          "velocity": 0.7874015748031497
        },
        {
          "duration": 0.08333325000000258,
          "durationTicks": 96,
          "midi": 67,
          "name": "G4",
          "ticks": 51456,
          "time": 44.666622,
          "velocity": 0.7874015748031497
        },
        {
          "duration": 0.08333325000000258,
          "durationTicks": 96,
          "midi": 76,
          "name": "E5",
          "ticks": 51456,
          "time": 44.666622,
          "velocity": 0.7874015748031497
        },
        {
          "duration": 0.08333324999999547,
          "durationTicks": 96,
          "midi": 67,
          "name": "G4",
          "ticks": 51648,
          "time": 44.8332885,
          "velocity": 0.7874015748031497
        },
        {
          "duration": 0.08333324999999547,
          "durationTicks": 96,
          "midi": 76,
          "name": "E5",
          "ticks": 51648,
          "time": 44.8332885,
          "velocity": 0.7874015748031497
        },
        {
          "duration": 0.08333324999999547,
          "durationTicks": 96,
          "midi": 67,
          "name": "G4",
          "ticks": 51840,
          "time": 44.999955,
          "velocity": 0.7874015748031497
        },
        {
          "duration": 0.08333324999999547,
          "durationTicks": 96,
          "midi": 76,
          "name": "E5",
          "ticks": 51840,
          "time": 44.999955,
          "velocity": 0.7874015748031497
        },
        {
          "duration": 0.08333325000000258,
          "durationTicks": 96,
          "midi": 67,
          "name": "G4",
          "ticks": 52032,
          "time": 45.1666215,
          "velocity": 0.7874015748031497
        },
        {
          "duration": 0.08333325000000258,
          "durationTicks": 96,
          "midi": 76,
          "name": "E5",
          "ticks": 52032,
          "time": 45.1666215,
          "velocity": 0.7874015748031497
        },
        {
          "duration": 0.16666650000000516,
          "durationTicks": 192,
          "midi": 55,
          "name": "G3",
          "ticks": 52224,
          "time": 45.333287999999996,
          "velocity": 0.7874015748031497
        },
        {
          "duration": 0.16666650000000516,
          "durationTicks": 192,
          "midi": 64,
          "name": "E4",
          "ticks": 52224,
          "time": 45.333287999999996,
          "velocity": 0.7874015748031497
        },
        {
          "duration": 0.08333324999999547,
          "durationTicks": 96,
          "midi": 67,
          "name": "G4",
          "ticks": 52416,
          "time": 45.4999545,
          "velocity": 0.7874015748031497
        },
        {
          "duration": 0.08333324999999547,
          "durationTicks": 96,
          "midi": 76,
          "name": "E5",
          "ticks": 52416,
          "time": 45.4999545,
          "velocity": 0.7874015748031497
        },
        {
          "duration": 0.08333325000000258,
          "durationTicks": 96,
          "midi": 67,
          "name": "G4",
          "ticks": 52608,
          "time": 45.666621,
          "velocity": 0.7874015748031497
        },
        {
          "duration": 0.08333325000000258,
          "durationTicks": 96,
          "midi": 76,
          "name": "E5",
          "ticks": 52608,
          "time": 45.666621,
          "velocity": 0.7874015748031497
        },
        {
          "duration": 0.08333325000000258,
          "durationTicks": 96,
          "midi": 67,
          "name": "G4",
          "ticks": 52800,
          "time": 45.8332875,
          "velocity": 0.7874015748031497
        },
        {
          "duration": 0.08333325000000258,
          "durationTicks": 96,
          "midi": 76,
          "name": "E5",
          "ticks": 52800,
          "time": 45.8332875,
          "velocity": 0.7874015748031497
        },
        {
          "duration": 0.08333325000000258,
          "durationTicks": 96,
          "midi": 67,
          "name": "G4",
          "ticks": 52992,
          "time": 45.999953999999995,
          "velocity": 0.7874015748031497
        },
        {
          "duration": 0.08333325000000258,
          "durationTicks": 96,
          "midi": 76,
          "name": "E5",
          "ticks": 52992,
          "time": 45.999953999999995,
          "velocity": 0.7874015748031497
        },
        {
          "duration": 0.08333324999999547,
          "durationTicks": 96,
          "midi": 67,
          "name": "G4",
          "ticks": 53184,
          "time": 46.1666205,
          "velocity": 0.7874015748031497
        },
        {
          "duration": 0.08333324999999547,
          "durationTicks": 96,
          "midi": 76,
          "name": "E5",
          "ticks": 53184,
          "time": 46.1666205,
          "velocity": 0.7874015748031497
        },
        {
          "duration": 0.08333325000000258,
          "durationTicks": 96,
          "midi": 67,
          "name": "G4",
          "ticks": 53376,
          "time": 46.333287,
          "velocity": 0.7874015748031497
        },
        {
          "duration": 0.08333325000000258,
          "durationTicks": 96,
          "midi": 76,
          "name": "E5",
          "ticks": 53376,
          "time": 46.333287,
          "velocity": 0.7874015748031497
        },
        {
          "duration": 0.08333325000000258,
          "durationTicks": 96,
          "midi": 67,
          "name": "G4",
          "ticks": 53568,
          "time": 46.4999535,
          "velocity": 0.7874015748031497
        },
        {
          "duration": 0.08333325000000258,
          "durationTicks": 96,
          "midi": 76,
          "name": "E5",
          "ticks": 53568,
          "time": 46.4999535,
          "velocity": 0.7874015748031497
        },
        {
          "duration": 0.08333324999999547,
          "durationTicks": 96,
          "midi": 53,
          "name": "F3",
          "ticks": 53760,
          "time": 46.66662,
          "velocity": 0.7874015748031497
        },
        {
          "duration": 0.08333325000000258,
          "durationTicks": 96,
          "midi": 60,
          "name": "C4",
          "ticks": 53856,
          "time": 46.74995325,
          "velocity": 0.7874015748031497
        },
        {
          "duration": 0.08333324999999547,
          "durationTicks": 96,
          "midi": 68,
          "name": "G#4",
          "ticks": 53952,
          "time": 46.8332865,
          "velocity": 0.7874015748031497
        },
        {
          "duration": 0.08333325000000258,
          "durationTicks": 96,
          "midi": 60,
          "name": "C4",
          "ticks": 54048,
          "time": 46.916619749999995,
          "velocity": 0.7874015748031497
        },
        {
          "duration": 0.08333325000000258,
          "durationTicks": 96,
          "midi": 68,
          "name": "G#4",
          "ticks": 54144,
          "time": 46.999953,
          "velocity": 0.7874015748031497
        },
        {
          "duration": 0.08333324999999547,
          "durationTicks": 96,
          "midi": 60,
          "name": "C4",
          "ticks": 54240,
          "time": 47.08328625,
          "velocity": 0.7874015748031497
        },
        {
          "duration": 0.08333325000000258,
          "durationTicks": 96,
          "midi": 68,
          "name": "G#4",
          "ticks": 54336,
          "time": 47.166619499999996,
          "velocity": 0.7874015748031497
        },
        {
          "duration": 0.08333325000000258,
          "durationTicks": 96,
          "midi": 60,
          "name": "C4",
          "ticks": 54432,
          "time": 47.24995275,
          "velocity": 0.7874015748031497
        },
        {
          "duration": 0.08333324999999547,
          "durationTicks": 96,
          "midi": 58,
          "name": "A#3",
          "ticks": 54528,
          "time": 47.333286,
          "velocity": 0.7874015748031497
        },
        {
          "duration": 0.08333325000000258,
          "durationTicks": 96,
          "midi": 65,
          "name": "F4",
          "ticks": 54624,
          "time": 47.41661925,
          "velocity": 0.7874015748031497
        },
        {
          "duration": 0.08333325000000258,
          "durationTicks": 96,
          "midi": 70,
          "name": "A#4",
          "ticks": 54720,
          "time": 47.4999525,
          "velocity": 0.7874015748031497
        },
        {
          "duration": 0.08333324999999547,
          "durationTicks": 96,
          "midi": 65,
          "name": "F4",
          "ticks": 54816,
          "time": 47.58328575,
          "velocity": 0.7874015748031497
        },
        {
          "duration": 0.08333325000000258,
          "durationTicks": 96,
          "midi": 70,
          "name": "A#4",
          "ticks": 54912,
          "time": 47.666619,
          "velocity": 0.7874015748031497
        },
        {
          "duration": 0.08333324999999547,
          "durationTicks": 96,
          "midi": 65,
          "name": "F4",
          "ticks": 55008,
          "time": 47.74995225,
          "velocity": 0.7874015748031497
        },
        {
          "duration": 0.08333325000000258,
          "durationTicks": 96,
          "midi": 70,
          "name": "A#4",
          "ticks": 55104,
          "time": 47.833285499999995,
          "velocity": 0.7874015748031497
        },
        {
          "duration": 0.08333325000000258,
          "durationTicks": 96,
          "midi": 65,
          "name": "F4",
          "ticks": 55200,
          "time": 47.91661875,
          "velocity": 0.7874015748031497
        },
        {
          "duration": 0.08333324999999547,
          "durationTicks": 96,
          "midi": 51,
          "name": "D#3",
          "ticks": 55296,
          "time": 47.999952,
          "velocity": 0.7874015748031497
        },
        {
          "duration": 0.08333325000000258,
          "durationTicks": 96,
          "midi": 60,
          "name": "C4",
          "ticks": 55392,
          "time": 48.083285249999996,
          "velocity": 0.7874015748031497
        },
        {
          "duration": 0.08333325000000258,
          "durationTicks": 96,
          "midi": 63,
          "name": "D#4",
          "ticks": 55488,
          "time": 48.1666185,
          "velocity": 0.7874015748031497
        },
        {
          "duration": 0.08333324999999547,
          "durationTicks": 96,
          "midi": 60,
          "name": "C4",
          "ticks": 55584,
          "time": 48.24995175,
          "velocity": 0.7874015748031497
        },
        {
          "duration": 0.08333325000000258,
          "durationTicks": 96,
          "midi": 67,
          "name": "G4",
          "ticks": 55680,
          "time": 48.333285,
          "velocity": 0.7874015748031497
        },
        {
          "duration": 0.08333325000000258,
          "durationTicks": 96,
          "midi": 60,
          "name": "C4",
          "ticks": 55776,
          "time": 48.41661825,
          "velocity": 0.7874015748031497
        },
        {
          "duration": 0.08333324999999547,
          "durationTicks": 96,
          "midi": 63,
          "name": "D#4",
          "ticks": 55872,
          "time": 48.4999515,
          "velocity": 0.7874015748031497
        },
        {
          "duration": 0.08333325000000258,
          "durationTicks": 96,
          "midi": 56,
          "name": "G#3",
          "ticks": 55968,
          "time": 48.58328475,
          "velocity": 0.7874015748031497
        },
        {
          "duration": 0.08333324999999547,
          "durationTicks": 96,
          "midi": 63,
          "name": "D#4",
          "ticks": 56064,
          "time": 48.666618,
          "velocity": 0.7874015748031497
        },
        {
          "duration": 0.08333325000000258,
          "durationTicks": 96,
          "midi": 68,
          "name": "G#4",
          "ticks": 56160,
          "time": 48.749951249999995,
          "velocity": 0.7874015748031497
        },
        {
          "duration": 0.08333325000000258,
          "durationTicks": 96,
          "midi": 63,
          "name": "D#4",
          "ticks": 56256,
          "time": 48.8332845,
          "velocity": 0.7874015748031497
        },
        {
          "duration": 0.08333324999999547,
          "durationTicks": 96,
          "midi": 56,
          "name": "G#3",
          "ticks": 56352,
          "time": 48.91661775,
          "velocity": 0.7874015748031497
        },
        {
          "duration": 0.08333325000000258,
          "durationTicks": 96,
          "midi": 63,
          "name": "D#4",
          "ticks": 56448,
          "time": 48.999950999999996,
          "velocity": 0.7874015748031497
        },
        {
          "duration": 0.08333325000000258,
          "durationTicks": 96,
          "midi": 68,
          "name": "G#4",
          "ticks": 56544,
          "time": 49.08328425,
          "velocity": 0.7874015748031497
        },
        {
          "duration": 0.08333324999999547,
          "durationTicks": 96,
          "midi": 63,
          "name": "D#4",
          "ticks": 56640,
          "time": 49.1666175,
          "velocity": 0.7874015748031497
        },
        {
          "duration": 0.08333325000000258,
          "durationTicks": 96,
          "midi": 56,
          "name": "G#3",
          "ticks": 56736,
          "time": 49.249950749999996,
          "velocity": 0.7874015748031497
        },
        {
          "duration": 0.08333325000000258,
          "durationTicks": 96,
          "midi": 53,
          "name": "F3",
          "ticks": 56832,
          "time": 49.333284,
          "velocity": 0.7874015748031497
        },
        {
          "duration": 0.08333324999999547,
          "durationTicks": 96,
          "midi": 60,
          "name": "C4",
          "ticks": 56928,
          "time": 49.41661725,
          "velocity": 0.7874015748031497
        },
        {
          "duration": 0.08333325000000258,
          "durationTicks": 96,
          "midi": 68,
          "name": "G#4",
          "ticks": 57024,
          "time": 49.4999505,
          "velocity": 0.7874015748031497
        },
        {
          "duration": 0.08333324999999547,
          "durationTicks": 96,
          "midi": 60,
          "name": "C4",
          "ticks": 57120,
          "time": 49.58328375,
          "velocity": 0.7874015748031497
        },
        {
          "duration": 0.08333325000000258,
          "durationTicks": 96,
          "midi": 68,
          "name": "G#4",
          "ticks": 57216,
          "time": 49.666616999999995,
          "velocity": 0.7874015748031497
        },
        {
          "duration": 0.08333325000000258,
          "durationTicks": 96,
          "midi": 60,
          "name": "C4",
          "ticks": 57312,
          "time": 49.74995025,
          "velocity": 0.7874015748031497
        },
        {
          "duration": 0.08333324999999547,
          "durationTicks": 96,
          "midi": 68,
          "name": "G#4",
          "ticks": 57408,
          "time": 49.8332835,
          "velocity": 0.7874015748031497
        },
        {
          "duration": 0.08333325000000258,
          "durationTicks": 96,
          "midi": 60,
          "name": "C4",
          "ticks": 57504,
          "time": 49.916616749999996,
          "velocity": 0.7874015748031497
        },
        {
          "duration": 0.08333325000000258,
          "durationTicks": 96,
          "midi": 58,
          "name": "A#3",
          "ticks": 57600,
          "time": 49.99995,
          "velocity": 0.7874015748031497
        },
        {
          "duration": 0.08333324999999547,
          "durationTicks": 96,
          "midi": 65,
          "name": "F4",
          "ticks": 57696,
          "time": 50.08328325,
          "velocity": 0.7874015748031497
        },
        {
          "duration": 0.08333325000000258,
          "durationTicks": 96,
          "midi": 70,
          "name": "A#4",
          "ticks": 57792,
          "time": 50.166616499999996,
          "velocity": 0.7874015748031497
        },
        {
          "duration": 0.08333325000000258,
          "durationTicks": 96,
          "midi": 65,
          "name": "F4",
          "ticks": 57888,
          "time": 50.24994975,
          "velocity": 0.7874015748031497
        },
        {
          "duration": 0.08333324999999547,
          "durationTicks": 96,
          "midi": 70,
          "name": "A#4",
          "ticks": 57984,
          "time": 50.333283,
          "velocity": 0.7874015748031497
        },
        {
          "duration": 0.08333325000000258,
          "durationTicks": 96,
          "midi": 65,
          "name": "F4",
          "ticks": 58080,
          "time": 50.41661625,
          "velocity": 0.7874015748031497
        },
        {
          "duration": 0.08333324999999547,
          "durationTicks": 96,
          "midi": 70,
          "name": "A#4",
          "ticks": 58176,
          "time": 50.4999495,
          "velocity": 0.7874015748031497
        },
        {
          "duration": 0.08333325000000258,
          "durationTicks": 96,
          "midi": 65,
          "name": "F4",
          "ticks": 58272,
          "time": 50.583282749999995,
          "velocity": 0.7874015748031497
        },
        {
          "duration": 0.08333325000000258,
          "durationTicks": 96,
          "midi": 51,
          "name": "D#3",
          "ticks": 58368,
          "time": 50.666616,
          "velocity": 0.7874015748031497
        },
        {
          "duration": 0.08333324999999547,
          "durationTicks": 96,
          "midi": 58,
          "name": "A#3",
          "ticks": 58464,
          "time": 50.74994925,
          "velocity": 0.7874015748031497
        },
        {
          "duration": 0.08333325000000258,
          "durationTicks": 96,
          "midi": 63,
          "name": "D#4",
          "ticks": 58560,
          "time": 50.833282499999996,
          "velocity": 0.7874015748031497
        },
        {
          "duration": 0.08333325000000258,
          "durationTicks": 96,
          "midi": 58,
          "name": "A#3",
          "ticks": 58656,
          "time": 50.91661575,
          "velocity": 0.7874015748031497
        },
        {
          "duration": 0.08333324999999547,
          "durationTicks": 96,
          "midi": 67,
          "name": "G4",
          "ticks": 58752,
          "time": 50.999949,
          "velocity": 0.7874015748031497
        },
        {
          "duration": 0.08333325000000258,
          "durationTicks": 96,
          "midi": 58,
          "name": "A#3",
          "ticks": 58848,
          "time": 51.083282249999996,
          "velocity": 0.7874015748031497
        },
        {
          "duration": 0.08333325000000258,
          "durationTicks": 96,
          "midi": 63,
          "name": "D#4",
          "ticks": 58944,
          "time": 51.1666155,
          "velocity": 0.7874015748031497
        },
        {
          "duration": 0.08333324999999547,
          "durationTicks": 96,
          "midi": 58,
          "name": "A#3",
          "ticks": 59040,
          "time": 51.24994875,
          "velocity": 0.7874015748031497
        },
        {
          "duration": 0.08333325000000258,
          "durationTicks": 96,
          "midi": 56,
          "name": "G#3",
          "ticks": 59136,
          "time": 51.333282,
          "velocity": 0.7874015748031497
        },
        {
          "duration": 0.08333324999999547,
          "durationTicks": 96,
          "midi": 63,
          "name": "D#4",
          "ticks": 59232,
          "time": 51.41661525,
          "velocity": 0.7874015748031497
        },
        {
          "duration": 0.08333325000000258,
          "durationTicks": 96,
          "midi": 72,
          "name": "C5",
          "ticks": 59328,
          "time": 51.499948499999995,
          "velocity": 0.7874015748031497
        },
        {
          "duration": 0.08333325000000258,
          "durationTicks": 96,
          "midi": 63,
          "name": "D#4",
          "ticks": 59424,
          "time": 51.58328175,
          "velocity": 0.7874015748031497
        },
        {
          "duration": 0.08333324999999547,
          "durationTicks": 96,
          "midi": 56,
          "name": "G#3",
          "ticks": 59520,
          "time": 51.666615,
          "velocity": 0.7874015748031497
        },
        {
          "duration": 0.08333325000000258,
          "durationTicks": 96,
          "midi": 63,
          "name": "D#4",
          "ticks": 59616,
          "time": 51.749948249999996,
          "velocity": 0.7874015748031497
        },
        {
          "duration": 0.08333325000000258,
          "durationTicks": 96,
          "midi": 72,
          "name": "C5",
          "ticks": 59712,
          "time": 51.8332815,
          "velocity": 0.7874015748031497
        },
        {
          "duration": 0.08333324999999547,
          "durationTicks": 96,
          "midi": 63,
          "name": "D#4",
          "ticks": 59808,
          "time": 51.91661475,
          "velocity": 0.7874015748031497
        },
        {
          "duration": 0.16666649999999805,
          "durationTicks": 192,
          "midi": 55,
          "name": "G3",
          "ticks": 66048,
          "time": 57.333276,
          "velocity": 0.7874015748031497
        },
        {
          "duration": 0.16666649999999805,
          "durationTicks": 192,
          "midi": 64,
          "name": "E4",
          "ticks": 66048,
          "time": 57.333276,
          "velocity": 0.7874015748031497
        },
        {
          "duration": 0.08333325000000258,
          "durationTicks": 96,
          "midi": 67,
          "name": "G4",
          "ticks": 66240,
          "time": 57.499942499999996,
          "velocity": 0.7874015748031497
        },
        {
          "duration": 0.08333325000000258,
          "durationTicks": 96,
          "midi": 76,
          "name": "E5",
          "ticks": 66240,
          "time": 57.499942499999996,
          "velocity": 0.7874015748031497
        },
        {
          "duration": 0.08333324999999547,
          "durationTicks": 96,
          "midi": 67,
          "name": "G4",
          "ticks": 66432,
          "time": 57.666609,
          "velocity": 0.7874015748031497
        },
        {
          "duration": 0.08333324999999547,
          "durationTicks": 96,
          "midi": 76,
          "name": "E5",
          "ticks": 66432,
          "time": 57.666609,
          "velocity": 0.7874015748031497
        },
        {
          "duration": 0.08333325000000258,
          "durationTicks": 96,
          "midi": 67,
          "name": "G4",
          "ticks": 66624,
          "time": 57.8332755,
          "velocity": 0.7874015748031497
        },
        {
          "duration": 0.08333325000000258,
          "durationTicks": 96,
          "midi": 76,
          "name": "E5",
          "ticks": 66624,
          "time": 57.8332755,
          "velocity": 0.7874015748031497
        },
        {
          "duration": 0.08333325000000258,
          "durationTicks": 96,
          "midi": 67,
          "name": "G4",
          "ticks": 66816,
          "time": 57.999942,
          "velocity": 0.7874015748031497
        },
        {
          "duration": 0.08333325000000258,
          "durationTicks": 96,
          "midi": 76,
          "name": "E5",
          "ticks": 66816,
          "time": 57.999942,
          "velocity": 0.7874015748031497
        },
        {
          "duration": 0.08333325000000258,
          "durationTicks": 96,
          "midi": 67,
          "name": "G4",
          "ticks": 67008,
          "time": 58.166608499999995,
          "velocity": 0.7874015748031497
        },
        {
          "duration": 0.08333325000000258,
          "durationTicks": 96,
          "midi": 76,
          "name": "E5",
          "ticks": 67008,
          "time": 58.166608499999995,
          "velocity": 0.7874015748031497
        },
        {
          "duration": 0.08333324999999547,
          "durationTicks": 96,
          "midi": 67,
          "name": "G4",
          "ticks": 67200,
          "time": 58.333275,
          "velocity": 0.7874015748031497
        },
        {
          "duration": 0.08333324999999547,
          "durationTicks": 96,
          "midi": 76,
          "name": "E5",
          "ticks": 67200,
          "time": 58.333275,
          "velocity": 0.7874015748031497
        },
        {
          "duration": 0.08333325000000258,
          "durationTicks": 96,
          "midi": 67,
          "name": "G4",
          "ticks": 67392,
          "time": 58.4999415,
          "velocity": 0.7874015748031497
        },
        {
          "duration": 0.08333325000000258,
          "durationTicks": 96,
          "midi": 76,
          "name": "E5",
          "ticks": 67392,
          "time": 58.4999415,
          "velocity": 0.7874015748031497
        },
        {
          "duration": 0.16666650000000516,
          "durationTicks": 192,
          "midi": 55,
          "name": "G3",
          "ticks": 67584,
          "time": 58.666608,
          "velocity": 0.7874015748031497
        },
        {
          "duration": 0.16666650000000516,
          "durationTicks": 192,
          "midi": 64,
          "name": "E4",
          "ticks": 67584,
          "time": 58.666608,
          "velocity": 0.7874015748031497
        },
        {
          "duration": 0.08333324999999547,
          "durationTicks": 96,
          "midi": 67,
          "name": "G4",
          "ticks": 67776,
          "time": 58.8332745,
          "velocity": 0.7874015748031497
        },
        {
          "duration": 0.08333324999999547,
          "durationTicks": 96,
          "midi": 76,
          "name": "E5",
          "ticks": 67776,
          "time": 58.8332745,
          "velocity": 0.7874015748031497
        },
        {
          "duration": 0.08333324999999547,
          "durationTicks": 96,
          "midi": 67,
          "name": "G4",
          "ticks": 67968,
          "time": 58.999941,
          "velocity": 0.7874015748031497
        },
        {
          "duration": 0.08333324999999547,
          "durationTicks": 96,
          "midi": 76,
          "name": "E5",
          "ticks": 67968,
          "time": 58.999941,
          "velocity": 0.7874015748031497
        },
        {
          "duration": 0.08333325000000258,
          "durationTicks": 96,
          "midi": 67,
          "name": "G4",
          "ticks": 68160,
          "time": 59.1666075,
          "velocity": 0.7874015748031497
        },
        {
          "duration": 0.08333325000000258,
          "durationTicks": 96,
          "midi": 76,
          "name": "E5",
          "ticks": 68160,
          "time": 59.1666075,
          "velocity": 0.7874015748031497
        },
        {
          "duration": 0.08333325000000258,
          "durationTicks": 96,
          "midi": 67,
          "name": "G4",
          "ticks": 68352,
          "time": 59.333273999999996,
          "velocity": 0.7874015748031497
        },
        {
          "duration": 0.08333325000000258,
          "durationTicks": 96,
          "midi": 76,
          "name": "E5",
          "ticks": 68352,
          "time": 59.333273999999996,
          "velocity": 0.7874015748031497
        },
        {
          "duration": 0.08333324999999547,
          "durationTicks": 96,
          "midi": 67,
          "name": "G4",
          "ticks": 68544,
          "time": 59.4999405,
          "velocity": 0.7874015748031497
        },
        {
          "duration": 0.08333324999999547,
          "durationTicks": 96,
          "midi": 76,
          "name": "E5",
          "ticks": 68544,
          "time": 59.4999405,
          "velocity": 0.7874015748031497
        },
        {
          "duration": 0.08333325000000258,
          "durationTicks": 96,
          "midi": 67,
          "name": "G4",
          "ticks": 68736,
          "time": 59.666607,
          "velocity": 0.7874015748031497
        },
        {
          "duration": 0.08333325000000258,
          "durationTicks": 96,
          "midi": 76,
          "name": "E5",
          "ticks": 68736,
          "time": 59.666607,
          "velocity": 0.7874015748031497
        },
        {
          "duration": 0.08333325000000258,
          "durationTicks": 96,
          "midi": 67,
          "name": "G4",
          "ticks": 68928,
          "time": 59.8332735,
          "velocity": 0.7874015748031497
        },
        {
          "duration": 0.08333325000000258,
          "durationTicks": 96,
          "midi": 76,
          "name": "E5",
          "ticks": 68928,
          "time": 59.8332735,
          "velocity": 0.7874015748031497
        },
        {
          "duration": 0.16666650000000516,
          "durationTicks": 192,
          "midi": 65,
          "name": "F4",
          "ticks": 69120,
          "time": 59.999939999999995,
          "velocity": 0.7874015748031497
        },
        {
          "duration": 0.16666650000000516,
          "durationTicks": 192,
          "midi": 57,
          "name": "A3",
          "ticks": 69120,
          "time": 59.999939999999995,
          "velocity": 0.7874015748031497
        },
        {
          "duration": 0.08333324999999547,
          "durationTicks": 96,
          "midi": 77,
          "name": "F5",
          "ticks": 69312,
          "time": 60.1666065,
          "velocity": 0.7874015748031497
        },
        {
          "duration": 0.08333324999999547,
          "durationTicks": 96,
          "midi": 69,
          "name": "A4",
          "ticks": 69312,
          "time": 60.1666065,
          "velocity": 0.7874015748031497
        },
        {
          "duration": 0.08333325000000258,
          "durationTicks": 96,
          "midi": 77,
          "name": "F5",
          "ticks": 69504,
          "time": 60.333273,
          "velocity": 0.7874015748031497
        },
        {
          "duration": 0.08333325000000258,
          "durationTicks": 96,
          "midi": 69,
          "name": "A4",
          "ticks": 69504,
          "time": 60.333273,
          "velocity": 0.7874015748031497
        },
        {
          "duration": 0.08333325000000258,
          "durationTicks": 96,
          "midi": 77,
          "name": "F5",
          "ticks": 69696,
          "time": 60.499939499999996,
          "velocity": 0.7874015748031497
        },
        {
          "duration": 0.08333325000000258,
          "durationTicks": 96,
          "midi": 69,
          "name": "A4",
          "ticks": 69696,
          "time": 60.499939499999996,
          "velocity": 0.7874015748031497
        },
        {
          "duration": 0.16666649999999805,
          "durationTicks": 192,
          "midi": 59,
          "name": "B3",
          "ticks": 69888,
          "time": 60.666606,
          "velocity": 0.7874015748031497
        },
        {
          "duration": 0.16666649999999805,
          "durationTicks": 192,
          "midi": 62,
          "name": "D4",
          "ticks": 69888,
          "time": 60.666606,
          "velocity": 0.7874015748031497
        },
        {
          "duration": 0.08333324999999547,
          "durationTicks": 96,
          "midi": 71,
          "name": "B4",
          "ticks": 70080,
          "time": 60.8332725,
          "velocity": 0.7874015748031497
        },
        {
          "duration": 0.08333324999999547,
          "durationTicks": 96,
          "midi": 77,
          "name": "F5",
          "ticks": 70080,
          "time": 60.8332725,
          "velocity": 0.7874015748031497
        },
        {
          "duration": 0.08333325000000258,
          "durationTicks": 96,
          "midi": 71,
          "name": "B4",
          "ticks": 70272,
          "time": 60.999939,
          "velocity": 0.7874015748031497
        },
        {
          "duration": 0.08333325000000258,
          "durationTicks": 96,
          "midi": 77,
          "name": "F5",
          "ticks": 70272,
          "time": 60.999939,
          "velocity": 0.7874015748031497
        },
        {
          "duration": 0.08333325000000258,
          "durationTicks": 96,
          "midi": 71,
          "name": "B4",
          "ticks": 70464,
          "time": 61.166605499999996,
          "velocity": 0.7874015748031497
        },
        {
          "duration": 0.08333325000000258,
          "durationTicks": 96,
          "midi": 77,
          "name": "F5",
          "ticks": 70464,
          "time": 61.166605499999996,
          "velocity": 0.7874015748031497
        },
        {
          "duration": 0.16666649999999805,
          "durationTicks": 192,
          "midi": 55,
          "name": "G3",
          "ticks": 70656,
          "time": 61.333272,
          "velocity": 0.7874015748031497
        },
        {
          "duration": 0.16666649999999805,
          "durationTicks": 192,
          "midi": 64,
          "name": "E4",
          "ticks": 70656,
          "time": 61.333272,
          "velocity": 0.7874015748031497
        },
        {
          "duration": 0.08333325000000258,
          "durationTicks": 96,
          "midi": 67,
          "name": "G4",
          "ticks": 70848,
          "time": 61.4999385,
          "velocity": 0.7874015748031497
        },
        {
          "duration": 0.08333325000000258,
          "durationTicks": 96,
          "midi": 76,
          "name": "E5",
          "ticks": 70848,
          "time": 61.4999385,
          "velocity": 0.7874015748031497
        },
        {
          "duration": 0.08333325000000258,
          "durationTicks": 96,
          "midi": 67,
          "name": "G4",
          "ticks": 71040,
          "time": 61.666605,
          "velocity": 0.7874015748031497
        },
        {
          "duration": 0.08333325000000258,
          "durationTicks": 96,
          "midi": 76,
          "name": "E5",
          "ticks": 71040,
          "time": 61.666605,
          "velocity": 0.7874015748031497
        },
        {
          "duration": 0.08333325000000258,
          "durationTicks": 96,
          "midi": 67,
          "name": "G4",
          "ticks": 71232,
          "time": 61.833271499999995,
          "velocity": 0.7874015748031497
        },
        {
          "duration": 0.08333325000000258,
          "durationTicks": 96,
          "midi": 76,
          "name": "E5",
          "ticks": 71232,
          "time": 61.833271499999995,
          "velocity": 0.7874015748031497
        },
        {
          "duration": 0.08333324999999547,
          "durationTicks": 96,
          "midi": 67,
          "name": "G4",
          "ticks": 71424,
          "time": 61.999938,
          "velocity": 0.7874015748031497
        },
        {
          "duration": 0.08333324999999547,
          "durationTicks": 96,
          "midi": 76,
          "name": "E5",
          "ticks": 71424,
          "time": 61.999938,
          "velocity": 0.7874015748031497
        },
        {
          "duration": 0.08333325000000258,
          "durationTicks": 96,
          "midi": 67,
          "name": "G4",
          "ticks": 71616,
          "time": 62.1666045,
          "velocity": 0.7874015748031497
        },
        {
          "duration": 0.08333325000000258,
          "durationTicks": 96,
          "midi": 76,
          "name": "E5",
          "ticks": 71616,
          "time": 62.1666045,
          "velocity": 0.7874015748031497
        },
        {
          "duration": 0.08333325000000258,
          "durationTicks": 96,
          "midi": 67,
          "name": "G4",
          "ticks": 71808,
          "time": 62.333270999999996,
          "velocity": 0.7874015748031497
        },
        {
          "duration": 0.08333325000000258,
          "durationTicks": 96,
          "midi": 76,
          "name": "E5",
          "ticks": 71808,
          "time": 62.333270999999996,
          "velocity": 0.7874015748031497
        },
        {
          "duration": 0.08333324999999547,
          "durationTicks": 96,
          "midi": 67,
          "name": "G4",
          "ticks": 72000,
          "time": 62.4999375,
          "velocity": 0.7874015748031497
        },
        {
          "duration": 0.08333324999999547,
          "durationTicks": 96,
          "midi": 76,
          "name": "E5",
          "ticks": 72000,
          "time": 62.4999375,
          "velocity": 0.7874015748031497
        },
        {
          "duration": 0.16666649999999805,
          "durationTicks": 192,
          "midi": 55,
          "name": "G3",
          "ticks": 72192,
          "time": 62.666604,
          "velocity": 0.7874015748031497
        },
        {
          "duration": 0.16666649999999805,
          "durationTicks": 192,
          "midi": 64,
          "name": "E4",
          "ticks": 72192,
          "time": 62.666604,
          "velocity": 0.7874015748031497
        },
        {
          "duration": 0.08333325000000258,
          "durationTicks": 96,
          "midi": 67,
          "name": "G4",
          "ticks": 72384,
          "time": 62.8332705,
          "velocity": 0.7874015748031497
        },
        {
          "duration": 0.08333325000000258,
          "durationTicks": 96,
          "midi": 76,
          "name": "E5",
          "ticks": 72384,
          "time": 62.8332705,
          "velocity": 0.7874015748031497
        },
        {
          "duration": 0.08333325000000258,
          "durationTicks": 96,
          "midi": 67,
          "name": "G4",
          "ticks": 72576,
          "time": 62.999936999999996,
          "velocity": 0.7874015748031497
        },
        {
          "duration": 0.08333325000000258,
          "durationTicks": 96,
          "midi": 76,
          "name": "E5",
          "ticks": 72576,
          "time": 62.999936999999996,
          "velocity": 0.7874015748031497
        },
        {
          "duration": 0.08333324999999547,
          "durationTicks": 96,
          "midi": 67,
          "name": "G4",
          "ticks": 72768,
          "time": 63.1666035,
          "velocity": 0.7874015748031497
        },
        {
          "duration": 0.08333324999999547,
          "durationTicks": 96,
          "midi": 76,
          "name": "E5",
          "ticks": 72768,
          "time": 63.1666035,
          "velocity": 0.7874015748031497
        },
        {
          "duration": 0.08333325000000258,
          "durationTicks": 96,
          "midi": 67,
          "name": "G4",
          "ticks": 72960,
          "time": 63.33327,
          "velocity": 0.7874015748031497
        },
        {
          "duration": 0.08333325000000258,
          "durationTicks": 96,
          "midi": 76,
          "name": "E5",
          "ticks": 72960,
          "time": 63.33327,
          "velocity": 0.7874015748031497
        },
        {
          "duration": 0.08333325000000258,
          "durationTicks": 96,
          "midi": 67,
          "name": "G4",
          "ticks": 73152,
          "time": 63.4999365,
          "velocity": 0.7874015748031497
        },
        {
          "duration": 0.08333325000000258,
          "durationTicks": 96,
          "midi": 76,
          "name": "E5",
          "ticks": 73152,
          "time": 63.4999365,
          "velocity": 0.7874015748031497
        },
        {
          "duration": 0.08333325000000258,
          "durationTicks": 96,
          "midi": 67,
          "name": "G4",
          "ticks": 73344,
          "time": 63.666602999999995,
          "velocity": 0.7874015748031497
        },
        {
          "duration": 0.08333325000000258,
          "durationTicks": 96,
          "midi": 76,
          "name": "E5",
          "ticks": 73344,
          "time": 63.666602999999995,
          "velocity": 0.7874015748031497
        },
        {
          "duration": 0.08333324999999547,
          "durationTicks": 96,
          "midi": 67,
          "name": "G4",
          "ticks": 73536,
          "time": 63.8332695,
          "velocity": 0.7874015748031497
        },
        {
          "duration": 0.08333324999999547,
          "durationTicks": 96,
          "midi": 76,
          "name": "E5",
          "ticks": 73536,
          "time": 63.8332695,
          "velocity": 0.7874015748031497
        },
        {
          "duration": 0.16666649999999805,
          "durationTicks": 192,
          "midi": 55,
          "name": "G3",
          "ticks": 73728,
          "time": 63.999936,
          "velocity": 0.7874015748031497
        },
        {
          "duration": 0.16666649999999805,
          "durationTicks": 192,
          "midi": 64,
          "name": "E4",
          "ticks": 73728,
          "time": 63.999936,
          "velocity": 0.7874015748031497
        },
        {
          "duration": 0.08333324999999547,
          "durationTicks": 96,
          "midi": 67,
          "name": "G4",
          "ticks": 73920,
          "time": 64.1666025,
          "velocity": 0.7874015748031497
        },
        {
          "duration": 0.08333324999999547,
          "durationTicks": 96,
          "midi": 76,
          "name": "E5",
          "ticks": 73920,
          "time": 64.1666025,
          "velocity": 0.7874015748031497
        },
        {
          "duration": 0.08333324999999547,
          "durationTicks": 96,
          "midi": 67,
          "name": "G4",
          "ticks": 74112,
          "time": 64.333269,
          "velocity": 0.7874015748031497
        },
        {
          "duration": 0.08333324999999547,
          "durationTicks": 96,
          "midi": 76,
          "name": "E5",
          "ticks": 74112,
          "time": 64.333269,
          "velocity": 0.7874015748031497
        },
        {
          "duration": 0.08333325000000968,
          "durationTicks": 96,
          "midi": 67,
          "name": "G4",
          "ticks": 74304,
          "time": 64.49993549999999,
          "velocity": 0.7874015748031497
        },
        {
          "duration": 0.08333325000000968,
          "durationTicks": 96,
          "midi": 76,
          "name": "E5",
          "ticks": 74304,
          "time": 64.49993549999999,
          "velocity": 0.7874015748031497
        },
        {
          "duration": 0.08333324999999547,
          "durationTicks": 96,
          "midi": 67,
          "name": "G4",
          "ticks": 74496,
          "time": 64.666602,
          "velocity": 0.7874015748031497
        },
        {
          "duration": 0.08333324999999547,
          "durationTicks": 96,
          "midi": 76,
          "name": "E5",
          "ticks": 74496,
          "time": 64.666602,
          "velocity": 0.7874015748031497
        },
        {
          "duration": 0.08333324999999547,
          "durationTicks": 96,
          "midi": 67,
          "name": "G4",
          "ticks": 74688,
          "time": 64.8332685,
          "velocity": 0.7874015748031497
        },
        {
          "duration": 0.08333324999999547,
          "durationTicks": 96,
          "midi": 76,
          "name": "E5",
          "ticks": 74688,
          "time": 64.8332685,
          "velocity": 0.7874015748031497
        },
        {
          "duration": 0.08333325000000968,
          "durationTicks": 96,
          "midi": 67,
          "name": "G4",
          "ticks": 74880,
          "time": 64.999935,
          "velocity": 0.7874015748031497
        },
        {
          "duration": 0.08333325000000968,
          "durationTicks": 96,
          "midi": 76,
          "name": "E5",
          "ticks": 74880,
          "time": 64.999935,
          "velocity": 0.7874015748031497
        },
        {
          "duration": 0.08333324999999547,
          "durationTicks": 96,
          "midi": 67,
          "name": "G4",
          "ticks": 75072,
          "time": 65.1666015,
          "velocity": 0.7874015748031497
        },
        {
          "duration": 0.08333324999999547,
          "durationTicks": 96,
          "midi": 76,
          "name": "E5",
          "ticks": 75072,
          "time": 65.1666015,
          "velocity": 0.7874015748031497
        },
        {
          "duration": 0.16666649999999095,
          "durationTicks": 192,
          "midi": 65,
          "name": "F4",
          "ticks": 75264,
          "time": 65.333268,
          "velocity": 0.7874015748031497
        },
        {
          "duration": 0.16666649999999095,
          "durationTicks": 192,
          "midi": 57,
          "name": "A3",
          "ticks": 75264,
          "time": 65.333268,
          "velocity": 0.7874015748031497
        },
        {
          "duration": 0.08333325000000968,
          "durationTicks": 96,
          "midi": 77,
          "name": "F5",
          "ticks": 75456,
          "time": 65.4999345,
          "velocity": 0.7874015748031497
        },
        {
          "duration": 0.08333325000000968,
          "durationTicks": 96,
          "midi": 69,
          "name": "A4",
          "ticks": 75456,
          "time": 65.4999345,
          "velocity": 0.7874015748031497
        },
        {
          "duration": 0.08333324999999547,
          "durationTicks": 96,
          "midi": 77,
          "name": "F5",
          "ticks": 75648,
          "time": 65.666601,
          "velocity": 0.7874015748031497
        },
        {
          "duration": 0.08333324999999547,
          "durationTicks": 96,
          "midi": 69,
          "name": "A4",
          "ticks": 75648,
          "time": 65.666601,
          "velocity": 0.7874015748031497
        },
        {
          "duration": 0.08333324999999547,
          "durationTicks": 96,
          "midi": 77,
          "name": "F5",
          "ticks": 75840,
          "time": 65.8332675,
          "velocity": 0.7874015748031497
        },
        {
          "duration": 0.08333324999999547,
          "durationTicks": 96,
          "midi": 69,
          "name": "A4",
          "ticks": 75840,
          "time": 65.8332675,
          "velocity": 0.7874015748031497
        },
        {
          "duration": 0.16666650000000516,
          "durationTicks": 192,
          "midi": 62,
          "name": "D4",
          "ticks": 76032,
          "time": 65.999934,
          "velocity": 0.7874015748031497
        },
        {
          "duration": 0.16666650000000516,
          "durationTicks": 192,
          "midi": 56,
          "name": "G#3",
          "ticks": 76032,
          "time": 65.999934,
          "velocity": 0.7874015748031497
        },
        {
          "duration": 0.08333324999999547,
          "durationTicks": 96,
          "midi": 68,
          "name": "G#4",
          "ticks": 76224,
          "time": 66.1666005,
          "velocity": 0.7874015748031497
        },
        {
          "duration": 0.08333324999999547,
          "durationTicks": 96,
          "midi": 76,
          "name": "E5",
          "ticks": 76224,
          "time": 66.1666005,
          "velocity": 0.7874015748031497
        },
        {
          "duration": 0.08333325000000968,
          "durationTicks": 96,
          "midi": 68,
          "name": "G#4",
          "ticks": 76416,
          "time": 66.33326699999999,
          "velocity": 0.7874015748031497
        },
        {
          "duration": 0.08333325000000968,
          "durationTicks": 96,
          "midi": 76,
          "name": "E5",
          "ticks": 76416,
          "time": 66.33326699999999,
          "velocity": 0.7874015748031497
        },
        {
          "duration": 0.08333324999999547,
          "durationTicks": 96,
          "midi": 68,
          "name": "G#4",
          "ticks": 76608,
          "time": 66.4999335,
          "velocity": 0.7874015748031497
        },
        {
          "duration": 0.08333324999999547,
          "durationTicks": 96,
          "midi": 76,
          "name": "E5",
          "ticks": 76608,
          "time": 66.4999335,
          "velocity": 0.7874015748031497
        },
        {
          "duration": 0.08333324999999547,
          "durationTicks": 96,
          "midi": 64,
          "name": "E4",
          "ticks": 76800,
          "time": 66.6666,
          "velocity": 0.7874015748031497
        },
        {
          "duration": 0.08333324999999547,
          "durationTicks": 96,
          "midi": 69,
          "name": "A4",
          "ticks": 76800,
          "time": 66.6666,
          "velocity": 0.7874015748031497
        },
        {
          "duration": 0.08333324999999547,
          "durationTicks": 96,
          "midi": 69,
          "name": "A4",
          "ticks": 76896,
          "time": 66.74993325,
          "velocity": 0.7874015748031497
        },
        {
          "duration": 0.08333324999999547,
          "durationTicks": 96,
          "midi": 72,
          "name": "C5",
          "ticks": 76896,
          "time": 66.74993325,
          "velocity": 0.7874015748031497
        },
        {
          "duration": 0.08333325000000968,
          "durationTicks": 96,
          "midi": 72,
          "name": "C5",
          "ticks": 76992,
          "time": 66.8332665,
          "velocity": 0.7874015748031497
        },
        {
          "duration": 0.08333325000000968,
          "durationTicks": 96,
          "midi": 76,
          "name": "E5",
          "ticks": 76992,
          "time": 66.8332665,
          "velocity": 0.7874015748031497
        },
        {
          "duration": 0.08333324999999547,
          "durationTicks": 96,
          "midi": 69,
          "name": "A4",
          "ticks": 77088,
          "time": 66.91659975,
          "velocity": 0.7874015748031497
        },
        {
          "duration": 0.08333324999999547,
          "durationTicks": 96,
          "midi": 72,
          "name": "C5",
          "ticks": 77088,
          "time": 66.91659975,
          "velocity": 0.7874015748031497
        },
        {
          "duration": 0.08333324999999547,
          "durationTicks": 96,
          "midi": 72,
          "name": "C5",
          "ticks": 77184,
          "time": 66.999933,
          "velocity": 0.7874015748031497
        },
        {
          "duration": 0.08333324999999547,
          "durationTicks": 96,
          "midi": 76,
          "name": "E5",
          "ticks": 77184,
          "time": 66.999933,
          "velocity": 0.7874015748031497
        },
        {
          "duration": 0.08333325000000968,
          "durationTicks": 96,
          "midi": 69,
          "name": "A4",
          "ticks": 77280,
          "time": 67.08326625,
          "velocity": 0.7874015748031497
        },
        {
          "duration": 0.08333325000000968,
          "durationTicks": 96,
          "midi": 72,
          "name": "C5",
          "ticks": 77280,
          "time": 67.08326625,
          "velocity": 0.7874015748031497
        },
        {
          "duration": 0.08333324999999547,
          "durationTicks": 96,
          "midi": 72,
          "name": "C5",
          "ticks": 77376,
          "time": 67.1665995,
          "velocity": 0.7874015748031497
        },
        {
          "duration": 0.08333324999999547,
          "durationTicks": 96,
          "midi": 76,
          "name": "E5",
          "ticks": 77376,
          "time": 67.1665995,
          "velocity": 0.7874015748031497
        },
        {
          "duration": 0.08333324999999547,
          "durationTicks": 96,
          "midi": 69,
          "name": "A4",
          "ticks": 77472,
          "time": 67.24993275,
          "velocity": 0.7874015748031497
        },
        {
          "duration": 0.08333324999999547,
          "durationTicks": 96,
          "midi": 72,
          "name": "C5",
          "ticks": 77472,
          "time": 67.24993275,
          "velocity": 0.7874015748031497
        },
        {
          "duration": 0.08333325000000968,
          "durationTicks": 96,
          "midi": 62,
          "name": "D4",
          "ticks": 77568,
          "time": 67.333266,
          "velocity": 0.7874015748031497
        },
        {
          "duration": 0.08333325000000968,
          "durationTicks": 96,
          "midi": 67,
          "name": "G4",
          "ticks": 77568,
          "time": 67.333266,
          "velocity": 0.7874015748031497
        },
        {
          "duration": 0.08333324999999547,
          "durationTicks": 96,
          "midi": 67,
          "name": "G4",
          "ticks": 77664,
          "time": 67.41659925,
          "velocity": 0.7874015748031497
        },
        {
          "duration": 0.08333324999999547,
          "durationTicks": 96,
          "midi": 72,
          "name": "C5",
          "ticks": 77664,
          "time": 67.41659925,
          "velocity": 0.7874015748031497
        },
        {
          "duration": 0.08333324999999547,
          "durationTicks": 96,
          "midi": 72,
          "name": "C5",
          "ticks": 77760,
          "time": 67.4999325,
          "velocity": 0.7874015748031497
        },
        {
          "duration": 0.08333324999999547,
          "durationTicks": 96,
          "midi": 76,
          "name": "E5",
          "ticks": 77760,
          "time": 67.4999325,
          "velocity": 0.7874015748031497
        },
        {
          "duration": 0.08333325000000968,
          "durationTicks": 96,
          "midi": 67,
          "name": "G4",
          "ticks": 77856,
          "time": 67.58326575,
          "velocity": 0.7874015748031497
        },
        {
          "duration": 0.08333325000000968,
          "durationTicks": 96,
          "midi": 72,
          "name": "C5",
          "ticks": 77856,
          "time": 67.58326575,
          "velocity": 0.7874015748031497
        },
        {
          "duration": 0.08333324999999547,
          "durationTicks": 96,
          "midi": 72,
          "name": "C5",
          "ticks": 77952,
          "time": 67.666599,
          "velocity": 0.7874015748031497
        },
        {
          "duration": 0.08333324999999547,
          "durationTicks": 96,
          "midi": 76,
          "name": "E5",
          "ticks": 77952,
          "time": 67.666599,
          "velocity": 0.7874015748031497
        },
        {
          "duration": 0.08333324999999547,
          "durationTicks": 96,
          "midi": 67,
          "name": "G4",
          "ticks": 78048,
          "time": 67.74993225,
          "velocity": 0.7874015748031497
        },
        {
          "duration": 0.08333324999999547,
          "durationTicks": 96,
          "midi": 72,
          "name": "C5",
          "ticks": 78048,
          "time": 67.74993225,
          "velocity": 0.7874015748031497
        },
        {
          "duration": 0.08333324999999547,
          "durationTicks": 96,
          "midi": 72,
          "name": "C5",
          "ticks": 78144,
          "time": 67.8332655,
          "velocity": 0.7874015748031497
        },
        {
          "duration": 0.08333324999999547,
          "durationTicks": 96,
          "midi": 76,
          "name": "E5",
          "ticks": 78144,
          "time": 67.8332655,
          "velocity": 0.7874015748031497
        },
        {
          "duration": 0.08333325000000968,
          "durationTicks": 96,
          "midi": 67,
          "name": "G4",
          "ticks": 78240,
          "time": 67.91659874999999,
          "velocity": 0.7874015748031497
        },
        {
          "duration": 0.08333325000000968,
          "durationTicks": 96,
          "midi": 72,
          "name": "C5",
          "ticks": 78240,
          "time": 67.91659874999999,
          "velocity": 0.7874015748031497
        },
        {
          "duration": 0.22222199999998793,
          "durationTicks": 256,
          "midi": 69,
          "name": "A4",
          "ticks": 78336,
          "time": 67.999932,
          "velocity": 0.7874015748031497
        },
        {
          "duration": 0.22222199999998793,
          "durationTicks": 256,
          "midi": 77,
          "name": "F5",
          "ticks": 78336,
          "time": 67.999932,
          "velocity": 0.7874015748031497
        },
        {
          "duration": 0.08333324999999547,
          "durationTicks": 96,
          "midi": 69,
          "name": "A4",
          "ticks": 78624,
          "time": 68.24993175,
          "velocity": 0.7874015748031497
        },
        {
          "duration": 0.08333324999999547,
          "durationTicks": 96,
          "midi": 77,
          "name": "F5",
          "ticks": 78624,
          "time": 68.24993175,
          "velocity": 0.7874015748031497
        },
        {
          "duration": 0.08333325000000968,
          "durationTicks": 96,
          "midi": 71,
          "name": "B4",
          "ticks": 79104,
          "time": 68.666598,
          "velocity": 0.7874015748031497
        },
        {
          "duration": 0.08333325000000968,
          "durationTicks": 96,
          "midi": 79,
          "name": "G5",
          "ticks": 79104,
          "time": 68.666598,
          "velocity": 0.7874015748031497
        },
        {
          "duration": 0.08333324999999547,
          "durationTicks": 96,
          "midi": 71,
          "name": "B4",
          "ticks": 79296,
          "time": 68.8332645,
          "velocity": 0.7874015748031497
        },
        {
          "duration": 0.08333324999999547,
          "durationTicks": 96,
          "midi": 79,
          "name": "G5",
          "ticks": 79296,
          "time": 68.8332645,
          "velocity": 0.7874015748031497
        },
        {
          "duration": 0.16666650000000516,
          "durationTicks": 192,
          "midi": 55,
          "name": "G3",
          "ticks": 79872,
          "time": 69.333264,
          "velocity": 0.7874015748031497
        },
        {
          "duration": 0.16666650000000516,
          "durationTicks": 192,
          "midi": 64,
          "name": "E4",
          "ticks": 79872,
          "time": 69.333264,
          "velocity": 0.7874015748031497
        },
        {
          "duration": 0.08333324999999547,
          "durationTicks": 96,
          "midi": 67,
          "name": "G4",
          "ticks": 80064,
          "time": 69.4999305,
          "velocity": 0.7874015748031497
        },
        {
          "duration": 0.08333324999999547,
          "durationTicks": 96,
          "midi": 76,
          "name": "E5",
          "ticks": 80064,
          "time": 69.4999305,
          "velocity": 0.7874015748031497
        },
        {
          "duration": 0.08333324999999547,
          "durationTicks": 96,
          "midi": 67,
          "name": "G4",
          "ticks": 80256,
          "time": 69.666597,
          "velocity": 0.7874015748031497
        },
        {
          "duration": 0.08333324999999547,
          "durationTicks": 96,
          "midi": 76,
          "name": "E5",
          "ticks": 80256,
          "time": 69.666597,
          "velocity": 0.7874015748031497
        },
        {
          "duration": 0.08333324999999547,
          "durationTicks": 96,
          "midi": 67,
          "name": "G4",
          "ticks": 80448,
          "time": 69.8332635,
          "velocity": 0.7874015748031497
        },
        {
          "duration": 0.08333324999999547,
          "durationTicks": 96,
          "midi": 76,
          "name": "E5",
          "ticks": 80448,
          "time": 69.8332635,
          "velocity": 0.7874015748031497
        },
        {
          "duration": 0.08333325000000968,
          "durationTicks": 96,
          "midi": 67,
          "name": "G4",
          "ticks": 80640,
          "time": 69.99992999999999,
          "velocity": 0.7874015748031497
        },
        {
          "duration": 0.08333325000000968,
          "durationTicks": 96,
          "midi": 76,
          "name": "E5",
          "ticks": 80640,
          "time": 69.99992999999999,
          "velocity": 0.7874015748031497
        },
        {
          "duration": 0.08333324999999547,
          "durationTicks": 96,
          "midi": 67,
          "name": "G4",
          "ticks": 80832,
          "time": 70.1665965,
          "velocity": 0.7874015748031497
        },
        {
          "duration": 0.08333324999999547,
          "durationTicks": 96,
          "midi": 76,
          "name": "E5",
          "ticks": 80832,
          "time": 70.1665965,
          "velocity": 0.7874015748031497
        },
        {
          "duration": 0.08333324999999547,
          "durationTicks": 96,
          "midi": 67,
          "name": "G4",
          "ticks": 81024,
          "time": 70.333263,
          "velocity": 0.7874015748031497
        },
        {
          "duration": 0.08333324999999547,
          "durationTicks": 96,
          "midi": 76,
          "name": "E5",
          "ticks": 81024,
          "time": 70.333263,
          "velocity": 0.7874015748031497
        },
        {
          "duration": 0.08333325000000968,
          "durationTicks": 96,
          "midi": 67,
          "name": "G4",
          "ticks": 81216,
          "time": 70.4999295,
          "velocity": 0.7874015748031497
        },
        {
          "duration": 0.08333325000000968,
          "durationTicks": 96,
          "midi": 76,
          "name": "E5",
          "ticks": 81216,
          "time": 70.4999295,
          "velocity": 0.7874015748031497
        },
        {
          "duration": 0.16666650000000516,
          "durationTicks": 192,
          "midi": 55,
          "name": "G3",
          "ticks": 81408,
          "time": 70.666596,
          "velocity": 0.7874015748031497
        },
        {
          "duration": 0.16666650000000516,
          "durationTicks": 192,
          "midi": 64,
          "name": "E4",
          "ticks": 81408,
          "time": 70.666596,
          "velocity": 0.7874015748031497
        },
        {
          "duration": 0.08333324999999547,
          "durationTicks": 96,
          "midi": 67,
          "name": "G4",
          "ticks": 81600,
          "time": 70.8332625,
          "velocity": 0.7874015748031497
        },
        {
          "duration": 0.08333324999999547,
          "durationTicks": 96,
          "midi": 76,
          "name": "E5",
          "ticks": 81600,
          "time": 70.8332625,
          "velocity": 0.7874015748031497
        },
        {
          "duration": 0.08333325000000968,
          "durationTicks": 96,
          "midi": 67,
          "name": "G4",
          "ticks": 81792,
          "time": 70.999929,
          "velocity": 0.7874015748031497
        },
        {
          "duration": 0.08333325000000968,
          "durationTicks": 96,
          "midi": 76,
          "name": "E5",
          "ticks": 81792,
          "time": 70.999929,
          "velocity": 0.7874015748031497
        },
        {
          "duration": 0.08333324999999547,
          "durationTicks": 96,
          "midi": 67,
          "name": "G4",
          "ticks": 81984,
          "time": 71.1665955,
          "velocity": 0.7874015748031497
        },
        {
          "duration": 0.08333324999999547,
          "durationTicks": 96,
          "midi": 76,
          "name": "E5",
          "ticks": 81984,
          "time": 71.1665955,
          "velocity": 0.7874015748031497
        },
        {
          "duration": 0.08333324999999547,
          "durationTicks": 96,
          "midi": 67,
          "name": "G4",
          "ticks": 82176,
          "time": 71.333262,
          "velocity": 0.7874015748031497
        },
        {
          "duration": 0.08333324999999547,
          "durationTicks": 96,
          "midi": 76,
          "name": "E5",
          "ticks": 82176,
          "time": 71.333262,
          "velocity": 0.7874015748031497
        },
        {
          "duration": 0.08333324999999547,
          "durationTicks": 96,
          "midi": 67,
          "name": "G4",
          "ticks": 82368,
          "time": 71.4999285,
          "velocity": 0.7874015748031497
        },
        {
          "duration": 0.08333324999999547,
          "durationTicks": 96,
          "midi": 76,
          "name": "E5",
          "ticks": 82368,
          "time": 71.4999285,
          "velocity": 0.7874015748031497
        },
        {
          "duration": 0.08333324999999547,
          "durationTicks": 96,
          "midi": 67,
          "name": "G4",
          "ticks": 82560,
          "time": 71.666595,
          "velocity": 0.7874015748031497
        },
        {
          "duration": 0.08333324999999547,
          "durationTicks": 96,
          "midi": 76,
          "name": "E5",
          "ticks": 82560,
          "time": 71.666595,
          "velocity": 0.7874015748031497
        },
        {
          "duration": 0.08333325000000968,
          "durationTicks": 96,
          "midi": 67,
          "name": "G4",
          "ticks": 82752,
          "time": 71.83326149999999,
          "velocity": 0.7874015748031497
        },
        {
          "duration": 0.08333325000000968,
          "durationTicks": 96,
          "midi": 76,
          "name": "E5",
          "ticks": 82752,
          "time": 71.83326149999999,
          "velocity": 0.7874015748031497
        },
        {
          "duration": 0.08333324999999547,
          "durationTicks": 96,
          "midi": 53,
          "name": "F3",
          "ticks": 82944,
          "time": 71.999928,
          "velocity": 0.7874015748031497
        },
        {
          "duration": 0.08333325000000968,
          "durationTicks": 96,
          "midi": 60,
          "name": "C4",
          "ticks": 83040,
          "time": 72.08326124999999,
          "velocity": 0.7874015748031497
        },
        {
          "duration": 0.08333324999999547,
          "durationTicks": 96,
          "midi": 68,
          "name": "G#4",
          "ticks": 83136,
          "time": 72.1665945,
          "velocity": 0.7874015748031497
        },
        {
          "duration": 0.08333324999999547,
          "durationTicks": 96,
          "midi": 60,
          "name": "C4",
          "ticks": 83232,
          "time": 72.24992775,
          "velocity": 0.7874015748031497
        },
        {
          "duration": 0.08333325000000968,
          "durationTicks": 96,
          "midi": 68,
          "name": "G#4",
          "ticks": 83328,
          "time": 72.333261,
          "velocity": 0.7874015748031497
        },
        {
          "duration": 0.08333324999999547,
          "durationTicks": 96,
          "midi": 60,
          "name": "C4",
          "ticks": 83424,
          "time": 72.41659425,
          "velocity": 0.7874015748031497
        },
        {
          "duration": 0.08333324999999547,
          "durationTicks": 96,
          "midi": 68,
          "name": "G#4",
          "ticks": 83520,
          "time": 72.4999275,
          "velocity": 0.7874015748031497
        },
        {
          "duration": 0.08333325000000968,
          "durationTicks": 96,
          "midi": 60,
          "name": "C4",
          "ticks": 83616,
          "time": 72.58326075,
          "velocity": 0.7874015748031497
        },
        {
          "duration": 0.08333324999999547,
          "durationTicks": 96,
          "midi": 58,
          "name": "A#3",
          "ticks": 83712,
          "time": 72.666594,
          "velocity": 0.7874015748031497
        },
        {
          "duration": 0.08333324999999547,
          "durationTicks": 96,
          "midi": 65,
          "name": "F4",
          "ticks": 83808,
          "time": 72.74992725,
          "velocity": 0.7874015748031497
        },
        {
          "duration": 0.08333325000000968,
          "durationTicks": 96,
          "midi": 70,
          "name": "A#4",
          "ticks": 83904,
          "time": 72.8332605,
          "velocity": 0.7874015748031497
        },
        {
          "duration": 0.08333324999999547,
          "durationTicks": 96,
          "midi": 65,
          "name": "F4",
          "ticks": 84000,
          "time": 72.91659375,
          "velocity": 0.7874015748031497
        },
        {
          "duration": 0.08333324999999547,
          "durationTicks": 96,
          "midi": 70,
          "name": "A#4",
          "ticks": 84096,
          "time": 72.999927,
          "velocity": 0.7874015748031497
        },
        {
          "duration": 0.08333325000000968,
          "durationTicks": 96,
          "midi": 65,
          "name": "F4",
          "ticks": 84192,
          "time": 73.08326025,
          "velocity": 0.7874015748031497
        },
        {
          "duration": 0.08333324999999547,
          "durationTicks": 96,
          "midi": 70,
          "name": "A#4",
          "ticks": 84288,
          "time": 73.1665935,
          "velocity": 0.7874015748031497
        },
        {
          "duration": 0.08333324999999547,
          "durationTicks": 96,
          "midi": 65,
          "name": "F4",
          "ticks": 84384,
          "time": 73.24992675,
          "velocity": 0.7874015748031497
        },
        {
          "duration": 0.08333324999999547,
          "durationTicks": 96,
          "midi": 51,
          "name": "D#3",
          "ticks": 84480,
          "time": 73.33326,
          "velocity": 0.7874015748031497
        },
        {
          "duration": 0.08333325000000968,
          "durationTicks": 96,
          "midi": 60,
          "name": "C4",
          "ticks": 84576,
          "time": 73.41659324999999,
          "velocity": 0.7874015748031497
        },
        {
          "duration": 0.08333324999999547,
          "durationTicks": 96,
          "midi": 63,
          "name": "D#4",
          "ticks": 84672,
          "time": 73.4999265,
          "velocity": 0.7874015748031497
        },
        {
          "duration": 0.08333324999999547,
          "durationTicks": 96,
          "midi": 60,
          "name": "C4",
          "ticks": 84768,
          "time": 73.58325975,
          "velocity": 0.7874015748031497
        },
        {
          "duration": 0.08333325000000968,
          "durationTicks": 96,
          "midi": 67,
          "name": "G4",
          "ticks": 84864,
          "time": 73.66659299999999,
          "velocity": 0.7874015748031497
        },
        {
          "duration": 0.08333324999999547,
          "durationTicks": 96,
          "midi": 60,
          "name": "C4",
          "ticks": 84960,
          "time": 73.74992625,
          "velocity": 0.7874015748031497
        },
        {
          "duration": 0.08333324999999547,
          "durationTicks": 96,
          "midi": 63,
          "name": "D#4",
          "ticks": 85056,
          "time": 73.8332595,
          "velocity": 0.7874015748031497
        },
        {
          "duration": 0.08333325000000968,
          "durationTicks": 96,
          "midi": 56,
          "name": "G#3",
          "ticks": 85152,
          "time": 73.91659274999999,
          "velocity": 0.7874015748031497
        },
        {
          "duration": 0.08333324999999547,
          "durationTicks": 96,
          "midi": 63,
          "name": "D#4",
          "ticks": 85248,
          "time": 73.999926,
          "velocity": 0.7874015748031497
        },
        {
          "duration": 0.08333324999999547,
          "durationTicks": 96,
          "midi": 68,
          "name": "G#4",
          "ticks": 85344,
          "time": 74.08325925,
          "velocity": 0.7874015748031497
        },
        {
          "duration": 0.08333325000000968,
          "durationTicks": 96,
          "midi": 63,
          "name": "D#4",
          "ticks": 85440,
          "time": 74.1665925,
          "velocity": 0.7874015748031497
        },
        {
          "duration": 0.08333324999999547,
          "durationTicks": 96,
          "midi": 56,
          "name": "G#3",
          "ticks": 85536,
          "time": 74.24992575,
          "velocity": 0.7874015748031497
        },
        {
          "duration": 0.08333324999999547,
          "durationTicks": 96,
          "midi": 63,
          "name": "D#4",
          "ticks": 85632,
          "time": 74.333259,
          "velocity": 0.7874015748031497
        },
        {
          "duration": 0.08333325000000968,
          "durationTicks": 96,
          "midi": 68,
          "name": "G#4",
          "ticks": 85728,
          "time": 74.41659225,
          "velocity": 0.7874015748031497
        },
        {
          "duration": 0.08333324999999547,
          "durationTicks": 96,
          "midi": 63,
          "name": "D#4",
          "ticks": 85824,
          "time": 74.4999255,
          "velocity": 0.7874015748031497
        },
        {
          "duration": 0.08333324999999547,
          "durationTicks": 96,
          "midi": 56,
          "name": "G#3",
          "ticks": 85920,
          "time": 74.58325875,
          "velocity": 0.7874015748031497
        },
        {
          "duration": 0.08333325000000968,
          "durationTicks": 96,
          "midi": 53,
          "name": "F3",
          "ticks": 86016,
          "time": 74.666592,
          "velocity": 0.7874015748031497
        },
        {
          "duration": 0.08333324999999547,
          "durationTicks": 96,
          "midi": 60,
          "name": "C4",
          "ticks": 86112,
          "time": 74.74992525,
          "velocity": 0.7874015748031497
        },
        {
          "duration": 0.08333324999999547,
          "durationTicks": 96,
          "midi": 68,
          "name": "G#4",
          "ticks": 86208,
          "time": 74.8332585,
          "velocity": 0.7874015748031497
        },
        {
          "duration": 0.08333325000000968,
          "durationTicks": 96,
          "midi": 60,
          "name": "C4",
          "ticks": 86304,
          "time": 74.91659175,
          "velocity": 0.7874015748031497
        },
        {
          "duration": 0.08333324999999547,
          "durationTicks": 96,
          "midi": 68,
          "name": "G#4",
          "ticks": 86400,
          "time": 74.999925,
          "velocity": 0.7874015748031497
        },
        {
          "duration": 0.08333324999999547,
          "durationTicks": 96,
          "midi": 60,
          "name": "C4",
          "ticks": 86496,
          "time": 75.08325825,
          "velocity": 0.7874015748031497
        },
        {
          "duration": 0.08333324999999547,
          "durationTicks": 96,
          "midi": 68,
          "name": "G#4",
          "ticks": 86592,
          "time": 75.1665915,
          "velocity": 0.7874015748031497
        },
        {
          "duration": 0.08333325000000968,
          "durationTicks": 96,
          "midi": 60,
          "name": "C4",
          "ticks": 86688,
          "time": 75.24992474999999,
          "velocity": 0.7874015748031497
        },
        {
          "duration": 0.08333324999999547,
          "durationTicks": 96,
          "midi": 58,
          "name": "A#3",
          "ticks": 86784,
          "time": 75.333258,
          "velocity": 0.7874015748031497
        },
        {
          "duration": 0.08333324999999547,
          "durationTicks": 96,
          "midi": 65,
          "name": "F4",
          "ticks": 86880,
          "time": 75.41659125,
          "velocity": 0.7874015748031497
        },
        {
          "duration": 0.08333325000000968,
          "durationTicks": 96,
          "midi": 70,
          "name": "A#4",
          "ticks": 86976,
          "time": 75.49992449999999,
          "velocity": 0.7874015748031497
        },
        {
          "duration": 0.08333324999999547,
          "durationTicks": 96,
          "midi": 65,
          "name": "F4",
          "ticks": 87072,
          "time": 75.58325775,
          "velocity": 0.7874015748031497
        },
        {
          "duration": 0.08333324999999547,
          "durationTicks": 96,
          "midi": 70,
          "name": "A#4",
          "ticks": 87168,
          "time": 75.666591,
          "velocity": 0.7874015748031497
        },
        {
          "duration": 0.08333325000000968,
          "durationTicks": 96,
          "midi": 65,
          "name": "F4",
          "ticks": 87264,
          "time": 75.74992424999999,
          "velocity": 0.7874015748031497
        },
        {
          "duration": 0.08333324999999547,
          "durationTicks": 96,
          "midi": 70,
          "name": "A#4",
          "ticks": 87360,
          "time": 75.8332575,
          "velocity": 0.7874015748031497
        },
        {
          "duration": 0.08333324999999547,
          "durationTicks": 96,
          "midi": 65,
          "name": "F4",
          "ticks": 87456,
          "time": 75.91659075,
          "velocity": 0.7874015748031497
        },
        {
          "duration": 0.08333325000000968,
          "durationTicks": 96,
          "midi": 51,
          "name": "D#3",
          "ticks": 87552,
          "time": 75.999924,
          "velocity": 0.7874015748031497
        },
        {
          "duration": 0.08333324999999547,
          "durationTicks": 96,
          "midi": 58,
          "name": "A#3",
          "ticks": 87648,
          "time": 76.08325725,
          "velocity": 0.7874015748031497
        },
        {
          "duration": 0.08333324999999547,
          "durationTicks": 96,
          "midi": 63,
          "name": "D#4",
          "ticks": 87744,
          "time": 76.1665905,
          "velocity": 0.7874015748031497
        },
        {
          "duration": 0.08333325000000968,
          "durationTicks": 96,
          "midi": 58,
          "name": "A#3",
          "ticks": 87840,
          "time": 76.24992375,
          "velocity": 0.7874015748031497
        },
        {
          "duration": 0.08333324999999547,
          "durationTicks": 96,
          "midi": 67,
          "name": "G4",
          "ticks": 87936,
          "time": 76.333257,
          "velocity": 0.7874015748031497
        },
        {
          "duration": 0.08333324999999547,
          "durationTicks": 96,
          "midi": 58,
          "name": "A#3",
          "ticks": 88032,
          "time": 76.41659025,
          "velocity": 0.7874015748031497
        },
        {
          "duration": 0.08333325000000968,
          "durationTicks": 96,
          "midi": 63,
          "name": "D#4",
          "ticks": 88128,
          "time": 76.4999235,
          "velocity": 0.7874015748031497
        },
        {
          "duration": 0.08333324999999547,
          "durationTicks": 96,
          "midi": 58,
          "name": "A#3",
          "ticks": 88224,
          "time": 76.58325675,
          "velocity": 0.7874015748031497
        },
        {
          "duration": 0.08333324999999547,
          "durationTicks": 96,
          "midi": 56,
          "name": "G#3",
          "ticks": 88320,
          "time": 76.66659,
          "velocity": 0.7874015748031497
        },
        {
          "duration": 0.08333325000000968,
          "durationTicks": 96,
          "midi": 63,
          "name": "D#4",
          "ticks": 88416,
          "time": 76.74992325,
          "velocity": 0.7874015748031497
        },
        {
          "duration": 0.08333324999999547,
          "durationTicks": 96,
          "midi": 72,
          "name": "C5",
          "ticks": 88512,
          "time": 76.8332565,
          "velocity": 0.7874015748031497
        },
        {
          "duration": 0.08333324999999547,
          "durationTicks": 96,
          "midi": 63,
          "name": "D#4",
          "ticks": 88608,
          "time": 76.91658975,
          "velocity": 0.7874015748031497
        },
        {
          "duration": 0.08333324999999547,
          "durationTicks": 96,
          "midi": 56,
          "name": "G#3",
          "ticks": 88704,
          "time": 76.999923,
          "velocity": 0.7874015748031497
        },
        {
          "duration": 0.08333325000000968,
          "durationTicks": 96,
          "midi": 63,
          "name": "D#4",
          "ticks": 88800,
          "time": 77.08325624999999,
          "velocity": 0.7874015748031497
        },
        {
          "duration": 0.08333324999999547,
          "durationTicks": 96,
          "midi": 72,
          "name": "C5",
          "ticks": 88896,
          "time": 77.1665895,
          "velocity": 0.7874015748031497
        },
        {
          "duration": 0.08333324999999547,
          "durationTicks": 96,
          "midi": 63,
          "name": "D#4",
          "ticks": 88992,
          "time": 77.24992275,
          "velocity": 0.7874015748031497
        }
      ]
    },
    {
      "channel": 0,
      "controlChanges": {
        "0": [
          {
            "number": 0,
            "ticks": 0,
            "time": 0,
            "value": 0
          }
        ]
      },
      "pitchBends": [],
      "instrument": {
        "family": "piano",
        "number": 0,
        "name": "acoustic grand piano"
      },
      "name": "Tuba",
      "notes": [],
      "endOfTrackTicks": 94656
    },
    {
      "channel": 4,
      "controlChanges": {},
      "pitchBends": [],
      "instrument": {
        "family": "brass",
        "number": 58,
        "name": "tuba"
      },
      "name": "",
      "notes": [
        {
          "duration": 0.24999975000000063,
          "durationTicks": 288,
          "midi": 67,
          "name": "G4",
          "ticks": 30336,
          "time": 26.333306999999998,
          "velocity": 0.7874015748031497
        },
        {
          "duration": 0.24999975000000063,
          "durationTicks": 288,
          "midi": 72,
          "name": "C5",
          "ticks": 30336,
          "time": 26.333306999999998,
          "velocity": 0.7874015748031497
        },
        {
          "duration": 0.08333325000000258,
          "durationTicks": 96,
          "midi": 74,
          "name": "D5",
          "ticks": 30624,
          "time": 26.58330675,
          "velocity": 0.7874015748031497
        },
        {
          "duration": 0.08333325000000258,
          "durationTicks": 96,
          "midi": 70,
          "name": "A#4",
          "ticks": 30624,
          "time": 26.58330675,
          "velocity": 0.7874015748031497
        },
        {
          "duration": 0.33333299999999966,
          "durationTicks": 384,
          "midi": 72,
          "name": "C5",
          "ticks": 30720,
          "time": 26.66664,
          "velocity": 0.7874015748031497
        },
        {
          "duration": 0.33333299999999966,
          "durationTicks": 384,
          "midi": 75,
          "name": "D#5",
          "ticks": 30720,
          "time": 26.66664,
          "velocity": 0.7874015748031497
        },
        {
          "duration": 0.24999974999999708,
          "durationTicks": 288,
          "midi": 70,
          "name": "A#4",
          "ticks": 31104,
          "time": 26.999973,
          "velocity": 0.7874015748031497
        },
        {
          "duration": 0.24999974999999708,
          "durationTicks": 288,
          "midi": 74,
          "name": "D5",
          "ticks": 31104,
          "time": 26.999973,
          "velocity": 0.7874015748031497
        },
        {
          "duration": 0.08333325000000258,
          "durationTicks": 96,
          "midi": 72,
          "name": "C5",
          "ticks": 31392,
          "time": 27.249972749999998,
          "velocity": 0.7874015748031497
        },
        {
          "duration": 0.08333325000000258,
          "durationTicks": 96,
          "midi": 75,
          "name": "D#5",
          "ticks": 31392,
          "time": 27.249972749999998,
          "velocity": 0.7874015748031497
        },
        {
          "duration": 0.33333299999999966,
          "durationTicks": 384,
          "midi": 74,
          "name": "D5",
          "ticks": 31488,
          "time": 27.333306,
          "velocity": 0.7874015748031497
        },
        {
          "duration": 0.33333299999999966,
          "durationTicks": 384,
          "midi": 77,
          "name": "F5",
          "ticks": 31488,
          "time": 27.333306,
          "velocity": 0.7874015748031497
        },
        {
          "duration": 0.24999975000000063,
          "durationTicks": 288,
          "midi": 75,
          "name": "D#5",
          "ticks": 31872,
          "time": 27.666639,
          "velocity": 0.7874015748031497
        },
        {
          "duration": 0.24999975000000063,
          "durationTicks": 288,
          "midi": 70,
          "name": "A#4",
          "ticks": 31872,
          "time": 27.666639,
          "velocity": 0.7874015748031497
        },
        {
          "duration": 0.08333324999999903,
          "durationTicks": 96,
          "midi": 74,
          "name": "D5",
          "ticks": 32160,
          "time": 27.91663875,
          "velocity": 0.7874015748031497
        },
        {
          "duration": 0.08333324999999903,
          "durationTicks": 96,
          "midi": 77,
          "name": "F5",
          "ticks": 32160,
          "time": 27.91663875,
          "velocity": 0.7874015748031497
        },
        {
          "duration": 0.33333299999999966,
          "durationTicks": 384,
          "midi": 79,
          "name": "G5",
          "ticks": 32256,
          "time": 27.999972,
          "velocity": 0.7874015748031497
        },
        {
          "duration": 0.33333299999999966,
          "durationTicks": 384,
          "midi": 75,
          "name": "D#5",
          "ticks": 32256,
          "time": 27.999972,
          "velocity": 0.7874015748031497
        },
        {
          "duration": 0.24999975000000063,
          "durationTicks": 288,
          "midi": 74,
          "name": "D5",
          "ticks": 32640,
          "time": 28.333305,
          "velocity": 0.7874015748031497
        },
        {
          "duration": 0.24999975000000063,
          "durationTicks": 288,
          "midi": 77,
          "name": "F5",
          "ticks": 32640,
          "time": 28.333305,
          "velocity": 0.7874015748031497
        },
        {
          "duration": 0.08333324999999903,
          "durationTicks": 96,
          "midi": 79,
          "name": "G5",
          "ticks": 32928,
          "time": 28.58330475,
          "velocity": 0.7874015748031497
        },
        {
          "duration": 0.08333324999999903,
          "durationTicks": 96,
          "midi": 75,
          "name": "D#5",
          "ticks": 32928,
          "time": 28.58330475,
          "velocity": 0.7874015748031497
        },
        {
          "duration": 0.33333299999999966,
          "durationTicks": 384,
          "midi": 68,
          "name": "G#4",
          "ticks": 33024,
          "time": 28.666638,
          "velocity": 0.7874015748031497
        },
        {
          "duration": 0.33333299999999966,
          "durationTicks": 384,
          "midi": 72,
          "name": "C5",
          "ticks": 33024,
          "time": 28.666638,
          "velocity": 0.7874015748031497
        },
        {
          "duration": 0.24999975000000063,
          "durationTicks": 288,
          "midi": 67,
          "name": "G4",
          "ticks": 33408,
          "time": 28.999971,
          "velocity": 0.7874015748031497
        },
        {
          "duration": 0.24999975000000063,
          "durationTicks": 288,
          "midi": 72,
          "name": "C5",
          "ticks": 33408,
          "time": 28.999971,
          "velocity": 0.7874015748031497
        },
        {
          "duration": 0.08333324999999903,
          "durationTicks": 96,
          "midi": 70,
          "name": "A#4",
          "ticks": 33696,
          "time": 29.24997075,
          "velocity": 0.7874015748031497
        },
        {
          "duration": 0.08333324999999903,
          "durationTicks": 96,
          "midi": 74,
          "name": "D5",
          "ticks": 33696,
          "time": 29.24997075,
          "velocity": 0.7874015748031497
        },
        {
          "duration": 0.33333299999999966,
          "durationTicks": 384,
          "midi": 72,
          "name": "C5",
          "ticks": 33792,
          "time": 29.333304,
          "velocity": 0.7874015748031497
        },
        {
          "duration": 0.33333299999999966,
          "durationTicks": 384,
          "midi": 75,
          "name": "D#5",
          "ticks": 33792,
          "time": 29.333304,
          "velocity": 0.7874015748031497
        },
        {
          "duration": 0.24999975000000063,
          "durationTicks": 288,
          "midi": 74,
          "name": "D5",
          "ticks": 34176,
          "time": 29.666636999999998,
          "velocity": 0.7874015748031497
        },
        {
          "duration": 0.24999975000000063,
          "durationTicks": 288,
          "midi": 70,
          "name": "A#4",
          "ticks": 34176,
          "time": 29.666636999999998,
          "velocity": 0.7874015748031497
        },
        {
          "duration": 0.08333324999999903,
          "durationTicks": 96,
          "midi": 75,
          "name": "D#5",
          "ticks": 34464,
          "time": 29.91663675,
          "velocity": 0.7874015748031497
        },
        {
          "duration": 0.08333324999999903,
          "durationTicks": 96,
          "midi": 72,
          "name": "C5",
          "ticks": 34464,
          "time": 29.91663675,
          "velocity": 0.7874015748031497
        },
        {
          "duration": 0.3333330000000032,
          "durationTicks": 384,
          "midi": 74,
          "name": "D5",
          "ticks": 34560,
          "time": 29.999969999999998,
          "velocity": 0.7874015748031497
        },
        {
          "duration": 0.3333330000000032,
          "durationTicks": 384,
          "midi": 77,
          "name": "F5",
          "ticks": 34560,
          "time": 29.999969999999998,
          "velocity": 0.7874015748031497
        },
        {
          "duration": 0.24999974999999708,
          "durationTicks": 288,
          "midi": 70,
          "name": "A#4",
          "ticks": 34944,
          "time": 30.333303,
          "velocity": 0.7874015748031497
        },
        {
          "duration": 0.24999974999999708,
          "durationTicks": 288,
          "midi": 75,
          "name": "D#5",
          "ticks": 34944,
          "time": 30.333303,
          "velocity": 0.7874015748031497
        },
        {
          "duration": 0.08333325000000258,
          "durationTicks": 96,
          "midi": 74,
          "name": "D5",
          "ticks": 35232,
          "time": 30.583302749999998,
          "velocity": 0.7874015748031497
        },
        {
          "duration": 0.08333325000000258,
          "durationTicks": 96,
          "midi": 77,
          "name": "F5",
          "ticks": 35232,
          "time": 30.583302749999998,
          "velocity": 0.7874015748031497
        },
        {
          "duration": 0.6666659999999993,
          "durationTicks": 768,
          "midi": 65,
          "name": "F4",
          "ticks": 35328,
          "time": 30.666636,
          "velocity": 0.7874015748031497
        },
        {
          "duration": 0.6666659999999993,
          "durationTicks": 768,
          "midi": 74,
          "name": "D5",
          "ticks": 35328,
          "time": 30.666636,
          "velocity": 0.7874015748031497
        },
        {
          "duration": 0.16666649999999805,
          "durationTicks": 192,
          "midi": 71,
          "name": "B4",
          "ticks": 36096,
          "time": 31.333302,
          "velocity": 0.7874015748031497
        },
        {
          "duration": 0.16666649999999805,
          "durationTicks": 192,
          "midi": 79,
          "name": "G5",
          "ticks": 36096,
          "time": 31.333302,
          "velocity": 0.7874015748031497
        },
        {
          "duration": 0.24999975000000063,
          "durationTicks": 288,
          "midi": 67,
          "name": "G4",
          "ticks": 59520,
          "time": 51.666615,
          "velocity": 0.7874015748031497
        },
        {
          "duration": 0.24999975000000063,
          "durationTicks": 288,
          "midi": 72,
          "name": "C5",
          "ticks": 59520,
          "time": 51.666615,
          "velocity": 0.7874015748031497
        },
        {
          "duration": 0.08333324999999547,
          "durationTicks": 96,
          "midi": 74,
          "name": "D5",
          "ticks": 59808,
          "time": 51.91661475,
          "velocity": 0.7874015748031497
        },
        {
          "duration": 0.08333324999999547,
          "durationTicks": 96,
          "midi": 70,
          "name": "A#4",
          "ticks": 59808,
          "time": 51.91661475,
          "velocity": 0.7874015748031497
        },
        {
          "duration": 0.3333330000000032,
          "durationTicks": 384,
          "midi": 72,
          "name": "C5",
          "ticks": 59904,
          "time": 51.999947999999996,
          "velocity": 0.7874015748031497
        },
        {
          "duration": 0.3333330000000032,
          "durationTicks": 384,
          "midi": 75,
          "name": "D#5",
          "ticks": 59904,
          "time": 51.999947999999996,
          "velocity": 0.7874015748031497
        },
        {
          "duration": 0.24999975000000063,
          "durationTicks": 288,
          "midi": 70,
          "name": "A#4",
          "ticks": 60288,
          "time": 52.333281,
          "velocity": 0.7874015748031497
        },
        {
          "duration": 0.24999975000000063,
          "durationTicks": 288,
          "midi": 74,
          "name": "D5",
          "ticks": 60288,
          "time": 52.333281,
          "velocity": 0.7874015748031497
        },
        {
          "duration": 0.08333324999999547,
          "durationTicks": 96,
          "midi": 72,
          "name": "C5",
          "ticks": 60576,
          "time": 52.58328075,
          "velocity": 0.7874015748031497
        },
        {
          "duration": 0.08333324999999547,
          "durationTicks": 96,
          "midi": 75,
          "name": "D#5",
          "ticks": 60576,
          "time": 52.58328075,
          "velocity": 0.7874015748031497
        },
        {
          "duration": 0.3333330000000032,
          "durationTicks": 384,
          "midi": 74,
          "name": "D5",
          "ticks": 60672,
          "time": 52.666613999999996,
          "velocity": 0.7874015748031497
        },
        {
          "duration": 0.3333330000000032,
          "durationTicks": 384,
          "midi": 77,
          "name": "F5",
          "ticks": 60672,
          "time": 52.666613999999996,
          "velocity": 0.7874015748031497
        },
        {
          "duration": 0.24999975000000063,
          "durationTicks": 288,
          "midi": 75,
          "name": "D#5",
          "ticks": 61056,
          "time": 52.999947,
          "velocity": 0.7874015748031497
        },
        {
          "duration": 0.24999975000000063,
          "durationTicks": 288,
          "midi": 70,
          "name": "A#4",
          "ticks": 61056,
          "time": 52.999947,
          "velocity": 0.7874015748031497
        },
        {
          "duration": 0.08333325000000258,
          "durationTicks": 96,
          "midi": 74,
          "name": "D5",
          "ticks": 61344,
          "time": 53.24994675,
          "velocity": 0.7874015748031497
        },
        {
          "duration": 0.08333325000000258,
          "durationTicks": 96,
          "midi": 77,
          "name": "F5",
          "ticks": 61344,
          "time": 53.24994675,
          "velocity": 0.7874015748031497
        },
        {
          "duration": 0.3333329999999961,
          "durationTicks": 384,
          "midi": 79,
          "name": "G5",
          "ticks": 61440,
          "time": 53.33328,
          "velocity": 0.7874015748031497
        },
        {
          "duration": 0.3333329999999961,
          "durationTicks": 384,
          "midi": 75,
          "name": "D#5",
          "ticks": 61440,
          "time": 53.33328,
          "velocity": 0.7874015748031497
        },
        {
          "duration": 0.24999975000000063,
          "durationTicks": 288,
          "midi": 74,
          "name": "D5",
          "ticks": 61824,
          "time": 53.666613,
          "velocity": 0.7874015748031497
        },
        {
          "duration": 0.24999975000000063,
          "durationTicks": 288,
          "midi": 77,
          "name": "F5",
          "ticks": 61824,
          "time": 53.666613,
          "velocity": 0.7874015748031497
        },
        {
          "duration": 0.08333325000000258,
          "durationTicks": 96,
          "midi": 79,
          "name": "G5",
          "ticks": 62112,
          "time": 53.91661275,
          "velocity": 0.7874015748031497
        },
        {
          "duration": 0.08333325000000258,
          "durationTicks": 96,
          "midi": 75,
          "name": "D#5",
          "ticks": 62112,
          "time": 53.91661275,
          "velocity": 0.7874015748031497
        },
        {
          "duration": 0.3333329999999961,
          "durationTicks": 384,
          "midi": 68,
          "name": "G#4",
          "ticks": 62208,
          "time": 53.999946,
          "velocity": 0.7874015748031497
        },
        {
          "duration": 0.3333329999999961,
          "durationTicks": 384,
          "midi": 72,
          "name": "C5",
          "ticks": 62208,
          "time": 53.999946,
          "velocity": 0.7874015748031497
        },
        {
          "duration": 0.24999975000000063,
          "durationTicks": 288,
          "midi": 67,
          "name": "G4",
          "ticks": 62592,
          "time": 54.333279,
          "velocity": 0.7874015748031497
        },
        {
          "duration": 0.24999975000000063,
          "durationTicks": 288,
          "midi": 72,
          "name": "C5",
          "ticks": 62592,
          "time": 54.333279,
          "velocity": 0.7874015748031497
        },
        {
          "duration": 0.08333325000000258,
          "durationTicks": 96,
          "midi": 70,
          "name": "A#4",
          "ticks": 62880,
          "time": 54.58327875,
          "velocity": 0.7874015748031497
        },
        {
          "duration": 0.08333325000000258,
          "durationTicks": 96,
          "midi": 74,
          "name": "D5",
          "ticks": 62880,
          "time": 54.58327875,
          "velocity": 0.7874015748031497
        },
        {
          "duration": 0.3333329999999961,
          "durationTicks": 384,
          "midi": 72,
          "name": "C5",
          "ticks": 62976,
          "time": 54.666612,
          "velocity": 0.7874015748031497
        },
        {
          "duration": 0.3333329999999961,
          "durationTicks": 384,
          "midi": 75,
          "name": "D#5",
          "ticks": 62976,
          "time": 54.666612,
          "velocity": 0.7874015748031497
        },
        {
          "duration": 0.24999975000000063,
          "durationTicks": 288,
          "midi": 74,
          "name": "D5",
          "ticks": 63360,
          "time": 54.999945,
          "velocity": 0.7874015748031497
        },
        {
          "duration": 0.24999975000000063,
          "durationTicks": 288,
          "midi": 70,
          "name": "A#4",
          "ticks": 63360,
          "time": 54.999945,
          "velocity": 0.7874015748031497
        },
        {
          "duration": 0.08333325000000258,
          "durationTicks": 96,
          "midi": 75,
          "name": "D#5",
          "ticks": 63648,
          "time": 55.24994475,
          "velocity": 0.7874015748031497
        },
        {
          "duration": 0.08333325000000258,
          "durationTicks": 96,
          "midi": 72,
          "name": "C5",
          "ticks": 63648,
          "time": 55.24994475,
          "velocity": 0.7874015748031497
        },
        {
          "duration": 0.3333329999999961,
          "durationTicks": 384,
          "midi": 74,
          "name": "D5",
          "ticks": 63744,
          "time": 55.333278,
          "velocity": 0.7874015748031497
        },
        {
          "duration": 0.3333329999999961,
          "durationTicks": 384,
          "midi": 77,
          "name": "F5",
          "ticks": 63744,
          "time": 55.333278,
          "velocity": 0.7874015748031497
        },
        {
          "duration": 0.24999975000000063,
          "durationTicks": 288,
          "midi": 70,
          "name": "A#4",
          "ticks": 64128,
          "time": 55.666610999999996,
          "velocity": 0.7874015748031497
        },
        {
          "duration": 0.24999975000000063,
          "durationTicks": 288,
          "midi": 75,
          "name": "D#5",
          "ticks": 64128,
          "time": 55.666610999999996,
          "velocity": 0.7874015748031497
        },
        {
          "duration": 0.08333325000000258,
          "durationTicks": 96,
          "midi": 74,
          "name": "D5",
          "ticks": 64416,
          "time": 55.91661075,
          "velocity": 0.7874015748031497
        },
        {
          "duration": 0.08333325000000258,
          "durationTicks": 96,
          "midi": 77,
          "name": "F5",
          "ticks": 64416,
          "time": 55.91661075,
          "velocity": 0.7874015748031497
        },
        {
          "duration": 0.6666659999999993,
          "durationTicks": 768,
          "midi": 65,
          "name": "F4",
          "ticks": 64512,
          "time": 55.999944,
          "velocity": 0.7874015748031497
        },
        {
          "duration": 0.6666659999999993,
          "durationTicks": 768,
          "midi": 74,
          "name": "D5",
          "ticks": 64512,
          "time": 55.999944,
          "velocity": 0.7874015748031497
        },
        {
          "duration": 0.16666649999999805,
          "durationTicks": 192,
          "midi": 71,
          "name": "B4",
          "ticks": 65280,
          "time": 56.66661,
          "velocity": 0.7874015748031497
        },
        {
          "duration": 0.16666649999999805,
          "durationTicks": 192,
          "midi": 79,
          "name": "G5",
          "ticks": 65280,
          "time": 56.66661,
          "velocity": 0.7874015748031497
        },
        {
          "duration": 0.24999975000000063,
          "durationTicks": 288,
          "midi": 67,
          "name": "G4",
          "ticks": 88704,
          "time": 76.999923,
          "velocity": 0.7874015748031497
        },
        {
          "duration": 0.24999975000000063,
          "durationTicks": 288,
          "midi": 72,
          "name": "C5",
          "ticks": 88704,
          "time": 76.999923,
          "velocity": 0.7874015748031497
        },
        {
          "duration": 0.08333324999999547,
          "durationTicks": 96,
          "midi": 74,
          "name": "D5",
          "ticks": 88992,
          "time": 77.24992275,
          "velocity": 0.7874015748031497
        },
        {
          "duration": 0.08333324999999547,
          "durationTicks": 96,
          "midi": 70,
          "name": "A#4",
          "ticks": 88992,
          "time": 77.24992275,
          "velocity": 0.7874015748031497
        },
        {
          "duration": 0.3333330000000103,
          "durationTicks": 384,
          "midi": 72,
          "name": "C5",
          "ticks": 89088,
          "time": 77.33325599999999,
          "velocity": 0.7874015748031497
        },
        {
          "duration": 0.3333330000000103,
          "durationTicks": 384,
          "midi": 75,
          "name": "D#5",
          "ticks": 89088,
          "time": 77.33325599999999,
          "velocity": 0.7874015748031497
        },
        {
          "duration": 0.24999975000000063,
          "durationTicks": 288,
          "midi": 70,
          "name": "A#4",
          "ticks": 89472,
          "time": 77.666589,
          "velocity": 0.7874015748031497
        },
        {
          "duration": 0.24999975000000063,
          "durationTicks": 288,
          "midi": 74,
          "name": "D5",
          "ticks": 89472,
          "time": 77.666589,
          "velocity": 0.7874015748031497
        },
        {
          "duration": 0.08333324999999547,
          "durationTicks": 96,
          "midi": 72,
          "name": "C5",
          "ticks": 89760,
          "time": 77.91658875,
          "velocity": 0.7874015748031497
        },
        {
          "duration": 0.08333324999999547,
          "durationTicks": 96,
          "midi": 75,
          "name": "D#5",
          "ticks": 89760,
          "time": 77.91658875,
          "velocity": 0.7874015748031497
        },
        {
          "duration": 0.3333329999999961,
          "durationTicks": 384,
          "midi": 74,
          "name": "D5",
          "ticks": 89856,
          "time": 77.999922,
          "velocity": 0.7874015748031497
        },
        {
          "duration": 0.3333329999999961,
          "durationTicks": 384,
          "midi": 77,
          "name": "F5",
          "ticks": 89856,
          "time": 77.999922,
          "velocity": 0.7874015748031497
        },
        {
          "duration": 0.24999975000000063,
          "durationTicks": 288,
          "midi": 75,
          "name": "D#5",
          "ticks": 90240,
          "time": 78.333255,
          "velocity": 0.7874015748031497
        },
        {
          "duration": 0.24999975000000063,
          "durationTicks": 288,
          "midi": 70,
          "name": "A#4",
          "ticks": 90240,
          "time": 78.333255,
          "velocity": 0.7874015748031497
        },
        {
          "duration": 0.08333325000000968,
          "durationTicks": 96,
          "midi": 74,
          "name": "D5",
          "ticks": 90528,
          "time": 78.58325475,
          "velocity": 0.7874015748031497
        },
        {
          "duration": 0.08333325000000968,
          "durationTicks": 96,
          "midi": 77,
          "name": "F5",
          "ticks": 90528,
          "time": 78.58325475,
          "velocity": 0.7874015748031497
        },
        {
          "duration": 0.3333329999999961,
          "durationTicks": 384,
          "midi": 79,
          "name": "G5",
          "ticks": 90624,
          "time": 78.666588,
          "velocity": 0.7874015748031497
        },
        {
          "duration": 0.3333329999999961,
          "durationTicks": 384,
          "midi": 75,
          "name": "D#5",
          "ticks": 90624,
          "time": 78.666588,
          "velocity": 0.7874015748031497
        },
        {
          "duration": 0.24999975000000063,
          "durationTicks": 288,
          "midi": 74,
          "name": "D5",
          "ticks": 91008,
          "time": 78.999921,
          "velocity": 0.7874015748031497
        },
        {
          "duration": 0.24999975000000063,
          "durationTicks": 288,
          "midi": 77,
          "name": "F5",
          "ticks": 91008,
          "time": 78.999921,
          "velocity": 0.7874015748031497
        },
        {
          "duration": 0.08333324999999547,
          "durationTicks": 96,
          "midi": 79,
          "name": "G5",
          "ticks": 91296,
          "time": 79.24992075,
          "velocity": 0.7874015748031497
        },
        {
          "duration": 0.08333324999999547,
          "durationTicks": 96,
          "midi": 75,
          "name": "D#5",
          "ticks": 91296,
          "time": 79.24992075,
          "velocity": 0.7874015748031497
        },
        {
          "duration": 0.3333329999999961,
          "durationTicks": 384,
          "midi": 68,
          "name": "G#4",
          "ticks": 91392,
          "time": 79.333254,
          "velocity": 0.7874015748031497
        },
        {
          "duration": 0.3333329999999961,
          "durationTicks": 384,
          "midi": 72,
          "name": "C5",
          "ticks": 91392,
          "time": 79.333254,
          "velocity": 0.7874015748031497
        },
        {
          "duration": 0.24999975000000063,
          "durationTicks": 288,
          "midi": 67,
          "name": "G4",
          "ticks": 91776,
          "time": 79.66658699999999,
          "velocity": 0.7874015748031497
        },
        {
          "duration": 0.24999975000000063,
          "durationTicks": 288,
          "midi": 72,
          "name": "C5",
          "ticks": 91776,
          "time": 79.66658699999999,
          "velocity": 0.7874015748031497
        },
        {
          "duration": 0.08333325000000968,
          "durationTicks": 96,
          "midi": 70,
          "name": "A#4",
          "ticks": 92064,
          "time": 79.91658675,
          "velocity": 0.7874015748031497
        },
        {
          "duration": 0.08333325000000968,
          "durationTicks": 96,
          "midi": 74,
          "name": "D5",
          "ticks": 92064,
          "time": 79.91658675,
          "velocity": 0.7874015748031497
        },
        {
          "duration": 0.3333329999999961,
          "durationTicks": 384,
          "midi": 72,
          "name": "C5",
          "ticks": 92160,
          "time": 79.99992,
          "velocity": 0.7874015748031497
        },
        {
          "duration": 0.3333329999999961,
          "durationTicks": 384,
          "midi": 75,
          "name": "D#5",
          "ticks": 92160,
          "time": 79.99992,
          "velocity": 0.7874015748031497
        },
        {
          "duration": 0.24999975000000063,
          "durationTicks": 288,
          "midi": 74,
          "name": "D5",
          "ticks": 92544,
          "time": 80.333253,
          "velocity": 0.7874015748031497
        },
        {
          "duration": 0.24999975000000063,
          "durationTicks": 288,
          "midi": 70,
          "name": "A#4",
          "ticks": 92544,
          "time": 80.333253,
          "velocity": 0.7874015748031497
        },
        {
          "duration": 0.08333324999999547,
          "durationTicks": 96,
          "midi": 75,
          "name": "D#5",
          "ticks": 92832,
          "time": 80.58325275,
          "velocity": 0.7874015748031497
        },
        {
          "duration": 0.08333324999999547,
          "durationTicks": 96,
          "midi": 72,
          "name": "C5",
          "ticks": 92832,
          "time": 80.58325275,
          "velocity": 0.7874015748031497
        },
        {
          "duration": 0.3333329999999961,
          "durationTicks": 384,
          "midi": 74,
          "name": "D5",
          "ticks": 92928,
          "time": 80.666586,
          "velocity": 0.7874015748031497
        },
        {
          "duration": 0.3333329999999961,
          "durationTicks": 384,
          "midi": 77,
          "name": "F5",
          "ticks": 92928,
          "time": 80.666586,
          "velocity": 0.7874015748031497
        },
        {
          "duration": 0.24999975000000063,
          "durationTicks": 288,
          "midi": 70,
          "name": "A#4",
          "ticks": 93312,
          "time": 80.99991899999999,
          "velocity": 0.7874015748031497
        },
        {
          "duration": 0.24999975000000063,
          "durationTicks": 288,
          "midi": 75,
          "name": "D#5",
          "ticks": 93312,
          "time": 80.99991899999999,
          "velocity": 0.7874015748031497
        },
        {
          "duration": 0.08333325000000968,
          "durationTicks": 96,
          "midi": 74,
          "name": "D5",
          "ticks": 93600,
          "time": 81.24991874999999,
          "velocity": 0.7874015748031497
        },
        {
          "duration": 0.08333325000000968,
          "durationTicks": 96,
          "midi": 77,
          "name": "F5",
          "ticks": 93600,
          "time": 81.24991874999999,
          "velocity": 0.7874015748031497
        },
        {
          "duration": 0.6666659999999922,
          "durationTicks": 768,
          "midi": 65,
          "name": "F4",
          "ticks": 93696,
          "time": 81.333252,
          "velocity": 0.7874015748031497
        },
        {
          "duration": 0.6666659999999922,
          "durationTicks": 768,
          "midi": 74,
          "name": "D5",
          "ticks": 93696,
          "time": 81.333252,
          "velocity": 0.7874015748031497
        },
        {
          "duration": 0.16666650000000516,
          "durationTicks": 192,
          "midi": 71,
          "name": "B4",
          "ticks": 94464,
          "time": 81.999918,
          "velocity": 0.7874015748031497
        },
        {
          "duration": 0.16666650000000516,
          "durationTicks": 192,
          "midi": 79,
          "name": "G5",
          "ticks": 94464,
          "time": 81.999918,
          "velocity": 0.7874015748031497
        }
      ]
    },
    {
      "channel": 0,
      "controlChanges": {
        "0": [
          {
            "number": 0,
            "ticks": 0,
            "time": 0,
            "value": 0
          }
        ]
      },
      "pitchBends": [],
      "instrument": {
        "family": "piano",
        "number": 0,
        "name": "acoustic grand piano"
      },
      "name": "Percussion (orchestra kit)",
      "notes": [],
      "endOfTrackTicks": 94528
    },
    {
      "channel": 9,
      "controlChanges": {},
      "pitchBends": [],
      "instrument": {
        "family": "drums",
        "number": 46
      },
      "name": "",
      "notes": [
        {
          "duration": 0.05555549999999965,
          "durationTicks": 64,
          "midi": 39,
          "name": "D#2",
          "ticks": 7680,
          "time": 6.66666,
          "velocity": 0.5905511811023622
        },
        {
          "duration": 0.055555500000000535,
          "durationTicks": 64,
          "midi": 39,
          "name": "D#2",
          "ticks": 7872,
          "time": 6.8333265,
          "velocity": 0.5905511811023622
        },
        {
          "duration": 0.055555500000000535,
          "durationTicks": 64,
          "midi": 39,
          "name": "D#2",
          "ticks": 7968,
          "time": 6.91665975,
          "velocity": 0.5905511811023622
        },
        {
          "duration": 0.055555500000000535,
          "durationTicks": 64,
          "midi": 39,
          "name": "D#2",
          "ticks": 8064,
          "time": 6.999993,
          "velocity": 0.5905511811023622
        },
        {
          "duration": 0.055555500000000535,
          "durationTicks": 64,
          "midi": 39,
          "name": "D#2",
          "ticks": 8256,
          "time": 7.1666595,
          "velocity": 0.5905511811023622
        },
        {
          "duration": 0.055555500000000535,
          "durationTicks": 64,
          "midi": 39,
          "name": "D#2",
          "ticks": 8352,
          "time": 7.24999275,
          "velocity": 0.5905511811023622
        },
        {
          "duration": 0.055555500000000535,
          "durationTicks": 64,
          "midi": 39,
          "name": "D#2",
          "ticks": 8448,
          "time": 7.333326,
          "velocity": 0.5905511811023622
        },
        {
          "duration": 0.055555500000000535,
          "durationTicks": 64,
          "midi": 39,
          "name": "D#2",
          "ticks": 8640,
          "time": 7.499992499999999,
          "velocity": 0.5905511811023622
        },
        {
          "duration": 0.05555549999999965,
          "durationTicks": 64,
          "midi": 39,
          "name": "D#2",
          "ticks": 8736,
          "time": 7.58332575,
          "velocity": 0.5905511811023622
        },
        {
          "duration": 0.05555549999999965,
          "durationTicks": 64,
          "midi": 39,
          "name": "D#2",
          "ticks": 8832,
          "time": 7.666659,
          "velocity": 0.5905511811023622
        },
        {
          "duration": 0.055555500000000535,
          "durationTicks": 64,
          "midi": 39,
          "name": "D#2",
          "ticks": 8928,
          "time": 7.74999225,
          "velocity": 0.5905511811023622
        },
        {
          "duration": 0.055555500000000535,
          "durationTicks": 64,
          "midi": 39,
          "name": "D#2",
          "ticks": 9024,
          "time": 7.8333255,
          "velocity": 0.5905511811023622
        },
        {
          "duration": 0.055555500000000535,
          "durationTicks": 64,
          "midi": 39,
          "name": "D#2",
          "ticks": 9120,
          "time": 7.91665875,
          "velocity": 0.5905511811023622
        },
        {
          "duration": 0.05555549999999965,
          "durationTicks": 64,
          "midi": 39,
          "name": "D#2",
          "ticks": 9216,
          "time": 7.999992,
          "velocity": 0.5905511811023622
        },
        {
          "duration": 0.055555500000000535,
          "durationTicks": 64,
          "midi": 39,
          "name": "D#2",
          "ticks": 9408,
          "time": 8.1666585,
          "velocity": 0.5905511811023622
        },
        {
          "duration": 0.055555500000000535,
          "durationTicks": 64,
          "midi": 39,
          "name": "D#2",
          "ticks": 9504,
          "time": 8.24999175,
          "velocity": 0.5905511811023622
        },
        {
          "duration": 0.055555500000000535,
          "durationTicks": 64,
          "midi": 39,
          "name": "D#2",
          "ticks": 9600,
          "time": 8.333325,
          "velocity": 0.5905511811023622
        },
        {
          "duration": 0.055555500000000535,
          "durationTicks": 64,
          "midi": 39,
          "name": "D#2",
          "ticks": 9792,
          "time": 8.4999915,
          "velocity": 0.5905511811023622
        },
        {
          "duration": 0.055555500000000535,
          "durationTicks": 64,
          "midi": 39,
          "name": "D#2",
          "ticks": 9888,
          "time": 8.58332475,
          "velocity": 0.5905511811023622
        },
        {
          "duration": 0.055555500000000535,
          "durationTicks": 64,
          "midi": 39,
          "name": "D#2",
          "ticks": 9984,
          "time": 8.666658,
          "velocity": 0.5905511811023622
        },
        {
          "duration": 0.055555500000000535,
          "durationTicks": 64,
          "midi": 39,
          "name": "D#2",
          "ticks": 10176,
          "time": 8.8333245,
          "velocity": 0.5905511811023622
        },
        {
          "duration": 0.05555549999999876,
          "durationTicks": 64,
          "midi": 39,
          "name": "D#2",
          "ticks": 10272,
          "time": 8.91665775,
          "velocity": 0.5905511811023622
        },
        {
          "duration": 0.055555500000000535,
          "durationTicks": 64,
          "midi": 39,
          "name": "D#2",
          "ticks": 10368,
          "time": 8.999991,
          "velocity": 0.5905511811023622
        },
        {
          "duration": 0.055555500000000535,
          "durationTicks": 64,
          "midi": 39,
          "name": "D#2",
          "ticks": 10464,
          "time": 9.08332425,
          "velocity": 0.5905511811023622
        },
        {
          "duration": 0.055555500000000535,
          "durationTicks": 64,
          "midi": 39,
          "name": "D#2",
          "ticks": 10560,
          "time": 9.1666575,
          "velocity": 0.5905511811023622
        },
        {
          "duration": 0.055555500000000535,
          "durationTicks": 64,
          "midi": 39,
          "name": "D#2",
          "ticks": 10656,
          "time": 9.24999075,
          "velocity": 0.5905511811023622
        },
        {
          "duration": 0.055555500000000535,
          "durationTicks": 64,
          "midi": 39,
          "name": "D#2",
          "ticks": 10752,
          "time": 9.333324,
          "velocity": 0.5905511811023622
        },
        {
          "duration": 0.055555500000000535,
          "durationTicks": 64,
          "midi": 39,
          "name": "D#2",
          "ticks": 10944,
          "time": 9.4999905,
          "velocity": 0.5905511811023622
        },
        {
          "duration": 0.055555500000000535,
          "durationTicks": 64,
          "midi": 39,
          "name": "D#2",
          "ticks": 11040,
          "time": 9.58332375,
          "velocity": 0.5905511811023622
        },
        {
          "duration": 0.055555500000000535,
          "durationTicks": 64,
          "midi": 39,
          "name": "D#2",
          "ticks": 11136,
          "time": 9.666656999999999,
          "velocity": 0.5905511811023622
        },
        {
          "duration": 0.05555549999999876,
          "durationTicks": 64,
          "midi": 39,
          "name": "D#2",
          "ticks": 11328,
          "time": 9.8333235,
          "velocity": 0.5905511811023622
        },
        {
          "duration": 0.055555500000000535,
          "durationTicks": 64,
          "midi": 39,
          "name": "D#2",
          "ticks": 11424,
          "time": 9.91665675,
          "velocity": 0.5905511811023622
        },
        {
          "duration": 0.055555500000000535,
          "durationTicks": 64,
          "midi": 39,
          "name": "D#2",
          "ticks": 11520,
          "time": 9.99999,
          "velocity": 0.5905511811023622
        },
        {
          "duration": 0.055555500000000535,
          "durationTicks": 64,
          "midi": 39,
          "name": "D#2",
          "ticks": 11712,
          "time": 10.1666565,
          "velocity": 0.5905511811023622
        },
        {
          "duration": 0.055555500000000535,
          "durationTicks": 64,
          "midi": 39,
          "name": "D#2",
          "ticks": 11808,
          "time": 10.24998975,
          "velocity": 0.5905511811023622
        },
        {
          "duration": 0.055555500000000535,
          "durationTicks": 64,
          "midi": 39,
          "name": "D#2",
          "ticks": 11904,
          "time": 10.333323,
          "velocity": 0.5905511811023622
        },
        {
          "duration": 0.055555500000000535,
          "durationTicks": 64,
          "midi": 39,
          "name": "D#2",
          "ticks": 12000,
          "time": 10.416656249999999,
          "velocity": 0.5905511811023622
        },
        {
          "duration": 0.055555500000000535,
          "durationTicks": 64,
          "midi": 39,
          "name": "D#2",
          "ticks": 12096,
          "time": 10.4999895,
          "velocity": 0.5905511811023622
        },
        {
          "duration": 0.055555500000000535,
          "durationTicks": 64,
          "midi": 39,
          "name": "D#2",
          "ticks": 12192,
          "time": 10.583322749999999,
          "velocity": 0.5905511811023622
        },
        {
          "duration": 0.05555549999999876,
          "durationTicks": 64,
          "midi": 39,
          "name": "D#2",
          "ticks": 12288,
          "time": 10.666656,
          "velocity": 0.5905511811023622
        },
        {
          "duration": 0.05555549999999876,
          "durationTicks": 64,
          "midi": 39,
          "name": "D#2",
          "ticks": 12480,
          "time": 10.8333225,
          "velocity": 0.5905511811023622
        },
        {
          "duration": 0.05555549999999876,
          "durationTicks": 64,
          "midi": 39,
          "name": "D#2",
          "ticks": 12576,
          "time": 10.91665575,
          "velocity": 0.5905511811023622
        },
        {
          "duration": 0.05555549999999876,
          "durationTicks": 64,
          "midi": 39,
          "name": "D#2",
          "ticks": 12672,
          "time": 10.999989,
          "velocity": 0.5905511811023622
        },
        {
          "duration": 0.055555500000000535,
          "durationTicks": 64,
          "midi": 39,
          "name": "D#2",
          "ticks": 12864,
          "time": 11.1666555,
          "velocity": 0.5905511811023622
        },
        {
          "duration": 0.05555549999999876,
          "durationTicks": 64,
          "midi": 39,
          "name": "D#2",
          "ticks": 12960,
          "time": 11.24998875,
          "velocity": 0.5905511811023622
        },
        {
          "duration": 0.055555500000000535,
          "durationTicks": 64,
          "midi": 39,
          "name": "D#2",
          "ticks": 13056,
          "time": 11.333321999999999,
          "velocity": 0.5905511811023622
        },
        {
          "duration": 0.055555500000000535,
          "durationTicks": 64,
          "midi": 39,
          "name": "D#2",
          "ticks": 13248,
          "time": 11.499988499999999,
          "velocity": 0.5905511811023622
        },
        {
          "duration": 0.05555549999999876,
          "durationTicks": 64,
          "midi": 39,
          "name": "D#2",
          "ticks": 13344,
          "time": 11.58332175,
          "velocity": 0.5905511811023622
        },
        {
          "duration": 0.05555549999999876,
          "durationTicks": 64,
          "midi": 39,
          "name": "D#2",
          "ticks": 13440,
          "time": 11.666655,
          "velocity": 0.5905511811023622
        },
        {
          "duration": 0.05555549999999876,
          "durationTicks": 64,
          "midi": 39,
          "name": "D#2",
          "ticks": 13536,
          "time": 11.74998825,
          "velocity": 0.5905511811023622
        },
        {
          "duration": 0.05555549999999876,
          "durationTicks": 64,
          "midi": 39,
          "name": "D#2",
          "ticks": 13632,
          "time": 11.8333215,
          "velocity": 0.5905511811023622
        },
        {
          "duration": 0.05555549999999876,
          "durationTicks": 64,
          "midi": 39,
          "name": "D#2",
          "ticks": 13728,
          "time": 11.91665475,
          "velocity": 0.5905511811023622
        },
        {
          "duration": 0.05555549999999876,
          "durationTicks": 64,
          "midi": 39,
          "name": "D#2",
          "ticks": 13824,
          "time": 11.999988,
          "velocity": 0.5905511811023622
        },
        {
          "duration": 0.05555549999999876,
          "durationTicks": 64,
          "midi": 39,
          "name": "D#2",
          "ticks": 14016,
          "time": 12.1666545,
          "velocity": 0.5905511811023622
        },
        {
          "duration": 0.055555500000000535,
          "durationTicks": 64,
          "midi": 39,
          "name": "D#2",
          "ticks": 14112,
          "time": 12.249987749999999,
          "velocity": 0.5905511811023622
        },
        {
          "duration": 0.05555549999999876,
          "durationTicks": 64,
          "midi": 39,
          "name": "D#2",
          "ticks": 14208,
          "time": 12.333321,
          "velocity": 0.5905511811023622
        },
        {
          "duration": 0.05555549999999876,
          "durationTicks": 64,
          "midi": 39,
          "name": "D#2",
          "ticks": 14400,
          "time": 12.4999875,
          "velocity": 0.5905511811023622
        },
        {
          "duration": 0.05555549999999876,
          "durationTicks": 64,
          "midi": 39,
          "name": "D#2",
          "ticks": 14496,
          "time": 12.58332075,
          "velocity": 0.5905511811023622
        },
        {
          "duration": 0.05555549999999876,
          "durationTicks": 64,
          "midi": 39,
          "name": "D#2",
          "ticks": 14592,
          "time": 12.666654,
          "velocity": 0.5905511811023622
        },
        {
          "duration": 0.05555549999999876,
          "durationTicks": 64,
          "midi": 39,
          "name": "D#2",
          "ticks": 14784,
          "time": 12.8333205,
          "velocity": 0.5905511811023622
        },
        {
          "duration": 0.05555549999999876,
          "durationTicks": 64,
          "midi": 39,
          "name": "D#2",
          "ticks": 14880,
          "time": 12.91665375,
          "velocity": 0.5905511811023622
        },
        {
          "duration": 0.055555500000000535,
          "durationTicks": 64,
          "midi": 39,
          "name": "D#2",
          "ticks": 14976,
          "time": 12.999986999999999,
          "velocity": 0.5905511811023622
        },
        {
          "duration": 0.05555549999999876,
          "durationTicks": 64,
          "midi": 39,
          "name": "D#2",
          "ticks": 15072,
          "time": 13.08332025,
          "velocity": 0.5905511811023622
        },
        {
          "duration": 0.055555500000000535,
          "durationTicks": 64,
          "midi": 39,
          "name": "D#2",
          "ticks": 15168,
          "time": 13.166653499999999,
          "velocity": 0.5905511811023622
        },
        {
          "duration": 0.05555549999999876,
          "durationTicks": 64,
          "midi": 39,
          "name": "D#2",
          "ticks": 15264,
          "time": 13.24998675,
          "velocity": 0.5905511811023622
        },
        {
          "duration": 0.05555549999999876,
          "durationTicks": 64,
          "midi": 39,
          "name": "D#2",
          "ticks": 15360,
          "time": 13.33332,
          "velocity": 0.5905511811023622
        },
        {
          "duration": 0.05555549999999876,
          "durationTicks": 64,
          "midi": 39,
          "name": "D#2",
          "ticks": 15552,
          "time": 13.4999865,
          "velocity": 0.5905511811023622
        },
        {
          "duration": 0.05555549999999876,
          "durationTicks": 64,
          "midi": 39,
          "name": "D#2",
          "ticks": 15648,
          "time": 13.58331975,
          "velocity": 0.5905511811023622
        },
        {
          "duration": 0.05555549999999876,
          "durationTicks": 64,
          "midi": 39,
          "name": "D#2",
          "ticks": 15744,
          "time": 13.666653,
          "velocity": 0.5905511811023622
        },
        {
          "duration": 0.05555549999999876,
          "durationTicks": 64,
          "midi": 39,
          "name": "D#2",
          "ticks": 15936,
          "time": 13.8333195,
          "velocity": 0.5905511811023622
        },
        {
          "duration": 0.055555500000000535,
          "durationTicks": 64,
          "midi": 39,
          "name": "D#2",
          "ticks": 16032,
          "time": 13.916652749999999,
          "velocity": 0.5905511811023622
        },
        {
          "duration": 0.05555549999999876,
          "durationTicks": 64,
          "midi": 39,
          "name": "D#2",
          "ticks": 16128,
          "time": 13.999986,
          "velocity": 0.5905511811023622
        },
        {
          "duration": 0.05555549999999876,
          "durationTicks": 64,
          "midi": 39,
          "name": "D#2",
          "ticks": 16320,
          "time": 14.1666525,
          "velocity": 0.5905511811023622
        },
        {
          "duration": 0.05555549999999876,
          "durationTicks": 64,
          "midi": 39,
          "name": "D#2",
          "ticks": 16416,
          "time": 14.24998575,
          "velocity": 0.5905511811023622
        },
        {
          "duration": 0.05555549999999876,
          "durationTicks": 64,
          "midi": 39,
          "name": "D#2",
          "ticks": 16512,
          "time": 14.333319,
          "velocity": 0.5905511811023622
        },
        {
          "duration": 0.05555549999999876,
          "durationTicks": 64,
          "midi": 39,
          "name": "D#2",
          "ticks": 16608,
          "time": 14.41665225,
          "velocity": 0.5905511811023622
        },
        {
          "duration": 0.05555549999999876,
          "durationTicks": 64,
          "midi": 39,
          "name": "D#2",
          "ticks": 16704,
          "time": 14.4999855,
          "velocity": 0.5905511811023622
        },
        {
          "duration": 0.05555549999999876,
          "durationTicks": 64,
          "midi": 39,
          "name": "D#2",
          "ticks": 16800,
          "time": 14.58331875,
          "velocity": 0.5905511811023622
        },
        {
          "duration": 0.055555500000000535,
          "durationTicks": 64,
          "midi": 39,
          "name": "D#2",
          "ticks": 16896,
          "time": 14.666652,
          "velocity": 0.5905511811023622
        },
        {
          "duration": 0.055555500000000535,
          "durationTicks": 64,
          "midi": 39,
          "name": "D#2",
          "ticks": 17088,
          "time": 14.833318499999999,
          "velocity": 0.5905511811023622
        },
        {
          "duration": 0.05555549999999876,
          "durationTicks": 64,
          "midi": 39,
          "name": "D#2",
          "ticks": 17184,
          "time": 14.91665175,
          "velocity": 0.5905511811023622
        },
        {
          "duration": 0.055555500000000535,
          "durationTicks": 64,
          "midi": 39,
          "name": "D#2",
          "ticks": 17280,
          "time": 14.999984999999999,
          "velocity": 0.5905511811023622
        },
        {
          "duration": 0.05555549999999876,
          "durationTicks": 64,
          "midi": 39,
          "name": "D#2",
          "ticks": 17472,
          "time": 15.1666515,
          "velocity": 0.5905511811023622
        },
        {
          "duration": 0.05555549999999876,
          "durationTicks": 64,
          "midi": 39,
          "name": "D#2",
          "ticks": 17568,
          "time": 15.24998475,
          "velocity": 0.5905511811023622
        },
        {
          "duration": 0.05555549999999876,
          "durationTicks": 64,
          "midi": 39,
          "name": "D#2",
          "ticks": 17664,
          "time": 15.333318,
          "velocity": 0.5905511811023622
        },
        {
          "duration": 0.05555549999999876,
          "durationTicks": 64,
          "midi": 39,
          "name": "D#2",
          "ticks": 17856,
          "time": 15.4999845,
          "velocity": 0.5905511811023622
        },
        {
          "duration": 0.055555500000000535,
          "durationTicks": 64,
          "midi": 39,
          "name": "D#2",
          "ticks": 17952,
          "time": 15.583317749999999,
          "velocity": 0.5905511811023622
        },
        {
          "duration": 0.05555549999999876,
          "durationTicks": 64,
          "midi": 39,
          "name": "D#2",
          "ticks": 18048,
          "time": 15.666651,
          "velocity": 0.5905511811023622
        },
        {
          "duration": 0.055555500000000535,
          "durationTicks": 64,
          "midi": 39,
          "name": "D#2",
          "ticks": 18144,
          "time": 15.749984249999999,
          "velocity": 0.5905511811023622
        },
        {
          "duration": 0.05555549999999876,
          "durationTicks": 64,
          "midi": 39,
          "name": "D#2",
          "ticks": 18240,
          "time": 15.8333175,
          "velocity": 0.5905511811023622
        },
        {
          "duration": 0.055555500000000535,
          "durationTicks": 64,
          "midi": 39,
          "name": "D#2",
          "ticks": 18336,
          "time": 15.916650749999999,
          "velocity": 0.5905511811023622
        },
        {
          "duration": 0.05555549999999876,
          "durationTicks": 64,
          "midi": 39,
          "name": "D#2",
          "ticks": 18432,
          "time": 15.999984,
          "velocity": 0.5905511811023622
        },
        {
          "duration": 0.055555500000000535,
          "durationTicks": 64,
          "midi": 39,
          "name": "D#2",
          "ticks": 18624,
          "time": 16.1666505,
          "velocity": 0.5905511811023622
        },
        {
          "duration": 0.055555500000000535,
          "durationTicks": 64,
          "midi": 39,
          "name": "D#2",
          "ticks": 18720,
          "time": 16.24998375,
          "velocity": 0.5905511811023622
        },
        {
          "duration": 0.05555549999999698,
          "durationTicks": 64,
          "midi": 39,
          "name": "D#2",
          "ticks": 18816,
          "time": 16.333317,
          "velocity": 0.5905511811023622
        },
        {
          "duration": 0.05555549999999698,
          "durationTicks": 64,
          "midi": 39,
          "name": "D#2",
          "ticks": 18912,
          "time": 16.41665025,
          "velocity": 0.5905511811023622
        },
        {
          "duration": 0.055555500000000535,
          "durationTicks": 64,
          "midi": 39,
          "name": "D#2",
          "ticks": 19008,
          "time": 16.4999835,
          "velocity": 0.5905511811023622
        },
        {
          "duration": 0.055555500000000535,
          "durationTicks": 64,
          "midi": 39,
          "name": "D#2",
          "ticks": 19104,
          "time": 16.583316749999998,
          "velocity": 0.5905511811023622
        },
        {
          "duration": 0.05555549999999698,
          "durationTicks": 64,
          "midi": 39,
          "name": "D#2",
          "ticks": 19200,
          "time": 16.66665,
          "velocity": 0.5905511811023622
        },
        {
          "duration": 0.055555500000000535,
          "durationTicks": 64,
          "midi": 39,
          "name": "D#2",
          "ticks": 19392,
          "time": 16.8333165,
          "velocity": 0.5905511811023622
        },
        {
          "duration": 0.05555549999999698,
          "durationTicks": 64,
          "midi": 39,
          "name": "D#2",
          "ticks": 19488,
          "time": 16.91664975,
          "velocity": 0.5905511811023622
        },
        {
          "duration": 0.05555549999999698,
          "durationTicks": 64,
          "midi": 39,
          "name": "D#2",
          "ticks": 19584,
          "time": 16.999983,
          "velocity": 0.5905511811023622
        },
        {
          "duration": 0.055555500000000535,
          "durationTicks": 64,
          "midi": 39,
          "name": "D#2",
          "ticks": 19680,
          "time": 17.08331625,
          "velocity": 0.5905511811023622
        },
        {
          "duration": 0.055555500000000535,
          "durationTicks": 64,
          "midi": 39,
          "name": "D#2",
          "ticks": 19776,
          "time": 17.1666495,
          "velocity": 0.5905511811023622
        },
        {
          "duration": 0.05555549999999698,
          "durationTicks": 64,
          "midi": 39,
          "name": "D#2",
          "ticks": 19872,
          "time": 17.24998275,
          "velocity": 0.5905511811023622
        },
        {
          "duration": 0.055555500000000535,
          "durationTicks": 64,
          "midi": 39,
          "name": "D#2",
          "ticks": 19968,
          "time": 17.333316,
          "velocity": 0.5905511811023622
        },
        {
          "duration": 0.055555500000000535,
          "durationTicks": 64,
          "midi": 39,
          "name": "D#2",
          "ticks": 20160,
          "time": 17.499982499999998,
          "velocity": 0.5905511811023622
        },
        {
          "duration": 0.05555549999999698,
          "durationTicks": 64,
          "midi": 39,
          "name": "D#2",
          "ticks": 20256,
          "time": 17.58331575,
          "velocity": 0.5905511811023622
        },
        {
          "duration": 0.05555549999999698,
          "durationTicks": 64,
          "midi": 42,
          "name": "F#2",
          "ticks": 20544,
          "time": 17.8333155,
          "velocity": 0.5905511811023622
        },
        {
          "duration": 0.05555549999999698,
          "durationTicks": 64,
          "midi": 42,
          "name": "F#2",
          "ticks": 20640,
          "time": 17.91664875,
          "velocity": 0.5905511811023622
        },
        {
          "duration": 0.055555500000000535,
          "durationTicks": 64,
          "midi": 39,
          "name": "D#2",
          "ticks": 20736,
          "time": 17.999982,
          "velocity": 0.5905511811023622
        },
        {
          "duration": 0.05555549999999698,
          "durationTicks": 64,
          "midi": 39,
          "name": "D#2",
          "ticks": 20928,
          "time": 18.1666485,
          "velocity": 0.5905511811023622
        },
        {
          "duration": 0.055555500000000535,
          "durationTicks": 64,
          "midi": 42,
          "name": "F#2",
          "ticks": 21120,
          "time": 18.333315,
          "velocity": 0.5905511811023622
        },
        {
          "duration": 0.055555500000000535,
          "durationTicks": 64,
          "midi": 42,
          "name": "F#2",
          "ticks": 21216,
          "time": 18.416648249999998,
          "velocity": 0.5905511811023622
        },
        {
          "duration": 0.05555549999999698,
          "durationTicks": 64,
          "midi": 42,
          "name": "F#2",
          "ticks": 21312,
          "time": 18.4999815,
          "velocity": 0.5905511811023622
        },
        {
          "duration": 0.055555500000000535,
          "durationTicks": 64,
          "midi": 42,
          "name": "F#2",
          "ticks": 21408,
          "time": 18.58331475,
          "velocity": 0.5905511811023622
        },
        {
          "duration": 0.055555500000000535,
          "durationTicks": 64,
          "midi": 39,
          "name": "D#2",
          "ticks": 21504,
          "time": 18.666648,
          "velocity": 0.5905511811023622
        },
        {
          "duration": 0.05555549999999698,
          "durationTicks": 64,
          "midi": 39,
          "name": "D#2",
          "ticks": 21696,
          "time": 18.8333145,
          "velocity": 0.5905511811023622
        },
        {
          "duration": 0.055555500000000535,
          "durationTicks": 64,
          "midi": 39,
          "name": "D#2",
          "ticks": 21792,
          "time": 18.91664775,
          "velocity": 0.5905511811023622
        },
        {
          "duration": 0.055555500000000535,
          "durationTicks": 64,
          "midi": 39,
          "name": "D#2",
          "ticks": 21888,
          "time": 18.999981,
          "velocity": 0.5905511811023622
        },
        {
          "duration": 0.055555500000000535,
          "durationTicks": 64,
          "midi": 39,
          "name": "D#2",
          "ticks": 22080,
          "time": 19.1666475,
          "velocity": 0.5905511811023622
        },
        {
          "duration": 0.055555500000000535,
          "durationTicks": 64,
          "midi": 39,
          "name": "D#2",
          "ticks": 22176,
          "time": 19.24998075,
          "velocity": 0.5905511811023622
        },
        {
          "duration": 0.055555500000000535,
          "durationTicks": 64,
          "midi": 39,
          "name": "D#2",
          "ticks": 22272,
          "time": 19.333313999999998,
          "velocity": 0.5905511811023622
        },
        {
          "duration": 0.055555500000000535,
          "durationTicks": 64,
          "midi": 39,
          "name": "D#2",
          "ticks": 22464,
          "time": 19.4999805,
          "velocity": 0.5905511811023622
        },
        {
          "duration": 0.055555500000000535,
          "durationTicks": 64,
          "midi": 39,
          "name": "D#2",
          "ticks": 22560,
          "time": 19.58331375,
          "velocity": 0.5905511811023622
        },
        {
          "duration": 0.05555549999999698,
          "durationTicks": 64,
          "midi": 39,
          "name": "D#2",
          "ticks": 22656,
          "time": 19.666647,
          "velocity": 0.5905511811023622
        },
        {
          "duration": 0.05555549999999698,
          "durationTicks": 64,
          "midi": 39,
          "name": "D#2",
          "ticks": 22752,
          "time": 19.74998025,
          "velocity": 0.5905511811023622
        },
        {
          "duration": 0.055555500000000535,
          "durationTicks": 64,
          "midi": 39,
          "name": "D#2",
          "ticks": 22848,
          "time": 19.8333135,
          "velocity": 0.5905511811023622
        },
        {
          "duration": 0.055555500000000535,
          "durationTicks": 64,
          "midi": 39,
          "name": "D#2",
          "ticks": 22944,
          "time": 19.916646749999998,
          "velocity": 0.5905511811023622
        },
        {
          "duration": 0.05555549999999698,
          "durationTicks": 64,
          "midi": 39,
          "name": "D#2",
          "ticks": 23040,
          "time": 19.99998,
          "velocity": 0.5905511811023622
        },
        {
          "duration": 0.055555500000000535,
          "durationTicks": 64,
          "midi": 39,
          "name": "D#2",
          "ticks": 23232,
          "time": 20.1666465,
          "velocity": 0.5905511811023622
        },
        {
          "duration": 0.055555500000000535,
          "durationTicks": 64,
          "midi": 39,
          "name": "D#2",
          "ticks": 23328,
          "time": 20.249979749999998,
          "velocity": 0.5905511811023622
        },
        {
          "duration": 0.05555549999999698,
          "durationTicks": 64,
          "midi": 39,
          "name": "D#2",
          "ticks": 23424,
          "time": 20.333313,
          "velocity": 0.5905511811023622
        },
        {
          "duration": 0.055555500000000535,
          "durationTicks": 64,
          "midi": 39,
          "name": "D#2",
          "ticks": 23616,
          "time": 20.4999795,
          "velocity": 0.5905511811023622
        },
        {
          "duration": 0.05555549999999698,
          "durationTicks": 64,
          "midi": 39,
          "name": "D#2",
          "ticks": 23712,
          "time": 20.58331275,
          "velocity": 0.5905511811023622
        },
        {
          "duration": 0.05555549999999698,
          "durationTicks": 64,
          "midi": 39,
          "name": "D#2",
          "ticks": 23808,
          "time": 20.666646,
          "velocity": 0.5905511811023622
        },
        {
          "duration": 0.055555500000000535,
          "durationTicks": 64,
          "midi": 39,
          "name": "D#2",
          "ticks": 24000,
          "time": 20.833312499999998,
          "velocity": 0.5905511811023622
        },
        {
          "duration": 0.05555549999999698,
          "durationTicks": 64,
          "midi": 39,
          "name": "D#2",
          "ticks": 24096,
          "time": 20.91664575,
          "velocity": 0.5905511811023622
        },
        {
          "duration": 0.055555500000000535,
          "durationTicks": 64,
          "midi": 39,
          "name": "D#2",
          "ticks": 24192,
          "time": 20.999979,
          "velocity": 0.5905511811023622
        },
        {
          "duration": 0.055555500000000535,
          "durationTicks": 64,
          "midi": 39,
          "name": "D#2",
          "ticks": 24288,
          "time": 21.08331225,
          "velocity": 0.5905511811023622
        },
        {
          "duration": 0.055555500000000535,
          "durationTicks": 64,
          "midi": 39,
          "name": "D#2",
          "ticks": 24384,
          "time": 21.166645499999998,
          "velocity": 0.5905511811023622
        },
        {
          "duration": 0.05555549999999698,
          "durationTicks": 64,
          "midi": 39,
          "name": "D#2",
          "ticks": 24480,
          "time": 21.24997875,
          "velocity": 0.5905511811023622
        },
        {
          "duration": 0.055555500000000535,
          "durationTicks": 64,
          "midi": 39,
          "name": "D#2",
          "ticks": 24576,
          "time": 21.333312,
          "velocity": 0.5905511811023622
        },
        {
          "duration": 0.05555550000000409,
          "durationTicks": 64,
          "midi": 39,
          "name": "D#2",
          "ticks": 24672,
          "time": 21.41664525,
          "velocity": 0.5905511811023622
        },
        {
          "duration": 0.055555500000000535,
          "durationTicks": 64,
          "midi": 39,
          "name": "D#2",
          "ticks": 24768,
          "time": 21.4999785,
          "velocity": 0.47244094488188976
        },
        {
          "duration": 0.055555500000000535,
          "durationTicks": 64,
          "midi": 39,
          "name": "D#2",
          "ticks": 24864,
          "time": 21.58331175,
          "velocity": 0.47244094488188976
        },
        {
          "duration": 0.055555500000000535,
          "durationTicks": 64,
          "midi": 39,
          "name": "D#2",
          "ticks": 24960,
          "time": 21.666645,
          "velocity": 0.5905511811023622
        },
        {
          "duration": 0.05555550000000409,
          "durationTicks": 64,
          "midi": 39,
          "name": "D#2",
          "ticks": 25056,
          "time": 21.749978249999998,
          "velocity": 0.5905511811023622
        },
        {
          "duration": 0.055555500000000535,
          "durationTicks": 64,
          "midi": 39,
          "name": "D#2",
          "ticks": 25152,
          "time": 21.8333115,
          "velocity": 0.47244094488188976
        },
        {
          "duration": 0.055555500000000535,
          "durationTicks": 64,
          "midi": 39,
          "name": "D#2",
          "ticks": 25248,
          "time": 21.91664475,
          "velocity": 0.47244094488188976
        },
        {
          "duration": 0.055555500000000535,
          "durationTicks": 64,
          "midi": 39,
          "name": "D#2",
          "ticks": 25344,
          "time": 21.999978,
          "velocity": 0.5905511811023622
        },
        {
          "duration": 0.05555550000000409,
          "durationTicks": 64,
          "midi": 39,
          "name": "D#2",
          "ticks": 25440,
          "time": 22.083311249999998,
          "velocity": 0.5905511811023622
        },
        {
          "duration": 0.055555500000000535,
          "durationTicks": 64,
          "midi": 39,
          "name": "D#2",
          "ticks": 25536,
          "time": 22.1666445,
          "velocity": 0.47244094488188976
        },
        {
          "duration": 0.055555500000000535,
          "durationTicks": 64,
          "midi": 39,
          "name": "D#2",
          "ticks": 25632,
          "time": 22.24997775,
          "velocity": 0.47244094488188976
        },
        {
          "duration": 0.05555550000000409,
          "durationTicks": 64,
          "midi": 39,
          "name": "D#2",
          "ticks": 25728,
          "time": 22.333311,
          "velocity": 0.5905511811023622
        },
        {
          "duration": 0.055555500000000535,
          "durationTicks": 64,
          "midi": 39,
          "name": "D#2",
          "ticks": 25824,
          "time": 22.41664425,
          "velocity": 0.5905511811023622
        },
        {
          "duration": 0.055555500000000535,
          "durationTicks": 64,
          "midi": 39,
          "name": "D#2",
          "ticks": 25920,
          "time": 22.4999775,
          "velocity": 0.47244094488188976
        },
        {
          "duration": 0.055555500000000535,
          "durationTicks": 64,
          "midi": 39,
          "name": "D#2",
          "ticks": 26016,
          "time": 22.58331075,
          "velocity": 0.47244094488188976
        },
        {
          "duration": 0.05555550000000409,
          "durationTicks": 64,
          "midi": 39,
          "name": "D#2",
          "ticks": 26112,
          "time": 22.666643999999998,
          "velocity": 0.5905511811023622
        },
        {
          "duration": 0.055555500000000535,
          "durationTicks": 64,
          "midi": 39,
          "name": "D#2",
          "ticks": 26208,
          "time": 22.74997725,
          "velocity": 0.5905511811023622
        },
        {
          "duration": 0.055555500000000535,
          "durationTicks": 64,
          "midi": 39,
          "name": "D#2",
          "ticks": 26304,
          "time": 22.8333105,
          "velocity": 0.47244094488188976
        },
        {
          "duration": 0.055555500000000535,
          "durationTicks": 64,
          "midi": 39,
          "name": "D#2",
          "ticks": 26400,
          "time": 22.91664375,
          "velocity": 0.47244094488188976
        },
        {
          "duration": 0.05555550000000409,
          "durationTicks": 64,
          "midi": 39,
          "name": "D#2",
          "ticks": 26496,
          "time": 22.999976999999998,
          "velocity": 0.5905511811023622
        },
        {
          "duration": 0.055555500000000535,
          "durationTicks": 64,
          "midi": 39,
          "name": "D#2",
          "ticks": 26592,
          "time": 23.08331025,
          "velocity": 0.5905511811023622
        },
        {
          "duration": 0.055555500000000535,
          "durationTicks": 64,
          "midi": 39,
          "name": "D#2",
          "ticks": 26688,
          "time": 23.1666435,
          "velocity": 0.47244094488188976
        },
        {
          "duration": 0.05555550000000409,
          "durationTicks": 64,
          "midi": 39,
          "name": "D#2",
          "ticks": 26784,
          "time": 23.24997675,
          "velocity": 0.47244094488188976
        },
        {
          "duration": 0.055555500000000535,
          "durationTicks": 64,
          "midi": 39,
          "name": "D#2",
          "ticks": 26880,
          "time": 23.33331,
          "velocity": 0.5905511811023622
        },
        {
          "duration": 0.055555500000000535,
          "durationTicks": 64,
          "midi": 39,
          "name": "D#2",
          "ticks": 26976,
          "time": 23.41664325,
          "velocity": 0.5905511811023622
        },
        {
          "duration": 0.055555500000000535,
          "durationTicks": 64,
          "midi": 39,
          "name": "D#2",
          "ticks": 27072,
          "time": 23.4999765,
          "velocity": 0.47244094488188976
        },
        {
          "duration": 0.05555550000000409,
          "durationTicks": 64,
          "midi": 39,
          "name": "D#2",
          "ticks": 27168,
          "time": 23.583309749999998,
          "velocity": 0.47244094488188976
        },
        {
          "duration": 0.055555500000000535,
          "durationTicks": 64,
          "midi": 39,
          "name": "D#2",
          "ticks": 27264,
          "time": 23.666643,
          "velocity": 0.5905511811023622
        },
        {
          "duration": 0.055555500000000535,
          "durationTicks": 64,
          "midi": 39,
          "name": "D#2",
          "ticks": 27360,
          "time": 23.74997625,
          "velocity": 0.5905511811023622
        },
        {
          "duration": 0.055555500000000535,
          "durationTicks": 64,
          "midi": 39,
          "name": "D#2",
          "ticks": 27456,
          "time": 23.8333095,
          "velocity": 0.47244094488188976
        },
        {
          "duration": 0.05555550000000409,
          "durationTicks": 64,
          "midi": 39,
          "name": "D#2",
          "ticks": 27552,
          "time": 23.916642749999998,
          "velocity": 0.47244094488188976
        },
        {
          "duration": 0.055555500000000535,
          "durationTicks": 64,
          "midi": 39,
          "name": "D#2",
          "ticks": 27648,
          "time": 23.999976,
          "velocity": 0.5905511811023622
        },
        {
          "duration": 0.055555500000000535,
          "durationTicks": 64,
          "midi": 39,
          "name": "D#2",
          "ticks": 27744,
          "time": 24.08330925,
          "velocity": 0.5905511811023622
        },
        {
          "duration": 0.05555550000000409,
          "durationTicks": 64,
          "midi": 39,
          "name": "D#2",
          "ticks": 27840,
          "time": 24.1666425,
          "velocity": 0.47244094488188976
        },
        {
          "duration": 0.055555500000000535,
          "durationTicks": 64,
          "midi": 39,
          "name": "D#2",
          "ticks": 27936,
          "time": 24.24997575,
          "velocity": 0.47244094488188976
        },
        {
          "duration": 0.055555500000000535,
          "durationTicks": 64,
          "midi": 39,
          "name": "D#2",
          "ticks": 28032,
          "time": 24.333309,
          "velocity": 0.5905511811023622
        },
        {
          "duration": 0.055555500000000535,
          "durationTicks": 64,
          "midi": 39,
          "name": "D#2",
          "ticks": 28128,
          "time": 24.41664225,
          "velocity": 0.5905511811023622
        },
        {
          "duration": 0.05555550000000409,
          "durationTicks": 64,
          "midi": 39,
          "name": "D#2",
          "ticks": 28224,
          "time": 24.499975499999998,
          "velocity": 0.47244094488188976
        },
        {
          "duration": 0.055555500000000535,
          "durationTicks": 64,
          "midi": 39,
          "name": "D#2",
          "ticks": 28320,
          "time": 24.58330875,
          "velocity": 0.47244094488188976
        },
        {
          "duration": 0.055555500000000535,
          "durationTicks": 64,
          "midi": 39,
          "name": "D#2",
          "ticks": 28416,
          "time": 24.666642,
          "velocity": 0.5905511811023622
        },
        {
          "duration": 0.05555550000000409,
          "durationTicks": 64,
          "midi": 39,
          "name": "D#2",
          "ticks": 28512,
          "time": 24.74997525,
          "velocity": 0.5905511811023622
        },
        {
          "duration": 0.05555550000000409,
          "durationTicks": 64,
          "midi": 39,
          "name": "D#2",
          "ticks": 28608,
          "time": 24.833308499999998,
          "velocity": 0.47244094488188976
        },
        {
          "duration": 0.055555500000000535,
          "durationTicks": 64,
          "midi": 39,
          "name": "D#2",
          "ticks": 28704,
          "time": 24.91664175,
          "velocity": 0.47244094488188976
        },
        {
          "duration": 0.055555500000000535,
          "durationTicks": 64,
          "midi": 39,
          "name": "D#2",
          "ticks": 28800,
          "time": 24.999975,
          "velocity": 0.5905511811023622
        },
        {
          "duration": 0.05555550000000409,
          "durationTicks": 64,
          "midi": 39,
          "name": "D#2",
          "ticks": 28896,
          "time": 25.083308249999998,
          "velocity": 0.5905511811023622
        },
        {
          "duration": 0.055555500000000535,
          "durationTicks": 64,
          "midi": 39,
          "name": "D#2",
          "ticks": 28992,
          "time": 25.1666415,
          "velocity": 0.47244094488188976
        },
        {
          "duration": 0.055555500000000535,
          "durationTicks": 64,
          "midi": 39,
          "name": "D#2",
          "ticks": 29088,
          "time": 25.24997475,
          "velocity": 0.47244094488188976
        },
        {
          "duration": 0.055555500000000535,
          "durationTicks": 64,
          "midi": 39,
          "name": "D#2",
          "ticks": 29184,
          "time": 25.333308,
          "velocity": 0.5905511811023622
        },
        {
          "duration": 0.05555550000000409,
          "durationTicks": 64,
          "midi": 39,
          "name": "D#2",
          "ticks": 29280,
          "time": 25.416641249999998,
          "velocity": 0.5905511811023622
        },
        {
          "duration": 0.055555500000000535,
          "durationTicks": 64,
          "midi": 39,
          "name": "D#2",
          "ticks": 29376,
          "time": 25.4999745,
          "velocity": 0.47244094488188976
        },
        {
          "duration": 0.055555500000000535,
          "durationTicks": 64,
          "midi": 39,
          "name": "D#2",
          "ticks": 29472,
          "time": 25.58330775,
          "velocity": 0.47244094488188976
        },
        {
          "duration": 0.05555550000000409,
          "durationTicks": 64,
          "midi": 39,
          "name": "D#2",
          "ticks": 29568,
          "time": 25.666641,
          "velocity": 0.5905511811023622
        },
        {
          "duration": 0.05555550000000409,
          "durationTicks": 64,
          "midi": 39,
          "name": "D#2",
          "ticks": 29664,
          "time": 25.749974249999998,
          "velocity": 0.5905511811023622
        },
        {
          "duration": 0.055555500000000535,
          "durationTicks": 64,
          "midi": 39,
          "name": "D#2",
          "ticks": 29760,
          "time": 25.8333075,
          "velocity": 0.47244094488188976
        },
        {
          "duration": 0.055555500000000535,
          "durationTicks": 64,
          "midi": 39,
          "name": "D#2",
          "ticks": 29856,
          "time": 25.91664075,
          "velocity": 0.47244094488188976
        },
        {
          "duration": 0.05555550000000409,
          "durationTicks": 64,
          "midi": 39,
          "name": "D#2",
          "ticks": 29952,
          "time": 25.999973999999998,
          "velocity": 0.5905511811023622
        },
        {
          "duration": 0.055555500000000535,
          "durationTicks": 64,
          "midi": 39,
          "name": "D#2",
          "ticks": 30048,
          "time": 26.08330725,
          "velocity": 0.5905511811023622
        },
        {
          "duration": 0.055555500000000535,
          "durationTicks": 64,
          "midi": 39,
          "name": "D#2",
          "ticks": 30144,
          "time": 26.1666405,
          "velocity": 0.47244094488188976
        },
        {
          "duration": 0.055555500000000535,
          "durationTicks": 64,
          "midi": 39,
          "name": "D#2",
          "ticks": 30240,
          "time": 26.24997375,
          "velocity": 0.47244094488188976
        },
        {
          "duration": 0.05555550000000409,
          "durationTicks": 64,
          "midi": 39,
          "name": "D#2",
          "ticks": 30336,
          "time": 26.333306999999998,
          "velocity": 0.5905511811023622
        },
        {
          "duration": 0.055555500000000535,
          "durationTicks": 64,
          "midi": 39,
          "name": "D#2",
          "ticks": 30432,
          "time": 26.41664025,
          "velocity": 0.5905511811023622
        },
        {
          "duration": 0.055555500000000535,
          "durationTicks": 64,
          "midi": 39,
          "name": "D#2",
          "ticks": 30528,
          "time": 26.4999735,
          "velocity": 0.47244094488188976
        },
        {
          "duration": 0.05555550000000409,
          "durationTicks": 64,
          "midi": 39,
          "name": "D#2",
          "ticks": 30624,
          "time": 26.58330675,
          "velocity": 0.47244094488188976
        },
        {
          "duration": 0.055555500000000535,
          "durationTicks": 64,
          "midi": 39,
          "name": "D#2",
          "ticks": 30720,
          "time": 26.66664,
          "velocity": 0.5905511811023622
        },
        {
          "duration": 0.055555500000000535,
          "durationTicks": 64,
          "midi": 39,
          "name": "D#2",
          "ticks": 30816,
          "time": 26.74997325,
          "velocity": 0.5905511811023622
        },
        {
          "duration": 0.055555500000000535,
          "durationTicks": 64,
          "midi": 39,
          "name": "D#2",
          "ticks": 30912,
          "time": 26.8333065,
          "velocity": 0.47244094488188976
        },
        {
          "duration": 0.05555550000000409,
          "durationTicks": 64,
          "midi": 39,
          "name": "D#2",
          "ticks": 31008,
          "time": 26.916639749999998,
          "velocity": 0.47244094488188976
        },
        {
          "duration": 0.055555500000000535,
          "durationTicks": 64,
          "midi": 39,
          "name": "D#2",
          "ticks": 31104,
          "time": 26.999973,
          "velocity": 0.5905511811023622
        },
        {
          "duration": 0.055555500000000535,
          "durationTicks": 64,
          "midi": 39,
          "name": "D#2",
          "ticks": 31200,
          "time": 27.08330625,
          "velocity": 0.5905511811023622
        },
        {
          "duration": 0.055555500000000535,
          "durationTicks": 64,
          "midi": 39,
          "name": "D#2",
          "ticks": 31296,
          "time": 27.1666395,
          "velocity": 0.47244094488188976
        },
        {
          "duration": 0.05555550000000409,
          "durationTicks": 64,
          "midi": 39,
          "name": "D#2",
          "ticks": 31392,
          "time": 27.249972749999998,
          "velocity": 0.47244094488188976
        },
        {
          "duration": 0.055555500000000535,
          "durationTicks": 64,
          "midi": 39,
          "name": "D#2",
          "ticks": 31488,
          "time": 27.333306,
          "velocity": 0.5905511811023622
        },
        {
          "duration": 0.055555500000000535,
          "durationTicks": 64,
          "midi": 39,
          "name": "D#2",
          "ticks": 31584,
          "time": 27.41663925,
          "velocity": 0.5905511811023622
        },
        {
          "duration": 0.05555550000000409,
          "durationTicks": 64,
          "midi": 39,
          "name": "D#2",
          "ticks": 31680,
          "time": 27.4999725,
          "velocity": 0.47244094488188976
        },
        {
          "duration": 0.055555500000000535,
          "durationTicks": 64,
          "midi": 39,
          "name": "D#2",
          "ticks": 31776,
          "time": 27.58330575,
          "velocity": 0.47244094488188976
        },
        {
          "duration": 0.055555500000000535,
          "durationTicks": 64,
          "midi": 39,
          "name": "D#2",
          "ticks": 31872,
          "time": 27.666639,
          "velocity": 0.5905511811023622
        },
        {
          "duration": 0.055555500000000535,
          "durationTicks": 64,
          "midi": 39,
          "name": "D#2",
          "ticks": 31968,
          "time": 27.74997225,
          "velocity": 0.5905511811023622
        },
        {
          "duration": 0.05555550000000409,
          "durationTicks": 64,
          "midi": 39,
          "name": "D#2",
          "ticks": 32064,
          "time": 27.833305499999998,
          "velocity": 0.47244094488188976
        },
        {
          "duration": 0.055555500000000535,
          "durationTicks": 64,
          "midi": 39,
          "name": "D#2",
          "ticks": 32160,
          "time": 27.91663875,
          "velocity": 0.47244094488188976
        },
        {
          "duration": 0.055555500000000535,
          "durationTicks": 64,
          "midi": 39,
          "name": "D#2",
          "ticks": 32256,
          "time": 27.999972,
          "velocity": 0.5905511811023622
        },
        {
          "duration": 0.055555500000000535,
          "durationTicks": 64,
          "midi": 39,
          "name": "D#2",
          "ticks": 32352,
          "time": 28.08330525,
          "velocity": 0.5905511811023622
        },
        {
          "duration": 0.05555550000000409,
          "durationTicks": 64,
          "midi": 39,
          "name": "D#2",
          "ticks": 32448,
          "time": 28.166638499999998,
          "velocity": 0.47244094488188976
        },
        {
          "duration": 0.055555500000000535,
          "durationTicks": 64,
          "midi": 39,
          "name": "D#2",
          "ticks": 32544,
          "time": 28.24997175,
          "velocity": 0.47244094488188976
        },
        {
          "duration": 0.055555500000000535,
          "durationTicks": 64,
          "midi": 39,
          "name": "D#2",
          "ticks": 32640,
          "time": 28.333305,
          "velocity": 0.5905511811023622
        },
        {
          "duration": 0.05555550000000409,
          "durationTicks": 64,
          "midi": 39,
          "name": "D#2",
          "ticks": 32736,
          "time": 28.41663825,
          "velocity": 0.5905511811023622
        },
        {
          "duration": 0.055555500000000535,
          "durationTicks": 64,
          "midi": 39,
          "name": "D#2",
          "ticks": 32832,
          "time": 28.4999715,
          "velocity": 0.47244094488188976
        },
        {
          "duration": 0.055555500000000535,
          "durationTicks": 64,
          "midi": 39,
          "name": "D#2",
          "ticks": 32928,
          "time": 28.58330475,
          "velocity": 0.47244094488188976
        },
        {
          "duration": 0.055555500000000535,
          "durationTicks": 64,
          "midi": 39,
          "name": "D#2",
          "ticks": 33024,
          "time": 28.666638,
          "velocity": 0.5905511811023622
        },
        {
          "duration": 0.05555550000000409,
          "durationTicks": 64,
          "midi": 39,
          "name": "D#2",
          "ticks": 33120,
          "time": 28.749971249999998,
          "velocity": 0.5905511811023622
        },
        {
          "duration": 0.055555500000000535,
          "durationTicks": 64,
          "midi": 39,
          "name": "D#2",
          "ticks": 33216,
          "time": 28.8333045,
          "velocity": 0.47244094488188976
        },
        {
          "duration": 0.055555500000000535,
          "durationTicks": 64,
          "midi": 39,
          "name": "D#2",
          "ticks": 33312,
          "time": 28.91663775,
          "velocity": 0.47244094488188976
        },
        {
          "duration": 0.055555500000000535,
          "durationTicks": 64,
          "midi": 39,
          "name": "D#2",
          "ticks": 33408,
          "time": 28.999971,
          "velocity": 0.5905511811023622
        },
        {
          "duration": 0.05555550000000409,
          "durationTicks": 64,
          "midi": 39,
          "name": "D#2",
          "ticks": 33504,
          "time": 29.083304249999998,
          "velocity": 0.5905511811023622
        },
        {
          "duration": 0.055555500000000535,
          "durationTicks": 64,
          "midi": 39,
          "name": "D#2",
          "ticks": 33600,
          "time": 29.1666375,
          "velocity": 0.47244094488188976
        },
        {
          "duration": 0.055555500000000535,
          "durationTicks": 64,
          "midi": 39,
          "name": "D#2",
          "ticks": 33696,
          "time": 29.24997075,
          "velocity": 0.47244094488188976
        },
        {
          "duration": 0.05555550000000409,
          "durationTicks": 64,
          "midi": 39,
          "name": "D#2",
          "ticks": 33792,
          "time": 29.333304,
          "velocity": 0.5905511811023622
        },
        {
          "duration": 0.055555500000000535,
          "durationTicks": 64,
          "midi": 39,
          "name": "D#2",
          "ticks": 33888,
          "time": 29.41663725,
          "velocity": 0.5905511811023622
        },
        {
          "duration": 0.055555500000000535,
          "durationTicks": 64,
          "midi": 39,
          "name": "D#2",
          "ticks": 33984,
          "time": 29.4999705,
          "velocity": 0.47244094488188976
        },
        {
          "duration": 0.055555500000000535,
          "durationTicks": 64,
          "midi": 39,
          "name": "D#2",
          "ticks": 34080,
          "time": 29.58330375,
          "velocity": 0.47244094488188976
        },
        {
          "duration": 0.05555550000000409,
          "durationTicks": 64,
          "midi": 39,
          "name": "D#2",
          "ticks": 34176,
          "time": 29.666636999999998,
          "velocity": 0.5905511811023622
        },
        {
          "duration": 0.055555500000000535,
          "durationTicks": 64,
          "midi": 39,
          "name": "D#2",
          "ticks": 34272,
          "time": 29.74997025,
          "velocity": 0.5905511811023622
        },
        {
          "duration": 0.055555500000000535,
          "durationTicks": 64,
          "midi": 39,
          "name": "D#2",
          "ticks": 34368,
          "time": 29.8333035,
          "velocity": 0.47244094488188976
        },
        {
          "duration": 0.055555500000000535,
          "durationTicks": 64,
          "midi": 39,
          "name": "D#2",
          "ticks": 34464,
          "time": 29.91663675,
          "velocity": 0.47244094488188976
        },
        {
          "duration": 0.05555550000000409,
          "durationTicks": 64,
          "midi": 39,
          "name": "D#2",
          "ticks": 34560,
          "time": 29.999969999999998,
          "velocity": 0.5905511811023622
        },
        {
          "duration": 0.055555500000000535,
          "durationTicks": 64,
          "midi": 39,
          "name": "D#2",
          "ticks": 34656,
          "time": 30.08330325,
          "velocity": 0.5905511811023622
        },
        {
          "duration": 0.055555500000000535,
          "durationTicks": 64,
          "midi": 39,
          "name": "D#2",
          "ticks": 34752,
          "time": 30.1666365,
          "velocity": 0.47244094488188976
        },
        {
          "duration": 0.05555550000000409,
          "durationTicks": 64,
          "midi": 39,
          "name": "D#2",
          "ticks": 34848,
          "time": 30.249969749999998,
          "velocity": 0.47244094488188976
        },
        {
          "duration": 0.055555500000000535,
          "durationTicks": 64,
          "midi": 39,
          "name": "D#2",
          "ticks": 34944,
          "time": 30.333303,
          "velocity": 0.5905511811023622
        },
        {
          "duration": 0.055555500000000535,
          "durationTicks": 64,
          "midi": 39,
          "name": "D#2",
          "ticks": 35040,
          "time": 30.41663625,
          "velocity": 0.5905511811023622
        },
        {
          "duration": 0.055555500000000535,
          "durationTicks": 64,
          "midi": 39,
          "name": "D#2",
          "ticks": 35136,
          "time": 30.4999695,
          "velocity": 0.47244094488188976
        },
        {
          "duration": 0.05555550000000409,
          "durationTicks": 64,
          "midi": 39,
          "name": "D#2",
          "ticks": 35232,
          "time": 30.583302749999998,
          "velocity": 0.47244094488188976
        },
        {
          "duration": 0.055555500000000535,
          "durationTicks": 64,
          "midi": 39,
          "name": "D#2",
          "ticks": 35328,
          "time": 30.666636,
          "velocity": 0.5905511811023622
        },
        {
          "duration": 0.055555500000000535,
          "durationTicks": 64,
          "midi": 39,
          "name": "D#2",
          "ticks": 35520,
          "time": 30.8333025,
          "velocity": 0.5905511811023622
        },
        {
          "duration": 0.05555550000000409,
          "durationTicks": 64,
          "midi": 39,
          "name": "D#2",
          "ticks": 35616,
          "time": 30.916635749999998,
          "velocity": 0.5905511811023622
        },
        {
          "duration": 0.055555500000000535,
          "durationTicks": 64,
          "midi": 39,
          "name": "D#2",
          "ticks": 35712,
          "time": 30.999969,
          "velocity": 0.5905511811023622
        },
        {
          "duration": 0.05555550000000409,
          "durationTicks": 64,
          "midi": 39,
          "name": "D#2",
          "ticks": 35904,
          "time": 31.166635499999998,
          "velocity": 0.5905511811023622
        },
        {
          "duration": 0.055555500000000535,
          "durationTicks": 64,
          "midi": 39,
          "name": "D#2",
          "ticks": 36000,
          "time": 31.24996875,
          "velocity": 0.5905511811023622
        },
        {
          "duration": 0.055555500000000535,
          "durationTicks": 64,
          "midi": 39,
          "name": "D#2",
          "ticks": 36096,
          "time": 31.333302,
          "velocity": 0.5905511811023622
        },
        {
          "duration": 0.055555500000000535,
          "durationTicks": 64,
          "midi": 39,
          "name": "D#2",
          "ticks": 36864,
          "time": 31.999968,
          "velocity": 0.5905511811023622
        },
        {
          "duration": 0.05555549999999698,
          "durationTicks": 64,
          "midi": 39,
          "name": "D#2",
          "ticks": 37056,
          "time": 32.1666345,
          "velocity": 0.5905511811023622
        },
        {
          "duration": 0.05555550000000409,
          "durationTicks": 64,
          "midi": 39,
          "name": "D#2",
          "ticks": 37152,
          "time": 32.249967749999996,
          "velocity": 0.5905511811023622
        },
        {
          "duration": 0.05555550000000409,
          "durationTicks": 64,
          "midi": 39,
          "name": "D#2",
          "ticks": 37248,
          "time": 32.333301,
          "velocity": 0.5905511811023622
        },
        {
          "duration": 0.05555550000000409,
          "durationTicks": 64,
          "midi": 39,
          "name": "D#2",
          "ticks": 37440,
          "time": 32.4999675,
          "velocity": 0.5905511811023622
        },
        {
          "duration": 0.05555550000000409,
          "durationTicks": 64,
          "midi": 39,
          "name": "D#2",
          "ticks": 37536,
          "time": 32.58330075,
          "velocity": 0.5905511811023622
        },
        {
          "duration": 0.05555549999999698,
          "durationTicks": 64,
          "midi": 39,
          "name": "D#2",
          "ticks": 37632,
          "time": 32.666634,
          "velocity": 0.5905511811023622
        },
        {
          "duration": 0.05555550000000409,
          "durationTicks": 64,
          "midi": 39,
          "name": "D#2",
          "ticks": 37824,
          "time": 32.8333005,
          "velocity": 0.5905511811023622
        },
        {
          "duration": 0.05555549999999698,
          "durationTicks": 64,
          "midi": 39,
          "name": "D#2",
          "ticks": 37920,
          "time": 32.91663375,
          "velocity": 0.5905511811023622
        },
        {
          "duration": 0.05555550000000409,
          "durationTicks": 64,
          "midi": 39,
          "name": "D#2",
          "ticks": 38016,
          "time": 32.999967,
          "velocity": 0.5905511811023622
        },
        {
          "duration": 0.05555549999999698,
          "durationTicks": 64,
          "midi": 39,
          "name": "D#2",
          "ticks": 38112,
          "time": 33.08330025,
          "velocity": 0.5905511811023622
        },
        {
          "duration": 0.05555550000000409,
          "durationTicks": 64,
          "midi": 39,
          "name": "D#2",
          "ticks": 38208,
          "time": 33.166633499999996,
          "velocity": 0.5905511811023622
        },
        {
          "duration": 0.05555550000000409,
          "durationTicks": 64,
          "midi": 39,
          "name": "D#2",
          "ticks": 38304,
          "time": 33.24996675,
          "velocity": 0.5905511811023622
        },
        {
          "duration": 0.05555549999999698,
          "durationTicks": 64,
          "midi": 39,
          "name": "D#2",
          "ticks": 38400,
          "time": 33.3333,
          "velocity": 0.5905511811023622
        },
        {
          "duration": 0.05555550000000409,
          "durationTicks": 64,
          "midi": 39,
          "name": "D#2",
          "ticks": 38592,
          "time": 33.4999665,
          "velocity": 0.5905511811023622
        },
        {
          "duration": 0.05555549999999698,
          "durationTicks": 64,
          "midi": 39,
          "name": "D#2",
          "ticks": 38688,
          "time": 33.58329975,
          "velocity": 0.5905511811023622
        },
        {
          "duration": 0.05555550000000409,
          "durationTicks": 64,
          "midi": 39,
          "name": "D#2",
          "ticks": 38784,
          "time": 33.666633,
          "velocity": 0.5905511811023622
        },
        {
          "duration": 0.05555549999999698,
          "durationTicks": 64,
          "midi": 39,
          "name": "D#2",
          "ticks": 38976,
          "time": 33.8332995,
          "velocity": 0.5905511811023622
        },
        {
          "duration": 0.05555550000000409,
          "durationTicks": 64,
          "midi": 39,
          "name": "D#2",
          "ticks": 39072,
          "time": 33.91663275,
          "velocity": 0.5905511811023622
        },
        {
          "duration": 0.05555549999999698,
          "durationTicks": 64,
          "midi": 39,
          "name": "D#2",
          "ticks": 39168,
          "time": 33.999966,
          "velocity": 0.5905511811023622
        },
        {
          "duration": 0.05555550000000409,
          "durationTicks": 64,
          "midi": 39,
          "name": "D#2",
          "ticks": 39360,
          "time": 34.1666325,
          "velocity": 0.5905511811023622
        },
        {
          "duration": 0.05555549999999698,
          "durationTicks": 64,
          "midi": 39,
          "name": "D#2",
          "ticks": 39456,
          "time": 34.24996575,
          "velocity": 0.5905511811023622
        },
        {
          "duration": 0.05555550000000409,
          "durationTicks": 64,
          "midi": 39,
          "name": "D#2",
          "ticks": 39552,
          "time": 34.333299,
          "velocity": 0.5905511811023622
        },
        {
          "duration": 0.05555550000000409,
          "durationTicks": 64,
          "midi": 39,
          "name": "D#2",
          "ticks": 39648,
          "time": 34.41663225,
          "velocity": 0.5905511811023622
        },
        {
          "duration": 0.05555549999999698,
          "durationTicks": 64,
          "midi": 39,
          "name": "D#2",
          "ticks": 39744,
          "time": 34.4999655,
          "velocity": 0.5905511811023622
        },
        {
          "duration": 0.05555550000000409,
          "durationTicks": 64,
          "midi": 39,
          "name": "D#2",
          "ticks": 39840,
          "time": 34.58329875,
          "velocity": 0.5905511811023622
        },
        {
          "duration": 0.05555550000000409,
          "durationTicks": 64,
          "midi": 39,
          "name": "D#2",
          "ticks": 39936,
          "time": 34.666632,
          "velocity": 0.5905511811023622
        },
        {
          "duration": 0.05555550000000409,
          "durationTicks": 64,
          "midi": 39,
          "name": "D#2",
          "ticks": 40128,
          "time": 34.8332985,
          "velocity": 0.5905511811023622
        },
        {
          "duration": 0.05555549999999698,
          "durationTicks": 64,
          "midi": 39,
          "name": "D#2",
          "ticks": 40224,
          "time": 34.91663175,
          "velocity": 0.5905511811023622
        },
        {
          "duration": 0.05555550000000409,
          "durationTicks": 64,
          "midi": 39,
          "name": "D#2",
          "ticks": 40320,
          "time": 34.999964999999996,
          "velocity": 0.5905511811023622
        },
        {
          "duration": 0.05555549999999698,
          "durationTicks": 64,
          "midi": 39,
          "name": "D#2",
          "ticks": 40512,
          "time": 35.1666315,
          "velocity": 0.5905511811023622
        },
        {
          "duration": 0.05555550000000409,
          "durationTicks": 64,
          "midi": 39,
          "name": "D#2",
          "ticks": 40608,
          "time": 35.24996475,
          "velocity": 0.5905511811023622
        },
        {
          "duration": 0.05555550000000409,
          "durationTicks": 64,
          "midi": 39,
          "name": "D#2",
          "ticks": 40704,
          "time": 35.333298,
          "velocity": 0.5905511811023622
        },
        {
          "duration": 0.05555550000000409,
          "durationTicks": 64,
          "midi": 39,
          "name": "D#2",
          "ticks": 40896,
          "time": 35.4999645,
          "velocity": 0.5905511811023622
        },
        {
          "duration": 0.05555550000000409,
          "durationTicks": 64,
          "midi": 39,
          "name": "D#2",
          "ticks": 40992,
          "time": 35.58329775,
          "velocity": 0.5905511811023622
        },
        {
          "duration": 0.05555549999999698,
          "durationTicks": 64,
          "midi": 39,
          "name": "D#2",
          "ticks": 41088,
          "time": 35.666631,
          "velocity": 0.5905511811023622
        },
        {
          "duration": 0.05555550000000409,
          "durationTicks": 64,
          "midi": 39,
          "name": "D#2",
          "ticks": 41184,
          "time": 35.74996425,
          "velocity": 0.5905511811023622
        },
        {
          "duration": 0.05555549999999698,
          "durationTicks": 64,
          "midi": 39,
          "name": "D#2",
          "ticks": 41280,
          "time": 35.8332975,
          "velocity": 0.5905511811023622
        },
        {
          "duration": 0.05555550000000409,
          "durationTicks": 64,
          "midi": 39,
          "name": "D#2",
          "ticks": 41376,
          "time": 35.916630749999996,
          "velocity": 0.5905511811023622
        },
        {
          "duration": 0.05555550000000409,
          "durationTicks": 64,
          "midi": 39,
          "name": "D#2",
          "ticks": 41472,
          "time": 35.999964,
          "velocity": 0.5905511811023622
        },
        {
          "duration": 0.05555550000000409,
          "durationTicks": 64,
          "midi": 39,
          "name": "D#2",
          "ticks": 41664,
          "time": 36.1666305,
          "velocity": 0.5905511811023622
        },
        {
          "duration": 0.05555550000000409,
          "durationTicks": 64,
          "midi": 39,
          "name": "D#2",
          "ticks": 41760,
          "time": 36.24996375,
          "velocity": 0.5905511811023622
        },
        {
          "duration": 0.05555549999999698,
          "durationTicks": 64,
          "midi": 39,
          "name": "D#2",
          "ticks": 41856,
          "time": 36.333297,
          "velocity": 0.5905511811023622
        },
        {
          "duration": 0.05555550000000409,
          "durationTicks": 64,
          "midi": 39,
          "name": "D#2",
          "ticks": 42048,
          "time": 36.4999635,
          "velocity": 0.5905511811023622
        },
        {
          "duration": 0.05555549999999698,
          "durationTicks": 64,
          "midi": 39,
          "name": "D#2",
          "ticks": 42144,
          "time": 36.58329675,
          "velocity": 0.5905511811023622
        },
        {
          "duration": 0.05555550000000409,
          "durationTicks": 64,
          "midi": 39,
          "name": "D#2",
          "ticks": 42240,
          "time": 36.66663,
          "velocity": 0.5905511811023622
        },
        {
          "duration": 0.05555550000000409,
          "durationTicks": 64,
          "midi": 39,
          "name": "D#2",
          "ticks": 42432,
          "time": 36.833296499999996,
          "velocity": 0.5905511811023622
        },
        {
          "duration": 0.05555550000000409,
          "durationTicks": 64,
          "midi": 39,
          "name": "D#2",
          "ticks": 42528,
          "time": 36.91662975,
          "velocity": 0.5905511811023622
        },
        {
          "duration": 0.05555549999999698,
          "durationTicks": 64,
          "midi": 39,
          "name": "D#2",
          "ticks": 42624,
          "time": 36.999963,
          "velocity": 0.5905511811023622
        },
        {
          "duration": 0.05555550000000409,
          "durationTicks": 64,
          "midi": 39,
          "name": "D#2",
          "ticks": 42720,
          "time": 37.08329625,
          "velocity": 0.5905511811023622
        },
        {
          "duration": 0.05555550000000409,
          "durationTicks": 64,
          "midi": 39,
          "name": "D#2",
          "ticks": 42816,
          "time": 37.1666295,
          "velocity": 0.5905511811023622
        },
        {
          "duration": 0.05555549999999698,
          "durationTicks": 64,
          "midi": 39,
          "name": "D#2",
          "ticks": 42912,
          "time": 37.24996275,
          "velocity": 0.5905511811023622
        },
        {
          "duration": 0.05555550000000409,
          "durationTicks": 64,
          "midi": 39,
          "name": "D#2",
          "ticks": 43008,
          "time": 37.333296,
          "velocity": 0.5905511811023622
        },
        {
          "duration": 0.05555549999999698,
          "durationTicks": 64,
          "midi": 39,
          "name": "D#2",
          "ticks": 43200,
          "time": 37.4999625,
          "velocity": 0.5905511811023622
        },
        {
          "duration": 0.05555550000000409,
          "durationTicks": 64,
          "midi": 39,
          "name": "D#2",
          "ticks": 43296,
          "time": 37.58329575,
          "velocity": 0.5905511811023622
        },
        {
          "duration": 0.05555549999999698,
          "durationTicks": 64,
          "midi": 39,
          "name": "D#2",
          "ticks": 43392,
          "time": 37.666629,
          "velocity": 0.5905511811023622
        },
        {
          "duration": 0.05555550000000409,
          "durationTicks": 64,
          "midi": 39,
          "name": "D#2",
          "ticks": 43584,
          "time": 37.8332955,
          "velocity": 0.5905511811023622
        },
        {
          "duration": 0.05555549999999698,
          "durationTicks": 64,
          "midi": 39,
          "name": "D#2",
          "ticks": 43680,
          "time": 37.91662875,
          "velocity": 0.5905511811023622
        },
        {
          "duration": 0.05555550000000409,
          "durationTicks": 64,
          "midi": 39,
          "name": "D#2",
          "ticks": 43776,
          "time": 37.999962,
          "velocity": 0.5905511811023622
        },
        {
          "duration": 0.05555549999999698,
          "durationTicks": 64,
          "midi": 39,
          "name": "D#2",
          "ticks": 43968,
          "time": 38.1666285,
          "velocity": 0.5905511811023622
        },
        {
          "duration": 0.05555550000000409,
          "durationTicks": 64,
          "midi": 39,
          "name": "D#2",
          "ticks": 44064,
          "time": 38.24996175,
          "velocity": 0.5905511811023622
        },
        {
          "duration": 0.05555550000000409,
          "durationTicks": 64,
          "midi": 39,
          "name": "D#2",
          "ticks": 44160,
          "time": 38.333295,
          "velocity": 0.5905511811023622
        },
        {
          "duration": 0.05555549999999698,
          "durationTicks": 64,
          "midi": 39,
          "name": "D#2",
          "ticks": 44256,
          "time": 38.41662825,
          "velocity": 0.5905511811023622
        },
        {
          "duration": 0.05555550000000409,
          "durationTicks": 64,
          "midi": 39,
          "name": "D#2",
          "ticks": 44352,
          "time": 38.4999615,
          "velocity": 0.5905511811023622
        },
        {
          "duration": 0.05555549999999698,
          "durationTicks": 64,
          "midi": 39,
          "name": "D#2",
          "ticks": 44448,
          "time": 38.58329475,
          "velocity": 0.5905511811023622
        },
        {
          "duration": 0.05555550000000409,
          "durationTicks": 64,
          "midi": 39,
          "name": "D#2",
          "ticks": 44544,
          "time": 38.666627999999996,
          "velocity": 0.5905511811023622
        },
        {
          "duration": 0.05555549999999698,
          "durationTicks": 64,
          "midi": 39,
          "name": "D#2",
          "ticks": 44736,
          "time": 38.8332945,
          "velocity": 0.5905511811023622
        },
        {
          "duration": 0.05555550000000409,
          "durationTicks": 64,
          "midi": 39,
          "name": "D#2",
          "ticks": 44832,
          "time": 38.916627749999996,
          "velocity": 0.5905511811023622
        },
        {
          "duration": 0.05555550000000409,
          "durationTicks": 64,
          "midi": 39,
          "name": "D#2",
          "ticks": 44928,
          "time": 38.999961,
          "velocity": 0.5905511811023622
        },
        {
          "duration": 0.05555550000000409,
          "durationTicks": 64,
          "midi": 39,
          "name": "D#2",
          "ticks": 45120,
          "time": 39.1666275,
          "velocity": 0.5905511811023622
        },
        {
          "duration": 0.05555550000000409,
          "durationTicks": 64,
          "midi": 39,
          "name": "D#2",
          "ticks": 45216,
          "time": 39.24996075,
          "velocity": 0.5905511811023622
        },
        {
          "duration": 0.05555549999999698,
          "durationTicks": 64,
          "midi": 39,
          "name": "D#2",
          "ticks": 45312,
          "time": 39.333294,
          "velocity": 0.5905511811023622
        },
        {
          "duration": 0.05555549999999698,
          "durationTicks": 64,
          "midi": 39,
          "name": "D#2",
          "ticks": 45504,
          "time": 39.4999605,
          "velocity": 0.5905511811023622
        },
        {
          "duration": 0.05555550000000409,
          "durationTicks": 64,
          "midi": 39,
          "name": "D#2",
          "ticks": 45600,
          "time": 39.583293749999996,
          "velocity": 0.5905511811023622
        },
        {
          "duration": 0.05555550000000409,
          "durationTicks": 64,
          "midi": 39,
          "name": "D#2",
          "ticks": 45696,
          "time": 39.666627,
          "velocity": 0.5905511811023622
        },
        {
          "duration": 0.05555549999999698,
          "durationTicks": 64,
          "midi": 39,
          "name": "D#2",
          "ticks": 45792,
          "time": 39.74996025,
          "velocity": 0.5905511811023622
        },
        {
          "duration": 0.05555550000000409,
          "durationTicks": 64,
          "midi": 39,
          "name": "D#2",
          "ticks": 45888,
          "time": 39.833293499999996,
          "velocity": 0.5905511811023622
        },
        {
          "duration": 0.05555550000000409,
          "durationTicks": 64,
          "midi": 39,
          "name": "D#2",
          "ticks": 45984,
          "time": 39.91662675,
          "velocity": 0.5905511811023622
        },
        {
          "duration": 0.05555549999999698,
          "durationTicks": 64,
          "midi": 39,
          "name": "D#2",
          "ticks": 46080,
          "time": 39.99996,
          "velocity": 0.5905511811023622
        },
        {
          "duration": 0.05555550000000409,
          "durationTicks": 64,
          "midi": 39,
          "name": "D#2",
          "ticks": 46272,
          "time": 40.1666265,
          "velocity": 0.5905511811023622
        },
        {
          "duration": 0.05555549999999698,
          "durationTicks": 64,
          "midi": 39,
          "name": "D#2",
          "ticks": 46368,
          "time": 40.24995975,
          "velocity": 0.5905511811023622
        },
        {
          "duration": 0.05555550000000409,
          "durationTicks": 64,
          "midi": 39,
          "name": "D#2",
          "ticks": 46464,
          "time": 40.333293,
          "velocity": 0.5905511811023622
        },
        {
          "duration": 0.05555550000000409,
          "durationTicks": 64,
          "midi": 39,
          "name": "D#2",
          "ticks": 46656,
          "time": 40.499959499999996,
          "velocity": 0.5905511811023622
        },
        {
          "duration": 0.05555550000000409,
          "durationTicks": 64,
          "midi": 39,
          "name": "D#2",
          "ticks": 46752,
          "time": 40.58329275,
          "velocity": 0.5905511811023622
        },
        {
          "duration": 0.05555549999999698,
          "durationTicks": 64,
          "midi": 39,
          "name": "D#2",
          "ticks": 46848,
          "time": 40.666626,
          "velocity": 0.5905511811023622
        },
        {
          "duration": 0.05555550000000409,
          "durationTicks": 64,
          "midi": 39,
          "name": "D#2",
          "ticks": 47040,
          "time": 40.8332925,
          "velocity": 0.5905511811023622
        },
        {
          "duration": 0.05555549999999698,
          "durationTicks": 64,
          "midi": 39,
          "name": "D#2",
          "ticks": 47136,
          "time": 40.91662575,
          "velocity": 0.5905511811023622
        },
        {
          "duration": 0.05555550000000409,
          "durationTicks": 64,
          "midi": 39,
          "name": "D#2",
          "ticks": 47232,
          "time": 40.999959,
          "velocity": 0.5905511811023622
        },
        {
          "duration": 0.05555550000000409,
          "durationTicks": 64,
          "midi": 39,
          "name": "D#2",
          "ticks": 47328,
          "time": 41.08329225,
          "velocity": 0.5905511811023622
        },
        {
          "duration": 0.05555549999999698,
          "durationTicks": 64,
          "midi": 39,
          "name": "D#2",
          "ticks": 47424,
          "time": 41.1666255,
          "velocity": 0.5905511811023622
        },
        {
          "duration": 0.05555550000000409,
          "durationTicks": 64,
          "midi": 39,
          "name": "D#2",
          "ticks": 47520,
          "time": 41.24995875,
          "velocity": 0.5905511811023622
        },
        {
          "duration": 0.05555549999999698,
          "durationTicks": 64,
          "midi": 39,
          "name": "D#2",
          "ticks": 47616,
          "time": 41.333292,
          "velocity": 0.5905511811023622
        },
        {
          "duration": 0.05555550000000409,
          "durationTicks": 64,
          "midi": 39,
          "name": "D#2",
          "ticks": 47808,
          "time": 41.4999585,
          "velocity": 0.5905511811023622
        },
        {
          "duration": 0.05555549999999698,
          "durationTicks": 64,
          "midi": 39,
          "name": "D#2",
          "ticks": 47904,
          "time": 41.58329175,
          "velocity": 0.5905511811023622
        },
        {
          "duration": 0.05555550000000409,
          "durationTicks": 64,
          "midi": 39,
          "name": "D#2",
          "ticks": 48000,
          "time": 41.666624999999996,
          "velocity": 0.5905511811023622
        },
        {
          "duration": 0.05555550000000409,
          "durationTicks": 64,
          "midi": 39,
          "name": "D#2",
          "ticks": 48096,
          "time": 41.74995825,
          "velocity": 0.5905511811023622
        },
        {
          "duration": 0.05555549999999698,
          "durationTicks": 64,
          "midi": 39,
          "name": "D#2",
          "ticks": 48192,
          "time": 41.8332915,
          "velocity": 0.5905511811023622
        },
        {
          "duration": 0.05555550000000409,
          "durationTicks": 64,
          "midi": 39,
          "name": "D#2",
          "ticks": 48288,
          "time": 41.91662475,
          "velocity": 0.5905511811023622
        },
        {
          "duration": 0.05555550000000409,
          "durationTicks": 64,
          "midi": 39,
          "name": "D#2",
          "ticks": 48384,
          "time": 41.999958,
          "velocity": 0.5905511811023622
        },
        {
          "duration": 0.05555550000000409,
          "durationTicks": 64,
          "midi": 39,
          "name": "D#2",
          "ticks": 48576,
          "time": 42.1666245,
          "velocity": 0.5905511811023622
        },
        {
          "duration": 0.05555549999999698,
          "durationTicks": 64,
          "midi": 39,
          "name": "D#2",
          "ticks": 48672,
          "time": 42.24995775,
          "velocity": 0.5905511811023622
        },
        {
          "duration": 0.05555550000000409,
          "durationTicks": 64,
          "midi": 39,
          "name": "D#2",
          "ticks": 48768,
          "time": 42.333290999999996,
          "velocity": 0.5905511811023622
        },
        {
          "duration": 0.05555550000000409,
          "durationTicks": 64,
          "midi": 39,
          "name": "D#2",
          "ticks": 48864,
          "time": 42.41662425,
          "velocity": 0.5905511811023622
        },
        {
          "duration": 0.05555549999999698,
          "durationTicks": 64,
          "midi": 39,
          "name": "D#2",
          "ticks": 48960,
          "time": 42.4999575,
          "velocity": 0.5905511811023622
        },
        {
          "duration": 0.05555550000000409,
          "durationTicks": 64,
          "midi": 39,
          "name": "D#2",
          "ticks": 49056,
          "time": 42.583290749999996,
          "velocity": 0.5905511811023622
        },
        {
          "duration": 0.05555549999999698,
          "durationTicks": 64,
          "midi": 39,
          "name": "D#2",
          "ticks": 49152,
          "time": 42.666624,
          "velocity": 0.5905511811023622
        },
        {
          "duration": 0.05555549999999698,
          "durationTicks": 64,
          "midi": 39,
          "name": "D#2",
          "ticks": 49344,
          "time": 42.8332905,
          "velocity": 0.5905511811023622
        },
        {
          "duration": 0.05555549999999698,
          "durationTicks": 64,
          "midi": 39,
          "name": "D#2",
          "ticks": 49440,
          "time": 42.91662375,
          "velocity": 0.5905511811023622
        },
        {
          "duration": 0.05555549999999698,
          "durationTicks": 64,
          "midi": 42,
          "name": "F#2",
          "ticks": 49728,
          "time": 43.1666235,
          "velocity": 0.5905511811023622
        },
        {
          "duration": 0.05555549999999698,
          "durationTicks": 64,
          "midi": 42,
          "name": "F#2",
          "ticks": 49824,
          "time": 43.249956749999996,
          "velocity": 0.5905511811023622
        },
        {
          "duration": 0.05555549999999698,
          "durationTicks": 64,
          "midi": 39,
          "name": "D#2",
          "ticks": 49920,
          "time": 43.33329,
          "velocity": 0.5905511811023622
        },
        {
          "duration": 0.05555549999999698,
          "durationTicks": 64,
          "midi": 39,
          "name": "D#2",
          "ticks": 50112,
          "time": 43.499956499999996,
          "velocity": 0.5905511811023622
        },
        {
          "duration": 0.05555549999999698,
          "durationTicks": 64,
          "midi": 42,
          "name": "F#2",
          "ticks": 50304,
          "time": 43.666623,
          "velocity": 0.5905511811023622
        },
        {
          "duration": 0.05555549999999698,
          "durationTicks": 64,
          "midi": 42,
          "name": "F#2",
          "ticks": 50400,
          "time": 43.74995625,
          "velocity": 0.5905511811023622
        },
        {
          "duration": 0.05555549999999698,
          "durationTicks": 64,
          "midi": 42,
          "name": "F#2",
          "ticks": 50496,
          "time": 43.8332895,
          "velocity": 0.5905511811023622
        },
        {
          "duration": 0.05555549999999698,
          "durationTicks": 64,
          "midi": 42,
          "name": "F#2",
          "ticks": 50592,
          "time": 43.91662275,
          "velocity": 0.5905511811023622
        },
        {
          "duration": 0.05555549999999698,
          "durationTicks": 64,
          "midi": 39,
          "name": "D#2",
          "ticks": 50688,
          "time": 43.999956,
          "velocity": 0.5905511811023622
        },
        {
          "duration": 0.05555549999999698,
          "durationTicks": 64,
          "midi": 39,
          "name": "D#2",
          "ticks": 50880,
          "time": 44.166622499999995,
          "velocity": 0.5905511811023622
        },
        {
          "duration": 0.05555549999999698,
          "durationTicks": 64,
          "midi": 39,
          "name": "D#2",
          "ticks": 50976,
          "time": 44.24995575,
          "velocity": 0.5905511811023622
        },
        {
          "duration": 0.05555549999999698,
          "durationTicks": 64,
          "midi": 39,
          "name": "D#2",
          "ticks": 51072,
          "time": 44.333289,
          "velocity": 0.5905511811023622
        },
        {
          "duration": 0.05555549999999698,
          "durationTicks": 64,
          "midi": 39,
          "name": "D#2",
          "ticks": 51264,
          "time": 44.4999555,
          "velocity": 0.5905511811023622
        },
        {
          "duration": 0.05555549999999698,
          "durationTicks": 64,
          "midi": 39,
          "name": "D#2",
          "ticks": 51360,
          "time": 44.58328875,
          "velocity": 0.5905511811023622
        },
        {
          "duration": 0.05555549999999698,
          "durationTicks": 64,
          "midi": 39,
          "name": "D#2",
          "ticks": 51456,
          "time": 44.666622,
          "velocity": 0.5905511811023622
        },
        {
          "duration": 0.05555549999999698,
          "durationTicks": 64,
          "midi": 39,
          "name": "D#2",
          "ticks": 51648,
          "time": 44.8332885,
          "velocity": 0.5905511811023622
        },
        {
          "duration": 0.05555549999999698,
          "durationTicks": 64,
          "midi": 39,
          "name": "D#2",
          "ticks": 51744,
          "time": 44.91662175,
          "velocity": 0.5905511811023622
        },
        {
          "duration": 0.05555549999999698,
          "durationTicks": 64,
          "midi": 39,
          "name": "D#2",
          "ticks": 51840,
          "time": 44.999955,
          "velocity": 0.5905511811023622
        },
        {
          "duration": 0.05555549999999698,
          "durationTicks": 64,
          "midi": 39,
          "name": "D#2",
          "ticks": 51936,
          "time": 45.083288249999995,
          "velocity": 0.5905511811023622
        },
        {
          "duration": 0.05555549999999698,
          "durationTicks": 64,
          "midi": 39,
          "name": "D#2",
          "ticks": 52032,
          "time": 45.1666215,
          "velocity": 0.5905511811023622
        },
        {
          "duration": 0.05555549999999698,
          "durationTicks": 64,
          "midi": 39,
          "name": "D#2",
          "ticks": 52128,
          "time": 45.24995475,
          "velocity": 0.5905511811023622
        },
        {
          "duration": 0.05555549999999698,
          "durationTicks": 64,
          "midi": 39,
          "name": "D#2",
          "ticks": 52224,
          "time": 45.333287999999996,
          "velocity": 0.5905511811023622
        },
        {
          "duration": 0.05555549999999698,
          "durationTicks": 64,
          "midi": 39,
          "name": "D#2",
          "ticks": 52416,
          "time": 45.4999545,
          "velocity": 0.5905511811023622
        },
        {
          "duration": 0.05555549999999698,
          "durationTicks": 64,
          "midi": 39,
          "name": "D#2",
          "ticks": 52512,
          "time": 45.58328775,
          "velocity": 0.5905511811023622
        },
        {
          "duration": 0.05555549999999698,
          "durationTicks": 64,
          "midi": 39,
          "name": "D#2",
          "ticks": 52608,
          "time": 45.666621,
          "velocity": 0.5905511811023622
        },
        {
          "duration": 0.05555549999999698,
          "durationTicks": 64,
          "midi": 39,
          "name": "D#2",
          "ticks": 52800,
          "time": 45.8332875,
          "velocity": 0.5905511811023622
        },
        {
          "duration": 0.05555549999999698,
          "durationTicks": 64,
          "midi": 39,
          "name": "D#2",
          "ticks": 52896,
          "time": 45.91662075,
          "velocity": 0.5905511811023622
        },
        {
          "duration": 0.05555549999999698,
          "durationTicks": 64,
          "midi": 39,
          "name": "D#2",
          "ticks": 52992,
          "time": 45.999953999999995,
          "velocity": 0.5905511811023622
        },
        {
          "duration": 0.05555549999999698,
          "durationTicks": 64,
          "midi": 39,
          "name": "D#2",
          "ticks": 53184,
          "time": 46.1666205,
          "velocity": 0.5905511811023622
        },
        {
          "duration": 0.05555549999999698,
          "durationTicks": 64,
          "midi": 39,
          "name": "D#2",
          "ticks": 53280,
          "time": 46.249953749999996,
          "velocity": 0.5905511811023622
        },
        {
          "duration": 0.05555549999999698,
          "durationTicks": 64,
          "midi": 39,
          "name": "D#2",
          "ticks": 53376,
          "time": 46.333287,
          "velocity": 0.5905511811023622
        },
        {
          "duration": 0.05555549999999698,
          "durationTicks": 64,
          "midi": 39,
          "name": "D#2",
          "ticks": 53472,
          "time": 46.41662025,
          "velocity": 0.5905511811023622
        },
        {
          "duration": 0.05555549999999698,
          "durationTicks": 64,
          "midi": 39,
          "name": "D#2",
          "ticks": 53568,
          "time": 46.4999535,
          "velocity": 0.5905511811023622
        },
        {
          "duration": 0.05555549999999698,
          "durationTicks": 64,
          "midi": 39,
          "name": "D#2",
          "ticks": 53664,
          "time": 46.58328675,
          "velocity": 0.5905511811023622
        },
        {
          "duration": 0.05555549999999698,
          "durationTicks": 64,
          "midi": 39,
          "name": "D#2",
          "ticks": 53760,
          "time": 46.66662,
          "velocity": 0.5905511811023622
        },
        {
          "duration": 0.05555549999999698,
          "durationTicks": 64,
          "midi": 39,
          "name": "D#2",
          "ticks": 53856,
          "time": 46.74995325,
          "velocity": 0.5905511811023622
        },
        {
          "duration": 0.05555549999999698,
          "durationTicks": 64,
          "midi": 39,
          "name": "D#2",
          "ticks": 53952,
          "time": 46.8332865,
          "velocity": 0.47244094488188976
        },
        {
          "duration": 0.05555549999999698,
          "durationTicks": 64,
          "midi": 39,
          "name": "D#2",
          "ticks": 54048,
          "time": 46.916619749999995,
          "velocity": 0.47244094488188976
        },
        {
          "duration": 0.05555549999999698,
          "durationTicks": 64,
          "midi": 39,
          "name": "D#2",
          "ticks": 54144,
          "time": 46.999953,
          "velocity": 0.5905511811023622
        },
        {
          "duration": 0.05555549999999698,
          "durationTicks": 64,
          "midi": 39,
          "name": "D#2",
          "ticks": 54240,
          "time": 47.08328625,
          "velocity": 0.5905511811023622
        },
        {
          "duration": 0.05555549999999698,
          "durationTicks": 64,
          "midi": 39,
          "name": "D#2",
          "ticks": 54336,
          "time": 47.166619499999996,
          "velocity": 0.47244094488188976
        },
        {
          "duration": 0.05555549999999698,
          "durationTicks": 64,
          "midi": 39,
          "name": "D#2",
          "ticks": 54432,
          "time": 47.24995275,
          "velocity": 0.47244094488188976
        },
        {
          "duration": 0.05555549999999698,
          "durationTicks": 64,
          "midi": 39,
          "name": "D#2",
          "ticks": 54528,
          "time": 47.333286,
          "velocity": 0.5905511811023622
        },
        {
          "duration": 0.05555549999999698,
          "durationTicks": 64,
          "midi": 39,
          "name": "D#2",
          "ticks": 54624,
          "time": 47.41661925,
          "velocity": 0.5905511811023622
        },
        {
          "duration": 0.05555549999999698,
          "durationTicks": 64,
          "midi": 39,
          "name": "D#2",
          "ticks": 54720,
          "time": 47.4999525,
          "velocity": 0.47244094488188976
        },
        {
          "duration": 0.05555549999999698,
          "durationTicks": 64,
          "midi": 39,
          "name": "D#2",
          "ticks": 54816,
          "time": 47.58328575,
          "velocity": 0.47244094488188976
        },
        {
          "duration": 0.05555549999999698,
          "durationTicks": 64,
          "midi": 39,
          "name": "D#2",
          "ticks": 54912,
          "time": 47.666619,
          "velocity": 0.5905511811023622
        },
        {
          "duration": 0.05555549999999698,
          "durationTicks": 64,
          "midi": 39,
          "name": "D#2",
          "ticks": 55008,
          "time": 47.74995225,
          "velocity": 0.5905511811023622
        },
        {
          "duration": 0.05555549999999698,
          "durationTicks": 64,
          "midi": 39,
          "name": "D#2",
          "ticks": 55104,
          "time": 47.833285499999995,
          "velocity": 0.47244094488188976
        },
        {
          "duration": 0.05555549999999698,
          "durationTicks": 64,
          "midi": 39,
          "name": "D#2",
          "ticks": 55200,
          "time": 47.91661875,
          "velocity": 0.47244094488188976
        },
        {
          "duration": 0.05555549999999698,
          "durationTicks": 64,
          "midi": 39,
          "name": "D#2",
          "ticks": 55296,
          "time": 47.999952,
          "velocity": 0.5905511811023622
        },
        {
          "duration": 0.05555549999999698,
          "durationTicks": 64,
          "midi": 39,
          "name": "D#2",
          "ticks": 55392,
          "time": 48.083285249999996,
          "velocity": 0.5905511811023622
        },
        {
          "duration": 0.05555549999999698,
          "durationTicks": 64,
          "midi": 39,
          "name": "D#2",
          "ticks": 55488,
          "time": 48.1666185,
          "velocity": 0.47244094488188976
        },
        {
          "duration": 0.05555549999999698,
          "durationTicks": 64,
          "midi": 39,
          "name": "D#2",
          "ticks": 55584,
          "time": 48.24995175,
          "velocity": 0.47244094488188976
        },
        {
          "duration": 0.05555549999999698,
          "durationTicks": 64,
          "midi": 39,
          "name": "D#2",
          "ticks": 55680,
          "time": 48.333285,
          "velocity": 0.5905511811023622
        },
        {
          "duration": 0.05555549999999698,
          "durationTicks": 64,
          "midi": 39,
          "name": "D#2",
          "ticks": 55776,
          "time": 48.41661825,
          "velocity": 0.5905511811023622
        },
        {
          "duration": 0.05555549999999698,
          "durationTicks": 64,
          "midi": 39,
          "name": "D#2",
          "ticks": 55872,
          "time": 48.4999515,
          "velocity": 0.47244094488188976
        },
        {
          "duration": 0.05555549999999698,
          "durationTicks": 64,
          "midi": 39,
          "name": "D#2",
          "ticks": 55968,
          "time": 48.58328475,
          "velocity": 0.47244094488188976
        },
        {
          "duration": 0.05555549999999698,
          "durationTicks": 64,
          "midi": 39,
          "name": "D#2",
          "ticks": 56064,
          "time": 48.666618,
          "velocity": 0.5905511811023622
        },
        {
          "duration": 0.05555549999999698,
          "durationTicks": 64,
          "midi": 39,
          "name": "D#2",
          "ticks": 56160,
          "time": 48.749951249999995,
          "velocity": 0.5905511811023622
        },
        {
          "duration": 0.05555549999999698,
          "durationTicks": 64,
          "midi": 39,
          "name": "D#2",
          "ticks": 56256,
          "time": 48.8332845,
          "velocity": 0.47244094488188976
        },
        {
          "duration": 0.05555549999999698,
          "durationTicks": 64,
          "midi": 39,
          "name": "D#2",
          "ticks": 56352,
          "time": 48.91661775,
          "velocity": 0.47244094488188976
        },
        {
          "duration": 0.05555549999999698,
          "durationTicks": 64,
          "midi": 39,
          "name": "D#2",
          "ticks": 56448,
          "time": 48.999950999999996,
          "velocity": 0.5905511811023622
        },
        {
          "duration": 0.05555549999999698,
          "durationTicks": 64,
          "midi": 39,
          "name": "D#2",
          "ticks": 56544,
          "time": 49.08328425,
          "velocity": 0.5905511811023622
        },
        {
          "duration": 0.05555549999999698,
          "durationTicks": 64,
          "midi": 39,
          "name": "D#2",
          "ticks": 56640,
          "time": 49.1666175,
          "velocity": 0.47244094488188976
        },
        {
          "duration": 0.05555549999999698,
          "durationTicks": 64,
          "midi": 39,
          "name": "D#2",
          "ticks": 56736,
          "time": 49.249950749999996,
          "velocity": 0.47244094488188976
        },
        {
          "duration": 0.05555549999999698,
          "durationTicks": 64,
          "midi": 39,
          "name": "D#2",
          "ticks": 56832,
          "time": 49.333284,
          "velocity": 0.5905511811023622
        },
        {
          "duration": 0.05555549999999698,
          "durationTicks": 64,
          "midi": 39,
          "name": "D#2",
          "ticks": 56928,
          "time": 49.41661725,
          "velocity": 0.5905511811023622
        },
        {
          "duration": 0.05555549999999698,
          "durationTicks": 64,
          "midi": 39,
          "name": "D#2",
          "ticks": 57024,
          "time": 49.4999505,
          "velocity": 0.47244094488188976
        },
        {
          "duration": 0.05555549999999698,
          "durationTicks": 64,
          "midi": 39,
          "name": "D#2",
          "ticks": 57120,
          "time": 49.58328375,
          "velocity": 0.47244094488188976
        },
        {
          "duration": 0.05555549999999698,
          "durationTicks": 64,
          "midi": 39,
          "name": "D#2",
          "ticks": 57216,
          "time": 49.666616999999995,
          "velocity": 0.5905511811023622
        },
        {
          "duration": 0.05555549999999698,
          "durationTicks": 64,
          "midi": 39,
          "name": "D#2",
          "ticks": 57312,
          "time": 49.74995025,
          "velocity": 0.5905511811023622
        },
        {
          "duration": 0.05555549999999698,
          "durationTicks": 64,
          "midi": 39,
          "name": "D#2",
          "ticks": 57408,
          "time": 49.8332835,
          "velocity": 0.47244094488188976
        },
        {
          "duration": 0.05555549999999698,
          "durationTicks": 64,
          "midi": 39,
          "name": "D#2",
          "ticks": 57504,
          "time": 49.916616749999996,
          "velocity": 0.47244094488188976
        },
        {
          "duration": 0.05555549999999698,
          "durationTicks": 64,
          "midi": 39,
          "name": "D#2",
          "ticks": 57600,
          "time": 49.99995,
          "velocity": 0.5905511811023622
        },
        {
          "duration": 0.05555549999999698,
          "durationTicks": 64,
          "midi": 39,
          "name": "D#2",
          "ticks": 57696,
          "time": 50.08328325,
          "velocity": 0.5905511811023622
        },
        {
          "duration": 0.05555549999999698,
          "durationTicks": 64,
          "midi": 39,
          "name": "D#2",
          "ticks": 57792,
          "time": 50.166616499999996,
          "velocity": 0.47244094488188976
        },
        {
          "duration": 0.05555549999999698,
          "durationTicks": 64,
          "midi": 39,
          "name": "D#2",
          "ticks": 57888,
          "time": 50.24994975,
          "velocity": 0.47244094488188976
        },
        {
          "duration": 0.05555549999999698,
          "durationTicks": 64,
          "midi": 39,
          "name": "D#2",
          "ticks": 57984,
          "time": 50.333283,
          "velocity": 0.5905511811023622
        },
        {
          "duration": 0.05555549999999698,
          "durationTicks": 64,
          "midi": 39,
          "name": "D#2",
          "ticks": 58080,
          "time": 50.41661625,
          "velocity": 0.5905511811023622
        },
        {
          "duration": 0.05555549999999698,
          "durationTicks": 64,
          "midi": 39,
          "name": "D#2",
          "ticks": 58176,
          "time": 50.4999495,
          "velocity": 0.47244094488188976
        },
        {
          "duration": 0.05555549999999698,
          "durationTicks": 64,
          "midi": 39,
          "name": "D#2",
          "ticks": 58272,
          "time": 50.583282749999995,
          "velocity": 0.47244094488188976
        },
        {
          "duration": 0.05555549999999698,
          "durationTicks": 64,
          "midi": 39,
          "name": "D#2",
          "ticks": 58368,
          "time": 50.666616,
          "velocity": 0.5905511811023622
        },
        {
          "duration": 0.05555549999999698,
          "durationTicks": 64,
          "midi": 39,
          "name": "D#2",
          "ticks": 58464,
          "time": 50.74994925,
          "velocity": 0.5905511811023622
        },
        {
          "duration": 0.05555549999999698,
          "durationTicks": 64,
          "midi": 39,
          "name": "D#2",
          "ticks": 58560,
          "time": 50.833282499999996,
          "velocity": 0.47244094488188976
        },
        {
          "duration": 0.05555549999999698,
          "durationTicks": 64,
          "midi": 39,
          "name": "D#2",
          "ticks": 58656,
          "time": 50.91661575,
          "velocity": 0.47244094488188976
        },
        {
          "duration": 0.05555549999999698,
          "durationTicks": 64,
          "midi": 39,
          "name": "D#2",
          "ticks": 58752,
          "time": 50.999949,
          "velocity": 0.5905511811023622
        },
        {
          "duration": 0.05555549999999698,
          "durationTicks": 64,
          "midi": 39,
          "name": "D#2",
          "ticks": 58848,
          "time": 51.083282249999996,
          "velocity": 0.5905511811023622
        },
        {
          "duration": 0.05555549999999698,
          "durationTicks": 64,
          "midi": 39,
          "name": "D#2",
          "ticks": 58944,
          "time": 51.1666155,
          "velocity": 0.47244094488188976
        },
        {
          "duration": 0.05555549999999698,
          "durationTicks": 64,
          "midi": 39,
          "name": "D#2",
          "ticks": 59040,
          "time": 51.24994875,
          "velocity": 0.47244094488188976
        },
        {
          "duration": 0.05555549999999698,
          "durationTicks": 64,
          "midi": 39,
          "name": "D#2",
          "ticks": 59136,
          "time": 51.333282,
          "velocity": 0.5905511811023622
        },
        {
          "duration": 0.05555549999999698,
          "durationTicks": 64,
          "midi": 39,
          "name": "D#2",
          "ticks": 59232,
          "time": 51.41661525,
          "velocity": 0.5905511811023622
        },
        {
          "duration": 0.05555549999999698,
          "durationTicks": 64,
          "midi": 39,
          "name": "D#2",
          "ticks": 59328,
          "time": 51.499948499999995,
          "velocity": 0.47244094488188976
        },
        {
          "duration": 0.05555549999999698,
          "durationTicks": 64,
          "midi": 39,
          "name": "D#2",
          "ticks": 59424,
          "time": 51.58328175,
          "velocity": 0.47244094488188976
        },
        {
          "duration": 0.05555549999999698,
          "durationTicks": 64,
          "midi": 39,
          "name": "D#2",
          "ticks": 59520,
          "time": 51.666615,
          "velocity": 0.5905511811023622
        },
        {
          "duration": 0.05555549999999698,
          "durationTicks": 64,
          "midi": 39,
          "name": "D#2",
          "ticks": 59616,
          "time": 51.749948249999996,
          "velocity": 0.5905511811023622
        },
        {
          "duration": 0.05555549999999698,
          "durationTicks": 64,
          "midi": 39,
          "name": "D#2",
          "ticks": 59712,
          "time": 51.8332815,
          "velocity": 0.47244094488188976
        },
        {
          "duration": 0.05555549999999698,
          "durationTicks": 64,
          "midi": 39,
          "name": "D#2",
          "ticks": 59808,
          "time": 51.91661475,
          "velocity": 0.47244094488188976
        },
        {
          "duration": 0.05555549999999698,
          "durationTicks": 64,
          "midi": 39,
          "name": "D#2",
          "ticks": 59904,
          "time": 51.999947999999996,
          "velocity": 0.5905511811023622
        },
        {
          "duration": 0.05555549999999698,
          "durationTicks": 64,
          "midi": 39,
          "name": "D#2",
          "ticks": 60000,
          "time": 52.08328125,
          "velocity": 0.5905511811023622
        },
        {
          "duration": 0.05555549999999698,
          "durationTicks": 64,
          "midi": 39,
          "name": "D#2",
          "ticks": 60096,
          "time": 52.1666145,
          "velocity": 0.47244094488188976
        },
        {
          "duration": 0.05555549999999698,
          "durationTicks": 64,
          "midi": 39,
          "name": "D#2",
          "ticks": 60192,
          "time": 52.24994775,
          "velocity": 0.47244094488188976
        },
        {
          "duration": 0.05555549999999698,
          "durationTicks": 64,
          "midi": 39,
          "name": "D#2",
          "ticks": 60288,
          "time": 52.333281,
          "velocity": 0.5905511811023622
        },
        {
          "duration": 0.05555549999999698,
          "durationTicks": 64,
          "midi": 39,
          "name": "D#2",
          "ticks": 60384,
          "time": 52.416614249999995,
          "velocity": 0.5905511811023622
        },
        {
          "duration": 0.05555549999999698,
          "durationTicks": 64,
          "midi": 39,
          "name": "D#2",
          "ticks": 60480,
          "time": 52.4999475,
          "velocity": 0.47244094488188976
        },
        {
          "duration": 0.05555549999999698,
          "durationTicks": 64,
          "midi": 39,
          "name": "D#2",
          "ticks": 60576,
          "time": 52.58328075,
          "velocity": 0.47244094488188976
        },
        {
          "duration": 0.05555549999999698,
          "durationTicks": 64,
          "midi": 39,
          "name": "D#2",
          "ticks": 60672,
          "time": 52.666613999999996,
          "velocity": 0.5905511811023622
        },
        {
          "duration": 0.05555549999999698,
          "durationTicks": 64,
          "midi": 39,
          "name": "D#2",
          "ticks": 60768,
          "time": 52.74994725,
          "velocity": 0.5905511811023622
        },
        {
          "duration": 0.05555549999999698,
          "durationTicks": 64,
          "midi": 39,
          "name": "D#2",
          "ticks": 60864,
          "time": 52.8332805,
          "velocity": 0.47244094488188976
        },
        {
          "duration": 0.05555549999999698,
          "durationTicks": 64,
          "midi": 39,
          "name": "D#2",
          "ticks": 60960,
          "time": 52.916613749999996,
          "velocity": 0.47244094488188976
        },
        {
          "duration": 0.05555549999999698,
          "durationTicks": 64,
          "midi": 39,
          "name": "D#2",
          "ticks": 61056,
          "time": 52.999947,
          "velocity": 0.5905511811023622
        },
        {
          "duration": 0.05555549999999698,
          "durationTicks": 64,
          "midi": 39,
          "name": "D#2",
          "ticks": 61152,
          "time": 53.08328025,
          "velocity": 0.5905511811023622
        },
        {
          "duration": 0.05555549999999698,
          "durationTicks": 64,
          "midi": 39,
          "name": "D#2",
          "ticks": 61248,
          "time": 53.1666135,
          "velocity": 0.47244094488188976
        },
        {
          "duration": 0.05555549999999698,
          "durationTicks": 64,
          "midi": 39,
          "name": "D#2",
          "ticks": 61344,
          "time": 53.24994675,
          "velocity": 0.47244094488188976
        },
        {
          "duration": 0.05555549999998988,
          "durationTicks": 64,
          "midi": 39,
          "name": "D#2",
          "ticks": 61440,
          "time": 53.33328,
          "velocity": 0.5905511811023622
        },
        {
          "duration": 0.05555549999999698,
          "durationTicks": 64,
          "midi": 39,
          "name": "D#2",
          "ticks": 61536,
          "time": 53.41661325,
          "velocity": 0.5905511811023622
        },
        {
          "duration": 0.05555549999999698,
          "durationTicks": 64,
          "midi": 39,
          "name": "D#2",
          "ticks": 61632,
          "time": 53.4999465,
          "velocity": 0.47244094488188976
        },
        {
          "duration": 0.05555549999999698,
          "durationTicks": 64,
          "midi": 39,
          "name": "D#2",
          "ticks": 61728,
          "time": 53.583279749999996,
          "velocity": 0.47244094488188976
        },
        {
          "duration": 0.05555549999999698,
          "durationTicks": 64,
          "midi": 39,
          "name": "D#2",
          "ticks": 61824,
          "time": 53.666613,
          "velocity": 0.5905511811023622
        },
        {
          "duration": 0.05555549999999698,
          "durationTicks": 64,
          "midi": 39,
          "name": "D#2",
          "ticks": 61920,
          "time": 53.74994625,
          "velocity": 0.5905511811023622
        },
        {
          "duration": 0.05555549999999698,
          "durationTicks": 64,
          "midi": 39,
          "name": "D#2",
          "ticks": 62016,
          "time": 53.833279499999996,
          "velocity": 0.47244094488188976
        },
        {
          "duration": 0.05555549999999698,
          "durationTicks": 64,
          "midi": 39,
          "name": "D#2",
          "ticks": 62112,
          "time": 53.91661275,
          "velocity": 0.47244094488188976
        },
        {
          "duration": 0.05555549999999698,
          "durationTicks": 64,
          "midi": 39,
          "name": "D#2",
          "ticks": 62208,
          "time": 53.999946,
          "velocity": 0.5905511811023622
        },
        {
          "duration": 0.05555549999999698,
          "durationTicks": 64,
          "midi": 39,
          "name": "D#2",
          "ticks": 62304,
          "time": 54.08327925,
          "velocity": 0.5905511811023622
        },
        {
          "duration": 0.05555549999999698,
          "durationTicks": 64,
          "midi": 39,
          "name": "D#2",
          "ticks": 62400,
          "time": 54.1666125,
          "velocity": 0.47244094488188976
        },
        {
          "duration": 0.05555549999998988,
          "durationTicks": 64,
          "midi": 39,
          "name": "D#2",
          "ticks": 62496,
          "time": 54.24994575,
          "velocity": 0.47244094488188976
        },
        {
          "duration": 0.05555549999999698,
          "durationTicks": 64,
          "midi": 39,
          "name": "D#2",
          "ticks": 62592,
          "time": 54.333279,
          "velocity": 0.5905511811023622
        },
        {
          "duration": 0.05555549999999698,
          "durationTicks": 64,
          "midi": 39,
          "name": "D#2",
          "ticks": 62688,
          "time": 54.41661225,
          "velocity": 0.5905511811023622
        },
        {
          "duration": 0.05555549999999698,
          "durationTicks": 64,
          "midi": 39,
          "name": "D#2",
          "ticks": 62784,
          "time": 54.499945499999995,
          "velocity": 0.47244094488188976
        },
        {
          "duration": 0.05555549999999698,
          "durationTicks": 64,
          "midi": 39,
          "name": "D#2",
          "ticks": 62880,
          "time": 54.58327875,
          "velocity": 0.47244094488188976
        },
        {
          "duration": 0.05555549999999698,
          "durationTicks": 64,
          "midi": 39,
          "name": "D#2",
          "ticks": 62976,
          "time": 54.666612,
          "velocity": 0.5905511811023622
        },
        {
          "duration": 0.05555549999999698,
          "durationTicks": 64,
          "midi": 39,
          "name": "D#2",
          "ticks": 63072,
          "time": 54.749945249999996,
          "velocity": 0.5905511811023622
        },
        {
          "duration": 0.05555549999999698,
          "durationTicks": 64,
          "midi": 39,
          "name": "D#2",
          "ticks": 63168,
          "time": 54.8332785,
          "velocity": 0.47244094488188976
        },
        {
          "duration": 0.05555549999999698,
          "durationTicks": 64,
          "midi": 39,
          "name": "D#2",
          "ticks": 63264,
          "time": 54.91661175,
          "velocity": 0.47244094488188976
        },
        {
          "duration": 0.05555549999999698,
          "durationTicks": 64,
          "midi": 39,
          "name": "D#2",
          "ticks": 63360,
          "time": 54.999945,
          "velocity": 0.5905511811023622
        },
        {
          "duration": 0.05555549999999698,
          "durationTicks": 64,
          "midi": 39,
          "name": "D#2",
          "ticks": 63456,
          "time": 55.08327825,
          "velocity": 0.5905511811023622
        },
        {
          "duration": 0.05555549999998988,
          "durationTicks": 64,
          "midi": 39,
          "name": "D#2",
          "ticks": 63552,
          "time": 55.1666115,
          "velocity": 0.47244094488188976
        },
        {
          "duration": 0.05555549999999698,
          "durationTicks": 64,
          "midi": 39,
          "name": "D#2",
          "ticks": 63648,
          "time": 55.24994475,
          "velocity": 0.47244094488188976
        },
        {
          "duration": 0.05555549999999698,
          "durationTicks": 64,
          "midi": 39,
          "name": "D#2",
          "ticks": 63744,
          "time": 55.333278,
          "velocity": 0.5905511811023622
        },
        {
          "duration": 0.05555549999999698,
          "durationTicks": 64,
          "midi": 39,
          "name": "D#2",
          "ticks": 63840,
          "time": 55.416611249999995,
          "velocity": 0.5905511811023622
        },
        {
          "duration": 0.05555549999999698,
          "durationTicks": 64,
          "midi": 39,
          "name": "D#2",
          "ticks": 63936,
          "time": 55.4999445,
          "velocity": 0.47244094488188976
        },
        {
          "duration": 0.05555549999999698,
          "durationTicks": 64,
          "midi": 39,
          "name": "D#2",
          "ticks": 64032,
          "time": 55.58327775,
          "velocity": 0.47244094488188976
        },
        {
          "duration": 0.05555549999999698,
          "durationTicks": 64,
          "midi": 39,
          "name": "D#2",
          "ticks": 64128,
          "time": 55.666610999999996,
          "velocity": 0.5905511811023622
        },
        {
          "duration": 0.05555549999999698,
          "durationTicks": 64,
          "midi": 39,
          "name": "D#2",
          "ticks": 64224,
          "time": 55.74994425,
          "velocity": 0.5905511811023622
        },
        {
          "duration": 0.05555549999999698,
          "durationTicks": 64,
          "midi": 39,
          "name": "D#2",
          "ticks": 64320,
          "time": 55.8332775,
          "velocity": 0.47244094488188976
        },
        {
          "duration": 0.05555549999999698,
          "durationTicks": 64,
          "midi": 39,
          "name": "D#2",
          "ticks": 64416,
          "time": 55.91661075,
          "velocity": 0.47244094488188976
        },
        {
          "duration": 0.05555549999999698,
          "durationTicks": 64,
          "midi": 39,
          "name": "D#2",
          "ticks": 64512,
          "time": 55.999944,
          "velocity": 0.5905511811023622
        },
        {
          "duration": 0.05555549999999698,
          "durationTicks": 64,
          "midi": 39,
          "name": "D#2",
          "ticks": 64704,
          "time": 56.1666105,
          "velocity": 0.5905511811023622
        },
        {
          "duration": 0.05555549999999698,
          "durationTicks": 64,
          "midi": 39,
          "name": "D#2",
          "ticks": 64800,
          "time": 56.24994375,
          "velocity": 0.5905511811023622
        },
        {
          "duration": 0.05555549999999698,
          "durationTicks": 64,
          "midi": 39,
          "name": "D#2",
          "ticks": 64896,
          "time": 56.333276999999995,
          "velocity": 0.5905511811023622
        },
        {
          "duration": 0.05555549999999698,
          "durationTicks": 64,
          "midi": 39,
          "name": "D#2",
          "ticks": 65088,
          "time": 56.4999435,
          "velocity": 0.5905511811023622
        },
        {
          "duration": 0.05555549999999698,
          "durationTicks": 64,
          "midi": 39,
          "name": "D#2",
          "ticks": 65184,
          "time": 56.583276749999996,
          "velocity": 0.5905511811023622
        },
        {
          "duration": 0.05555549999999698,
          "durationTicks": 64,
          "midi": 39,
          "name": "D#2",
          "ticks": 65280,
          "time": 56.66661,
          "velocity": 0.5905511811023622
        },
        {
          "duration": 0.05555549999999698,
          "durationTicks": 64,
          "midi": 39,
          "name": "D#2",
          "ticks": 66048,
          "time": 57.333276,
          "velocity": 0.5905511811023622
        },
        {
          "duration": 0.05555549999999698,
          "durationTicks": 64,
          "midi": 39,
          "name": "D#2",
          "ticks": 66240,
          "time": 57.499942499999996,
          "velocity": 0.5905511811023622
        },
        {
          "duration": 0.05555549999999698,
          "durationTicks": 64,
          "midi": 39,
          "name": "D#2",
          "ticks": 66336,
          "time": 57.58327575,
          "velocity": 0.5905511811023622
        },
        {
          "duration": 0.05555549999999698,
          "durationTicks": 64,
          "midi": 39,
          "name": "D#2",
          "ticks": 66432,
          "time": 57.666609,
          "velocity": 0.5905511811023622
        },
        {
          "duration": 0.05555549999999698,
          "durationTicks": 64,
          "midi": 39,
          "name": "D#2",
          "ticks": 66624,
          "time": 57.8332755,
          "velocity": 0.5905511811023622
        },
        {
          "duration": 0.05555549999998988,
          "durationTicks": 64,
          "midi": 39,
          "name": "D#2",
          "ticks": 66720,
          "time": 57.91660875,
          "velocity": 0.5905511811023622
        },
        {
          "duration": 0.05555549999999698,
          "durationTicks": 64,
          "midi": 39,
          "name": "D#2",
          "ticks": 66816,
          "time": 57.999942,
          "velocity": 0.5905511811023622
        },
        {
          "duration": 0.05555549999999698,
          "durationTicks": 64,
          "midi": 39,
          "name": "D#2",
          "ticks": 67008,
          "time": 58.166608499999995,
          "velocity": 0.5905511811023622
        },
        {
          "duration": 0.05555549999999698,
          "durationTicks": 64,
          "midi": 39,
          "name": "D#2",
          "ticks": 67104,
          "time": 58.24994175,
          "velocity": 0.5905511811023622
        },
        {
          "duration": 0.05555549999999698,
          "durationTicks": 64,
          "midi": 39,
          "name": "D#2",
          "ticks": 67200,
          "time": 58.333275,
          "velocity": 0.5905511811023622
        },
        {
          "duration": 0.05555549999999698,
          "durationTicks": 64,
          "midi": 39,
          "name": "D#2",
          "ticks": 67296,
          "time": 58.416608249999996,
          "velocity": 0.5905511811023622
        },
        {
          "duration": 0.05555549999999698,
          "durationTicks": 64,
          "midi": 39,
          "name": "D#2",
          "ticks": 67392,
          "time": 58.4999415,
          "velocity": 0.5905511811023622
        },
        {
          "duration": 0.05555549999999698,
          "durationTicks": 64,
          "midi": 39,
          "name": "D#2",
          "ticks": 67488,
          "time": 58.58327475,
          "velocity": 0.5905511811023622
        },
        {
          "duration": 0.05555549999999698,
          "durationTicks": 64,
          "midi": 39,
          "name": "D#2",
          "ticks": 67584,
          "time": 58.666608,
          "velocity": 0.5905511811023622
        },
        {
          "duration": 0.05555549999999698,
          "durationTicks": 64,
          "midi": 39,
          "name": "D#2",
          "ticks": 67776,
          "time": 58.8332745,
          "velocity": 0.5905511811023622
        },
        {
          "duration": 0.05555549999999698,
          "durationTicks": 64,
          "midi": 39,
          "name": "D#2",
          "ticks": 67872,
          "time": 58.91660775,
          "velocity": 0.5905511811023622
        },
        {
          "duration": 0.05555549999999698,
          "durationTicks": 64,
          "midi": 39,
          "name": "D#2",
          "ticks": 67968,
          "time": 58.999941,
          "velocity": 0.5905511811023622
        },
        {
          "duration": 0.05555549999999698,
          "durationTicks": 64,
          "midi": 39,
          "name": "D#2",
          "ticks": 68160,
          "time": 59.1666075,
          "velocity": 0.5905511811023622
        },
        {
          "duration": 0.05555549999999698,
          "durationTicks": 64,
          "midi": 39,
          "name": "D#2",
          "ticks": 68256,
          "time": 59.24994075,
          "velocity": 0.5905511811023622
        },
        {
          "duration": 0.05555549999999698,
          "durationTicks": 64,
          "midi": 39,
          "name": "D#2",
          "ticks": 68352,
          "time": 59.333273999999996,
          "velocity": 0.5905511811023622
        },
        {
          "duration": 0.05555549999999698,
          "durationTicks": 64,
          "midi": 39,
          "name": "D#2",
          "ticks": 68544,
          "time": 59.4999405,
          "velocity": 0.5905511811023622
        },
        {
          "duration": 0.05555549999999698,
          "durationTicks": 64,
          "midi": 39,
          "name": "D#2",
          "ticks": 68640,
          "time": 59.58327375,
          "velocity": 0.5905511811023622
        },
        {
          "duration": 0.05555549999999698,
          "durationTicks": 64,
          "midi": 39,
          "name": "D#2",
          "ticks": 68736,
          "time": 59.666607,
          "velocity": 0.5905511811023622
        },
        {
          "duration": 0.05555549999999698,
          "durationTicks": 64,
          "midi": 39,
          "name": "D#2",
          "ticks": 68832,
          "time": 59.74994025,
          "velocity": 0.5905511811023622
        },
        {
          "duration": 0.05555549999999698,
          "durationTicks": 64,
          "midi": 39,
          "name": "D#2",
          "ticks": 68928,
          "time": 59.8332735,
          "velocity": 0.5905511811023622
        },
        {
          "duration": 0.05555549999999698,
          "durationTicks": 64,
          "midi": 39,
          "name": "D#2",
          "ticks": 69024,
          "time": 59.91660675,
          "velocity": 0.5905511811023622
        },
        {
          "duration": 0.05555549999999698,
          "durationTicks": 64,
          "midi": 39,
          "name": "D#2",
          "ticks": 69120,
          "time": 59.999939999999995,
          "velocity": 0.5905511811023622
        },
        {
          "duration": 0.05555549999999698,
          "durationTicks": 64,
          "midi": 39,
          "name": "D#2",
          "ticks": 69312,
          "time": 60.1666065,
          "velocity": 0.5905511811023622
        },
        {
          "duration": 0.05555549999999698,
          "durationTicks": 64,
          "midi": 39,
          "name": "D#2",
          "ticks": 69408,
          "time": 60.249939749999996,
          "velocity": 0.5905511811023622
        },
        {
          "duration": 0.05555549999999698,
          "durationTicks": 64,
          "midi": 39,
          "name": "D#2",
          "ticks": 69504,
          "time": 60.333273,
          "velocity": 0.5905511811023622
        },
        {
          "duration": 0.05555549999999698,
          "durationTicks": 64,
          "midi": 39,
          "name": "D#2",
          "ticks": 69696,
          "time": 60.499939499999996,
          "velocity": 0.5905511811023622
        },
        {
          "duration": 0.05555549999999698,
          "durationTicks": 64,
          "midi": 39,
          "name": "D#2",
          "ticks": 69792,
          "time": 60.58327275,
          "velocity": 0.5905511811023622
        },
        {
          "duration": 0.05555549999999698,
          "durationTicks": 64,
          "midi": 39,
          "name": "D#2",
          "ticks": 69888,
          "time": 60.666606,
          "velocity": 0.5905511811023622
        },
        {
          "duration": 0.05555549999999698,
          "durationTicks": 64,
          "midi": 39,
          "name": "D#2",
          "ticks": 70080,
          "time": 60.8332725,
          "velocity": 0.5905511811023622
        },
        {
          "duration": 0.05555549999999698,
          "durationTicks": 64,
          "midi": 39,
          "name": "D#2",
          "ticks": 70176,
          "time": 60.916605749999995,
          "velocity": 0.5905511811023622
        },
        {
          "duration": 0.05555549999999698,
          "durationTicks": 64,
          "midi": 39,
          "name": "D#2",
          "ticks": 70272,
          "time": 60.999939,
          "velocity": 0.5905511811023622
        },
        {
          "duration": 0.05555549999999698,
          "durationTicks": 64,
          "midi": 39,
          "name": "D#2",
          "ticks": 70368,
          "time": 61.08327225,
          "velocity": 0.5905511811023622
        },
        {
          "duration": 0.05555549999999698,
          "durationTicks": 64,
          "midi": 39,
          "name": "D#2",
          "ticks": 70464,
          "time": 61.166605499999996,
          "velocity": 0.5905511811023622
        },
        {
          "duration": 0.05555549999999698,
          "durationTicks": 64,
          "midi": 39,
          "name": "D#2",
          "ticks": 70560,
          "time": 61.24993875,
          "velocity": 0.5905511811023622
        },
        {
          "duration": 0.05555549999999698,
          "durationTicks": 64,
          "midi": 39,
          "name": "D#2",
          "ticks": 70656,
          "time": 61.333272,
          "velocity": 0.5905511811023622
        },
        {
          "duration": 0.05555549999999698,
          "durationTicks": 64,
          "midi": 39,
          "name": "D#2",
          "ticks": 70848,
          "time": 61.4999385,
          "velocity": 0.5905511811023622
        },
        {
          "duration": 0.05555549999999698,
          "durationTicks": 64,
          "midi": 39,
          "name": "D#2",
          "ticks": 70944,
          "time": 61.58327175,
          "velocity": 0.5905511811023622
        },
        {
          "duration": 0.05555549999999698,
          "durationTicks": 64,
          "midi": 39,
          "name": "D#2",
          "ticks": 71040,
          "time": 61.666605,
          "velocity": 0.5905511811023622
        },
        {
          "duration": 0.05555549999999698,
          "durationTicks": 64,
          "midi": 39,
          "name": "D#2",
          "ticks": 71232,
          "time": 61.833271499999995,
          "velocity": 0.5905511811023622
        },
        {
          "duration": 0.05555549999999698,
          "durationTicks": 64,
          "midi": 39,
          "name": "D#2",
          "ticks": 71328,
          "time": 61.91660475,
          "velocity": 0.5905511811023622
        },
        {
          "duration": 0.05555549999999698,
          "durationTicks": 64,
          "midi": 39,
          "name": "D#2",
          "ticks": 71424,
          "time": 61.999938,
          "velocity": 0.5905511811023622
        },
        {
          "duration": 0.05555549999999698,
          "durationTicks": 64,
          "midi": 39,
          "name": "D#2",
          "ticks": 71616,
          "time": 62.1666045,
          "velocity": 0.5905511811023622
        },
        {
          "duration": 0.05555549999999698,
          "durationTicks": 64,
          "midi": 39,
          "name": "D#2",
          "ticks": 71712,
          "time": 62.24993775,
          "velocity": 0.5905511811023622
        },
        {
          "duration": 0.05555549999999698,
          "durationTicks": 64,
          "midi": 39,
          "name": "D#2",
          "ticks": 71808,
          "time": 62.333270999999996,
          "velocity": 0.5905511811023622
        },
        {
          "duration": 0.05555549999999698,
          "durationTicks": 64,
          "midi": 39,
          "name": "D#2",
          "ticks": 71904,
          "time": 62.41660425,
          "velocity": 0.5905511811023622
        },
        {
          "duration": 0.05555549999999698,
          "durationTicks": 64,
          "midi": 39,
          "name": "D#2",
          "ticks": 72000,
          "time": 62.4999375,
          "velocity": 0.5905511811023622
        },
        {
          "duration": 0.05555549999999698,
          "durationTicks": 64,
          "midi": 39,
          "name": "D#2",
          "ticks": 72096,
          "time": 62.58327075,
          "velocity": 0.5905511811023622
        },
        {
          "duration": 0.05555549999999698,
          "durationTicks": 64,
          "midi": 39,
          "name": "D#2",
          "ticks": 72192,
          "time": 62.666604,
          "velocity": 0.5905511811023622
        },
        {
          "duration": 0.05555549999999698,
          "durationTicks": 64,
          "midi": 39,
          "name": "D#2",
          "ticks": 72384,
          "time": 62.8332705,
          "velocity": 0.5905511811023622
        },
        {
          "duration": 0.05555549999999698,
          "durationTicks": 64,
          "midi": 39,
          "name": "D#2",
          "ticks": 72480,
          "time": 62.91660375,
          "velocity": 0.5905511811023622
        },
        {
          "duration": 0.05555549999999698,
          "durationTicks": 64,
          "midi": 39,
          "name": "D#2",
          "ticks": 72576,
          "time": 62.999936999999996,
          "velocity": 0.5905511811023622
        },
        {
          "duration": 0.05555549999999698,
          "durationTicks": 64,
          "midi": 39,
          "name": "D#2",
          "ticks": 72768,
          "time": 63.1666035,
          "velocity": 0.5905511811023622
        },
        {
          "duration": 0.05555549999999698,
          "durationTicks": 64,
          "midi": 39,
          "name": "D#2",
          "ticks": 72864,
          "time": 63.249936749999996,
          "velocity": 0.5905511811023622
        },
        {
          "duration": 0.05555549999999698,
          "durationTicks": 64,
          "midi": 39,
          "name": "D#2",
          "ticks": 72960,
          "time": 63.33327,
          "velocity": 0.5905511811023622
        },
        {
          "duration": 0.05555549999999698,
          "durationTicks": 64,
          "midi": 39,
          "name": "D#2",
          "ticks": 73152,
          "time": 63.4999365,
          "velocity": 0.5905511811023622
        },
        {
          "duration": 0.05555549999999698,
          "durationTicks": 64,
          "midi": 39,
          "name": "D#2",
          "ticks": 73248,
          "time": 63.58326975,
          "velocity": 0.5905511811023622
        },
        {
          "duration": 0.05555549999999698,
          "durationTicks": 64,
          "midi": 39,
          "name": "D#2",
          "ticks": 73344,
          "time": 63.666602999999995,
          "velocity": 0.5905511811023622
        },
        {
          "duration": 0.05555549999999698,
          "durationTicks": 64,
          "midi": 39,
          "name": "D#2",
          "ticks": 73440,
          "time": 63.74993625,
          "velocity": 0.5905511811023622
        },
        {
          "duration": 0.05555549999999698,
          "durationTicks": 64,
          "midi": 39,
          "name": "D#2",
          "ticks": 73536,
          "time": 63.8332695,
          "velocity": 0.5905511811023622
        },
        {
          "duration": 0.05555549999999698,
          "durationTicks": 64,
          "midi": 39,
          "name": "D#2",
          "ticks": 73632,
          "time": 63.916602749999996,
          "velocity": 0.5905511811023622
        },
        {
          "duration": 0.05555549999998988,
          "durationTicks": 64,
          "midi": 39,
          "name": "D#2",
          "ticks": 73728,
          "time": 63.999936,
          "velocity": 0.5905511811023622
        },
        {
          "duration": 0.05555549999999698,
          "durationTicks": 64,
          "midi": 39,
          "name": "D#2",
          "ticks": 73920,
          "time": 64.1666025,
          "velocity": 0.5905511811023622
        },
        {
          "duration": 0.05555549999999698,
          "durationTicks": 64,
          "midi": 39,
          "name": "D#2",
          "ticks": 74016,
          "time": 64.24993574999999,
          "velocity": 0.5905511811023622
        },
        {
          "duration": 0.05555549999999698,
          "durationTicks": 64,
          "midi": 39,
          "name": "D#2",
          "ticks": 74112,
          "time": 64.333269,
          "velocity": 0.5905511811023622
        },
        {
          "duration": 0.05555549999999698,
          "durationTicks": 64,
          "midi": 39,
          "name": "D#2",
          "ticks": 74304,
          "time": 64.49993549999999,
          "velocity": 0.5905511811023622
        },
        {
          "duration": 0.05555549999999698,
          "durationTicks": 64,
          "midi": 39,
          "name": "D#2",
          "ticks": 74400,
          "time": 64.58326875,
          "velocity": 0.5905511811023622
        },
        {
          "duration": 0.05555549999999698,
          "durationTicks": 64,
          "midi": 39,
          "name": "D#2",
          "ticks": 74496,
          "time": 64.666602,
          "velocity": 0.5905511811023622
        },
        {
          "duration": 0.05555549999999698,
          "durationTicks": 64,
          "midi": 39,
          "name": "D#2",
          "ticks": 74688,
          "time": 64.8332685,
          "velocity": 0.5905511811023622
        },
        {
          "duration": 0.05555549999999698,
          "durationTicks": 64,
          "midi": 39,
          "name": "D#2",
          "ticks": 74784,
          "time": 64.91660175,
          "velocity": 0.5905511811023622
        },
        {
          "duration": 0.05555549999999698,
          "durationTicks": 64,
          "midi": 39,
          "name": "D#2",
          "ticks": 74880,
          "time": 64.999935,
          "velocity": 0.5905511811023622
        },
        {
          "duration": 0.05555549999999698,
          "durationTicks": 64,
          "midi": 39,
          "name": "D#2",
          "ticks": 74976,
          "time": 65.08326825,
          "velocity": 0.5905511811023622
        },
        {
          "duration": 0.05555549999999698,
          "durationTicks": 64,
          "midi": 39,
          "name": "D#2",
          "ticks": 75072,
          "time": 65.1666015,
          "velocity": 0.5905511811023622
        },
        {
          "duration": 0.05555549999999698,
          "durationTicks": 64,
          "midi": 39,
          "name": "D#2",
          "ticks": 75168,
          "time": 65.24993475,
          "velocity": 0.5905511811023622
        },
        {
          "duration": 0.05555549999999698,
          "durationTicks": 64,
          "midi": 39,
          "name": "D#2",
          "ticks": 75264,
          "time": 65.333268,
          "velocity": 0.5905511811023622
        },
        {
          "duration": 0.05555549999999698,
          "durationTicks": 64,
          "midi": 39,
          "name": "D#2",
          "ticks": 75456,
          "time": 65.4999345,
          "velocity": 0.5905511811023622
        },
        {
          "duration": 0.05555549999999698,
          "durationTicks": 64,
          "midi": 39,
          "name": "D#2",
          "ticks": 75552,
          "time": 65.58326775,
          "velocity": 0.5905511811023622
        },
        {
          "duration": 0.05555549999999698,
          "durationTicks": 64,
          "midi": 39,
          "name": "D#2",
          "ticks": 75648,
          "time": 65.666601,
          "velocity": 0.5905511811023622
        },
        {
          "duration": 0.05555549999998277,
          "durationTicks": 64,
          "midi": 39,
          "name": "D#2",
          "ticks": 75840,
          "time": 65.8332675,
          "velocity": 0.5905511811023622
        },
        {
          "duration": 0.05555549999999698,
          "durationTicks": 64,
          "midi": 39,
          "name": "D#2",
          "ticks": 75936,
          "time": 65.91660075,
          "velocity": 0.5905511811023622
        },
        {
          "duration": 0.05555549999999698,
          "durationTicks": 64,
          "midi": 39,
          "name": "D#2",
          "ticks": 76032,
          "time": 65.999934,
          "velocity": 0.5905511811023622
        },
        {
          "duration": 0.05555549999999698,
          "durationTicks": 64,
          "midi": 39,
          "name": "D#2",
          "ticks": 76224,
          "time": 66.1666005,
          "velocity": 0.5905511811023622
        },
        {
          "duration": 0.05555549999999698,
          "durationTicks": 64,
          "midi": 39,
          "name": "D#2",
          "ticks": 76320,
          "time": 66.24993375,
          "velocity": 0.5905511811023622
        },
        {
          "duration": 0.05555549999999698,
          "durationTicks": 64,
          "midi": 39,
          "name": "D#2",
          "ticks": 76416,
          "time": 66.33326699999999,
          "velocity": 0.5905511811023622
        },
        {
          "duration": 0.05555549999999698,
          "durationTicks": 64,
          "midi": 39,
          "name": "D#2",
          "ticks": 76512,
          "time": 66.41660025,
          "velocity": 0.5905511811023622
        },
        {
          "duration": 0.05555549999999698,
          "durationTicks": 64,
          "midi": 39,
          "name": "D#2",
          "ticks": 76608,
          "time": 66.4999335,
          "velocity": 0.5905511811023622
        },
        {
          "duration": 0.05555549999999698,
          "durationTicks": 64,
          "midi": 39,
          "name": "D#2",
          "ticks": 76704,
          "time": 66.58326674999999,
          "velocity": 0.5905511811023622
        },
        {
          "duration": 0.05555549999999698,
          "durationTicks": 64,
          "midi": 39,
          "name": "D#2",
          "ticks": 76800,
          "time": 66.6666,
          "velocity": 0.5905511811023622
        },
        {
          "duration": 0.05555549999999698,
          "durationTicks": 64,
          "midi": 39,
          "name": "D#2",
          "ticks": 76992,
          "time": 66.8332665,
          "velocity": 0.5905511811023622
        },
        {
          "duration": 0.05555549999999698,
          "durationTicks": 64,
          "midi": 39,
          "name": "D#2",
          "ticks": 77088,
          "time": 66.91659975,
          "velocity": 0.5905511811023622
        },
        {
          "duration": 0.05555549999999698,
          "durationTicks": 64,
          "midi": 39,
          "name": "D#2",
          "ticks": 77184,
          "time": 66.999933,
          "velocity": 0.5905511811023622
        },
        {
          "duration": 0.05555549999999698,
          "durationTicks": 64,
          "midi": 39,
          "name": "D#2",
          "ticks": 77280,
          "time": 67.08326625,
          "velocity": 0.5905511811023622
        },
        {
          "duration": 0.05555549999999698,
          "durationTicks": 64,
          "midi": 39,
          "name": "D#2",
          "ticks": 77376,
          "time": 67.1665995,
          "velocity": 0.5905511811023622
        },
        {
          "duration": 0.05555549999999698,
          "durationTicks": 64,
          "midi": 39,
          "name": "D#2",
          "ticks": 77472,
          "time": 67.24993275,
          "velocity": 0.5905511811023622
        },
        {
          "duration": 0.05555549999999698,
          "durationTicks": 64,
          "midi": 39,
          "name": "D#2",
          "ticks": 77568,
          "time": 67.333266,
          "velocity": 0.5905511811023622
        },
        {
          "duration": 0.05555549999999698,
          "durationTicks": 64,
          "midi": 39,
          "name": "D#2",
          "ticks": 77760,
          "time": 67.4999325,
          "velocity": 0.5905511811023622
        },
        {
          "duration": 0.05555549999999698,
          "durationTicks": 64,
          "midi": 39,
          "name": "D#2",
          "ticks": 77856,
          "time": 67.58326575,
          "velocity": 0.5905511811023622
        },
        {
          "duration": 0.05555549999998277,
          "durationTicks": 64,
          "midi": 39,
          "name": "D#2",
          "ticks": 77952,
          "time": 67.666599,
          "velocity": 0.5905511811023622
        },
        {
          "duration": 0.05555549999999698,
          "durationTicks": 64,
          "midi": 39,
          "name": "D#2",
          "ticks": 78048,
          "time": 67.74993225,
          "velocity": 0.5905511811023622
        },
        {
          "duration": 0.05555549999999698,
          "durationTicks": 64,
          "midi": 39,
          "name": "D#2",
          "ticks": 78144,
          "time": 67.8332655,
          "velocity": 0.5905511811023622
        },
        {
          "duration": 0.05555549999999698,
          "durationTicks": 64,
          "midi": 39,
          "name": "D#2",
          "ticks": 78240,
          "time": 67.91659874999999,
          "velocity": 0.5905511811023622
        },
        {
          "duration": 0.05555549999999698,
          "durationTicks": 64,
          "midi": 39,
          "name": "D#2",
          "ticks": 78336,
          "time": 67.999932,
          "velocity": 0.5905511811023622
        },
        {
          "duration": 0.05555549999999698,
          "durationTicks": 64,
          "midi": 39,
          "name": "D#2",
          "ticks": 78528,
          "time": 68.16659849999999,
          "velocity": 0.5905511811023622
        },
        {
          "duration": 0.05555549999999698,
          "durationTicks": 64,
          "midi": 39,
          "name": "D#2",
          "ticks": 78624,
          "time": 68.24993175,
          "velocity": 0.5905511811023622
        },
        {
          "duration": 0.05555549999999698,
          "durationTicks": 64,
          "midi": 42,
          "name": "F#2",
          "ticks": 78912,
          "time": 68.4999315,
          "velocity": 0.5905511811023622
        },
        {
          "duration": 0.05555549999999698,
          "durationTicks": 64,
          "midi": 42,
          "name": "F#2",
          "ticks": 79008,
          "time": 68.58326475,
          "velocity": 0.5905511811023622
        },
        {
          "duration": 0.05555549999999698,
          "durationTicks": 64,
          "midi": 39,
          "name": "D#2",
          "ticks": 79104,
          "time": 68.666598,
          "velocity": 0.5905511811023622
        },
        {
          "duration": 0.05555549999999698,
          "durationTicks": 64,
          "midi": 39,
          "name": "D#2",
          "ticks": 79296,
          "time": 68.8332645,
          "velocity": 0.5905511811023622
        },
        {
          "duration": 0.05555549999999698,
          "durationTicks": 64,
          "midi": 42,
          "name": "F#2",
          "ticks": 79488,
          "time": 68.999931,
          "velocity": 0.5905511811023622
        },
        {
          "duration": 0.05555549999999698,
          "durationTicks": 64,
          "midi": 42,
          "name": "F#2",
          "ticks": 79584,
          "time": 69.08326425,
          "velocity": 0.5905511811023622
        },
        {
          "duration": 0.05555549999999698,
          "durationTicks": 64,
          "midi": 42,
          "name": "F#2",
          "ticks": 79680,
          "time": 69.1665975,
          "velocity": 0.5905511811023622
        },
        {
          "duration": 0.05555549999999698,
          "durationTicks": 64,
          "midi": 42,
          "name": "F#2",
          "ticks": 79776,
          "time": 69.24993075,
          "velocity": 0.5905511811023622
        },
        {
          "duration": 0.05555549999999698,
          "durationTicks": 64,
          "midi": 39,
          "name": "D#2",
          "ticks": 79872,
          "time": 69.333264,
          "velocity": 0.5905511811023622
        },
        {
          "duration": 0.05555549999999698,
          "durationTicks": 64,
          "midi": 39,
          "name": "D#2",
          "ticks": 80064,
          "time": 69.4999305,
          "velocity": 0.5905511811023622
        },
        {
          "duration": 0.05555549999999698,
          "durationTicks": 64,
          "midi": 39,
          "name": "D#2",
          "ticks": 80160,
          "time": 69.58326375,
          "velocity": 0.5905511811023622
        },
        {
          "duration": 0.05555549999999698,
          "durationTicks": 64,
          "midi": 39,
          "name": "D#2",
          "ticks": 80256,
          "time": 69.666597,
          "velocity": 0.5905511811023622
        },
        {
          "duration": 0.05555549999999698,
          "durationTicks": 64,
          "midi": 39,
          "name": "D#2",
          "ticks": 80448,
          "time": 69.8332635,
          "velocity": 0.5905511811023622
        },
        {
          "duration": 0.05555549999999698,
          "durationTicks": 64,
          "midi": 39,
          "name": "D#2",
          "ticks": 80544,
          "time": 69.91659675,
          "velocity": 0.5905511811023622
        },
        {
          "duration": 0.05555549999999698,
          "durationTicks": 64,
          "midi": 39,
          "name": "D#2",
          "ticks": 80640,
          "time": 69.99992999999999,
          "velocity": 0.5905511811023622
        },
        {
          "duration": 0.05555549999999698,
          "durationTicks": 64,
          "midi": 39,
          "name": "D#2",
          "ticks": 80832,
          "time": 70.1665965,
          "velocity": 0.5905511811023622
        },
        {
          "duration": 0.05555549999999698,
          "durationTicks": 64,
          "midi": 39,
          "name": "D#2",
          "ticks": 80928,
          "time": 70.24992974999999,
          "velocity": 0.5905511811023622
        },
        {
          "duration": 0.05555549999999698,
          "durationTicks": 64,
          "midi": 39,
          "name": "D#2",
          "ticks": 81024,
          "time": 70.333263,
          "velocity": 0.5905511811023622
        },
        {
          "duration": 0.05555549999999698,
          "durationTicks": 64,
          "midi": 39,
          "name": "D#2",
          "ticks": 81120,
          "time": 70.41659625,
          "velocity": 0.5905511811023622
        },
        {
          "duration": 0.05555549999999698,
          "durationTicks": 64,
          "midi": 39,
          "name": "D#2",
          "ticks": 81216,
          "time": 70.4999295,
          "velocity": 0.5905511811023622
        },
        {
          "duration": 0.05555549999999698,
          "durationTicks": 64,
          "midi": 39,
          "name": "D#2",
          "ticks": 81312,
          "time": 70.58326275,
          "velocity": 0.5905511811023622
        },
        {
          "duration": 0.05555549999999698,
          "durationTicks": 64,
          "midi": 39,
          "name": "D#2",
          "ticks": 81408,
          "time": 70.666596,
          "velocity": 0.5905511811023622
        },
        {
          "duration": 0.05555549999999698,
          "durationTicks": 64,
          "midi": 39,
          "name": "D#2",
          "ticks": 81600,
          "time": 70.8332625,
          "velocity": 0.5905511811023622
        },
        {
          "duration": 0.05555549999999698,
          "durationTicks": 64,
          "midi": 39,
          "name": "D#2",
          "ticks": 81696,
          "time": 70.91659575,
          "velocity": 0.5905511811023622
        },
        {
          "duration": 0.05555549999999698,
          "durationTicks": 64,
          "midi": 39,
          "name": "D#2",
          "ticks": 81792,
          "time": 70.999929,
          "velocity": 0.5905511811023622
        },
        {
          "duration": 0.05555549999999698,
          "durationTicks": 64,
          "midi": 39,
          "name": "D#2",
          "ticks": 81984,
          "time": 71.1665955,
          "velocity": 0.5905511811023622
        },
        {
          "duration": 0.05555549999999698,
          "durationTicks": 64,
          "midi": 39,
          "name": "D#2",
          "ticks": 82080,
          "time": 71.24992875,
          "velocity": 0.5905511811023622
        },
        {
          "duration": 0.05555549999999698,
          "durationTicks": 64,
          "midi": 39,
          "name": "D#2",
          "ticks": 82176,
          "time": 71.333262,
          "velocity": 0.5905511811023622
        },
        {
          "duration": 0.05555549999999698,
          "durationTicks": 64,
          "midi": 39,
          "name": "D#2",
          "ticks": 82368,
          "time": 71.4999285,
          "velocity": 0.5905511811023622
        },
        {
          "duration": 0.05555549999999698,
          "durationTicks": 64,
          "midi": 39,
          "name": "D#2",
          "ticks": 82464,
          "time": 71.58326174999999,
          "velocity": 0.5905511811023622
        },
        {
          "duration": 0.05555549999999698,
          "durationTicks": 64,
          "midi": 39,
          "name": "D#2",
          "ticks": 82560,
          "time": 71.666595,
          "velocity": 0.5905511811023622
        },
        {
          "duration": 0.05555549999999698,
          "durationTicks": 64,
          "midi": 39,
          "name": "D#2",
          "ticks": 82656,
          "time": 71.74992825,
          "velocity": 0.5905511811023622
        },
        {
          "duration": 0.05555549999999698,
          "durationTicks": 64,
          "midi": 39,
          "name": "D#2",
          "ticks": 82752,
          "time": 71.83326149999999,
          "velocity": 0.5905511811023622
        },
        {
          "duration": 0.05555549999999698,
          "durationTicks": 64,
          "midi": 39,
          "name": "D#2",
          "ticks": 82848,
          "time": 71.91659475,
          "velocity": 0.5905511811023622
        },
        {
          "duration": 0.05555549999999698,
          "durationTicks": 64,
          "midi": 39,
          "name": "D#2",
          "ticks": 82944,
          "time": 71.999928,
          "velocity": 0.5905511811023622
        },
        {
          "duration": 0.05555549999999698,
          "durationTicks": 64,
          "midi": 39,
          "name": "D#2",
          "ticks": 83040,
          "time": 72.08326124999999,
          "velocity": 0.5905511811023622
        },
        {
          "duration": 0.05555549999999698,
          "durationTicks": 64,
          "midi": 39,
          "name": "D#2",
          "ticks": 83136,
          "time": 72.1665945,
          "velocity": 0.47244094488188976
        },
        {
          "duration": 0.05555549999999698,
          "durationTicks": 64,
          "midi": 39,
          "name": "D#2",
          "ticks": 83232,
          "time": 72.24992775,
          "velocity": 0.47244094488188976
        },
        {
          "duration": 0.05555549999999698,
          "durationTicks": 64,
          "midi": 39,
          "name": "D#2",
          "ticks": 83328,
          "time": 72.333261,
          "velocity": 0.5905511811023622
        },
        {
          "duration": 0.05555549999999698,
          "durationTicks": 64,
          "midi": 39,
          "name": "D#2",
          "ticks": 83424,
          "time": 72.41659425,
          "velocity": 0.5905511811023622
        },
        {
          "duration": 0.05555549999999698,
          "durationTicks": 64,
          "midi": 39,
          "name": "D#2",
          "ticks": 83520,
          "time": 72.4999275,
          "velocity": 0.47244094488188976
        },
        {
          "duration": 0.05555549999999698,
          "durationTicks": 64,
          "midi": 39,
          "name": "D#2",
          "ticks": 83616,
          "time": 72.58326075,
          "velocity": 0.47244094488188976
        },
        {
          "duration": 0.05555549999999698,
          "durationTicks": 64,
          "midi": 39,
          "name": "D#2",
          "ticks": 83712,
          "time": 72.666594,
          "velocity": 0.5905511811023622
        },
        {
          "duration": 0.05555549999999698,
          "durationTicks": 64,
          "midi": 39,
          "name": "D#2",
          "ticks": 83808,
          "time": 72.74992725,
          "velocity": 0.5905511811023622
        },
        {
          "duration": 0.05555549999999698,
          "durationTicks": 64,
          "midi": 39,
          "name": "D#2",
          "ticks": 83904,
          "time": 72.8332605,
          "velocity": 0.47244094488188976
        },
        {
          "duration": 0.05555549999999698,
          "durationTicks": 64,
          "midi": 39,
          "name": "D#2",
          "ticks": 84000,
          "time": 72.91659375,
          "velocity": 0.47244094488188976
        },
        {
          "duration": 0.05555549999999698,
          "durationTicks": 64,
          "midi": 39,
          "name": "D#2",
          "ticks": 84096,
          "time": 72.999927,
          "velocity": 0.5905511811023622
        },
        {
          "duration": 0.05555549999999698,
          "durationTicks": 64,
          "midi": 39,
          "name": "D#2",
          "ticks": 84192,
          "time": 73.08326025,
          "velocity": 0.5905511811023622
        },
        {
          "duration": 0.05555549999999698,
          "durationTicks": 64,
          "midi": 39,
          "name": "D#2",
          "ticks": 84288,
          "time": 73.1665935,
          "velocity": 0.47244094488188976
        },
        {
          "duration": 0.05555549999999698,
          "durationTicks": 64,
          "midi": 39,
          "name": "D#2",
          "ticks": 84384,
          "time": 73.24992675,
          "velocity": 0.47244094488188976
        },
        {
          "duration": 0.05555549999999698,
          "durationTicks": 64,
          "midi": 39,
          "name": "D#2",
          "ticks": 84480,
          "time": 73.33326,
          "velocity": 0.5905511811023622
        },
        {
          "duration": 0.05555549999999698,
          "durationTicks": 64,
          "midi": 39,
          "name": "D#2",
          "ticks": 84576,
          "time": 73.41659324999999,
          "velocity": 0.5905511811023622
        },
        {
          "duration": 0.05555549999999698,
          "durationTicks": 64,
          "midi": 39,
          "name": "D#2",
          "ticks": 84672,
          "time": 73.4999265,
          "velocity": 0.47244094488188976
        },
        {
          "duration": 0.05555549999999698,
          "durationTicks": 64,
          "midi": 39,
          "name": "D#2",
          "ticks": 84768,
          "time": 73.58325975,
          "velocity": 0.47244094488188976
        },
        {
          "duration": 0.05555549999999698,
          "durationTicks": 64,
          "midi": 39,
          "name": "D#2",
          "ticks": 84864,
          "time": 73.66659299999999,
          "velocity": 0.5905511811023622
        },
        {
          "duration": 0.05555549999999698,
          "durationTicks": 64,
          "midi": 39,
          "name": "D#2",
          "ticks": 84960,
          "time": 73.74992625,
          "velocity": 0.5905511811023622
        },
        {
          "duration": 0.05555549999999698,
          "durationTicks": 64,
          "midi": 39,
          "name": "D#2",
          "ticks": 85056,
          "time": 73.8332595,
          "velocity": 0.47244094488188976
        },
        {
          "duration": 0.05555549999999698,
          "durationTicks": 64,
          "midi": 39,
          "name": "D#2",
          "ticks": 85152,
          "time": 73.91659274999999,
          "velocity": 0.47244094488188976
        },
        {
          "duration": 0.05555549999999698,
          "durationTicks": 64,
          "midi": 39,
          "name": "D#2",
          "ticks": 85248,
          "time": 73.999926,
          "velocity": 0.5905511811023622
        },
        {
          "duration": 0.05555549999999698,
          "durationTicks": 64,
          "midi": 39,
          "name": "D#2",
          "ticks": 85344,
          "time": 74.08325925,
          "velocity": 0.5905511811023622
        },
        {
          "duration": 0.05555549999999698,
          "durationTicks": 64,
          "midi": 39,
          "name": "D#2",
          "ticks": 85440,
          "time": 74.1665925,
          "velocity": 0.47244094488188976
        },
        {
          "duration": 0.05555549999999698,
          "durationTicks": 64,
          "midi": 39,
          "name": "D#2",
          "ticks": 85536,
          "time": 74.24992575,
          "velocity": 0.47244094488188976
        },
        {
          "duration": 0.05555549999999698,
          "durationTicks": 64,
          "midi": 39,
          "name": "D#2",
          "ticks": 85632,
          "time": 74.333259,
          "velocity": 0.5905511811023622
        },
        {
          "duration": 0.05555549999999698,
          "durationTicks": 64,
          "midi": 39,
          "name": "D#2",
          "ticks": 85728,
          "time": 74.41659225,
          "velocity": 0.5905511811023622
        },
        {
          "duration": 0.05555549999999698,
          "durationTicks": 64,
          "midi": 39,
          "name": "D#2",
          "ticks": 85824,
          "time": 74.4999255,
          "velocity": 0.47244094488188976
        },
        {
          "duration": 0.05555549999999698,
          "durationTicks": 64,
          "midi": 39,
          "name": "D#2",
          "ticks": 85920,
          "time": 74.58325875,
          "velocity": 0.47244094488188976
        },
        {
          "duration": 0.05555549999999698,
          "durationTicks": 64,
          "midi": 39,
          "name": "D#2",
          "ticks": 86016,
          "time": 74.666592,
          "velocity": 0.5905511811023622
        },
        {
          "duration": 0.05555549999999698,
          "durationTicks": 64,
          "midi": 39,
          "name": "D#2",
          "ticks": 86112,
          "time": 74.74992525,
          "velocity": 0.5905511811023622
        },
        {
          "duration": 0.05555549999999698,
          "durationTicks": 64,
          "midi": 39,
          "name": "D#2",
          "ticks": 86208,
          "time": 74.8332585,
          "velocity": 0.47244094488188976
        },
        {
          "duration": 0.05555549999999698,
          "durationTicks": 64,
          "midi": 39,
          "name": "D#2",
          "ticks": 86304,
          "time": 74.91659175,
          "velocity": 0.47244094488188976
        },
        {
          "duration": 0.05555549999999698,
          "durationTicks": 64,
          "midi": 39,
          "name": "D#2",
          "ticks": 86400,
          "time": 74.999925,
          "velocity": 0.5905511811023622
        },
        {
          "duration": 0.05555549999999698,
          "durationTicks": 64,
          "midi": 39,
          "name": "D#2",
          "ticks": 86496,
          "time": 75.08325825,
          "velocity": 0.5905511811023622
        },
        {
          "duration": 0.05555549999999698,
          "durationTicks": 64,
          "midi": 39,
          "name": "D#2",
          "ticks": 86592,
          "time": 75.1665915,
          "velocity": 0.47244094488188976
        },
        {
          "duration": 0.05555549999999698,
          "durationTicks": 64,
          "midi": 39,
          "name": "D#2",
          "ticks": 86688,
          "time": 75.24992474999999,
          "velocity": 0.47244094488188976
        },
        {
          "duration": 0.05555549999999698,
          "durationTicks": 64,
          "midi": 39,
          "name": "D#2",
          "ticks": 86784,
          "time": 75.333258,
          "velocity": 0.5905511811023622
        },
        {
          "duration": 0.05555549999999698,
          "durationTicks": 64,
          "midi": 39,
          "name": "D#2",
          "ticks": 86880,
          "time": 75.41659125,
          "velocity": 0.5905511811023622
        },
        {
          "duration": 0.05555549999999698,
          "durationTicks": 64,
          "midi": 39,
          "name": "D#2",
          "ticks": 86976,
          "time": 75.49992449999999,
          "velocity": 0.47244094488188976
        },
        {
          "duration": 0.05555549999999698,
          "durationTicks": 64,
          "midi": 39,
          "name": "D#2",
          "ticks": 87072,
          "time": 75.58325775,
          "velocity": 0.47244094488188976
        },
        {
          "duration": 0.05555549999999698,
          "durationTicks": 64,
          "midi": 39,
          "name": "D#2",
          "ticks": 87168,
          "time": 75.666591,
          "velocity": 0.5905511811023622
        },
        {
          "duration": 0.05555549999999698,
          "durationTicks": 64,
          "midi": 39,
          "name": "D#2",
          "ticks": 87264,
          "time": 75.74992424999999,
          "velocity": 0.5905511811023622
        },
        {
          "duration": 0.05555549999999698,
          "durationTicks": 64,
          "midi": 39,
          "name": "D#2",
          "ticks": 87360,
          "time": 75.8332575,
          "velocity": 0.47244094488188976
        },
        {
          "duration": 0.05555549999999698,
          "durationTicks": 64,
          "midi": 39,
          "name": "D#2",
          "ticks": 87456,
          "time": 75.91659075,
          "velocity": 0.47244094488188976
        },
        {
          "duration": 0.05555549999999698,
          "durationTicks": 64,
          "midi": 39,
          "name": "D#2",
          "ticks": 87552,
          "time": 75.999924,
          "velocity": 0.5905511811023622
        },
        {
          "duration": 0.05555549999999698,
          "durationTicks": 64,
          "midi": 39,
          "name": "D#2",
          "ticks": 87648,
          "time": 76.08325725,
          "velocity": 0.5905511811023622
        },
        {
          "duration": 0.05555549999999698,
          "durationTicks": 64,
          "midi": 39,
          "name": "D#2",
          "ticks": 87744,
          "time": 76.1665905,
          "velocity": 0.47244094488188976
        },
        {
          "duration": 0.05555549999999698,
          "durationTicks": 64,
          "midi": 39,
          "name": "D#2",
          "ticks": 87840,
          "time": 76.24992375,
          "velocity": 0.47244094488188976
        },
        {
          "duration": 0.05555549999999698,
          "durationTicks": 64,
          "midi": 39,
          "name": "D#2",
          "ticks": 87936,
          "time": 76.333257,
          "velocity": 0.5905511811023622
        },
        {
          "duration": 0.05555549999999698,
          "durationTicks": 64,
          "midi": 39,
          "name": "D#2",
          "ticks": 88032,
          "time": 76.41659025,
          "velocity": 0.5905511811023622
        },
        {
          "duration": 0.05555549999999698,
          "durationTicks": 64,
          "midi": 39,
          "name": "D#2",
          "ticks": 88128,
          "time": 76.4999235,
          "velocity": 0.47244094488188976
        },
        {
          "duration": 0.05555549999999698,
          "durationTicks": 64,
          "midi": 39,
          "name": "D#2",
          "ticks": 88224,
          "time": 76.58325675,
          "velocity": 0.47244094488188976
        },
        {
          "duration": 0.05555549999999698,
          "durationTicks": 64,
          "midi": 39,
          "name": "D#2",
          "ticks": 88320,
          "time": 76.66659,
          "velocity": 0.5905511811023622
        },
        {
          "duration": 0.05555549999999698,
          "durationTicks": 64,
          "midi": 39,
          "name": "D#2",
          "ticks": 88416,
          "time": 76.74992325,
          "velocity": 0.5905511811023622
        },
        {
          "duration": 0.05555549999999698,
          "durationTicks": 64,
          "midi": 39,
          "name": "D#2",
          "ticks": 88512,
          "time": 76.8332565,
          "velocity": 0.47244094488188976
        },
        {
          "duration": 0.05555549999999698,
          "durationTicks": 64,
          "midi": 39,
          "name": "D#2",
          "ticks": 88608,
          "time": 76.91658975,
          "velocity": 0.47244094488188976
        },
        {
          "duration": 0.05555549999999698,
          "durationTicks": 64,
          "midi": 39,
          "name": "D#2",
          "ticks": 88704,
          "time": 76.999923,
          "velocity": 0.5905511811023622
        },
        {
          "duration": 0.05555549999999698,
          "durationTicks": 64,
          "midi": 39,
          "name": "D#2",
          "ticks": 88800,
          "time": 77.08325624999999,
          "velocity": 0.5905511811023622
        },
        {
          "duration": 0.05555549999999698,
          "durationTicks": 64,
          "midi": 39,
          "name": "D#2",
          "ticks": 88896,
          "time": 77.1665895,
          "velocity": 0.47244094488188976
        },
        {
          "duration": 0.05555549999999698,
          "durationTicks": 64,
          "midi": 39,
          "name": "D#2",
          "ticks": 88992,
          "time": 77.24992275,
          "velocity": 0.47244094488188976
        },
        {
          "duration": 0.05555549999999698,
          "durationTicks": 64,
          "midi": 39,
          "name": "D#2",
          "ticks": 89088,
          "time": 77.33325599999999,
          "velocity": 0.5905511811023622
        },
        {
          "duration": 0.05555549999999698,
          "durationTicks": 64,
          "midi": 39,
          "name": "D#2",
          "ticks": 89184,
          "time": 77.41658925,
          "velocity": 0.5905511811023622
        },
        {
          "duration": 0.05555549999999698,
          "durationTicks": 64,
          "midi": 39,
          "name": "D#2",
          "ticks": 89280,
          "time": 77.4999225,
          "velocity": 0.47244094488188976
        },
        {
          "duration": 0.05555549999999698,
          "durationTicks": 64,
          "midi": 39,
          "name": "D#2",
          "ticks": 89376,
          "time": 77.58325574999999,
          "velocity": 0.47244094488188976
        },
        {
          "duration": 0.05555549999999698,
          "durationTicks": 64,
          "midi": 39,
          "name": "D#2",
          "ticks": 89472,
          "time": 77.666589,
          "velocity": 0.5905511811023622
        },
        {
          "duration": 0.05555549999999698,
          "durationTicks": 64,
          "midi": 39,
          "name": "D#2",
          "ticks": 89568,
          "time": 77.74992225,
          "velocity": 0.5905511811023622
        },
        {
          "duration": 0.05555549999999698,
          "durationTicks": 64,
          "midi": 39,
          "name": "D#2",
          "ticks": 89664,
          "time": 77.83325549999999,
          "velocity": 0.47244094488188976
        },
        {
          "duration": 0.05555549999999698,
          "durationTicks": 64,
          "midi": 39,
          "name": "D#2",
          "ticks": 89760,
          "time": 77.91658875,
          "velocity": 0.47244094488188976
        },
        {
          "duration": 0.05555549999999698,
          "durationTicks": 64,
          "midi": 39,
          "name": "D#2",
          "ticks": 89856,
          "time": 77.999922,
          "velocity": 0.5905511811023622
        },
        {
          "duration": 0.05555549999999698,
          "durationTicks": 64,
          "midi": 39,
          "name": "D#2",
          "ticks": 89952,
          "time": 78.08325525,
          "velocity": 0.5905511811023622
        },
        {
          "duration": 0.05555549999999698,
          "durationTicks": 64,
          "midi": 39,
          "name": "D#2",
          "ticks": 90048,
          "time": 78.1665885,
          "velocity": 0.47244094488188976
        },
        {
          "duration": 0.05555549999999698,
          "durationTicks": 64,
          "midi": 39,
          "name": "D#2",
          "ticks": 90144,
          "time": 78.24992175,
          "velocity": 0.47244094488188976
        },
        {
          "duration": 0.05555549999999698,
          "durationTicks": 64,
          "midi": 39,
          "name": "D#2",
          "ticks": 90240,
          "time": 78.333255,
          "velocity": 0.5905511811023622
        },
        {
          "duration": 0.05555549999999698,
          "durationTicks": 64,
          "midi": 39,
          "name": "D#2",
          "ticks": 90336,
          "time": 78.41658825,
          "velocity": 0.5905511811023622
        },
        {
          "duration": 0.05555549999999698,
          "durationTicks": 64,
          "midi": 39,
          "name": "D#2",
          "ticks": 90432,
          "time": 78.4999215,
          "velocity": 0.47244094488188976
        },
        {
          "duration": 0.05555549999999698,
          "durationTicks": 64,
          "midi": 39,
          "name": "D#2",
          "ticks": 90528,
          "time": 78.58325475,
          "velocity": 0.47244094488188976
        },
        {
          "duration": 0.05555549999999698,
          "durationTicks": 64,
          "midi": 39,
          "name": "D#2",
          "ticks": 90624,
          "time": 78.666588,
          "velocity": 0.5905511811023622
        },
        {
          "duration": 0.05555549999999698,
          "durationTicks": 64,
          "midi": 39,
          "name": "D#2",
          "ticks": 90720,
          "time": 78.74992125,
          "velocity": 0.5905511811023622
        },
        {
          "duration": 0.05555549999999698,
          "durationTicks": 64,
          "midi": 39,
          "name": "D#2",
          "ticks": 90816,
          "time": 78.8332545,
          "velocity": 0.47244094488188976
        },
        {
          "duration": 0.05555549999999698,
          "durationTicks": 64,
          "midi": 39,
          "name": "D#2",
          "ticks": 90912,
          "time": 78.91658774999999,
          "velocity": 0.47244094488188976
        },
        {
          "duration": 0.05555549999999698,
          "durationTicks": 64,
          "midi": 39,
          "name": "D#2",
          "ticks": 91008,
          "time": 78.999921,
          "velocity": 0.5905511811023622
        },
        {
          "duration": 0.05555549999999698,
          "durationTicks": 64,
          "midi": 39,
          "name": "D#2",
          "ticks": 91104,
          "time": 79.08325425,
          "velocity": 0.5905511811023622
        },
        {
          "duration": 0.05555549999999698,
          "durationTicks": 64,
          "midi": 39,
          "name": "D#2",
          "ticks": 91200,
          "time": 79.16658749999999,
          "velocity": 0.47244094488188976
        },
        {
          "duration": 0.05555549999999698,
          "durationTicks": 64,
          "midi": 39,
          "name": "D#2",
          "ticks": 91296,
          "time": 79.24992075,
          "velocity": 0.47244094488188976
        },
        {
          "duration": 0.05555549999999698,
          "durationTicks": 64,
          "midi": 39,
          "name": "D#2",
          "ticks": 91392,
          "time": 79.333254,
          "velocity": 0.5905511811023622
        },
        {
          "duration": 0.05555549999999698,
          "durationTicks": 64,
          "midi": 39,
          "name": "D#2",
          "ticks": 91488,
          "time": 79.41658724999999,
          "velocity": 0.5905511811023622
        },
        {
          "duration": 0.05555549999999698,
          "durationTicks": 64,
          "midi": 39,
          "name": "D#2",
          "ticks": 91584,
          "time": 79.4999205,
          "velocity": 0.47244094488188976
        },
        {
          "duration": 0.05555549999999698,
          "durationTicks": 64,
          "midi": 39,
          "name": "D#2",
          "ticks": 91680,
          "time": 79.58325375,
          "velocity": 0.47244094488188976
        },
        {
          "duration": 0.05555549999999698,
          "durationTicks": 64,
          "midi": 39,
          "name": "D#2",
          "ticks": 91776,
          "time": 79.66658699999999,
          "velocity": 0.5905511811023622
        },
        {
          "duration": 0.05555549999999698,
          "durationTicks": 64,
          "midi": 39,
          "name": "D#2",
          "ticks": 91872,
          "time": 79.74992025,
          "velocity": 0.5905511811023622
        },
        {
          "duration": 0.05555549999999698,
          "durationTicks": 64,
          "midi": 39,
          "name": "D#2",
          "ticks": 91968,
          "time": 79.8332535,
          "velocity": 0.47244094488188976
        },
        {
          "duration": 0.05555549999999698,
          "durationTicks": 64,
          "midi": 39,
          "name": "D#2",
          "ticks": 92064,
          "time": 79.91658675,
          "velocity": 0.47244094488188976
        },
        {
          "duration": 0.05555549999999698,
          "durationTicks": 64,
          "midi": 39,
          "name": "D#2",
          "ticks": 92160,
          "time": 79.99992,
          "velocity": 0.5905511811023622
        },
        {
          "duration": 0.05555549999999698,
          "durationTicks": 64,
          "midi": 39,
          "name": "D#2",
          "ticks": 92256,
          "time": 80.08325325,
          "velocity": 0.5905511811023622
        },
        {
          "duration": 0.05555549999999698,
          "durationTicks": 64,
          "midi": 39,
          "name": "D#2",
          "ticks": 92352,
          "time": 80.1665865,
          "velocity": 0.47244094488188976
        },
        {
          "duration": 0.05555549999999698,
          "durationTicks": 64,
          "midi": 39,
          "name": "D#2",
          "ticks": 92448,
          "time": 80.24991975,
          "velocity": 0.47244094488188976
        },
        {
          "duration": 0.05555549999999698,
          "durationTicks": 64,
          "midi": 39,
          "name": "D#2",
          "ticks": 92544,
          "time": 80.333253,
          "velocity": 0.5905511811023622
        },
        {
          "duration": 0.05555549999999698,
          "durationTicks": 64,
          "midi": 39,
          "name": "D#2",
          "ticks": 92640,
          "time": 80.41658625,
          "velocity": 0.5905511811023622
        },
        {
          "duration": 0.05555549999999698,
          "durationTicks": 64,
          "midi": 39,
          "name": "D#2",
          "ticks": 92736,
          "time": 80.4999195,
          "velocity": 0.47244094488188976
        },
        {
          "duration": 0.05555549999999698,
          "durationTicks": 64,
          "midi": 39,
          "name": "D#2",
          "ticks": 92832,
          "time": 80.58325275,
          "velocity": 0.47244094488188976
        },
        {
          "duration": 0.05555549999999698,
          "durationTicks": 64,
          "midi": 39,
          "name": "D#2",
          "ticks": 92928,
          "time": 80.666586,
          "velocity": 0.5905511811023622
        },
        {
          "duration": 0.05555549999999698,
          "durationTicks": 64,
          "midi": 39,
          "name": "D#2",
          "ticks": 93024,
          "time": 80.74991924999999,
          "velocity": 0.5905511811023622
        },
        {
          "duration": 0.05555549999999698,
          "durationTicks": 64,
          "midi": 39,
          "name": "D#2",
          "ticks": 93120,
          "time": 80.8332525,
          "velocity": 0.47244094488188976
        },
        {
          "duration": 0.05555549999999698,
          "durationTicks": 64,
          "midi": 39,
          "name": "D#2",
          "ticks": 93216,
          "time": 80.91658575,
          "velocity": 0.47244094488188976
        },
        {
          "duration": 0.05555549999999698,
          "durationTicks": 64,
          "midi": 39,
          "name": "D#2",
          "ticks": 93312,
          "time": 80.99991899999999,
          "velocity": 0.5905511811023622
        },
        {
          "duration": 0.05555549999999698,
          "durationTicks": 64,
          "midi": 39,
          "name": "D#2",
          "ticks": 93408,
          "time": 81.08325225,
          "velocity": 0.5905511811023622
        },
        {
          "duration": 0.05555549999999698,
          "durationTicks": 64,
          "midi": 39,
          "name": "D#2",
          "ticks": 93504,
          "time": 81.1665855,
          "velocity": 0.47244094488188976
        },
        {
          "duration": 0.05555549999999698,
          "durationTicks": 64,
          "midi": 39,
          "name": "D#2",
          "ticks": 93600,
          "time": 81.24991874999999,
          "velocity": 0.47244094488188976
        },
        {
          "duration": 0.05555549999999698,
          "durationTicks": 64,
          "midi": 39,
          "name": "D#2",
          "ticks": 93696,
          "time": 81.333252,
          "velocity": 0.5905511811023622
        },
        {
          "duration": 0.05555549999999698,
          "durationTicks": 64,
          "midi": 39,
          "name": "D#2",
          "ticks": 93888,
          "time": 81.49991849999999,
          "velocity": 0.5905511811023622
        },
        {
          "duration": 0.05555549999999698,
          "durationTicks": 64,
          "midi": 39,
          "name": "D#2",
          "ticks": 93984,
          "time": 81.58325175,
          "velocity": 0.5905511811023622
        },
        {
          "duration": 0.05555549999999698,
          "durationTicks": 64,
          "midi": 39,
          "name": "D#2",
          "ticks": 94080,
          "time": 81.666585,
          "velocity": 0.5905511811023622
        },
        {
          "duration": 0.05555549999999698,
          "durationTicks": 64,
          "midi": 39,
          "name": "D#2",
          "ticks": 94272,
          "time": 81.8332515,
          "velocity": 0.5905511811023622
        },
        {
          "duration": 0.05555549999999698,
          "durationTicks": 64,
          "midi": 39,
          "name": "D#2",
          "ticks": 94368,
          "time": 81.91658475,
          "velocity": 0.5905511811023622
        },
        {
          "duration": 0.05555549999999698,
          "durationTicks": 64,
          "midi": 39,
          "name": "D#2",
          "ticks": 94464,
          "time": 81.999918,
          "velocity": 0.5905511811023622
        }
      ]
    },
    {
      "channel": 0,
      "controlChanges": {
        "0": [
          {
            "number": 0,
            "ticks": 0,
            "time": 0,
            "value": 0
          }
        ]
      },
      "pitchBends": [],
      "instrument": {
        "family": "piano",
        "number": 0,
        "name": "acoustic grand piano"
      },
      "name": "by Heat Man",
      "notes": [],
      "endOfTrackTicks": 94656
    },
    {
      "channel": 6,
      "controlChanges": {},
      "pitchBends": [],
      "instrument": {
        "family": "world",
        "number": 108,
        "name": "kalimba"
      },
      "name": "",
      "notes": [
        {
          "duration": 0.08333324999999903,
          "durationTicks": 96,
          "midi": 65,
          "name": "F4",
          "ticks": 30720,
          "time": 26.66664,
          "velocity": 0.6850393700787402
        },
        {
          "duration": 0.08333324999999903,
          "durationTicks": 96,
          "midi": 72,
          "name": "C5",
          "ticks": 30816,
          "time": 26.74997325,
          "velocity": 0.6850393700787402
        },
        {
          "duration": 0.08333324999999903,
          "durationTicks": 96,
          "midi": 80,
          "name": "G#5",
          "ticks": 30912,
          "time": 26.8333065,
          "velocity": 0.6850393700787402
        },
        {
          "duration": 0.08333325000000258,
          "durationTicks": 96,
          "midi": 72,
          "name": "C5",
          "ticks": 31008,
          "time": 26.916639749999998,
          "velocity": 0.6850393700787402
        },
        {
          "duration": 0.08333324999999903,
          "durationTicks": 96,
          "midi": 80,
          "name": "G#5",
          "ticks": 31104,
          "time": 26.999973,
          "velocity": 0.6850393700787402
        },
        {
          "duration": 0.08333324999999903,
          "durationTicks": 96,
          "midi": 72,
          "name": "C5",
          "ticks": 31200,
          "time": 27.08330625,
          "velocity": 0.6850393700787402
        },
        {
          "duration": 0.08333324999999903,
          "durationTicks": 96,
          "midi": 80,
          "name": "G#5",
          "ticks": 31296,
          "time": 27.1666395,
          "velocity": 0.6850393700787402
        },
        {
          "duration": 0.08333325000000258,
          "durationTicks": 96,
          "midi": 72,
          "name": "C5",
          "ticks": 31392,
          "time": 27.249972749999998,
          "velocity": 0.6850393700787402
        },
        {
          "duration": 0.08333324999999903,
          "durationTicks": 96,
          "midi": 70,
          "name": "A#4",
          "ticks": 31488,
          "time": 27.333306,
          "velocity": 0.6850393700787402
        },
        {
          "duration": 0.08333324999999903,
          "durationTicks": 96,
          "midi": 77,
          "name": "F5",
          "ticks": 31584,
          "time": 27.41663925,
          "velocity": 0.6850393700787402
        },
        {
          "duration": 0.08333325000000258,
          "durationTicks": 96,
          "midi": 82,
          "name": "A#5",
          "ticks": 31680,
          "time": 27.4999725,
          "velocity": 0.6850393700787402
        },
        {
          "duration": 0.08333324999999903,
          "durationTicks": 96,
          "midi": 77,
          "name": "F5",
          "ticks": 31776,
          "time": 27.58330575,
          "velocity": 0.6850393700787402
        },
        {
          "duration": 0.08333324999999903,
          "durationTicks": 96,
          "midi": 82,
          "name": "A#5",
          "ticks": 31872,
          "time": 27.666639,
          "velocity": 0.6850393700787402
        },
        {
          "duration": 0.08333324999999903,
          "durationTicks": 96,
          "midi": 77,
          "name": "F5",
          "ticks": 31968,
          "time": 27.74997225,
          "velocity": 0.6850393700787402
        },
        {
          "duration": 0.08333325000000258,
          "durationTicks": 96,
          "midi": 82,
          "name": "A#5",
          "ticks": 32064,
          "time": 27.833305499999998,
          "velocity": 0.6850393700787402
        },
        {
          "duration": 0.08333324999999903,
          "durationTicks": 96,
          "midi": 77,
          "name": "F5",
          "ticks": 32160,
          "time": 27.91663875,
          "velocity": 0.6850393700787402
        },
        {
          "duration": 0.08333324999999903,
          "durationTicks": 96,
          "midi": 63,
          "name": "D#4",
          "ticks": 32256,
          "time": 27.999972,
          "velocity": 0.6850393700787402
        },
        {
          "duration": 0.08333324999999903,
          "durationTicks": 96,
          "midi": 72,
          "name": "C5",
          "ticks": 32352,
          "time": 28.08330525,
          "velocity": 0.6850393700787402
        },
        {
          "duration": 0.08333325000000258,
          "durationTicks": 96,
          "midi": 75,
          "name": "D#5",
          "ticks": 32448,
          "time": 28.166638499999998,
          "velocity": 0.6850393700787402
        },
        {
          "duration": 0.08333324999999903,
          "durationTicks": 96,
          "midi": 72,
          "name": "C5",
          "ticks": 32544,
          "time": 28.24997175,
          "velocity": 0.6850393700787402
        },
        {
          "duration": 0.08333324999999903,
          "durationTicks": 96,
          "midi": 79,
          "name": "G5",
          "ticks": 32640,
          "time": 28.333305,
          "velocity": 0.6850393700787402
        },
        {
          "duration": 0.08333325000000258,
          "durationTicks": 96,
          "midi": 72,
          "name": "C5",
          "ticks": 32736,
          "time": 28.41663825,
          "velocity": 0.6850393700787402
        },
        {
          "duration": 0.08333324999999903,
          "durationTicks": 96,
          "midi": 75,
          "name": "D#5",
          "ticks": 32832,
          "time": 28.4999715,
          "velocity": 0.6850393700787402
        },
        {
          "duration": 0.08333324999999903,
          "durationTicks": 96,
          "midi": 68,
          "name": "G#4",
          "ticks": 32928,
          "time": 28.58330475,
          "velocity": 0.6850393700787402
        },
        {
          "duration": 0.08333324999999903,
          "durationTicks": 96,
          "midi": 75,
          "name": "D#5",
          "ticks": 33024,
          "time": 28.666638,
          "velocity": 0.6850393700787402
        },
        {
          "duration": 0.08333325000000258,
          "durationTicks": 96,
          "midi": 80,
          "name": "G#5",
          "ticks": 33120,
          "time": 28.749971249999998,
          "velocity": 0.6850393700787402
        },
        {
          "duration": 0.08333324999999903,
          "durationTicks": 96,
          "midi": 75,
          "name": "D#5",
          "ticks": 33216,
          "time": 28.8333045,
          "velocity": 0.6850393700787402
        },
        {
          "duration": 0.08333324999999903,
          "durationTicks": 96,
          "midi": 68,
          "name": "G#4",
          "ticks": 33312,
          "time": 28.91663775,
          "velocity": 0.6850393700787402
        },
        {
          "duration": 0.08333324999999903,
          "durationTicks": 96,
          "midi": 75,
          "name": "D#5",
          "ticks": 33408,
          "time": 28.999971,
          "velocity": 0.6850393700787402
        },
        {
          "duration": 0.08333325000000258,
          "durationTicks": 96,
          "midi": 80,
          "name": "G#5",
          "ticks": 33504,
          "time": 29.083304249999998,
          "velocity": 0.6850393700787402
        },
        {
          "duration": 0.08333324999999903,
          "durationTicks": 96,
          "midi": 75,
          "name": "D#5",
          "ticks": 33600,
          "time": 29.1666375,
          "velocity": 0.6850393700787402
        },
        {
          "duration": 0.08333324999999903,
          "durationTicks": 96,
          "midi": 68,
          "name": "G#4",
          "ticks": 33696,
          "time": 29.24997075,
          "velocity": 0.6850393700787402
        },
        {
          "duration": 0.08333325000000258,
          "durationTicks": 96,
          "midi": 65,
          "name": "F4",
          "ticks": 33792,
          "time": 29.333304,
          "velocity": 0.6850393700787402
        },
        {
          "duration": 0.08333324999999903,
          "durationTicks": 96,
          "midi": 72,
          "name": "C5",
          "ticks": 33888,
          "time": 29.41663725,
          "velocity": 0.6850393700787402
        },
        {
          "duration": 0.08333324999999903,
          "durationTicks": 96,
          "midi": 80,
          "name": "G#5",
          "ticks": 33984,
          "time": 29.4999705,
          "velocity": 0.6850393700787402
        },
        {
          "duration": 0.08333324999999903,
          "durationTicks": 96,
          "midi": 72,
          "name": "C5",
          "ticks": 34080,
          "time": 29.58330375,
          "velocity": 0.6850393700787402
        },
        {
          "duration": 0.08333325000000258,
          "durationTicks": 96,
          "midi": 80,
          "name": "G#5",
          "ticks": 34176,
          "time": 29.666636999999998,
          "velocity": 0.6850393700787402
        },
        {
          "duration": 0.08333324999999903,
          "durationTicks": 96,
          "midi": 72,
          "name": "C5",
          "ticks": 34272,
          "time": 29.74997025,
          "velocity": 0.6850393700787402
        },
        {
          "duration": 0.08333324999999903,
          "durationTicks": 96,
          "midi": 80,
          "name": "G#5",
          "ticks": 34368,
          "time": 29.8333035,
          "velocity": 0.6850393700787402
        },
        {
          "duration": 0.08333324999999903,
          "durationTicks": 96,
          "midi": 72,
          "name": "C5",
          "ticks": 34464,
          "time": 29.91663675,
          "velocity": 0.6850393700787402
        },
        {
          "duration": 0.08333325000000258,
          "durationTicks": 96,
          "midi": 70,
          "name": "A#4",
          "ticks": 34560,
          "time": 29.999969999999998,
          "velocity": 0.6850393700787402
        },
        {
          "duration": 0.08333324999999903,
          "durationTicks": 96,
          "midi": 77,
          "name": "F5",
          "ticks": 34656,
          "time": 30.08330325,
          "velocity": 0.6850393700787402
        },
        {
          "duration": 0.08333324999999903,
          "durationTicks": 96,
          "midi": 82,
          "name": "A#5",
          "ticks": 34752,
          "time": 30.1666365,
          "velocity": 0.6850393700787402
        },
        {
          "duration": 0.08333325000000258,
          "durationTicks": 96,
          "midi": 77,
          "name": "F5",
          "ticks": 34848,
          "time": 30.249969749999998,
          "velocity": 0.6850393700787402
        },
        {
          "duration": 0.08333324999999903,
          "durationTicks": 96,
          "midi": 82,
          "name": "A#5",
          "ticks": 34944,
          "time": 30.333303,
          "velocity": 0.6850393700787402
        },
        {
          "duration": 0.08333324999999903,
          "durationTicks": 96,
          "midi": 77,
          "name": "F5",
          "ticks": 35040,
          "time": 30.41663625,
          "velocity": 0.6850393700787402
        },
        {
          "duration": 0.08333324999999903,
          "durationTicks": 96,
          "midi": 82,
          "name": "A#5",
          "ticks": 35136,
          "time": 30.4999695,
          "velocity": 0.6850393700787402
        },
        {
          "duration": 0.08333325000000258,
          "durationTicks": 96,
          "midi": 77,
          "name": "F5",
          "ticks": 35232,
          "time": 30.583302749999998,
          "velocity": 0.6850393700787402
        },
        {
          "duration": 0.16666649999999805,
          "durationTicks": 192,
          "midi": 67,
          "name": "G4",
          "ticks": 35328,
          "time": 30.666636,
          "velocity": 0.6850393700787402
        },
        {
          "duration": 0.08333324999999903,
          "durationTicks": 96,
          "midi": 67,
          "name": "G4",
          "ticks": 35520,
          "time": 30.8333025,
          "velocity": 0.6850393700787402
        },
        {
          "duration": 0.08333325000000258,
          "durationTicks": 96,
          "midi": 74,
          "name": "D5",
          "ticks": 35616,
          "time": 30.916635749999998,
          "velocity": 0.6850393700787402
        },
        {
          "duration": 0.16666649999999805,
          "durationTicks": 192,
          "midi": 67,
          "name": "G4",
          "ticks": 35712,
          "time": 30.999969,
          "velocity": 0.6850393700787402
        },
        {
          "duration": 0.08333325000000258,
          "durationTicks": 96,
          "midi": 67,
          "name": "G4",
          "ticks": 35904,
          "time": 31.166635499999998,
          "velocity": 0.6850393700787402
        },
        {
          "duration": 0.08333324999999903,
          "durationTicks": 96,
          "midi": 74,
          "name": "D5",
          "ticks": 36000,
          "time": 31.24996875,
          "velocity": 0.6850393700787402
        },
        {
          "duration": 0.16666649999999805,
          "durationTicks": 192,
          "midi": 79,
          "name": "G5",
          "ticks": 36096,
          "time": 31.333302,
          "velocity": 0.6850393700787402
        },
        {
          "duration": 0.08333325000000258,
          "durationTicks": 96,
          "midi": 65,
          "name": "F4",
          "ticks": 59904,
          "time": 51.999947999999996,
          "velocity": 0.6850393700787402
        },
        {
          "duration": 0.08333325000000258,
          "durationTicks": 96,
          "midi": 72,
          "name": "C5",
          "ticks": 60000,
          "time": 52.08328125,
          "velocity": 0.6850393700787402
        },
        {
          "duration": 0.08333324999999547,
          "durationTicks": 96,
          "midi": 80,
          "name": "G#5",
          "ticks": 60096,
          "time": 52.1666145,
          "velocity": 0.6850393700787402
        },
        {
          "duration": 0.08333325000000258,
          "durationTicks": 96,
          "midi": 72,
          "name": "C5",
          "ticks": 60192,
          "time": 52.24994775,
          "velocity": 0.6850393700787402
        },
        {
          "duration": 0.08333324999999547,
          "durationTicks": 96,
          "midi": 80,
          "name": "G#5",
          "ticks": 60288,
          "time": 52.333281,
          "velocity": 0.6850393700787402
        },
        {
          "duration": 0.08333325000000258,
          "durationTicks": 96,
          "midi": 72,
          "name": "C5",
          "ticks": 60384,
          "time": 52.416614249999995,
          "velocity": 0.6850393700787402
        },
        {
          "duration": 0.08333325000000258,
          "durationTicks": 96,
          "midi": 80,
          "name": "G#5",
          "ticks": 60480,
          "time": 52.4999475,
          "velocity": 0.6850393700787402
        },
        {
          "duration": 0.08333324999999547,
          "durationTicks": 96,
          "midi": 72,
          "name": "C5",
          "ticks": 60576,
          "time": 52.58328075,
          "velocity": 0.6850393700787402
        },
        {
          "duration": 0.08333325000000258,
          "durationTicks": 96,
          "midi": 70,
          "name": "A#4",
          "ticks": 60672,
          "time": 52.666613999999996,
          "velocity": 0.6850393700787402
        },
        {
          "duration": 0.08333325000000258,
          "durationTicks": 96,
          "midi": 77,
          "name": "F5",
          "ticks": 60768,
          "time": 52.74994725,
          "velocity": 0.6850393700787402
        },
        {
          "duration": 0.08333324999999547,
          "durationTicks": 96,
          "midi": 82,
          "name": "A#5",
          "ticks": 60864,
          "time": 52.8332805,
          "velocity": 0.6850393700787402
        },
        {
          "duration": 0.08333325000000258,
          "durationTicks": 96,
          "midi": 77,
          "name": "F5",
          "ticks": 60960,
          "time": 52.916613749999996,
          "velocity": 0.6850393700787402
        },
        {
          "duration": 0.08333325000000258,
          "durationTicks": 96,
          "midi": 82,
          "name": "A#5",
          "ticks": 61056,
          "time": 52.999947,
          "velocity": 0.6850393700787402
        },
        {
          "duration": 0.08333324999999547,
          "durationTicks": 96,
          "midi": 77,
          "name": "F5",
          "ticks": 61152,
          "time": 53.08328025,
          "velocity": 0.6850393700787402
        },
        {
          "duration": 0.08333325000000258,
          "durationTicks": 96,
          "midi": 82,
          "name": "A#5",
          "ticks": 61248,
          "time": 53.1666135,
          "velocity": 0.6850393700787402
        },
        {
          "duration": 0.08333325000000258,
          "durationTicks": 96,
          "midi": 77,
          "name": "F5",
          "ticks": 61344,
          "time": 53.24994675,
          "velocity": 0.6850393700787402
        },
        {
          "duration": 0.08333324999999547,
          "durationTicks": 96,
          "midi": 63,
          "name": "D#4",
          "ticks": 61440,
          "time": 53.33328,
          "velocity": 0.6850393700787402
        },
        {
          "duration": 0.08333325000000258,
          "durationTicks": 96,
          "midi": 72,
          "name": "C5",
          "ticks": 61536,
          "time": 53.41661325,
          "velocity": 0.6850393700787402
        },
        {
          "duration": 0.08333324999999547,
          "durationTicks": 96,
          "midi": 75,
          "name": "D#5",
          "ticks": 61632,
          "time": 53.4999465,
          "velocity": 0.6850393700787402
        },
        {
          "duration": 0.08333325000000258,
          "durationTicks": 96,
          "midi": 72,
          "name": "C5",
          "ticks": 61728,
          "time": 53.583279749999996,
          "velocity": 0.6850393700787402
        },
        {
          "duration": 0.08333325000000258,
          "durationTicks": 96,
          "midi": 79,
          "name": "G5",
          "ticks": 61824,
          "time": 53.666613,
          "velocity": 0.6850393700787402
        },
        {
          "duration": 0.08333324999999547,
          "durationTicks": 96,
          "midi": 72,
          "name": "C5",
          "ticks": 61920,
          "time": 53.74994625,
          "velocity": 0.6850393700787402
        },
        {
          "duration": 0.08333325000000258,
          "durationTicks": 96,
          "midi": 75,
          "name": "D#5",
          "ticks": 62016,
          "time": 53.833279499999996,
          "velocity": 0.6850393700787402
        },
        {
          "duration": 0.08333325000000258,
          "durationTicks": 96,
          "midi": 68,
          "name": "G#4",
          "ticks": 62112,
          "time": 53.91661275,
          "velocity": 0.6850393700787402
        },
        {
          "duration": 0.08333324999999547,
          "durationTicks": 96,
          "midi": 75,
          "name": "D#5",
          "ticks": 62208,
          "time": 53.999946,
          "velocity": 0.6850393700787402
        },
        {
          "duration": 0.08333325000000258,
          "durationTicks": 96,
          "midi": 80,
          "name": "G#5",
          "ticks": 62304,
          "time": 54.08327925,
          "velocity": 0.6850393700787402
        },
        {
          "duration": 0.08333325000000258,
          "durationTicks": 96,
          "midi": 75,
          "name": "D#5",
          "ticks": 62400,
          "time": 54.1666125,
          "velocity": 0.6850393700787402
        },
        {
          "duration": 0.08333324999999547,
          "durationTicks": 96,
          "midi": 68,
          "name": "G#4",
          "ticks": 62496,
          "time": 54.24994575,
          "velocity": 0.6850393700787402
        },
        {
          "duration": 0.08333325000000258,
          "durationTicks": 96,
          "midi": 75,
          "name": "D#5",
          "ticks": 62592,
          "time": 54.333279,
          "velocity": 0.6850393700787402
        },
        {
          "duration": 0.08333324999999547,
          "durationTicks": 96,
          "midi": 80,
          "name": "G#5",
          "ticks": 62688,
          "time": 54.41661225,
          "velocity": 0.6850393700787402
        },
        {
          "duration": 0.08333325000000258,
          "durationTicks": 96,
          "midi": 75,
          "name": "D#5",
          "ticks": 62784,
          "time": 54.499945499999995,
          "velocity": 0.6850393700787402
        },
        {
          "duration": 0.08333325000000258,
          "durationTicks": 96,
          "midi": 68,
          "name": "G#4",
          "ticks": 62880,
          "time": 54.58327875,
          "velocity": 0.6850393700787402
        },
        {
          "duration": 0.08333324999999547,
          "durationTicks": 96,
          "midi": 65,
          "name": "F4",
          "ticks": 62976,
          "time": 54.666612,
          "velocity": 0.6850393700787402
        },
        {
          "duration": 0.08333325000000258,
          "durationTicks": 96,
          "midi": 72,
          "name": "C5",
          "ticks": 63072,
          "time": 54.749945249999996,
          "velocity": 0.6850393700787402
        },
        {
          "duration": 0.08333325000000258,
          "durationTicks": 96,
          "midi": 80,
          "name": "G#5",
          "ticks": 63168,
          "time": 54.8332785,
          "velocity": 0.6850393700787402
        },
        {
          "duration": 0.08333324999999547,
          "durationTicks": 96,
          "midi": 72,
          "name": "C5",
          "ticks": 63264,
          "time": 54.91661175,
          "velocity": 0.6850393700787402
        },
        {
          "duration": 0.08333325000000258,
          "durationTicks": 96,
          "midi": 80,
          "name": "G#5",
          "ticks": 63360,
          "time": 54.999945,
          "velocity": 0.6850393700787402
        },
        {
          "duration": 0.08333325000000258,
          "durationTicks": 96,
          "midi": 72,
          "name": "C5",
          "ticks": 63456,
          "time": 55.08327825,
          "velocity": 0.6850393700787402
        },
        {
          "duration": 0.08333324999999547,
          "durationTicks": 96,
          "midi": 80,
          "name": "G#5",
          "ticks": 63552,
          "time": 55.1666115,
          "velocity": 0.6850393700787402
        },
        {
          "duration": 0.08333325000000258,
          "durationTicks": 96,
          "midi": 72,
          "name": "C5",
          "ticks": 63648,
          "time": 55.24994475,
          "velocity": 0.6850393700787402
        },
        {
          "duration": 0.08333324999999547,
          "durationTicks": 96,
          "midi": 70,
          "name": "A#4",
          "ticks": 63744,
          "time": 55.333278,
          "velocity": 0.6850393700787402
        },
        {
          "duration": 0.08333325000000258,
          "durationTicks": 96,
          "midi": 77,
          "name": "F5",
          "ticks": 63840,
          "time": 55.416611249999995,
          "velocity": 0.6850393700787402
        },
        {
          "duration": 0.08333325000000258,
          "durationTicks": 96,
          "midi": 82,
          "name": "A#5",
          "ticks": 63936,
          "time": 55.4999445,
          "velocity": 0.6850393700787402
        },
        {
          "duration": 0.08333324999999547,
          "durationTicks": 96,
          "midi": 77,
          "name": "F5",
          "ticks": 64032,
          "time": 55.58327775,
          "velocity": 0.6850393700787402
        },
        {
          "duration": 0.08333325000000258,
          "durationTicks": 96,
          "midi": 82,
          "name": "A#5",
          "ticks": 64128,
          "time": 55.666610999999996,
          "velocity": 0.6850393700787402
        },
        {
          "duration": 0.08333325000000258,
          "durationTicks": 96,
          "midi": 77,
          "name": "F5",
          "ticks": 64224,
          "time": 55.74994425,
          "velocity": 0.6850393700787402
        },
        {
          "duration": 0.08333324999999547,
          "durationTicks": 96,
          "midi": 82,
          "name": "A#5",
          "ticks": 64320,
          "time": 55.8332775,
          "velocity": 0.6850393700787402
        },
        {
          "duration": 0.08333325000000258,
          "durationTicks": 96,
          "midi": 77,
          "name": "F5",
          "ticks": 64416,
          "time": 55.91661075,
          "velocity": 0.6850393700787402
        },
        {
          "duration": 0.16666649999999805,
          "durationTicks": 192,
          "midi": 67,
          "name": "G4",
          "ticks": 64512,
          "time": 55.999944,
          "velocity": 0.6850393700787402
        },
        {
          "duration": 0.08333325000000258,
          "durationTicks": 96,
          "midi": 67,
          "name": "G4",
          "ticks": 64704,
          "time": 56.1666105,
          "velocity": 0.6850393700787402
        },
        {
          "duration": 0.08333324999999547,
          "durationTicks": 96,
          "midi": 74,
          "name": "D5",
          "ticks": 64800,
          "time": 56.24994375,
          "velocity": 0.6850393700787402
        },
        {
          "duration": 0.16666650000000516,
          "durationTicks": 192,
          "midi": 67,
          "name": "G4",
          "ticks": 64896,
          "time": 56.333276999999995,
          "velocity": 0.6850393700787402
        },
        {
          "duration": 0.08333324999999547,
          "durationTicks": 96,
          "midi": 67,
          "name": "G4",
          "ticks": 65088,
          "time": 56.4999435,
          "velocity": 0.6850393700787402
        },
        {
          "duration": 0.08333325000000258,
          "durationTicks": 96,
          "midi": 74,
          "name": "D5",
          "ticks": 65184,
          "time": 56.583276749999996,
          "velocity": 0.6850393700787402
        },
        {
          "duration": 0.16666649999999805,
          "durationTicks": 192,
          "midi": 79,
          "name": "G5",
          "ticks": 65280,
          "time": 56.66661,
          "velocity": 0.6850393700787402
        },
        {
          "duration": 0.08333325000000968,
          "durationTicks": 96,
          "midi": 65,
          "name": "F4",
          "ticks": 89088,
          "time": 77.33325599999999,
          "velocity": 0.6850393700787402
        },
        {
          "duration": 0.08333324999999547,
          "durationTicks": 96,
          "midi": 72,
          "name": "C5",
          "ticks": 89184,
          "time": 77.41658925,
          "velocity": 0.6850393700787402
        },
        {
          "duration": 0.08333324999999547,
          "durationTicks": 96,
          "midi": 80,
          "name": "G#5",
          "ticks": 89280,
          "time": 77.4999225,
          "velocity": 0.6850393700787402
        },
        {
          "duration": 0.08333325000000968,
          "durationTicks": 96,
          "midi": 72,
          "name": "C5",
          "ticks": 89376,
          "time": 77.58325574999999,
          "velocity": 0.6850393700787402
        },
        {
          "duration": 0.08333324999999547,
          "durationTicks": 96,
          "midi": 80,
          "name": "G#5",
          "ticks": 89472,
          "time": 77.666589,
          "velocity": 0.6850393700787402
        },
        {
          "duration": 0.08333324999999547,
          "durationTicks": 96,
          "midi": 72,
          "name": "C5",
          "ticks": 89568,
          "time": 77.74992225,
          "velocity": 0.6850393700787402
        },
        {
          "duration": 0.08333325000000968,
          "durationTicks": 96,
          "midi": 80,
          "name": "G#5",
          "ticks": 89664,
          "time": 77.83325549999999,
          "velocity": 0.6850393700787402
        },
        {
          "duration": 0.08333324999999547,
          "durationTicks": 96,
          "midi": 72,
          "name": "C5",
          "ticks": 89760,
          "time": 77.91658875,
          "velocity": 0.6850393700787402
        },
        {
          "duration": 0.08333324999999547,
          "durationTicks": 96,
          "midi": 70,
          "name": "A#4",
          "ticks": 89856,
          "time": 77.999922,
          "velocity": 0.6850393700787402
        },
        {
          "duration": 0.08333325000000968,
          "durationTicks": 96,
          "midi": 77,
          "name": "F5",
          "ticks": 89952,
          "time": 78.08325525,
          "velocity": 0.6850393700787402
        },
        {
          "duration": 0.08333324999999547,
          "durationTicks": 96,
          "midi": 82,
          "name": "A#5",
          "ticks": 90048,
          "time": 78.1665885,
          "velocity": 0.6850393700787402
        },
        {
          "duration": 0.08333324999999547,
          "durationTicks": 96,
          "midi": 77,
          "name": "F5",
          "ticks": 90144,
          "time": 78.24992175,
          "velocity": 0.6850393700787402
        },
        {
          "duration": 0.08333325000000968,
          "durationTicks": 96,
          "midi": 82,
          "name": "A#5",
          "ticks": 90240,
          "time": 78.333255,
          "velocity": 0.6850393700787402
        },
        {
          "duration": 0.08333324999999547,
          "durationTicks": 96,
          "midi": 77,
          "name": "F5",
          "ticks": 90336,
          "time": 78.41658825,
          "velocity": 0.6850393700787402
        },
        {
          "duration": 0.08333324999999547,
          "durationTicks": 96,
          "midi": 82,
          "name": "A#5",
          "ticks": 90432,
          "time": 78.4999215,
          "velocity": 0.6850393700787402
        },
        {
          "duration": 0.08333325000000968,
          "durationTicks": 96,
          "midi": 77,
          "name": "F5",
          "ticks": 90528,
          "time": 78.58325475,
          "velocity": 0.6850393700787402
        },
        {
          "duration": 0.08333324999999547,
          "durationTicks": 96,
          "midi": 63,
          "name": "D#4",
          "ticks": 90624,
          "time": 78.666588,
          "velocity": 0.6850393700787402
        },
        {
          "duration": 0.08333324999999547,
          "durationTicks": 96,
          "midi": 72,
          "name": "C5",
          "ticks": 90720,
          "time": 78.74992125,
          "velocity": 0.6850393700787402
        },
        {
          "duration": 0.08333324999999547,
          "durationTicks": 96,
          "midi": 75,
          "name": "D#5",
          "ticks": 90816,
          "time": 78.8332545,
          "velocity": 0.6850393700787402
        },
        {
          "duration": 0.08333325000000968,
          "durationTicks": 96,
          "midi": 72,
          "name": "C5",
          "ticks": 90912,
          "time": 78.91658774999999,
          "velocity": 0.6850393700787402
        },
        {
          "duration": 0.08333324999999547,
          "durationTicks": 96,
          "midi": 79,
          "name": "G5",
          "ticks": 91008,
          "time": 78.999921,
          "velocity": 0.6850393700787402
        },
        {
          "duration": 0.08333324999999547,
          "durationTicks": 96,
          "midi": 72,
          "name": "C5",
          "ticks": 91104,
          "time": 79.08325425,
          "velocity": 0.6850393700787402
        },
        {
          "duration": 0.08333325000000968,
          "durationTicks": 96,
          "midi": 75,
          "name": "D#5",
          "ticks": 91200,
          "time": 79.16658749999999,
          "velocity": 0.6850393700787402
        },
        {
          "duration": 0.08333324999999547,
          "durationTicks": 96,
          "midi": 68,
          "name": "G#4",
          "ticks": 91296,
          "time": 79.24992075,
          "velocity": 0.6850393700787402
        },
        {
          "duration": 0.08333324999999547,
          "durationTicks": 96,
          "midi": 75,
          "name": "D#5",
          "ticks": 91392,
          "time": 79.333254,
          "velocity": 0.6850393700787402
        },
        {
          "duration": 0.08333325000000968,
          "durationTicks": 96,
          "midi": 80,
          "name": "G#5",
          "ticks": 91488,
          "time": 79.41658724999999,
          "velocity": 0.6850393700787402
        },
        {
          "duration": 0.08333324999999547,
          "durationTicks": 96,
          "midi": 75,
          "name": "D#5",
          "ticks": 91584,
          "time": 79.4999205,
          "velocity": 0.6850393700787402
        },
        {
          "duration": 0.08333324999999547,
          "durationTicks": 96,
          "midi": 68,
          "name": "G#4",
          "ticks": 91680,
          "time": 79.58325375,
          "velocity": 0.6850393700787402
        },
        {
          "duration": 0.08333325000000968,
          "durationTicks": 96,
          "midi": 75,
          "name": "D#5",
          "ticks": 91776,
          "time": 79.66658699999999,
          "velocity": 0.6850393700787402
        },
        {
          "duration": 0.08333324999999547,
          "durationTicks": 96,
          "midi": 80,
          "name": "G#5",
          "ticks": 91872,
          "time": 79.74992025,
          "velocity": 0.6850393700787402
        },
        {
          "duration": 0.08333324999999547,
          "durationTicks": 96,
          "midi": 75,
          "name": "D#5",
          "ticks": 91968,
          "time": 79.8332535,
          "velocity": 0.6850393700787402
        },
        {
          "duration": 0.08333325000000968,
          "durationTicks": 96,
          "midi": 68,
          "name": "G#4",
          "ticks": 92064,
          "time": 79.91658675,
          "velocity": 0.6850393700787402
        },
        {
          "duration": 0.08333324999999547,
          "durationTicks": 96,
          "midi": 65,
          "name": "F4",
          "ticks": 92160,
          "time": 79.99992,
          "velocity": 0.6850393700787402
        },
        {
          "duration": 0.08333324999999547,
          "durationTicks": 96,
          "midi": 72,
          "name": "C5",
          "ticks": 92256,
          "time": 80.08325325,
          "velocity": 0.6850393700787402
        },
        {
          "duration": 0.08333325000000968,
          "durationTicks": 96,
          "midi": 80,
          "name": "G#5",
          "ticks": 92352,
          "time": 80.1665865,
          "velocity": 0.6850393700787402
        },
        {
          "duration": 0.08333324999999547,
          "durationTicks": 96,
          "midi": 72,
          "name": "C5",
          "ticks": 92448,
          "time": 80.24991975,
          "velocity": 0.6850393700787402
        },
        {
          "duration": 0.08333324999999547,
          "durationTicks": 96,
          "midi": 80,
          "name": "G#5",
          "ticks": 92544,
          "time": 80.333253,
          "velocity": 0.6850393700787402
        },
        {
          "duration": 0.08333325000000968,
          "durationTicks": 96,
          "midi": 72,
          "name": "C5",
          "ticks": 92640,
          "time": 80.41658625,
          "velocity": 0.6850393700787402
        },
        {
          "duration": 0.08333324999999547,
          "durationTicks": 96,
          "midi": 80,
          "name": "G#5",
          "ticks": 92736,
          "time": 80.4999195,
          "velocity": 0.6850393700787402
        },
        {
          "duration": 0.08333324999999547,
          "durationTicks": 96,
          "midi": 72,
          "name": "C5",
          "ticks": 92832,
          "time": 80.58325275,
          "velocity": 0.6850393700787402
        },
        {
          "duration": 0.08333324999999547,
          "durationTicks": 96,
          "midi": 70,
          "name": "A#4",
          "ticks": 92928,
          "time": 80.666586,
          "velocity": 0.6850393700787402
        },
        {
          "duration": 0.08333325000000968,
          "durationTicks": 96,
          "midi": 77,
          "name": "F5",
          "ticks": 93024,
          "time": 80.74991924999999,
          "velocity": 0.6850393700787402
        },
        {
          "duration": 0.08333324999999547,
          "durationTicks": 96,
          "midi": 82,
          "name": "A#5",
          "ticks": 93120,
          "time": 80.8332525,
          "velocity": 0.6850393700787402
        },
        {
          "duration": 0.08333324999999547,
          "durationTicks": 96,
          "midi": 77,
          "name": "F5",
          "ticks": 93216,
          "time": 80.91658575,
          "velocity": 0.6850393700787402
        },
        {
          "duration": 0.08333325000000968,
          "durationTicks": 96,
          "midi": 82,
          "name": "A#5",
          "ticks": 93312,
          "time": 80.99991899999999,
          "velocity": 0.6850393700787402
        },
        {
          "duration": 0.08333324999999547,
          "durationTicks": 96,
          "midi": 77,
          "name": "F5",
          "ticks": 93408,
          "time": 81.08325225,
          "velocity": 0.6850393700787402
        },
        {
          "duration": 0.08333324999999547,
          "durationTicks": 96,
          "midi": 82,
          "name": "A#5",
          "ticks": 93504,
          "time": 81.1665855,
          "velocity": 0.6850393700787402
        },
        {
          "duration": 0.08333325000000968,
          "durationTicks": 96,
          "midi": 77,
          "name": "F5",
          "ticks": 93600,
          "time": 81.24991874999999,
          "velocity": 0.6850393700787402
        },
        {
          "duration": 0.16666649999999095,
          "durationTicks": 192,
          "midi": 67,
          "name": "G4",
          "ticks": 93696,
          "time": 81.333252,
          "velocity": 0.6850393700787402
        },
        {
          "duration": 0.08333325000000968,
          "durationTicks": 96,
          "midi": 67,
          "name": "G4",
          "ticks": 93888,
          "time": 81.49991849999999,
          "velocity": 0.6850393700787402
        },
        {
          "duration": 0.08333324999999547,
          "durationTicks": 96,
          "midi": 74,
          "name": "D5",
          "ticks": 93984,
          "time": 81.58325175,
          "velocity": 0.6850393700787402
        },
        {
          "duration": 0.16666650000000516,
          "durationTicks": 192,
          "midi": 67,
          "name": "G4",
          "ticks": 94080,
          "time": 81.666585,
          "velocity": 0.6850393700787402
        },
        {
          "duration": 0.08333324999999547,
          "durationTicks": 96,
          "midi": 67,
          "name": "G4",
          "ticks": 94272,
          "time": 81.8332515,
          "velocity": 0.6850393700787402
        },
        {
          "duration": 0.08333324999999547,
          "durationTicks": 96,
          "midi": 74,
          "name": "D5",
          "ticks": 94368,
          "time": 81.91658475,
          "velocity": 0.6850393700787402
        },
        {
          "duration": 0.16666650000000516,
          "durationTicks": 192,
          "midi": 79,
          "name": "G5",
          "ticks": 94464,
          "time": 81.999918,
          "velocity": 0.6850393700787402
        }
      ]
    },
    {
      "channel": 0,
      "controlChanges": {},
      "pitchBends": [],
      "instrument": {
        "family": "piano",
        "number": 0,
        "name": "acoustic grand piano"
      },
      "name": "heatman5@aol.com",
      "notes": [],
      "endOfTrackTicks": 0
    },
    {
      "channel": 0,
      "controlChanges": {},
      "pitchBends": [],
      "instrument": {
        "family": "piano",
        "number": 0,
        "name": "acoustic grand piano"
      },
      "name": "Hi Rai!!!",
      "notes": [],
      "endOfTrackTicks": 0
    },
    {
      "channel": 0,
      "controlChanges": {},
      "pitchBends": [],
      "instrument": {
        "family": "piano",
        "number": 0,
        "name": "acoustic grand piano"
      },
      "name": "It's about time SOMEONE did this song =)",
      "notes": [],
      "endOfTrackTicks": 0
    },
    {
      "channel": 0,
      "controlChanges": {},
      "pitchBends": [],
      "instrument": {
        "family": "piano",
        "number": 0,
        "name": "acoustic grand piano"
      },
      "name": "",
      "notes": [],
      "endOfTrackTicks": 0
    },
    {
      "channel": 0,
      "controlChanges": {},
      "pitchBends": [],
      "instrument": {
        "family": "piano",
        "number": 0,
        "name": "acoustic grand piano"
      },
      "name": "",
      "notes": [],
      "endOfTrackTicks": 0
    },
    {
      "channel": 0,
      "controlChanges": {},
      "pitchBends": [],
      "instrument": {
        "family": "piano",
        "number": 0,
        "name": "acoustic grand piano"
      },
      "name": "",
      "notes": [],
      "endOfTrackTicks": 0
    },
    {
      "channel": 0,
      "controlChanges": {},
      "pitchBends": [],
      "instrument": {
        "family": "piano",
        "number": 0,
        "name": "acoustic grand piano"
      },
      "name": "",
      "notes": [],
      "endOfTrackTicks": 0
    },
    {
      "channel": 0,
      "controlChanges": {},
      "pitchBends": [],
      "instrument": {
        "family": "piano",
        "number": 0,
        "name": "acoustic grand piano"
      },
      "name": "",
      "notes": [],
      "endOfTrackTicks": 0
    },
    {
      "channel": 0,
      "controlChanges": {},
      "pitchBends": [],
      "instrument": {
        "family": "piano",
        "number": 0,
        "name": "acoustic grand piano"
      },
      "name": "",
      "notes": [],
      "endOfTrackTicks": 0
    },
    {
      "channel": 0,
      "controlChanges": {},
      "pitchBends": [],
      "instrument": {
        "family": "piano",
        "number": 0,
        "name": "acoustic grand piano"
      },
      "name": "",
      "notes": [],
      "endOfTrackTicks": 0
    },
    {
      "channel": 0,
      "controlChanges": {},
      "pitchBends": [],
      "instrument": {
        "family": "piano",
        "number": 0,
        "name": "acoustic grand piano"
      },
      "name": "",
      "notes": [],
      "endOfTrackTicks": 0
    },
    {
      "channel": 0,
      "controlChanges": {},
      "pitchBends": [],
      "instrument": {
        "family": "piano",
        "number": 0,
        "name": "acoustic grand piano"
      },
      "name": "",
      "notes": [],
      "endOfTrackTicks": 0
    },
    {
      "channel": 0,
      "controlChanges": {},
      "pitchBends": [],
      "instrument": {
        "family": "piano",
        "number": 0,
        "name": "acoustic grand piano"
      },
      "name": "",
      "notes": [],
      "endOfTrackTicks": 0
    },
    {
      "channel": 0,
      "controlChanges": {},
      "pitchBends": [],
      "instrument": {
        "family": "piano",
        "number": 0,
        "name": "acoustic grand piano"
      },
      "name": "",
      "notes": [],
      "endOfTrackTicks": 0
    },
    {
      "channel": 0,
      "controlChanges": {},
      "pitchBends": [],
      "instrument": {
        "family": "piano",
        "number": 0,
        "name": "acoustic grand piano"
      },
      "name": "",
      "notes": [],
      "endOfTrackTicks": 0
    },
    {
      "channel": 0,
      "controlChanges": {},
      "pitchBends": [],
      "instrument": {
        "family": "piano",
        "number": 0,
        "name": "acoustic grand piano"
      },
      "name": "",
      "notes": [],
      "endOfTrackTicks": 0
    },
    {
      "channel": 0,
      "controlChanges": {},
      "pitchBends": [],
      "instrument": {
        "family": "piano",
        "number": 0,
        "name": "acoustic grand piano"
      },
      "name": "",
      "notes": [],
      "endOfTrackTicks": 0
    },
    {
      "channel": 0,
      "controlChanges": {},
      "pitchBends": [],
      "instrument": {
        "family": "piano",
        "number": 0,
        "name": "acoustic grand piano"
      },
      "name": "",
      "notes": [],
      "endOfTrackTicks": 0
    }
  ]
}
