<svg version="1.1" xmlns="http://www.w3.org/2000/svg" x="0" y="0" viewBox="0 0 48 48" xml:space="preserve">
  <path d="M39 20v-4h-2v-4h-2v-2h-2V6h-2V4h-2V2h-2v2h-2V2h-2V0h-4v2h-2v2h-4v2h-2v2H9v6H7v2h2v4h2v2H9v2h2v2h2v2h2v2h4v2h-2v2h-2v2h2v2h2v2h4v4h2v2h2v2h2v-2h2v-2h2v-2h-2v-2h-2v-4h2v-2h-2v-2h4v-2h2v-2h2v-2h2v-4h2v-2z"/>
  <g>
    <path fill="#f00" d="M37 20v-4h-2v-4h-2v-2h-2V6h-2V4h-2v2h-2V4h-2V2h-4v2h-2v2h-4v2h-2v6H9v2h2v4h2v2h-2v2h2v2h2v2h4v2h4v2h-4v2h-2v2h2v2h4v-2h2v2h2v-2h2v-2h-4v-2h4v-2h4v-2h2v-2h2v-4h2v-2z"/>
    <path fill="#f00" d="M29 40h-4v4h2v2h2v-2h2v-2h-2z"/>
  </g>
  <g>
    <path fill="#fff" d="M25 18v2h4v2h-2v2h-2v2h8v-2h-4v-2h2v-2h2v-2z"/>
    <path fill="#fff" d="M15 10v2h4v2h-2v2h-2v2h8v-2h-4v-2h2v-2h2v-2z"/>
  </g>
</svg>
