<svg width="44" height="42" viewBox="0 0 44 42" fill="none" xmlns="http://www.w3.org/2000/svg">
<path d="M0 0H44V42H0V0Z" fill="#0066FF"/>
<path d="M6 24V32H38V24H6ZM36 30H8V26H36V30Z" fill="black"/>
<path d="M8 12H14V18H8V12Z" fill="white"/>
<path d="M6 10V20H16V10H6ZM14 18H8V12H14V18Z" fill="black"/>
<path d="M10 14H12V16H10V14Z" fill="black"/>
<path d="M30 12H36V18H30V12Z" fill="white"/>
<path d="M28 10V20H38V10H28ZM36 18H30V12H36V18Z" fill="black"/>
<path d="M32 14H34V16H32V14Z" fill="black"/>
<path d="M8 26H36V30H8V26Z" fill="#FF0000"/>
<path d="M0 0V42H44V0H0ZM41.9048 40H2.09524V2H41.9048V40Z" fill="black"/>
</svg>
