<?xml version="1.0" encoding="utf-8"?>
<svg version="1.1" id="Ebene_1" xmlns="http://www.w3.org/2000/svg" xmlns:xlink="http://www.w3.org/1999/xlink" x="0px" y="0px"
	 viewBox="0 0 48 48" style="enable-background:new 0 0 48 48;" xml:space="preserve">
<style type="text/css">
	.st0{fill:#FF0000;}
	.st1{fill:#FFFFFF;}
</style>
<polygon points="39,20 39,16 37,16 37,12 35,12 35,10 33,10 33,6 31,6 31,4 29,4 29,2 27,2 27,4 25,4 25,2 23,2 23,0 19,0 19,2
	17,2 17,4 13,4 13,6 11,6 11,8 9,8 9,14 7,14 7,16 9,16 9,20 11,20 11,22 9,22 9,24 11,24 11,26 13,26 13,28 15,28 15,30 19,30
	19,32 17,32 17,34 15,34 15,36 17,36 17,38 19,38 19,40 23,40 23,44 25,44 25,46 27,46 27,48 29,48 29,46 31,46 31,44 33,44 33,42
	31,42 31,40 29,40 29,38 29,36 31,36 31,34 29,34 29,32 33,32 33,30 35,30 35,28 37,28 37,26 39,26 39,22 41,22 41,20 "/>
<g>
	<polygon class="st0" points="37,20 37,16 35,16 35,12 33,12 33,10 31,10 31,6 29,6 29,4 27,4 27,6 25,6 25,4 23,4 23,2 19,2 19,4
		17,4 17,6 13,6 13,8 11,8 11,14 9,14 9,16 11,16 11,20 13,20 13,22 11,22 11,24 13,24 13,26 15,26 15,28 19,28 19,30 23,30 23,32
		19,32 19,34 17,34 17,36 19,36 19,38 23,38 23,36 25,36 25,38 27,38 27,36 29,36 29,34 25,34 25,32 29,32 29,30 33,30 33,28 35,28
		35,26 37,26 37,22 39,22 39,20 	"/>
	<polygon class="st0" points="29,40 25,40 25,44 27,44 27,46 29,46 29,44 31,44 31,42 29,42 	"/>
</g>
<g>
	<polygon class="st1" points="25,18 25,20 29,20 29,22 27,22 27,24 25,24 25,26 33,26 33,24 29,24 29,22 31,22 31,20 33,20 33,18
		"/>
	<polygon class="st1" points="15,10 15,12 19,12 19,14 17,14 17,16 15,16 15,18 23,18 23,16 19,16 19,14 21,14 21,12 23,12 23,10
		"/>
</g>
</svg>
